%TF.GenerationSoftware,KiCad,Pcbnew,10.0.6-10.0.6~ubuntu24.04.1*%
%TF.CreationDate,2026-09-26T12:21:50-07:00*%
%TF.ProjectId,carrier,63617272-6965-4722-9e6b-696361645f70,rev?*%
%TF.SameCoordinates,Original*%
%TF.FileFunction,Copper,L3,Inr*%
%TF.FilePolarity,Positive*%
%FSLAX46Y46*%
G04 Gerber Fmt 4.6, Leading zero omitted, Abs format (unit mm)*
G04 Created by KiCad (PCBNEW 10.0.6-10.0.6~ubuntu24.04.1) date 2026-09-26 12:21:50*
%MOMM*%
%LPD*%
G01*
G04 APERTURE LIST*
%TA.AperFunction,ComponentPad*%
%ADD10O,1.000000X2.100000*%
%TD*%
%TA.AperFunction,ComponentPad*%
%ADD11O,1.000000X1.600000*%
%TD*%
%TA.AperFunction,ViaPad*%
%ADD12C,0.500000*%
%TD*%
%TA.AperFunction,Conductor*%
%ADD13C,0.200000*%
%TD*%
G04 APERTURE END LIST*
D10*
%TO.N,GND*%
%TO.C,J3*%
X84320000Y139070000D03*
D11*
X84320000Y143250000D03*
D10*
X75680000Y139070000D03*
D11*
X75680000Y143250000D03*
%TD*%
D12*
%TO.N,ESP_GPIO44_RXD*%
X82275000Y113445000D03*
X42825000Y41250000D03*
%TO.N,GND*%
X86774999Y42500000D03*
X123775000Y30500000D03*
X27087500Y42500000D03*
X2775000Y68500000D03*
X148087500Y83500000D03*
X123775000Y65500000D03*
X2775000Y21500000D03*
X46500000Y27500000D03*
X93500000Y68500000D03*
X119500000Y112500000D03*
X64087499Y80500000D03*
X133775000Y79800000D03*
X123775000Y62500000D03*
X2775000Y62500000D03*
X49775000Y79800000D03*
X2775000Y74500000D03*
X27087500Y62500000D03*
X64087499Y62500000D03*
X39775000Y68500000D03*
X86774999Y68500000D03*
X111087500Y21500000D03*
X46500000Y68500000D03*
X111087500Y27500000D03*
X2775000Y65500000D03*
X27087500Y36500000D03*
X123775000Y39500000D03*
X86774999Y83500000D03*
X49000000Y67500000D03*
X148087500Y74500000D03*
X39775000Y80500000D03*
X123775000Y71500000D03*
X123775000Y36500000D03*
X27087500Y33500000D03*
X123775000Y83500000D03*
X2775000Y39500000D03*
X64087499Y65500000D03*
X123775000Y27500000D03*
X148087500Y27500000D03*
X93500000Y36500000D03*
X111087500Y68500000D03*
X86774999Y65500000D03*
X123775000Y33500000D03*
X130500000Y27500000D03*
X64087499Y71500000D03*
X46500000Y77500000D03*
X122775000Y114800000D03*
X12000000Y26500000D03*
X64087499Y68500000D03*
X27087500Y77500000D03*
X27087500Y39500000D03*
X133775000Y38800000D03*
X44637500Y29075000D03*
X64087499Y42500000D03*
X64087499Y36500000D03*
X122000000Y102500000D03*
X86774999Y36500000D03*
X86774999Y62500000D03*
X54700000Y134775000D03*
X2775000Y71500000D03*
X148087500Y65500000D03*
X148087500Y71500000D03*
X27087500Y74500000D03*
X123775000Y68500000D03*
X119500000Y103500000D03*
X64087499Y74500000D03*
X148087500Y77500000D03*
X80000000Y135750000D03*
X49775000Y38800000D03*
X111087500Y24500000D03*
X59800000Y131000000D03*
X49000000Y26500000D03*
X27087500Y24500000D03*
X148087500Y80500000D03*
X39775000Y42500000D03*
X96775000Y38800000D03*
X86774999Y21500000D03*
X86774999Y24500000D03*
X86774999Y27500000D03*
X111087500Y80500000D03*
X39775000Y36500000D03*
X111087500Y30500000D03*
X27087500Y65500000D03*
X2775000Y24500000D03*
X80000000Y119000000D03*
X64087499Y83500000D03*
X130500000Y68500000D03*
X2775000Y42500000D03*
X86774999Y74500000D03*
X86800000Y119000000D03*
X9500000Y77500000D03*
X86774999Y30500000D03*
X111087500Y62500000D03*
X148087500Y36500000D03*
X86774999Y80500000D03*
X96000000Y67500000D03*
X2775000Y83500000D03*
X2775000Y30500000D03*
X27087500Y21500000D03*
X123775000Y80500000D03*
X123775000Y42500000D03*
X9500000Y27500000D03*
X111087500Y65500000D03*
X111087500Y74500000D03*
X27087500Y30500000D03*
X130500000Y36500000D03*
X86774999Y71500000D03*
X39775000Y62500000D03*
X39775000Y74500000D03*
X9500000Y68500000D03*
X2775000Y33500000D03*
X39775000Y83500000D03*
X86800000Y94000000D03*
X2775000Y27500000D03*
X12775000Y79800000D03*
X9500000Y36500000D03*
X27087500Y68500000D03*
X73200000Y119000000D03*
X27087500Y71500000D03*
X2775000Y77500000D03*
X64087499Y39500000D03*
X12000000Y67500000D03*
X111087500Y77500000D03*
X111087500Y33500000D03*
X73200000Y94000000D03*
X148087500Y68500000D03*
X130500000Y77500000D03*
X64087499Y77500000D03*
X12775000Y38800000D03*
X123775000Y74500000D03*
X65300000Y134775000D03*
X39775000Y71500000D03*
X86774999Y77500000D03*
X111087500Y83500000D03*
X93500000Y77500000D03*
X117637500Y105075000D03*
X133000000Y67500000D03*
X80000000Y94000000D03*
X86774999Y33500000D03*
X111087500Y71500000D03*
X123775000Y77500000D03*
X39775000Y77500000D03*
X93500000Y27500000D03*
X39775000Y65500000D03*
X111087500Y36500000D03*
X27087500Y27500000D03*
X111087500Y39500000D03*
X96775000Y79800000D03*
X46500000Y36500000D03*
X111087500Y42500000D03*
X27087500Y80500000D03*
X133000000Y26500000D03*
X86774999Y39500000D03*
X148087500Y42500000D03*
X148087500Y39500000D03*
X148087500Y30500000D03*
X27087500Y83500000D03*
X96000000Y26500000D03*
X128637500Y29075000D03*
X2775000Y36500000D03*
X148087500Y62500000D03*
X39775000Y39500000D03*
X148087500Y33500000D03*
%TO.N,ESP_GPIO2*%
X5825000Y73250000D03*
X59752000Y124716900D03*
%TO.N,BUF_FPGA_RGB1*%
X137087500Y115500000D03*
X126162500Y108975000D03*
%TO.N,CC2*%
X85320200Y134030000D03*
X77264900Y134767800D03*
%TO.N,ESP_GPIO35*%
X53316300Y108995500D03*
X5825000Y38250000D03*
X81625000Y114245001D03*
X69673300Y112348900D03*
%TO.N,FPGA_IOT_46B_G0*%
X74475000Y88480000D03*
X74616100Y50352600D03*
%TO.N,FPGA_IOB_23B*%
X80325000Y98720000D03*
X126825000Y67250000D03*
%TO.N,FPGA_RGB2*%
X79025000Y89280000D03*
X115825000Y111250000D03*
%TO.N,+3V3_TEST*%
X130175000Y116750000D03*
X48225000Y79800000D03*
X112775000Y112500000D03*
X132225000Y79800000D03*
X50000000Y130348300D03*
X130175000Y119750000D03*
X11225000Y79800000D03*
X121225000Y114800000D03*
X65500000Y133225000D03*
X95225000Y79800000D03*
X11225000Y38800000D03*
X132225000Y38800000D03*
X48225000Y38800000D03*
X112775000Y118500000D03*
X112775000Y115500000D03*
X2775000Y80500000D03*
X130175000Y113750000D03*
X95225000Y38800000D03*
%TO.N,FPGA_IOB_22A*%
X126825000Y70250000D03*
X83575000Y99520000D03*
%TO.N,FPGA_IOB_4A*%
X84225000Y89280000D03*
X89825000Y73250000D03*
%TO.N,FPGA_RGB1*%
X115825000Y114250000D03*
X77725000Y89280000D03*
%TO.N,ESP_GPIO8*%
X73825000Y123755000D03*
X71850000Y117700000D03*
%TO.N,ESP_GPIO7*%
X45039800Y87679600D03*
X74475000Y124555000D03*
%TO.N,ESP_GPIO15*%
X42825000Y76250000D03*
X77075000Y113445000D03*
%TO.N,ESP_GPIO16*%
X42825000Y73250000D03*
X75775000Y113445000D03*
%TO.N,ESP_GPIO17*%
X54614600Y110241600D03*
X41643800Y75540900D03*
%TO.N,ESP_GPIO18*%
X42825000Y67250000D03*
X75125000Y114245001D03*
%TO.N,ESP_GPIO21*%
X73825000Y114245001D03*
X44676700Y84787900D03*
%TO.N,ESP_GPIO33*%
X80975000Y113445000D03*
X42825000Y61250000D03*
%TO.N,FPGA_RGB0*%
X77075000Y88480000D03*
X115825000Y117250000D03*
%TO.N,VIN_5V*%
X68400000Y131500000D03*
X83800000Y121700000D03*
%TO.N,FPGA_IOB_20A*%
X82275000Y99520000D03*
X126825000Y73250000D03*
%TO.N,FPGA_IOB_2A*%
X83575000Y88480000D03*
X84556200Y86298800D03*
%TO.N,FPGA_IOT_45A_G1*%
X126825000Y41250000D03*
X75775000Y88480000D03*
%TO.N,FPGA_IOT_36B*%
X77725000Y98720000D03*
X79050000Y86200000D03*
X89825000Y41250000D03*
%TO.N,USB_D+*%
X82535200Y133474800D03*
X79250000Y139600000D03*
X80950000Y136350000D03*
%TO.N,USB_D-*%
X80750000Y139600000D03*
X77527600Y133437200D03*
X79050000Y136350000D03*
%TO.N,ESP_EN*%
X57820500Y109419000D03*
X79675000Y124555000D03*
%TO.N,ESP_GPIO0_BOOT*%
X43695300Y121724500D03*
X5825000Y79250000D03*
%TO.N,ESP_GPIO1*%
X78375000Y124555000D03*
X5825000Y76250000D03*
%TO.N,ESP_GPIO3*%
X77075000Y124555000D03*
X5825000Y70250000D03*
%TO.N,ESP_GPIO4*%
X5825000Y67250000D03*
X76425000Y123755000D03*
%TO.N,ESP_GPIO5*%
X5825000Y64250000D03*
X75775000Y124555000D03*
%TO.N,ESP_GPIO6*%
X5825000Y61250000D03*
X75125000Y123755000D03*
%TO.N,ESP_GPIO40*%
X11255400Y32987500D03*
X68081800Y99173800D03*
X86175000Y113445000D03*
%TO.N,ESP_GPIO39*%
X11307900Y34063200D03*
X84875000Y113445000D03*
X77805400Y110533200D03*
%TO.N,ESP_GPIO41*%
X84225000Y114245001D03*
X5825000Y26250000D03*
%TO.N,ESP_GPIO42*%
X10510700Y31621400D03*
X83575000Y113445000D03*
%TO.N,ESP_GPIO43_TXD*%
X5825000Y20250000D03*
X82925000Y114245001D03*
%TO.N,ESP_GPIO34*%
X5825000Y41250000D03*
X79025000Y114245001D03*
X66752400Y119390800D03*
%TO.N,ESP_GPIO46*%
X75471800Y106561200D03*
X43657700Y38959600D03*
%TO.N,ESP_GPIO45*%
X68637900Y99899100D03*
X42825000Y38250000D03*
%TO.N,ESP_GPIO38*%
X74475000Y113445000D03*
X5825000Y35250000D03*
%TO.N,FPGA_IOT_48B*%
X73825000Y89280000D03*
X126825000Y35250000D03*
X78083600Y38589200D03*
%TO.N,FPGA_IOT_49A*%
X126825000Y32250000D03*
X80325000Y89280000D03*
%TO.N,FPGA_IOT_50B*%
X89026700Y36837400D03*
X76425000Y89280000D03*
X126825000Y29250000D03*
%TO.N,FPGA_IOT_51A*%
X126825000Y26250000D03*
X79675000Y88480000D03*
X88553300Y86530900D03*
%TO.N,FPGA_IOB_13B*%
X82925000Y98720000D03*
X126825000Y82250000D03*
%TO.N,FPGA_IOB_16A*%
X126825000Y79250000D03*
X84225000Y98720000D03*
%TO.N,FPGA_IOB_18A*%
X126825000Y76250000D03*
X85525000Y98720000D03*
%TO.N,FPGA_IOB_25B_G3*%
X126825000Y64250000D03*
X79025000Y98720000D03*
%TO.N,FPGA_IOB_29B*%
X126825000Y61250000D03*
X79675000Y99520000D03*
%TO.N,FPGA_IOB_9B*%
X89825000Y61250000D03*
X84875000Y88480000D03*
%TO.N,FPGA_IOB_5B*%
X84237400Y74963600D03*
X82275000Y88480000D03*
%TO.N,FPGA_IOB_6A*%
X89825000Y67250000D03*
X86175000Y88480000D03*
%TO.N,FPGA_IOB_8A*%
X89825000Y64250000D03*
X85525000Y89280000D03*
%TO.N,BUF_FPGA_RGB2*%
X137087500Y112500000D03*
X126162500Y108325000D03*
%TO.N,FPGA_IOT_39A*%
X76425000Y98720000D03*
X89825000Y32250000D03*
%TO.N,FPGA_IOT_43A*%
X73825000Y98720000D03*
X89825000Y23250000D03*
%TO.N,FPGA_IOT_37A*%
X80975000Y99520000D03*
X89825000Y38250000D03*
X78514400Y97377600D03*
%TO.N,FPGA_IOT_38B*%
X71994300Y42969300D03*
X77075000Y99520000D03*
X72078500Y96681500D03*
%TO.N,FPGA_IOT_41A*%
X89825000Y29250000D03*
X75775000Y99520000D03*
%TO.N,FPGA_IOT_42B*%
X74475000Y99520000D03*
X89825000Y26250000D03*
%TO.N,FPGA_IOT_44B*%
X89825000Y20250000D03*
X81625000Y89280000D03*
%TO.N,BUF_FPGA_RGB0*%
X137087500Y118500000D03*
X126162500Y109625000D03*
%TD*%
%TO.N,ESP_GPIO44_RXD*%
D13*
X81658300Y113445000D02*
X68591100Y100377800D01*
X82275000Y113445000D02*
X81658300Y113445000D01*
X51651500Y50076500D02*
X42825000Y41250000D01*
X68439700Y100377800D02*
X51651500Y83589600D01*
X51651500Y83589600D02*
X51651500Y50076500D01*
X68591100Y100377800D02*
X68439700Y100377800D01*
%TO.N,ESP_GPIO2*%
X59752000Y124716900D02*
X8285100Y73250000D01*
X8285100Y73250000D02*
X5825000Y73250000D01*
%TO.N,ESP_GPIO35*%
X41029500Y96708700D02*
X41029500Y73454500D01*
X41029500Y73454500D02*
X5825000Y38250000D01*
X53316300Y108995500D02*
X41029500Y96708700D01*
%TO.N,FPGA_IOT_46B_G0*%
X74475000Y50493700D02*
X74475000Y88480000D01*
X74616100Y50352600D02*
X74475000Y50493700D01*
%TO.N,FPGA_IOB_23B*%
X126825000Y67250000D02*
X123296200Y70778800D01*
X123296200Y70778800D02*
X108266200Y70778800D01*
X108266200Y70778800D02*
X80325000Y98720000D01*
%TO.N,+3V3_TEST*%
X112775000Y118500000D02*
X112775000Y115500000D01*
X112775000Y115500000D02*
X112775000Y112500000D01*
X130175000Y113750000D02*
X130175000Y116750000D01*
X130175000Y119750000D02*
X130175000Y116750000D01*
X132225000Y79800000D02*
X132225000Y111700000D01*
X132225000Y111700000D02*
X130175000Y113750000D01*
%TO.N,FPGA_IOB_22A*%
X126825000Y70250000D02*
X100333800Y96741200D01*
X81794100Y99725600D02*
X82119100Y100050600D01*
X82119100Y100050600D02*
X83044400Y100050600D01*
X81794100Y98638900D02*
X81794100Y99725600D01*
X83691800Y96741200D02*
X81794100Y98638900D01*
X83044400Y100050600D02*
X83575000Y99520000D01*
X100333800Y96741200D02*
X83691800Y96741200D01*
%TO.N,FPGA_IOB_4A*%
X84707600Y89762600D02*
X84225000Y89280000D01*
X89825000Y73250000D02*
X88074600Y75000400D01*
X85738000Y89762600D02*
X84707600Y89762600D01*
X88074600Y75000400D02*
X88074600Y87426000D01*
X88074600Y87426000D02*
X85738000Y89762600D01*
%TO.N,ESP_GPIO7*%
X45039800Y97360700D02*
X45039800Y87679600D01*
X75050200Y124555000D02*
X75621000Y123984200D01*
X75621000Y123510500D02*
X67404200Y115293700D01*
X75621000Y123984200D02*
X75621000Y123510500D01*
X67404200Y115293700D02*
X62972800Y115293700D01*
X62972800Y115293700D02*
X45039800Y97360700D01*
X74475000Y124555000D02*
X75050200Y124555000D01*
%TO.N,ESP_GPIO15*%
X43535200Y76960200D02*
X43535200Y84857500D01*
X43535200Y84857500D02*
X70480700Y111803000D01*
X70480700Y112042400D02*
X73496800Y115058500D01*
X77075000Y114303500D02*
X77075000Y113445000D01*
X42825000Y76250000D02*
X43535200Y76960200D01*
X76320000Y115058500D02*
X77075000Y114303500D01*
X70480700Y111803000D02*
X70480700Y112042400D01*
X73496800Y115058500D02*
X76320000Y115058500D01*
%TO.N,ESP_GPIO16*%
X75775000Y114300200D02*
X75775000Y113445000D01*
X70809400Y111666900D02*
X70809400Y111906300D01*
X70809400Y111906300D02*
X73626800Y114723700D01*
X44198000Y85055500D02*
X70809400Y111666900D01*
X42825000Y73250000D02*
X44198000Y74623000D01*
X44198000Y74623000D02*
X44198000Y85055500D01*
X75351500Y114723700D02*
X75775000Y114300200D01*
X73626800Y114723700D02*
X75351500Y114723700D01*
%TO.N,ESP_GPIO17*%
X54614600Y110241600D02*
X54614600Y107590000D01*
X54614600Y107590000D02*
X41643800Y94619200D01*
X41643800Y94619200D02*
X41643800Y75540900D01*
%TO.N,ESP_GPIO18*%
X45692600Y70117600D02*
X42825000Y67250000D01*
X45692600Y80949100D02*
X45692600Y70117600D01*
X75125000Y114245000D02*
X75125000Y110381500D01*
X75125000Y110381500D02*
X45692600Y80949100D01*
%TO.N,ESP_GPIO21*%
X44676700Y84787900D02*
X73825000Y113936200D01*
X73825000Y113936200D02*
X73825000Y114245000D01*
%TO.N,ESP_GPIO33*%
X80975000Y113445000D02*
X80007400Y113445000D01*
X39740100Y62978700D02*
X39546500Y62978700D01*
X10829200Y33865000D02*
X11109700Y33584500D01*
X47009600Y80447200D02*
X47009600Y70411100D01*
X45529000Y68930500D02*
X45529000Y68767600D01*
X10829200Y34261400D02*
X10829200Y33865000D01*
X80007400Y113445000D02*
X47009600Y80447200D01*
X15159500Y33584500D02*
X42825000Y61250000D01*
X45529000Y68767600D02*
X39740100Y62978700D01*
X47009600Y70411100D02*
X45529000Y68930500D01*
X39546500Y62978700D02*
X10829200Y34261400D01*
X11109700Y33584500D02*
X15159500Y33584500D01*
%TO.N,FPGA_IOB_20A*%
X102084900Y97990100D02*
X82956800Y97990100D01*
X82956800Y97990100D02*
X82275000Y98671900D01*
X82275000Y98671900D02*
X82275000Y99520000D01*
X126825000Y73250000D02*
X102084900Y97990100D01*
%TO.N,FPGA_IOB_2A*%
X84556200Y87498800D02*
X83575000Y88480000D01*
X84556200Y86298800D02*
X84556200Y87498800D01*
%TO.N,FPGA_IOT_45A_G1*%
X77922700Y97489200D02*
X77922700Y91454500D01*
X126825000Y50493600D02*
X79449900Y97868700D01*
X75775000Y89306800D02*
X75775000Y88480000D01*
X126825000Y41250000D02*
X126825000Y50493600D01*
X79449900Y97868700D02*
X78302200Y97868700D01*
X77922700Y91454500D02*
X75775000Y89306800D01*
X78302200Y97868700D02*
X77922700Y97489200D01*
%TO.N,FPGA_IOT_36B*%
X89850000Y41250000D02*
X89825000Y41250000D01*
X79050000Y86200000D02*
X79050000Y52050000D01*
X79050000Y52050000D02*
X89850000Y41250000D01*
%TO.N,USB_D+*%
X82535200Y134764800D02*
X82535200Y133474800D01*
X80950000Y136350000D02*
X82535200Y134764800D01*
%TO.N,USB_D-*%
X79050000Y134959600D02*
X77527600Y133437200D01*
X78300000Y140700000D02*
X78300000Y137100000D01*
X80750000Y140700000D02*
X80450000Y141000000D01*
X79050000Y136350000D02*
X79050000Y134959600D01*
X80450000Y141000000D02*
X78600000Y141000000D01*
X80750000Y139600000D02*
X80750000Y140700000D01*
X78600000Y141000000D02*
X78300000Y140700000D01*
X78300000Y137100000D02*
X79050000Y136350000D01*
%TO.N,ESP_EN*%
X78167100Y124038100D02*
X77958600Y124246600D01*
X77958600Y124246600D02*
X77463300Y124246600D01*
X77190800Y123755800D02*
X62854000Y109419000D01*
X77190800Y123974100D02*
X77190800Y123755800D01*
X62854000Y109419000D02*
X57820500Y109419000D01*
X77463300Y124246600D02*
X77190800Y123974100D01*
X79675000Y124555000D02*
X79100100Y124555000D01*
X79100100Y124555000D02*
X78583200Y124038100D01*
X78583200Y124038100D02*
X78167100Y124038100D01*
%TO.N,ESP_GPIO0_BOOT*%
X43695300Y117120300D02*
X43695300Y121724500D01*
X5825000Y79250000D02*
X43695300Y117120300D01*
%TO.N,ESP_GPIO1*%
X9948300Y76250000D02*
X59826100Y126127800D01*
X59826100Y126127800D02*
X76802200Y126127800D01*
X5825000Y76250000D02*
X9948300Y76250000D01*
X76802200Y126127800D02*
X78375000Y124555000D01*
%TO.N,ESP_GPIO3*%
X5962000Y70250000D02*
X61499100Y125787100D01*
X5825000Y70250000D02*
X5962000Y70250000D01*
X61499100Y125787100D02*
X75842900Y125787100D01*
X75842900Y125787100D02*
X77075000Y124555000D01*
%TO.N,ESP_GPIO4*%
X63975400Y125400400D02*
X75615400Y125400400D01*
X75615400Y125400400D02*
X76425000Y124590800D01*
X76425000Y124590800D02*
X76425000Y123755000D01*
X5825000Y67250000D02*
X63975400Y125400400D01*
%TO.N,ESP_GPIO5*%
X75775000Y124555000D02*
X75293700Y125036300D01*
X67138000Y125036300D02*
X6351700Y64250000D01*
X6351700Y64250000D02*
X5825000Y64250000D01*
X75293700Y125036300D02*
X67138000Y125036300D01*
%TO.N,ESP_GPIO6*%
X5825000Y62914400D02*
X5825000Y61250000D01*
X63247000Y120336400D02*
X5825000Y62914400D01*
X75125000Y123755000D02*
X71706400Y120336400D01*
X71706400Y120336400D02*
X63247000Y120336400D01*
%TO.N,ESP_GPIO40*%
X35260300Y32987500D02*
X11255400Y32987500D01*
X68081800Y99173800D02*
X68081800Y65809000D01*
X68081800Y65809000D02*
X35260300Y32987500D01*
%TO.N,ESP_GPIO39*%
X40734000Y62779200D02*
X12018000Y34063200D01*
X47338300Y80066100D02*
X47338300Y70236100D01*
X40734000Y63344300D02*
X40734000Y62779200D01*
X12018000Y34063200D02*
X11307900Y34063200D01*
X47338300Y70236100D02*
X46021300Y68919100D01*
X46021300Y68919100D02*
X46021300Y68631600D01*
X46021300Y68631600D02*
X40734000Y63344300D01*
X77805400Y110533200D02*
X47338300Y80066100D01*
%TO.N,ESP_GPIO41*%
X70612800Y65237700D02*
X70612800Y96352600D01*
X37375100Y32000000D02*
X70612800Y65237700D01*
X84225000Y105438800D02*
X84225000Y114245000D01*
X5825000Y26250000D02*
X11575000Y32000000D01*
X11575000Y32000000D02*
X37375100Y32000000D01*
X70612800Y96352600D02*
X76653400Y102393200D01*
X81179400Y102393200D02*
X84225000Y105438800D01*
X76653400Y102393200D02*
X81179400Y102393200D01*
%TO.N,ESP_GPIO42*%
X81837700Y114723800D02*
X80821400Y114723800D01*
X39604000Y63307400D02*
X39410400Y63307400D01*
X82446300Y114115200D02*
X81837700Y114723800D01*
X80821400Y114723800D02*
X75881100Y109783500D01*
X82446300Y113998800D02*
X82446300Y114115200D01*
X10500500Y34397500D02*
X10500500Y31631600D01*
X45200300Y68903700D02*
X39604000Y63307400D01*
X46021300Y69887600D02*
X45200300Y69066600D01*
X83575000Y113445000D02*
X83000100Y113445000D01*
X83000100Y113445000D02*
X82446300Y113998800D01*
X75881100Y109783500D02*
X74991800Y109783500D01*
X74991800Y109783500D02*
X46021300Y80813000D01*
X10500500Y31631600D02*
X10510700Y31621400D01*
X45200300Y69066600D02*
X45200300Y68903700D01*
X46021300Y80813000D02*
X46021300Y69887600D01*
X39410400Y63307400D02*
X10500500Y34397500D01*
%TO.N,ESP_GPIO43_TXD*%
X42267900Y84055000D02*
X70152000Y111939100D01*
X70152000Y111939100D02*
X70152000Y112178500D01*
X5825000Y20250000D02*
X5345000Y20730000D01*
X73363100Y115389600D02*
X81780400Y115389600D01*
X81780400Y115389600D02*
X82925000Y114245000D01*
X5345000Y35618800D02*
X42267900Y72541700D01*
X5345000Y20730000D02*
X5345000Y35618800D01*
X70152000Y112178500D02*
X73363100Y115389600D01*
X42267900Y72541700D02*
X42267900Y84055000D01*
%TO.N,ESP_GPIO34*%
X40183600Y85618900D02*
X40183600Y96542200D01*
X40183600Y96542200D02*
X63032200Y119390800D01*
X5825000Y41250000D02*
X5825000Y51260300D01*
X63032200Y119390800D02*
X66752400Y119390800D01*
X5825000Y51260300D02*
X40183600Y85618900D01*
%TO.N,ESP_GPIO46*%
X43657700Y38959600D02*
X69116600Y64418500D01*
X69116600Y64418500D02*
X69116600Y100206000D01*
X69116600Y100206000D02*
X75471800Y106561200D01*
%TO.N,ESP_GPIO45*%
X42825000Y39175900D02*
X68637900Y64988800D01*
X42825000Y38250000D02*
X42825000Y39175900D01*
X68637900Y64988800D02*
X68637900Y99899100D01*
%TO.N,ESP_GPIO38*%
X45363900Y84333900D02*
X45363900Y74788900D01*
X45363900Y74788900D02*
X5825000Y35250000D01*
X74475000Y113445000D02*
X45363900Y84333900D01*
%TO.N,FPGA_IOT_48B*%
X73825000Y89280000D02*
X73619800Y89074800D01*
X73619800Y89074800D02*
X73619800Y43053000D01*
X73619800Y43053000D02*
X78083600Y38589200D01*
%TO.N,FPGA_IOT_49A*%
X80325000Y89280000D02*
X81162200Y90117200D01*
X96104400Y79630400D02*
X109054200Y66680600D01*
X96104400Y79878000D02*
X96104400Y79630400D01*
X109054200Y50020800D02*
X126825000Y32250000D01*
X85865200Y90117200D02*
X96104400Y79878000D01*
X109054200Y66680600D02*
X109054200Y50020800D01*
X81162200Y90117200D02*
X85865200Y90117200D01*
%TO.N,FPGA_IOT_50B*%
X88731600Y36837400D02*
X76425000Y49144000D01*
X76425000Y49144000D02*
X76425000Y89280000D01*
X89026700Y36837400D02*
X88731600Y36837400D01*
%TO.N,FPGA_IOT_51A*%
X106414600Y65537800D02*
X106414600Y46435400D01*
X88553300Y86530900D02*
X93977200Y81107000D01*
X126600000Y26250000D02*
X126825000Y26250000D01*
X106414600Y46435400D02*
X126600000Y26250000D01*
X93977200Y81107000D02*
X93977200Y77975200D01*
X93977200Y77975200D02*
X106414600Y65537800D01*
%TO.N,FPGA_IOB_13B*%
X83500100Y98720000D02*
X82925000Y98720000D01*
X84318600Y99538500D02*
X83500100Y98720000D01*
X109536500Y99538500D02*
X84318600Y99538500D01*
X126825000Y82250000D02*
X109536500Y99538500D01*
%TO.N,FPGA_IOB_16A*%
X84225000Y98720000D02*
X84709500Y99204500D01*
X106870500Y99204500D02*
X126825000Y79250000D01*
X84709500Y99204500D02*
X106870500Y99204500D01*
%TO.N,FPGA_IOB_18A*%
X126825000Y76250000D02*
X104355000Y98720000D01*
X104355000Y98720000D02*
X85525000Y98720000D01*
%TO.N,FPGA_IOB_25B_G3*%
X100806300Y79000000D02*
X80325000Y99481300D01*
X79025000Y99615000D02*
X79025000Y98720000D01*
X125309800Y69259200D02*
X115569000Y79000000D01*
X125494200Y69259200D02*
X125309800Y69259200D01*
X79868700Y100007400D02*
X79417400Y100007400D01*
X126825000Y64250000D02*
X127314100Y64739100D01*
X80325000Y99481300D02*
X80325000Y99551100D01*
X127314100Y64739100D02*
X127314100Y67439300D01*
X80325000Y99551100D02*
X79868700Y100007400D01*
X127314100Y67439300D02*
X125494200Y69259200D01*
X115569000Y79000000D02*
X100806300Y79000000D01*
X79417400Y100007400D02*
X79025000Y99615000D01*
%TO.N,FPGA_IOB_29B*%
X126825000Y61250000D02*
X117039400Y61250000D01*
X79675000Y98614400D02*
X79675000Y99520000D01*
X117039400Y61250000D02*
X79675000Y98614400D01*
%TO.N,FPGA_IOB_9B*%
X89825000Y61250000D02*
X85034900Y66040100D01*
X85034900Y88320100D02*
X84875000Y88480000D01*
X85034900Y66040100D02*
X85034900Y88320100D01*
%TO.N,FPGA_IOB_5B*%
X82275000Y88480000D02*
X82275000Y76926000D01*
X82275000Y76926000D02*
X84237400Y74963600D01*
%TO.N,FPGA_IOB_6A*%
X86175000Y70900000D02*
X86175000Y88480000D01*
X89825000Y67250000D02*
X86175000Y70900000D01*
%TO.N,FPGA_IOB_8A*%
X85525000Y68550000D02*
X85525000Y89280000D01*
X89825000Y64250000D02*
X85525000Y68550000D01*
%TO.N,FPGA_IOT_39A*%
X76425000Y90710500D02*
X76425000Y98720000D01*
X89825000Y32250000D02*
X75285200Y46789800D01*
X75285200Y46789800D02*
X75285200Y89570700D01*
X75285200Y89570700D02*
X76425000Y90710500D01*
%TO.N,FPGA_IOT_43A*%
X72713600Y97608600D02*
X73825000Y98720000D01*
X72713600Y40361400D02*
X72713600Y97608600D01*
X89825000Y23250000D02*
X72713600Y40361400D01*
%TO.N,FPGA_IOT_37A*%
X78514500Y49560500D02*
X78514500Y97377600D01*
X78514500Y97377600D02*
X78514400Y97377600D01*
X89825000Y38250000D02*
X78514500Y49560500D01*
%TO.N,FPGA_IOT_38B*%
X72384900Y96375100D02*
X72078500Y96681500D01*
X72384900Y43359900D02*
X72384900Y96375100D01*
X71994300Y42969300D02*
X72384900Y43359900D01*
%TO.N,FPGA_IOT_41A*%
X89825000Y29250000D02*
X73948500Y45126500D01*
X73948500Y45126500D02*
X73948500Y88726500D01*
X73948500Y88726500D02*
X75775000Y90553000D01*
X75775000Y90553000D02*
X75775000Y99520000D01*
%TO.N,FPGA_IOT_42B*%
X74475000Y91073800D02*
X73289400Y89888200D01*
X73289400Y89888200D02*
X73289400Y42706500D01*
X73289400Y42706500D02*
X89745900Y26250000D01*
X74475000Y99520000D02*
X74475000Y91073800D01*
X89745900Y26250000D02*
X89825000Y26250000D01*
%TO.N,FPGA_IOT_44B*%
X81625000Y89280000D02*
X81625000Y66897700D01*
X90312800Y58209900D02*
X90312800Y20737800D01*
X90312800Y20737800D02*
X89825000Y20250000D01*
X81625000Y66897700D02*
X90312800Y58209900D01*
%TD*%
%TA.AperFunction,Conductor*%
%TO.N,GND*%
G36*
X73140426Y42430503D02*
G01*
X89358378Y26212551D01*
X89377530Y26179378D01*
X89405199Y26076118D01*
X89405201Y26076113D01*
X89464508Y25973391D01*
X89464509Y25973390D01*
X89464511Y25973387D01*
X89548387Y25889511D01*
X89548389Y25889510D01*
X89548390Y25889509D01*
X89651112Y25830202D01*
X89651114Y25830201D01*
X89651115Y25830201D01*
X89651117Y25830200D01*
X89708402Y25814851D01*
X89765688Y25799501D01*
X89765689Y25799500D01*
X89765691Y25799500D01*
X89884310Y25799500D01*
X89898334Y25803259D01*
X89919146Y25808835D01*
X89975299Y25801444D01*
X90009778Y25756511D01*
X90012300Y25737357D01*
X90012300Y23762644D01*
X89990626Y23710318D01*
X89938300Y23688644D01*
X89919148Y23691165D01*
X89884309Y23700500D01*
X89830123Y23700500D01*
X89777797Y23722174D01*
X73035774Y40464197D01*
X73014100Y40516523D01*
X73014100Y42378177D01*
X73035774Y42430503D01*
X73088100Y42452177D01*
X73140426Y42430503D01*
G37*
%TD.AperFunction*%
%TA.AperFunction,Conductor*%
G36*
X74046626Y44603403D02*
G01*
X89352826Y29297203D01*
X89374500Y29244877D01*
X89374500Y29190689D01*
X89405199Y29076118D01*
X89405201Y29076113D01*
X89464508Y28973391D01*
X89464509Y28973390D01*
X89464511Y28973387D01*
X89548387Y28889511D01*
X89651114Y28830201D01*
X89651115Y28830201D01*
X89651117Y28830200D01*
X89708402Y28814851D01*
X89765688Y28799501D01*
X89765689Y28799500D01*
X89765691Y28799500D01*
X89884310Y28799500D01*
X89898334Y28803259D01*
X89919146Y28808835D01*
X89975299Y28801444D01*
X90009778Y28756511D01*
X90012300Y28737357D01*
X90012300Y26762644D01*
X89990626Y26710318D01*
X89938300Y26688644D01*
X89919148Y26691165D01*
X89884309Y26700500D01*
X89765691Y26700500D01*
X89765689Y26700500D01*
X89761822Y26699991D01*
X89707115Y26714651D01*
X89699839Y26721032D01*
X78321864Y38099007D01*
X78300190Y38151333D01*
X78321864Y38203659D01*
X78337186Y38215417D01*
X78360213Y38228711D01*
X78444089Y38312587D01*
X78503399Y38415314D01*
X78534099Y38529889D01*
X78534100Y38529889D01*
X78534100Y38648511D01*
X78534099Y38648512D01*
X78524860Y38682991D01*
X78505150Y38756553D01*
X78503400Y38763083D01*
X78503398Y38763088D01*
X78444091Y38865810D01*
X78444090Y38865811D01*
X78444089Y38865813D01*
X78360213Y38949689D01*
X78360210Y38949691D01*
X78360209Y38949692D01*
X78257487Y39008999D01*
X78257482Y39009001D01*
X78142911Y39039700D01*
X78142909Y39039700D01*
X78088723Y39039700D01*
X78036397Y39061374D01*
X73941974Y43155797D01*
X73920300Y43208123D01*
X73920300Y44551077D01*
X73941974Y44603403D01*
X73994300Y44625077D01*
X74046626Y44603403D01*
G37*
%TD.AperFunction*%
%TA.AperFunction,Conductor*%
G36*
X45370426Y74265803D02*
G01*
X45392100Y74213477D01*
X45392100Y70272723D01*
X45370426Y70220397D01*
X42872203Y67722174D01*
X42819877Y67700500D01*
X42765689Y67700500D01*
X42651117Y67669801D01*
X42651112Y67669799D01*
X42548390Y67610492D01*
X42464508Y67526610D01*
X42405201Y67423888D01*
X42405199Y67423883D01*
X42374500Y67309312D01*
X42374500Y67190689D01*
X42405199Y67076118D01*
X42405201Y67076113D01*
X42464508Y66973391D01*
X42464509Y66973390D01*
X42464511Y66973387D01*
X42548387Y66889511D01*
X42548389Y66889510D01*
X42548390Y66889509D01*
X42599747Y66859858D01*
X42634225Y66814925D01*
X42626833Y66758772D01*
X42615073Y66743446D01*
X39501203Y63629574D01*
X39448877Y63607900D01*
X39370838Y63607900D01*
X39294412Y63587422D01*
X39294411Y63587422D01*
X39294409Y63587421D01*
X39294407Y63587420D01*
X39225892Y63547863D01*
X10315989Y34637960D01*
X10260040Y34582012D01*
X10220479Y34513491D01*
X10220477Y34513486D01*
X10200000Y34437065D01*
X10200000Y31978454D01*
X10178327Y31926129D01*
X10150208Y31898010D01*
X10090901Y31795288D01*
X10090899Y31795283D01*
X10060200Y31680712D01*
X10060200Y31562089D01*
X10090899Y31447518D01*
X10090901Y31447513D01*
X10150208Y31344791D01*
X10150209Y31344790D01*
X10150211Y31344787D01*
X10234087Y31260911D01*
X10234089Y31260910D01*
X10234090Y31260909D01*
X10262687Y31244398D01*
X10297166Y31199464D01*
X10289773Y31143312D01*
X10278013Y31127986D01*
X5872203Y26722174D01*
X5819877Y26700500D01*
X5765691Y26700500D01*
X5738652Y26693255D01*
X5682500Y26700648D01*
X5648021Y26745582D01*
X5645500Y26764734D01*
X5645500Y34735267D01*
X5667174Y34787593D01*
X5719500Y34809267D01*
X5738650Y34806746D01*
X5755066Y34802347D01*
X5765690Y34799500D01*
X5765691Y34799500D01*
X5884311Y34799500D01*
X5884311Y34799501D01*
X5998886Y34830201D01*
X6101613Y34889511D01*
X6185489Y34973387D01*
X6244799Y35076114D01*
X6275499Y35190689D01*
X6275500Y35190689D01*
X6275500Y35244877D01*
X6297174Y35297203D01*
X9859283Y38859312D01*
X10774500Y38859312D01*
X10774500Y38740689D01*
X10805199Y38626118D01*
X10805201Y38626113D01*
X10864508Y38523391D01*
X10864509Y38523390D01*
X10864511Y38523387D01*
X10948387Y38439511D01*
X10948389Y38439510D01*
X10948390Y38439509D01*
X10999224Y38410160D01*
X11051114Y38380201D01*
X11051115Y38380201D01*
X11051117Y38380200D01*
X11108402Y38364851D01*
X11165688Y38349501D01*
X11165689Y38349500D01*
X11165691Y38349500D01*
X11284311Y38349500D01*
X11284311Y38349501D01*
X11398886Y38380201D01*
X11501613Y38439511D01*
X11585489Y38523387D01*
X11644799Y38626114D01*
X11675499Y38740689D01*
X11675500Y38740689D01*
X11675500Y38859311D01*
X11675499Y38859312D01*
X11644800Y38973883D01*
X11644798Y38973888D01*
X11585491Y39076610D01*
X11585490Y39076611D01*
X11585489Y39076613D01*
X11501613Y39160489D01*
X11501610Y39160491D01*
X11501609Y39160492D01*
X11398887Y39219799D01*
X11398882Y39219801D01*
X11284311Y39250500D01*
X11284309Y39250500D01*
X11165691Y39250500D01*
X11165689Y39250500D01*
X11051117Y39219801D01*
X11051112Y39219799D01*
X10948390Y39160492D01*
X10864508Y39076610D01*
X10805201Y38973888D01*
X10805199Y38973883D01*
X10774500Y38859312D01*
X9859283Y38859312D01*
X45265774Y74265803D01*
X45318100Y74287477D01*
X45370426Y74265803D01*
G37*
%TD.AperFunction*%
%TA.AperFunction,Conductor*%
G36*
X74359999Y49980269D02*
G01*
X74442214Y49932801D01*
X74442215Y49932801D01*
X74442217Y49932800D01*
X74499502Y49917451D01*
X74556788Y49902101D01*
X74556789Y49902100D01*
X74556791Y49902100D01*
X74675411Y49902100D01*
X74675411Y49902101D01*
X74789986Y49932801D01*
X74873700Y49981135D01*
X74929852Y49988527D01*
X74974786Y49954048D01*
X74984700Y49917048D01*
X74984700Y46750236D01*
X75005177Y46673815D01*
X75005179Y46673810D01*
X75036298Y46619911D01*
X75044740Y46605289D01*
X89352826Y32297203D01*
X89374500Y32244877D01*
X89374500Y32190689D01*
X89405199Y32076118D01*
X89405201Y32076113D01*
X89464508Y31973391D01*
X89464509Y31973390D01*
X89464511Y31973387D01*
X89548387Y31889511D01*
X89548389Y31889510D01*
X89548390Y31889509D01*
X89651112Y31830202D01*
X89651114Y31830201D01*
X89651115Y31830201D01*
X89651117Y31830200D01*
X89706020Y31815489D01*
X89765688Y31799501D01*
X89765689Y31799500D01*
X89765691Y31799500D01*
X89884310Y31799500D01*
X89898334Y31803259D01*
X89919146Y31808835D01*
X89975299Y31801444D01*
X90009778Y31756511D01*
X90012300Y31737357D01*
X90012300Y29762644D01*
X89990626Y29710318D01*
X89938300Y29688644D01*
X89919148Y29691165D01*
X89884309Y29700500D01*
X89830123Y29700500D01*
X89777797Y29722174D01*
X74270674Y45229297D01*
X74249000Y45281623D01*
X74249000Y49916182D01*
X74270674Y49968508D01*
X74323000Y49990182D01*
X74359999Y49980269D01*
G37*
%TD.AperFunction*%
%TA.AperFunction,Conductor*%
G36*
X68315726Y65513303D02*
G01*
X68337400Y65460977D01*
X68337400Y65143923D01*
X68315726Y65091597D01*
X42584540Y39360412D01*
X42544979Y39291891D01*
X42544977Y39291886D01*
X42524500Y39215465D01*
X42524500Y38617254D01*
X42502827Y38564929D01*
X42464508Y38526610D01*
X42405201Y38423888D01*
X42405199Y38423883D01*
X42374500Y38309312D01*
X42374500Y38190689D01*
X42405199Y38076118D01*
X42405201Y38076113D01*
X42464508Y37973391D01*
X42464509Y37973390D01*
X42464511Y37973387D01*
X42548387Y37889511D01*
X42637699Y37837946D01*
X42649514Y37831125D01*
X42683992Y37786192D01*
X42676600Y37730039D01*
X42664840Y37714713D01*
X37272303Y32322174D01*
X37219977Y32300500D01*
X11535436Y32300500D01*
X11459014Y32280023D01*
X11459009Y32280021D01*
X11390488Y32240460D01*
X11004114Y31854087D01*
X10951788Y31832413D01*
X10899462Y31854087D01*
X10887702Y31869413D01*
X10871190Y31898011D01*
X10871188Y31898014D01*
X10822674Y31946529D01*
X10801000Y31998854D01*
X10801000Y32626147D01*
X10822674Y32678473D01*
X10875000Y32700147D01*
X10927324Y32678474D01*
X10978787Y32627011D01*
X10978789Y32627010D01*
X10978790Y32627009D01*
X11081512Y32567702D01*
X11081514Y32567701D01*
X11081515Y32567701D01*
X11081517Y32567700D01*
X11138802Y32552351D01*
X11196088Y32537001D01*
X11196089Y32537000D01*
X11196091Y32537000D01*
X11314711Y32537000D01*
X11314711Y32537001D01*
X11429286Y32567701D01*
X11532013Y32627011D01*
X11570329Y32665327D01*
X11622654Y32687000D01*
X35299864Y32687000D01*
X35299864Y32687001D01*
X35376289Y32707479D01*
X35444811Y32747040D01*
X35500760Y32802989D01*
X68211074Y65513303D01*
X68263400Y65534977D01*
X68315726Y65513303D01*
G37*
%TD.AperFunction*%
%TA.AperFunction,Conductor*%
G36*
X78192326Y89005573D02*
G01*
X78214000Y88953247D01*
X78214000Y49520936D01*
X78234477Y49444515D01*
X78234479Y49444510D01*
X78246309Y49424021D01*
X78274040Y49375989D01*
X89352826Y38297203D01*
X89374500Y38244877D01*
X89374500Y38190689D01*
X89405199Y38076118D01*
X89405201Y38076113D01*
X89464508Y37973391D01*
X89464509Y37973390D01*
X89464511Y37973387D01*
X89548387Y37889511D01*
X89548389Y37889510D01*
X89548390Y37889509D01*
X89651112Y37830202D01*
X89651114Y37830201D01*
X89651115Y37830201D01*
X89651117Y37830200D01*
X89708402Y37814851D01*
X89765688Y37799501D01*
X89765689Y37799500D01*
X89765691Y37799500D01*
X89884310Y37799500D01*
X89898334Y37803259D01*
X89919146Y37808835D01*
X89975299Y37801444D01*
X90009778Y37756511D01*
X90012300Y37737357D01*
X90012300Y32762644D01*
X89990626Y32710318D01*
X89938300Y32688644D01*
X89919148Y32691165D01*
X89884309Y32700500D01*
X89830123Y32700500D01*
X89777797Y32722174D01*
X75607374Y46892597D01*
X75585700Y46944923D01*
X75585700Y87967893D01*
X75607374Y88020219D01*
X75659700Y88041893D01*
X75678850Y88039372D01*
X75702769Y88032963D01*
X75715690Y88029500D01*
X75715691Y88029500D01*
X75834311Y88029500D01*
X75834311Y88029501D01*
X75948886Y88060201D01*
X76013500Y88097506D01*
X76069652Y88104899D01*
X76114586Y88070420D01*
X76124500Y88033420D01*
X76124500Y49104436D01*
X76144977Y49028015D01*
X76144979Y49028010D01*
X76184540Y48959489D01*
X88547089Y36596940D01*
X88615612Y36557378D01*
X88670234Y36542743D01*
X88703407Y36523590D01*
X88750086Y36476912D01*
X88750087Y36476911D01*
X88852814Y36417601D01*
X88852815Y36417601D01*
X88852817Y36417600D01*
X88910102Y36402251D01*
X88967388Y36386901D01*
X88967389Y36386900D01*
X88967391Y36386900D01*
X89086011Y36386900D01*
X89086011Y36386901D01*
X89200586Y36417601D01*
X89303313Y36476911D01*
X89387189Y36560787D01*
X89446499Y36663514D01*
X89477199Y36778089D01*
X89477200Y36778089D01*
X89477200Y36896711D01*
X89477199Y36896712D01*
X89446500Y37011283D01*
X89446498Y37011288D01*
X89387191Y37114010D01*
X89387190Y37114011D01*
X89387189Y37114013D01*
X89303313Y37197889D01*
X89303310Y37197891D01*
X89303309Y37197892D01*
X89200587Y37257199D01*
X89200582Y37257201D01*
X89086011Y37287900D01*
X89086009Y37287900D01*
X88967391Y37287900D01*
X88967389Y37287900D01*
X88852817Y37257201D01*
X88828420Y37243115D01*
X88772267Y37235724D01*
X88739095Y37254876D01*
X76747174Y49246797D01*
X76725500Y49299123D01*
X76725500Y88033420D01*
X76747174Y88085746D01*
X76799500Y88107420D01*
X76836500Y88097506D01*
X76901114Y88060201D01*
X76901115Y88060201D01*
X76901117Y88060200D01*
X76934400Y88051282D01*
X77015688Y88029501D01*
X77015689Y88029500D01*
X77015691Y88029500D01*
X77134311Y88029500D01*
X77134311Y88029501D01*
X77248886Y88060201D01*
X77351613Y88119511D01*
X77435489Y88203387D01*
X77494799Y88306114D01*
X77525499Y88420689D01*
X77525500Y88420689D01*
X77525500Y88539311D01*
X77525499Y88539312D01*
X77494800Y88653883D01*
X77494798Y88653888D01*
X77435491Y88756610D01*
X77435490Y88756611D01*
X77435489Y88756613D01*
X77429902Y88762200D01*
X77408229Y88814524D01*
X77429903Y88866850D01*
X77482229Y88888524D01*
X77519229Y88878610D01*
X77551110Y88860203D01*
X77551114Y88860201D01*
X77551115Y88860201D01*
X77551117Y88860200D01*
X77583493Y88851525D01*
X77665688Y88829501D01*
X77665689Y88829500D01*
X77665691Y88829500D01*
X77784311Y88829500D01*
X77784311Y88829501D01*
X77898886Y88860201D01*
X78001613Y88919511D01*
X78085489Y89003387D01*
X78085490Y89003390D01*
X78087674Y89005573D01*
X78140000Y89027247D01*
X78192326Y89005573D01*
G37*
%TD.AperFunction*%
%TA.AperFunction,Conductor*%
G36*
X51329326Y83527504D02*
G01*
X51351000Y83475178D01*
X51351000Y50231623D01*
X51329326Y50179297D01*
X42872203Y41722174D01*
X42819877Y41700500D01*
X42765689Y41700500D01*
X42651117Y41669801D01*
X42651112Y41669799D01*
X42548390Y41610492D01*
X42464508Y41526610D01*
X42405201Y41423888D01*
X42405199Y41423883D01*
X42374500Y41309312D01*
X42374500Y41190689D01*
X42405199Y41076118D01*
X42405201Y41076113D01*
X42464508Y40973391D01*
X42464509Y40973390D01*
X42464511Y40973387D01*
X42548387Y40889511D01*
X42566176Y40879241D01*
X42584659Y40868569D01*
X42619137Y40823635D01*
X42611744Y40767482D01*
X42599984Y40752157D01*
X35157503Y33309674D01*
X35105177Y33288000D01*
X15466623Y33288000D01*
X15414297Y33309674D01*
X15392623Y33362000D01*
X15414297Y33414326D01*
X42777797Y60777826D01*
X42830123Y60799500D01*
X42884311Y60799500D01*
X42884311Y60799501D01*
X42998886Y60830201D01*
X43101613Y60889511D01*
X43185489Y60973387D01*
X43244799Y61076114D01*
X43275499Y61190689D01*
X43275500Y61190689D01*
X43275500Y61309311D01*
X43275499Y61309312D01*
X43244800Y61423883D01*
X43244798Y61423888D01*
X43185491Y61526610D01*
X43185490Y61526611D01*
X43185489Y61526613D01*
X43101613Y61610489D01*
X43101610Y61610491D01*
X43101609Y61610492D01*
X42998887Y61669799D01*
X42998882Y61669801D01*
X42884311Y61700500D01*
X42884309Y61700500D01*
X42765691Y61700500D01*
X42765689Y61700500D01*
X42651117Y61669801D01*
X42651112Y61669799D01*
X42548390Y61610492D01*
X42464508Y61526610D01*
X42405201Y61423888D01*
X42405199Y61423883D01*
X42374500Y61309312D01*
X42374500Y61255123D01*
X42352826Y61202797D01*
X15056703Y33906674D01*
X15004377Y33885000D01*
X12443423Y33885000D01*
X12391097Y33906674D01*
X12369423Y33959000D01*
X12391097Y34011326D01*
X19455889Y41076118D01*
X40974460Y62594689D01*
X41014022Y62663212D01*
X41034500Y62739638D01*
X41034500Y62818762D01*
X41034500Y63189177D01*
X41056174Y63241503D01*
X43536982Y65722311D01*
X46261760Y68447089D01*
X46273313Y68467100D01*
X46301321Y68515611D01*
X46321799Y68592036D01*
X46321800Y68592036D01*
X46321800Y68763977D01*
X46343474Y68816303D01*
X47578760Y70051589D01*
X47594030Y70078038D01*
X47618321Y70120111D01*
X47638799Y70196536D01*
X47638800Y70196536D01*
X47638800Y79685045D01*
X47660474Y79737371D01*
X47712800Y79759045D01*
X47765126Y79737371D01*
X47784278Y79704198D01*
X47805199Y79626118D01*
X47805201Y79626113D01*
X47864508Y79523391D01*
X47864509Y79523390D01*
X47864511Y79523387D01*
X47948387Y79439511D01*
X47948389Y79439510D01*
X47948390Y79439509D01*
X47975450Y79423886D01*
X48051114Y79380201D01*
X48051115Y79380201D01*
X48051117Y79380200D01*
X48108402Y79364851D01*
X48165688Y79349501D01*
X48165689Y79349500D01*
X48165691Y79349500D01*
X48284311Y79349500D01*
X48284311Y79349501D01*
X48398886Y79380201D01*
X48501613Y79439511D01*
X48585489Y79523387D01*
X48644799Y79626114D01*
X48675499Y79740689D01*
X48675500Y79740689D01*
X48675500Y79859311D01*
X48675499Y79859312D01*
X48644800Y79973883D01*
X48644798Y79973888D01*
X48585491Y80076610D01*
X48585490Y80076611D01*
X48585489Y80076613D01*
X48501613Y80160489D01*
X48501610Y80160491D01*
X48501609Y80160492D01*
X48398887Y80219799D01*
X48398882Y80219801D01*
X48284311Y80250500D01*
X48284309Y80250500D01*
X48165691Y80250500D01*
X48134631Y80242178D01*
X48078478Y80249572D01*
X48044000Y80294505D01*
X48051394Y80350658D01*
X48063150Y80365980D01*
X51224674Y83527505D01*
X51277000Y83549178D01*
X51329326Y83527504D01*
G37*
%TD.AperFunction*%
%TA.AperFunction,Conductor*%
G36*
X40411826Y63120803D02*
G01*
X40433500Y63068477D01*
X40433500Y62934323D01*
X40411826Y62881997D01*
X11915203Y34385374D01*
X11862877Y34363700D01*
X11675154Y34363700D01*
X11622829Y34385373D01*
X11622828Y34385374D01*
X11584513Y34423689D01*
X11584510Y34423691D01*
X11584508Y34423693D01*
X11561490Y34436982D01*
X11527011Y34481915D01*
X11534403Y34538067D01*
X11546159Y34553390D01*
X39649297Y62656526D01*
X39701623Y62678200D01*
X39779664Y62678200D01*
X39779664Y62678201D01*
X39856089Y62698679D01*
X39924611Y62738240D01*
X39980560Y62794189D01*
X40307174Y63120803D01*
X40359500Y63142477D01*
X40411826Y63120803D01*
G37*
%TD.AperFunction*%
%TA.AperFunction,Conductor*%
G36*
X78941326Y51733703D02*
G01*
X89352826Y41322203D01*
X89374500Y41269877D01*
X89374500Y41190689D01*
X89405199Y41076118D01*
X89405201Y41076113D01*
X89464508Y40973391D01*
X89464509Y40973390D01*
X89464511Y40973387D01*
X89548387Y40889511D01*
X89651114Y40830201D01*
X89651115Y40830201D01*
X89651117Y40830200D01*
X89675618Y40823635D01*
X89765688Y40799501D01*
X89765689Y40799500D01*
X89765691Y40799500D01*
X89884310Y40799500D01*
X89898334Y40803259D01*
X89919146Y40808835D01*
X89975299Y40801444D01*
X90009778Y40756511D01*
X90012300Y40737357D01*
X90012300Y38762644D01*
X89990626Y38710318D01*
X89938300Y38688644D01*
X89919148Y38691165D01*
X89884309Y38700500D01*
X89830123Y38700500D01*
X89777797Y38722174D01*
X78836674Y49663297D01*
X78815000Y49715623D01*
X78815000Y51681377D01*
X78836674Y51733703D01*
X78889000Y51755377D01*
X78941326Y51733703D01*
G37*
%TD.AperFunction*%
%TA.AperFunction,Conductor*%
G36*
X67638994Y99047472D02*
G01*
X67658146Y99014299D01*
X67661999Y98999918D01*
X67662001Y98999913D01*
X67721308Y98897191D01*
X67721309Y98897190D01*
X67721311Y98897187D01*
X67759626Y98858872D01*
X67781300Y98806547D01*
X67781300Y65964123D01*
X67759626Y65911797D01*
X52078326Y50230497D01*
X52026000Y50208823D01*
X51973674Y50230497D01*
X51952000Y50282823D01*
X51952000Y83434477D01*
X51973674Y83486803D01*
X59715794Y91228923D01*
X67534343Y99047473D01*
X67586668Y99069146D01*
X67638994Y99047472D01*
G37*
%TD.AperFunction*%
%TA.AperFunction,Conductor*%
G36*
X75494103Y109461326D02*
G01*
X75515777Y109409000D01*
X75494103Y109356674D01*
X46769140Y80631712D01*
X46729579Y80563191D01*
X46729577Y80563186D01*
X46709100Y80486765D01*
X46709100Y70566223D01*
X46687426Y70513897D01*
X46448126Y70274597D01*
X46395800Y70252923D01*
X46343474Y70274597D01*
X46321800Y70326923D01*
X46321800Y80657877D01*
X46343474Y80710203D01*
X75094597Y109461326D01*
X75146923Y109483000D01*
X75441777Y109483000D01*
X75494103Y109461326D01*
G37*
%TD.AperFunction*%
%TA.AperFunction,Conductor*%
G36*
X115466203Y78677826D02*
G01*
X122938403Y71205626D01*
X122960077Y71153300D01*
X122938403Y71100974D01*
X122886077Y71079300D01*
X108421323Y71079300D01*
X108368997Y71100974D01*
X100896797Y78573174D01*
X100875123Y78625500D01*
X100896797Y78677826D01*
X100949123Y78699500D01*
X115413877Y78699500D01*
X115466203Y78677826D01*
G37*
%TD.AperFunction*%
%TA.AperFunction,Conductor*%
G36*
X74164586Y98310420D02*
G01*
X74174500Y98273420D01*
X74174500Y91228923D01*
X74152826Y91176597D01*
X73140426Y90164197D01*
X73088100Y90142523D01*
X73035774Y90164197D01*
X73014100Y90216523D01*
X73014100Y97453477D01*
X73035774Y97505803D01*
X73777797Y98247826D01*
X73830123Y98269500D01*
X73884311Y98269500D01*
X73884311Y98269501D01*
X73998886Y98300201D01*
X74063500Y98337506D01*
X74119652Y98344899D01*
X74164586Y98310420D01*
G37*
%TD.AperFunction*%
%TA.AperFunction,Conductor*%
G36*
X155300990Y144478326D02*
G01*
X155322664Y144426000D01*
X155300990Y144373674D01*
X155263101Y144353423D01*
X155021241Y144305314D01*
X154660606Y144233579D01*
X153525126Y143474875D01*
X153525125Y143474874D01*
X152766421Y142339394D01*
X152500000Y141000000D01*
X152766421Y139660608D01*
X153158045Y139074501D01*
X153525126Y138525127D01*
X154660607Y137766422D01*
X156000000Y137500000D01*
X157339392Y137766422D01*
X158474873Y138525127D01*
X159233578Y139660608D01*
X159353422Y140263106D01*
X159384888Y140310197D01*
X159440437Y140321246D01*
X159487529Y140289780D01*
X159500000Y140248668D01*
X159500000Y4751334D01*
X159478326Y4699008D01*
X159426000Y4677334D01*
X159373674Y4699008D01*
X159353422Y4736897D01*
X159350550Y4751337D01*
X159233578Y5339393D01*
X158474873Y6474874D01*
X157339392Y7233579D01*
X156000000Y7500000D01*
X154660606Y7233579D01*
X153525126Y6474875D01*
X153525125Y6474874D01*
X152766421Y5339394D01*
X152766421Y5339393D01*
X152500000Y4000000D01*
X152766421Y2660608D01*
X153525126Y1525127D01*
X154660607Y766422D01*
X155263104Y646578D01*
X155310196Y615112D01*
X155321245Y559563D01*
X155289779Y512471D01*
X155248667Y500000D01*
X4751333Y500000D01*
X4699007Y521674D01*
X4677333Y574000D01*
X4699007Y626326D01*
X4736896Y646578D01*
X5339392Y766422D01*
X6474873Y1525127D01*
X7233578Y2660608D01*
X7500000Y4000000D01*
X7233578Y5339393D01*
X6474873Y6474874D01*
X5339392Y7233579D01*
X4000000Y7500000D01*
X2660606Y7233579D01*
X1525126Y6474875D01*
X1525125Y6474874D01*
X766421Y5339394D01*
X646578Y4736900D01*
X615112Y4689808D01*
X559563Y4678759D01*
X512471Y4710225D01*
X500000Y4751337D01*
X500000Y35658365D01*
X5044500Y35658365D01*
X5044500Y20690436D01*
X5064978Y20614012D01*
X5087212Y20575500D01*
X5087213Y20575500D01*
X5104537Y20545493D01*
X5104538Y20545492D01*
X5104540Y20545489D01*
X5352826Y20297203D01*
X5374500Y20244878D01*
X5374500Y20190689D01*
X5405199Y20076118D01*
X5405201Y20076113D01*
X5464508Y19973391D01*
X5464509Y19973390D01*
X5464511Y19973387D01*
X5548387Y19889511D01*
X5651114Y19830201D01*
X5651115Y19830201D01*
X5651117Y19830200D01*
X5708402Y19814851D01*
X5765688Y19799501D01*
X5765689Y19799500D01*
X5765691Y19799500D01*
X5884311Y19799500D01*
X5884311Y19799501D01*
X5998886Y19830201D01*
X6101613Y19889511D01*
X6185489Y19973387D01*
X6244799Y20076114D01*
X6275499Y20190689D01*
X6275500Y20190689D01*
X6275500Y20309311D01*
X6275499Y20309312D01*
X6244800Y20423883D01*
X6244798Y20423888D01*
X6185491Y20526610D01*
X6185490Y20526611D01*
X6185489Y20526613D01*
X6101613Y20610489D01*
X6101610Y20610491D01*
X6101609Y20610492D01*
X5998887Y20669799D01*
X5998882Y20669801D01*
X5884311Y20700500D01*
X5884309Y20700500D01*
X5830123Y20700500D01*
X5777797Y20722174D01*
X5667174Y20832797D01*
X5645500Y20885123D01*
X5645500Y25735267D01*
X5667174Y25787593D01*
X5719500Y25809267D01*
X5738650Y25806746D01*
X5755066Y25802347D01*
X5765690Y25799500D01*
X5765691Y25799500D01*
X5884311Y25799500D01*
X5884311Y25799501D01*
X5998886Y25830201D01*
X6101613Y25889511D01*
X6185489Y25973387D01*
X6244799Y26076114D01*
X6275499Y26190689D01*
X6275500Y26190689D01*
X6275500Y26244877D01*
X6297174Y26297203D01*
X11677797Y31677826D01*
X11730123Y31699500D01*
X37414664Y31699500D01*
X37414664Y31699501D01*
X37491089Y31719979D01*
X37559611Y31759540D01*
X37615560Y31815489D01*
X44659383Y38859312D01*
X47774500Y38859312D01*
X47774500Y38740689D01*
X47805199Y38626118D01*
X47805201Y38626113D01*
X47864508Y38523391D01*
X47864509Y38523390D01*
X47864511Y38523387D01*
X47948387Y38439511D01*
X47948389Y38439510D01*
X47948390Y38439509D01*
X47999224Y38410160D01*
X48051114Y38380201D01*
X48051115Y38380201D01*
X48051117Y38380200D01*
X48108402Y38364851D01*
X48165688Y38349501D01*
X48165689Y38349500D01*
X48165691Y38349500D01*
X48284311Y38349500D01*
X48284311Y38349501D01*
X48398886Y38380201D01*
X48501613Y38439511D01*
X48585489Y38523387D01*
X48644799Y38626114D01*
X48675499Y38740689D01*
X48675500Y38740689D01*
X48675500Y38859311D01*
X48675499Y38859312D01*
X48644800Y38973883D01*
X48644798Y38973888D01*
X48585491Y39076610D01*
X48585490Y39076611D01*
X48585489Y39076613D01*
X48501613Y39160489D01*
X48501610Y39160491D01*
X48501609Y39160492D01*
X48398887Y39219799D01*
X48398882Y39219801D01*
X48284311Y39250500D01*
X48284309Y39250500D01*
X48165691Y39250500D01*
X48165689Y39250500D01*
X48051117Y39219801D01*
X48051112Y39219799D01*
X47948390Y39160492D01*
X47864508Y39076610D01*
X47805201Y38973888D01*
X47805199Y38973883D01*
X47774500Y38859312D01*
X44659383Y38859312D01*
X70853260Y65053189D01*
X70892821Y65121711D01*
X70913299Y65198136D01*
X70913300Y65198136D01*
X70913300Y96197478D01*
X70934973Y96249803D01*
X71506662Y96821492D01*
X71558987Y96843165D01*
X71611313Y96821491D01*
X71632987Y96769165D01*
X71630466Y96750014D01*
X71628000Y96740811D01*
X71628000Y96622189D01*
X71658699Y96507618D01*
X71658701Y96507613D01*
X71718008Y96404891D01*
X71718009Y96404890D01*
X71718011Y96404887D01*
X71801887Y96321011D01*
X71801889Y96321010D01*
X71801890Y96321009D01*
X71904612Y96261702D01*
X71904614Y96261701D01*
X71904615Y96261701D01*
X71904617Y96261700D01*
X72019182Y96231002D01*
X72019185Y96231002D01*
X72019191Y96231000D01*
X72019197Y96231000D01*
X72020054Y96230887D01*
X72020438Y96230666D01*
X72023876Y96229744D01*
X72023629Y96228824D01*
X72069105Y96202571D01*
X72084400Y96157519D01*
X72084400Y43515023D01*
X72062726Y43462697D01*
X72041503Y43441474D01*
X71989177Y43419800D01*
X71934989Y43419800D01*
X71820417Y43389101D01*
X71820412Y43389099D01*
X71717690Y43329792D01*
X71633808Y43245910D01*
X71574501Y43143188D01*
X71574499Y43143183D01*
X71543800Y43028612D01*
X71543800Y42909989D01*
X71574499Y42795418D01*
X71574501Y42795413D01*
X71633808Y42692691D01*
X71633809Y42692690D01*
X71633811Y42692687D01*
X71717687Y42608811D01*
X71820414Y42549501D01*
X71820415Y42549501D01*
X71820417Y42549500D01*
X71877702Y42534151D01*
X71934988Y42518801D01*
X71934989Y42518800D01*
X71934991Y42518800D01*
X72053611Y42518800D01*
X72053611Y42518801D01*
X72168186Y42549501D01*
X72270913Y42608811D01*
X72286775Y42624674D01*
X72339100Y42646347D01*
X72391426Y42624673D01*
X72413100Y42572347D01*
X72413100Y40321836D01*
X72433577Y40245415D01*
X72433579Y40245410D01*
X72473140Y40176889D01*
X89352826Y23297203D01*
X89374500Y23244877D01*
X89374500Y23190689D01*
X89405199Y23076118D01*
X89405201Y23076113D01*
X89464508Y22973391D01*
X89464509Y22973390D01*
X89464511Y22973387D01*
X89548387Y22889511D01*
X89651114Y22830201D01*
X89651115Y22830201D01*
X89651117Y22830200D01*
X89708402Y22814851D01*
X89765688Y22799501D01*
X89765689Y22799500D01*
X89765691Y22799500D01*
X89884310Y22799500D01*
X89898334Y22803259D01*
X89919146Y22808835D01*
X89975299Y22801444D01*
X90009778Y22756511D01*
X90012300Y22737357D01*
X90012300Y20892923D01*
X89990626Y20840597D01*
X89872203Y20722174D01*
X89819877Y20700500D01*
X89765689Y20700500D01*
X89651117Y20669801D01*
X89651112Y20669799D01*
X89548390Y20610492D01*
X89464508Y20526610D01*
X89405201Y20423888D01*
X89405199Y20423883D01*
X89374500Y20309312D01*
X89374500Y20190689D01*
X89405199Y20076118D01*
X89405201Y20076113D01*
X89464508Y19973391D01*
X89464509Y19973390D01*
X89464511Y19973387D01*
X89548387Y19889511D01*
X89651114Y19830201D01*
X89651115Y19830201D01*
X89651117Y19830200D01*
X89708402Y19814851D01*
X89765688Y19799501D01*
X89765689Y19799500D01*
X89765691Y19799500D01*
X89884311Y19799500D01*
X89884311Y19799501D01*
X89998886Y19830201D01*
X90101613Y19889511D01*
X90185489Y19973387D01*
X90244799Y20076114D01*
X90275499Y20190689D01*
X90275500Y20190689D01*
X90275500Y20244877D01*
X90297174Y20297203D01*
X90423859Y20423888D01*
X90553260Y20553289D01*
X90586284Y20610489D01*
X90592821Y20621811D01*
X90613299Y20698236D01*
X90613300Y20698236D01*
X90613300Y38859312D01*
X94774500Y38859312D01*
X94774500Y38740689D01*
X94805199Y38626118D01*
X94805201Y38626113D01*
X94864508Y38523391D01*
X94864509Y38523390D01*
X94864511Y38523387D01*
X94948387Y38439511D01*
X94948389Y38439510D01*
X94948390Y38439509D01*
X94999224Y38410160D01*
X95051114Y38380201D01*
X95051115Y38380201D01*
X95051117Y38380200D01*
X95108402Y38364851D01*
X95165688Y38349501D01*
X95165689Y38349500D01*
X95165691Y38349500D01*
X95284311Y38349500D01*
X95284311Y38349501D01*
X95398886Y38380201D01*
X95501613Y38439511D01*
X95585489Y38523387D01*
X95644799Y38626114D01*
X95675499Y38740689D01*
X95675500Y38740689D01*
X95675500Y38859311D01*
X95675499Y38859312D01*
X95644800Y38973883D01*
X95644798Y38973888D01*
X95585491Y39076610D01*
X95585490Y39076611D01*
X95585489Y39076613D01*
X95501613Y39160489D01*
X95501610Y39160491D01*
X95501609Y39160492D01*
X95398887Y39219799D01*
X95398882Y39219801D01*
X95284311Y39250500D01*
X95284309Y39250500D01*
X95165691Y39250500D01*
X95165689Y39250500D01*
X95051117Y39219801D01*
X95051112Y39219799D01*
X94948390Y39160492D01*
X94864508Y39076610D01*
X94805201Y38973888D01*
X94805199Y38973883D01*
X94774500Y38859312D01*
X90613300Y38859312D01*
X90613300Y58249460D01*
X90613300Y58249462D01*
X90592822Y58325888D01*
X90553260Y58394411D01*
X81947174Y67000497D01*
X81925500Y67052823D01*
X81925500Y76671877D01*
X81947174Y76724203D01*
X81999500Y76745877D01*
X82051826Y76724203D01*
X83765226Y75010803D01*
X83786900Y74958477D01*
X83786900Y74904289D01*
X83817599Y74789718D01*
X83817601Y74789713D01*
X83876908Y74686991D01*
X83876909Y74686990D01*
X83876911Y74686987D01*
X83960787Y74603111D01*
X84063514Y74543801D01*
X84063515Y74543801D01*
X84063517Y74543800D01*
X84117890Y74529231D01*
X84178088Y74513101D01*
X84178089Y74513100D01*
X84178091Y74513100D01*
X84296711Y74513100D01*
X84296711Y74513101D01*
X84411286Y74543801D01*
X84514013Y74603111D01*
X84597889Y74686987D01*
X84597892Y74686992D01*
X84600847Y74690841D01*
X84602872Y74689287D01*
X84641231Y74718733D01*
X84697386Y74711353D01*
X84731874Y74666428D01*
X84734400Y74647259D01*
X84734400Y66000536D01*
X84754877Y65924115D01*
X84754879Y65924110D01*
X84794440Y65855589D01*
X89352826Y61297203D01*
X89374500Y61244877D01*
X89374500Y61190689D01*
X89405199Y61076118D01*
X89405201Y61076113D01*
X89464508Y60973391D01*
X89464509Y60973390D01*
X89464511Y60973387D01*
X89548387Y60889511D01*
X89548389Y60889510D01*
X89548390Y60889509D01*
X89651112Y60830202D01*
X89651114Y60830201D01*
X89651115Y60830201D01*
X89651117Y60830200D01*
X89708402Y60814851D01*
X89765688Y60799501D01*
X89765689Y60799500D01*
X89765691Y60799500D01*
X89884311Y60799500D01*
X89884311Y60799501D01*
X89998886Y60830201D01*
X90101613Y60889511D01*
X90185489Y60973387D01*
X90244799Y61076114D01*
X90275499Y61190689D01*
X90275500Y61190689D01*
X90275500Y61309311D01*
X90275499Y61309312D01*
X90244800Y61423883D01*
X90244798Y61423888D01*
X90185491Y61526610D01*
X90185490Y61526611D01*
X90185489Y61526613D01*
X90101613Y61610489D01*
X90101610Y61610491D01*
X90101609Y61610492D01*
X89998887Y61669799D01*
X89998882Y61669801D01*
X89884311Y61700500D01*
X89884309Y61700500D01*
X89830123Y61700500D01*
X89777797Y61722174D01*
X85357074Y66142897D01*
X85335400Y66195223D01*
X85335400Y68135977D01*
X85357074Y68188303D01*
X85409400Y68209977D01*
X85461726Y68188303D01*
X89352826Y64297203D01*
X89374500Y64244877D01*
X89374500Y64190689D01*
X89405199Y64076118D01*
X89405201Y64076113D01*
X89464508Y63973391D01*
X89464509Y63973390D01*
X89464511Y63973387D01*
X89548387Y63889511D01*
X89548389Y63889510D01*
X89548390Y63889509D01*
X89651112Y63830202D01*
X89651114Y63830201D01*
X89651115Y63830201D01*
X89651117Y63830200D01*
X89677339Y63823174D01*
X89765688Y63799501D01*
X89765689Y63799500D01*
X89765691Y63799500D01*
X89884311Y63799500D01*
X89884311Y63799501D01*
X89998886Y63830201D01*
X90101613Y63889511D01*
X90185489Y63973387D01*
X90244799Y64076114D01*
X90275499Y64190689D01*
X90275500Y64190689D01*
X90275500Y64309311D01*
X90275499Y64309312D01*
X90244800Y64423883D01*
X90244798Y64423888D01*
X90185491Y64526610D01*
X90185490Y64526611D01*
X90185489Y64526613D01*
X90101613Y64610489D01*
X90101610Y64610491D01*
X90101609Y64610492D01*
X89998887Y64669799D01*
X89998882Y64669801D01*
X89884311Y64700500D01*
X89884309Y64700500D01*
X89830123Y64700500D01*
X89777797Y64722174D01*
X85847174Y68652797D01*
X85825500Y68705123D01*
X85825500Y70645877D01*
X85847174Y70698203D01*
X85899500Y70719877D01*
X85951826Y70698203D01*
X89352826Y67297203D01*
X89374500Y67244877D01*
X89374500Y67190689D01*
X89405199Y67076118D01*
X89405201Y67076113D01*
X89464508Y66973391D01*
X89464509Y66973390D01*
X89464511Y66973387D01*
X89548387Y66889511D01*
X89548389Y66889510D01*
X89548390Y66889509D01*
X89651112Y66830202D01*
X89651114Y66830201D01*
X89651115Y66830201D01*
X89651117Y66830200D01*
X89691110Y66819484D01*
X89765688Y66799501D01*
X89765689Y66799500D01*
X89765691Y66799500D01*
X89884311Y66799500D01*
X89884311Y66799501D01*
X89998886Y66830201D01*
X90101613Y66889511D01*
X90185489Y66973387D01*
X90244799Y67076114D01*
X90275499Y67190689D01*
X90275500Y67190689D01*
X90275500Y67309311D01*
X90275499Y67309312D01*
X90244800Y67423883D01*
X90244798Y67423888D01*
X90185491Y67526610D01*
X90185490Y67526611D01*
X90185489Y67526613D01*
X90101613Y67610489D01*
X90101610Y67610491D01*
X90101609Y67610492D01*
X89998887Y67669799D01*
X89998882Y67669801D01*
X89884311Y67700500D01*
X89884309Y67700500D01*
X89830123Y67700500D01*
X89777797Y67722174D01*
X86497174Y71002797D01*
X86475500Y71055123D01*
X86475500Y88112747D01*
X86497173Y88165072D01*
X86535489Y88203387D01*
X86594799Y88306114D01*
X86598548Y88320104D01*
X86633026Y88365037D01*
X86689179Y88372429D01*
X86722352Y88353277D01*
X87752426Y87323203D01*
X87774100Y87270877D01*
X87774100Y74960836D01*
X87794577Y74884415D01*
X87794579Y74884410D01*
X87806675Y74863460D01*
X87834140Y74815889D01*
X89352826Y73297203D01*
X89374500Y73244877D01*
X89374500Y73190689D01*
X89405199Y73076118D01*
X89405201Y73076113D01*
X89464508Y72973391D01*
X89464509Y72973390D01*
X89464511Y72973387D01*
X89548387Y72889511D01*
X89548389Y72889510D01*
X89548390Y72889509D01*
X89651112Y72830202D01*
X89651114Y72830201D01*
X89651115Y72830201D01*
X89651117Y72830200D01*
X89652140Y72829926D01*
X89765688Y72799501D01*
X89765689Y72799500D01*
X89765691Y72799500D01*
X89884311Y72799500D01*
X89884311Y72799501D01*
X89998886Y72830201D01*
X90101613Y72889511D01*
X90185489Y72973387D01*
X90244799Y73076114D01*
X90275499Y73190689D01*
X90275500Y73190689D01*
X90275500Y73309311D01*
X90275499Y73309312D01*
X90267675Y73338510D01*
X90244799Y73423886D01*
X90185489Y73526613D01*
X90101613Y73610489D01*
X90101610Y73610491D01*
X90101609Y73610492D01*
X89998887Y73669799D01*
X89998882Y73669801D01*
X89884311Y73700500D01*
X89884309Y73700500D01*
X89830123Y73700500D01*
X89777797Y73722174D01*
X88396774Y75103197D01*
X88375100Y75155523D01*
X88375100Y86015818D01*
X88396774Y86068144D01*
X88449100Y86089818D01*
X88468253Y86087296D01*
X88486919Y86082295D01*
X88493988Y86080401D01*
X88493989Y86080400D01*
X88493991Y86080400D01*
X88548177Y86080400D01*
X88600503Y86058726D01*
X93655026Y81004203D01*
X93676700Y80951877D01*
X93676700Y77935636D01*
X93697177Y77859215D01*
X93697179Y77859210D01*
X93736740Y77790689D01*
X106092426Y65435003D01*
X106114100Y65382677D01*
X106114100Y46395836D01*
X106134577Y46319415D01*
X106134579Y46319410D01*
X106174140Y46250889D01*
X126359540Y26065489D01*
X126415489Y26009540D01*
X126440947Y25994842D01*
X126462651Y25975811D01*
X126464509Y25973390D01*
X126464511Y25973387D01*
X126548387Y25889511D01*
X126548389Y25889510D01*
X126548390Y25889509D01*
X126651112Y25830202D01*
X126651114Y25830201D01*
X126651115Y25830201D01*
X126651117Y25830200D01*
X126708402Y25814851D01*
X126765688Y25799501D01*
X126765689Y25799500D01*
X126765691Y25799500D01*
X126884311Y25799500D01*
X126884311Y25799501D01*
X126998886Y25830201D01*
X127101613Y25889511D01*
X127185489Y25973387D01*
X127244799Y26076114D01*
X127275499Y26190689D01*
X127275500Y26190689D01*
X127275500Y26309311D01*
X127275499Y26309312D01*
X127244800Y26423883D01*
X127244798Y26423888D01*
X127185491Y26526610D01*
X127185490Y26526611D01*
X127185489Y26526613D01*
X127101613Y26610489D01*
X127101610Y26610491D01*
X127101609Y26610492D01*
X126998887Y26669799D01*
X126998882Y26669801D01*
X126884311Y26700500D01*
X126884309Y26700500D01*
X126765691Y26700500D01*
X126656149Y26671148D01*
X126599996Y26678541D01*
X126584670Y26690301D01*
X123965659Y29309312D01*
X126374500Y29309312D01*
X126374500Y29190689D01*
X126405199Y29076118D01*
X126405201Y29076113D01*
X126464508Y28973391D01*
X126464509Y28973390D01*
X126464511Y28973387D01*
X126548387Y28889511D01*
X126651114Y28830201D01*
X126651115Y28830201D01*
X126651117Y28830200D01*
X126708402Y28814851D01*
X126765688Y28799501D01*
X126765689Y28799500D01*
X126765691Y28799500D01*
X126884311Y28799500D01*
X126884311Y28799501D01*
X126998886Y28830201D01*
X127101613Y28889511D01*
X127185489Y28973387D01*
X127244799Y29076114D01*
X127275499Y29190689D01*
X127275500Y29190689D01*
X127275500Y29309311D01*
X127275499Y29309312D01*
X127244800Y29423883D01*
X127244798Y29423888D01*
X127185491Y29526610D01*
X127185490Y29526611D01*
X127185489Y29526613D01*
X127101613Y29610489D01*
X127101610Y29610491D01*
X127101609Y29610492D01*
X126998887Y29669799D01*
X126998882Y29669801D01*
X126884311Y29700500D01*
X126884309Y29700500D01*
X126765691Y29700500D01*
X126765689Y29700500D01*
X126651117Y29669801D01*
X126651112Y29669799D01*
X126548390Y29610492D01*
X126464508Y29526610D01*
X126405201Y29423888D01*
X126405199Y29423883D01*
X126374500Y29309312D01*
X123965659Y29309312D01*
X106736774Y46538197D01*
X106715100Y46590523D01*
X106715100Y65577360D01*
X106715100Y65577362D01*
X106694622Y65653788D01*
X106655060Y65722311D01*
X94299374Y78077997D01*
X94277700Y78130323D01*
X94277700Y81101077D01*
X94299374Y81153403D01*
X94351700Y81175077D01*
X94404026Y81153403D01*
X95186450Y80370979D01*
X95208124Y80318653D01*
X95186450Y80266327D01*
X95153277Y80247175D01*
X95051117Y80219801D01*
X95051112Y80219799D01*
X94948390Y80160492D01*
X94864508Y80076610D01*
X94805201Y79973888D01*
X94805199Y79973883D01*
X94774500Y79859312D01*
X94774500Y79740689D01*
X94805199Y79626118D01*
X94805201Y79626113D01*
X94864508Y79523391D01*
X94864509Y79523390D01*
X94864511Y79523387D01*
X94948387Y79439511D01*
X94948389Y79439510D01*
X94948390Y79439509D01*
X94975450Y79423886D01*
X95051114Y79380201D01*
X95051115Y79380201D01*
X95051117Y79380200D01*
X95108402Y79364851D01*
X95165688Y79349501D01*
X95165689Y79349500D01*
X95165691Y79349500D01*
X95284311Y79349500D01*
X95284311Y79349501D01*
X95398886Y79380201D01*
X95501613Y79439511D01*
X95585489Y79523387D01*
X95644799Y79626114D01*
X95653290Y79657801D01*
X95658422Y79676954D01*
X95692900Y79721887D01*
X95749053Y79729279D01*
X95793986Y79694801D01*
X95803900Y79657801D01*
X95803900Y79590836D01*
X95824377Y79514415D01*
X95824378Y79514414D01*
X95824379Y79514411D01*
X95832988Y79499500D01*
X95863940Y79445889D01*
X108732026Y66577803D01*
X108753700Y66525477D01*
X108753700Y49981236D01*
X108774177Y49904815D01*
X108774180Y49904809D01*
X108781580Y49891993D01*
X108781581Y49891989D01*
X108781582Y49891989D01*
X108813740Y49836289D01*
X126352826Y32297203D01*
X126374500Y32244877D01*
X126374500Y32190689D01*
X126405199Y32076118D01*
X126405201Y32076113D01*
X126464508Y31973391D01*
X126464509Y31973390D01*
X126464511Y31973387D01*
X126548387Y31889511D01*
X126548389Y31889510D01*
X126548390Y31889509D01*
X126651112Y31830202D01*
X126651114Y31830201D01*
X126651115Y31830201D01*
X126651117Y31830200D01*
X126706020Y31815489D01*
X126765688Y31799501D01*
X126765689Y31799500D01*
X126765691Y31799500D01*
X126884311Y31799500D01*
X126884311Y31799501D01*
X126998886Y31830201D01*
X127101613Y31889511D01*
X127185489Y31973387D01*
X127244799Y32076114D01*
X127275499Y32190689D01*
X127275500Y32190689D01*
X127275500Y32309311D01*
X127275499Y32309312D01*
X127244800Y32423883D01*
X127244798Y32423888D01*
X127185491Y32526610D01*
X127185490Y32526611D01*
X127185489Y32526613D01*
X127101613Y32610489D01*
X127101610Y32610491D01*
X127101609Y32610492D01*
X126998887Y32669799D01*
X126998882Y32669801D01*
X126884311Y32700500D01*
X126884309Y32700500D01*
X126830123Y32700500D01*
X126777797Y32722174D01*
X124190659Y35309312D01*
X126374500Y35309312D01*
X126374500Y35190689D01*
X126405199Y35076118D01*
X126405201Y35076113D01*
X126464508Y34973391D01*
X126464509Y34973390D01*
X126464511Y34973387D01*
X126548387Y34889511D01*
X126548389Y34889510D01*
X126548390Y34889509D01*
X126651112Y34830202D01*
X126651114Y34830201D01*
X126651115Y34830201D01*
X126651117Y34830200D01*
X126708402Y34814851D01*
X126765688Y34799501D01*
X126765689Y34799500D01*
X126765691Y34799500D01*
X126884311Y34799500D01*
X126884311Y34799501D01*
X126998886Y34830201D01*
X127101613Y34889511D01*
X127185489Y34973387D01*
X127244799Y35076114D01*
X127275499Y35190689D01*
X127275500Y35190689D01*
X127275500Y35309311D01*
X127275499Y35309312D01*
X127244800Y35423883D01*
X127244798Y35423888D01*
X127185491Y35526610D01*
X127185490Y35526611D01*
X127185489Y35526613D01*
X127101613Y35610489D01*
X127101610Y35610491D01*
X127101609Y35610492D01*
X126998887Y35669799D01*
X126998882Y35669801D01*
X126884311Y35700500D01*
X126884309Y35700500D01*
X126765691Y35700500D01*
X126765689Y35700500D01*
X126651117Y35669801D01*
X126651112Y35669799D01*
X126548390Y35610492D01*
X126464508Y35526610D01*
X126405201Y35423888D01*
X126405199Y35423883D01*
X126374500Y35309312D01*
X124190659Y35309312D01*
X120640659Y38859312D01*
X131774500Y38859312D01*
X131774500Y38740689D01*
X131805199Y38626118D01*
X131805201Y38626113D01*
X131864508Y38523391D01*
X131864509Y38523390D01*
X131864511Y38523387D01*
X131948387Y38439511D01*
X131948389Y38439510D01*
X131948390Y38439509D01*
X131999224Y38410160D01*
X132051114Y38380201D01*
X132051115Y38380201D01*
X132051117Y38380200D01*
X132108402Y38364851D01*
X132165688Y38349501D01*
X132165689Y38349500D01*
X132165691Y38349500D01*
X132284311Y38349500D01*
X132284311Y38349501D01*
X132398886Y38380201D01*
X132501613Y38439511D01*
X132585489Y38523387D01*
X132644799Y38626114D01*
X132675499Y38740689D01*
X132675500Y38740689D01*
X132675500Y38859311D01*
X132675499Y38859312D01*
X132644800Y38973883D01*
X132644798Y38973888D01*
X132585491Y39076610D01*
X132585490Y39076611D01*
X132585489Y39076613D01*
X132501613Y39160489D01*
X132501610Y39160491D01*
X132501609Y39160492D01*
X132398887Y39219799D01*
X132398882Y39219801D01*
X132284311Y39250500D01*
X132284309Y39250500D01*
X132165691Y39250500D01*
X132165689Y39250500D01*
X132051117Y39219801D01*
X132051112Y39219799D01*
X131948390Y39160492D01*
X131864508Y39076610D01*
X131805201Y38973888D01*
X131805199Y38973883D01*
X131774500Y38859312D01*
X120640659Y38859312D01*
X109376374Y50123597D01*
X109354700Y50175923D01*
X109354700Y66720162D01*
X109338208Y66781712D01*
X109338208Y66781713D01*
X109338207Y66781715D01*
X109334222Y66796588D01*
X109294660Y66865111D01*
X96426574Y79733197D01*
X96404900Y79785523D01*
X96404900Y79917562D01*
X96389808Y79973887D01*
X96389808Y79973888D01*
X96387653Y79981927D01*
X96384422Y79993988D01*
X96344860Y80062511D01*
X86049711Y90357660D01*
X86049706Y90357663D01*
X85981190Y90397221D01*
X85981185Y90397223D01*
X85904764Y90417700D01*
X85904762Y90417700D01*
X81201762Y90417700D01*
X81122638Y90417700D01*
X81046212Y90397222D01*
X81046211Y90397222D01*
X81046209Y90397221D01*
X81046207Y90397220D01*
X80977692Y90357663D01*
X80372203Y89752174D01*
X80319877Y89730500D01*
X80265689Y89730500D01*
X80151117Y89699801D01*
X80151112Y89699799D01*
X80048390Y89640492D01*
X79964508Y89556610D01*
X79905201Y89453888D01*
X79905199Y89453883D01*
X79874500Y89339312D01*
X79874500Y89220689D01*
X79905199Y89106118D01*
X79905201Y89106113D01*
X79964508Y89003391D01*
X79964509Y89003390D01*
X79964511Y89003387D01*
X79970096Y88997802D01*
X79991770Y88945477D01*
X79970096Y88893151D01*
X79917770Y88871477D01*
X79880770Y88881391D01*
X79848887Y88899799D01*
X79848882Y88899801D01*
X79734311Y88930500D01*
X79734309Y88930500D01*
X79615691Y88930500D01*
X79615689Y88930500D01*
X79501117Y88899801D01*
X79501108Y88899797D01*
X79469228Y88881391D01*
X79413075Y88873999D01*
X79368143Y88908478D01*
X79360751Y88964631D01*
X79379903Y88997802D01*
X79385489Y89003387D01*
X79444799Y89106114D01*
X79475499Y89220689D01*
X79475500Y89220689D01*
X79475500Y89339311D01*
X79475499Y89339312D01*
X79444800Y89453883D01*
X79444798Y89453888D01*
X79385491Y89556610D01*
X79385490Y89556611D01*
X79385489Y89556613D01*
X79301613Y89640489D01*
X79301610Y89640491D01*
X79301609Y89640492D01*
X79198887Y89699799D01*
X79198882Y89699801D01*
X79084311Y89730500D01*
X79084309Y89730500D01*
X78965691Y89730500D01*
X78908152Y89715083D01*
X78851999Y89722476D01*
X78817521Y89767410D01*
X78815000Y89786562D01*
X78815000Y97010447D01*
X78836673Y97062772D01*
X78874889Y97100987D01*
X78934199Y97203714D01*
X78964899Y97318289D01*
X78964900Y97318289D01*
X78964900Y97436911D01*
X78954681Y97475046D01*
X78962073Y97531199D01*
X79007005Y97565678D01*
X79026159Y97568200D01*
X79294777Y97568200D01*
X79347103Y97546526D01*
X126502826Y50390803D01*
X126524500Y50338477D01*
X126524500Y41617254D01*
X126502827Y41564929D01*
X126464508Y41526610D01*
X126405201Y41423888D01*
X126405199Y41423883D01*
X126374500Y41309312D01*
X126374500Y41190689D01*
X126405199Y41076118D01*
X126405201Y41076113D01*
X126464508Y40973391D01*
X126464509Y40973390D01*
X126464511Y40973387D01*
X126548387Y40889511D01*
X126651114Y40830201D01*
X126651115Y40830201D01*
X126651117Y40830200D01*
X126675618Y40823635D01*
X126765688Y40799501D01*
X126765689Y40799500D01*
X126765691Y40799500D01*
X126884311Y40799500D01*
X126884311Y40799501D01*
X126998886Y40830201D01*
X127101613Y40889511D01*
X127185489Y40973387D01*
X127244799Y41076114D01*
X127275499Y41190689D01*
X127275500Y41190689D01*
X127275500Y41309311D01*
X127275499Y41309312D01*
X127244800Y41423883D01*
X127244798Y41423888D01*
X127185491Y41526610D01*
X127185490Y41526611D01*
X127185489Y41526613D01*
X127147173Y41564929D01*
X127125500Y41617254D01*
X127125500Y50533164D01*
X127125499Y50533165D01*
X127105022Y50609586D01*
X127105020Y50609591D01*
X127065459Y50678112D01*
X116914038Y60829533D01*
X116892364Y60881859D01*
X116914038Y60934185D01*
X116966364Y60955859D01*
X116985518Y60953337D01*
X116999837Y60949500D01*
X116999838Y60949500D01*
X117078962Y60949500D01*
X126457746Y60949500D01*
X126510071Y60927827D01*
X126548387Y60889511D01*
X126548389Y60889510D01*
X126548390Y60889509D01*
X126651112Y60830202D01*
X126651114Y60830201D01*
X126651115Y60830201D01*
X126651117Y60830200D01*
X126708402Y60814851D01*
X126765688Y60799501D01*
X126765689Y60799500D01*
X126765691Y60799500D01*
X126884311Y60799500D01*
X126884311Y60799501D01*
X126998886Y60830201D01*
X127101613Y60889511D01*
X127185489Y60973387D01*
X127244799Y61076114D01*
X127275499Y61190689D01*
X127275500Y61190689D01*
X127275500Y61309311D01*
X127275499Y61309312D01*
X127244800Y61423883D01*
X127244798Y61423888D01*
X127185491Y61526610D01*
X127185490Y61526611D01*
X127185489Y61526613D01*
X127101613Y61610489D01*
X127101610Y61610491D01*
X127101609Y61610492D01*
X126998887Y61669799D01*
X126998882Y61669801D01*
X126884311Y61700500D01*
X126884309Y61700500D01*
X126765691Y61700500D01*
X126765689Y61700500D01*
X126651117Y61669801D01*
X126651112Y61669799D01*
X126548390Y61610492D01*
X126510071Y61572173D01*
X126457746Y61550500D01*
X117194523Y61550500D01*
X117142197Y61572174D01*
X108362397Y70351974D01*
X108340723Y70404300D01*
X108362397Y70456626D01*
X108414723Y70478300D01*
X123141077Y70478300D01*
X123193403Y70456626D01*
X126352826Y67297203D01*
X126374500Y67244877D01*
X126374500Y67190689D01*
X126405199Y67076118D01*
X126405201Y67076113D01*
X126464508Y66973391D01*
X126464509Y66973390D01*
X126464511Y66973387D01*
X126548387Y66889511D01*
X126548389Y66889510D01*
X126548390Y66889509D01*
X126651112Y66830202D01*
X126651114Y66830201D01*
X126651115Y66830201D01*
X126651117Y66830200D01*
X126691110Y66819484D01*
X126765688Y66799501D01*
X126765689Y66799500D01*
X126765691Y66799500D01*
X126884311Y66799500D01*
X126884311Y66799501D01*
X126909323Y66806203D01*
X126920447Y66809183D01*
X126976599Y66801791D01*
X127011078Y66756858D01*
X127013600Y66737705D01*
X127013600Y64894223D01*
X126991926Y64841897D01*
X126872203Y64722174D01*
X126819877Y64700500D01*
X126765689Y64700500D01*
X126651117Y64669801D01*
X126651112Y64669799D01*
X126548390Y64610492D01*
X126464508Y64526610D01*
X126405201Y64423888D01*
X126405199Y64423883D01*
X126374500Y64309312D01*
X126374500Y64190689D01*
X126405199Y64076118D01*
X126405201Y64076113D01*
X126464508Y63973391D01*
X126464509Y63973390D01*
X126464511Y63973387D01*
X126548387Y63889511D01*
X126548389Y63889510D01*
X126548390Y63889509D01*
X126651112Y63830202D01*
X126651114Y63830201D01*
X126651115Y63830201D01*
X126651117Y63830200D01*
X126677339Y63823174D01*
X126765688Y63799501D01*
X126765689Y63799500D01*
X126765691Y63799500D01*
X126884311Y63799500D01*
X126884311Y63799501D01*
X126998886Y63830201D01*
X127101613Y63889511D01*
X127185489Y63973387D01*
X127244799Y64076114D01*
X127275499Y64190689D01*
X127275500Y64190689D01*
X127275500Y64244877D01*
X127297174Y64297203D01*
X127423859Y64423888D01*
X127554560Y64554589D01*
X127582516Y64603011D01*
X127594121Y64623111D01*
X127614599Y64699536D01*
X127614600Y64699536D01*
X127614600Y67478864D01*
X127614599Y67478865D01*
X127594122Y67555286D01*
X127594120Y67555291D01*
X127562251Y67610489D01*
X127554560Y67623811D01*
X127498611Y67679760D01*
X125678711Y69499660D01*
X125610190Y69539221D01*
X125610185Y69539223D01*
X125533764Y69559700D01*
X125533762Y69559700D01*
X125464923Y69559700D01*
X125412597Y69581374D01*
X115753511Y79240460D01*
X115684990Y79280021D01*
X115684985Y79280023D01*
X115608564Y79300500D01*
X115608562Y79300500D01*
X100961423Y79300500D01*
X100909097Y79322174D01*
X83916897Y96314374D01*
X83895223Y96366700D01*
X83916897Y96419026D01*
X83969223Y96440700D01*
X100178677Y96440700D01*
X100231003Y96419026D01*
X126352826Y70297203D01*
X126374500Y70244877D01*
X126374500Y70190689D01*
X126405199Y70076118D01*
X126405201Y70076113D01*
X126464508Y69973391D01*
X126464509Y69973390D01*
X126464511Y69973387D01*
X126548387Y69889511D01*
X126651114Y69830201D01*
X126651115Y69830201D01*
X126651117Y69830200D01*
X126708402Y69814851D01*
X126765688Y69799501D01*
X126765689Y69799500D01*
X126765691Y69799500D01*
X126884311Y69799500D01*
X126884311Y69799501D01*
X126998886Y69830201D01*
X127101613Y69889511D01*
X127185489Y69973387D01*
X127244799Y70076114D01*
X127275499Y70190689D01*
X127275500Y70190689D01*
X127275500Y70309311D01*
X127275499Y70309312D01*
X127244800Y70423883D01*
X127244798Y70423888D01*
X127185491Y70526610D01*
X127185490Y70526611D01*
X127185489Y70526613D01*
X127101613Y70610489D01*
X127101610Y70610491D01*
X127101609Y70610492D01*
X126998887Y70669799D01*
X126998882Y70669801D01*
X126884311Y70700500D01*
X126884309Y70700500D01*
X126830123Y70700500D01*
X126777797Y70722174D01*
X100518311Y96981660D01*
X100506081Y96988721D01*
X100449790Y97021221D01*
X100449785Y97021223D01*
X100373364Y97041700D01*
X100373362Y97041700D01*
X83846923Y97041700D01*
X83794597Y97063374D01*
X83294697Y97563274D01*
X83273023Y97615600D01*
X83294697Y97667926D01*
X83347023Y97689600D01*
X101929777Y97689600D01*
X101982103Y97667926D01*
X126352826Y73297203D01*
X126374500Y73244877D01*
X126374500Y73190689D01*
X126405199Y73076118D01*
X126405201Y73076113D01*
X126464508Y72973391D01*
X126464509Y72973390D01*
X126464511Y72973387D01*
X126548387Y72889511D01*
X126548389Y72889510D01*
X126548390Y72889509D01*
X126651112Y72830202D01*
X126651114Y72830201D01*
X126651115Y72830201D01*
X126651117Y72830200D01*
X126652140Y72829926D01*
X126765688Y72799501D01*
X126765689Y72799500D01*
X126765691Y72799500D01*
X126884311Y72799500D01*
X126884311Y72799501D01*
X126998886Y72830201D01*
X127101613Y72889511D01*
X127185489Y72973387D01*
X127244799Y73076114D01*
X127275499Y73190689D01*
X127275500Y73190689D01*
X127275500Y73309311D01*
X127275499Y73309312D01*
X127267675Y73338510D01*
X127244799Y73423886D01*
X127185489Y73526613D01*
X127101613Y73610489D01*
X127101610Y73610491D01*
X127101609Y73610492D01*
X126998887Y73669799D01*
X126998882Y73669801D01*
X126884311Y73700500D01*
X126884309Y73700500D01*
X126830123Y73700500D01*
X126777797Y73722174D01*
X102269411Y98230560D01*
X102200890Y98270121D01*
X102200885Y98270123D01*
X102186332Y98274022D01*
X102141399Y98308500D01*
X102134007Y98364653D01*
X102168485Y98409586D01*
X102205485Y98419500D01*
X104199877Y98419500D01*
X104252203Y98397826D01*
X126352826Y76297203D01*
X126374500Y76244877D01*
X126374500Y76190689D01*
X126405199Y76076118D01*
X126405201Y76076113D01*
X126464508Y75973391D01*
X126464509Y75973390D01*
X126464511Y75973387D01*
X126548387Y75889511D01*
X126651114Y75830201D01*
X126651115Y75830201D01*
X126651117Y75830200D01*
X126652140Y75829926D01*
X126765688Y75799501D01*
X126765689Y75799500D01*
X126765691Y75799500D01*
X126884311Y75799500D01*
X126884311Y75799501D01*
X126998886Y75830201D01*
X127101613Y75889511D01*
X127185489Y75973387D01*
X127244799Y76076114D01*
X127275499Y76190689D01*
X127275500Y76190689D01*
X127275500Y76309311D01*
X127275499Y76309312D01*
X127244800Y76423883D01*
X127244798Y76423888D01*
X127185491Y76526610D01*
X127185490Y76526611D01*
X127185489Y76526613D01*
X127101613Y76610489D01*
X127101610Y76610491D01*
X127101609Y76610492D01*
X126998887Y76669799D01*
X126998882Y76669801D01*
X126884311Y76700500D01*
X126884309Y76700500D01*
X126830123Y76700500D01*
X126777797Y76722174D01*
X104722297Y98777674D01*
X104700623Y98830000D01*
X104722297Y98882326D01*
X104774623Y98904000D01*
X106715377Y98904000D01*
X106767703Y98882326D01*
X126352826Y79297203D01*
X126374500Y79244877D01*
X126374500Y79190689D01*
X126405199Y79076118D01*
X126405201Y79076113D01*
X126464508Y78973391D01*
X126464509Y78973390D01*
X126464511Y78973387D01*
X126548387Y78889511D01*
X126651114Y78830201D01*
X126651115Y78830201D01*
X126651117Y78830200D01*
X126708402Y78814851D01*
X126765688Y78799501D01*
X126765689Y78799500D01*
X126765691Y78799500D01*
X126884311Y78799500D01*
X126884311Y78799501D01*
X126998886Y78830201D01*
X127101613Y78889511D01*
X127185489Y78973387D01*
X127244799Y79076114D01*
X127275499Y79190689D01*
X127275500Y79190689D01*
X127275500Y79309311D01*
X127275499Y79309312D01*
X127264730Y79349501D01*
X127244799Y79423886D01*
X127235778Y79439511D01*
X127185491Y79526610D01*
X127185490Y79526611D01*
X127185489Y79526613D01*
X127101613Y79610489D01*
X127101610Y79610491D01*
X127101609Y79610492D01*
X126998887Y79669799D01*
X126998882Y79669801D01*
X126884311Y79700500D01*
X126884309Y79700500D01*
X126830123Y79700500D01*
X126777797Y79722174D01*
X107388297Y99111674D01*
X107366623Y99164000D01*
X107388297Y99216326D01*
X107440623Y99238000D01*
X109381377Y99238000D01*
X109433703Y99216326D01*
X126352826Y82297203D01*
X126374500Y82244877D01*
X126374500Y82190689D01*
X126405199Y82076118D01*
X126405201Y82076113D01*
X126464508Y81973391D01*
X126464509Y81973390D01*
X126464511Y81973387D01*
X126548387Y81889511D01*
X126651114Y81830201D01*
X126651115Y81830201D01*
X126651117Y81830200D01*
X126708402Y81814851D01*
X126765688Y81799501D01*
X126765689Y81799500D01*
X126765691Y81799500D01*
X126884311Y81799500D01*
X126884311Y81799501D01*
X126998886Y81830201D01*
X127101613Y81889511D01*
X127185489Y81973387D01*
X127244799Y82076114D01*
X127275499Y82190689D01*
X127275500Y82190689D01*
X127275500Y82309311D01*
X127275499Y82309312D01*
X127244800Y82423883D01*
X127244798Y82423888D01*
X127185491Y82526610D01*
X127185490Y82526611D01*
X127185489Y82526613D01*
X127101613Y82610489D01*
X127101610Y82610491D01*
X127101609Y82610492D01*
X126998887Y82669799D01*
X126998882Y82669801D01*
X126884311Y82700500D01*
X126884309Y82700500D01*
X126830123Y82700500D01*
X126777797Y82722174D01*
X109721011Y99778960D01*
X109667005Y99810140D01*
X109667003Y99810143D01*
X109652494Y99818519D01*
X109652485Y99818523D01*
X109576064Y99839000D01*
X109576062Y99839000D01*
X84279038Y99839000D01*
X84279036Y99839000D01*
X84202614Y99818523D01*
X84202605Y99818519D01*
X84188093Y99810141D01*
X84188094Y99810140D01*
X84134088Y99778960D01*
X84082834Y99727707D01*
X84030508Y99706034D01*
X83978182Y99727709D01*
X83966423Y99743034D01*
X83962343Y99750100D01*
X83953647Y99765162D01*
X83935491Y99796610D01*
X83935490Y99796611D01*
X83935489Y99796613D01*
X83851613Y99880489D01*
X83851610Y99880491D01*
X83851609Y99880492D01*
X83748887Y99939799D01*
X83748882Y99939801D01*
X83634311Y99970500D01*
X83634309Y99970500D01*
X83580123Y99970500D01*
X83527797Y99992174D01*
X83228911Y100291060D01*
X83199743Y100307900D01*
X83160390Y100330621D01*
X83160385Y100330623D01*
X83083964Y100351100D01*
X83083962Y100351100D01*
X82079538Y100351100D01*
X82079536Y100351100D01*
X82003114Y100330623D01*
X82003109Y100330621D01*
X81963757Y100307900D01*
X81934588Y100291060D01*
X81553640Y99910112D01*
X81514079Y99841591D01*
X81514078Y99841587D01*
X81495474Y99772161D01*
X81460995Y99727228D01*
X81404842Y99719837D01*
X81359910Y99754315D01*
X81335491Y99796610D01*
X81335490Y99796611D01*
X81335489Y99796613D01*
X81251613Y99880489D01*
X81251610Y99880491D01*
X81251609Y99880492D01*
X81148887Y99939799D01*
X81148882Y99939801D01*
X81034311Y99970500D01*
X81034309Y99970500D01*
X80915691Y99970500D01*
X80915689Y99970500D01*
X80801117Y99939801D01*
X80801112Y99939799D01*
X80698390Y99880492D01*
X80698387Y99880490D01*
X80698387Y99880489D01*
X80614511Y99796613D01*
X80614509Y99796611D01*
X80611811Y99793912D01*
X80559485Y99772238D01*
X80507159Y99793912D01*
X80053211Y100247860D01*
X79984690Y100287421D01*
X79984685Y100287423D01*
X79908264Y100307900D01*
X79908262Y100307900D01*
X79377838Y100307900D01*
X79377836Y100307900D01*
X79301414Y100287423D01*
X79301409Y100287421D01*
X79232888Y100247860D01*
X78784540Y99799512D01*
X78744979Y99730991D01*
X78744977Y99730986D01*
X78724500Y99654565D01*
X78724500Y99087254D01*
X78702827Y99034929D01*
X78664508Y98996610D01*
X78605201Y98893888D01*
X78605199Y98893883D01*
X78574500Y98779312D01*
X78574500Y98660689D01*
X78605199Y98546118D01*
X78605201Y98546113D01*
X78664508Y98443391D01*
X78664509Y98443390D01*
X78664511Y98443387D01*
X78748387Y98359511D01*
X78748389Y98359510D01*
X78748390Y98359509D01*
X78838842Y98307286D01*
X78873321Y98262352D01*
X78865928Y98206200D01*
X78820994Y98171721D01*
X78801842Y98169200D01*
X78262636Y98169200D01*
X78186214Y98148723D01*
X78186209Y98148721D01*
X78117688Y98109160D01*
X77682240Y97673712D01*
X77642679Y97605191D01*
X77642677Y97605186D01*
X77622200Y97528765D01*
X77622200Y91609623D01*
X77600526Y91557297D01*
X76851826Y90808597D01*
X76799500Y90786923D01*
X76747174Y90808597D01*
X76725500Y90860923D01*
X76725500Y98352747D01*
X76747173Y98405072D01*
X76785489Y98443387D01*
X76844799Y98546114D01*
X76875499Y98660689D01*
X76875500Y98660689D01*
X76875500Y98779311D01*
X76875499Y98779312D01*
X76868201Y98806547D01*
X76847897Y98882326D01*
X76844800Y98893883D01*
X76844798Y98893888D01*
X76785491Y98996610D01*
X76785490Y98996611D01*
X76785489Y98996613D01*
X76779902Y99002200D01*
X76758229Y99054524D01*
X76779903Y99106850D01*
X76832229Y99128524D01*
X76869229Y99118610D01*
X76901110Y99100203D01*
X76901114Y99100201D01*
X76901115Y99100201D01*
X76901117Y99100200D01*
X76958402Y99084851D01*
X77015688Y99069501D01*
X77015689Y99069500D01*
X77015691Y99069500D01*
X77134311Y99069500D01*
X77134311Y99069501D01*
X77248886Y99100201D01*
X77280769Y99118610D01*
X77336921Y99126003D01*
X77381855Y99091525D01*
X77389249Y99035373D01*
X77370099Y99002201D01*
X77364509Y98996611D01*
X77305201Y98893888D01*
X77305199Y98893883D01*
X77274500Y98779312D01*
X77274500Y98660689D01*
X77305199Y98546118D01*
X77305201Y98546113D01*
X77364508Y98443391D01*
X77364509Y98443390D01*
X77364511Y98443387D01*
X77448387Y98359511D01*
X77448389Y98359510D01*
X77448390Y98359509D01*
X77551112Y98300202D01*
X77551114Y98300201D01*
X77551115Y98300201D01*
X77551117Y98300200D01*
X77586945Y98290600D01*
X77665688Y98269501D01*
X77665689Y98269500D01*
X77665691Y98269500D01*
X77784311Y98269500D01*
X77784311Y98269501D01*
X77898886Y98300201D01*
X78001613Y98359511D01*
X78085489Y98443387D01*
X78144799Y98546114D01*
X78175499Y98660689D01*
X78175500Y98660689D01*
X78175500Y98779311D01*
X78175499Y98779312D01*
X78168201Y98806547D01*
X78147897Y98882326D01*
X78144800Y98893883D01*
X78144798Y98893888D01*
X78085491Y98996610D01*
X78085490Y98996611D01*
X78085489Y98996613D01*
X78001613Y99080489D01*
X78001610Y99080491D01*
X78001609Y99080492D01*
X77898887Y99139799D01*
X77898882Y99139801D01*
X77784311Y99170500D01*
X77784309Y99170500D01*
X77665691Y99170500D01*
X77665689Y99170500D01*
X77551117Y99139801D01*
X77551108Y99139797D01*
X77519228Y99121391D01*
X77463075Y99113999D01*
X77418143Y99148478D01*
X77410751Y99204631D01*
X77429903Y99237802D01*
X77435489Y99243387D01*
X77494799Y99346114D01*
X77525499Y99460689D01*
X77525500Y99460689D01*
X77525500Y99579311D01*
X77525499Y99579312D01*
X77494800Y99693883D01*
X77494798Y99693888D01*
X77435491Y99796610D01*
X77435490Y99796611D01*
X77435489Y99796613D01*
X77351613Y99880489D01*
X77351610Y99880491D01*
X77351609Y99880492D01*
X77248887Y99939799D01*
X77248882Y99939801D01*
X77134311Y99970500D01*
X77134309Y99970500D01*
X77015691Y99970500D01*
X77015689Y99970500D01*
X76901117Y99939801D01*
X76901112Y99939799D01*
X76798390Y99880492D01*
X76714508Y99796610D01*
X76655201Y99693888D01*
X76655199Y99693883D01*
X76624500Y99579312D01*
X76624500Y99460689D01*
X76655199Y99346118D01*
X76655201Y99346113D01*
X76714508Y99243391D01*
X76714509Y99243390D01*
X76714511Y99243387D01*
X76720096Y99237802D01*
X76741770Y99185477D01*
X76720096Y99133151D01*
X76667770Y99111477D01*
X76630770Y99121391D01*
X76598887Y99139799D01*
X76598882Y99139801D01*
X76484311Y99170500D01*
X76484309Y99170500D01*
X76365691Y99170500D01*
X76365689Y99170500D01*
X76251117Y99139801D01*
X76251108Y99139797D01*
X76219228Y99121391D01*
X76163075Y99113999D01*
X76118143Y99148478D01*
X76110751Y99204631D01*
X76129903Y99237802D01*
X76135489Y99243387D01*
X76194799Y99346114D01*
X76225499Y99460689D01*
X76225500Y99460689D01*
X76225500Y99579311D01*
X76225499Y99579312D01*
X76194800Y99693883D01*
X76194798Y99693888D01*
X76135491Y99796610D01*
X76135490Y99796611D01*
X76135489Y99796613D01*
X76051613Y99880489D01*
X76051610Y99880491D01*
X76051609Y99880492D01*
X75948887Y99939799D01*
X75948882Y99939801D01*
X75834311Y99970500D01*
X75834309Y99970500D01*
X75715691Y99970500D01*
X75715689Y99970500D01*
X75601117Y99939801D01*
X75601112Y99939799D01*
X75498390Y99880492D01*
X75414508Y99796610D01*
X75355201Y99693888D01*
X75355199Y99693883D01*
X75324500Y99579312D01*
X75324500Y99460689D01*
X75355199Y99346118D01*
X75355201Y99346113D01*
X75414508Y99243391D01*
X75414509Y99243390D01*
X75414511Y99243387D01*
X75452826Y99205072D01*
X75474500Y99152747D01*
X75474500Y90708124D01*
X75452826Y90655798D01*
X74315229Y89518202D01*
X74262903Y89496528D01*
X74210577Y89518202D01*
X74198817Y89533529D01*
X74185492Y89556609D01*
X74185490Y89556611D01*
X74185489Y89556613D01*
X74101613Y89640489D01*
X74101610Y89640491D01*
X74101609Y89640492D01*
X73998887Y89699799D01*
X73998882Y89699801D01*
X73884311Y89730500D01*
X73884309Y89730500D01*
X73765691Y89730500D01*
X73765690Y89730500D01*
X73746924Y89725472D01*
X73690772Y89732866D01*
X73656294Y89777800D01*
X73663688Y89833952D01*
X73675443Y89849273D01*
X74715460Y90889289D01*
X74755022Y90957812D01*
X74775500Y91034238D01*
X74775500Y91113362D01*
X74775500Y99152747D01*
X74797173Y99205072D01*
X74835489Y99243387D01*
X74894799Y99346114D01*
X74925499Y99460689D01*
X74925500Y99460689D01*
X74925500Y99579311D01*
X74925499Y99579312D01*
X74894800Y99693883D01*
X74894798Y99693888D01*
X74835491Y99796610D01*
X74835490Y99796611D01*
X74835489Y99796613D01*
X74751613Y99880489D01*
X74751610Y99880491D01*
X74751609Y99880492D01*
X74717241Y99900334D01*
X74682763Y99945267D01*
X74690155Y100001420D01*
X74701911Y100016742D01*
X76756197Y102071026D01*
X76808523Y102092700D01*
X81218964Y102092700D01*
X81218964Y102092701D01*
X81295389Y102113179D01*
X81363911Y102152740D01*
X81419860Y102208689D01*
X84465460Y105254289D01*
X84497798Y105310301D01*
X84505021Y105322811D01*
X84525499Y105399236D01*
X84525500Y105399236D01*
X84525500Y109684312D01*
X125712000Y109684312D01*
X125712000Y109565689D01*
X125742699Y109451118D01*
X125742701Y109451113D01*
X125802011Y109348386D01*
X125804569Y109345053D01*
X125819233Y109290347D01*
X125804569Y109254947D01*
X125802011Y109251615D01*
X125742701Y109148888D01*
X125742699Y109148883D01*
X125712000Y109034312D01*
X125712000Y108915689D01*
X125742699Y108801118D01*
X125742701Y108801113D01*
X125802011Y108698386D01*
X125804569Y108695053D01*
X125819233Y108640347D01*
X125804569Y108604947D01*
X125802011Y108601615D01*
X125742701Y108498888D01*
X125742699Y108498883D01*
X125712000Y108384312D01*
X125712000Y108265689D01*
X125742699Y108151118D01*
X125742701Y108151113D01*
X125802008Y108048391D01*
X125802009Y108048390D01*
X125802011Y108048387D01*
X125885887Y107964511D01*
X125988614Y107905201D01*
X125988615Y107905201D01*
X125988617Y107905200D01*
X126045902Y107889851D01*
X126103188Y107874501D01*
X126103189Y107874500D01*
X126103191Y107874500D01*
X126221811Y107874500D01*
X126221811Y107874501D01*
X126336386Y107905201D01*
X126439113Y107964511D01*
X126522989Y108048387D01*
X126582299Y108151114D01*
X126612999Y108265689D01*
X126613000Y108265689D01*
X126613000Y108384311D01*
X126612999Y108384312D01*
X126582300Y108498883D01*
X126582298Y108498888D01*
X126522992Y108601609D01*
X126520434Y108604941D01*
X126505765Y108659646D01*
X126520434Y108695059D01*
X126522985Y108698384D01*
X126522989Y108698387D01*
X126582299Y108801114D01*
X126612999Y108915689D01*
X126613000Y108915689D01*
X126613000Y109034311D01*
X126612999Y109034312D01*
X126606515Y109058509D01*
X126584953Y109138980D01*
X126582300Y109148883D01*
X126582298Y109148888D01*
X126522992Y109251609D01*
X126520434Y109254941D01*
X126505765Y109309646D01*
X126520434Y109345059D01*
X126522985Y109348384D01*
X126522989Y109348387D01*
X126582299Y109451114D01*
X126612999Y109565689D01*
X126613000Y109565689D01*
X126613000Y109684311D01*
X126612999Y109684312D01*
X126603570Y109719500D01*
X126597649Y109741598D01*
X126582300Y109798883D01*
X126582298Y109798888D01*
X126522991Y109901610D01*
X126522990Y109901611D01*
X126522989Y109901613D01*
X126439113Y109985489D01*
X126439110Y109985491D01*
X126439109Y109985492D01*
X126336387Y110044799D01*
X126336382Y110044801D01*
X126221811Y110075500D01*
X126221809Y110075500D01*
X126103191Y110075500D01*
X126103189Y110075500D01*
X125988617Y110044801D01*
X125988612Y110044799D01*
X125885890Y109985492D01*
X125802008Y109901610D01*
X125742701Y109798888D01*
X125742699Y109798883D01*
X125712000Y109684312D01*
X84525500Y109684312D01*
X84525500Y111309312D01*
X115374500Y111309312D01*
X115374500Y111190689D01*
X115405199Y111076118D01*
X115405201Y111076113D01*
X115464508Y110973391D01*
X115464509Y110973390D01*
X115464511Y110973387D01*
X115548387Y110889511D01*
X115651114Y110830201D01*
X115651115Y110830201D01*
X115651117Y110830200D01*
X115708402Y110814851D01*
X115765688Y110799501D01*
X115765689Y110799500D01*
X115765691Y110799500D01*
X115884311Y110799500D01*
X115884311Y110799501D01*
X115998886Y110830201D01*
X116101613Y110889511D01*
X116185489Y110973387D01*
X116244799Y111076114D01*
X116275499Y111190689D01*
X116275500Y111190689D01*
X116275500Y111309311D01*
X116275499Y111309312D01*
X116244800Y111423883D01*
X116244798Y111423888D01*
X116185491Y111526610D01*
X116185490Y111526611D01*
X116185489Y111526613D01*
X116101613Y111610489D01*
X116101610Y111610491D01*
X116101609Y111610492D01*
X115998887Y111669799D01*
X115998882Y111669801D01*
X115884311Y111700500D01*
X115884309Y111700500D01*
X115765691Y111700500D01*
X115765689Y111700500D01*
X115651117Y111669801D01*
X115651112Y111669799D01*
X115548390Y111610492D01*
X115464508Y111526610D01*
X115405201Y111423888D01*
X115405199Y111423883D01*
X115374500Y111309312D01*
X84525500Y111309312D01*
X84525500Y112998420D01*
X84547174Y113050746D01*
X84599500Y113072420D01*
X84636500Y113062506D01*
X84701114Y113025201D01*
X84701115Y113025201D01*
X84701117Y113025200D01*
X84710903Y113022578D01*
X84815688Y112994501D01*
X84815689Y112994500D01*
X84815691Y112994500D01*
X84934311Y112994500D01*
X84934311Y112994501D01*
X85048886Y113025201D01*
X85151613Y113084511D01*
X85235489Y113168387D01*
X85294799Y113271114D01*
X85325499Y113385689D01*
X85325500Y113385689D01*
X85325500Y113504311D01*
X85325499Y113504312D01*
X85724500Y113504312D01*
X85724500Y113385689D01*
X85755199Y113271118D01*
X85755201Y113271113D01*
X85814508Y113168391D01*
X85814509Y113168390D01*
X85814511Y113168387D01*
X85898387Y113084511D01*
X85898389Y113084510D01*
X85898390Y113084509D01*
X85936500Y113062506D01*
X86001114Y113025201D01*
X86001115Y113025201D01*
X86001117Y113025200D01*
X86010903Y113022578D01*
X86115688Y112994501D01*
X86115689Y112994500D01*
X86115691Y112994500D01*
X86234311Y112994500D01*
X86234311Y112994501D01*
X86348886Y113025201D01*
X86451613Y113084511D01*
X86535489Y113168387D01*
X86594799Y113271114D01*
X86625499Y113385689D01*
X86625500Y113385689D01*
X86625500Y113504311D01*
X86625499Y113504312D01*
X86594800Y113618883D01*
X86594798Y113618888D01*
X86535491Y113721610D01*
X86535490Y113721611D01*
X86535489Y113721613D01*
X86451613Y113805489D01*
X86451610Y113805491D01*
X86451609Y113805492D01*
X86348887Y113864799D01*
X86348882Y113864801D01*
X86234311Y113895500D01*
X86234309Y113895500D01*
X86115691Y113895500D01*
X86115689Y113895500D01*
X86001117Y113864801D01*
X86001112Y113864799D01*
X85898390Y113805492D01*
X85814508Y113721610D01*
X85755201Y113618888D01*
X85755199Y113618883D01*
X85724500Y113504312D01*
X85325499Y113504312D01*
X85294800Y113618883D01*
X85294798Y113618888D01*
X85235491Y113721610D01*
X85235490Y113721611D01*
X85235489Y113721613D01*
X85151613Y113805489D01*
X85151610Y113805491D01*
X85151609Y113805492D01*
X85048887Y113864799D01*
X85048882Y113864801D01*
X84934311Y113895500D01*
X84934309Y113895500D01*
X84815691Y113895500D01*
X84815689Y113895500D01*
X84701117Y113864801D01*
X84701114Y113864799D01*
X84669226Y113846389D01*
X84613073Y113838998D01*
X84568140Y113873477D01*
X84560749Y113929630D01*
X84579901Y113962801D01*
X84585489Y113968388D01*
X84644799Y114071115D01*
X84675499Y114185690D01*
X84675500Y114185690D01*
X84675500Y114304312D01*
X84675499Y114304313D01*
X84674160Y114309309D01*
X84649424Y114401626D01*
X84644800Y114418884D01*
X84644798Y114418889D01*
X84585491Y114521611D01*
X84585490Y114521612D01*
X84585489Y114521614D01*
X84501613Y114605490D01*
X84501610Y114605492D01*
X84501609Y114605493D01*
X84398887Y114664800D01*
X84398882Y114664802D01*
X84284311Y114695501D01*
X84284309Y114695501D01*
X84165691Y114695501D01*
X84165689Y114695501D01*
X84051117Y114664802D01*
X84051112Y114664800D01*
X83948390Y114605493D01*
X83864508Y114521611D01*
X83805201Y114418889D01*
X83805199Y114418884D01*
X83774500Y114304313D01*
X83774500Y114185690D01*
X83805199Y114071119D01*
X83805201Y114071114D01*
X83864508Y113968392D01*
X83864509Y113968391D01*
X83864511Y113968388D01*
X83870098Y113962801D01*
X83891772Y113910476D01*
X83870098Y113858150D01*
X83817772Y113836476D01*
X83780772Y113846390D01*
X83748888Y113864798D01*
X83748882Y113864801D01*
X83634311Y113895500D01*
X83634309Y113895500D01*
X83515691Y113895500D01*
X83515689Y113895500D01*
X83401117Y113864801D01*
X83401114Y113864799D01*
X83369226Y113846389D01*
X83313073Y113838998D01*
X83268140Y113873477D01*
X83260749Y113929630D01*
X83279901Y113962801D01*
X83285489Y113968388D01*
X83344799Y114071115D01*
X83375499Y114185690D01*
X83375500Y114185690D01*
X83375500Y114304312D01*
X83375499Y114304313D01*
X83374160Y114309309D01*
X83349424Y114401626D01*
X83344800Y114418884D01*
X83344798Y114418889D01*
X83285491Y114521611D01*
X83285490Y114521612D01*
X83285489Y114521614D01*
X83201613Y114605490D01*
X83201610Y114605492D01*
X83201609Y114605493D01*
X83098887Y114664800D01*
X83098882Y114664802D01*
X82984311Y114695501D01*
X82984309Y114695501D01*
X82930122Y114695501D01*
X82877796Y114717175D01*
X81964911Y115630060D01*
X81896390Y115669621D01*
X81896385Y115669623D01*
X81819964Y115690100D01*
X81819962Y115690100D01*
X73323538Y115690100D01*
X73323536Y115690100D01*
X73247114Y115669623D01*
X73247109Y115669621D01*
X73178588Y115630060D01*
X70153317Y112604790D01*
X70100991Y112583116D01*
X70048665Y112604790D01*
X70036904Y112620118D01*
X70033791Y112625510D01*
X70033790Y112625511D01*
X70033789Y112625513D01*
X69949913Y112709389D01*
X69949910Y112709391D01*
X69949909Y112709392D01*
X69847187Y112768699D01*
X69847182Y112768701D01*
X69732611Y112799400D01*
X69732609Y112799400D01*
X69613991Y112799400D01*
X69613989Y112799400D01*
X69499417Y112768701D01*
X69499412Y112768699D01*
X69396690Y112709392D01*
X69312808Y112625510D01*
X69253501Y112522788D01*
X69253499Y112522783D01*
X69222800Y112408212D01*
X69222800Y112289589D01*
X69253499Y112175018D01*
X69253501Y112175013D01*
X69312808Y112072291D01*
X69312809Y112072290D01*
X69312811Y112072287D01*
X69396687Y111988411D01*
X69499414Y111929101D01*
X69547239Y111916287D01*
X69592170Y111881810D01*
X69599564Y111825657D01*
X69580411Y111792483D01*
X45588652Y87800724D01*
X45536326Y87779050D01*
X45484000Y87800724D01*
X45464848Y87833896D01*
X45459599Y87853486D01*
X45400289Y87956213D01*
X45361973Y87994529D01*
X45340300Y88046854D01*
X45340300Y97205578D01*
X45361973Y97257903D01*
X57313652Y109209583D01*
X57365977Y109231256D01*
X57418303Y109209582D01*
X57430062Y109194257D01*
X57460007Y109142392D01*
X57460009Y109142390D01*
X57460011Y109142387D01*
X57543887Y109058511D01*
X57543889Y109058510D01*
X57543890Y109058509D01*
X57646612Y108999202D01*
X57646614Y108999201D01*
X57646615Y108999201D01*
X57646617Y108999200D01*
X57703902Y108983851D01*
X57761188Y108968501D01*
X57761189Y108968500D01*
X57761191Y108968500D01*
X57879811Y108968500D01*
X57879811Y108968501D01*
X57994386Y108999201D01*
X58097113Y109058511D01*
X58135429Y109096827D01*
X58187754Y109118500D01*
X62893564Y109118500D01*
X62893564Y109118501D01*
X62969989Y109138979D01*
X63038511Y109178540D01*
X63094460Y109234489D01*
X71345861Y117485892D01*
X71398186Y117507565D01*
X71450512Y117485891D01*
X71462272Y117470565D01*
X71489508Y117423391D01*
X71489509Y117423390D01*
X71489511Y117423387D01*
X71573387Y117339511D01*
X71573389Y117339510D01*
X71573390Y117339509D01*
X71625694Y117309311D01*
X71676114Y117280201D01*
X71676115Y117280201D01*
X71676117Y117280200D01*
X71733402Y117264851D01*
X71790688Y117249501D01*
X71790689Y117249500D01*
X71790691Y117249500D01*
X71909311Y117249500D01*
X71909311Y117249501D01*
X72023886Y117280201D01*
X72126613Y117339511D01*
X72210489Y117423387D01*
X72269799Y117526114D01*
X72300499Y117640689D01*
X72300500Y117640689D01*
X72300500Y117759311D01*
X72300499Y117759312D01*
X72269800Y117873883D01*
X72269798Y117873888D01*
X72210491Y117976610D01*
X72210490Y117976611D01*
X72210489Y117976613D01*
X72126613Y118060489D01*
X72126610Y118060491D01*
X72126609Y118060492D01*
X72079435Y118087728D01*
X72044956Y118132662D01*
X72052349Y118188814D01*
X72064105Y118204136D01*
X72419281Y118559312D01*
X112324500Y118559312D01*
X112324500Y118440689D01*
X112355199Y118326118D01*
X112355201Y118326113D01*
X112414508Y118223391D01*
X112414509Y118223390D01*
X112414511Y118223387D01*
X112452826Y118185072D01*
X112474500Y118132747D01*
X112474500Y115867254D01*
X112452827Y115814929D01*
X112414508Y115776610D01*
X112355201Y115673888D01*
X112355199Y115673883D01*
X112324500Y115559312D01*
X112324500Y115440689D01*
X112355199Y115326118D01*
X112355201Y115326113D01*
X112414508Y115223391D01*
X112414509Y115223390D01*
X112414511Y115223387D01*
X112452826Y115185072D01*
X112474500Y115132747D01*
X112474500Y112867254D01*
X112452827Y112814929D01*
X112414508Y112776610D01*
X112355201Y112673888D01*
X112355199Y112673883D01*
X112324500Y112559312D01*
X112324500Y112440689D01*
X112355199Y112326118D01*
X112355201Y112326113D01*
X112414508Y112223391D01*
X112414509Y112223390D01*
X112414511Y112223387D01*
X112498387Y112139511D01*
X112601114Y112080201D01*
X112601115Y112080201D01*
X112601117Y112080200D01*
X112630634Y112072291D01*
X112715688Y112049501D01*
X112715689Y112049500D01*
X112715691Y112049500D01*
X112834311Y112049500D01*
X112834311Y112049501D01*
X112948886Y112080201D01*
X113051613Y112139511D01*
X113135489Y112223387D01*
X113194799Y112326114D01*
X113225499Y112440689D01*
X113225500Y112440689D01*
X113225500Y112559311D01*
X113225499Y112559312D01*
X113194800Y112673883D01*
X113194798Y112673888D01*
X113135491Y112776610D01*
X113135490Y112776611D01*
X113135489Y112776613D01*
X113097173Y112814929D01*
X113075500Y112867254D01*
X113075500Y114309312D01*
X115374500Y114309312D01*
X115374500Y114190689D01*
X115405199Y114076118D01*
X115405201Y114076113D01*
X115464508Y113973391D01*
X115464509Y113973390D01*
X115464511Y113973387D01*
X115548387Y113889511D01*
X115548389Y113889510D01*
X115548390Y113889509D01*
X115635877Y113838998D01*
X115651114Y113830201D01*
X115651115Y113830201D01*
X115651117Y113830200D01*
X115669770Y113825202D01*
X115765688Y113799501D01*
X115765689Y113799500D01*
X115765691Y113799500D01*
X115884311Y113799500D01*
X115884311Y113799501D01*
X115998886Y113830201D01*
X116101613Y113889511D01*
X116185489Y113973387D01*
X116244799Y114076114D01*
X116275499Y114190689D01*
X116275500Y114190689D01*
X116275500Y114309311D01*
X116275499Y114309312D01*
X116269943Y114330046D01*
X116246862Y114416186D01*
X116244800Y114423883D01*
X116244798Y114423888D01*
X116185491Y114526610D01*
X116185490Y114526611D01*
X116185489Y114526613D01*
X116101613Y114610489D01*
X116101610Y114610491D01*
X116101609Y114610492D01*
X115998887Y114669799D01*
X115998882Y114669801D01*
X115884311Y114700500D01*
X115884309Y114700500D01*
X115765691Y114700500D01*
X115765689Y114700500D01*
X115651117Y114669801D01*
X115651112Y114669799D01*
X115548390Y114610492D01*
X115464508Y114526610D01*
X115405201Y114423888D01*
X115405199Y114423883D01*
X115374500Y114309312D01*
X113075500Y114309312D01*
X113075500Y114859312D01*
X120774500Y114859312D01*
X120774500Y114740689D01*
X120805199Y114626118D01*
X120805201Y114626113D01*
X120864508Y114523391D01*
X120864509Y114523390D01*
X120864511Y114523387D01*
X120948387Y114439511D01*
X120948389Y114439510D01*
X120948390Y114439509D01*
X120989793Y114415605D01*
X121051114Y114380201D01*
X121051115Y114380201D01*
X121051117Y114380200D01*
X121108402Y114364851D01*
X121165688Y114349501D01*
X121165689Y114349500D01*
X121165691Y114349500D01*
X121284311Y114349500D01*
X121284311Y114349501D01*
X121398886Y114380201D01*
X121501613Y114439511D01*
X121585489Y114523387D01*
X121644799Y114626114D01*
X121675499Y114740689D01*
X121675500Y114740689D01*
X121675500Y114859311D01*
X121675499Y114859312D01*
X121644800Y114973883D01*
X121644798Y114973888D01*
X121585491Y115076610D01*
X121585490Y115076611D01*
X121585489Y115076613D01*
X121501613Y115160489D01*
X121501610Y115160491D01*
X121501609Y115160492D01*
X121398887Y115219799D01*
X121398882Y115219801D01*
X121284311Y115250500D01*
X121284309Y115250500D01*
X121165691Y115250500D01*
X121165689Y115250500D01*
X121051117Y115219801D01*
X121051112Y115219799D01*
X120948390Y115160492D01*
X120864508Y115076610D01*
X120805201Y114973888D01*
X120805199Y114973883D01*
X120774500Y114859312D01*
X113075500Y114859312D01*
X113075500Y115132747D01*
X113097173Y115185072D01*
X113135489Y115223387D01*
X113194799Y115326114D01*
X113225499Y115440689D01*
X113225500Y115440689D01*
X113225500Y115559311D01*
X113225499Y115559312D01*
X113194800Y115673883D01*
X113194798Y115673888D01*
X113135491Y115776610D01*
X113135490Y115776611D01*
X113135489Y115776613D01*
X113097173Y115814929D01*
X113075500Y115867254D01*
X113075500Y117309312D01*
X115374500Y117309312D01*
X115374500Y117190689D01*
X115405199Y117076118D01*
X115405201Y117076113D01*
X115464508Y116973391D01*
X115464509Y116973390D01*
X115464511Y116973387D01*
X115548387Y116889511D01*
X115651114Y116830201D01*
X115651115Y116830201D01*
X115651117Y116830200D01*
X115708402Y116814851D01*
X115765688Y116799501D01*
X115765689Y116799500D01*
X115765691Y116799500D01*
X115884311Y116799500D01*
X115884311Y116799501D01*
X115998886Y116830201D01*
X116101613Y116889511D01*
X116185489Y116973387D01*
X116244799Y117076114D01*
X116275499Y117190689D01*
X116275500Y117190689D01*
X116275500Y117309311D01*
X116275499Y117309312D01*
X116244800Y117423883D01*
X116244798Y117423888D01*
X116185491Y117526610D01*
X116185490Y117526611D01*
X116185489Y117526613D01*
X116101613Y117610489D01*
X116101610Y117610491D01*
X116101609Y117610492D01*
X115998887Y117669799D01*
X115998882Y117669801D01*
X115884311Y117700500D01*
X115884309Y117700500D01*
X115765691Y117700500D01*
X115765689Y117700500D01*
X115651117Y117669801D01*
X115651112Y117669799D01*
X115548390Y117610492D01*
X115464508Y117526610D01*
X115405201Y117423888D01*
X115405199Y117423883D01*
X115374500Y117309312D01*
X113075500Y117309312D01*
X113075500Y118132747D01*
X113097173Y118185072D01*
X113135489Y118223387D01*
X113194799Y118326114D01*
X113225499Y118440689D01*
X113225500Y118440689D01*
X113225500Y118559311D01*
X113225499Y118559312D01*
X113194800Y118673883D01*
X113194798Y118673888D01*
X113135491Y118776610D01*
X113135490Y118776611D01*
X113135489Y118776613D01*
X113051613Y118860489D01*
X113051610Y118860491D01*
X113051609Y118860492D01*
X112948887Y118919799D01*
X112948882Y118919801D01*
X112834311Y118950500D01*
X112834309Y118950500D01*
X112715691Y118950500D01*
X112715689Y118950500D01*
X112601117Y118919801D01*
X112601112Y118919799D01*
X112498390Y118860492D01*
X112414508Y118776610D01*
X112355201Y118673888D01*
X112355199Y118673883D01*
X112324500Y118559312D01*
X72419281Y118559312D01*
X73669281Y119809312D01*
X129724500Y119809312D01*
X129724500Y119690689D01*
X129755199Y119576118D01*
X129755201Y119576113D01*
X129814508Y119473391D01*
X129814509Y119473390D01*
X129814511Y119473387D01*
X129852826Y119435072D01*
X129874500Y119382747D01*
X129874500Y117117254D01*
X129852827Y117064929D01*
X129814508Y117026610D01*
X129755201Y116923888D01*
X129755199Y116923883D01*
X129724500Y116809312D01*
X129724500Y116690689D01*
X129755199Y116576118D01*
X129755201Y116576113D01*
X129814508Y116473391D01*
X129814509Y116473390D01*
X129814511Y116473387D01*
X129852826Y116435072D01*
X129874500Y116382747D01*
X129874500Y114117254D01*
X129852827Y114064929D01*
X129814508Y114026610D01*
X129755201Y113923888D01*
X129755199Y113923883D01*
X129724500Y113809312D01*
X129724500Y113690689D01*
X129755199Y113576118D01*
X129755201Y113576113D01*
X129814508Y113473391D01*
X129814509Y113473390D01*
X129814511Y113473387D01*
X129898387Y113389511D01*
X129898389Y113389510D01*
X129898390Y113389509D01*
X130001112Y113330202D01*
X130001114Y113330201D01*
X130001115Y113330201D01*
X130001117Y113330200D01*
X130058402Y113314851D01*
X130115688Y113299501D01*
X130115689Y113299500D01*
X130115691Y113299500D01*
X130169877Y113299500D01*
X130222203Y113277826D01*
X131902826Y111597203D01*
X131924500Y111544877D01*
X131924500Y80167254D01*
X131902827Y80114929D01*
X131864508Y80076610D01*
X131805201Y79973888D01*
X131805199Y79973883D01*
X131774500Y79859312D01*
X131774500Y79740689D01*
X131805199Y79626118D01*
X131805201Y79626113D01*
X131864508Y79523391D01*
X131864509Y79523390D01*
X131864511Y79523387D01*
X131948387Y79439511D01*
X131948389Y79439510D01*
X131948390Y79439509D01*
X131975450Y79423886D01*
X132051114Y79380201D01*
X132051115Y79380201D01*
X132051117Y79380200D01*
X132108402Y79364851D01*
X132165688Y79349501D01*
X132165689Y79349500D01*
X132165691Y79349500D01*
X132284311Y79349500D01*
X132284311Y79349501D01*
X132398886Y79380201D01*
X132501613Y79439511D01*
X132585489Y79523387D01*
X132644799Y79626114D01*
X132675499Y79740689D01*
X132675500Y79740689D01*
X132675500Y79859311D01*
X132675499Y79859312D01*
X132644800Y79973883D01*
X132644798Y79973888D01*
X132585491Y80076610D01*
X132585490Y80076611D01*
X132585489Y80076613D01*
X132547173Y80114929D01*
X132525500Y80167254D01*
X132525500Y111739564D01*
X132525499Y111739565D01*
X132505022Y111815986D01*
X132505020Y111815991D01*
X132465459Y111884512D01*
X131790659Y112559312D01*
X136637000Y112559312D01*
X136637000Y112440689D01*
X136667699Y112326118D01*
X136667701Y112326113D01*
X136727008Y112223391D01*
X136727009Y112223390D01*
X136727011Y112223387D01*
X136810887Y112139511D01*
X136913614Y112080201D01*
X136913615Y112080201D01*
X136913617Y112080200D01*
X136943134Y112072291D01*
X137028188Y112049501D01*
X137028189Y112049500D01*
X137028191Y112049500D01*
X137146811Y112049500D01*
X137146811Y112049501D01*
X137261386Y112080201D01*
X137364113Y112139511D01*
X137447989Y112223387D01*
X137507299Y112326114D01*
X137537999Y112440689D01*
X137538000Y112440689D01*
X137538000Y112559311D01*
X137537999Y112559312D01*
X137507300Y112673883D01*
X137507298Y112673888D01*
X137447991Y112776610D01*
X137447990Y112776611D01*
X137447989Y112776613D01*
X137364113Y112860489D01*
X137364110Y112860491D01*
X137364109Y112860492D01*
X137261387Y112919799D01*
X137261382Y112919801D01*
X137146811Y112950500D01*
X137146809Y112950500D01*
X137028191Y112950500D01*
X137028189Y112950500D01*
X136913617Y112919801D01*
X136913612Y112919799D01*
X136810890Y112860492D01*
X136727008Y112776610D01*
X136667701Y112673888D01*
X136667699Y112673883D01*
X136637000Y112559312D01*
X131790659Y112559312D01*
X130647174Y113702797D01*
X130625500Y113755123D01*
X130625500Y113809311D01*
X130625499Y113809312D01*
X130618220Y113836476D01*
X130594799Y113923886D01*
X130575450Y113957399D01*
X130535491Y114026610D01*
X130535490Y114026611D01*
X130535489Y114026613D01*
X130497173Y114064929D01*
X130475500Y114117254D01*
X130475500Y115559312D01*
X136637000Y115559312D01*
X136637000Y115440689D01*
X136667699Y115326118D01*
X136667701Y115326113D01*
X136727008Y115223391D01*
X136727009Y115223390D01*
X136727011Y115223387D01*
X136810887Y115139511D01*
X136810889Y115139510D01*
X136810890Y115139509D01*
X136913612Y115080202D01*
X136913614Y115080201D01*
X136913615Y115080201D01*
X136913617Y115080200D01*
X136961291Y115067426D01*
X137028188Y115049501D01*
X137028189Y115049500D01*
X137028191Y115049500D01*
X137146811Y115049500D01*
X137146811Y115049501D01*
X137261386Y115080201D01*
X137364113Y115139511D01*
X137447989Y115223387D01*
X137507299Y115326114D01*
X137537999Y115440689D01*
X137538000Y115440689D01*
X137538000Y115559311D01*
X137537999Y115559312D01*
X137507300Y115673883D01*
X137507298Y115673888D01*
X137447991Y115776610D01*
X137447990Y115776611D01*
X137447989Y115776613D01*
X137364113Y115860489D01*
X137364110Y115860491D01*
X137364109Y115860492D01*
X137261387Y115919799D01*
X137261382Y115919801D01*
X137146811Y115950500D01*
X137146809Y115950500D01*
X137028191Y115950500D01*
X137028189Y115950500D01*
X136913617Y115919801D01*
X136913612Y115919799D01*
X136810890Y115860492D01*
X136727008Y115776610D01*
X136667701Y115673888D01*
X136667699Y115673883D01*
X136637000Y115559312D01*
X130475500Y115559312D01*
X130475500Y116382747D01*
X130497173Y116435072D01*
X130535489Y116473387D01*
X130594799Y116576114D01*
X130625499Y116690689D01*
X130625500Y116690689D01*
X130625500Y116809311D01*
X130625499Y116809312D01*
X130594800Y116923883D01*
X130594798Y116923888D01*
X130535491Y117026610D01*
X130535490Y117026611D01*
X130535489Y117026613D01*
X130497173Y117064929D01*
X130475500Y117117254D01*
X130475500Y118559312D01*
X136637000Y118559312D01*
X136637000Y118440689D01*
X136667699Y118326118D01*
X136667701Y118326113D01*
X136727008Y118223391D01*
X136727009Y118223390D01*
X136727011Y118223387D01*
X136810887Y118139511D01*
X136810889Y118139510D01*
X136810890Y118139509D01*
X136900577Y118087728D01*
X136913614Y118080201D01*
X136913615Y118080201D01*
X136913617Y118080200D01*
X136970902Y118064851D01*
X137028188Y118049501D01*
X137028189Y118049500D01*
X137028191Y118049500D01*
X137146811Y118049500D01*
X137146811Y118049501D01*
X137261386Y118080201D01*
X137364113Y118139511D01*
X137447989Y118223387D01*
X137507299Y118326114D01*
X137537999Y118440689D01*
X137538000Y118440689D01*
X137538000Y118559311D01*
X137537999Y118559312D01*
X137507300Y118673883D01*
X137507298Y118673888D01*
X137447991Y118776610D01*
X137447990Y118776611D01*
X137447989Y118776613D01*
X137364113Y118860489D01*
X137364110Y118860491D01*
X137364109Y118860492D01*
X137261387Y118919799D01*
X137261382Y118919801D01*
X137146811Y118950500D01*
X137146809Y118950500D01*
X137028191Y118950500D01*
X137028189Y118950500D01*
X136913617Y118919801D01*
X136913612Y118919799D01*
X136810890Y118860492D01*
X136727008Y118776610D01*
X136667701Y118673888D01*
X136667699Y118673883D01*
X136637000Y118559312D01*
X130475500Y118559312D01*
X130475500Y119382747D01*
X130497173Y119435072D01*
X130535489Y119473387D01*
X130594799Y119576114D01*
X130625499Y119690689D01*
X130625500Y119690689D01*
X130625500Y119809311D01*
X130625499Y119809312D01*
X130594800Y119923883D01*
X130594798Y119923888D01*
X130535491Y120026610D01*
X130535490Y120026611D01*
X130535489Y120026613D01*
X130451613Y120110489D01*
X130451610Y120110491D01*
X130451609Y120110492D01*
X130348887Y120169799D01*
X130348882Y120169801D01*
X130234311Y120200500D01*
X130234309Y120200500D01*
X130115691Y120200500D01*
X130115689Y120200500D01*
X130001117Y120169801D01*
X130001112Y120169799D01*
X129898390Y120110492D01*
X129814508Y120026610D01*
X129755201Y119923888D01*
X129755199Y119923883D01*
X129724500Y119809312D01*
X73669281Y119809312D01*
X75619282Y121759312D01*
X83349500Y121759312D01*
X83349500Y121640689D01*
X83380199Y121526118D01*
X83380201Y121526113D01*
X83439508Y121423391D01*
X83439509Y121423390D01*
X83439511Y121423387D01*
X83523387Y121339511D01*
X83626114Y121280201D01*
X83626115Y121280201D01*
X83626117Y121280200D01*
X83683402Y121264851D01*
X83740688Y121249501D01*
X83740689Y121249500D01*
X83740691Y121249500D01*
X83859311Y121249500D01*
X83859311Y121249501D01*
X83973886Y121280201D01*
X84076613Y121339511D01*
X84160489Y121423387D01*
X84219799Y121526114D01*
X84250499Y121640689D01*
X84250500Y121640689D01*
X84250500Y121759311D01*
X84250499Y121759312D01*
X84219800Y121873883D01*
X84219798Y121873888D01*
X84160491Y121976610D01*
X84160490Y121976611D01*
X84160489Y121976613D01*
X84076613Y122060489D01*
X84076610Y122060491D01*
X84076609Y122060492D01*
X83973887Y122119799D01*
X83973882Y122119801D01*
X83859311Y122150500D01*
X83859309Y122150500D01*
X83740691Y122150500D01*
X83740689Y122150500D01*
X83626117Y122119801D01*
X83626112Y122119799D01*
X83523390Y122060492D01*
X83439508Y121976610D01*
X83380201Y121873888D01*
X83380199Y121873883D01*
X83349500Y121759312D01*
X75619282Y121759312D01*
X77431260Y123571289D01*
X77470359Y123639011D01*
X77470821Y123639811D01*
X77491299Y123716236D01*
X77491300Y123716236D01*
X77491300Y123818977D01*
X77512974Y123871303D01*
X77566097Y123924426D01*
X77618423Y123946100D01*
X77803477Y123946100D01*
X77855803Y123924426D01*
X77982589Y123797640D01*
X78051112Y123758078D01*
X78127538Y123737600D01*
X78127540Y123737600D01*
X78622764Y123737600D01*
X78622764Y123737601D01*
X78699189Y123758079D01*
X78767711Y123797640D01*
X78823660Y123853589D01*
X79202897Y124232826D01*
X79255223Y124254500D01*
X79307746Y124254500D01*
X79360071Y124232827D01*
X79398387Y124194511D01*
X79398389Y124194510D01*
X79398390Y124194509D01*
X79501112Y124135202D01*
X79501114Y124135201D01*
X79501115Y124135201D01*
X79501117Y124135200D01*
X79533493Y124126525D01*
X79615688Y124104501D01*
X79615689Y124104500D01*
X79615691Y124104500D01*
X79734311Y124104500D01*
X79734311Y124104501D01*
X79848886Y124135201D01*
X79951613Y124194511D01*
X80035489Y124278387D01*
X80094799Y124381114D01*
X80125499Y124495689D01*
X80125500Y124495689D01*
X80125500Y124614311D01*
X80125499Y124614312D01*
X80094800Y124728883D01*
X80094798Y124728888D01*
X80035491Y124831610D01*
X80035490Y124831611D01*
X80035489Y124831613D01*
X79951613Y124915489D01*
X79951610Y124915491D01*
X79951609Y124915492D01*
X79848887Y124974799D01*
X79848882Y124974801D01*
X79734311Y125005500D01*
X79734309Y125005500D01*
X79615691Y125005500D01*
X79615689Y125005500D01*
X79501117Y124974801D01*
X79501112Y124974799D01*
X79398390Y124915492D01*
X79360071Y124877173D01*
X79307746Y124855500D01*
X79060536Y124855500D01*
X78984114Y124835023D01*
X78984109Y124835021D01*
X78950239Y124815465D01*
X78915586Y124795459D01*
X78915585Y124795458D01*
X78882833Y124762707D01*
X78830507Y124741034D01*
X78778182Y124762710D01*
X78766423Y124778034D01*
X78735491Y124831610D01*
X78735490Y124831611D01*
X78735489Y124831613D01*
X78651613Y124915489D01*
X78651610Y124915491D01*
X78651609Y124915492D01*
X78548887Y124974799D01*
X78548882Y124974801D01*
X78434311Y125005500D01*
X78434309Y125005500D01*
X78380123Y125005500D01*
X78327797Y125027174D01*
X76986711Y126368260D01*
X76918190Y126407821D01*
X76918185Y126407823D01*
X76841764Y126428300D01*
X76841762Y126428300D01*
X59786538Y126428300D01*
X59786536Y126428300D01*
X59710114Y126407823D01*
X59710109Y126407821D01*
X59641588Y126368260D01*
X9845503Y76572174D01*
X9793177Y76550500D01*
X6192254Y76550500D01*
X6139929Y76572173D01*
X6139928Y76572174D01*
X6101613Y76610489D01*
X6101610Y76610491D01*
X6101609Y76610492D01*
X5998887Y76669799D01*
X5998882Y76669801D01*
X5884311Y76700500D01*
X5884309Y76700500D01*
X5765691Y76700500D01*
X5765689Y76700500D01*
X5651117Y76669801D01*
X5651112Y76669799D01*
X5548390Y76610492D01*
X5464508Y76526610D01*
X5405201Y76423888D01*
X5405199Y76423883D01*
X5374500Y76309312D01*
X5374500Y76190689D01*
X5405199Y76076118D01*
X5405201Y76076113D01*
X5464508Y75973391D01*
X5464509Y75973390D01*
X5464511Y75973387D01*
X5548387Y75889511D01*
X5651114Y75830201D01*
X5651115Y75830201D01*
X5651117Y75830200D01*
X5652140Y75829926D01*
X5765688Y75799501D01*
X5765689Y75799500D01*
X5765691Y75799500D01*
X5884311Y75799500D01*
X5884311Y75799501D01*
X5998886Y75830201D01*
X6101613Y75889511D01*
X6139929Y75927827D01*
X6192254Y75949500D01*
X9987864Y75949500D01*
X9987864Y75949501D01*
X10064289Y75969979D01*
X10132811Y76009540D01*
X10188760Y76065489D01*
X59928897Y125805626D01*
X59981223Y125827300D01*
X60935677Y125827300D01*
X60988003Y125805626D01*
X61009677Y125753300D01*
X60988003Y125700974D01*
X60242193Y124955166D01*
X60189867Y124933492D01*
X60137541Y124955166D01*
X60125781Y124970491D01*
X60112490Y124993511D01*
X60112489Y124993513D01*
X60028613Y125077389D01*
X60028610Y125077391D01*
X60028609Y125077392D01*
X59925887Y125136699D01*
X59925882Y125136701D01*
X59811311Y125167400D01*
X59811309Y125167400D01*
X59692691Y125167400D01*
X59692689Y125167400D01*
X59578117Y125136701D01*
X59578112Y125136699D01*
X59475390Y125077392D01*
X59391508Y124993510D01*
X59332201Y124890788D01*
X59332199Y124890783D01*
X59301500Y124776212D01*
X59301500Y124722023D01*
X59279826Y124669697D01*
X8182303Y73572174D01*
X8129977Y73550500D01*
X6192254Y73550500D01*
X6139929Y73572173D01*
X6133131Y73578971D01*
X6101613Y73610489D01*
X6101610Y73610491D01*
X6101609Y73610492D01*
X5998887Y73669799D01*
X5998882Y73669801D01*
X5884311Y73700500D01*
X5884309Y73700500D01*
X5765691Y73700500D01*
X5765689Y73700500D01*
X5651117Y73669801D01*
X5651112Y73669799D01*
X5548390Y73610492D01*
X5464508Y73526610D01*
X5405201Y73423888D01*
X5405199Y73423883D01*
X5374500Y73309312D01*
X5374500Y73190689D01*
X5405199Y73076118D01*
X5405201Y73076113D01*
X5464508Y72973391D01*
X5464509Y72973390D01*
X5464511Y72973387D01*
X5548387Y72889511D01*
X5548389Y72889510D01*
X5548390Y72889509D01*
X5651112Y72830202D01*
X5651114Y72830201D01*
X5651115Y72830201D01*
X5651117Y72830200D01*
X5652140Y72829926D01*
X5765688Y72799501D01*
X5765689Y72799500D01*
X5765691Y72799500D01*
X5884311Y72799500D01*
X5884311Y72799501D01*
X5998886Y72830201D01*
X6101613Y72889511D01*
X6139929Y72927827D01*
X6192254Y72949500D01*
X8057877Y72949500D01*
X8110203Y72927826D01*
X8131877Y72875500D01*
X8110203Y72823174D01*
X5995925Y70708898D01*
X5943599Y70687224D01*
X5924447Y70689745D01*
X5884309Y70700500D01*
X5765691Y70700500D01*
X5765689Y70700500D01*
X5651117Y70669801D01*
X5651112Y70669799D01*
X5548390Y70610492D01*
X5464508Y70526610D01*
X5405201Y70423888D01*
X5405199Y70423883D01*
X5374500Y70309312D01*
X5374500Y70190689D01*
X5405199Y70076118D01*
X5405201Y70076113D01*
X5464508Y69973391D01*
X5464509Y69973390D01*
X5464511Y69973387D01*
X5548387Y69889511D01*
X5651114Y69830201D01*
X5651115Y69830201D01*
X5651117Y69830200D01*
X5708402Y69814851D01*
X5765688Y69799501D01*
X5765689Y69799500D01*
X5765691Y69799500D01*
X5884311Y69799500D01*
X5884311Y69799501D01*
X5998886Y69830201D01*
X6101613Y69889511D01*
X6185489Y69973387D01*
X6244799Y70076114D01*
X6251275Y70100286D01*
X6270425Y70133456D01*
X61601897Y125464926D01*
X61654223Y125486600D01*
X63457977Y125486600D01*
X63510303Y125464926D01*
X63531977Y125412600D01*
X63510303Y125360274D01*
X5872203Y67722174D01*
X5819877Y67700500D01*
X5765689Y67700500D01*
X5651117Y67669801D01*
X5651112Y67669799D01*
X5548390Y67610492D01*
X5464508Y67526610D01*
X5405201Y67423888D01*
X5405199Y67423883D01*
X5374500Y67309312D01*
X5374500Y67190689D01*
X5405199Y67076118D01*
X5405201Y67076113D01*
X5464508Y66973391D01*
X5464509Y66973390D01*
X5464511Y66973387D01*
X5548387Y66889511D01*
X5548389Y66889510D01*
X5548390Y66889509D01*
X5651112Y66830202D01*
X5651114Y66830201D01*
X5651115Y66830201D01*
X5651117Y66830200D01*
X5691110Y66819484D01*
X5765688Y66799501D01*
X5765689Y66799500D01*
X5765691Y66799500D01*
X5884311Y66799500D01*
X5884311Y66799501D01*
X5998886Y66830201D01*
X6101613Y66889511D01*
X6185489Y66973387D01*
X6244799Y67076114D01*
X6275499Y67190689D01*
X6275500Y67190689D01*
X6275500Y67244877D01*
X6297174Y67297203D01*
X64078197Y125078226D01*
X64130523Y125099900D01*
X66597977Y125099900D01*
X66650303Y125078226D01*
X66671977Y125025900D01*
X66650303Y124973574D01*
X6248903Y64572174D01*
X6196577Y64550500D01*
X6192254Y64550500D01*
X6139929Y64572173D01*
X6139928Y64572174D01*
X6101613Y64610489D01*
X6101610Y64610491D01*
X6101609Y64610492D01*
X5998887Y64669799D01*
X5998882Y64669801D01*
X5884311Y64700500D01*
X5884309Y64700500D01*
X5765691Y64700500D01*
X5765689Y64700500D01*
X5651117Y64669801D01*
X5651112Y64669799D01*
X5548390Y64610492D01*
X5464508Y64526610D01*
X5405201Y64423888D01*
X5405199Y64423883D01*
X5374500Y64309312D01*
X5374500Y64190689D01*
X5405199Y64076118D01*
X5405201Y64076113D01*
X5464508Y63973391D01*
X5464509Y63973390D01*
X5464511Y63973387D01*
X5548387Y63889511D01*
X5548389Y63889510D01*
X5548390Y63889509D01*
X5651112Y63830202D01*
X5651114Y63830201D01*
X5651115Y63830201D01*
X5651117Y63830200D01*
X5677339Y63823174D01*
X5765688Y63799501D01*
X5765689Y63799500D01*
X5765691Y63799500D01*
X5884311Y63799500D01*
X5884311Y63799501D01*
X5998886Y63830201D01*
X6101613Y63889511D01*
X6139929Y63927827D01*
X6192254Y63949500D01*
X6256476Y63949500D01*
X6308802Y63927826D01*
X6330476Y63875500D01*
X6308802Y63823174D01*
X5640489Y63154860D01*
X5584540Y63098912D01*
X5544979Y63030391D01*
X5544977Y63030386D01*
X5524500Y62953965D01*
X5524500Y61617254D01*
X5502827Y61564929D01*
X5464508Y61526610D01*
X5405201Y61423888D01*
X5405199Y61423883D01*
X5374500Y61309312D01*
X5374500Y61190689D01*
X5405199Y61076118D01*
X5405201Y61076113D01*
X5464508Y60973391D01*
X5464509Y60973390D01*
X5464511Y60973387D01*
X5548387Y60889511D01*
X5548389Y60889510D01*
X5548390Y60889509D01*
X5651112Y60830202D01*
X5651114Y60830201D01*
X5651115Y60830201D01*
X5651117Y60830200D01*
X5708402Y60814851D01*
X5765688Y60799501D01*
X5765689Y60799500D01*
X5765691Y60799500D01*
X5884311Y60799500D01*
X5884311Y60799501D01*
X5998886Y60830201D01*
X6101613Y60889511D01*
X6185489Y60973387D01*
X6244799Y61076114D01*
X6275499Y61190689D01*
X6275500Y61190689D01*
X6275500Y61309311D01*
X6275499Y61309312D01*
X6244800Y61423883D01*
X6244798Y61423888D01*
X6185491Y61526610D01*
X6185490Y61526611D01*
X6185489Y61526613D01*
X6147173Y61564929D01*
X6125500Y61617254D01*
X6125500Y62759277D01*
X6147174Y62811603D01*
X39756774Y96421203D01*
X39809100Y96442877D01*
X39861426Y96421203D01*
X39883100Y96368877D01*
X39883100Y85774023D01*
X39861426Y85721697D01*
X5584540Y51444812D01*
X5544979Y51376291D01*
X5544977Y51376286D01*
X5524500Y51299865D01*
X5524500Y41617254D01*
X5502827Y41564929D01*
X5464508Y41526610D01*
X5405201Y41423888D01*
X5405199Y41423883D01*
X5374500Y41309312D01*
X5374500Y41190689D01*
X5405199Y41076118D01*
X5405201Y41076113D01*
X5464508Y40973391D01*
X5464509Y40973390D01*
X5464511Y40973387D01*
X5548387Y40889511D01*
X5651114Y40830201D01*
X5651115Y40830201D01*
X5651117Y40830200D01*
X5675618Y40823635D01*
X5765688Y40799501D01*
X5765689Y40799500D01*
X5765691Y40799500D01*
X5884311Y40799500D01*
X5884311Y40799501D01*
X5998886Y40830201D01*
X6101613Y40889511D01*
X6185489Y40973387D01*
X6244799Y41076114D01*
X6275499Y41190689D01*
X6275500Y41190689D01*
X6275500Y41309311D01*
X6275499Y41309312D01*
X6244800Y41423883D01*
X6244798Y41423888D01*
X6185491Y41526610D01*
X6185490Y41526611D01*
X6185489Y41526613D01*
X6147173Y41564929D01*
X6125500Y41617254D01*
X6125500Y51105177D01*
X6147174Y51157503D01*
X23199648Y68209977D01*
X40424060Y85434389D01*
X40463621Y85502911D01*
X40484099Y85579336D01*
X40484100Y85579336D01*
X40484100Y96387077D01*
X40505774Y96439403D01*
X40602674Y96536303D01*
X40655000Y96557977D01*
X40707326Y96536303D01*
X40729000Y96483977D01*
X40729000Y73609623D01*
X40707326Y73557297D01*
X5872203Y38722174D01*
X5819877Y38700500D01*
X5765689Y38700500D01*
X5651117Y38669801D01*
X5651112Y38669799D01*
X5548390Y38610492D01*
X5464508Y38526610D01*
X5405201Y38423888D01*
X5405199Y38423883D01*
X5374500Y38309312D01*
X5374500Y38190689D01*
X5405199Y38076118D01*
X5405201Y38076113D01*
X5464508Y37973391D01*
X5464509Y37973390D01*
X5464511Y37973387D01*
X5548387Y37889511D01*
X5548389Y37889510D01*
X5548390Y37889509D01*
X5651112Y37830202D01*
X5651114Y37830201D01*
X5651115Y37830201D01*
X5651117Y37830200D01*
X5708402Y37814851D01*
X5765688Y37799501D01*
X5765689Y37799500D01*
X5765691Y37799500D01*
X5884311Y37799500D01*
X5884311Y37799501D01*
X5998886Y37830201D01*
X6101613Y37889511D01*
X6185489Y37973387D01*
X6244799Y38076114D01*
X6275499Y38190689D01*
X6275500Y38190689D01*
X6275500Y38244877D01*
X6297174Y38297203D01*
X20205094Y52205123D01*
X41269960Y73269989D01*
X41292661Y73309309D01*
X41309521Y73338511D01*
X41329999Y73414936D01*
X41330000Y73414936D01*
X41330000Y75073709D01*
X41351674Y75126035D01*
X41404000Y75147709D01*
X41441001Y75137794D01*
X41469910Y75121103D01*
X41469912Y75121103D01*
X41469914Y75121101D01*
X41469915Y75121101D01*
X41469917Y75121100D01*
X41527202Y75105751D01*
X41584488Y75090401D01*
X41584489Y75090400D01*
X41584491Y75090400D01*
X41703111Y75090400D01*
X41703111Y75090401D01*
X41817686Y75121101D01*
X41817688Y75121103D01*
X41817690Y75121103D01*
X41856399Y75143452D01*
X41912552Y75150846D01*
X41957485Y75116368D01*
X41967400Y75079367D01*
X41967400Y72696823D01*
X41945726Y72644497D01*
X5104540Y35803312D01*
X5064979Y35734791D01*
X5064977Y35734786D01*
X5044500Y35658365D01*
X500000Y35658365D01*
X500000Y79309312D01*
X5374500Y79309312D01*
X5374500Y79190689D01*
X5405199Y79076118D01*
X5405201Y79076113D01*
X5464508Y78973391D01*
X5464509Y78973390D01*
X5464511Y78973387D01*
X5548387Y78889511D01*
X5651114Y78830201D01*
X5651115Y78830201D01*
X5651117Y78830200D01*
X5708402Y78814851D01*
X5765688Y78799501D01*
X5765689Y78799500D01*
X5765691Y78799500D01*
X5884311Y78799500D01*
X5884311Y78799501D01*
X5998886Y78830201D01*
X6101613Y78889511D01*
X6185489Y78973387D01*
X6244799Y79076114D01*
X6275499Y79190689D01*
X6275500Y79190689D01*
X6275500Y79244877D01*
X6297174Y79297203D01*
X6859283Y79859312D01*
X10774500Y79859312D01*
X10774500Y79740689D01*
X10805199Y79626118D01*
X10805201Y79626113D01*
X10864508Y79523391D01*
X10864509Y79523390D01*
X10864511Y79523387D01*
X10948387Y79439511D01*
X10948389Y79439510D01*
X10948390Y79439509D01*
X10975450Y79423886D01*
X11051114Y79380201D01*
X11051115Y79380201D01*
X11051117Y79380200D01*
X11108402Y79364851D01*
X11165688Y79349501D01*
X11165689Y79349500D01*
X11165691Y79349500D01*
X11284311Y79349500D01*
X11284311Y79349501D01*
X11398886Y79380201D01*
X11501613Y79439511D01*
X11585489Y79523387D01*
X11644799Y79626114D01*
X11675499Y79740689D01*
X11675500Y79740689D01*
X11675500Y79859311D01*
X11675499Y79859312D01*
X11644800Y79973883D01*
X11644798Y79973888D01*
X11585491Y80076610D01*
X11585490Y80076611D01*
X11585489Y80076613D01*
X11501613Y80160489D01*
X11501610Y80160491D01*
X11501609Y80160492D01*
X11398887Y80219799D01*
X11398882Y80219801D01*
X11284311Y80250500D01*
X11284309Y80250500D01*
X11165691Y80250500D01*
X11165689Y80250500D01*
X11051117Y80219801D01*
X11051112Y80219799D01*
X10948390Y80160492D01*
X10864508Y80076610D01*
X10805201Y79973888D01*
X10805199Y79973883D01*
X10774500Y79859312D01*
X6859283Y79859312D01*
X6916456Y79916485D01*
X25419471Y98419500D01*
X43935760Y116935789D01*
X43967324Y116990460D01*
X43975321Y117004311D01*
X43995799Y117080736D01*
X43995800Y117080736D01*
X43995800Y118064068D01*
X47749500Y118064068D01*
X47749500Y117935933D01*
X47774497Y117810261D01*
X47774498Y117810258D01*
X47819961Y117700500D01*
X47823535Y117691873D01*
X47894724Y117585331D01*
X47985331Y117494724D01*
X48091873Y117423535D01*
X48210256Y117374499D01*
X48210258Y117374499D01*
X48210260Y117374498D01*
X48252903Y117366016D01*
X48335931Y117349500D01*
X48335933Y117349500D01*
X48464067Y117349500D01*
X48464069Y117349500D01*
X48589744Y117374499D01*
X48708127Y117423535D01*
X48814669Y117494724D01*
X48905276Y117585331D01*
X48976465Y117691873D01*
X49025501Y117810256D01*
X49050500Y117935931D01*
X49050500Y118064069D01*
X49025501Y118189744D01*
X48976465Y118308127D01*
X48905276Y118414669D01*
X48814669Y118505276D01*
X48708127Y118576465D01*
X48708124Y118576467D01*
X48708123Y118576467D01*
X48589742Y118625502D01*
X48589739Y118625503D01*
X48499696Y118643414D01*
X48464069Y118650500D01*
X48335931Y118650500D01*
X48304726Y118644293D01*
X48210260Y118625503D01*
X48210257Y118625502D01*
X48091876Y118576467D01*
X47985331Y118505277D01*
X47985330Y118505275D01*
X47894725Y118414670D01*
X47894723Y118414669D01*
X47823533Y118308124D01*
X47774498Y118189743D01*
X47774497Y118189740D01*
X47749500Y118064068D01*
X43995800Y118064068D01*
X43995800Y121357247D01*
X44017473Y121409572D01*
X44055789Y121447887D01*
X44115099Y121550614D01*
X44145799Y121665189D01*
X44145800Y121665189D01*
X44145800Y121783811D01*
X44145799Y121783812D01*
X44115100Y121898383D01*
X44115098Y121898388D01*
X44055791Y122001110D01*
X44055790Y122001111D01*
X44055789Y122001113D01*
X43971913Y122084989D01*
X43971910Y122084991D01*
X43971909Y122084992D01*
X43869187Y122144299D01*
X43869182Y122144301D01*
X43754611Y122175000D01*
X43754609Y122175000D01*
X43635991Y122175000D01*
X43635989Y122175000D01*
X43521417Y122144301D01*
X43521412Y122144299D01*
X43418690Y122084992D01*
X43334808Y122001110D01*
X43275501Y121898388D01*
X43275499Y121898383D01*
X43244800Y121783812D01*
X43244800Y121665189D01*
X43275499Y121550618D01*
X43275501Y121550613D01*
X43334808Y121447891D01*
X43334809Y121447890D01*
X43334811Y121447887D01*
X43373126Y121409572D01*
X43394800Y121357247D01*
X43394800Y117275423D01*
X43373126Y117223097D01*
X5872203Y79722174D01*
X5819877Y79700500D01*
X5765689Y79700500D01*
X5651117Y79669801D01*
X5651112Y79669799D01*
X5548390Y79610492D01*
X5464508Y79526610D01*
X5405201Y79423888D01*
X5405199Y79423883D01*
X5374500Y79309312D01*
X500000Y79309312D01*
X500000Y80559312D01*
X2324500Y80559312D01*
X2324500Y80440689D01*
X2355199Y80326118D01*
X2355201Y80326113D01*
X2414508Y80223391D01*
X2414509Y80223390D01*
X2414511Y80223387D01*
X2498387Y80139511D01*
X2601114Y80080201D01*
X2601115Y80080201D01*
X2601117Y80080200D01*
X2658402Y80064851D01*
X2715688Y80049501D01*
X2715689Y80049500D01*
X2715691Y80049500D01*
X2834311Y80049500D01*
X2834311Y80049501D01*
X2948886Y80080201D01*
X3051613Y80139511D01*
X3135489Y80223387D01*
X3194799Y80326114D01*
X3225499Y80440689D01*
X3225500Y80440689D01*
X3225500Y80559311D01*
X3225499Y80559312D01*
X3194800Y80673883D01*
X3194798Y80673888D01*
X3135491Y80776610D01*
X3135490Y80776611D01*
X3135489Y80776613D01*
X3051613Y80860489D01*
X3051610Y80860491D01*
X3051609Y80860492D01*
X2948887Y80919799D01*
X2948882Y80919801D01*
X2834311Y80950500D01*
X2834309Y80950500D01*
X2715691Y80950500D01*
X2715689Y80950500D01*
X2601117Y80919801D01*
X2601112Y80919799D01*
X2498390Y80860492D01*
X2414508Y80776610D01*
X2355201Y80673888D01*
X2355199Y80673883D01*
X2324500Y80559312D01*
X500000Y80559312D01*
X500000Y118064068D01*
X40949500Y118064068D01*
X40949500Y117935933D01*
X40974497Y117810261D01*
X40974498Y117810258D01*
X41019961Y117700500D01*
X41023535Y117691873D01*
X41094724Y117585331D01*
X41185331Y117494724D01*
X41291873Y117423535D01*
X41410256Y117374499D01*
X41410258Y117374499D01*
X41410260Y117374498D01*
X41452903Y117366016D01*
X41535931Y117349500D01*
X41535933Y117349500D01*
X41664067Y117349500D01*
X41664069Y117349500D01*
X41789744Y117374499D01*
X41908127Y117423535D01*
X42014669Y117494724D01*
X42105276Y117585331D01*
X42176465Y117691873D01*
X42225501Y117810256D01*
X42250500Y117935931D01*
X42250500Y118064069D01*
X42225501Y118189744D01*
X42176465Y118308127D01*
X42105276Y118414669D01*
X42014669Y118505276D01*
X41908127Y118576465D01*
X41908124Y118576467D01*
X41908123Y118576467D01*
X41789742Y118625502D01*
X41789739Y118625503D01*
X41699696Y118643414D01*
X41664069Y118650500D01*
X41535931Y118650500D01*
X41504726Y118644293D01*
X41410260Y118625503D01*
X41410257Y118625502D01*
X41291876Y118576467D01*
X41185331Y118505277D01*
X41185330Y118505275D01*
X41094725Y118414670D01*
X41094723Y118414669D01*
X41023533Y118308124D01*
X40974498Y118189743D01*
X40974497Y118189740D01*
X40949500Y118064068D01*
X500000Y118064068D01*
X500000Y130407612D01*
X49549500Y130407612D01*
X49549500Y130288989D01*
X49580199Y130174418D01*
X49580201Y130174413D01*
X49639508Y130071691D01*
X49639509Y130071690D01*
X49639511Y130071687D01*
X49723387Y129987811D01*
X49826114Y129928501D01*
X49826115Y129928501D01*
X49826117Y129928500D01*
X49883402Y129913151D01*
X49940688Y129897801D01*
X49940689Y129897800D01*
X49940691Y129897800D01*
X50059311Y129897800D01*
X50059311Y129897801D01*
X50173886Y129928501D01*
X50276613Y129987811D01*
X50360489Y130071687D01*
X50419799Y130174414D01*
X50450499Y130288989D01*
X50450500Y130288989D01*
X50450500Y130407611D01*
X50450499Y130407612D01*
X50419800Y130522183D01*
X50419798Y130522188D01*
X50360491Y130624910D01*
X50360490Y130624911D01*
X50360489Y130624913D01*
X50276613Y130708789D01*
X50276610Y130708791D01*
X50276609Y130708792D01*
X50173887Y130768099D01*
X50173882Y130768101D01*
X50059311Y130798800D01*
X50059309Y130798800D01*
X49940691Y130798800D01*
X49940689Y130798800D01*
X49826117Y130768101D01*
X49826112Y130768099D01*
X49723390Y130708792D01*
X49639508Y130624910D01*
X49580201Y130522188D01*
X49580199Y130522183D01*
X49549500Y130407612D01*
X500000Y130407612D01*
X500000Y131559312D01*
X67949500Y131559312D01*
X67949500Y131440689D01*
X67980199Y131326118D01*
X67980201Y131326113D01*
X68039508Y131223391D01*
X68039509Y131223390D01*
X68039511Y131223387D01*
X68123387Y131139511D01*
X68226114Y131080201D01*
X68226115Y131080201D01*
X68226117Y131080200D01*
X68283402Y131064851D01*
X68340688Y131049501D01*
X68340689Y131049500D01*
X68340691Y131049500D01*
X68459311Y131049500D01*
X68459311Y131049501D01*
X68573886Y131080201D01*
X68676613Y131139511D01*
X68760489Y131223387D01*
X68819799Y131326114D01*
X68850499Y131440689D01*
X68850500Y131440689D01*
X68850500Y131559311D01*
X68850499Y131559312D01*
X68819800Y131673883D01*
X68819798Y131673888D01*
X68760491Y131776610D01*
X68760490Y131776611D01*
X68760489Y131776613D01*
X68676613Y131860489D01*
X68676610Y131860491D01*
X68676609Y131860492D01*
X68573887Y131919799D01*
X68573882Y131919801D01*
X68459311Y131950500D01*
X68459309Y131950500D01*
X68340691Y131950500D01*
X68340689Y131950500D01*
X68226117Y131919801D01*
X68226112Y131919799D01*
X68123390Y131860492D01*
X68039508Y131776610D01*
X67980201Y131673888D01*
X67980199Y131673883D01*
X67949500Y131559312D01*
X500000Y131559312D01*
X500000Y133284312D01*
X65049500Y133284312D01*
X65049500Y133165689D01*
X65080199Y133051118D01*
X65080201Y133051113D01*
X65139508Y132948391D01*
X65139509Y132948390D01*
X65139511Y132948387D01*
X65223387Y132864511D01*
X65326114Y132805201D01*
X65326115Y132805201D01*
X65326117Y132805200D01*
X65383402Y132789851D01*
X65440688Y132774501D01*
X65440689Y132774500D01*
X65440691Y132774500D01*
X65559311Y132774500D01*
X65559311Y132774501D01*
X65673886Y132805201D01*
X65776613Y132864511D01*
X65860489Y132948387D01*
X65919799Y133051114D01*
X65950499Y133165689D01*
X65950500Y133165689D01*
X65950500Y133284311D01*
X65950499Y133284312D01*
X65946049Y133300918D01*
X65919799Y133398886D01*
X65910212Y133415491D01*
X65881998Y133464359D01*
X65863434Y133496512D01*
X77077100Y133496512D01*
X77077100Y133377889D01*
X77107799Y133263318D01*
X77107801Y133263313D01*
X77167108Y133160591D01*
X77167109Y133160590D01*
X77167111Y133160587D01*
X77250987Y133076711D01*
X77250989Y133076710D01*
X77250990Y133076709D01*
X77353712Y133017402D01*
X77353714Y133017401D01*
X77353715Y133017401D01*
X77353717Y133017400D01*
X77411002Y133002051D01*
X77468288Y132986701D01*
X77468289Y132986700D01*
X77468291Y132986700D01*
X77586911Y132986700D01*
X77586911Y132986701D01*
X77701486Y133017401D01*
X77804213Y133076711D01*
X77888089Y133160587D01*
X77947399Y133263314D01*
X77978099Y133377889D01*
X77978100Y133377889D01*
X77978100Y133432078D01*
X77999773Y133484403D01*
X79290460Y134775089D01*
X79330022Y134843612D01*
X79350500Y134920038D01*
X79350500Y134999162D01*
X79350500Y135982747D01*
X79372173Y136035072D01*
X79410489Y136073387D01*
X79469799Y136176114D01*
X79500499Y136290689D01*
X79500500Y136290689D01*
X79500500Y136409311D01*
X79500499Y136409312D01*
X80499500Y136409312D01*
X80499500Y136290689D01*
X80530199Y136176118D01*
X80530201Y136176113D01*
X80589508Y136073391D01*
X80589509Y136073390D01*
X80589511Y136073387D01*
X80673387Y135989511D01*
X80776114Y135930201D01*
X80776115Y135930201D01*
X80776117Y135930200D01*
X80833402Y135914851D01*
X80890688Y135899501D01*
X80890689Y135899500D01*
X80890691Y135899500D01*
X80944877Y135899500D01*
X80997203Y135877826D01*
X82213026Y134662003D01*
X82234700Y134609677D01*
X82234700Y133842054D01*
X82213027Y133789729D01*
X82174708Y133751410D01*
X82115401Y133648688D01*
X82115399Y133648683D01*
X82084700Y133534112D01*
X82084700Y133415489D01*
X82115399Y133300918D01*
X82115401Y133300913D01*
X82174708Y133198191D01*
X82174709Y133198190D01*
X82174711Y133198187D01*
X82258587Y133114311D01*
X82258589Y133114310D01*
X82258590Y133114309D01*
X82323715Y133076709D01*
X82361314Y133055001D01*
X82361315Y133055001D01*
X82361317Y133055000D01*
X82375805Y133051118D01*
X82475888Y133024301D01*
X82475889Y133024300D01*
X82475891Y133024300D01*
X82594511Y133024300D01*
X82594511Y133024301D01*
X82709086Y133055001D01*
X82811813Y133114311D01*
X82895689Y133198187D01*
X82954999Y133300914D01*
X82985699Y133415489D01*
X82985700Y133415489D01*
X82985700Y133534111D01*
X82985699Y133534112D01*
X82955000Y133648683D01*
X82954998Y133648688D01*
X82895691Y133751410D01*
X82895690Y133751411D01*
X82895689Y133751413D01*
X82857373Y133789729D01*
X82835700Y133842054D01*
X82835700Y134089312D01*
X84869700Y134089312D01*
X84869700Y133970689D01*
X84900399Y133856118D01*
X84900401Y133856113D01*
X84959708Y133753391D01*
X84959709Y133753390D01*
X84959711Y133753387D01*
X85043587Y133669511D01*
X85043589Y133669510D01*
X85043590Y133669509D01*
X85144781Y133611086D01*
X85146314Y133610201D01*
X85146315Y133610201D01*
X85146317Y133610200D01*
X85203602Y133594851D01*
X85260888Y133579501D01*
X85260889Y133579500D01*
X85260891Y133579500D01*
X85379511Y133579500D01*
X85379511Y133579501D01*
X85494086Y133610201D01*
X85596813Y133669511D01*
X85680689Y133753387D01*
X85739999Y133856114D01*
X85770699Y133970689D01*
X85770700Y133970689D01*
X85770700Y134089311D01*
X85770699Y134089312D01*
X85740000Y134203883D01*
X85739998Y134203888D01*
X85680691Y134306610D01*
X85680690Y134306611D01*
X85680689Y134306613D01*
X85596813Y134390489D01*
X85596810Y134390491D01*
X85596809Y134390492D01*
X85494087Y134449799D01*
X85494082Y134449801D01*
X85379511Y134480500D01*
X85379509Y134480500D01*
X85260891Y134480500D01*
X85260889Y134480500D01*
X85146317Y134449801D01*
X85146312Y134449799D01*
X85043590Y134390492D01*
X84959708Y134306610D01*
X84900401Y134203888D01*
X84900399Y134203883D01*
X84869700Y134089312D01*
X82835700Y134089312D01*
X82835700Y134804364D01*
X82835699Y134804365D01*
X82815222Y134880786D01*
X82815220Y134880791D01*
X82775659Y134949312D01*
X81422174Y136302797D01*
X81400500Y136355123D01*
X81400500Y136409311D01*
X81400499Y136409312D01*
X81369800Y136523883D01*
X81369798Y136523888D01*
X81310491Y136626610D01*
X81310490Y136626611D01*
X81310489Y136626613D01*
X81226613Y136710489D01*
X81226610Y136710491D01*
X81226609Y136710492D01*
X81123887Y136769799D01*
X81123882Y136769801D01*
X81009311Y136800500D01*
X81009309Y136800500D01*
X80890691Y136800500D01*
X80890689Y136800500D01*
X80776117Y136769801D01*
X80776112Y136769799D01*
X80673390Y136710492D01*
X80589508Y136626610D01*
X80530201Y136523888D01*
X80530199Y136523883D01*
X80499500Y136409312D01*
X79500499Y136409312D01*
X79469800Y136523883D01*
X79469798Y136523888D01*
X79410491Y136626610D01*
X79410490Y136626611D01*
X79410489Y136626613D01*
X79326613Y136710489D01*
X79326610Y136710491D01*
X79326609Y136710492D01*
X79223887Y136769799D01*
X79223882Y136769801D01*
X79109311Y136800500D01*
X79109309Y136800500D01*
X79055123Y136800500D01*
X79002797Y136822174D01*
X78622174Y137202797D01*
X78600500Y137255123D01*
X78600500Y139659312D01*
X78799500Y139659312D01*
X78799500Y139540689D01*
X78830199Y139426118D01*
X78830201Y139426113D01*
X78889508Y139323391D01*
X78889509Y139323390D01*
X78889511Y139323387D01*
X78973387Y139239511D01*
X79076114Y139180201D01*
X79076115Y139180201D01*
X79076117Y139180200D01*
X79133402Y139164851D01*
X79190688Y139149501D01*
X79190689Y139149500D01*
X79190691Y139149500D01*
X79309311Y139149500D01*
X79309311Y139149501D01*
X79423886Y139180201D01*
X79526613Y139239511D01*
X79610489Y139323387D01*
X79669799Y139426114D01*
X79700499Y139540689D01*
X79700500Y139540689D01*
X79700500Y139659311D01*
X79700499Y139659312D01*
X79700151Y139660609D01*
X79669799Y139773886D01*
X79610489Y139876613D01*
X79526613Y139960489D01*
X79526610Y139960491D01*
X79526609Y139960492D01*
X79423887Y140019799D01*
X79423882Y140019801D01*
X79309311Y140050500D01*
X79309309Y140050500D01*
X79190691Y140050500D01*
X79190689Y140050500D01*
X79076117Y140019801D01*
X79076112Y140019799D01*
X78973390Y139960492D01*
X78889508Y139876610D01*
X78830201Y139773888D01*
X78830199Y139773883D01*
X78799500Y139659312D01*
X78600500Y139659312D01*
X78600500Y140544877D01*
X78622174Y140597203D01*
X78702797Y140677826D01*
X78755123Y140699500D01*
X80294877Y140699500D01*
X80347203Y140677826D01*
X80427826Y140597203D01*
X80449500Y140544877D01*
X80449500Y139967254D01*
X80427827Y139914929D01*
X80389508Y139876610D01*
X80330201Y139773888D01*
X80330199Y139773883D01*
X80299500Y139659312D01*
X80299500Y139540689D01*
X80330199Y139426118D01*
X80330201Y139426113D01*
X80389508Y139323391D01*
X80389509Y139323390D01*
X80389511Y139323387D01*
X80473387Y139239511D01*
X80576114Y139180201D01*
X80576115Y139180201D01*
X80576117Y139180200D01*
X80633402Y139164851D01*
X80690688Y139149501D01*
X80690689Y139149500D01*
X80690691Y139149500D01*
X80809311Y139149500D01*
X80809311Y139149501D01*
X80923886Y139180201D01*
X81026613Y139239511D01*
X81110489Y139323387D01*
X81169799Y139426114D01*
X81200499Y139540689D01*
X81200500Y139540689D01*
X81200500Y139659310D01*
X81197854Y139669186D01*
X82364500Y139669186D01*
X82364500Y139530815D01*
X82400310Y139397169D01*
X82400312Y139397164D01*
X82469495Y139277335D01*
X82567335Y139179495D01*
X82687164Y139110312D01*
X82820814Y139074501D01*
X82820815Y139074500D01*
X82820817Y139074500D01*
X82959185Y139074500D01*
X82959185Y139074501D01*
X83092836Y139110312D01*
X83212665Y139179495D01*
X83310505Y139277335D01*
X83379688Y139397164D01*
X83415499Y139530815D01*
X83415500Y139530815D01*
X83415500Y139669185D01*
X83415499Y139669186D01*
X83387444Y139773888D01*
X83379688Y139802836D01*
X83310505Y139922665D01*
X83212665Y140020505D01*
X83092836Y140089688D01*
X83092831Y140089690D01*
X82959185Y140125500D01*
X82959183Y140125500D01*
X82820817Y140125500D01*
X82820815Y140125500D01*
X82687168Y140089690D01*
X82687163Y140089688D01*
X82567334Y140020505D01*
X82469495Y139922666D01*
X82400312Y139802837D01*
X82400310Y139802832D01*
X82364500Y139669186D01*
X81197854Y139669186D01*
X81169800Y139773883D01*
X81169798Y139773888D01*
X81110491Y139876610D01*
X81110490Y139876611D01*
X81110489Y139876613D01*
X81072173Y139914929D01*
X81050500Y139967254D01*
X81050500Y140739564D01*
X81050499Y140739565D01*
X81030022Y140815986D01*
X81030020Y140815991D01*
X80990459Y140884512D01*
X80634511Y141240460D01*
X80565990Y141280021D01*
X80565985Y141280023D01*
X80489564Y141300500D01*
X80489562Y141300500D01*
X78560438Y141300500D01*
X78560436Y141300500D01*
X78484014Y141280023D01*
X78484009Y141280021D01*
X78415488Y141240460D01*
X78059540Y140884512D01*
X78019979Y140815991D01*
X78019977Y140815986D01*
X77999500Y140739565D01*
X77999500Y137060436D01*
X78019977Y136984015D01*
X78019979Y136984010D01*
X78059540Y136915489D01*
X78577826Y136397203D01*
X78599500Y136344877D01*
X78599500Y136290689D01*
X78630199Y136176118D01*
X78630201Y136176113D01*
X78689508Y136073391D01*
X78689509Y136073390D01*
X78689511Y136073387D01*
X78727826Y136035072D01*
X78749500Y135982747D01*
X78749500Y135114723D01*
X78727826Y135062397D01*
X77574803Y133909374D01*
X77522477Y133887700D01*
X77468289Y133887700D01*
X77353717Y133857001D01*
X77353712Y133856999D01*
X77250990Y133797692D01*
X77167108Y133713810D01*
X77107801Y133611088D01*
X77107799Y133611083D01*
X77077100Y133496512D01*
X65863434Y133496512D01*
X65860491Y133501610D01*
X65860490Y133501611D01*
X65860489Y133501613D01*
X65776613Y133585489D01*
X65776610Y133585491D01*
X65776609Y133585492D01*
X65673887Y133644799D01*
X65673882Y133644801D01*
X65559311Y133675500D01*
X65559309Y133675500D01*
X65440691Y133675500D01*
X65440689Y133675500D01*
X65326117Y133644801D01*
X65326112Y133644799D01*
X65223390Y133585492D01*
X65139508Y133501610D01*
X65080201Y133398888D01*
X65080199Y133398883D01*
X65049500Y133284312D01*
X500000Y133284312D01*
X500000Y134827112D01*
X76814400Y134827112D01*
X76814400Y134708489D01*
X76845099Y134593918D01*
X76845101Y134593913D01*
X76904408Y134491191D01*
X76904409Y134491190D01*
X76904411Y134491187D01*
X76988287Y134407311D01*
X77091014Y134348001D01*
X77091015Y134348001D01*
X77091017Y134348000D01*
X77148302Y134332651D01*
X77205588Y134317301D01*
X77205589Y134317300D01*
X77205591Y134317300D01*
X77324211Y134317300D01*
X77324211Y134317301D01*
X77438786Y134348001D01*
X77541513Y134407311D01*
X77625389Y134491187D01*
X77684699Y134593914D01*
X77715399Y134708489D01*
X77715400Y134708489D01*
X77715400Y134827111D01*
X77715399Y134827112D01*
X77710978Y134843610D01*
X77684699Y134941686D01*
X77625389Y135044413D01*
X77541513Y135128289D01*
X77541510Y135128291D01*
X77541509Y135128292D01*
X77438787Y135187599D01*
X77438782Y135187601D01*
X77324211Y135218300D01*
X77324209Y135218300D01*
X77205591Y135218300D01*
X77205589Y135218300D01*
X77091017Y135187601D01*
X77091012Y135187599D01*
X76988290Y135128292D01*
X76904408Y135044410D01*
X76845101Y134941688D01*
X76845099Y134941683D01*
X76814400Y134827112D01*
X500000Y134827112D01*
X500000Y140248665D01*
X521674Y140300991D01*
X574000Y140322665D01*
X626326Y140300991D01*
X646577Y140263103D01*
X706771Y139960492D01*
X766421Y139660608D01*
X1158045Y139074501D01*
X1525126Y138525127D01*
X2660607Y137766422D01*
X4000000Y137500000D01*
X5339392Y137766422D01*
X6474873Y138525127D01*
X7233578Y139660608D01*
X7235284Y139669186D01*
X76584500Y139669186D01*
X76584500Y139530815D01*
X76620310Y139397169D01*
X76620312Y139397164D01*
X76689495Y139277335D01*
X76787335Y139179495D01*
X76907164Y139110312D01*
X77040814Y139074501D01*
X77040815Y139074500D01*
X77040817Y139074500D01*
X77179185Y139074500D01*
X77179185Y139074501D01*
X77312836Y139110312D01*
X77432665Y139179495D01*
X77530505Y139277335D01*
X77599688Y139397164D01*
X77635499Y139530815D01*
X77635500Y139530815D01*
X77635500Y139669185D01*
X77635499Y139669186D01*
X77607444Y139773888D01*
X77599688Y139802836D01*
X77530505Y139922665D01*
X77432665Y140020505D01*
X77312836Y140089688D01*
X77312831Y140089690D01*
X77179185Y140125500D01*
X77179183Y140125500D01*
X77040817Y140125500D01*
X77040815Y140125500D01*
X76907168Y140089690D01*
X76907163Y140089688D01*
X76787334Y140020505D01*
X76689495Y139922666D01*
X76620312Y139802837D01*
X76620310Y139802832D01*
X76584500Y139669186D01*
X7235284Y139669186D01*
X7500000Y141000000D01*
X7233578Y142339393D01*
X6474873Y143474874D01*
X5339392Y144233579D01*
X4736898Y144353423D01*
X4689807Y144384888D01*
X4678758Y144440437D01*
X4710224Y144487529D01*
X4751336Y144500000D01*
X155248664Y144500000D01*
X155300990Y144478326D01*
G37*
%TD.AperFunction*%
%TD*%
M02*
