M48
; DRILL file KiCad 10.0.6-10.0.6~ubuntu24.04.1 date 2026-09-26T12:21:50
; FORMAT={-:-/ absolute / metric / decimal}
; #@! TF.CreationDate,2026-09-26T12:21:50-07:00
; #@! TF.GenerationSoftware,Kicad,Pcbnew,10.0.6-10.0.6~ubuntu24.04.1
; #@! TF.FileFunction,Plated,1,4,PTH
FMAT,2
METRIC
; #@! TA.AperFunction,Plated,PTH,ViaDrill
T1C0.250
; #@! TA.AperFunction,Plated,PTH,ComponentDrill
T2C0.600
%
G90
G05
T1
X2.775Y83.5
X2.775Y80.5
X2.775Y77.5
X2.775Y74.5
X2.775Y71.5
X2.775Y68.5
X2.775Y65.5
X2.775Y62.5
X2.775Y42.5
X2.775Y39.5
X2.775Y36.5
X2.775Y33.5
X2.775Y30.5
X2.775Y27.5
X2.775Y24.5
X2.775Y21.5
X5.825Y79.25
X5.825Y76.25
X5.825Y73.25
X5.825Y70.25
X5.825Y67.25
X5.825Y64.25
X5.825Y61.25
X5.825Y41.25
X5.825Y38.25
X5.825Y35.25
X5.825Y26.25
X5.825Y20.25
X9.5Y77.5
X9.5Y68.5
X9.5Y36.5
X9.5Y27.5
X10.511Y31.621
X11.225Y79.8
X11.225Y38.8
X11.255Y32.987
X11.308Y34.063
X12.0Y67.5
X12.0Y26.5
X12.775Y79.8
X12.775Y38.8
X27.087Y83.5
X27.087Y80.5
X27.087Y77.5
X27.087Y74.5
X27.087Y71.5
X27.087Y68.5
X27.087Y65.5
X27.087Y62.5
X27.087Y42.5
X27.087Y39.5
X27.087Y36.5
X27.087Y33.5
X27.087Y30.5
X27.087Y27.5
X27.087Y24.5
X27.087Y21.5
X39.775Y83.5
X39.775Y80.5
X39.775Y77.5
X39.775Y74.5
X39.775Y71.5
X39.775Y68.5
X39.775Y65.5
X39.775Y62.5
X39.775Y42.5
X39.775Y39.5
X39.775Y36.5
X41.644Y75.541
X42.825Y76.25
X42.825Y73.25
X42.825Y67.25
X42.825Y61.25
X42.825Y41.25
X42.825Y38.25
X43.658Y38.96
X43.695Y121.724
X44.637Y29.075
X44.677Y84.788
X45.04Y87.68
X46.5Y77.5
X46.5Y68.5
X46.5Y36.5
X46.5Y27.5
X48.225Y79.8
X48.225Y38.8
X49.0Y67.5
X49.0Y26.5
X49.775Y79.8
X49.775Y38.8
X50.0Y130.348
X53.316Y108.995
X54.615Y110.242
X54.7Y134.775
X57.82Y109.419
X59.752Y124.717
X59.8Y131.0
X64.087Y83.5
X64.087Y80.5
X64.087Y77.5
X64.087Y74.5
X64.087Y71.5
X64.087Y68.5
X64.087Y65.5
X64.087Y62.5
X64.087Y42.5
X64.087Y39.5
X64.087Y36.5
X65.3Y134.775
X65.5Y133.225
X66.752Y119.391
X68.082Y99.174
X68.4Y131.5
X68.638Y99.899
X69.673Y112.349
X71.85Y117.7
X71.994Y42.969
X72.078Y96.681
X73.2Y119.0
X73.2Y94.0
X73.825Y123.755
X73.825Y114.245
X73.825Y98.72
X73.825Y89.28
X74.475Y124.555
X74.475Y113.445
X74.475Y99.52
X74.475Y88.48
X74.616Y50.353
X75.125Y123.755
X75.125Y114.245
X75.472Y106.561
X75.775Y124.555
X75.775Y113.445
X75.775Y99.52
X75.775Y88.48
X76.425Y123.755
X76.425Y98.72
X76.425Y89.28
X77.075Y124.555
X77.075Y113.445
X77.075Y99.52
X77.075Y88.48
X77.265Y134.768
X77.528Y133.437
X77.725Y98.72
X77.725Y89.28
X77.805Y110.533
X78.084Y38.589
X78.375Y124.555
X78.514Y97.378
X79.025Y114.245
X79.025Y98.72
X79.025Y89.28
X79.05Y136.35
X79.05Y86.2
X79.25Y139.6
X79.675Y124.555
X79.675Y99.52
X79.675Y88.48
X80.0Y135.75
X80.0Y119.0
X80.0Y94.0
X80.325Y98.72
X80.325Y89.28
X80.75Y139.6
X80.95Y136.35
X80.975Y113.445
X80.975Y99.52
X81.625Y114.245
X81.625Y89.28
X82.275Y113.445
X82.275Y99.52
X82.275Y88.48
X82.535Y133.475
X82.925Y114.245
X82.925Y98.72
X83.575Y113.445
X83.575Y99.52
X83.575Y88.48
X83.8Y121.7
X84.225Y114.245
X84.225Y98.72
X84.225Y89.28
X84.237Y74.964
X84.556Y86.299
X84.875Y113.445
X84.875Y88.48
X85.32Y134.03
X85.525Y98.72
X85.525Y89.28
X86.175Y113.445
X86.175Y88.48
X86.775Y83.5
X86.775Y80.5
X86.775Y77.5
X86.775Y74.5
X86.775Y71.5
X86.775Y68.5
X86.775Y65.5
X86.775Y62.5
X86.775Y42.5
X86.775Y39.5
X86.775Y36.5
X86.775Y33.5
X86.775Y30.5
X86.775Y27.5
X86.775Y24.5
X86.775Y21.5
X86.8Y119.0
X86.8Y94.0
X88.553Y86.531
X89.027Y36.837
X89.825Y73.25
X89.825Y67.25
X89.825Y64.25
X89.825Y61.25
X89.825Y41.25
X89.825Y38.25
X89.825Y32.25
X89.825Y29.25
X89.825Y26.25
X89.825Y23.25
X89.825Y20.25
X93.5Y77.5
X93.5Y68.5
X93.5Y36.5
X93.5Y27.5
X95.225Y79.8
X95.225Y38.8
X96.0Y67.5
X96.0Y26.5
X96.775Y79.8
X96.775Y38.8
X111.087Y83.5
X111.087Y80.5
X111.087Y77.5
X111.087Y74.5
X111.087Y71.5
X111.087Y68.5
X111.087Y65.5
X111.087Y62.5
X111.087Y42.5
X111.087Y39.5
X111.087Y36.5
X111.087Y33.5
X111.087Y30.5
X111.087Y27.5
X111.087Y24.5
X111.087Y21.5
X112.775Y118.5
X112.775Y115.5
X112.775Y112.5
X115.825Y117.25
X115.825Y114.25
X115.825Y111.25
X117.637Y105.075
X119.5Y112.5
X119.5Y103.5
X121.225Y114.8
X122.0Y102.5
X122.775Y114.8
X123.775Y83.5
X123.775Y80.5
X123.775Y77.5
X123.775Y74.5
X123.775Y71.5
X123.775Y68.5
X123.775Y65.5
X123.775Y62.5
X123.775Y42.5
X123.775Y39.5
X123.775Y36.5
X123.775Y33.5
X123.775Y30.5
X123.775Y27.5
X126.162Y109.625
X126.162Y108.975
X126.162Y108.325
X126.825Y82.25
X126.825Y79.25
X126.825Y76.25
X126.825Y73.25
X126.825Y70.25
X126.825Y67.25
X126.825Y64.25
X126.825Y61.25
X126.825Y41.25
X126.825Y35.25
X126.825Y32.25
X126.825Y29.25
X126.825Y26.25
X128.637Y29.075
X130.175Y119.75
X130.175Y116.75
X130.175Y113.75
X130.5Y77.5
X130.5Y68.5
X130.5Y36.5
X130.5Y27.5
X132.225Y79.8
X132.225Y38.8
X133.0Y67.5
X133.0Y26.5
X133.775Y79.8
X133.775Y38.8
X137.088Y118.5
X137.088Y115.5
X137.088Y112.5
X148.088Y83.5
X148.088Y80.5
X148.088Y77.5
X148.088Y74.5
X148.088Y71.5
X148.088Y68.5
X148.088Y65.5
X148.088Y62.5
X148.088Y42.5
X148.088Y39.5
X148.088Y36.5
X148.088Y33.5
X148.088Y30.5
X148.088Y27.5
T2
X75.68Y142.95G85X75.68Y143.55
G05
X75.68Y138.52G85X75.68Y139.62
G05
X84.32Y142.95G85X84.32Y143.55
G05
X84.32Y138.52G85X84.32Y139.62
G05
M30
