%TF.GenerationSoftware,KiCad,Pcbnew,10.0.6-10.0.6~ubuntu24.04.1*%
%TF.CreationDate,2026-09-26T12:21:50-07:00*%
%TF.ProjectId,carrier,63617272-6965-4722-9e6b-696361645f70,rev?*%
%TF.SameCoordinates,Original*%
%TF.FileFunction,Copper,L4,Bot*%
%TF.FilePolarity,Positive*%
%FSLAX46Y46*%
G04 Gerber Fmt 4.6, Leading zero omitted, Abs format (unit mm)*
G04 Created by KiCad (PCBNEW 10.0.6-10.0.6~ubuntu24.04.1) date 2026-09-26 12:21:50*
%MOMM*%
%LPD*%
G01*
G04 APERTURE LIST*
%TA.AperFunction,ComponentPad*%
%ADD10O,1.000000X2.100000*%
%TD*%
%TA.AperFunction,ComponentPad*%
%ADD11O,1.000000X1.600000*%
%TD*%
%TA.AperFunction,ViaPad*%
%ADD12C,0.500000*%
%TD*%
%TA.AperFunction,Conductor*%
%ADD13C,0.200000*%
%TD*%
%TA.AperFunction,Conductor*%
%ADD14C,0.600000*%
%TD*%
%TA.AperFunction,Conductor*%
%ADD15C,0.500000*%
%TD*%
%TA.AperFunction,Conductor*%
%ADD16C,0.750000*%
%TD*%
G04 APERTURE END LIST*
D10*
%TO.P,J3,S1*%
%TO.N,GND*%
X84320000Y139070000D03*
D11*
X84320000Y143250000D03*
D10*
X75680000Y139070000D03*
D11*
X75680000Y143250000D03*
%TD*%
D12*
%TO.N,ESP_GPIO44_RXD*%
X82275000Y113445000D03*
X42825000Y41250000D03*
%TO.N,GND*%
X86774999Y42500000D03*
X123775000Y30500000D03*
X27087500Y42500000D03*
X2775000Y68500000D03*
X148087500Y83500000D03*
X123775000Y65500000D03*
X2775000Y21500000D03*
X46500000Y27500000D03*
X93500000Y68500000D03*
X119500000Y112500000D03*
X64087499Y80500000D03*
X133775000Y79800000D03*
X123775000Y62500000D03*
X2775000Y62500000D03*
X49775000Y79800000D03*
X2775000Y74500000D03*
X27087500Y62500000D03*
X64087499Y62500000D03*
X39775000Y68500000D03*
X86774999Y68500000D03*
X111087500Y21500000D03*
X46500000Y68500000D03*
X111087500Y27500000D03*
X2775000Y65500000D03*
X27087500Y36500000D03*
X123775000Y39500000D03*
X86774999Y83500000D03*
X49000000Y67500000D03*
X148087500Y74500000D03*
X39775000Y80500000D03*
X123775000Y71500000D03*
X123775000Y36500000D03*
X27087500Y33500000D03*
X123775000Y83500000D03*
X2775000Y39500000D03*
X64087499Y65500000D03*
X123775000Y27500000D03*
X148087500Y27500000D03*
X93500000Y36500000D03*
X111087500Y68500000D03*
X86774999Y65500000D03*
X123775000Y33500000D03*
X130500000Y27500000D03*
X64087499Y71500000D03*
X46500000Y77500000D03*
X122775000Y114800000D03*
X12000000Y26500000D03*
X64087499Y68500000D03*
X27087500Y77500000D03*
X27087500Y39500000D03*
X133775000Y38800000D03*
X44637500Y29075000D03*
X64087499Y42500000D03*
X64087499Y36500000D03*
X122000000Y102500000D03*
X86774999Y36500000D03*
X86774999Y62500000D03*
X54700000Y134775000D03*
X2775000Y71500000D03*
X148087500Y65500000D03*
X148087500Y71500000D03*
X27087500Y74500000D03*
X123775000Y68500000D03*
X119500000Y103500000D03*
X64087499Y74500000D03*
X148087500Y77500000D03*
X80000000Y135750000D03*
X49775000Y38800000D03*
X111087500Y24500000D03*
X59800000Y131000000D03*
X49000000Y26500000D03*
X27087500Y24500000D03*
X148087500Y80500000D03*
X39775000Y42500000D03*
X96775000Y38800000D03*
X86774999Y21500000D03*
X86774999Y24500000D03*
X86774999Y27500000D03*
X111087500Y80500000D03*
X39775000Y36500000D03*
X111087500Y30500000D03*
X27087500Y65500000D03*
X2775000Y24500000D03*
X80000000Y119000000D03*
X64087499Y83500000D03*
X130500000Y68500000D03*
X2775000Y42500000D03*
X86774999Y74500000D03*
X86800000Y119000000D03*
X9500000Y77500000D03*
X86774999Y30500000D03*
X111087500Y62500000D03*
X148087500Y36500000D03*
X86774999Y80500000D03*
X96000000Y67500000D03*
X2775000Y83500000D03*
X2775000Y30500000D03*
X27087500Y21500000D03*
X123775000Y80500000D03*
X123775000Y42500000D03*
X9500000Y27500000D03*
X111087500Y65500000D03*
X111087500Y74500000D03*
X27087500Y30500000D03*
X130500000Y36500000D03*
X86774999Y71500000D03*
X39775000Y62500000D03*
X39775000Y74500000D03*
X9500000Y68500000D03*
X2775000Y33500000D03*
X39775000Y83500000D03*
X86800000Y94000000D03*
X2775000Y27500000D03*
X12775000Y79800000D03*
X9500000Y36500000D03*
X27087500Y68500000D03*
X73200000Y119000000D03*
X27087500Y71500000D03*
X2775000Y77500000D03*
X64087499Y39500000D03*
X12000000Y67500000D03*
X111087500Y77500000D03*
X111087500Y33500000D03*
X73200000Y94000000D03*
X148087500Y68500000D03*
X130500000Y77500000D03*
X64087499Y77500000D03*
X12775000Y38800000D03*
X123775000Y74500000D03*
X65300000Y134775000D03*
X39775000Y71500000D03*
X86774999Y77500000D03*
X111087500Y83500000D03*
X93500000Y77500000D03*
X117637500Y105075000D03*
X133000000Y67500000D03*
X80000000Y94000000D03*
X86774999Y33500000D03*
X111087500Y71500000D03*
X123775000Y77500000D03*
X39775000Y77500000D03*
X93500000Y27500000D03*
X39775000Y65500000D03*
X111087500Y36500000D03*
X27087500Y27500000D03*
X111087500Y39500000D03*
X96775000Y79800000D03*
X46500000Y36500000D03*
X111087500Y42500000D03*
X27087500Y80500000D03*
X133000000Y26500000D03*
X86774999Y39500000D03*
X148087500Y42500000D03*
X148087500Y39500000D03*
X148087500Y30500000D03*
X27087500Y83500000D03*
X96000000Y26500000D03*
X128637500Y29075000D03*
X2775000Y36500000D03*
X148087500Y62500000D03*
X39775000Y39500000D03*
X148087500Y33500000D03*
%TO.N,ESP_GPIO2*%
X5825000Y73250000D03*
X59752000Y124716900D03*
%TO.N,BUF_FPGA_RGB1*%
X137087500Y115500000D03*
X126162500Y108975000D03*
%TO.N,CC2*%
X85320200Y134030000D03*
X77264900Y134767800D03*
%TO.N,ESP_GPIO35*%
X53316300Y108995500D03*
X5825000Y38250000D03*
X81625000Y114245001D03*
X69673300Y112348900D03*
%TO.N,FPGA_IOT_46B_G0*%
X74475000Y88480000D03*
X74616100Y50352600D03*
%TO.N,FPGA_IOB_23B*%
X80325000Y98720000D03*
X126825000Y67250000D03*
%TO.N,FPGA_RGB2*%
X79025000Y89280000D03*
X115825000Y111250000D03*
%TO.N,+3V3_TEST*%
X130175000Y116750000D03*
X48225000Y79800000D03*
X112775000Y112500000D03*
X132225000Y79800000D03*
X50000000Y130348300D03*
X130175000Y119750000D03*
X11225000Y79800000D03*
X121225000Y114800000D03*
X65500000Y133225000D03*
X95225000Y79800000D03*
X11225000Y38800000D03*
X132225000Y38800000D03*
X48225000Y38800000D03*
X112775000Y118500000D03*
X112775000Y115500000D03*
X2775000Y80500000D03*
X130175000Y113750000D03*
X95225000Y38800000D03*
%TO.N,FPGA_IOB_22A*%
X126825000Y70250000D03*
X83575000Y99520000D03*
%TO.N,FPGA_IOB_4A*%
X84225000Y89280000D03*
X89825000Y73250000D03*
%TO.N,FPGA_RGB1*%
X115825000Y114250000D03*
X77725000Y89280000D03*
%TO.N,ESP_GPIO8*%
X73825000Y123755000D03*
X71850000Y117700000D03*
%TO.N,ESP_GPIO7*%
X45039800Y87679600D03*
X74475000Y124555000D03*
%TO.N,ESP_GPIO15*%
X42825000Y76250000D03*
X77075000Y113445000D03*
%TO.N,ESP_GPIO16*%
X42825000Y73250000D03*
X75775000Y113445000D03*
%TO.N,ESP_GPIO17*%
X54614600Y110241600D03*
X41643800Y75540900D03*
%TO.N,ESP_GPIO18*%
X42825000Y67250000D03*
X75125000Y114245001D03*
%TO.N,ESP_GPIO21*%
X73825000Y114245001D03*
X44676700Y84787900D03*
%TO.N,ESP_GPIO33*%
X80975000Y113445000D03*
X42825000Y61250000D03*
%TO.N,FPGA_RGB0*%
X77075000Y88480000D03*
X115825000Y117250000D03*
%TO.N,VIN_5V*%
X68400000Y131500000D03*
X83800000Y121700000D03*
%TO.N,FPGA_IOB_20A*%
X82275000Y99520000D03*
X126825000Y73250000D03*
%TO.N,FPGA_IOB_2A*%
X83575000Y88480000D03*
X84556200Y86298800D03*
%TO.N,FPGA_IOT_45A_G1*%
X126825000Y41250000D03*
X75775000Y88480000D03*
%TO.N,FPGA_IOT_36B*%
X77725000Y98720000D03*
X79050000Y86200000D03*
X89825000Y41250000D03*
%TO.N,USB_D+*%
X82535200Y133474800D03*
X79250000Y139600000D03*
X80950000Y136350000D03*
%TO.N,USB_D-*%
X80750000Y139600000D03*
X77527600Y133437200D03*
X79050000Y136350000D03*
%TO.N,ESP_EN*%
X57820500Y109419000D03*
X79675000Y124555000D03*
%TO.N,ESP_GPIO0_BOOT*%
X43695300Y121724500D03*
X5825000Y79250000D03*
%TO.N,ESP_GPIO1*%
X78375000Y124555000D03*
X5825000Y76250000D03*
%TO.N,ESP_GPIO3*%
X77075000Y124555000D03*
X5825000Y70250000D03*
%TO.N,ESP_GPIO4*%
X5825000Y67250000D03*
X76425000Y123755000D03*
%TO.N,ESP_GPIO5*%
X5825000Y64250000D03*
X75775000Y124555000D03*
%TO.N,ESP_GPIO6*%
X5825000Y61250000D03*
X75125000Y123755000D03*
%TO.N,ESP_GPIO40*%
X11255400Y32987500D03*
X68081800Y99173800D03*
X86175000Y113445000D03*
%TO.N,ESP_GPIO39*%
X11307900Y34063200D03*
X84875000Y113445000D03*
X77805400Y110533200D03*
%TO.N,ESP_GPIO41*%
X84225000Y114245001D03*
X5825000Y26250000D03*
%TO.N,ESP_GPIO42*%
X10510700Y31621400D03*
X83575000Y113445000D03*
%TO.N,ESP_GPIO43_TXD*%
X5825000Y20250000D03*
X82925000Y114245001D03*
%TO.N,ESP_GPIO34*%
X5825000Y41250000D03*
X79025000Y114245001D03*
X66752400Y119390800D03*
%TO.N,ESP_GPIO46*%
X75471800Y106561200D03*
X43657700Y38959600D03*
%TO.N,ESP_GPIO45*%
X68637900Y99899100D03*
X42825000Y38250000D03*
%TO.N,ESP_GPIO38*%
X74475000Y113445000D03*
X5825000Y35250000D03*
%TO.N,FPGA_IOT_48B*%
X73825000Y89280000D03*
X126825000Y35250000D03*
X78083600Y38589200D03*
%TO.N,FPGA_IOT_49A*%
X126825000Y32250000D03*
X80325000Y89280000D03*
%TO.N,FPGA_IOT_50B*%
X89026700Y36837400D03*
X76425000Y89280000D03*
X126825000Y29250000D03*
%TO.N,FPGA_IOT_51A*%
X126825000Y26250000D03*
X79675000Y88480000D03*
X88553300Y86530900D03*
%TO.N,FPGA_IOB_13B*%
X82925000Y98720000D03*
X126825000Y82250000D03*
%TO.N,FPGA_IOB_16A*%
X126825000Y79250000D03*
X84225000Y98720000D03*
%TO.N,FPGA_IOB_18A*%
X126825000Y76250000D03*
X85525000Y98720000D03*
%TO.N,FPGA_IOB_25B_G3*%
X126825000Y64250000D03*
X79025000Y98720000D03*
%TO.N,FPGA_IOB_29B*%
X126825000Y61250000D03*
X79675000Y99520000D03*
%TO.N,FPGA_IOB_9B*%
X89825000Y61250000D03*
X84875000Y88480000D03*
%TO.N,FPGA_IOB_5B*%
X84237400Y74963600D03*
X82275000Y88480000D03*
%TO.N,FPGA_IOB_6A*%
X89825000Y67250000D03*
X86175000Y88480000D03*
%TO.N,FPGA_IOB_8A*%
X89825000Y64250000D03*
X85525000Y89280000D03*
%TO.N,BUF_FPGA_RGB2*%
X137087500Y112500000D03*
X126162500Y108325000D03*
%TO.N,FPGA_IOT_39A*%
X76425000Y98720000D03*
X89825000Y32250000D03*
%TO.N,FPGA_IOT_43A*%
X73825000Y98720000D03*
X89825000Y23250000D03*
%TO.N,FPGA_IOT_37A*%
X80975000Y99520000D03*
X89825000Y38250000D03*
X78514400Y97377600D03*
%TO.N,FPGA_IOT_38B*%
X71994300Y42969300D03*
X77075000Y99520000D03*
X72078500Y96681500D03*
%TO.N,FPGA_IOT_41A*%
X89825000Y29250000D03*
X75775000Y99520000D03*
%TO.N,FPGA_IOT_42B*%
X74475000Y99520000D03*
X89825000Y26250000D03*
%TO.N,FPGA_IOT_44B*%
X89825000Y20250000D03*
X81625000Y89280000D03*
%TO.N,BUF_FPGA_RGB0*%
X137087500Y118500000D03*
X126162500Y109625000D03*
%TD*%
%TO.N,BUF_FPGA_RGB1*%
D13*
X128762500Y115200000D02*
X129062500Y115500000D01*
X126162500Y108975000D02*
X128462499Y108975000D01*
X128462499Y108975000D02*
X128762500Y109275000D01*
X128762500Y109275000D02*
X128762500Y115200000D01*
X129062500Y115500000D02*
X137087500Y115500000D01*
%TO.N,CC2*%
X84582400Y134767800D02*
X85320200Y134030000D01*
X77264900Y134767800D02*
X84582400Y134767800D01*
%TO.N,ESP_GPIO35*%
X78580900Y112348900D02*
X69673300Y112348900D01*
X81625000Y114245000D02*
X80477000Y114245000D01*
X80477000Y114245000D02*
X78580900Y112348900D01*
%TO.N,FPGA_RGB2*%
X79025000Y89280000D02*
X79050000Y89300000D01*
X115800000Y111250000D02*
X115825000Y111250000D01*
X85550000Y95800000D02*
X96550000Y95800000D01*
X96550000Y95800000D02*
X112000000Y111250000D01*
X79050000Y89300000D02*
X85550000Y95800000D01*
X112000000Y111250000D02*
X115800000Y111250000D01*
%TO.N,+3V3_TEST*%
D14*
X65500000Y85500000D02*
X11175000Y85500000D01*
X65500000Y133225000D02*
X65500000Y85800000D01*
D13*
X2775000Y80500000D02*
X2750000Y80500000D01*
X2750000Y80500000D02*
X3500000Y80500000D01*
X11175000Y81656800D02*
X11225000Y81606800D01*
D15*
X11175000Y85500000D02*
X11175000Y38800000D01*
X132175000Y85500000D02*
X132175000Y38800000D01*
D13*
X65500000Y127858500D02*
X63010200Y130348300D01*
X3500000Y80500000D02*
X4100000Y79900000D01*
X48225000Y81606800D02*
X48225000Y79800000D01*
D14*
X65500000Y85800000D02*
X65800000Y85500000D01*
X65800000Y85500000D02*
X132225000Y85500000D01*
D15*
X95175000Y85500000D02*
X95175000Y38800000D01*
D13*
X132225000Y79800000D02*
X132225000Y85500000D01*
X4100000Y79900000D02*
X11100000Y79900000D01*
X95225000Y83927200D02*
X95175000Y83977200D01*
X11100000Y79900000D02*
X11200000Y79800000D01*
X63010200Y130348300D02*
X50000000Y130348300D01*
X48175000Y81656800D02*
X48225000Y81606800D01*
X11200000Y79800000D02*
X11175000Y79800000D01*
X113475000Y114800000D02*
X112775000Y115500000D01*
X121225000Y114800000D02*
X113475000Y114800000D01*
D15*
X48175000Y85500000D02*
X48175000Y38800000D01*
D13*
X95225000Y79800000D02*
X95225000Y83927200D01*
X11225000Y81606800D02*
X11225000Y79800000D01*
%TO.N,FPGA_RGB1*%
X102695000Y114250000D02*
X115825000Y114250000D01*
X77725000Y89280000D02*
X102695000Y114250000D01*
%TO.N,ESP_GPIO8*%
X72300000Y122250000D02*
X72300000Y121200000D01*
X72250000Y121150000D02*
X72250000Y118300000D01*
X72250000Y118300000D02*
X71850000Y117900000D01*
X73825000Y123755000D02*
X73800000Y123750000D01*
X71850000Y117900000D02*
X71850000Y117700000D01*
X72300000Y121200000D02*
X72250000Y121150000D01*
X73800000Y123750000D02*
X72300000Y122250000D01*
%TO.N,FPGA_RGB0*%
X104904300Y117250000D02*
X77075000Y89420700D01*
X77075000Y89420700D02*
X77075000Y88480000D01*
X115825000Y117250000D02*
X104904300Y117250000D01*
%TO.N,VIN_5V*%
D16*
X68400000Y131500000D02*
X79600000Y131500000D01*
X79600000Y131500000D02*
X83800000Y123300000D01*
X83800000Y123300000D02*
X83800000Y121700000D01*
%TO.N,FPGA_IOT_36B*%
D13*
X77725000Y98720000D02*
X77700000Y98700000D01*
X76200000Y88800000D02*
X76250000Y88750000D01*
X76100000Y88850000D02*
X76150000Y88850000D01*
X76550000Y92800000D02*
X76500000Y92750000D01*
X76600000Y96000000D02*
X76550000Y95950000D01*
X76600000Y97500000D02*
X76600000Y96000000D01*
X76250000Y88750000D02*
X76250000Y88650000D01*
X75900000Y89050000D02*
X76000000Y88950000D01*
X76500000Y90100000D02*
X75950000Y89550000D01*
X77600000Y98550000D02*
X77550000Y98500000D01*
X76250000Y88650000D02*
X76300000Y88600000D01*
X77700000Y98700000D02*
X77600000Y98600000D01*
X75950000Y89550000D02*
X75950000Y89450000D01*
X76000000Y88950000D02*
X76050000Y88950000D01*
X77550000Y98500000D02*
X77550000Y98450000D01*
X76050000Y88950000D02*
X76050000Y88900000D01*
X76500000Y92750000D02*
X76500000Y90100000D01*
X78600000Y86200000D02*
X79050000Y86200000D01*
X75900000Y89400000D02*
X75900000Y89050000D01*
X76550000Y95950000D02*
X76550000Y92800000D01*
X76050000Y88900000D02*
X76100000Y88900000D01*
X75950000Y89450000D02*
X75900000Y89400000D01*
X77550000Y98450000D02*
X76600000Y97500000D01*
X76150000Y88800000D02*
X76200000Y88800000D01*
X76100000Y88900000D02*
X76100000Y88850000D01*
X77600000Y98600000D02*
X77600000Y98550000D01*
X76300000Y88600000D02*
X76300000Y88500000D01*
X76150000Y88850000D02*
X76150000Y88800000D01*
X76300000Y88500000D02*
X78600000Y86200000D01*
%TO.N,USB_D+*%
X81400000Y140500000D02*
X81700000Y140200000D01*
X81700000Y140200000D02*
X81700000Y137100000D01*
X79550000Y140500000D02*
X81400000Y140500000D01*
X79250000Y139600000D02*
X79250000Y140200000D01*
X79250000Y140200000D02*
X79550000Y140500000D01*
X81700000Y137100000D02*
X80950000Y136350000D01*
%TO.N,ESP_GPIO40*%
X86175000Y113445000D02*
X83130500Y110400500D01*
X68081800Y100019900D02*
X68081800Y99173800D01*
X83130500Y110400500D02*
X78462400Y110400500D01*
X78462400Y110400500D02*
X68081800Y100019900D01*
%TO.N,ESP_GPIO39*%
X84875000Y113445000D02*
X82912500Y111482500D01*
X82912500Y111482500D02*
X78754700Y111482500D01*
X78754700Y111482500D02*
X77805400Y110533200D01*
%TO.N,ESP_GPIO34*%
X76089300Y117180700D02*
X68962500Y117180700D01*
X68962500Y117180700D02*
X66752400Y119390800D01*
X79025000Y114245000D02*
X76089300Y117180700D01*
%TO.N,FPGA_IOT_48B*%
X88405700Y38589200D02*
X78083600Y38589200D01*
X91744900Y35250000D02*
X88405700Y38589200D01*
X126825000Y35250000D02*
X91744900Y35250000D01*
%TO.N,FPGA_IOT_50B*%
X96614100Y29250000D02*
X89026700Y36837400D01*
X126825000Y29250000D02*
X96614100Y29250000D01*
%TO.N,FPGA_IOT_51A*%
X88553300Y86530900D02*
X88553300Y86852800D01*
X86514100Y87988000D02*
X80167000Y87988000D01*
X87164300Y88241800D02*
X86767900Y88241800D01*
X88553300Y86852800D02*
X87164300Y88241800D01*
X80167000Y87988000D02*
X79675000Y88480000D01*
X86767900Y88241800D02*
X86514100Y87988000D01*
%TO.N,BUF_FPGA_RGB2*%
X126162500Y108325000D02*
X129062500Y108325000D01*
X129362500Y112200000D02*
X129662500Y112500000D01*
X129362500Y108625000D02*
X129362500Y112200000D01*
X129662500Y112500000D02*
X137087500Y112500000D01*
X129062500Y108325000D02*
X129362500Y108625000D01*
%TO.N,FPGA_IOT_37A*%
X80975000Y98589400D02*
X79763200Y97377600D01*
X80975000Y99520000D02*
X80975000Y98589400D01*
X79763200Y97377600D02*
X78514400Y97377600D01*
%TO.N,FPGA_IOT_38B*%
X77075000Y98628900D02*
X77075000Y99520000D01*
X75127600Y96681500D02*
X77075000Y98628900D01*
X72078500Y96681500D02*
X75127600Y96681500D01*
%TO.N,BUF_FPGA_RGB0*%
X126162500Y109625000D02*
X127862499Y109625000D01*
X128462500Y118500000D02*
X137087500Y118500000D01*
X127862499Y109625000D02*
X128162500Y109925000D01*
X128162500Y118200000D02*
X128462500Y118500000D01*
X128162500Y109925000D02*
X128162500Y118200000D01*
%TD*%
%TA.AperFunction,Conductor*%
%TO.N,GND*%
G36*
X155300990Y144478326D02*
G01*
X155322664Y144426000D01*
X155300990Y144373674D01*
X155263101Y144353423D01*
X155021241Y144305314D01*
X154660606Y144233579D01*
X153525126Y143474875D01*
X153525125Y143474874D01*
X152766421Y142339394D01*
X152500000Y141000000D01*
X152766421Y139660608D01*
X153158045Y139074501D01*
X153525126Y138525127D01*
X154660607Y137766422D01*
X156000000Y137500000D01*
X157339392Y137766422D01*
X158474873Y138525127D01*
X159233578Y139660608D01*
X159353422Y140263106D01*
X159384888Y140310197D01*
X159440437Y140321246D01*
X159487529Y140289780D01*
X159500000Y140248668D01*
X159500000Y4751334D01*
X159478326Y4699008D01*
X159426000Y4677334D01*
X159373674Y4699008D01*
X159353422Y4736897D01*
X159350550Y4751337D01*
X159233578Y5339393D01*
X158474873Y6474874D01*
X157339392Y7233579D01*
X156000000Y7500000D01*
X154660606Y7233579D01*
X153525126Y6474875D01*
X153525125Y6474874D01*
X152766421Y5339394D01*
X152766421Y5339393D01*
X152500000Y4000000D01*
X152766421Y2660608D01*
X153525126Y1525127D01*
X154660607Y766422D01*
X155263104Y646578D01*
X155310196Y615112D01*
X155321245Y559563D01*
X155289779Y512471D01*
X155248667Y500000D01*
X4751333Y500000D01*
X4699007Y521674D01*
X4677333Y574000D01*
X4699007Y626326D01*
X4736896Y646578D01*
X5339392Y766422D01*
X6474873Y1525127D01*
X7233578Y2660608D01*
X7500000Y4000000D01*
X7233578Y5339393D01*
X6474873Y6474874D01*
X5339392Y7233579D01*
X4000000Y7500000D01*
X2660606Y7233579D01*
X1525126Y6474875D01*
X1525125Y6474874D01*
X766421Y5339394D01*
X646578Y4736900D01*
X615112Y4689808D01*
X559563Y4678759D01*
X512471Y4710225D01*
X500000Y4751337D01*
X500000Y20309312D01*
X5374500Y20309312D01*
X5374500Y20190689D01*
X5405199Y20076118D01*
X5405201Y20076113D01*
X5464508Y19973391D01*
X5464509Y19973390D01*
X5464511Y19973387D01*
X5548387Y19889511D01*
X5651114Y19830201D01*
X5651115Y19830201D01*
X5651117Y19830200D01*
X5708402Y19814851D01*
X5765688Y19799501D01*
X5765689Y19799500D01*
X5765691Y19799500D01*
X5884311Y19799500D01*
X5884311Y19799501D01*
X5998886Y19830201D01*
X6101613Y19889511D01*
X6185489Y19973387D01*
X6244799Y20076114D01*
X6275499Y20190689D01*
X6275500Y20190689D01*
X6275500Y20309311D01*
X6275499Y20309312D01*
X89374500Y20309312D01*
X89374500Y20190689D01*
X89405199Y20076118D01*
X89405201Y20076113D01*
X89464508Y19973391D01*
X89464509Y19973390D01*
X89464511Y19973387D01*
X89548387Y19889511D01*
X89651114Y19830201D01*
X89651115Y19830201D01*
X89651117Y19830200D01*
X89708402Y19814851D01*
X89765688Y19799501D01*
X89765689Y19799500D01*
X89765691Y19799500D01*
X89884311Y19799500D01*
X89884311Y19799501D01*
X89998886Y19830201D01*
X90101613Y19889511D01*
X90185489Y19973387D01*
X90244799Y20076114D01*
X90275499Y20190689D01*
X90275500Y20190689D01*
X90275500Y20309311D01*
X90275499Y20309312D01*
X90244800Y20423883D01*
X90244798Y20423888D01*
X90185491Y20526610D01*
X90185490Y20526611D01*
X90185489Y20526613D01*
X90101613Y20610489D01*
X90101610Y20610491D01*
X90101609Y20610492D01*
X89998887Y20669799D01*
X89998882Y20669801D01*
X89884311Y20700500D01*
X89884309Y20700500D01*
X89765691Y20700500D01*
X89765689Y20700500D01*
X89651117Y20669801D01*
X89651112Y20669799D01*
X89548390Y20610492D01*
X89464508Y20526610D01*
X89405201Y20423888D01*
X89405199Y20423883D01*
X89374500Y20309312D01*
X6275499Y20309312D01*
X6244800Y20423883D01*
X6244798Y20423888D01*
X6185491Y20526610D01*
X6185490Y20526611D01*
X6185489Y20526613D01*
X6101613Y20610489D01*
X6101610Y20610491D01*
X6101609Y20610492D01*
X5998887Y20669799D01*
X5998882Y20669801D01*
X5884311Y20700500D01*
X5884309Y20700500D01*
X5765691Y20700500D01*
X5765689Y20700500D01*
X5651117Y20669801D01*
X5651112Y20669799D01*
X5548390Y20610492D01*
X5464508Y20526610D01*
X5405201Y20423888D01*
X5405199Y20423883D01*
X5374500Y20309312D01*
X500000Y20309312D01*
X500000Y23309312D01*
X89374500Y23309312D01*
X89374500Y23190689D01*
X89405199Y23076118D01*
X89405201Y23076113D01*
X89464508Y22973391D01*
X89464509Y22973390D01*
X89464511Y22973387D01*
X89548387Y22889511D01*
X89651114Y22830201D01*
X89651115Y22830201D01*
X89651117Y22830200D01*
X89708402Y22814851D01*
X89765688Y22799501D01*
X89765689Y22799500D01*
X89765691Y22799500D01*
X89884311Y22799500D01*
X89884311Y22799501D01*
X89998886Y22830201D01*
X90101613Y22889511D01*
X90185489Y22973387D01*
X90244799Y23076114D01*
X90275499Y23190689D01*
X90275500Y23190689D01*
X90275500Y23309311D01*
X90275499Y23309312D01*
X90244800Y23423883D01*
X90244798Y23423888D01*
X90185491Y23526610D01*
X90185490Y23526611D01*
X90185489Y23526613D01*
X90101613Y23610489D01*
X90101610Y23610491D01*
X90101609Y23610492D01*
X89998887Y23669799D01*
X89998882Y23669801D01*
X89884311Y23700500D01*
X89884309Y23700500D01*
X89765691Y23700500D01*
X89765689Y23700500D01*
X89651117Y23669801D01*
X89651112Y23669799D01*
X89548390Y23610492D01*
X89464508Y23526610D01*
X89405201Y23423888D01*
X89405199Y23423883D01*
X89374500Y23309312D01*
X500000Y23309312D01*
X500000Y26309312D01*
X5374500Y26309312D01*
X5374500Y26190689D01*
X5405199Y26076118D01*
X5405201Y26076113D01*
X5464508Y25973391D01*
X5464509Y25973390D01*
X5464511Y25973387D01*
X5548387Y25889511D01*
X5651114Y25830201D01*
X5651115Y25830201D01*
X5651117Y25830200D01*
X5708402Y25814851D01*
X5765688Y25799501D01*
X5765689Y25799500D01*
X5765691Y25799500D01*
X5884311Y25799500D01*
X5884311Y25799501D01*
X5998886Y25830201D01*
X6101613Y25889511D01*
X6185489Y25973387D01*
X6244799Y26076114D01*
X6275499Y26190689D01*
X6275500Y26190689D01*
X6275500Y26309311D01*
X6275499Y26309312D01*
X89374500Y26309312D01*
X89374500Y26190689D01*
X89405199Y26076118D01*
X89405201Y26076113D01*
X89464508Y25973391D01*
X89464509Y25973390D01*
X89464511Y25973387D01*
X89548387Y25889511D01*
X89651114Y25830201D01*
X89651115Y25830201D01*
X89651117Y25830200D01*
X89708402Y25814851D01*
X89765688Y25799501D01*
X89765689Y25799500D01*
X89765691Y25799500D01*
X89884311Y25799500D01*
X89884311Y25799501D01*
X89998886Y25830201D01*
X90101613Y25889511D01*
X90185489Y25973387D01*
X90244799Y26076114D01*
X90275499Y26190689D01*
X90275500Y26190689D01*
X90275500Y26309311D01*
X90275499Y26309312D01*
X126374500Y26309312D01*
X126374500Y26190689D01*
X126405199Y26076118D01*
X126405201Y26076113D01*
X126464508Y25973391D01*
X126464509Y25973390D01*
X126464511Y25973387D01*
X126548387Y25889511D01*
X126651114Y25830201D01*
X126651115Y25830201D01*
X126651117Y25830200D01*
X126708402Y25814851D01*
X126765688Y25799501D01*
X126765689Y25799500D01*
X126765691Y25799500D01*
X126884311Y25799500D01*
X126884311Y25799501D01*
X126998886Y25830201D01*
X127101613Y25889511D01*
X127185489Y25973387D01*
X127244799Y26076114D01*
X127275499Y26190689D01*
X127275500Y26190689D01*
X127275500Y26309311D01*
X127275499Y26309312D01*
X127244800Y26423883D01*
X127244798Y26423888D01*
X127185491Y26526610D01*
X127185490Y26526611D01*
X127185489Y26526613D01*
X127101613Y26610489D01*
X127101610Y26610491D01*
X127101609Y26610492D01*
X126998887Y26669799D01*
X126998882Y26669801D01*
X126884311Y26700500D01*
X126884309Y26700500D01*
X126765691Y26700500D01*
X126765689Y26700500D01*
X126651117Y26669801D01*
X126651112Y26669799D01*
X126548390Y26610492D01*
X126464508Y26526610D01*
X126405201Y26423888D01*
X126405199Y26423883D01*
X126374500Y26309312D01*
X90275499Y26309312D01*
X90244800Y26423883D01*
X90244798Y26423888D01*
X90185491Y26526610D01*
X90185490Y26526611D01*
X90185489Y26526613D01*
X90101613Y26610489D01*
X90101610Y26610491D01*
X90101609Y26610492D01*
X89998887Y26669799D01*
X89998882Y26669801D01*
X89884311Y26700500D01*
X89884309Y26700500D01*
X89765691Y26700500D01*
X89765689Y26700500D01*
X89651117Y26669801D01*
X89651112Y26669799D01*
X89548390Y26610492D01*
X89464508Y26526610D01*
X89405201Y26423888D01*
X89405199Y26423883D01*
X89374500Y26309312D01*
X6275499Y26309312D01*
X6244800Y26423883D01*
X6244798Y26423888D01*
X6185491Y26526610D01*
X6185490Y26526611D01*
X6185489Y26526613D01*
X6101613Y26610489D01*
X6101610Y26610491D01*
X6101609Y26610492D01*
X5998887Y26669799D01*
X5998882Y26669801D01*
X5884311Y26700500D01*
X5884309Y26700500D01*
X5765691Y26700500D01*
X5765689Y26700500D01*
X5651117Y26669801D01*
X5651112Y26669799D01*
X5548390Y26610492D01*
X5464508Y26526610D01*
X5405201Y26423888D01*
X5405199Y26423883D01*
X5374500Y26309312D01*
X500000Y26309312D01*
X500000Y29309312D01*
X89374500Y29309312D01*
X89374500Y29190689D01*
X89405199Y29076118D01*
X89405201Y29076113D01*
X89464508Y28973391D01*
X89464509Y28973390D01*
X89464511Y28973387D01*
X89548387Y28889511D01*
X89651114Y28830201D01*
X89651115Y28830201D01*
X89651117Y28830200D01*
X89708402Y28814851D01*
X89765688Y28799501D01*
X89765689Y28799500D01*
X89765691Y28799500D01*
X89884311Y28799500D01*
X89884311Y28799501D01*
X89998886Y28830201D01*
X90101613Y28889511D01*
X90185489Y28973387D01*
X90244799Y29076114D01*
X90275499Y29190689D01*
X90275500Y29190689D01*
X90275500Y29309311D01*
X90275499Y29309312D01*
X90244800Y29423883D01*
X90244798Y29423888D01*
X90185491Y29526610D01*
X90185490Y29526611D01*
X90185489Y29526613D01*
X90101613Y29610489D01*
X90101610Y29610491D01*
X90101609Y29610492D01*
X89998887Y29669799D01*
X89998882Y29669801D01*
X89884311Y29700500D01*
X89884309Y29700500D01*
X89765691Y29700500D01*
X89765689Y29700500D01*
X89651117Y29669801D01*
X89651112Y29669799D01*
X89548390Y29610492D01*
X89464508Y29526610D01*
X89405201Y29423888D01*
X89405199Y29423883D01*
X89374500Y29309312D01*
X500000Y29309312D01*
X500000Y31680712D01*
X10060200Y31680712D01*
X10060200Y31562089D01*
X10090899Y31447518D01*
X10090901Y31447513D01*
X10150208Y31344791D01*
X10150209Y31344790D01*
X10150211Y31344787D01*
X10234087Y31260911D01*
X10336814Y31201601D01*
X10336815Y31201601D01*
X10336817Y31201600D01*
X10394102Y31186251D01*
X10451388Y31170901D01*
X10451389Y31170900D01*
X10451391Y31170900D01*
X10570011Y31170900D01*
X10570011Y31170901D01*
X10684586Y31201601D01*
X10787313Y31260911D01*
X10871189Y31344787D01*
X10930499Y31447514D01*
X10961199Y31562089D01*
X10961200Y31562089D01*
X10961200Y31680711D01*
X10961199Y31680712D01*
X10930500Y31795283D01*
X10930498Y31795288D01*
X10871191Y31898010D01*
X10871190Y31898011D01*
X10871189Y31898013D01*
X10787313Y31981889D01*
X10787310Y31981891D01*
X10787309Y31981892D01*
X10684587Y32041199D01*
X10684582Y32041201D01*
X10570011Y32071900D01*
X10570009Y32071900D01*
X10451391Y32071900D01*
X10451389Y32071900D01*
X10336817Y32041201D01*
X10336812Y32041199D01*
X10234090Y31981892D01*
X10150208Y31898010D01*
X10090901Y31795288D01*
X10090899Y31795283D01*
X10060200Y31680712D01*
X500000Y31680712D01*
X500000Y32309312D01*
X89374500Y32309312D01*
X89374500Y32190689D01*
X89405199Y32076118D01*
X89405201Y32076113D01*
X89464508Y31973391D01*
X89464509Y31973390D01*
X89464511Y31973387D01*
X89548387Y31889511D01*
X89651114Y31830201D01*
X89651115Y31830201D01*
X89651117Y31830200D01*
X89708402Y31814851D01*
X89765688Y31799501D01*
X89765689Y31799500D01*
X89765691Y31799500D01*
X89884311Y31799500D01*
X89884311Y31799501D01*
X89998886Y31830201D01*
X90101613Y31889511D01*
X90185489Y31973387D01*
X90244799Y32076114D01*
X90275499Y32190689D01*
X90275500Y32190689D01*
X90275500Y32309311D01*
X90275499Y32309312D01*
X90244800Y32423883D01*
X90244798Y32423888D01*
X90185491Y32526610D01*
X90185490Y32526611D01*
X90185489Y32526613D01*
X90101613Y32610489D01*
X90101610Y32610491D01*
X90101609Y32610492D01*
X89998887Y32669799D01*
X89998882Y32669801D01*
X89884311Y32700500D01*
X89884309Y32700500D01*
X89765691Y32700500D01*
X89765689Y32700500D01*
X89651117Y32669801D01*
X89651112Y32669799D01*
X89548390Y32610492D01*
X89464508Y32526610D01*
X89405201Y32423888D01*
X89405199Y32423883D01*
X89374500Y32309312D01*
X500000Y32309312D01*
X500000Y33046812D01*
X10804900Y33046812D01*
X10804900Y32928189D01*
X10835599Y32813618D01*
X10835601Y32813613D01*
X10894908Y32710891D01*
X10894909Y32710890D01*
X10894911Y32710887D01*
X10978787Y32627011D01*
X10978789Y32627010D01*
X10978790Y32627009D01*
X11081512Y32567702D01*
X11081514Y32567701D01*
X11081515Y32567701D01*
X11081517Y32567700D01*
X11138802Y32552351D01*
X11196088Y32537001D01*
X11196089Y32537000D01*
X11196091Y32537000D01*
X11314711Y32537000D01*
X11314711Y32537001D01*
X11429286Y32567701D01*
X11532013Y32627011D01*
X11615889Y32710887D01*
X11675199Y32813614D01*
X11705899Y32928189D01*
X11705900Y32928189D01*
X11705900Y33046811D01*
X11705899Y33046812D01*
X11675200Y33161383D01*
X11675198Y33161388D01*
X11615891Y33264110D01*
X11615890Y33264111D01*
X11615889Y33264113D01*
X11532013Y33347989D01*
X11532010Y33347991D01*
X11532009Y33347992D01*
X11429287Y33407299D01*
X11429282Y33407301D01*
X11314711Y33438000D01*
X11314709Y33438000D01*
X11196091Y33438000D01*
X11196089Y33438000D01*
X11081517Y33407301D01*
X11081512Y33407299D01*
X10978790Y33347992D01*
X10894908Y33264110D01*
X10835601Y33161388D01*
X10835599Y33161383D01*
X10804900Y33046812D01*
X500000Y33046812D01*
X500000Y34122512D01*
X10857400Y34122512D01*
X10857400Y34003889D01*
X10888099Y33889318D01*
X10888101Y33889313D01*
X10947408Y33786591D01*
X10947409Y33786590D01*
X10947411Y33786587D01*
X11031287Y33702711D01*
X11134014Y33643401D01*
X11134015Y33643401D01*
X11134017Y33643400D01*
X11191302Y33628051D01*
X11248588Y33612701D01*
X11248589Y33612700D01*
X11248591Y33612700D01*
X11367211Y33612700D01*
X11367211Y33612701D01*
X11481786Y33643401D01*
X11584513Y33702711D01*
X11668389Y33786587D01*
X11727699Y33889314D01*
X11758399Y34003889D01*
X11758400Y34003889D01*
X11758400Y34122511D01*
X11758399Y34122512D01*
X11727700Y34237083D01*
X11727698Y34237088D01*
X11668391Y34339810D01*
X11668390Y34339811D01*
X11668389Y34339813D01*
X11584513Y34423689D01*
X11584510Y34423691D01*
X11584509Y34423692D01*
X11481787Y34482999D01*
X11481782Y34483001D01*
X11367211Y34513700D01*
X11367209Y34513700D01*
X11248591Y34513700D01*
X11248589Y34513700D01*
X11134017Y34483001D01*
X11134012Y34482999D01*
X11031290Y34423692D01*
X10947408Y34339810D01*
X10888101Y34237088D01*
X10888099Y34237083D01*
X10857400Y34122512D01*
X500000Y34122512D01*
X500000Y35309312D01*
X5374500Y35309312D01*
X5374500Y35190689D01*
X5405199Y35076118D01*
X5405201Y35076113D01*
X5464508Y34973391D01*
X5464509Y34973390D01*
X5464511Y34973387D01*
X5548387Y34889511D01*
X5651114Y34830201D01*
X5651115Y34830201D01*
X5651117Y34830200D01*
X5708402Y34814851D01*
X5765688Y34799501D01*
X5765689Y34799500D01*
X5765691Y34799500D01*
X5884311Y34799500D01*
X5884311Y34799501D01*
X5998886Y34830201D01*
X6101613Y34889511D01*
X6185489Y34973387D01*
X6244799Y35076114D01*
X6275499Y35190689D01*
X6275500Y35190689D01*
X6275500Y35309311D01*
X6275499Y35309312D01*
X6244800Y35423883D01*
X6244798Y35423888D01*
X6185491Y35526610D01*
X6185490Y35526611D01*
X6185489Y35526613D01*
X6101613Y35610489D01*
X6101610Y35610491D01*
X6101609Y35610492D01*
X5998887Y35669799D01*
X5998882Y35669801D01*
X5884311Y35700500D01*
X5884309Y35700500D01*
X5765691Y35700500D01*
X5765689Y35700500D01*
X5651117Y35669801D01*
X5651112Y35669799D01*
X5548390Y35610492D01*
X5464508Y35526610D01*
X5405201Y35423888D01*
X5405199Y35423883D01*
X5374500Y35309312D01*
X500000Y35309312D01*
X500000Y38309312D01*
X5374500Y38309312D01*
X5374500Y38190689D01*
X5405199Y38076118D01*
X5405201Y38076113D01*
X5464508Y37973391D01*
X5464509Y37973390D01*
X5464511Y37973387D01*
X5548387Y37889511D01*
X5651114Y37830201D01*
X5651115Y37830201D01*
X5651117Y37830200D01*
X5708402Y37814851D01*
X5765688Y37799501D01*
X5765689Y37799500D01*
X5765691Y37799500D01*
X5884311Y37799500D01*
X5884311Y37799501D01*
X5998886Y37830201D01*
X6101613Y37889511D01*
X6185489Y37973387D01*
X6244799Y38076114D01*
X6275499Y38190689D01*
X6275500Y38190689D01*
X6275500Y38309311D01*
X6275499Y38309312D01*
X42374500Y38309312D01*
X42374500Y38190689D01*
X42405199Y38076118D01*
X42405201Y38076113D01*
X42464508Y37973391D01*
X42464509Y37973390D01*
X42464511Y37973387D01*
X42548387Y37889511D01*
X42651114Y37830201D01*
X42651115Y37830201D01*
X42651117Y37830200D01*
X42708402Y37814851D01*
X42765688Y37799501D01*
X42765689Y37799500D01*
X42765691Y37799500D01*
X42884311Y37799500D01*
X42884311Y37799501D01*
X42998886Y37830201D01*
X43101613Y37889511D01*
X43185489Y37973387D01*
X43244799Y38076114D01*
X43275499Y38190689D01*
X43275500Y38190689D01*
X43275500Y38309311D01*
X43275499Y38309312D01*
X43274621Y38312587D01*
X43244799Y38423886D01*
X43187352Y38523387D01*
X43185491Y38526610D01*
X43185490Y38526611D01*
X43185489Y38526613D01*
X43101613Y38610489D01*
X43101610Y38610491D01*
X43101609Y38610492D01*
X42998887Y38669799D01*
X42998882Y38669801D01*
X42884311Y38700500D01*
X42884309Y38700500D01*
X42765691Y38700500D01*
X42765689Y38700500D01*
X42651117Y38669801D01*
X42651112Y38669799D01*
X42548390Y38610492D01*
X42464508Y38526610D01*
X42405201Y38423888D01*
X42405199Y38423883D01*
X42374500Y38309312D01*
X6275499Y38309312D01*
X6274621Y38312587D01*
X6244799Y38423886D01*
X6187352Y38523387D01*
X6185491Y38526610D01*
X6185490Y38526611D01*
X6185489Y38526613D01*
X6101613Y38610489D01*
X6101610Y38610491D01*
X6101609Y38610492D01*
X5998887Y38669799D01*
X5998882Y38669801D01*
X5884311Y38700500D01*
X5884309Y38700500D01*
X5765691Y38700500D01*
X5765689Y38700500D01*
X5651117Y38669801D01*
X5651112Y38669799D01*
X5548390Y38610492D01*
X5464508Y38526610D01*
X5405201Y38423888D01*
X5405199Y38423883D01*
X5374500Y38309312D01*
X500000Y38309312D01*
X500000Y41309312D01*
X5374500Y41309312D01*
X5374500Y41190689D01*
X5405199Y41076118D01*
X5405201Y41076113D01*
X5464508Y40973391D01*
X5464509Y40973390D01*
X5464511Y40973387D01*
X5548387Y40889511D01*
X5651114Y40830201D01*
X5651115Y40830201D01*
X5651117Y40830200D01*
X5708402Y40814851D01*
X5765688Y40799501D01*
X5765689Y40799500D01*
X5765691Y40799500D01*
X5884311Y40799500D01*
X5884311Y40799501D01*
X5998886Y40830201D01*
X6101613Y40889511D01*
X6185489Y40973387D01*
X6244799Y41076114D01*
X6275499Y41190689D01*
X6275500Y41190689D01*
X6275500Y41309311D01*
X6275499Y41309312D01*
X6244800Y41423883D01*
X6244798Y41423888D01*
X6185491Y41526610D01*
X6185490Y41526611D01*
X6185489Y41526613D01*
X6101613Y41610489D01*
X6101610Y41610491D01*
X6101609Y41610492D01*
X5998887Y41669799D01*
X5998882Y41669801D01*
X5884311Y41700500D01*
X5884309Y41700500D01*
X5765691Y41700500D01*
X5765689Y41700500D01*
X5651117Y41669801D01*
X5651112Y41669799D01*
X5548390Y41610492D01*
X5464508Y41526610D01*
X5405201Y41423888D01*
X5405199Y41423883D01*
X5374500Y41309312D01*
X500000Y41309312D01*
X500000Y61309312D01*
X5374500Y61309312D01*
X5374500Y61190689D01*
X5405199Y61076118D01*
X5405201Y61076113D01*
X5464508Y60973391D01*
X5464509Y60973390D01*
X5464511Y60973387D01*
X5548387Y60889511D01*
X5651114Y60830201D01*
X5651115Y60830201D01*
X5651117Y60830200D01*
X5708402Y60814851D01*
X5765688Y60799501D01*
X5765689Y60799500D01*
X5765691Y60799500D01*
X5884311Y60799500D01*
X5884311Y60799501D01*
X5998886Y60830201D01*
X6101613Y60889511D01*
X6185489Y60973387D01*
X6244799Y61076114D01*
X6275499Y61190689D01*
X6275500Y61190689D01*
X6275500Y61309311D01*
X6275499Y61309312D01*
X6244800Y61423883D01*
X6244798Y61423888D01*
X6185491Y61526610D01*
X6185490Y61526611D01*
X6185489Y61526613D01*
X6101613Y61610489D01*
X6101610Y61610491D01*
X6101609Y61610492D01*
X5998887Y61669799D01*
X5998882Y61669801D01*
X5884311Y61700500D01*
X5884309Y61700500D01*
X5765691Y61700500D01*
X5765689Y61700500D01*
X5651117Y61669801D01*
X5651112Y61669799D01*
X5548390Y61610492D01*
X5464508Y61526610D01*
X5405201Y61423888D01*
X5405199Y61423883D01*
X5374500Y61309312D01*
X500000Y61309312D01*
X500000Y64309312D01*
X5374500Y64309312D01*
X5374500Y64190689D01*
X5405199Y64076118D01*
X5405201Y64076113D01*
X5464508Y63973391D01*
X5464509Y63973390D01*
X5464511Y63973387D01*
X5548387Y63889511D01*
X5651114Y63830201D01*
X5651115Y63830201D01*
X5651117Y63830200D01*
X5708402Y63814851D01*
X5765688Y63799501D01*
X5765689Y63799500D01*
X5765691Y63799500D01*
X5884311Y63799500D01*
X5884311Y63799501D01*
X5998886Y63830201D01*
X6101613Y63889511D01*
X6185489Y63973387D01*
X6244799Y64076114D01*
X6275499Y64190689D01*
X6275500Y64190689D01*
X6275500Y64309311D01*
X6275499Y64309312D01*
X6244800Y64423883D01*
X6244798Y64423888D01*
X6185491Y64526610D01*
X6185490Y64526611D01*
X6185489Y64526613D01*
X6101613Y64610489D01*
X6101610Y64610491D01*
X6101609Y64610492D01*
X5998887Y64669799D01*
X5998882Y64669801D01*
X5884311Y64700500D01*
X5884309Y64700500D01*
X5765691Y64700500D01*
X5765689Y64700500D01*
X5651117Y64669801D01*
X5651112Y64669799D01*
X5548390Y64610492D01*
X5464508Y64526610D01*
X5405201Y64423888D01*
X5405199Y64423883D01*
X5374500Y64309312D01*
X500000Y64309312D01*
X500000Y67309312D01*
X5374500Y67309312D01*
X5374500Y67190689D01*
X5405199Y67076118D01*
X5405201Y67076113D01*
X5464508Y66973391D01*
X5464509Y66973390D01*
X5464511Y66973387D01*
X5548387Y66889511D01*
X5651114Y66830201D01*
X5651115Y66830201D01*
X5651117Y66830200D01*
X5708402Y66814851D01*
X5765688Y66799501D01*
X5765689Y66799500D01*
X5765691Y66799500D01*
X5884311Y66799500D01*
X5884311Y66799501D01*
X5998886Y66830201D01*
X6101613Y66889511D01*
X6185489Y66973387D01*
X6244799Y67076114D01*
X6275499Y67190689D01*
X6275500Y67190689D01*
X6275500Y67309311D01*
X6275499Y67309312D01*
X6244800Y67423883D01*
X6244798Y67423888D01*
X6185491Y67526610D01*
X6185490Y67526611D01*
X6185489Y67526613D01*
X6101613Y67610489D01*
X6101610Y67610491D01*
X6101609Y67610492D01*
X5998887Y67669799D01*
X5998882Y67669801D01*
X5884311Y67700500D01*
X5884309Y67700500D01*
X5765691Y67700500D01*
X5765689Y67700500D01*
X5651117Y67669801D01*
X5651112Y67669799D01*
X5548390Y67610492D01*
X5464508Y67526610D01*
X5405201Y67423888D01*
X5405199Y67423883D01*
X5374500Y67309312D01*
X500000Y67309312D01*
X500000Y70309312D01*
X5374500Y70309312D01*
X5374500Y70190689D01*
X5405199Y70076118D01*
X5405201Y70076113D01*
X5464508Y69973391D01*
X5464509Y69973390D01*
X5464511Y69973387D01*
X5548387Y69889511D01*
X5651114Y69830201D01*
X5651115Y69830201D01*
X5651117Y69830200D01*
X5708402Y69814851D01*
X5765688Y69799501D01*
X5765689Y69799500D01*
X5765691Y69799500D01*
X5884311Y69799500D01*
X5884311Y69799501D01*
X5998886Y69830201D01*
X6101613Y69889511D01*
X6185489Y69973387D01*
X6244799Y70076114D01*
X6275499Y70190689D01*
X6275500Y70190689D01*
X6275500Y70309311D01*
X6275499Y70309312D01*
X6244800Y70423883D01*
X6244798Y70423888D01*
X6185491Y70526610D01*
X6185490Y70526611D01*
X6185489Y70526613D01*
X6101613Y70610489D01*
X6101610Y70610491D01*
X6101609Y70610492D01*
X5998887Y70669799D01*
X5998882Y70669801D01*
X5884311Y70700500D01*
X5884309Y70700500D01*
X5765691Y70700500D01*
X5765689Y70700500D01*
X5651117Y70669801D01*
X5651112Y70669799D01*
X5548390Y70610492D01*
X5464508Y70526610D01*
X5405201Y70423888D01*
X5405199Y70423883D01*
X5374500Y70309312D01*
X500000Y70309312D01*
X500000Y73309312D01*
X5374500Y73309312D01*
X5374500Y73190689D01*
X5405199Y73076118D01*
X5405201Y73076113D01*
X5464508Y72973391D01*
X5464509Y72973390D01*
X5464511Y72973387D01*
X5548387Y72889511D01*
X5651114Y72830201D01*
X5651115Y72830201D01*
X5651117Y72830200D01*
X5708402Y72814851D01*
X5765688Y72799501D01*
X5765689Y72799500D01*
X5765691Y72799500D01*
X5884311Y72799500D01*
X5884311Y72799501D01*
X5998886Y72830201D01*
X6101613Y72889511D01*
X6185489Y72973387D01*
X6244799Y73076114D01*
X6275499Y73190689D01*
X6275500Y73190689D01*
X6275500Y73309311D01*
X6275499Y73309312D01*
X6244800Y73423883D01*
X6244798Y73423888D01*
X6185491Y73526610D01*
X6185490Y73526611D01*
X6185489Y73526613D01*
X6101613Y73610489D01*
X6101610Y73610491D01*
X6101609Y73610492D01*
X5998887Y73669799D01*
X5998882Y73669801D01*
X5884311Y73700500D01*
X5884309Y73700500D01*
X5765691Y73700500D01*
X5765689Y73700500D01*
X5651117Y73669801D01*
X5651112Y73669799D01*
X5548390Y73610492D01*
X5464508Y73526610D01*
X5405201Y73423888D01*
X5405199Y73423883D01*
X5374500Y73309312D01*
X500000Y73309312D01*
X500000Y76309312D01*
X5374500Y76309312D01*
X5374500Y76190689D01*
X5405199Y76076118D01*
X5405201Y76076113D01*
X5464508Y75973391D01*
X5464509Y75973390D01*
X5464511Y75973387D01*
X5548387Y75889511D01*
X5651114Y75830201D01*
X5651115Y75830201D01*
X5651117Y75830200D01*
X5698466Y75817513D01*
X5765688Y75799501D01*
X5765689Y75799500D01*
X5765691Y75799500D01*
X5884311Y75799500D01*
X5884311Y75799501D01*
X5998886Y75830201D01*
X6101613Y75889511D01*
X6185489Y75973387D01*
X6244799Y76076114D01*
X6275499Y76190689D01*
X6275500Y76190689D01*
X6275500Y76309311D01*
X6275499Y76309312D01*
X6244800Y76423883D01*
X6244798Y76423888D01*
X6185491Y76526610D01*
X6185490Y76526611D01*
X6185489Y76526613D01*
X6101613Y76610489D01*
X6101610Y76610491D01*
X6101609Y76610492D01*
X5998887Y76669799D01*
X5998882Y76669801D01*
X5884311Y76700500D01*
X5884309Y76700500D01*
X5765691Y76700500D01*
X5765689Y76700500D01*
X5651117Y76669801D01*
X5651112Y76669799D01*
X5548390Y76610492D01*
X5464508Y76526610D01*
X5405201Y76423888D01*
X5405199Y76423883D01*
X5374500Y76309312D01*
X500000Y76309312D01*
X500000Y80559312D01*
X2324500Y80559312D01*
X2324500Y80440689D01*
X2355199Y80326118D01*
X2355201Y80326113D01*
X2414508Y80223391D01*
X2414509Y80223390D01*
X2414511Y80223387D01*
X2498387Y80139511D01*
X2601114Y80080201D01*
X2601115Y80080201D01*
X2601117Y80080200D01*
X2658402Y80064851D01*
X2715688Y80049501D01*
X2715689Y80049500D01*
X2715691Y80049500D01*
X2834311Y80049500D01*
X2834311Y80049501D01*
X2948886Y80080201D01*
X3051613Y80139511D01*
X3089929Y80177827D01*
X3142254Y80199500D01*
X3344877Y80199500D01*
X3397203Y80177826D01*
X3859540Y79715489D01*
X3915489Y79659540D01*
X3984011Y79619979D01*
X3984012Y79619979D01*
X3984014Y79619978D01*
X4019416Y79610492D01*
X4060435Y79599501D01*
X4060436Y79599500D01*
X4060438Y79599500D01*
X5378420Y79599500D01*
X5430746Y79577826D01*
X5452420Y79525500D01*
X5442506Y79488500D01*
X5405201Y79423888D01*
X5405199Y79423883D01*
X5374500Y79309312D01*
X5374500Y79190689D01*
X5405199Y79076118D01*
X5405201Y79076113D01*
X5464508Y78973391D01*
X5464509Y78973390D01*
X5464511Y78973387D01*
X5548387Y78889511D01*
X5651114Y78830201D01*
X5651115Y78830201D01*
X5651117Y78830200D01*
X5708402Y78814851D01*
X5765688Y78799501D01*
X5765689Y78799500D01*
X5765691Y78799500D01*
X5884311Y78799500D01*
X5884311Y78799501D01*
X5998886Y78830201D01*
X6101613Y78889511D01*
X6185489Y78973387D01*
X6244799Y79076114D01*
X6275499Y79190689D01*
X6275500Y79190689D01*
X6275500Y79309311D01*
X6275499Y79309312D01*
X6244800Y79423883D01*
X6244798Y79423888D01*
X6207494Y79488500D01*
X6200101Y79544652D01*
X6234580Y79589586D01*
X6271580Y79599500D01*
X10650500Y79599500D01*
X10702826Y79577826D01*
X10724500Y79525500D01*
X10724500Y38740689D01*
X10755199Y38626118D01*
X10755201Y38626113D01*
X10814508Y38523391D01*
X10814509Y38523390D01*
X10814511Y38523387D01*
X10898387Y38439511D01*
X10898389Y38439510D01*
X10898390Y38439509D01*
X11001112Y38380202D01*
X11001114Y38380201D01*
X11001115Y38380201D01*
X11001117Y38380200D01*
X11058402Y38364851D01*
X11115688Y38349501D01*
X11115689Y38349500D01*
X11115691Y38349500D01*
X11284311Y38349500D01*
X11284311Y38349501D01*
X11398886Y38380201D01*
X11501613Y38439511D01*
X11585489Y38523387D01*
X11644799Y38626114D01*
X11675499Y38740689D01*
X11675500Y38740689D01*
X11675500Y38859311D01*
X11675499Y38859312D01*
X11672843Y38869223D01*
X11644799Y38973886D01*
X11637367Y38986759D01*
X11637366Y38986762D01*
X11635413Y38990145D01*
X11627705Y39018912D01*
X43207200Y39018912D01*
X43207200Y38900289D01*
X43237899Y38785718D01*
X43237901Y38785713D01*
X43297208Y38682991D01*
X43297209Y38682990D01*
X43297211Y38682987D01*
X43381087Y38599111D01*
X43483814Y38539801D01*
X43483815Y38539801D01*
X43483817Y38539800D01*
X43520798Y38529891D01*
X43598388Y38509101D01*
X43598389Y38509100D01*
X43598391Y38509100D01*
X43717011Y38509100D01*
X43717011Y38509101D01*
X43831586Y38539801D01*
X43934313Y38599111D01*
X44018189Y38682987D01*
X44077499Y38785714D01*
X44108199Y38900289D01*
X44108200Y38900289D01*
X44108200Y39018911D01*
X44108199Y39018912D01*
X44077500Y39133483D01*
X44077498Y39133488D01*
X44018191Y39236210D01*
X44018190Y39236211D01*
X44018189Y39236213D01*
X43934313Y39320089D01*
X43934310Y39320091D01*
X43934309Y39320092D01*
X43831587Y39379399D01*
X43831582Y39379401D01*
X43717011Y39410100D01*
X43717009Y39410100D01*
X43598391Y39410100D01*
X43598389Y39410100D01*
X43483817Y39379401D01*
X43483812Y39379399D01*
X43381090Y39320092D01*
X43297208Y39236210D01*
X43237901Y39133488D01*
X43237899Y39133483D01*
X43207200Y39018912D01*
X11627705Y39018912D01*
X11625500Y39027142D01*
X11625500Y41309312D01*
X42374500Y41309312D01*
X42374500Y41190689D01*
X42405199Y41076118D01*
X42405201Y41076113D01*
X42464508Y40973391D01*
X42464509Y40973390D01*
X42464511Y40973387D01*
X42548387Y40889511D01*
X42651114Y40830201D01*
X42651115Y40830201D01*
X42651117Y40830200D01*
X42708402Y40814851D01*
X42765688Y40799501D01*
X42765689Y40799500D01*
X42765691Y40799500D01*
X42884311Y40799500D01*
X42884311Y40799501D01*
X42998886Y40830201D01*
X43101613Y40889511D01*
X43185489Y40973387D01*
X43244799Y41076114D01*
X43275499Y41190689D01*
X43275500Y41190689D01*
X43275500Y41309311D01*
X43275499Y41309312D01*
X43244800Y41423883D01*
X43244798Y41423888D01*
X43185491Y41526610D01*
X43185490Y41526611D01*
X43185489Y41526613D01*
X43101613Y41610489D01*
X43101610Y41610491D01*
X43101609Y41610492D01*
X42998887Y41669799D01*
X42998882Y41669801D01*
X42884311Y41700500D01*
X42884309Y41700500D01*
X42765691Y41700500D01*
X42765689Y41700500D01*
X42651117Y41669801D01*
X42651112Y41669799D01*
X42548390Y41610492D01*
X42464508Y41526610D01*
X42405201Y41423888D01*
X42405199Y41423883D01*
X42374500Y41309312D01*
X11625500Y41309312D01*
X11625500Y61309312D01*
X42374500Y61309312D01*
X42374500Y61190689D01*
X42405199Y61076118D01*
X42405201Y61076113D01*
X42464508Y60973391D01*
X42464509Y60973390D01*
X42464511Y60973387D01*
X42548387Y60889511D01*
X42651114Y60830201D01*
X42651115Y60830201D01*
X42651117Y60830200D01*
X42708402Y60814851D01*
X42765688Y60799501D01*
X42765689Y60799500D01*
X42765691Y60799500D01*
X42884311Y60799500D01*
X42884311Y60799501D01*
X42998886Y60830201D01*
X43101613Y60889511D01*
X43185489Y60973387D01*
X43244799Y61076114D01*
X43275499Y61190689D01*
X43275500Y61190689D01*
X43275500Y61309311D01*
X43275499Y61309312D01*
X43244800Y61423883D01*
X43244798Y61423888D01*
X43185491Y61526610D01*
X43185490Y61526611D01*
X43185489Y61526613D01*
X43101613Y61610489D01*
X43101610Y61610491D01*
X43101609Y61610492D01*
X42998887Y61669799D01*
X42998882Y61669801D01*
X42884311Y61700500D01*
X42884309Y61700500D01*
X42765691Y61700500D01*
X42765689Y61700500D01*
X42651117Y61669801D01*
X42651112Y61669799D01*
X42548390Y61610492D01*
X42464508Y61526610D01*
X42405201Y61423888D01*
X42405199Y61423883D01*
X42374500Y61309312D01*
X11625500Y61309312D01*
X11625500Y67309312D01*
X42374500Y67309312D01*
X42374500Y67190689D01*
X42405199Y67076118D01*
X42405201Y67076113D01*
X42464508Y66973391D01*
X42464509Y66973390D01*
X42464511Y66973387D01*
X42548387Y66889511D01*
X42651114Y66830201D01*
X42651115Y66830201D01*
X42651117Y66830200D01*
X42708402Y66814851D01*
X42765688Y66799501D01*
X42765689Y66799500D01*
X42765691Y66799500D01*
X42884311Y66799500D01*
X42884311Y66799501D01*
X42998886Y66830201D01*
X43101613Y66889511D01*
X43185489Y66973387D01*
X43244799Y67076114D01*
X43275499Y67190689D01*
X43275500Y67190689D01*
X43275500Y67309311D01*
X43275499Y67309312D01*
X43244800Y67423883D01*
X43244798Y67423888D01*
X43185491Y67526610D01*
X43185490Y67526611D01*
X43185489Y67526613D01*
X43101613Y67610489D01*
X43101610Y67610491D01*
X43101609Y67610492D01*
X42998887Y67669799D01*
X42998882Y67669801D01*
X42884311Y67700500D01*
X42884309Y67700500D01*
X42765691Y67700500D01*
X42765689Y67700500D01*
X42651117Y67669801D01*
X42651112Y67669799D01*
X42548390Y67610492D01*
X42464508Y67526610D01*
X42405201Y67423888D01*
X42405199Y67423883D01*
X42374500Y67309312D01*
X11625500Y67309312D01*
X11625500Y73309312D01*
X42374500Y73309312D01*
X42374500Y73190689D01*
X42405199Y73076118D01*
X42405201Y73076113D01*
X42464508Y72973391D01*
X42464509Y72973390D01*
X42464511Y72973387D01*
X42548387Y72889511D01*
X42651114Y72830201D01*
X42651115Y72830201D01*
X42651117Y72830200D01*
X42708402Y72814851D01*
X42765688Y72799501D01*
X42765689Y72799500D01*
X42765691Y72799500D01*
X42884311Y72799500D01*
X42884311Y72799501D01*
X42998886Y72830201D01*
X43101613Y72889511D01*
X43185489Y72973387D01*
X43244799Y73076114D01*
X43275499Y73190689D01*
X43275500Y73190689D01*
X43275500Y73309311D01*
X43275499Y73309312D01*
X43244800Y73423883D01*
X43244798Y73423888D01*
X43185491Y73526610D01*
X43185490Y73526611D01*
X43185489Y73526613D01*
X43101613Y73610489D01*
X43101610Y73610491D01*
X43101609Y73610492D01*
X42998887Y73669799D01*
X42998882Y73669801D01*
X42884311Y73700500D01*
X42884309Y73700500D01*
X42765691Y73700500D01*
X42765689Y73700500D01*
X42651117Y73669801D01*
X42651112Y73669799D01*
X42548390Y73610492D01*
X42464508Y73526610D01*
X42405201Y73423888D01*
X42405199Y73423883D01*
X42374500Y73309312D01*
X11625500Y73309312D01*
X11625500Y75600212D01*
X41193300Y75600212D01*
X41193300Y75481589D01*
X41223999Y75367018D01*
X41224001Y75367013D01*
X41283308Y75264291D01*
X41283309Y75264290D01*
X41283311Y75264287D01*
X41367187Y75180411D01*
X41367189Y75180410D01*
X41367190Y75180409D01*
X41469912Y75121102D01*
X41469914Y75121101D01*
X41469915Y75121101D01*
X41469917Y75121100D01*
X41527202Y75105751D01*
X41584488Y75090401D01*
X41584489Y75090400D01*
X41584491Y75090400D01*
X41703111Y75090400D01*
X41703111Y75090401D01*
X41817686Y75121101D01*
X41920413Y75180411D01*
X42004289Y75264287D01*
X42063599Y75367014D01*
X42094299Y75481589D01*
X42094300Y75481589D01*
X42094300Y75600211D01*
X42094299Y75600212D01*
X42063600Y75714783D01*
X42063598Y75714788D01*
X42004291Y75817510D01*
X42004290Y75817511D01*
X42004289Y75817513D01*
X41920413Y75901389D01*
X41920410Y75901391D01*
X41920409Y75901392D01*
X41817687Y75960699D01*
X41817682Y75960701D01*
X41703111Y75991400D01*
X41703109Y75991400D01*
X41584491Y75991400D01*
X41584489Y75991400D01*
X41469917Y75960701D01*
X41469912Y75960699D01*
X41367190Y75901392D01*
X41283308Y75817510D01*
X41224001Y75714788D01*
X41223999Y75714783D01*
X41193300Y75600212D01*
X11625500Y75600212D01*
X11625500Y76309312D01*
X42374500Y76309312D01*
X42374500Y76190689D01*
X42405199Y76076118D01*
X42405201Y76076113D01*
X42464508Y75973391D01*
X42464509Y75973390D01*
X42464511Y75973387D01*
X42548387Y75889511D01*
X42651114Y75830201D01*
X42651115Y75830201D01*
X42651117Y75830200D01*
X42698466Y75817513D01*
X42765688Y75799501D01*
X42765689Y75799500D01*
X42765691Y75799500D01*
X42884311Y75799500D01*
X42884311Y75799501D01*
X42998886Y75830201D01*
X43101613Y75889511D01*
X43185489Y75973387D01*
X43244799Y76076114D01*
X43275499Y76190689D01*
X43275500Y76190689D01*
X43275500Y76309311D01*
X43275499Y76309312D01*
X43244800Y76423883D01*
X43244798Y76423888D01*
X43185491Y76526610D01*
X43185490Y76526611D01*
X43185489Y76526613D01*
X43101613Y76610489D01*
X43101610Y76610491D01*
X43101609Y76610492D01*
X42998887Y76669799D01*
X42998882Y76669801D01*
X42884311Y76700500D01*
X42884309Y76700500D01*
X42765691Y76700500D01*
X42765689Y76700500D01*
X42651117Y76669801D01*
X42651112Y76669799D01*
X42548390Y76610492D01*
X42464508Y76526610D01*
X42405201Y76423888D01*
X42405199Y76423883D01*
X42374500Y76309312D01*
X11625500Y76309312D01*
X11625500Y79572860D01*
X11635414Y79609860D01*
X11644799Y79626114D01*
X11675499Y79740689D01*
X11675500Y79740689D01*
X11675500Y79859311D01*
X11675499Y79859312D01*
X11644800Y79973883D01*
X11644796Y79973892D01*
X11635414Y79990143D01*
X11625500Y80027142D01*
X11625500Y84925500D01*
X11647174Y84977826D01*
X11699500Y84999500D01*
X44170568Y84999500D01*
X44222894Y84977826D01*
X44244568Y84925500D01*
X44242046Y84906347D01*
X44226200Y84847212D01*
X44226200Y84728589D01*
X44256899Y84614018D01*
X44256901Y84614013D01*
X44316208Y84511291D01*
X44316209Y84511290D01*
X44316211Y84511287D01*
X44400087Y84427411D01*
X44502814Y84368101D01*
X44502815Y84368101D01*
X44502817Y84368100D01*
X44560102Y84352751D01*
X44617388Y84337401D01*
X44617389Y84337400D01*
X44617391Y84337400D01*
X44736011Y84337400D01*
X44736011Y84337401D01*
X44850586Y84368101D01*
X44953313Y84427411D01*
X45037189Y84511287D01*
X45096499Y84614014D01*
X45127199Y84728589D01*
X45127200Y84728589D01*
X45127200Y84847211D01*
X45127199Y84847212D01*
X45111354Y84906347D01*
X45118746Y84962499D01*
X45163679Y84996978D01*
X45182832Y84999500D01*
X47650500Y84999500D01*
X47702826Y84977826D01*
X47724500Y84925500D01*
X47724500Y38740689D01*
X47755199Y38626118D01*
X47755201Y38626113D01*
X47814508Y38523391D01*
X47814509Y38523390D01*
X47814511Y38523387D01*
X47898387Y38439511D01*
X47898389Y38439510D01*
X47898390Y38439509D01*
X48001112Y38380202D01*
X48001114Y38380201D01*
X48001115Y38380201D01*
X48001117Y38380200D01*
X48058402Y38364851D01*
X48115688Y38349501D01*
X48115689Y38349500D01*
X48115691Y38349500D01*
X48284311Y38349500D01*
X48284311Y38349501D01*
X48398886Y38380201D01*
X48501613Y38439511D01*
X48585489Y38523387D01*
X48644799Y38626114D01*
X48650801Y38648512D01*
X77633100Y38648512D01*
X77633100Y38529889D01*
X77663799Y38415318D01*
X77663801Y38415313D01*
X77723108Y38312591D01*
X77723109Y38312590D01*
X77723111Y38312587D01*
X77806987Y38228711D01*
X77806989Y38228710D01*
X77806990Y38228709D01*
X77872839Y38190691D01*
X77909714Y38169401D01*
X77909715Y38169401D01*
X77909717Y38169400D01*
X77967002Y38154051D01*
X78024288Y38138701D01*
X78024289Y38138700D01*
X78024291Y38138700D01*
X78142911Y38138700D01*
X78142911Y38138701D01*
X78257486Y38169401D01*
X78360213Y38228711D01*
X78398529Y38267027D01*
X78450854Y38288700D01*
X88250577Y38288700D01*
X88302903Y38267026D01*
X89158493Y37411436D01*
X89180167Y37359110D01*
X89158493Y37306784D01*
X89106167Y37285110D01*
X89087022Y37287630D01*
X89086016Y37287900D01*
X89086009Y37287900D01*
X88967391Y37287900D01*
X88967389Y37287900D01*
X88852817Y37257201D01*
X88852812Y37257199D01*
X88750090Y37197892D01*
X88666208Y37114010D01*
X88606901Y37011288D01*
X88606899Y37011283D01*
X88576200Y36896712D01*
X88576200Y36778089D01*
X88606899Y36663518D01*
X88606901Y36663513D01*
X88666208Y36560791D01*
X88666209Y36560790D01*
X88666211Y36560787D01*
X88750087Y36476911D01*
X88852814Y36417601D01*
X88852815Y36417601D01*
X88852817Y36417600D01*
X88910102Y36402251D01*
X88967388Y36386901D01*
X88967389Y36386900D01*
X88967391Y36386900D01*
X89021577Y36386900D01*
X89073903Y36365226D01*
X96373640Y29065489D01*
X96429589Y29009540D01*
X96498111Y28969979D01*
X96498112Y28969979D01*
X96498114Y28969978D01*
X96536324Y28959740D01*
X96574535Y28949501D01*
X96574536Y28949500D01*
X96574538Y28949500D01*
X126457746Y28949500D01*
X126510071Y28927827D01*
X126548387Y28889511D01*
X126651114Y28830201D01*
X126651115Y28830201D01*
X126651117Y28830200D01*
X126708402Y28814851D01*
X126765688Y28799501D01*
X126765689Y28799500D01*
X126765691Y28799500D01*
X126884311Y28799500D01*
X126884311Y28799501D01*
X126998886Y28830201D01*
X127101613Y28889511D01*
X127185489Y28973387D01*
X127244799Y29076114D01*
X127275499Y29190689D01*
X127275500Y29190689D01*
X127275500Y29309311D01*
X127275499Y29309312D01*
X127244800Y29423883D01*
X127244798Y29423888D01*
X127185491Y29526610D01*
X127185490Y29526611D01*
X127185489Y29526613D01*
X127101613Y29610489D01*
X127101610Y29610491D01*
X127101609Y29610492D01*
X126998887Y29669799D01*
X126998882Y29669801D01*
X126884311Y29700500D01*
X126884309Y29700500D01*
X126765691Y29700500D01*
X126765689Y29700500D01*
X126651117Y29669801D01*
X126651112Y29669799D01*
X126548390Y29610492D01*
X126510071Y29572173D01*
X126457746Y29550500D01*
X96769223Y29550500D01*
X96716897Y29572174D01*
X93979759Y32309312D01*
X126374500Y32309312D01*
X126374500Y32190689D01*
X126405199Y32076118D01*
X126405201Y32076113D01*
X126464508Y31973391D01*
X126464509Y31973390D01*
X126464511Y31973387D01*
X126548387Y31889511D01*
X126651114Y31830201D01*
X126651115Y31830201D01*
X126651117Y31830200D01*
X126708402Y31814851D01*
X126765688Y31799501D01*
X126765689Y31799500D01*
X126765691Y31799500D01*
X126884311Y31799500D01*
X126884311Y31799501D01*
X126998886Y31830201D01*
X127101613Y31889511D01*
X127185489Y31973387D01*
X127244799Y32076114D01*
X127275499Y32190689D01*
X127275500Y32190689D01*
X127275500Y32309311D01*
X127275499Y32309312D01*
X127244800Y32423883D01*
X127244798Y32423888D01*
X127185491Y32526610D01*
X127185490Y32526611D01*
X127185489Y32526613D01*
X127101613Y32610489D01*
X127101610Y32610491D01*
X127101609Y32610492D01*
X126998887Y32669799D01*
X126998882Y32669801D01*
X126884311Y32700500D01*
X126884309Y32700500D01*
X126765691Y32700500D01*
X126765689Y32700500D01*
X126651117Y32669801D01*
X126651112Y32669799D01*
X126548390Y32610492D01*
X126464508Y32526610D01*
X126405201Y32423888D01*
X126405199Y32423883D01*
X126374500Y32309312D01*
X93979759Y32309312D01*
X89498874Y36790197D01*
X89477200Y36842523D01*
X89477200Y36896711D01*
X89476931Y36897714D01*
X89476999Y36898235D01*
X89476567Y36901520D01*
X89477447Y36901636D01*
X89484323Y36953867D01*
X89529255Y36988346D01*
X89585408Y36980954D01*
X89600735Y36969194D01*
X91504440Y35065489D01*
X91560389Y35009540D01*
X91628911Y34969979D01*
X91628912Y34969979D01*
X91628914Y34969978D01*
X91667124Y34959740D01*
X91705335Y34949501D01*
X91705336Y34949500D01*
X91705338Y34949500D01*
X126457746Y34949500D01*
X126510071Y34927827D01*
X126548387Y34889511D01*
X126651114Y34830201D01*
X126651115Y34830201D01*
X126651117Y34830200D01*
X126708402Y34814851D01*
X126765688Y34799501D01*
X126765689Y34799500D01*
X126765691Y34799500D01*
X126884311Y34799500D01*
X126884311Y34799501D01*
X126998886Y34830201D01*
X127101613Y34889511D01*
X127185489Y34973387D01*
X127244799Y35076114D01*
X127275499Y35190689D01*
X127275500Y35190689D01*
X127275500Y35309311D01*
X127275499Y35309312D01*
X127244800Y35423883D01*
X127244798Y35423888D01*
X127185491Y35526610D01*
X127185490Y35526611D01*
X127185489Y35526613D01*
X127101613Y35610489D01*
X127101610Y35610491D01*
X127101609Y35610492D01*
X126998887Y35669799D01*
X126998882Y35669801D01*
X126884311Y35700500D01*
X126884309Y35700500D01*
X126765691Y35700500D01*
X126765689Y35700500D01*
X126651117Y35669801D01*
X126651112Y35669799D01*
X126548390Y35610492D01*
X126510071Y35572173D01*
X126457746Y35550500D01*
X91900023Y35550500D01*
X91847697Y35572174D01*
X89746697Y37673174D01*
X89725023Y37725500D01*
X89746697Y37777826D01*
X89799023Y37799500D01*
X89884311Y37799500D01*
X89884311Y37799501D01*
X89998886Y37830201D01*
X90101613Y37889511D01*
X90185489Y37973387D01*
X90244799Y38076114D01*
X90275499Y38190689D01*
X90275500Y38190689D01*
X90275500Y38309311D01*
X90275499Y38309312D01*
X90274621Y38312587D01*
X90244799Y38423886D01*
X90187352Y38523387D01*
X90185491Y38526610D01*
X90185490Y38526611D01*
X90185489Y38526613D01*
X90101613Y38610489D01*
X90101610Y38610491D01*
X90101609Y38610492D01*
X89998887Y38669799D01*
X89998882Y38669801D01*
X89884311Y38700500D01*
X89884309Y38700500D01*
X89765691Y38700500D01*
X89765689Y38700500D01*
X89651117Y38669801D01*
X89651112Y38669799D01*
X89548390Y38610492D01*
X89464508Y38526610D01*
X89405201Y38423888D01*
X89405199Y38423883D01*
X89374500Y38309312D01*
X89374500Y38224023D01*
X89352826Y38171697D01*
X89300500Y38150023D01*
X89248174Y38171697D01*
X88590211Y38829660D01*
X88555561Y38849665D01*
X88521690Y38869221D01*
X88521685Y38869223D01*
X88445264Y38889700D01*
X88445262Y38889700D01*
X78450854Y38889700D01*
X78398529Y38911373D01*
X78360213Y38949689D01*
X78360210Y38949691D01*
X78360209Y38949692D01*
X78257487Y39008999D01*
X78257482Y39009001D01*
X78142911Y39039700D01*
X78142909Y39039700D01*
X78024291Y39039700D01*
X78024289Y39039700D01*
X77909717Y39009001D01*
X77909712Y39008999D01*
X77806990Y38949692D01*
X77723108Y38865810D01*
X77663801Y38763088D01*
X77663799Y38763083D01*
X77633100Y38648512D01*
X48650801Y38648512D01*
X48657232Y38672512D01*
X48675499Y38740689D01*
X48675500Y38740689D01*
X48675500Y38859311D01*
X48675499Y38859312D01*
X48672843Y38869223D01*
X48644799Y38973886D01*
X48644796Y38973892D01*
X48635414Y38990143D01*
X48625500Y39027142D01*
X48625500Y41309312D01*
X89374500Y41309312D01*
X89374500Y41190689D01*
X89405199Y41076118D01*
X89405201Y41076113D01*
X89464508Y40973391D01*
X89464509Y40973390D01*
X89464511Y40973387D01*
X89548387Y40889511D01*
X89651114Y40830201D01*
X89651115Y40830201D01*
X89651117Y40830200D01*
X89708402Y40814851D01*
X89765688Y40799501D01*
X89765689Y40799500D01*
X89765691Y40799500D01*
X89884311Y40799500D01*
X89884311Y40799501D01*
X89998886Y40830201D01*
X90101613Y40889511D01*
X90185489Y40973387D01*
X90244799Y41076114D01*
X90275499Y41190689D01*
X90275500Y41190689D01*
X90275500Y41309311D01*
X90275499Y41309312D01*
X90244800Y41423883D01*
X90244798Y41423888D01*
X90185491Y41526610D01*
X90185490Y41526611D01*
X90185489Y41526613D01*
X90101613Y41610489D01*
X90101610Y41610491D01*
X90101609Y41610492D01*
X89998887Y41669799D01*
X89998882Y41669801D01*
X89884311Y41700500D01*
X89884309Y41700500D01*
X89765691Y41700500D01*
X89765689Y41700500D01*
X89651117Y41669801D01*
X89651112Y41669799D01*
X89548390Y41610492D01*
X89464508Y41526610D01*
X89405201Y41423888D01*
X89405199Y41423883D01*
X89374500Y41309312D01*
X48625500Y41309312D01*
X48625500Y43028612D01*
X71543800Y43028612D01*
X71543800Y42909989D01*
X71574499Y42795418D01*
X71574501Y42795413D01*
X71633808Y42692691D01*
X71633809Y42692690D01*
X71633811Y42692687D01*
X71717687Y42608811D01*
X71820414Y42549501D01*
X71820415Y42549501D01*
X71820417Y42549500D01*
X71877702Y42534151D01*
X71934988Y42518801D01*
X71934989Y42518800D01*
X71934991Y42518800D01*
X72053611Y42518800D01*
X72053611Y42518801D01*
X72168186Y42549501D01*
X72270913Y42608811D01*
X72354789Y42692687D01*
X72414099Y42795414D01*
X72444799Y42909989D01*
X72444800Y42909989D01*
X72444800Y43028611D01*
X72444799Y43028612D01*
X72414100Y43143183D01*
X72414098Y43143188D01*
X72354791Y43245910D01*
X72354790Y43245911D01*
X72354789Y43245913D01*
X72270913Y43329789D01*
X72270910Y43329791D01*
X72270909Y43329792D01*
X72168187Y43389099D01*
X72168182Y43389101D01*
X72053611Y43419800D01*
X72053609Y43419800D01*
X71934991Y43419800D01*
X71934989Y43419800D01*
X71820417Y43389101D01*
X71820412Y43389099D01*
X71717690Y43329792D01*
X71633808Y43245910D01*
X71574501Y43143188D01*
X71574499Y43143183D01*
X71543800Y43028612D01*
X48625500Y43028612D01*
X48625500Y50411912D01*
X74165600Y50411912D01*
X74165600Y50293289D01*
X74196299Y50178718D01*
X74196301Y50178713D01*
X74255608Y50075991D01*
X74255609Y50075990D01*
X74255611Y50075987D01*
X74339487Y49992111D01*
X74442214Y49932801D01*
X74442215Y49932801D01*
X74442217Y49932800D01*
X74499502Y49917451D01*
X74556788Y49902101D01*
X74556789Y49902100D01*
X74556791Y49902100D01*
X74675411Y49902100D01*
X74675411Y49902101D01*
X74789986Y49932801D01*
X74892713Y49992111D01*
X74976589Y50075987D01*
X75035899Y50178714D01*
X75066599Y50293289D01*
X75066600Y50293289D01*
X75066600Y50411911D01*
X75066599Y50411912D01*
X75035900Y50526483D01*
X75035898Y50526488D01*
X74976591Y50629210D01*
X74976590Y50629211D01*
X74976589Y50629213D01*
X74892713Y50713089D01*
X74892710Y50713091D01*
X74892709Y50713092D01*
X74789987Y50772399D01*
X74789982Y50772401D01*
X74675411Y50803100D01*
X74675409Y50803100D01*
X74556791Y50803100D01*
X74556789Y50803100D01*
X74442217Y50772401D01*
X74442212Y50772399D01*
X74339490Y50713092D01*
X74255608Y50629210D01*
X74196301Y50526488D01*
X74196299Y50526483D01*
X74165600Y50411912D01*
X48625500Y50411912D01*
X48625500Y61309312D01*
X89374500Y61309312D01*
X89374500Y61190689D01*
X89405199Y61076118D01*
X89405201Y61076113D01*
X89464508Y60973391D01*
X89464509Y60973390D01*
X89464511Y60973387D01*
X89548387Y60889511D01*
X89651114Y60830201D01*
X89651115Y60830201D01*
X89651117Y60830200D01*
X89708402Y60814851D01*
X89765688Y60799501D01*
X89765689Y60799500D01*
X89765691Y60799500D01*
X89884311Y60799500D01*
X89884311Y60799501D01*
X89998886Y60830201D01*
X90101613Y60889511D01*
X90185489Y60973387D01*
X90244799Y61076114D01*
X90275499Y61190689D01*
X90275500Y61190689D01*
X90275500Y61309311D01*
X90275499Y61309312D01*
X90244800Y61423883D01*
X90244798Y61423888D01*
X90185491Y61526610D01*
X90185490Y61526611D01*
X90185489Y61526613D01*
X90101613Y61610489D01*
X90101610Y61610491D01*
X90101609Y61610492D01*
X89998887Y61669799D01*
X89998882Y61669801D01*
X89884311Y61700500D01*
X89884309Y61700500D01*
X89765691Y61700500D01*
X89765689Y61700500D01*
X89651117Y61669801D01*
X89651112Y61669799D01*
X89548390Y61610492D01*
X89464508Y61526610D01*
X89405201Y61423888D01*
X89405199Y61423883D01*
X89374500Y61309312D01*
X48625500Y61309312D01*
X48625500Y64309312D01*
X89374500Y64309312D01*
X89374500Y64190689D01*
X89405199Y64076118D01*
X89405201Y64076113D01*
X89464508Y63973391D01*
X89464509Y63973390D01*
X89464511Y63973387D01*
X89548387Y63889511D01*
X89651114Y63830201D01*
X89651115Y63830201D01*
X89651117Y63830200D01*
X89708402Y63814851D01*
X89765688Y63799501D01*
X89765689Y63799500D01*
X89765691Y63799500D01*
X89884311Y63799500D01*
X89884311Y63799501D01*
X89998886Y63830201D01*
X90101613Y63889511D01*
X90185489Y63973387D01*
X90244799Y64076114D01*
X90275499Y64190689D01*
X90275500Y64190689D01*
X90275500Y64309311D01*
X90275499Y64309312D01*
X90244800Y64423883D01*
X90244798Y64423888D01*
X90185491Y64526610D01*
X90185490Y64526611D01*
X90185489Y64526613D01*
X90101613Y64610489D01*
X90101610Y64610491D01*
X90101609Y64610492D01*
X89998887Y64669799D01*
X89998882Y64669801D01*
X89884311Y64700500D01*
X89884309Y64700500D01*
X89765691Y64700500D01*
X89765689Y64700500D01*
X89651117Y64669801D01*
X89651112Y64669799D01*
X89548390Y64610492D01*
X89464508Y64526610D01*
X89405201Y64423888D01*
X89405199Y64423883D01*
X89374500Y64309312D01*
X48625500Y64309312D01*
X48625500Y67309312D01*
X89374500Y67309312D01*
X89374500Y67190689D01*
X89405199Y67076118D01*
X89405201Y67076113D01*
X89464508Y66973391D01*
X89464509Y66973390D01*
X89464511Y66973387D01*
X89548387Y66889511D01*
X89651114Y66830201D01*
X89651115Y66830201D01*
X89651117Y66830200D01*
X89708402Y66814851D01*
X89765688Y66799501D01*
X89765689Y66799500D01*
X89765691Y66799500D01*
X89884311Y66799500D01*
X89884311Y66799501D01*
X89998886Y66830201D01*
X90101613Y66889511D01*
X90185489Y66973387D01*
X90244799Y67076114D01*
X90275499Y67190689D01*
X90275500Y67190689D01*
X90275500Y67309311D01*
X90275499Y67309312D01*
X90244800Y67423883D01*
X90244798Y67423888D01*
X90185491Y67526610D01*
X90185490Y67526611D01*
X90185489Y67526613D01*
X90101613Y67610489D01*
X90101610Y67610491D01*
X90101609Y67610492D01*
X89998887Y67669799D01*
X89998882Y67669801D01*
X89884311Y67700500D01*
X89884309Y67700500D01*
X89765691Y67700500D01*
X89765689Y67700500D01*
X89651117Y67669801D01*
X89651112Y67669799D01*
X89548390Y67610492D01*
X89464508Y67526610D01*
X89405201Y67423888D01*
X89405199Y67423883D01*
X89374500Y67309312D01*
X48625500Y67309312D01*
X48625500Y73309312D01*
X89374500Y73309312D01*
X89374500Y73190689D01*
X89405199Y73076118D01*
X89405201Y73076113D01*
X89464508Y72973391D01*
X89464509Y72973390D01*
X89464511Y72973387D01*
X89548387Y72889511D01*
X89651114Y72830201D01*
X89651115Y72830201D01*
X89651117Y72830200D01*
X89708402Y72814851D01*
X89765688Y72799501D01*
X89765689Y72799500D01*
X89765691Y72799500D01*
X89884311Y72799500D01*
X89884311Y72799501D01*
X89998886Y72830201D01*
X90101613Y72889511D01*
X90185489Y72973387D01*
X90244799Y73076114D01*
X90275499Y73190689D01*
X90275500Y73190689D01*
X90275500Y73309311D01*
X90275499Y73309312D01*
X90244800Y73423883D01*
X90244798Y73423888D01*
X90185491Y73526610D01*
X90185490Y73526611D01*
X90185489Y73526613D01*
X90101613Y73610489D01*
X90101610Y73610491D01*
X90101609Y73610492D01*
X89998887Y73669799D01*
X89998882Y73669801D01*
X89884311Y73700500D01*
X89884309Y73700500D01*
X89765691Y73700500D01*
X89765689Y73700500D01*
X89651117Y73669801D01*
X89651112Y73669799D01*
X89548390Y73610492D01*
X89464508Y73526610D01*
X89405201Y73423888D01*
X89405199Y73423883D01*
X89374500Y73309312D01*
X48625500Y73309312D01*
X48625500Y75022912D01*
X83786900Y75022912D01*
X83786900Y74904289D01*
X83817599Y74789718D01*
X83817601Y74789713D01*
X83876908Y74686991D01*
X83876909Y74686990D01*
X83876911Y74686987D01*
X83960787Y74603111D01*
X84063514Y74543801D01*
X84063515Y74543801D01*
X84063517Y74543800D01*
X84120802Y74528451D01*
X84178088Y74513101D01*
X84178089Y74513100D01*
X84178091Y74513100D01*
X84296711Y74513100D01*
X84296711Y74513101D01*
X84411286Y74543801D01*
X84514013Y74603111D01*
X84597889Y74686987D01*
X84657199Y74789714D01*
X84687899Y74904289D01*
X84687900Y74904289D01*
X84687900Y75022911D01*
X84687899Y75022912D01*
X84657200Y75137483D01*
X84657198Y75137488D01*
X84597891Y75240210D01*
X84597890Y75240211D01*
X84597889Y75240213D01*
X84514013Y75324089D01*
X84514010Y75324091D01*
X84514009Y75324092D01*
X84411287Y75383399D01*
X84411282Y75383401D01*
X84296711Y75414100D01*
X84296709Y75414100D01*
X84178091Y75414100D01*
X84178089Y75414100D01*
X84063517Y75383401D01*
X84063512Y75383399D01*
X83960790Y75324092D01*
X83876908Y75240210D01*
X83817601Y75137488D01*
X83817599Y75137483D01*
X83786900Y75022912D01*
X48625500Y75022912D01*
X48625500Y79572860D01*
X48635414Y79609860D01*
X48644799Y79626114D01*
X48675499Y79740689D01*
X48675500Y79740689D01*
X48675500Y79859311D01*
X48675499Y79859312D01*
X48644800Y79973883D01*
X48644796Y79973892D01*
X48635414Y79990143D01*
X48625500Y80027142D01*
X48625500Y84925500D01*
X48647174Y84977826D01*
X48699500Y84999500D01*
X65565893Y84999500D01*
X65590656Y85006136D01*
X65630847Y85016905D01*
X65669152Y85016905D01*
X65706987Y85006767D01*
X65734106Y84999500D01*
X65734107Y84999500D01*
X65734108Y84999500D01*
X94650500Y84999500D01*
X94702826Y84977826D01*
X94724500Y84925500D01*
X94724500Y38740689D01*
X94755199Y38626118D01*
X94755201Y38626113D01*
X94814508Y38523391D01*
X94814509Y38523390D01*
X94814511Y38523387D01*
X94898387Y38439511D01*
X94898389Y38439510D01*
X94898390Y38439509D01*
X95001112Y38380202D01*
X95001114Y38380201D01*
X95001115Y38380201D01*
X95001117Y38380200D01*
X95058402Y38364851D01*
X95115688Y38349501D01*
X95115689Y38349500D01*
X95115691Y38349500D01*
X95284311Y38349500D01*
X95284311Y38349501D01*
X95398886Y38380201D01*
X95501613Y38439511D01*
X95585489Y38523387D01*
X95644799Y38626114D01*
X95675499Y38740689D01*
X95675500Y38740689D01*
X95675500Y38859311D01*
X95675499Y38859312D01*
X95672843Y38869223D01*
X95644799Y38973886D01*
X95644796Y38973892D01*
X95635414Y38990143D01*
X95625500Y39027142D01*
X95625500Y41309312D01*
X126374500Y41309312D01*
X126374500Y41190689D01*
X126405199Y41076118D01*
X126405201Y41076113D01*
X126464508Y40973391D01*
X126464509Y40973390D01*
X126464511Y40973387D01*
X126548387Y40889511D01*
X126651114Y40830201D01*
X126651115Y40830201D01*
X126651117Y40830200D01*
X126708402Y40814851D01*
X126765688Y40799501D01*
X126765689Y40799500D01*
X126765691Y40799500D01*
X126884311Y40799500D01*
X126884311Y40799501D01*
X126998886Y40830201D01*
X127101613Y40889511D01*
X127185489Y40973387D01*
X127244799Y41076114D01*
X127275499Y41190689D01*
X127275500Y41190689D01*
X127275500Y41309311D01*
X127275499Y41309312D01*
X127244800Y41423883D01*
X127244798Y41423888D01*
X127185491Y41526610D01*
X127185490Y41526611D01*
X127185489Y41526613D01*
X127101613Y41610489D01*
X127101610Y41610491D01*
X127101609Y41610492D01*
X126998887Y41669799D01*
X126998882Y41669801D01*
X126884311Y41700500D01*
X126884309Y41700500D01*
X126765691Y41700500D01*
X126765689Y41700500D01*
X126651117Y41669801D01*
X126651112Y41669799D01*
X126548390Y41610492D01*
X126464508Y41526610D01*
X126405201Y41423888D01*
X126405199Y41423883D01*
X126374500Y41309312D01*
X95625500Y41309312D01*
X95625500Y61309312D01*
X126374500Y61309312D01*
X126374500Y61190689D01*
X126405199Y61076118D01*
X126405201Y61076113D01*
X126464508Y60973391D01*
X126464509Y60973390D01*
X126464511Y60973387D01*
X126548387Y60889511D01*
X126651114Y60830201D01*
X126651115Y60830201D01*
X126651117Y60830200D01*
X126708402Y60814851D01*
X126765688Y60799501D01*
X126765689Y60799500D01*
X126765691Y60799500D01*
X126884311Y60799500D01*
X126884311Y60799501D01*
X126998886Y60830201D01*
X127101613Y60889511D01*
X127185489Y60973387D01*
X127244799Y61076114D01*
X127275499Y61190689D01*
X127275500Y61190689D01*
X127275500Y61309311D01*
X127275499Y61309312D01*
X127244800Y61423883D01*
X127244798Y61423888D01*
X127185491Y61526610D01*
X127185490Y61526611D01*
X127185489Y61526613D01*
X127101613Y61610489D01*
X127101610Y61610491D01*
X127101609Y61610492D01*
X126998887Y61669799D01*
X126998882Y61669801D01*
X126884311Y61700500D01*
X126884309Y61700500D01*
X126765691Y61700500D01*
X126765689Y61700500D01*
X126651117Y61669801D01*
X126651112Y61669799D01*
X126548390Y61610492D01*
X126464508Y61526610D01*
X126405201Y61423888D01*
X126405199Y61423883D01*
X126374500Y61309312D01*
X95625500Y61309312D01*
X95625500Y64309312D01*
X126374500Y64309312D01*
X126374500Y64190689D01*
X126405199Y64076118D01*
X126405201Y64076113D01*
X126464508Y63973391D01*
X126464509Y63973390D01*
X126464511Y63973387D01*
X126548387Y63889511D01*
X126651114Y63830201D01*
X126651115Y63830201D01*
X126651117Y63830200D01*
X126708402Y63814851D01*
X126765688Y63799501D01*
X126765689Y63799500D01*
X126765691Y63799500D01*
X126884311Y63799500D01*
X126884311Y63799501D01*
X126998886Y63830201D01*
X127101613Y63889511D01*
X127185489Y63973387D01*
X127244799Y64076114D01*
X127275499Y64190689D01*
X127275500Y64190689D01*
X127275500Y64309311D01*
X127275499Y64309312D01*
X127244800Y64423883D01*
X127244798Y64423888D01*
X127185491Y64526610D01*
X127185490Y64526611D01*
X127185489Y64526613D01*
X127101613Y64610489D01*
X127101610Y64610491D01*
X127101609Y64610492D01*
X126998887Y64669799D01*
X126998882Y64669801D01*
X126884311Y64700500D01*
X126884309Y64700500D01*
X126765691Y64700500D01*
X126765689Y64700500D01*
X126651117Y64669801D01*
X126651112Y64669799D01*
X126548390Y64610492D01*
X126464508Y64526610D01*
X126405201Y64423888D01*
X126405199Y64423883D01*
X126374500Y64309312D01*
X95625500Y64309312D01*
X95625500Y67309312D01*
X126374500Y67309312D01*
X126374500Y67190689D01*
X126405199Y67076118D01*
X126405201Y67076113D01*
X126464508Y66973391D01*
X126464509Y66973390D01*
X126464511Y66973387D01*
X126548387Y66889511D01*
X126651114Y66830201D01*
X126651115Y66830201D01*
X126651117Y66830200D01*
X126708402Y66814851D01*
X126765688Y66799501D01*
X126765689Y66799500D01*
X126765691Y66799500D01*
X126884311Y66799500D01*
X126884311Y66799501D01*
X126998886Y66830201D01*
X127101613Y66889511D01*
X127185489Y66973387D01*
X127244799Y67076114D01*
X127275499Y67190689D01*
X127275500Y67190689D01*
X127275500Y67309311D01*
X127275499Y67309312D01*
X127244800Y67423883D01*
X127244798Y67423888D01*
X127185491Y67526610D01*
X127185490Y67526611D01*
X127185489Y67526613D01*
X127101613Y67610489D01*
X127101610Y67610491D01*
X127101609Y67610492D01*
X126998887Y67669799D01*
X126998882Y67669801D01*
X126884311Y67700500D01*
X126884309Y67700500D01*
X126765691Y67700500D01*
X126765689Y67700500D01*
X126651117Y67669801D01*
X126651112Y67669799D01*
X126548390Y67610492D01*
X126464508Y67526610D01*
X126405201Y67423888D01*
X126405199Y67423883D01*
X126374500Y67309312D01*
X95625500Y67309312D01*
X95625500Y70309312D01*
X126374500Y70309312D01*
X126374500Y70190689D01*
X126405199Y70076118D01*
X126405201Y70076113D01*
X126464508Y69973391D01*
X126464509Y69973390D01*
X126464511Y69973387D01*
X126548387Y69889511D01*
X126651114Y69830201D01*
X126651115Y69830201D01*
X126651117Y69830200D01*
X126708402Y69814851D01*
X126765688Y69799501D01*
X126765689Y69799500D01*
X126765691Y69799500D01*
X126884311Y69799500D01*
X126884311Y69799501D01*
X126998886Y69830201D01*
X127101613Y69889511D01*
X127185489Y69973387D01*
X127244799Y70076114D01*
X127275499Y70190689D01*
X127275500Y70190689D01*
X127275500Y70309311D01*
X127275499Y70309312D01*
X127244800Y70423883D01*
X127244798Y70423888D01*
X127185491Y70526610D01*
X127185490Y70526611D01*
X127185489Y70526613D01*
X127101613Y70610489D01*
X127101610Y70610491D01*
X127101609Y70610492D01*
X126998887Y70669799D01*
X126998882Y70669801D01*
X126884311Y70700500D01*
X126884309Y70700500D01*
X126765691Y70700500D01*
X126765689Y70700500D01*
X126651117Y70669801D01*
X126651112Y70669799D01*
X126548390Y70610492D01*
X126464508Y70526610D01*
X126405201Y70423888D01*
X126405199Y70423883D01*
X126374500Y70309312D01*
X95625500Y70309312D01*
X95625500Y73309312D01*
X126374500Y73309312D01*
X126374500Y73190689D01*
X126405199Y73076118D01*
X126405201Y73076113D01*
X126464508Y72973391D01*
X126464509Y72973390D01*
X126464511Y72973387D01*
X126548387Y72889511D01*
X126651114Y72830201D01*
X126651115Y72830201D01*
X126651117Y72830200D01*
X126708402Y72814851D01*
X126765688Y72799501D01*
X126765689Y72799500D01*
X126765691Y72799500D01*
X126884311Y72799500D01*
X126884311Y72799501D01*
X126998886Y72830201D01*
X127101613Y72889511D01*
X127185489Y72973387D01*
X127244799Y73076114D01*
X127275499Y73190689D01*
X127275500Y73190689D01*
X127275500Y73309311D01*
X127275499Y73309312D01*
X127244800Y73423883D01*
X127244798Y73423888D01*
X127185491Y73526610D01*
X127185490Y73526611D01*
X127185489Y73526613D01*
X127101613Y73610489D01*
X127101610Y73610491D01*
X127101609Y73610492D01*
X126998887Y73669799D01*
X126998882Y73669801D01*
X126884311Y73700500D01*
X126884309Y73700500D01*
X126765691Y73700500D01*
X126765689Y73700500D01*
X126651117Y73669801D01*
X126651112Y73669799D01*
X126548390Y73610492D01*
X126464508Y73526610D01*
X126405201Y73423888D01*
X126405199Y73423883D01*
X126374500Y73309312D01*
X95625500Y73309312D01*
X95625500Y76309312D01*
X126374500Y76309312D01*
X126374500Y76190689D01*
X126405199Y76076118D01*
X126405201Y76076113D01*
X126464508Y75973391D01*
X126464509Y75973390D01*
X126464511Y75973387D01*
X126548387Y75889511D01*
X126651114Y75830201D01*
X126651115Y75830201D01*
X126651117Y75830200D01*
X126698466Y75817513D01*
X126765688Y75799501D01*
X126765689Y75799500D01*
X126765691Y75799500D01*
X126884311Y75799500D01*
X126884311Y75799501D01*
X126998886Y75830201D01*
X127101613Y75889511D01*
X127185489Y75973387D01*
X127244799Y76076114D01*
X127275499Y76190689D01*
X127275500Y76190689D01*
X127275500Y76309311D01*
X127275499Y76309312D01*
X127244800Y76423883D01*
X127244798Y76423888D01*
X127185491Y76526610D01*
X127185490Y76526611D01*
X127185489Y76526613D01*
X127101613Y76610489D01*
X127101610Y76610491D01*
X127101609Y76610492D01*
X126998887Y76669799D01*
X126998882Y76669801D01*
X126884311Y76700500D01*
X126884309Y76700500D01*
X126765691Y76700500D01*
X126765689Y76700500D01*
X126651117Y76669801D01*
X126651112Y76669799D01*
X126548390Y76610492D01*
X126464508Y76526610D01*
X126405201Y76423888D01*
X126405199Y76423883D01*
X126374500Y76309312D01*
X95625500Y76309312D01*
X95625500Y79309312D01*
X126374500Y79309312D01*
X126374500Y79190689D01*
X126405199Y79076118D01*
X126405201Y79076113D01*
X126464508Y78973391D01*
X126464509Y78973390D01*
X126464511Y78973387D01*
X126548387Y78889511D01*
X126651114Y78830201D01*
X126651115Y78830201D01*
X126651117Y78830200D01*
X126708402Y78814851D01*
X126765688Y78799501D01*
X126765689Y78799500D01*
X126765691Y78799500D01*
X126884311Y78799500D01*
X126884311Y78799501D01*
X126998886Y78830201D01*
X127101613Y78889511D01*
X127185489Y78973387D01*
X127244799Y79076114D01*
X127275499Y79190689D01*
X127275500Y79190689D01*
X127275500Y79309311D01*
X127275499Y79309312D01*
X127244800Y79423883D01*
X127244798Y79423888D01*
X127185491Y79526610D01*
X127185490Y79526611D01*
X127185489Y79526613D01*
X127101613Y79610489D01*
X127101610Y79610491D01*
X127101609Y79610492D01*
X126998887Y79669799D01*
X126998882Y79669801D01*
X126884311Y79700500D01*
X126884309Y79700500D01*
X126765691Y79700500D01*
X126765689Y79700500D01*
X126651117Y79669801D01*
X126651112Y79669799D01*
X126548390Y79610492D01*
X126464508Y79526610D01*
X126405201Y79423888D01*
X126405199Y79423883D01*
X126374500Y79309312D01*
X95625500Y79309312D01*
X95625500Y79572860D01*
X95635414Y79609860D01*
X95644799Y79626114D01*
X95675499Y79740689D01*
X95675500Y79740689D01*
X95675500Y79859311D01*
X95675499Y79859312D01*
X95644800Y79973883D01*
X95644796Y79973892D01*
X95635414Y79990143D01*
X95625500Y80027142D01*
X95625500Y82309312D01*
X126374500Y82309312D01*
X126374500Y82190689D01*
X126405199Y82076118D01*
X126405201Y82076113D01*
X126464508Y81973391D01*
X126464509Y81973390D01*
X126464511Y81973387D01*
X126548387Y81889511D01*
X126651114Y81830201D01*
X126651115Y81830201D01*
X126651117Y81830200D01*
X126708402Y81814851D01*
X126765688Y81799501D01*
X126765689Y81799500D01*
X126765691Y81799500D01*
X126884311Y81799500D01*
X126884311Y81799501D01*
X126998886Y81830201D01*
X127101613Y81889511D01*
X127185489Y81973387D01*
X127244799Y82076114D01*
X127275499Y82190689D01*
X127275500Y82190689D01*
X127275500Y82309311D01*
X127275499Y82309312D01*
X127244800Y82423883D01*
X127244798Y82423888D01*
X127185491Y82526610D01*
X127185490Y82526611D01*
X127185489Y82526613D01*
X127101613Y82610489D01*
X127101610Y82610491D01*
X127101609Y82610492D01*
X126998887Y82669799D01*
X126998882Y82669801D01*
X126884311Y82700500D01*
X126884309Y82700500D01*
X126765691Y82700500D01*
X126765689Y82700500D01*
X126651117Y82669801D01*
X126651112Y82669799D01*
X126548390Y82610492D01*
X126464508Y82526610D01*
X126405201Y82423888D01*
X126405199Y82423883D01*
X126374500Y82309312D01*
X95625500Y82309312D01*
X95625500Y84925500D01*
X95647174Y84977826D01*
X95699500Y84999500D01*
X131650500Y84999500D01*
X131702826Y84977826D01*
X131724500Y84925500D01*
X131724500Y38740689D01*
X131755199Y38626118D01*
X131755201Y38626113D01*
X131814508Y38523391D01*
X131814509Y38523390D01*
X131814511Y38523387D01*
X131898387Y38439511D01*
X131898389Y38439510D01*
X131898390Y38439509D01*
X132001112Y38380202D01*
X132001114Y38380201D01*
X132001115Y38380201D01*
X132001117Y38380200D01*
X132058402Y38364851D01*
X132115688Y38349501D01*
X132115689Y38349500D01*
X132115691Y38349500D01*
X132284311Y38349500D01*
X132284311Y38349501D01*
X132398886Y38380201D01*
X132501613Y38439511D01*
X132585489Y38523387D01*
X132644799Y38626114D01*
X132675499Y38740689D01*
X132675500Y38740689D01*
X132675500Y38859311D01*
X132675499Y38859312D01*
X132672843Y38869223D01*
X132644799Y38973886D01*
X132644796Y38973892D01*
X132635414Y38990143D01*
X132625500Y39027142D01*
X132625500Y79572860D01*
X132635414Y79609860D01*
X132644799Y79626114D01*
X132675499Y79740689D01*
X132675500Y79740689D01*
X132675500Y79859311D01*
X132675499Y79859312D01*
X132644800Y79973883D01*
X132644796Y79973892D01*
X132635414Y79990143D01*
X132625500Y80027142D01*
X132625500Y85172858D01*
X132635414Y85209858D01*
X132691392Y85306814D01*
X132725499Y85434106D01*
X132725500Y85434106D01*
X132725500Y85565894D01*
X132725499Y85565895D01*
X132691393Y85693182D01*
X132691392Y85693186D01*
X132625500Y85807314D01*
X132532314Y85900500D01*
X132418190Y85966390D01*
X132418181Y85966394D01*
X132290894Y86000500D01*
X132290892Y86000500D01*
X88811791Y86000500D01*
X88759465Y86022174D01*
X88737791Y86074500D01*
X88759465Y86126826D01*
X88774791Y86138586D01*
X88778439Y86140692D01*
X88829913Y86170411D01*
X88913789Y86254287D01*
X88973099Y86357014D01*
X89003799Y86471589D01*
X89003800Y86471589D01*
X89003800Y86590211D01*
X89003799Y86590212D01*
X88973100Y86704783D01*
X88973098Y86704788D01*
X88913791Y86807510D01*
X88913790Y86807511D01*
X88913789Y86807513D01*
X88875330Y86845972D01*
X88854290Y86888640D01*
X88853800Y86892357D01*
X88853800Y86892362D01*
X88833322Y86968788D01*
X88793760Y87037311D01*
X87348811Y88482260D01*
X87301560Y88509540D01*
X87280289Y88521821D01*
X87280286Y88521822D01*
X87280285Y88521823D01*
X87203864Y88542300D01*
X87203862Y88542300D01*
X86728338Y88542300D01*
X86703119Y88535543D01*
X86646966Y88542937D01*
X86612489Y88587869D01*
X86594800Y88653883D01*
X86594798Y88653888D01*
X86535491Y88756610D01*
X86535490Y88756611D01*
X86535489Y88756613D01*
X86451613Y88840489D01*
X86451610Y88840491D01*
X86451609Y88840492D01*
X86348887Y88899799D01*
X86348882Y88899801D01*
X86234311Y88930500D01*
X86234309Y88930500D01*
X86115691Y88930500D01*
X86115689Y88930500D01*
X86001117Y88899801D01*
X86001108Y88899797D01*
X85969228Y88881391D01*
X85913075Y88873999D01*
X85868143Y88908478D01*
X85860751Y88964631D01*
X85879903Y88997802D01*
X85885489Y89003387D01*
X85944799Y89106114D01*
X85975499Y89220689D01*
X85975500Y89220689D01*
X85975500Y89339311D01*
X85975499Y89339312D01*
X85944800Y89453883D01*
X85944798Y89453888D01*
X85885491Y89556610D01*
X85885490Y89556611D01*
X85885489Y89556613D01*
X85801613Y89640489D01*
X85801610Y89640491D01*
X85801609Y89640492D01*
X85698887Y89699799D01*
X85698882Y89699801D01*
X85584311Y89730500D01*
X85584309Y89730500D01*
X85465691Y89730500D01*
X85465689Y89730500D01*
X85351117Y89699801D01*
X85351112Y89699799D01*
X85248390Y89640492D01*
X85164508Y89556610D01*
X85105201Y89453888D01*
X85105199Y89453883D01*
X85074500Y89339312D01*
X85074500Y89220689D01*
X85105199Y89106118D01*
X85105201Y89106113D01*
X85164508Y89003391D01*
X85164509Y89003390D01*
X85164511Y89003387D01*
X85170096Y88997802D01*
X85191770Y88945477D01*
X85170096Y88893151D01*
X85117770Y88871477D01*
X85080770Y88881391D01*
X85048887Y88899799D01*
X85048882Y88899801D01*
X84934311Y88930500D01*
X84934309Y88930500D01*
X84815691Y88930500D01*
X84815689Y88930500D01*
X84701117Y88899801D01*
X84701108Y88899797D01*
X84669228Y88881391D01*
X84613075Y88873999D01*
X84568143Y88908478D01*
X84560751Y88964631D01*
X84579903Y88997802D01*
X84585489Y89003387D01*
X84644799Y89106114D01*
X84675499Y89220689D01*
X84675500Y89220689D01*
X84675500Y89339311D01*
X84675499Y89339312D01*
X84644800Y89453883D01*
X84644798Y89453888D01*
X84585491Y89556610D01*
X84585490Y89556611D01*
X84585489Y89556613D01*
X84501613Y89640489D01*
X84501610Y89640491D01*
X84501609Y89640492D01*
X84398887Y89699799D01*
X84398882Y89699801D01*
X84284311Y89730500D01*
X84284309Y89730500D01*
X84165691Y89730500D01*
X84165689Y89730500D01*
X84051117Y89699801D01*
X84051112Y89699799D01*
X83948390Y89640492D01*
X83864508Y89556610D01*
X83805201Y89453888D01*
X83805199Y89453883D01*
X83774500Y89339312D01*
X83774500Y89220689D01*
X83805199Y89106118D01*
X83805201Y89106113D01*
X83864508Y89003391D01*
X83864509Y89003390D01*
X83864511Y89003387D01*
X83870096Y88997802D01*
X83891770Y88945477D01*
X83870096Y88893151D01*
X83817770Y88871477D01*
X83780770Y88881391D01*
X83748887Y88899799D01*
X83748882Y88899801D01*
X83634311Y88930500D01*
X83634309Y88930500D01*
X83515691Y88930500D01*
X83515689Y88930500D01*
X83401117Y88899801D01*
X83401112Y88899799D01*
X83298390Y88840492D01*
X83214508Y88756610D01*
X83155201Y88653888D01*
X83155199Y88653883D01*
X83124500Y88539312D01*
X83124500Y88420689D01*
X83134960Y88381653D01*
X83127568Y88325501D01*
X83082635Y88291022D01*
X83063482Y88288500D01*
X82786518Y88288500D01*
X82734192Y88310174D01*
X82712518Y88362500D01*
X82715040Y88381653D01*
X82725499Y88420689D01*
X82725500Y88420689D01*
X82725500Y88539311D01*
X82725499Y88539312D01*
X82724698Y88542300D01*
X82694799Y88653886D01*
X82635489Y88756613D01*
X82551613Y88840489D01*
X82551610Y88840491D01*
X82551609Y88840492D01*
X82448887Y88899799D01*
X82448882Y88899801D01*
X82334311Y88930500D01*
X82334309Y88930500D01*
X82215691Y88930500D01*
X82215689Y88930500D01*
X82101117Y88899801D01*
X82101108Y88899797D01*
X82069228Y88881391D01*
X82013075Y88873999D01*
X81968143Y88908478D01*
X81960751Y88964631D01*
X81979903Y88997802D01*
X81985489Y89003387D01*
X82044799Y89106114D01*
X82075499Y89220689D01*
X82075500Y89220689D01*
X82075500Y89339311D01*
X82075499Y89339312D01*
X82044800Y89453883D01*
X82044798Y89453888D01*
X81985491Y89556610D01*
X81985490Y89556611D01*
X81985489Y89556613D01*
X81901613Y89640489D01*
X81901610Y89640491D01*
X81901609Y89640492D01*
X81798887Y89699799D01*
X81798882Y89699801D01*
X81684311Y89730500D01*
X81684309Y89730500D01*
X81565691Y89730500D01*
X81565689Y89730500D01*
X81451117Y89699801D01*
X81451112Y89699799D01*
X81348390Y89640492D01*
X81264508Y89556610D01*
X81205201Y89453888D01*
X81205199Y89453883D01*
X81174500Y89339312D01*
X81174500Y89220689D01*
X81205199Y89106118D01*
X81205201Y89106113D01*
X81264508Y89003391D01*
X81264509Y89003390D01*
X81264511Y89003387D01*
X81348387Y88919511D01*
X81348389Y88919510D01*
X81348390Y88919509D01*
X81451112Y88860202D01*
X81451114Y88860201D01*
X81451115Y88860201D01*
X81451117Y88860200D01*
X81483493Y88851525D01*
X81565688Y88829501D01*
X81565689Y88829500D01*
X81565691Y88829500D01*
X81684311Y88829500D01*
X81684311Y88829501D01*
X81798886Y88860201D01*
X81830769Y88878610D01*
X81886921Y88886003D01*
X81931855Y88851525D01*
X81939249Y88795373D01*
X81920099Y88762201D01*
X81914509Y88756611D01*
X81855201Y88653888D01*
X81855199Y88653883D01*
X81824500Y88539312D01*
X81824500Y88420689D01*
X81834960Y88381653D01*
X81827568Y88325501D01*
X81782635Y88291022D01*
X81763482Y88288500D01*
X80322123Y88288500D01*
X80269797Y88310174D01*
X80147174Y88432797D01*
X80125500Y88485123D01*
X80125500Y88539311D01*
X80125499Y88539312D01*
X80124698Y88542300D01*
X80094799Y88653886D01*
X80035489Y88756613D01*
X80029902Y88762200D01*
X80008229Y88814524D01*
X80029903Y88866850D01*
X80082229Y88888524D01*
X80119229Y88878610D01*
X80151110Y88860203D01*
X80151114Y88860201D01*
X80151115Y88860201D01*
X80151117Y88860200D01*
X80183493Y88851525D01*
X80265688Y88829501D01*
X80265689Y88829500D01*
X80265691Y88829500D01*
X80384311Y88829500D01*
X80384311Y88829501D01*
X80498886Y88860201D01*
X80601613Y88919511D01*
X80685489Y89003387D01*
X80744799Y89106114D01*
X80775499Y89220689D01*
X80775500Y89220689D01*
X80775500Y89339311D01*
X80775499Y89339312D01*
X80744800Y89453883D01*
X80744798Y89453888D01*
X80685491Y89556610D01*
X80685490Y89556611D01*
X80685489Y89556613D01*
X80601613Y89640489D01*
X80601610Y89640491D01*
X80601609Y89640492D01*
X80498887Y89699799D01*
X80498882Y89699801D01*
X80384311Y89730500D01*
X80384309Y89730500D01*
X80265691Y89730500D01*
X80265689Y89730500D01*
X80151117Y89699801D01*
X80151112Y89699799D01*
X80048390Y89640492D01*
X79964508Y89556610D01*
X79905201Y89453888D01*
X79905199Y89453883D01*
X79874500Y89339312D01*
X79874500Y89220689D01*
X79905199Y89106118D01*
X79905201Y89106113D01*
X79964508Y89003391D01*
X79964509Y89003390D01*
X79964511Y89003387D01*
X79970096Y88997802D01*
X79991770Y88945477D01*
X79970096Y88893151D01*
X79917770Y88871477D01*
X79880770Y88881391D01*
X79848887Y88899799D01*
X79848882Y88899801D01*
X79734311Y88930500D01*
X79734309Y88930500D01*
X79615691Y88930500D01*
X79615689Y88930500D01*
X79501117Y88899801D01*
X79501108Y88899797D01*
X79469228Y88881391D01*
X79413075Y88873999D01*
X79368143Y88908478D01*
X79360751Y88964631D01*
X79379903Y88997802D01*
X79385489Y89003387D01*
X79444799Y89106114D01*
X79475499Y89220689D01*
X79475500Y89220689D01*
X79475500Y89269877D01*
X79497174Y89322203D01*
X85652797Y95477826D01*
X85705123Y95499500D01*
X96589564Y95499500D01*
X96589564Y95499501D01*
X96665989Y95519979D01*
X96734511Y95559540D01*
X96790460Y95615489D01*
X110859283Y109684312D01*
X125712000Y109684312D01*
X125712000Y109565689D01*
X125742699Y109451118D01*
X125742701Y109451113D01*
X125802011Y109348386D01*
X125804569Y109345053D01*
X125819233Y109290347D01*
X125804569Y109254947D01*
X125802011Y109251615D01*
X125742701Y109148888D01*
X125742699Y109148883D01*
X125712000Y109034312D01*
X125712000Y108915689D01*
X125742699Y108801118D01*
X125742701Y108801113D01*
X125802011Y108698386D01*
X125804569Y108695053D01*
X125819233Y108640347D01*
X125804569Y108604947D01*
X125802011Y108601615D01*
X125742701Y108498888D01*
X125742700Y108498884D01*
X125712000Y108384312D01*
X125712000Y108265689D01*
X125742699Y108151118D01*
X125742701Y108151113D01*
X125802008Y108048391D01*
X125802009Y108048390D01*
X125802011Y108048387D01*
X125885887Y107964511D01*
X125988614Y107905201D01*
X125988615Y107905201D01*
X125988617Y107905200D01*
X126045902Y107889851D01*
X126103188Y107874501D01*
X126103189Y107874500D01*
X126103191Y107874500D01*
X126221811Y107874500D01*
X126221811Y107874501D01*
X126336386Y107905201D01*
X126439113Y107964511D01*
X126477429Y108002827D01*
X126529754Y108024500D01*
X129102064Y108024500D01*
X129102064Y108024501D01*
X129178489Y108044979D01*
X129247011Y108084540D01*
X129302960Y108140489D01*
X129602960Y108440489D01*
X129636675Y108498886D01*
X129642521Y108509011D01*
X129662999Y108585436D01*
X129663000Y108585436D01*
X129663000Y112044877D01*
X129684674Y112097203D01*
X129765297Y112177826D01*
X129817623Y112199500D01*
X136720246Y112199500D01*
X136772571Y112177827D01*
X136810887Y112139511D01*
X136913614Y112080201D01*
X136913615Y112080201D01*
X136913617Y112080200D01*
X136931050Y112075529D01*
X137028188Y112049501D01*
X137028189Y112049500D01*
X137028191Y112049500D01*
X137146811Y112049500D01*
X137146811Y112049501D01*
X137261386Y112080201D01*
X137364113Y112139511D01*
X137447989Y112223387D01*
X137507299Y112326114D01*
X137537999Y112440689D01*
X137538000Y112440689D01*
X137538000Y112559311D01*
X137537999Y112559312D01*
X137507300Y112673883D01*
X137507298Y112673888D01*
X137447991Y112776610D01*
X137447990Y112776611D01*
X137447989Y112776613D01*
X137364113Y112860489D01*
X137364110Y112860491D01*
X137364109Y112860492D01*
X137261387Y112919799D01*
X137261382Y112919801D01*
X137146811Y112950500D01*
X137146809Y112950500D01*
X137028191Y112950500D01*
X137028189Y112950500D01*
X136913617Y112919801D01*
X136913612Y112919799D01*
X136810890Y112860492D01*
X136772571Y112822173D01*
X136720246Y112800500D01*
X129622936Y112800500D01*
X129546514Y112780023D01*
X129546513Y112780022D01*
X129546511Y112780022D01*
X129546511Y112780021D01*
X129526901Y112768699D01*
X129477988Y112740460D01*
X129189326Y112451797D01*
X129137000Y112430123D01*
X129084674Y112451797D01*
X129063000Y112504123D01*
X129063000Y113809312D01*
X129724500Y113809312D01*
X129724500Y113690689D01*
X129755199Y113576118D01*
X129755201Y113576113D01*
X129814508Y113473391D01*
X129814509Y113473390D01*
X129814511Y113473387D01*
X129898387Y113389511D01*
X129898389Y113389510D01*
X129898390Y113389509D01*
X130001112Y113330202D01*
X130001114Y113330201D01*
X130001115Y113330201D01*
X130001117Y113330200D01*
X130058402Y113314851D01*
X130115688Y113299501D01*
X130115689Y113299500D01*
X130115691Y113299500D01*
X130234311Y113299500D01*
X130234311Y113299501D01*
X130348886Y113330201D01*
X130451613Y113389511D01*
X130535489Y113473387D01*
X130594799Y113576114D01*
X130625499Y113690689D01*
X130625500Y113690689D01*
X130625500Y113809311D01*
X130625499Y113809312D01*
X130623124Y113818174D01*
X130594799Y113923886D01*
X130591483Y113929630D01*
X130535491Y114026610D01*
X130535490Y114026611D01*
X130535489Y114026613D01*
X130451613Y114110489D01*
X130451610Y114110491D01*
X130451609Y114110492D01*
X130348887Y114169799D01*
X130348882Y114169801D01*
X130234311Y114200500D01*
X130234309Y114200500D01*
X130115691Y114200500D01*
X130115689Y114200500D01*
X130001117Y114169801D01*
X130001112Y114169799D01*
X129898390Y114110492D01*
X129814508Y114026610D01*
X129755201Y113923888D01*
X129755199Y113923883D01*
X129724500Y113809312D01*
X129063000Y113809312D01*
X129063000Y115044877D01*
X129084674Y115097203D01*
X129165297Y115177826D01*
X129217623Y115199500D01*
X136720246Y115199500D01*
X136772571Y115177827D01*
X136810887Y115139511D01*
X136913614Y115080201D01*
X136913615Y115080201D01*
X136913617Y115080200D01*
X136931050Y115075529D01*
X137028188Y115049501D01*
X137028189Y115049500D01*
X137028191Y115049500D01*
X137146811Y115049500D01*
X137146811Y115049501D01*
X137261386Y115080201D01*
X137364113Y115139511D01*
X137447989Y115223387D01*
X137507299Y115326114D01*
X137537999Y115440689D01*
X137538000Y115440689D01*
X137538000Y115559311D01*
X137537999Y115559312D01*
X137507300Y115673883D01*
X137507298Y115673888D01*
X137447991Y115776610D01*
X137447990Y115776611D01*
X137447989Y115776613D01*
X137364113Y115860489D01*
X137364110Y115860491D01*
X137364109Y115860492D01*
X137261387Y115919799D01*
X137261382Y115919801D01*
X137146811Y115950500D01*
X137146809Y115950500D01*
X137028191Y115950500D01*
X137028189Y115950500D01*
X136913617Y115919801D01*
X136913612Y115919799D01*
X136810890Y115860492D01*
X136772571Y115822173D01*
X136720246Y115800500D01*
X129022936Y115800500D01*
X128946514Y115780023D01*
X128946509Y115780021D01*
X128912639Y115760465D01*
X128877988Y115740460D01*
X128589326Y115451797D01*
X128537000Y115430123D01*
X128484674Y115451797D01*
X128463000Y115504123D01*
X128463000Y116809312D01*
X129724500Y116809312D01*
X129724500Y116690689D01*
X129755199Y116576118D01*
X129755201Y116576113D01*
X129814508Y116473391D01*
X129814509Y116473390D01*
X129814511Y116473387D01*
X129898387Y116389511D01*
X130001114Y116330201D01*
X130001115Y116330201D01*
X130001117Y116330200D01*
X130058402Y116314851D01*
X130115688Y116299501D01*
X130115689Y116299500D01*
X130115691Y116299500D01*
X130234311Y116299500D01*
X130234311Y116299501D01*
X130348886Y116330201D01*
X130451613Y116389511D01*
X130535489Y116473387D01*
X130594799Y116576114D01*
X130625499Y116690689D01*
X130625500Y116690689D01*
X130625500Y116809311D01*
X130625499Y116809312D01*
X130594800Y116923883D01*
X130594798Y116923888D01*
X130535491Y117026610D01*
X130535490Y117026611D01*
X130535489Y117026613D01*
X130451613Y117110489D01*
X130451610Y117110491D01*
X130451609Y117110492D01*
X130348887Y117169799D01*
X130348882Y117169801D01*
X130234311Y117200500D01*
X130234309Y117200500D01*
X130115691Y117200500D01*
X130115689Y117200500D01*
X130001117Y117169801D01*
X130001112Y117169799D01*
X129898390Y117110492D01*
X129814508Y117026610D01*
X129755201Y116923888D01*
X129755199Y116923883D01*
X129724500Y116809312D01*
X128463000Y116809312D01*
X128463000Y118044877D01*
X128484674Y118097203D01*
X128565297Y118177826D01*
X128617623Y118199500D01*
X136720246Y118199500D01*
X136772571Y118177827D01*
X136810887Y118139511D01*
X136810889Y118139510D01*
X136810890Y118139509D01*
X136852494Y118115489D01*
X136913614Y118080201D01*
X136913615Y118080201D01*
X136913617Y118080200D01*
X136915155Y118079788D01*
X137028188Y118049501D01*
X137028189Y118049500D01*
X137028191Y118049500D01*
X137146811Y118049500D01*
X137146811Y118049501D01*
X137261386Y118080201D01*
X137364113Y118139511D01*
X137447989Y118223387D01*
X137507299Y118326114D01*
X137537999Y118440689D01*
X137538000Y118440689D01*
X137538000Y118559311D01*
X137537999Y118559312D01*
X137507300Y118673883D01*
X137507298Y118673888D01*
X137447991Y118776610D01*
X137447990Y118776611D01*
X137447989Y118776613D01*
X137364113Y118860489D01*
X137364110Y118860491D01*
X137364109Y118860492D01*
X137261387Y118919799D01*
X137261382Y118919801D01*
X137146811Y118950500D01*
X137146809Y118950500D01*
X137028191Y118950500D01*
X137028189Y118950500D01*
X136913617Y118919801D01*
X136913612Y118919799D01*
X136810890Y118860492D01*
X136772571Y118822173D01*
X136720246Y118800500D01*
X128422936Y118800500D01*
X128346514Y118780023D01*
X128346509Y118780021D01*
X128312639Y118760465D01*
X128277988Y118740460D01*
X127922040Y118384512D01*
X127882479Y118315991D01*
X127882477Y118315986D01*
X127862000Y118239565D01*
X127862000Y110080124D01*
X127840326Y110027798D01*
X127759702Y109947174D01*
X127707376Y109925500D01*
X126529754Y109925500D01*
X126477429Y109947173D01*
X126459611Y109964991D01*
X126439113Y109985489D01*
X126439110Y109985491D01*
X126439109Y109985492D01*
X126336387Y110044799D01*
X126336382Y110044801D01*
X126221811Y110075500D01*
X126221809Y110075500D01*
X126103191Y110075500D01*
X126103189Y110075500D01*
X125988617Y110044801D01*
X125988612Y110044799D01*
X125885890Y109985492D01*
X125802008Y109901610D01*
X125742701Y109798888D01*
X125742699Y109798883D01*
X125712000Y109684312D01*
X110859283Y109684312D01*
X112102797Y110927826D01*
X112155123Y110949500D01*
X115457746Y110949500D01*
X115510071Y110927827D01*
X115548387Y110889511D01*
X115651114Y110830201D01*
X115651115Y110830201D01*
X115651117Y110830200D01*
X115708402Y110814851D01*
X115765688Y110799501D01*
X115765689Y110799500D01*
X115765691Y110799500D01*
X115884311Y110799500D01*
X115884311Y110799501D01*
X115998886Y110830201D01*
X116101613Y110889511D01*
X116185489Y110973387D01*
X116244799Y111076114D01*
X116275499Y111190689D01*
X116275500Y111190689D01*
X116275500Y111309311D01*
X116275499Y111309312D01*
X116244800Y111423883D01*
X116244798Y111423888D01*
X116185491Y111526610D01*
X116185490Y111526611D01*
X116185489Y111526613D01*
X116101613Y111610489D01*
X116101610Y111610491D01*
X116101609Y111610492D01*
X115998887Y111669799D01*
X115998882Y111669801D01*
X115884311Y111700500D01*
X115884309Y111700500D01*
X115765691Y111700500D01*
X115765689Y111700500D01*
X115651117Y111669801D01*
X115651112Y111669799D01*
X115548390Y111610492D01*
X115510071Y111572173D01*
X115457746Y111550500D01*
X112039562Y111550500D01*
X111960438Y111550500D01*
X111884012Y111530022D01*
X111884011Y111530022D01*
X111884009Y111530021D01*
X111884007Y111530020D01*
X111815492Y111490463D01*
X96447203Y96122174D01*
X96394877Y96100500D01*
X85510436Y96100500D01*
X85434014Y96080023D01*
X85434009Y96080021D01*
X85365488Y96040460D01*
X79077203Y89752174D01*
X79024877Y89730500D01*
X78965689Y89730500D01*
X78851117Y89699801D01*
X78851112Y89699799D01*
X78748390Y89640492D01*
X78664508Y89556610D01*
X78605201Y89453888D01*
X78605199Y89453883D01*
X78574500Y89339312D01*
X78574500Y89220689D01*
X78605199Y89106118D01*
X78605201Y89106113D01*
X78664508Y89003391D01*
X78664509Y89003390D01*
X78664511Y89003387D01*
X78748387Y88919511D01*
X78748389Y88919510D01*
X78748390Y88919509D01*
X78851112Y88860202D01*
X78851114Y88860201D01*
X78851115Y88860201D01*
X78851117Y88860200D01*
X78883493Y88851525D01*
X78965688Y88829501D01*
X78965689Y88829500D01*
X78965691Y88829500D01*
X79084311Y88829500D01*
X79084311Y88829501D01*
X79198886Y88860201D01*
X79230769Y88878610D01*
X79286921Y88886003D01*
X79331855Y88851525D01*
X79339249Y88795373D01*
X79320099Y88762201D01*
X79314509Y88756611D01*
X79255201Y88653888D01*
X79255199Y88653883D01*
X79224500Y88539312D01*
X79224500Y88420689D01*
X79255199Y88306118D01*
X79255201Y88306113D01*
X79314508Y88203391D01*
X79314509Y88203390D01*
X79314511Y88203387D01*
X79398387Y88119511D01*
X79398389Y88119510D01*
X79398390Y88119509D01*
X79501112Y88060202D01*
X79501114Y88060201D01*
X79501115Y88060201D01*
X79501117Y88060200D01*
X79558402Y88044851D01*
X79615688Y88029501D01*
X79615689Y88029500D01*
X79615691Y88029500D01*
X79669877Y88029500D01*
X79722203Y88007826D01*
X79926540Y87803489D01*
X79982489Y87747540D01*
X80051011Y87707979D01*
X80051012Y87707979D01*
X80051014Y87707978D01*
X80089224Y87697740D01*
X80127435Y87687501D01*
X80127436Y87687500D01*
X80127438Y87687500D01*
X86553664Y87687500D01*
X86553664Y87687501D01*
X86630089Y87707979D01*
X86698611Y87747540D01*
X86754560Y87803489D01*
X86870697Y87919626D01*
X86923023Y87941300D01*
X87009177Y87941300D01*
X87061503Y87919626D01*
X88145633Y86835496D01*
X88167307Y86783170D01*
X88157393Y86746171D01*
X88133503Y86704792D01*
X88133499Y86704783D01*
X88102800Y86590212D01*
X88102800Y86471589D01*
X88133499Y86357018D01*
X88133501Y86357013D01*
X88192808Y86254291D01*
X88192809Y86254290D01*
X88192811Y86254287D01*
X88276687Y86170411D01*
X88276689Y86170410D01*
X88276690Y86170409D01*
X88331809Y86138586D01*
X88366287Y86093653D01*
X88358895Y86037500D01*
X88313962Y86003022D01*
X88294809Y86000500D01*
X85032341Y86000500D01*
X84980015Y86022174D01*
X84958341Y86074500D01*
X84968254Y86111499D01*
X84969217Y86113169D01*
X84975999Y86124914D01*
X85006699Y86239489D01*
X85006700Y86239489D01*
X85006700Y86358111D01*
X85006699Y86358112D01*
X85002472Y86373886D01*
X84976293Y86471589D01*
X84976000Y86472683D01*
X84975998Y86472688D01*
X84916691Y86575410D01*
X84916690Y86575411D01*
X84916689Y86575413D01*
X84832813Y86659289D01*
X84832810Y86659291D01*
X84832809Y86659292D01*
X84730087Y86718599D01*
X84730082Y86718601D01*
X84615511Y86749300D01*
X84615509Y86749300D01*
X84496891Y86749300D01*
X84496889Y86749300D01*
X84382317Y86718601D01*
X84382312Y86718599D01*
X84279590Y86659292D01*
X84195708Y86575410D01*
X84136401Y86472688D01*
X84136399Y86472683D01*
X84105700Y86358112D01*
X84105700Y86239489D01*
X84136399Y86124918D01*
X84136400Y86124916D01*
X84136401Y86124914D01*
X84141979Y86115252D01*
X84144146Y86111499D01*
X84151537Y86055346D01*
X84117058Y86010413D01*
X84080059Y86000500D01*
X79559375Y86000500D01*
X79507049Y86022174D01*
X79485375Y86074500D01*
X79487896Y86093652D01*
X79492678Y86111499D01*
X79500500Y86140691D01*
X79500500Y86259309D01*
X79500500Y86259311D01*
X79500499Y86259312D01*
X79469800Y86373883D01*
X79469798Y86373888D01*
X79410491Y86476610D01*
X79410490Y86476611D01*
X79410489Y86476613D01*
X79326613Y86560489D01*
X79326610Y86560491D01*
X79326609Y86560492D01*
X79223887Y86619799D01*
X79223882Y86619801D01*
X79109311Y86650500D01*
X79109309Y86650500D01*
X78990691Y86650500D01*
X78990689Y86650500D01*
X78876117Y86619801D01*
X78876112Y86619799D01*
X78773385Y86560488D01*
X78771255Y86558358D01*
X78769852Y86557778D01*
X78769538Y86557536D01*
X78769473Y86557621D01*
X78718927Y86536689D01*
X78666608Y86558363D01*
X77263751Y87961220D01*
X77242077Y88013546D01*
X77263751Y88065872D01*
X77279077Y88077632D01*
X77316778Y88099399D01*
X77351613Y88119511D01*
X77435489Y88203387D01*
X77494799Y88306114D01*
X77525499Y88420689D01*
X77525500Y88420689D01*
X77525500Y88539311D01*
X77525499Y88539312D01*
X77524698Y88542300D01*
X77494799Y88653886D01*
X77435489Y88756613D01*
X77429902Y88762200D01*
X77408229Y88814524D01*
X77429903Y88866850D01*
X77482229Y88888524D01*
X77519229Y88878610D01*
X77551110Y88860203D01*
X77551114Y88860201D01*
X77551115Y88860201D01*
X77551117Y88860200D01*
X77583493Y88851525D01*
X77665688Y88829501D01*
X77665689Y88829500D01*
X77665691Y88829500D01*
X77784311Y88829500D01*
X77784311Y88829501D01*
X77898886Y88860201D01*
X78001613Y88919511D01*
X78085489Y89003387D01*
X78144799Y89106114D01*
X78175499Y89220689D01*
X78175500Y89220689D01*
X78175500Y89274877D01*
X78197174Y89327203D01*
X101429283Y112559312D01*
X112324500Y112559312D01*
X112324500Y112440689D01*
X112355199Y112326118D01*
X112355201Y112326113D01*
X112414508Y112223391D01*
X112414509Y112223390D01*
X112414511Y112223387D01*
X112498387Y112139511D01*
X112601114Y112080201D01*
X112601115Y112080201D01*
X112601117Y112080200D01*
X112618550Y112075529D01*
X112715688Y112049501D01*
X112715689Y112049500D01*
X112715691Y112049500D01*
X112834311Y112049500D01*
X112834311Y112049501D01*
X112948886Y112080201D01*
X113051613Y112139511D01*
X113135489Y112223387D01*
X113194799Y112326114D01*
X113225499Y112440689D01*
X113225500Y112440689D01*
X113225500Y112559311D01*
X113225499Y112559312D01*
X113194800Y112673883D01*
X113194798Y112673888D01*
X113135491Y112776610D01*
X113135490Y112776611D01*
X113135489Y112776613D01*
X113051613Y112860489D01*
X113051610Y112860491D01*
X113051609Y112860492D01*
X112948887Y112919799D01*
X112948882Y112919801D01*
X112834311Y112950500D01*
X112834309Y112950500D01*
X112715691Y112950500D01*
X112715689Y112950500D01*
X112601117Y112919801D01*
X112601112Y112919799D01*
X112498390Y112860492D01*
X112414508Y112776610D01*
X112355201Y112673888D01*
X112355199Y112673883D01*
X112324500Y112559312D01*
X101429283Y112559312D01*
X102797797Y113927826D01*
X102850123Y113949500D01*
X115457746Y113949500D01*
X115510071Y113927827D01*
X115548387Y113889511D01*
X115548389Y113889510D01*
X115548390Y113889509D01*
X115627887Y113843611D01*
X115651114Y113830201D01*
X115651115Y113830201D01*
X115651117Y113830200D01*
X115669770Y113825202D01*
X115765688Y113799501D01*
X115765689Y113799500D01*
X115765691Y113799500D01*
X115884311Y113799500D01*
X115884311Y113799501D01*
X115998886Y113830201D01*
X116101613Y113889511D01*
X116185489Y113973387D01*
X116244799Y114076114D01*
X116275499Y114190689D01*
X116275500Y114190689D01*
X116275500Y114309311D01*
X116275499Y114309312D01*
X116249499Y114406347D01*
X116256891Y114462500D01*
X116301824Y114496978D01*
X116320977Y114499500D01*
X120857746Y114499500D01*
X120910071Y114477827D01*
X120948387Y114439511D01*
X120948389Y114439510D01*
X120948390Y114439509D01*
X121005828Y114406347D01*
X121051114Y114380201D01*
X121051115Y114380201D01*
X121051117Y114380200D01*
X121108402Y114364851D01*
X121165688Y114349501D01*
X121165689Y114349500D01*
X121165691Y114349500D01*
X121284311Y114349500D01*
X121284311Y114349501D01*
X121398886Y114380201D01*
X121501613Y114439511D01*
X121585489Y114523387D01*
X121644799Y114626114D01*
X121675499Y114740689D01*
X121675500Y114740689D01*
X121675500Y114859311D01*
X121675499Y114859312D01*
X121644800Y114973883D01*
X121644798Y114973888D01*
X121585491Y115076610D01*
X121585490Y115076611D01*
X121585489Y115076613D01*
X121501613Y115160489D01*
X121501610Y115160491D01*
X121501609Y115160492D01*
X121398887Y115219799D01*
X121398882Y115219801D01*
X121284311Y115250500D01*
X121284309Y115250500D01*
X121165691Y115250500D01*
X121165689Y115250500D01*
X121051117Y115219801D01*
X121051112Y115219799D01*
X120948390Y115160492D01*
X120910071Y115122173D01*
X120857746Y115100500D01*
X113630123Y115100500D01*
X113577797Y115122174D01*
X113247174Y115452797D01*
X113225500Y115505123D01*
X113225500Y115559311D01*
X113225499Y115559312D01*
X113194800Y115673883D01*
X113194798Y115673888D01*
X113135491Y115776610D01*
X113135490Y115776611D01*
X113135489Y115776613D01*
X113051613Y115860489D01*
X113051610Y115860491D01*
X113051609Y115860492D01*
X112948887Y115919799D01*
X112948882Y115919801D01*
X112834311Y115950500D01*
X112834309Y115950500D01*
X112715691Y115950500D01*
X112715689Y115950500D01*
X112601117Y115919801D01*
X112601112Y115919799D01*
X112498390Y115860492D01*
X112414508Y115776610D01*
X112355201Y115673888D01*
X112355199Y115673883D01*
X112324500Y115559312D01*
X112324500Y115440689D01*
X112355199Y115326118D01*
X112355201Y115326113D01*
X112414508Y115223391D01*
X112414509Y115223390D01*
X112414511Y115223387D01*
X112498387Y115139511D01*
X112601114Y115080201D01*
X112601115Y115080201D01*
X112601117Y115080200D01*
X112618550Y115075529D01*
X112715688Y115049501D01*
X112715689Y115049500D01*
X112715691Y115049500D01*
X112769877Y115049500D01*
X112822203Y115027826D01*
X113173203Y114676826D01*
X113194877Y114624500D01*
X113173203Y114572174D01*
X113120877Y114550500D01*
X102808422Y114550500D01*
X102756096Y114572174D01*
X102734422Y114624500D01*
X102756096Y114676826D01*
X103839736Y115760465D01*
X105007097Y116927826D01*
X105059423Y116949500D01*
X115457746Y116949500D01*
X115510071Y116927827D01*
X115548387Y116889511D01*
X115651114Y116830201D01*
X115651115Y116830201D01*
X115651117Y116830200D01*
X115708402Y116814851D01*
X115765688Y116799501D01*
X115765689Y116799500D01*
X115765691Y116799500D01*
X115884311Y116799500D01*
X115884311Y116799501D01*
X115998886Y116830201D01*
X116101613Y116889511D01*
X116185489Y116973387D01*
X116244799Y117076114D01*
X116275499Y117190689D01*
X116275500Y117190689D01*
X116275500Y117309311D01*
X116275499Y117309312D01*
X116244800Y117423883D01*
X116244798Y117423888D01*
X116185491Y117526610D01*
X116185490Y117526611D01*
X116185489Y117526613D01*
X116101613Y117610489D01*
X116101610Y117610491D01*
X116101609Y117610492D01*
X115998887Y117669799D01*
X115998882Y117669801D01*
X115884311Y117700500D01*
X115884309Y117700500D01*
X115765691Y117700500D01*
X115765689Y117700500D01*
X115651117Y117669801D01*
X115651112Y117669799D01*
X115548390Y117610492D01*
X115510071Y117572173D01*
X115457746Y117550500D01*
X104864736Y117550500D01*
X104788314Y117530023D01*
X104788309Y117530021D01*
X104763141Y117515489D01*
X104719788Y117490460D01*
X86073133Y98843805D01*
X86020807Y98822131D01*
X85968481Y98843805D01*
X85949329Y98876979D01*
X85944799Y98893886D01*
X85885489Y98996613D01*
X85801613Y99080489D01*
X85801610Y99080491D01*
X85801609Y99080492D01*
X85698887Y99139799D01*
X85698882Y99139801D01*
X85584311Y99170500D01*
X85584309Y99170500D01*
X85465691Y99170500D01*
X85465689Y99170500D01*
X85351117Y99139801D01*
X85351112Y99139799D01*
X85248390Y99080492D01*
X85164508Y98996610D01*
X85105201Y98893888D01*
X85105199Y98893883D01*
X85074500Y98779312D01*
X85074500Y98660689D01*
X85105199Y98546118D01*
X85105201Y98546113D01*
X85164508Y98443391D01*
X85164509Y98443390D01*
X85164511Y98443387D01*
X85248387Y98359511D01*
X85248389Y98359510D01*
X85248390Y98359509D01*
X85351112Y98300202D01*
X85351114Y98300201D01*
X85368020Y98295671D01*
X85412954Y98261195D01*
X85420348Y98205043D01*
X85401195Y98171867D01*
X76890489Y89661160D01*
X76838041Y89608712D01*
X76785715Y89587038D01*
X76733390Y89608712D01*
X76701613Y89640489D01*
X76701610Y89640491D01*
X76701609Y89640492D01*
X76635416Y89678709D01*
X76600937Y89723643D01*
X76608330Y89779795D01*
X76620085Y89795115D01*
X76740460Y89915489D01*
X76780021Y89984011D01*
X76800499Y90060436D01*
X76800500Y90060436D01*
X76800500Y92613051D01*
X76810415Y92650052D01*
X76811987Y92652776D01*
X76830022Y92684012D01*
X76850500Y92760438D01*
X76850500Y92839562D01*
X76850500Y95813051D01*
X76860415Y95850052D01*
X76861987Y95852776D01*
X76880022Y95884012D01*
X76900500Y95960438D01*
X76900500Y96039562D01*
X76900500Y97344877D01*
X76922174Y97397203D01*
X76961883Y97436912D01*
X78063900Y97436912D01*
X78063900Y97318289D01*
X78094599Y97203718D01*
X78094601Y97203713D01*
X78153908Y97100991D01*
X78153909Y97100990D01*
X78153911Y97100987D01*
X78237787Y97017111D01*
X78237789Y97017110D01*
X78237790Y97017109D01*
X78339979Y96958110D01*
X78340514Y96957801D01*
X78340515Y96957801D01*
X78340517Y96957800D01*
X78397802Y96942451D01*
X78455088Y96927101D01*
X78455089Y96927100D01*
X78455091Y96927100D01*
X78573711Y96927100D01*
X78573711Y96927101D01*
X78688286Y96957801D01*
X78791013Y97017111D01*
X78829329Y97055427D01*
X78881654Y97077100D01*
X79802764Y97077100D01*
X79802764Y97077101D01*
X79879189Y97097579D01*
X79947711Y97137140D01*
X80003660Y97193089D01*
X81215460Y98404889D01*
X81222269Y98416682D01*
X81255021Y98473411D01*
X81275499Y98549836D01*
X81275500Y98549836D01*
X81275500Y99152747D01*
X81297173Y99205072D01*
X81335489Y99243387D01*
X81394799Y99346114D01*
X81425499Y99460689D01*
X81425500Y99460689D01*
X81425500Y99579311D01*
X81425499Y99579312D01*
X81824500Y99579312D01*
X81824500Y99460689D01*
X81855199Y99346118D01*
X81855201Y99346113D01*
X81914508Y99243391D01*
X81914509Y99243390D01*
X81914511Y99243387D01*
X81998387Y99159511D01*
X81998389Y99159510D01*
X81998390Y99159509D01*
X82101112Y99100202D01*
X82101114Y99100201D01*
X82101115Y99100201D01*
X82101117Y99100200D01*
X82133493Y99091525D01*
X82215688Y99069501D01*
X82215689Y99069500D01*
X82215691Y99069500D01*
X82334311Y99069500D01*
X82334311Y99069501D01*
X82448886Y99100201D01*
X82480769Y99118610D01*
X82536921Y99126003D01*
X82581855Y99091525D01*
X82589249Y99035373D01*
X82570099Y99002201D01*
X82564509Y98996611D01*
X82505201Y98893888D01*
X82505199Y98893883D01*
X82474500Y98779312D01*
X82474500Y98660689D01*
X82505199Y98546118D01*
X82505201Y98546113D01*
X82564508Y98443391D01*
X82564509Y98443390D01*
X82564511Y98443387D01*
X82648387Y98359511D01*
X82648389Y98359510D01*
X82648390Y98359509D01*
X82751112Y98300202D01*
X82751114Y98300201D01*
X82751115Y98300201D01*
X82751117Y98300200D01*
X82768016Y98295672D01*
X82865688Y98269501D01*
X82865689Y98269500D01*
X82865691Y98269500D01*
X82984311Y98269500D01*
X82984311Y98269501D01*
X83098886Y98300201D01*
X83201613Y98359511D01*
X83285489Y98443387D01*
X83344799Y98546114D01*
X83375499Y98660689D01*
X83375500Y98660689D01*
X83375500Y98779311D01*
X83375499Y98779312D01*
X83344800Y98893883D01*
X83344798Y98893888D01*
X83285491Y98996610D01*
X83285490Y98996611D01*
X83285489Y98996613D01*
X83279902Y99002200D01*
X83258229Y99054524D01*
X83279903Y99106850D01*
X83332229Y99128524D01*
X83369229Y99118610D01*
X83401110Y99100203D01*
X83401114Y99100201D01*
X83401115Y99100201D01*
X83401117Y99100200D01*
X83433493Y99091525D01*
X83515688Y99069501D01*
X83515689Y99069500D01*
X83515691Y99069500D01*
X83634311Y99069500D01*
X83634311Y99069501D01*
X83748886Y99100201D01*
X83780769Y99118610D01*
X83836921Y99126003D01*
X83881855Y99091525D01*
X83889249Y99035373D01*
X83870099Y99002201D01*
X83864509Y98996611D01*
X83805201Y98893888D01*
X83805199Y98893883D01*
X83774500Y98779312D01*
X83774500Y98660689D01*
X83805199Y98546118D01*
X83805201Y98546113D01*
X83864508Y98443391D01*
X83864509Y98443390D01*
X83864511Y98443387D01*
X83948387Y98359511D01*
X83948389Y98359510D01*
X83948390Y98359509D01*
X84051112Y98300202D01*
X84051114Y98300201D01*
X84051115Y98300201D01*
X84051117Y98300200D01*
X84068016Y98295672D01*
X84165688Y98269501D01*
X84165689Y98269500D01*
X84165691Y98269500D01*
X84284311Y98269500D01*
X84284311Y98269501D01*
X84398886Y98300201D01*
X84501613Y98359511D01*
X84585489Y98443387D01*
X84644799Y98546114D01*
X84675499Y98660689D01*
X84675500Y98660689D01*
X84675500Y98779311D01*
X84675499Y98779312D01*
X84644800Y98893883D01*
X84644798Y98893888D01*
X84585491Y98996610D01*
X84585490Y98996611D01*
X84585489Y98996613D01*
X84501613Y99080489D01*
X84501610Y99080491D01*
X84501609Y99080492D01*
X84398887Y99139799D01*
X84398882Y99139801D01*
X84284311Y99170500D01*
X84284309Y99170500D01*
X84165691Y99170500D01*
X84165689Y99170500D01*
X84051117Y99139801D01*
X84051108Y99139797D01*
X84019228Y99121391D01*
X83963075Y99113999D01*
X83918143Y99148478D01*
X83910751Y99204631D01*
X83929903Y99237802D01*
X83935489Y99243387D01*
X83994799Y99346114D01*
X84025499Y99460689D01*
X84025500Y99460689D01*
X84025500Y99579311D01*
X84025499Y99579312D01*
X83994800Y99693883D01*
X83994798Y99693888D01*
X83935491Y99796610D01*
X83935490Y99796611D01*
X83935489Y99796613D01*
X83851613Y99880489D01*
X83851610Y99880491D01*
X83851609Y99880492D01*
X83748887Y99939799D01*
X83748882Y99939801D01*
X83634311Y99970500D01*
X83634309Y99970500D01*
X83515691Y99970500D01*
X83515689Y99970500D01*
X83401117Y99939801D01*
X83401112Y99939799D01*
X83298390Y99880492D01*
X83214508Y99796610D01*
X83155201Y99693888D01*
X83155199Y99693883D01*
X83124500Y99579312D01*
X83124500Y99460689D01*
X83155199Y99346118D01*
X83155201Y99346113D01*
X83214508Y99243391D01*
X83214509Y99243390D01*
X83214511Y99243387D01*
X83220096Y99237802D01*
X83241770Y99185477D01*
X83220096Y99133151D01*
X83167770Y99111477D01*
X83130770Y99121391D01*
X83098887Y99139799D01*
X83098882Y99139801D01*
X82984311Y99170500D01*
X82984309Y99170500D01*
X82865691Y99170500D01*
X82865689Y99170500D01*
X82751117Y99139801D01*
X82751108Y99139797D01*
X82719228Y99121391D01*
X82663075Y99113999D01*
X82618143Y99148478D01*
X82610751Y99204631D01*
X82629903Y99237802D01*
X82635489Y99243387D01*
X82694799Y99346114D01*
X82725499Y99460689D01*
X82725500Y99460689D01*
X82725500Y99579311D01*
X82725499Y99579312D01*
X82694800Y99693883D01*
X82694798Y99693888D01*
X82635491Y99796610D01*
X82635490Y99796611D01*
X82635489Y99796613D01*
X82551613Y99880489D01*
X82551610Y99880491D01*
X82551609Y99880492D01*
X82448887Y99939799D01*
X82448882Y99939801D01*
X82334311Y99970500D01*
X82334309Y99970500D01*
X82215691Y99970500D01*
X82215689Y99970500D01*
X82101117Y99939801D01*
X82101112Y99939799D01*
X81998390Y99880492D01*
X81914508Y99796610D01*
X81855201Y99693888D01*
X81855199Y99693883D01*
X81824500Y99579312D01*
X81425499Y99579312D01*
X81394800Y99693883D01*
X81394798Y99693888D01*
X81335491Y99796610D01*
X81335490Y99796611D01*
X81335489Y99796613D01*
X81251613Y99880489D01*
X81251610Y99880491D01*
X81251609Y99880492D01*
X81148887Y99939799D01*
X81148882Y99939801D01*
X81034311Y99970500D01*
X81034309Y99970500D01*
X80915691Y99970500D01*
X80915689Y99970500D01*
X80801117Y99939801D01*
X80801112Y99939799D01*
X80698390Y99880492D01*
X80614508Y99796610D01*
X80555201Y99693888D01*
X80555199Y99693883D01*
X80524500Y99579312D01*
X80524500Y99460689D01*
X80555199Y99346118D01*
X80555201Y99346113D01*
X80614508Y99243391D01*
X80614509Y99243390D01*
X80614511Y99243387D01*
X80620096Y99237802D01*
X80641770Y99185477D01*
X80620096Y99133151D01*
X80567770Y99111477D01*
X80530770Y99121391D01*
X80498887Y99139799D01*
X80498882Y99139801D01*
X80384311Y99170500D01*
X80384309Y99170500D01*
X80265691Y99170500D01*
X80265689Y99170500D01*
X80151117Y99139801D01*
X80151108Y99139797D01*
X80119228Y99121391D01*
X80063075Y99113999D01*
X80018143Y99148478D01*
X80010751Y99204631D01*
X80029903Y99237802D01*
X80035489Y99243387D01*
X80094799Y99346114D01*
X80125499Y99460689D01*
X80125500Y99460689D01*
X80125500Y99579311D01*
X80125499Y99579312D01*
X80094800Y99693883D01*
X80094798Y99693888D01*
X80035491Y99796610D01*
X80035490Y99796611D01*
X80035489Y99796613D01*
X79951613Y99880489D01*
X79951610Y99880491D01*
X79951609Y99880492D01*
X79848887Y99939799D01*
X79848882Y99939801D01*
X79734311Y99970500D01*
X79734309Y99970500D01*
X79615691Y99970500D01*
X79615689Y99970500D01*
X79501117Y99939801D01*
X79501112Y99939799D01*
X79398390Y99880492D01*
X79314508Y99796610D01*
X79255201Y99693888D01*
X79255199Y99693883D01*
X79224500Y99579312D01*
X79224500Y99460689D01*
X79255199Y99346118D01*
X79255201Y99346113D01*
X79314508Y99243391D01*
X79314509Y99243390D01*
X79314511Y99243387D01*
X79320096Y99237802D01*
X79341770Y99185477D01*
X79320096Y99133151D01*
X79267770Y99111477D01*
X79230770Y99121391D01*
X79198887Y99139799D01*
X79198882Y99139801D01*
X79084311Y99170500D01*
X79084309Y99170500D01*
X78965691Y99170500D01*
X78965689Y99170500D01*
X78851117Y99139801D01*
X78851112Y99139799D01*
X78748390Y99080492D01*
X78664508Y98996610D01*
X78605201Y98893888D01*
X78605199Y98893883D01*
X78574500Y98779312D01*
X78574500Y98660689D01*
X78605199Y98546118D01*
X78605201Y98546113D01*
X78664508Y98443391D01*
X78664509Y98443390D01*
X78664511Y98443387D01*
X78748387Y98359511D01*
X78748389Y98359510D01*
X78748390Y98359509D01*
X78851112Y98300202D01*
X78851114Y98300201D01*
X78851115Y98300201D01*
X78851117Y98300200D01*
X78868016Y98295672D01*
X78965688Y98269501D01*
X78965689Y98269500D01*
X78965691Y98269500D01*
X79084311Y98269500D01*
X79084311Y98269501D01*
X79198886Y98300201D01*
X79301613Y98359511D01*
X79385489Y98443387D01*
X79444799Y98546114D01*
X79475499Y98660689D01*
X79475500Y98660689D01*
X79475500Y98779311D01*
X79475499Y98779312D01*
X79444800Y98893883D01*
X79444798Y98893888D01*
X79385491Y98996610D01*
X79385490Y98996611D01*
X79385489Y98996613D01*
X79379902Y99002200D01*
X79358229Y99054524D01*
X79379903Y99106850D01*
X79432229Y99128524D01*
X79469229Y99118610D01*
X79501110Y99100203D01*
X79501114Y99100201D01*
X79501115Y99100201D01*
X79501117Y99100200D01*
X79533493Y99091525D01*
X79615688Y99069501D01*
X79615689Y99069500D01*
X79615691Y99069500D01*
X79734311Y99069500D01*
X79734311Y99069501D01*
X79848886Y99100201D01*
X79880769Y99118610D01*
X79936921Y99126003D01*
X79981855Y99091525D01*
X79989249Y99035373D01*
X79970099Y99002201D01*
X79964509Y98996611D01*
X79905201Y98893888D01*
X79905199Y98893883D01*
X79874500Y98779312D01*
X79874500Y98660689D01*
X79905199Y98546118D01*
X79905201Y98546113D01*
X79964508Y98443391D01*
X79964509Y98443390D01*
X79964511Y98443387D01*
X80048387Y98359511D01*
X80048389Y98359510D01*
X80048390Y98359509D01*
X80137152Y98308262D01*
X80171631Y98263329D01*
X80164238Y98207176D01*
X80152478Y98191850D01*
X79660403Y97699774D01*
X79608077Y97678100D01*
X78881654Y97678100D01*
X78829329Y97699773D01*
X78829328Y97699774D01*
X78791013Y97738089D01*
X78791010Y97738091D01*
X78791009Y97738092D01*
X78688287Y97797399D01*
X78688282Y97797401D01*
X78573711Y97828100D01*
X78573709Y97828100D01*
X78455091Y97828100D01*
X78455089Y97828100D01*
X78340517Y97797401D01*
X78340512Y97797399D01*
X78237790Y97738092D01*
X78153908Y97654210D01*
X78094601Y97551488D01*
X78094599Y97551483D01*
X78063900Y97436912D01*
X76961883Y97436912D01*
X77019056Y97494085D01*
X77353071Y97828100D01*
X77784171Y98259201D01*
X77817339Y98278351D01*
X77898886Y98300201D01*
X78001613Y98359511D01*
X78085489Y98443387D01*
X78144799Y98546114D01*
X78175499Y98660689D01*
X78175500Y98660689D01*
X78175500Y98779311D01*
X78175499Y98779312D01*
X78144800Y98893883D01*
X78144798Y98893888D01*
X78085491Y98996610D01*
X78085490Y98996611D01*
X78085489Y98996613D01*
X78001613Y99080489D01*
X78001610Y99080491D01*
X78001609Y99080492D01*
X77898887Y99139799D01*
X77898882Y99139801D01*
X77784311Y99170500D01*
X77784309Y99170500D01*
X77665691Y99170500D01*
X77665689Y99170500D01*
X77551117Y99139801D01*
X77551108Y99139797D01*
X77519228Y99121391D01*
X77463075Y99113999D01*
X77418143Y99148478D01*
X77410751Y99204631D01*
X77429903Y99237802D01*
X77435489Y99243387D01*
X77494799Y99346114D01*
X77525499Y99460689D01*
X77525500Y99460689D01*
X77525500Y99579311D01*
X77525499Y99579312D01*
X77494800Y99693883D01*
X77494798Y99693888D01*
X77435491Y99796610D01*
X77435490Y99796611D01*
X77435489Y99796613D01*
X77351613Y99880489D01*
X77351610Y99880491D01*
X77351609Y99880492D01*
X77248887Y99939799D01*
X77248882Y99939801D01*
X77134311Y99970500D01*
X77134309Y99970500D01*
X77015691Y99970500D01*
X77015689Y99970500D01*
X76901117Y99939801D01*
X76901112Y99939799D01*
X76798390Y99880492D01*
X76714508Y99796610D01*
X76655201Y99693888D01*
X76655199Y99693883D01*
X76624500Y99579312D01*
X76624500Y99460689D01*
X76655199Y99346118D01*
X76655201Y99346113D01*
X76714508Y99243391D01*
X76714509Y99243390D01*
X76714511Y99243387D01*
X76720096Y99237802D01*
X76741770Y99185477D01*
X76720096Y99133151D01*
X76667770Y99111477D01*
X76630770Y99121391D01*
X76598887Y99139799D01*
X76598882Y99139801D01*
X76484311Y99170500D01*
X76484309Y99170500D01*
X76365691Y99170500D01*
X76365689Y99170500D01*
X76251117Y99139801D01*
X76251108Y99139797D01*
X76219228Y99121391D01*
X76163075Y99113999D01*
X76118143Y99148478D01*
X76110751Y99204631D01*
X76129903Y99237802D01*
X76135489Y99243387D01*
X76194799Y99346114D01*
X76225499Y99460689D01*
X76225500Y99460689D01*
X76225500Y99579311D01*
X76225499Y99579312D01*
X76194800Y99693883D01*
X76194798Y99693888D01*
X76135491Y99796610D01*
X76135490Y99796611D01*
X76135489Y99796613D01*
X76051613Y99880489D01*
X76051610Y99880491D01*
X76051609Y99880492D01*
X75948887Y99939799D01*
X75948882Y99939801D01*
X75834311Y99970500D01*
X75834309Y99970500D01*
X75715691Y99970500D01*
X75715689Y99970500D01*
X75601117Y99939801D01*
X75601112Y99939799D01*
X75498390Y99880492D01*
X75414508Y99796610D01*
X75355201Y99693888D01*
X75355199Y99693883D01*
X75324500Y99579312D01*
X75324500Y99460689D01*
X75355199Y99346118D01*
X75355201Y99346113D01*
X75414508Y99243391D01*
X75414509Y99243390D01*
X75414511Y99243387D01*
X75498387Y99159511D01*
X75498389Y99159510D01*
X75498390Y99159509D01*
X75601112Y99100202D01*
X75601114Y99100201D01*
X75601115Y99100201D01*
X75601117Y99100200D01*
X75633493Y99091525D01*
X75715688Y99069501D01*
X75715689Y99069500D01*
X75715691Y99069500D01*
X75834311Y99069500D01*
X75834311Y99069501D01*
X75948886Y99100201D01*
X75980769Y99118610D01*
X76036921Y99126003D01*
X76081855Y99091525D01*
X76089249Y99035373D01*
X76070099Y99002201D01*
X76064509Y98996611D01*
X76005201Y98893888D01*
X76005199Y98893883D01*
X75974500Y98779312D01*
X75974500Y98660689D01*
X76005199Y98546118D01*
X76005201Y98546113D01*
X76064508Y98443391D01*
X76064509Y98443390D01*
X76064511Y98443387D01*
X76148387Y98359511D01*
X76148389Y98359510D01*
X76148390Y98359509D01*
X76212109Y98322720D01*
X76246588Y98277786D01*
X76239195Y98221634D01*
X76227435Y98206308D01*
X75024803Y97003674D01*
X74972477Y96982000D01*
X72445754Y96982000D01*
X72393429Y97003673D01*
X72379991Y97017111D01*
X72355113Y97041989D01*
X72355110Y97041991D01*
X72355109Y97041992D01*
X72252387Y97101299D01*
X72252382Y97101301D01*
X72137811Y97132000D01*
X72137809Y97132000D01*
X72019191Y97132000D01*
X72019189Y97132000D01*
X71904617Y97101301D01*
X71904612Y97101299D01*
X71801890Y97041992D01*
X71718008Y96958110D01*
X71658701Y96855388D01*
X71658699Y96855383D01*
X71628000Y96740812D01*
X71628000Y96622189D01*
X71658699Y96507618D01*
X71658701Y96507613D01*
X71718008Y96404891D01*
X71718009Y96404890D01*
X71718011Y96404887D01*
X71801887Y96321011D01*
X71904614Y96261701D01*
X71904615Y96261701D01*
X71904617Y96261700D01*
X71961902Y96246351D01*
X72019188Y96231001D01*
X72019189Y96231000D01*
X72019191Y96231000D01*
X72137811Y96231000D01*
X72137811Y96231001D01*
X72252386Y96261701D01*
X72355113Y96321011D01*
X72393429Y96359327D01*
X72445754Y96381000D01*
X75167164Y96381000D01*
X75167164Y96381001D01*
X75243589Y96401479D01*
X75312111Y96441040D01*
X75368060Y96496989D01*
X76173174Y97302103D01*
X76225500Y97323777D01*
X76277826Y97302103D01*
X76299500Y97249777D01*
X76299500Y96136950D01*
X76289586Y96099951D01*
X76269978Y96065989D01*
X76249500Y95989565D01*
X76249500Y92936950D01*
X76239586Y92899951D01*
X76219978Y92865989D01*
X76199500Y92789565D01*
X76199500Y90255123D01*
X76177826Y90202797D01*
X75709540Y89734512D01*
X75669979Y89665991D01*
X75669977Y89665986D01*
X75649500Y89589565D01*
X75649500Y89586950D01*
X75639586Y89549951D01*
X75619978Y89515989D01*
X75599500Y89439565D01*
X75599500Y89010436D01*
X75610693Y88968663D01*
X75603301Y88912510D01*
X75576215Y88885424D01*
X75498390Y88840492D01*
X75414508Y88756610D01*
X75355201Y88653888D01*
X75355199Y88653883D01*
X75324500Y88539312D01*
X75324500Y88420689D01*
X75355199Y88306118D01*
X75355201Y88306113D01*
X75414508Y88203391D01*
X75414509Y88203390D01*
X75414511Y88203387D01*
X75498387Y88119511D01*
X75498389Y88119510D01*
X75498390Y88119509D01*
X75601112Y88060202D01*
X75601114Y88060201D01*
X75601115Y88060201D01*
X75601117Y88060200D01*
X75658402Y88044851D01*
X75715688Y88029501D01*
X75715689Y88029500D01*
X75715691Y88029500D01*
X75834311Y88029500D01*
X75834311Y88029501D01*
X75948886Y88060201D01*
X76051613Y88119511D01*
X76101240Y88169139D01*
X76153565Y88190812D01*
X76205891Y88169138D01*
X78248203Y86126826D01*
X78269877Y86074500D01*
X78248203Y86022174D01*
X78195877Y86000500D01*
X66074500Y86000500D01*
X66022174Y86022174D01*
X66000500Y86074500D01*
X66000500Y89339312D01*
X73374500Y89339312D01*
X73374500Y89220689D01*
X73405199Y89106118D01*
X73405201Y89106113D01*
X73464508Y89003391D01*
X73464509Y89003390D01*
X73464511Y89003387D01*
X73548387Y88919511D01*
X73548389Y88919510D01*
X73548390Y88919509D01*
X73651112Y88860202D01*
X73651114Y88860201D01*
X73651115Y88860201D01*
X73651117Y88860200D01*
X73683493Y88851525D01*
X73765688Y88829501D01*
X73765689Y88829500D01*
X73765691Y88829500D01*
X73884311Y88829500D01*
X73884311Y88829501D01*
X73998886Y88860201D01*
X74030769Y88878610D01*
X74086921Y88886003D01*
X74131855Y88851525D01*
X74139249Y88795373D01*
X74120099Y88762201D01*
X74114509Y88756611D01*
X74055201Y88653888D01*
X74055199Y88653883D01*
X74024500Y88539312D01*
X74024500Y88420689D01*
X74055199Y88306118D01*
X74055201Y88306113D01*
X74114508Y88203391D01*
X74114509Y88203390D01*
X74114511Y88203387D01*
X74198387Y88119511D01*
X74198389Y88119510D01*
X74198390Y88119509D01*
X74301112Y88060202D01*
X74301114Y88060201D01*
X74301115Y88060201D01*
X74301117Y88060200D01*
X74358402Y88044851D01*
X74415688Y88029501D01*
X74415689Y88029500D01*
X74415691Y88029500D01*
X74534311Y88029500D01*
X74534311Y88029501D01*
X74648886Y88060201D01*
X74751613Y88119511D01*
X74835489Y88203387D01*
X74894799Y88306114D01*
X74925499Y88420689D01*
X74925500Y88420689D01*
X74925500Y88539311D01*
X74925499Y88539312D01*
X74924698Y88542300D01*
X74894799Y88653886D01*
X74835489Y88756613D01*
X74751613Y88840489D01*
X74751610Y88840491D01*
X74751609Y88840492D01*
X74648887Y88899799D01*
X74648882Y88899801D01*
X74534311Y88930500D01*
X74534309Y88930500D01*
X74415691Y88930500D01*
X74415689Y88930500D01*
X74301117Y88899801D01*
X74301108Y88899797D01*
X74269228Y88881391D01*
X74213075Y88873999D01*
X74168143Y88908478D01*
X74160751Y88964631D01*
X74179903Y88997802D01*
X74185489Y89003387D01*
X74244799Y89106114D01*
X74275499Y89220689D01*
X74275500Y89220689D01*
X74275500Y89339311D01*
X74275499Y89339312D01*
X74244800Y89453883D01*
X74244798Y89453888D01*
X74185491Y89556610D01*
X74185490Y89556611D01*
X74185489Y89556613D01*
X74101613Y89640489D01*
X74101610Y89640491D01*
X74101609Y89640492D01*
X73998887Y89699799D01*
X73998882Y89699801D01*
X73884311Y89730500D01*
X73884309Y89730500D01*
X73765691Y89730500D01*
X73765689Y89730500D01*
X73651117Y89699801D01*
X73651112Y89699799D01*
X73548390Y89640492D01*
X73464508Y89556610D01*
X73405201Y89453888D01*
X73405199Y89453883D01*
X73374500Y89339312D01*
X66000500Y89339312D01*
X66000500Y99233112D01*
X67631300Y99233112D01*
X67631300Y99114489D01*
X67661999Y98999918D01*
X67662001Y98999913D01*
X67721308Y98897191D01*
X67721309Y98897190D01*
X67721311Y98897187D01*
X67805187Y98813311D01*
X67805189Y98813310D01*
X67805190Y98813309D01*
X67907912Y98754002D01*
X67907914Y98754001D01*
X67907915Y98754001D01*
X67907917Y98754000D01*
X67965202Y98738651D01*
X68022488Y98723301D01*
X68022489Y98723300D01*
X68022491Y98723300D01*
X68141111Y98723300D01*
X68141111Y98723301D01*
X68255686Y98754001D01*
X68299526Y98779312D01*
X73374500Y98779312D01*
X73374500Y98660689D01*
X73405199Y98546118D01*
X73405201Y98546113D01*
X73464508Y98443391D01*
X73464509Y98443390D01*
X73464511Y98443387D01*
X73548387Y98359511D01*
X73548389Y98359510D01*
X73548390Y98359509D01*
X73651112Y98300202D01*
X73651114Y98300201D01*
X73651115Y98300201D01*
X73651117Y98300200D01*
X73668016Y98295672D01*
X73765688Y98269501D01*
X73765689Y98269500D01*
X73765691Y98269500D01*
X73884311Y98269500D01*
X73884311Y98269501D01*
X73998886Y98300201D01*
X74101613Y98359511D01*
X74185489Y98443387D01*
X74244799Y98546114D01*
X74275499Y98660689D01*
X74275500Y98660689D01*
X74275500Y98779311D01*
X74275499Y98779312D01*
X74244800Y98893883D01*
X74244798Y98893888D01*
X74185491Y98996610D01*
X74185490Y98996611D01*
X74185489Y98996613D01*
X74179902Y99002200D01*
X74158229Y99054524D01*
X74179903Y99106850D01*
X74232229Y99128524D01*
X74269229Y99118610D01*
X74301110Y99100203D01*
X74301114Y99100201D01*
X74301115Y99100201D01*
X74301117Y99100200D01*
X74333493Y99091525D01*
X74415688Y99069501D01*
X74415689Y99069500D01*
X74415691Y99069500D01*
X74534311Y99069500D01*
X74534311Y99069501D01*
X74648886Y99100201D01*
X74751613Y99159511D01*
X74835489Y99243387D01*
X74894799Y99346114D01*
X74925499Y99460689D01*
X74925500Y99460689D01*
X74925500Y99579311D01*
X74925499Y99579312D01*
X74894800Y99693883D01*
X74894798Y99693888D01*
X74835491Y99796610D01*
X74835490Y99796611D01*
X74835489Y99796613D01*
X74751613Y99880489D01*
X74751610Y99880491D01*
X74751609Y99880492D01*
X74648887Y99939799D01*
X74648882Y99939801D01*
X74534311Y99970500D01*
X74534309Y99970500D01*
X74415691Y99970500D01*
X74415689Y99970500D01*
X74301117Y99939801D01*
X74301112Y99939799D01*
X74198390Y99880492D01*
X74114508Y99796610D01*
X74055201Y99693888D01*
X74055199Y99693883D01*
X74024500Y99579312D01*
X74024500Y99460689D01*
X74055199Y99346118D01*
X74055201Y99346113D01*
X74114508Y99243391D01*
X74114509Y99243390D01*
X74114511Y99243387D01*
X74120096Y99237802D01*
X74141770Y99185477D01*
X74120096Y99133151D01*
X74067770Y99111477D01*
X74030770Y99121391D01*
X73998887Y99139799D01*
X73998882Y99139801D01*
X73884311Y99170500D01*
X73884309Y99170500D01*
X73765691Y99170500D01*
X73765689Y99170500D01*
X73651117Y99139801D01*
X73651112Y99139799D01*
X73548390Y99080492D01*
X73464508Y98996610D01*
X73405201Y98893888D01*
X73405199Y98893883D01*
X73374500Y98779312D01*
X68299526Y98779312D01*
X68358413Y98813311D01*
X68442289Y98897187D01*
X68501599Y98999914D01*
X68532299Y99114489D01*
X68532300Y99114489D01*
X68532300Y99233111D01*
X68532299Y99233112D01*
X68500344Y99352371D01*
X68501999Y99352815D01*
X68501992Y99403354D01*
X68542035Y99443408D01*
X68573741Y99447584D01*
X68573741Y99448600D01*
X68697211Y99448600D01*
X68697211Y99448601D01*
X68811786Y99479301D01*
X68914513Y99538611D01*
X68998389Y99622487D01*
X69057699Y99725214D01*
X69088399Y99839789D01*
X69088400Y99839789D01*
X69088400Y99958411D01*
X69088399Y99958412D01*
X69057700Y100072983D01*
X69057698Y100072988D01*
X68998391Y100175710D01*
X68998390Y100175711D01*
X68998389Y100175713D01*
X68914513Y100259589D01*
X68914510Y100259591D01*
X68914508Y100259593D01*
X68891490Y100272882D01*
X68857011Y100317815D01*
X68864403Y100373967D01*
X68876159Y100389290D01*
X74923793Y106436923D01*
X74976118Y106458596D01*
X75028444Y106436922D01*
X75047596Y106403751D01*
X75052000Y106387316D01*
X75052001Y106387313D01*
X75111308Y106284591D01*
X75111309Y106284590D01*
X75111311Y106284587D01*
X75195187Y106200711D01*
X75297914Y106141401D01*
X75297915Y106141401D01*
X75297917Y106141400D01*
X75355202Y106126051D01*
X75412488Y106110701D01*
X75412489Y106110700D01*
X75412491Y106110700D01*
X75531111Y106110700D01*
X75531111Y106110701D01*
X75645686Y106141401D01*
X75748413Y106200711D01*
X75832289Y106284587D01*
X75891599Y106387314D01*
X75922299Y106501889D01*
X75922300Y106501889D01*
X75922300Y106620511D01*
X75922299Y106620512D01*
X75891600Y106735083D01*
X75891598Y106735088D01*
X75832291Y106837810D01*
X75832290Y106837811D01*
X75832289Y106837813D01*
X75748413Y106921689D01*
X75748410Y106921691D01*
X75748409Y106921692D01*
X75645687Y106980999D01*
X75645684Y106981000D01*
X75629249Y106985404D01*
X75584317Y107019885D01*
X75576926Y107076037D01*
X75596076Y107109206D01*
X77121479Y108634609D01*
X77173804Y108656282D01*
X77226130Y108634608D01*
X77247804Y108582282D01*
X77235333Y108541170D01*
X76766421Y107839394D01*
X76523971Y106620509D01*
X76500000Y106500000D01*
X76766421Y105160608D01*
X77525126Y104025127D01*
X78660607Y103266422D01*
X80000000Y103000000D01*
X81339392Y103266422D01*
X82474873Y104025127D01*
X83233578Y105160608D01*
X83500000Y106500000D01*
X83233578Y107839393D01*
X82474873Y108974874D01*
X82438465Y108999201D01*
X81339392Y109733579D01*
X80234164Y109953422D01*
X80187072Y109984888D01*
X80176023Y110040437D01*
X80207489Y110087529D01*
X80248601Y110100000D01*
X83170064Y110100000D01*
X83170064Y110100001D01*
X83246489Y110120479D01*
X83315011Y110160040D01*
X83370960Y110215989D01*
X86127797Y112972826D01*
X86180123Y112994500D01*
X86234311Y112994500D01*
X86234311Y112994501D01*
X86348886Y113025201D01*
X86451613Y113084511D01*
X86535489Y113168387D01*
X86594799Y113271114D01*
X86625499Y113385689D01*
X86625500Y113385689D01*
X86625500Y113504311D01*
X86625499Y113504312D01*
X86594800Y113618883D01*
X86594798Y113618888D01*
X86535491Y113721610D01*
X86535490Y113721611D01*
X86535489Y113721613D01*
X86451613Y113805489D01*
X86451610Y113805491D01*
X86451609Y113805492D01*
X86348887Y113864799D01*
X86348882Y113864801D01*
X86234311Y113895500D01*
X86234309Y113895500D01*
X86115691Y113895500D01*
X86115689Y113895500D01*
X86001117Y113864801D01*
X86001112Y113864799D01*
X85898390Y113805492D01*
X85814508Y113721610D01*
X85755201Y113618888D01*
X85755199Y113618883D01*
X85724500Y113504312D01*
X85724500Y113450123D01*
X85702826Y113397797D01*
X83027703Y110722674D01*
X82975377Y110701000D01*
X78576822Y110701000D01*
X78524496Y110722674D01*
X78502822Y110775000D01*
X78524496Y110827326D01*
X78646671Y110949500D01*
X78857497Y111160326D01*
X78909823Y111182000D01*
X82952064Y111182000D01*
X82952064Y111182001D01*
X83028489Y111202479D01*
X83097011Y111242040D01*
X83152960Y111297989D01*
X84827797Y112972826D01*
X84880123Y112994500D01*
X84934311Y112994500D01*
X84934311Y112994501D01*
X85048886Y113025201D01*
X85151613Y113084511D01*
X85235489Y113168387D01*
X85294799Y113271114D01*
X85325499Y113385689D01*
X85325500Y113385689D01*
X85325500Y113504311D01*
X85325499Y113504312D01*
X85294800Y113618883D01*
X85294798Y113618888D01*
X85235491Y113721610D01*
X85235490Y113721611D01*
X85235489Y113721613D01*
X85151613Y113805489D01*
X85151610Y113805491D01*
X85151609Y113805492D01*
X85048887Y113864799D01*
X85048882Y113864801D01*
X84934311Y113895500D01*
X84934309Y113895500D01*
X84815691Y113895500D01*
X84815689Y113895500D01*
X84701117Y113864801D01*
X84701114Y113864799D01*
X84669226Y113846389D01*
X84613073Y113838998D01*
X84568140Y113873477D01*
X84560749Y113929630D01*
X84579901Y113962801D01*
X84585489Y113968388D01*
X84644799Y114071115D01*
X84675499Y114185690D01*
X84675500Y114185690D01*
X84675500Y114304312D01*
X84675499Y114304313D01*
X84674160Y114309309D01*
X84644799Y114418887D01*
X84585489Y114521614D01*
X84501613Y114605490D01*
X84501610Y114605492D01*
X84501609Y114605493D01*
X84398887Y114664800D01*
X84398882Y114664802D01*
X84284311Y114695501D01*
X84284309Y114695501D01*
X84165691Y114695501D01*
X84165689Y114695501D01*
X84051117Y114664802D01*
X84051112Y114664800D01*
X83948390Y114605493D01*
X83864508Y114521611D01*
X83805201Y114418889D01*
X83805199Y114418884D01*
X83774500Y114304313D01*
X83774500Y114185690D01*
X83805199Y114071119D01*
X83805201Y114071114D01*
X83864508Y113968392D01*
X83864509Y113968391D01*
X83864511Y113968388D01*
X83870098Y113962801D01*
X83891772Y113910476D01*
X83870098Y113858150D01*
X83817772Y113836476D01*
X83780772Y113846390D01*
X83748888Y113864798D01*
X83748882Y113864801D01*
X83634311Y113895500D01*
X83634309Y113895500D01*
X83515691Y113895500D01*
X83515689Y113895500D01*
X83401117Y113864801D01*
X83401114Y113864799D01*
X83369226Y113846389D01*
X83313073Y113838998D01*
X83268140Y113873477D01*
X83260749Y113929630D01*
X83279901Y113962801D01*
X83285489Y113968388D01*
X83344799Y114071115D01*
X83375499Y114185690D01*
X83375500Y114185690D01*
X83375500Y114304312D01*
X83375499Y114304313D01*
X83374160Y114309309D01*
X83344799Y114418887D01*
X83285489Y114521614D01*
X83201613Y114605490D01*
X83201610Y114605492D01*
X83201609Y114605493D01*
X83098887Y114664800D01*
X83098882Y114664802D01*
X82984311Y114695501D01*
X82984309Y114695501D01*
X82865691Y114695501D01*
X82865689Y114695501D01*
X82751117Y114664802D01*
X82751112Y114664800D01*
X82648390Y114605493D01*
X82564508Y114521611D01*
X82505201Y114418889D01*
X82505199Y114418884D01*
X82474500Y114304313D01*
X82474500Y114185690D01*
X82505199Y114071119D01*
X82505201Y114071114D01*
X82564508Y113968392D01*
X82564509Y113968391D01*
X82564511Y113968388D01*
X82570098Y113962801D01*
X82591772Y113910476D01*
X82570098Y113858150D01*
X82517772Y113836476D01*
X82480772Y113846390D01*
X82448888Y113864798D01*
X82448882Y113864801D01*
X82334311Y113895500D01*
X82334309Y113895500D01*
X82215691Y113895500D01*
X82215689Y113895500D01*
X82101117Y113864801D01*
X82101114Y113864799D01*
X82069226Y113846389D01*
X82013073Y113838998D01*
X81968140Y113873477D01*
X81960749Y113929630D01*
X81979901Y113962801D01*
X81985489Y113968388D01*
X82044799Y114071115D01*
X82075499Y114185690D01*
X82075500Y114185690D01*
X82075500Y114304312D01*
X82075499Y114304313D01*
X82074160Y114309309D01*
X82044799Y114418887D01*
X81985489Y114521614D01*
X81901613Y114605490D01*
X81901610Y114605492D01*
X81901609Y114605493D01*
X81798887Y114664800D01*
X81798882Y114664802D01*
X81684311Y114695501D01*
X81684309Y114695501D01*
X81565691Y114695501D01*
X81565689Y114695501D01*
X81451117Y114664802D01*
X81451112Y114664800D01*
X81348390Y114605493D01*
X81310070Y114567173D01*
X81257745Y114545500D01*
X80437436Y114545500D01*
X80361014Y114525023D01*
X80361009Y114525021D01*
X80327141Y114505466D01*
X80292488Y114485460D01*
X78478103Y112671074D01*
X78425777Y112649400D01*
X70040554Y112649400D01*
X69988229Y112671073D01*
X69985414Y112673888D01*
X69949913Y112709389D01*
X69949910Y112709391D01*
X69949909Y112709392D01*
X69847187Y112768699D01*
X69847182Y112768701D01*
X69732611Y112799400D01*
X69732609Y112799400D01*
X69613991Y112799400D01*
X69613989Y112799400D01*
X69499417Y112768701D01*
X69499412Y112768699D01*
X69396690Y112709392D01*
X69312808Y112625510D01*
X69253501Y112522788D01*
X69253499Y112522783D01*
X69222800Y112408212D01*
X69222800Y112289589D01*
X69253499Y112175018D01*
X69253501Y112175013D01*
X69312808Y112072291D01*
X69312809Y112072290D01*
X69312811Y112072287D01*
X69396687Y111988411D01*
X69499414Y111929101D01*
X69499415Y111929101D01*
X69499417Y111929100D01*
X69556702Y111913751D01*
X69613988Y111898401D01*
X69613989Y111898400D01*
X69613991Y111898400D01*
X69732611Y111898400D01*
X69732611Y111898401D01*
X69847186Y111929101D01*
X69949913Y111988411D01*
X69988229Y112026727D01*
X70040554Y112048400D01*
X78620464Y112048400D01*
X78620464Y112048401D01*
X78696889Y112068879D01*
X78765411Y112108440D01*
X78821360Y112164389D01*
X80579797Y113922826D01*
X80632123Y113944500D01*
X80662988Y113944500D01*
X80715314Y113922826D01*
X80736988Y113870500D01*
X80715314Y113818174D01*
X80699990Y113806415D01*
X80698390Y113805492D01*
X80614508Y113721610D01*
X80555201Y113618888D01*
X80555199Y113618883D01*
X80524500Y113504312D01*
X80524500Y113385689D01*
X80555199Y113271118D01*
X80555201Y113271113D01*
X80614508Y113168391D01*
X80614509Y113168390D01*
X80614511Y113168387D01*
X80698387Y113084511D01*
X80801114Y113025201D01*
X80801115Y113025201D01*
X80801117Y113025200D01*
X80858402Y113009851D01*
X80915688Y112994501D01*
X80915689Y112994500D01*
X80915691Y112994500D01*
X81034311Y112994500D01*
X81034311Y112994501D01*
X81148886Y113025201D01*
X81251613Y113084511D01*
X81335489Y113168387D01*
X81394799Y113271114D01*
X81425499Y113385689D01*
X81425500Y113385689D01*
X81425500Y113504311D01*
X81425499Y113504312D01*
X81394800Y113618883D01*
X81394798Y113618888D01*
X81335491Y113721610D01*
X81335490Y113721611D01*
X81335489Y113721613D01*
X81329900Y113727202D01*
X81308227Y113779526D01*
X81329901Y113831852D01*
X81382227Y113853526D01*
X81419227Y113843612D01*
X81451110Y113825204D01*
X81451114Y113825202D01*
X81451115Y113825202D01*
X81451117Y113825201D01*
X81483489Y113816527D01*
X81565688Y113794502D01*
X81565689Y113794501D01*
X81565691Y113794501D01*
X81684311Y113794501D01*
X81684311Y113794502D01*
X81798886Y113825202D01*
X81830771Y113843612D01*
X81886924Y113851005D01*
X81931857Y113816527D01*
X81939251Y113760374D01*
X81920101Y113727203D01*
X81914509Y113721611D01*
X81855201Y113618888D01*
X81855199Y113618883D01*
X81824500Y113504312D01*
X81824500Y113385689D01*
X81855199Y113271118D01*
X81855201Y113271113D01*
X81914508Y113168391D01*
X81914509Y113168390D01*
X81914511Y113168387D01*
X81998387Y113084511D01*
X82101114Y113025201D01*
X82101115Y113025201D01*
X82101117Y113025200D01*
X82158402Y113009851D01*
X82215688Y112994501D01*
X82215689Y112994500D01*
X82215691Y112994500D01*
X82334311Y112994500D01*
X82334311Y112994501D01*
X82448886Y113025201D01*
X82551613Y113084511D01*
X82635489Y113168387D01*
X82694799Y113271114D01*
X82725499Y113385689D01*
X82725500Y113385689D01*
X82725500Y113504311D01*
X82725499Y113504312D01*
X82694800Y113618883D01*
X82694798Y113618888D01*
X82635491Y113721610D01*
X82635490Y113721611D01*
X82635489Y113721613D01*
X82629900Y113727202D01*
X82608227Y113779526D01*
X82629901Y113831852D01*
X82682227Y113853526D01*
X82719227Y113843612D01*
X82751110Y113825204D01*
X82751114Y113825202D01*
X82751115Y113825202D01*
X82751117Y113825201D01*
X82783489Y113816527D01*
X82865688Y113794502D01*
X82865689Y113794501D01*
X82865691Y113794501D01*
X82984311Y113794501D01*
X82984311Y113794502D01*
X83098886Y113825202D01*
X83130771Y113843612D01*
X83186924Y113851005D01*
X83231857Y113816527D01*
X83239251Y113760374D01*
X83220101Y113727203D01*
X83214509Y113721611D01*
X83155201Y113618888D01*
X83155199Y113618883D01*
X83124500Y113504312D01*
X83124500Y113385689D01*
X83155199Y113271118D01*
X83155201Y113271113D01*
X83214508Y113168391D01*
X83214509Y113168390D01*
X83214511Y113168387D01*
X83298387Y113084511D01*
X83401114Y113025201D01*
X83401115Y113025201D01*
X83401117Y113025200D01*
X83458402Y113009851D01*
X83515688Y112994501D01*
X83515689Y112994500D01*
X83515691Y112994500D01*
X83634311Y112994500D01*
X83634311Y112994501D01*
X83748886Y113025201D01*
X83851613Y113084511D01*
X83935489Y113168387D01*
X83994799Y113271114D01*
X84025499Y113385689D01*
X84025500Y113385689D01*
X84025500Y113504311D01*
X84025499Y113504312D01*
X83994800Y113618883D01*
X83994798Y113618888D01*
X83935491Y113721610D01*
X83935490Y113721611D01*
X83935489Y113721613D01*
X83929900Y113727202D01*
X83908227Y113779526D01*
X83929901Y113831852D01*
X83982227Y113853526D01*
X84019227Y113843612D01*
X84051110Y113825204D01*
X84051114Y113825202D01*
X84051115Y113825202D01*
X84051117Y113825201D01*
X84083489Y113816527D01*
X84165688Y113794502D01*
X84165689Y113794501D01*
X84165691Y113794501D01*
X84284311Y113794501D01*
X84284311Y113794502D01*
X84398886Y113825202D01*
X84430771Y113843612D01*
X84486924Y113851005D01*
X84531857Y113816527D01*
X84539251Y113760374D01*
X84520101Y113727203D01*
X84514509Y113721611D01*
X84455201Y113618888D01*
X84455199Y113618883D01*
X84424500Y113504312D01*
X84424500Y113450123D01*
X84402826Y113397797D01*
X82809703Y111804674D01*
X82757377Y111783000D01*
X78715136Y111783000D01*
X78638714Y111762523D01*
X78638709Y111762521D01*
X78570188Y111722960D01*
X77852603Y111005374D01*
X77800277Y110983700D01*
X77746089Y110983700D01*
X77631517Y110953001D01*
X77631512Y110952999D01*
X77528790Y110893692D01*
X77444908Y110809810D01*
X77385601Y110707088D01*
X77385599Y110707083D01*
X77354900Y110592512D01*
X77354900Y110473889D01*
X77385599Y110359318D01*
X77385601Y110359313D01*
X77444908Y110256591D01*
X77444909Y110256590D01*
X77444911Y110256587D01*
X77528787Y110172711D01*
X77623322Y110118131D01*
X77657799Y110073199D01*
X77650407Y110017046D01*
X77638647Y110001720D01*
X67897289Y100260360D01*
X67841340Y100204412D01*
X67801779Y100135891D01*
X67801777Y100135886D01*
X67781300Y100059465D01*
X67781300Y99541054D01*
X67759627Y99488729D01*
X67721308Y99450410D01*
X67662001Y99347688D01*
X67661999Y99347683D01*
X67631300Y99233112D01*
X66000500Y99233112D01*
X66000500Y114304313D01*
X73374500Y114304313D01*
X73374500Y114185690D01*
X73405199Y114071119D01*
X73405201Y114071114D01*
X73464508Y113968392D01*
X73464509Y113968391D01*
X73464511Y113968388D01*
X73548387Y113884512D01*
X73548389Y113884511D01*
X73548390Y113884510D01*
X73651112Y113825203D01*
X73651114Y113825202D01*
X73651115Y113825202D01*
X73651117Y113825201D01*
X73683489Y113816527D01*
X73765688Y113794502D01*
X73765689Y113794501D01*
X73765691Y113794501D01*
X73884311Y113794501D01*
X73884311Y113794502D01*
X73998886Y113825202D01*
X74030771Y113843612D01*
X74086924Y113851005D01*
X74131857Y113816527D01*
X74139251Y113760374D01*
X74120101Y113727203D01*
X74114509Y113721611D01*
X74055201Y113618888D01*
X74055199Y113618883D01*
X74024500Y113504312D01*
X74024500Y113385689D01*
X74055199Y113271118D01*
X74055201Y113271113D01*
X74114508Y113168391D01*
X74114509Y113168390D01*
X74114511Y113168387D01*
X74198387Y113084511D01*
X74301114Y113025201D01*
X74301115Y113025201D01*
X74301117Y113025200D01*
X74358402Y113009851D01*
X74415688Y112994501D01*
X74415689Y112994500D01*
X74415691Y112994500D01*
X74534311Y112994500D01*
X74534311Y112994501D01*
X74648886Y113025201D01*
X74751613Y113084511D01*
X74835489Y113168387D01*
X74894799Y113271114D01*
X74925499Y113385689D01*
X74925500Y113385689D01*
X74925500Y113504311D01*
X74925499Y113504312D01*
X74894800Y113618883D01*
X74894798Y113618888D01*
X74835491Y113721610D01*
X74835490Y113721611D01*
X74835489Y113721613D01*
X74829900Y113727202D01*
X74808227Y113779526D01*
X74829901Y113831852D01*
X74882227Y113853526D01*
X74919227Y113843612D01*
X74951110Y113825204D01*
X74951114Y113825202D01*
X74951115Y113825202D01*
X74951117Y113825201D01*
X74983489Y113816527D01*
X75065688Y113794502D01*
X75065689Y113794501D01*
X75065691Y113794501D01*
X75184311Y113794501D01*
X75184311Y113794502D01*
X75298886Y113825202D01*
X75330771Y113843612D01*
X75386924Y113851005D01*
X75431857Y113816527D01*
X75439251Y113760374D01*
X75420101Y113727203D01*
X75414509Y113721611D01*
X75355201Y113618888D01*
X75355199Y113618883D01*
X75324500Y113504312D01*
X75324500Y113385689D01*
X75355199Y113271118D01*
X75355201Y113271113D01*
X75414508Y113168391D01*
X75414509Y113168390D01*
X75414511Y113168387D01*
X75498387Y113084511D01*
X75601114Y113025201D01*
X75601115Y113025201D01*
X75601117Y113025200D01*
X75658402Y113009851D01*
X75715688Y112994501D01*
X75715689Y112994500D01*
X75715691Y112994500D01*
X75834311Y112994500D01*
X75834311Y112994501D01*
X75948886Y113025201D01*
X76051613Y113084511D01*
X76135489Y113168387D01*
X76194799Y113271114D01*
X76225499Y113385689D01*
X76225500Y113385689D01*
X76225500Y113504311D01*
X76225499Y113504312D01*
X76624500Y113504312D01*
X76624500Y113385689D01*
X76655199Y113271118D01*
X76655201Y113271113D01*
X76714508Y113168391D01*
X76714509Y113168390D01*
X76714511Y113168387D01*
X76798387Y113084511D01*
X76901114Y113025201D01*
X76901115Y113025201D01*
X76901117Y113025200D01*
X76958402Y113009851D01*
X77015688Y112994501D01*
X77015689Y112994500D01*
X77015691Y112994500D01*
X77134311Y112994500D01*
X77134311Y112994501D01*
X77248886Y113025201D01*
X77351613Y113084511D01*
X77435489Y113168387D01*
X77494799Y113271114D01*
X77525499Y113385689D01*
X77525500Y113385689D01*
X77525500Y113504311D01*
X77525499Y113504312D01*
X77494800Y113618883D01*
X77494798Y113618888D01*
X77435491Y113721610D01*
X77435490Y113721611D01*
X77435489Y113721613D01*
X77351613Y113805489D01*
X77351610Y113805491D01*
X77351609Y113805492D01*
X77248887Y113864799D01*
X77248882Y113864801D01*
X77134311Y113895500D01*
X77134309Y113895500D01*
X77015691Y113895500D01*
X77015689Y113895500D01*
X76901117Y113864801D01*
X76901112Y113864799D01*
X76798390Y113805492D01*
X76714508Y113721610D01*
X76655201Y113618888D01*
X76655199Y113618883D01*
X76624500Y113504312D01*
X76225499Y113504312D01*
X76194800Y113618883D01*
X76194798Y113618888D01*
X76135491Y113721610D01*
X76135490Y113721611D01*
X76135489Y113721613D01*
X76051613Y113805489D01*
X76051610Y113805491D01*
X76051609Y113805492D01*
X75948887Y113864799D01*
X75948882Y113864801D01*
X75834311Y113895500D01*
X75834309Y113895500D01*
X75715691Y113895500D01*
X75715689Y113895500D01*
X75601117Y113864801D01*
X75601114Y113864799D01*
X75569226Y113846389D01*
X75513073Y113838998D01*
X75468140Y113873477D01*
X75460749Y113929630D01*
X75479901Y113962801D01*
X75485489Y113968388D01*
X75544799Y114071115D01*
X75575499Y114185690D01*
X75575500Y114185690D01*
X75575500Y114304312D01*
X75575499Y114304313D01*
X75574160Y114309309D01*
X75544799Y114418887D01*
X75485489Y114521614D01*
X75401613Y114605490D01*
X75401610Y114605492D01*
X75401609Y114605493D01*
X75298887Y114664800D01*
X75298882Y114664802D01*
X75184311Y114695501D01*
X75184309Y114695501D01*
X75065691Y114695501D01*
X75065689Y114695501D01*
X74951117Y114664802D01*
X74951112Y114664800D01*
X74848390Y114605493D01*
X74764508Y114521611D01*
X74705201Y114418889D01*
X74705199Y114418884D01*
X74674500Y114304313D01*
X74674500Y114185690D01*
X74705199Y114071119D01*
X74705201Y114071114D01*
X74764508Y113968392D01*
X74764509Y113968391D01*
X74764511Y113968388D01*
X74770098Y113962801D01*
X74791772Y113910476D01*
X74770098Y113858150D01*
X74717772Y113836476D01*
X74680772Y113846390D01*
X74648888Y113864798D01*
X74648882Y113864801D01*
X74534311Y113895500D01*
X74534309Y113895500D01*
X74415691Y113895500D01*
X74415689Y113895500D01*
X74301117Y113864801D01*
X74301114Y113864799D01*
X74269226Y113846389D01*
X74213073Y113838998D01*
X74168140Y113873477D01*
X74160749Y113929630D01*
X74179901Y113962801D01*
X74185489Y113968388D01*
X74244799Y114071115D01*
X74275499Y114185690D01*
X74275500Y114185690D01*
X74275500Y114304312D01*
X74275499Y114304313D01*
X74274160Y114309309D01*
X74244799Y114418887D01*
X74185489Y114521614D01*
X74101613Y114605490D01*
X74101610Y114605492D01*
X74101609Y114605493D01*
X73998887Y114664800D01*
X73998882Y114664802D01*
X73884311Y114695501D01*
X73884309Y114695501D01*
X73765691Y114695501D01*
X73765689Y114695501D01*
X73651117Y114664802D01*
X73651112Y114664800D01*
X73548390Y114605493D01*
X73464508Y114521611D01*
X73405201Y114418889D01*
X73405199Y114418884D01*
X73374500Y114304313D01*
X66000500Y114304313D01*
X66000500Y119450112D01*
X66301900Y119450112D01*
X66301900Y119331489D01*
X66332599Y119216918D01*
X66332601Y119216913D01*
X66391908Y119114191D01*
X66391909Y119114190D01*
X66391911Y119114187D01*
X66475787Y119030311D01*
X66578514Y118971001D01*
X66578515Y118971001D01*
X66578517Y118971000D01*
X66635802Y118955651D01*
X66693088Y118940301D01*
X66693089Y118940300D01*
X66693091Y118940300D01*
X66747277Y118940300D01*
X66799603Y118918626D01*
X68722040Y116996189D01*
X68777989Y116940240D01*
X68846511Y116900679D01*
X68846512Y116900679D01*
X68846514Y116900678D01*
X68884724Y116890440D01*
X68922935Y116880201D01*
X68922936Y116880200D01*
X68922938Y116880200D01*
X69002062Y116880200D01*
X75934177Y116880200D01*
X75986503Y116858526D01*
X78552826Y114292203D01*
X78574500Y114239877D01*
X78574500Y114185690D01*
X78605199Y114071119D01*
X78605201Y114071114D01*
X78664508Y113968392D01*
X78664509Y113968391D01*
X78664511Y113968388D01*
X78748387Y113884512D01*
X78748389Y113884511D01*
X78748390Y113884510D01*
X78851112Y113825203D01*
X78851114Y113825202D01*
X78851115Y113825202D01*
X78851117Y113825201D01*
X78883489Y113816527D01*
X78965688Y113794502D01*
X78965689Y113794501D01*
X78965691Y113794501D01*
X79084311Y113794501D01*
X79084311Y113794502D01*
X79198886Y113825202D01*
X79301613Y113884512D01*
X79385489Y113968388D01*
X79444799Y114071115D01*
X79475499Y114185690D01*
X79475500Y114185690D01*
X79475500Y114304312D01*
X79475499Y114304313D01*
X79474160Y114309309D01*
X79444799Y114418887D01*
X79385489Y114521614D01*
X79301613Y114605490D01*
X79301610Y114605492D01*
X79301609Y114605493D01*
X79198887Y114664800D01*
X79198882Y114664802D01*
X79084311Y114695501D01*
X79084309Y114695501D01*
X79030122Y114695501D01*
X78977796Y114717175D01*
X76273811Y117421160D01*
X76224097Y117449862D01*
X76224095Y117449865D01*
X76205294Y117460719D01*
X76205285Y117460723D01*
X76128864Y117481200D01*
X76128862Y117481200D01*
X72354203Y117481200D01*
X72301877Y117502874D01*
X72280203Y117555200D01*
X72282725Y117574353D01*
X72300499Y117640689D01*
X72300500Y117640689D01*
X72300500Y117759311D01*
X72300499Y117759312D01*
X72276431Y117849135D01*
X72283823Y117905287D01*
X72295579Y117920610D01*
X72490460Y118115489D01*
X72504877Y118140460D01*
X72530021Y118184011D01*
X72550499Y118260436D01*
X72550500Y118260436D01*
X72550500Y118559312D01*
X112324500Y118559312D01*
X112324500Y118440689D01*
X112355199Y118326118D01*
X112355201Y118326113D01*
X112414508Y118223391D01*
X112414509Y118223390D01*
X112414511Y118223387D01*
X112498387Y118139511D01*
X112498389Y118139510D01*
X112498390Y118139509D01*
X112539994Y118115489D01*
X112601114Y118080201D01*
X112601115Y118080201D01*
X112601117Y118080200D01*
X112602655Y118079788D01*
X112715688Y118049501D01*
X112715689Y118049500D01*
X112715691Y118049500D01*
X112834311Y118049500D01*
X112834311Y118049501D01*
X112948886Y118080201D01*
X113051613Y118139511D01*
X113135489Y118223387D01*
X113194799Y118326114D01*
X113225499Y118440689D01*
X113225500Y118440689D01*
X113225500Y118559311D01*
X113225499Y118559312D01*
X113194800Y118673883D01*
X113194798Y118673888D01*
X113135491Y118776610D01*
X113135490Y118776611D01*
X113135489Y118776613D01*
X113051613Y118860489D01*
X113051610Y118860491D01*
X113051609Y118860492D01*
X112948887Y118919799D01*
X112948882Y118919801D01*
X112834311Y118950500D01*
X112834309Y118950500D01*
X112715691Y118950500D01*
X112715689Y118950500D01*
X112601117Y118919801D01*
X112601112Y118919799D01*
X112498390Y118860492D01*
X112414508Y118776610D01*
X112355201Y118673888D01*
X112355199Y118673883D01*
X112324500Y118559312D01*
X72550500Y118559312D01*
X72550500Y119809312D01*
X129724500Y119809312D01*
X129724500Y119690689D01*
X129755199Y119576118D01*
X129755201Y119576113D01*
X129814508Y119473391D01*
X129814509Y119473390D01*
X129814511Y119473387D01*
X129898387Y119389511D01*
X129898389Y119389510D01*
X129898390Y119389509D01*
X129998883Y119331489D01*
X130001114Y119330201D01*
X130001115Y119330201D01*
X130001117Y119330200D01*
X130058402Y119314851D01*
X130115688Y119299501D01*
X130115689Y119299500D01*
X130115691Y119299500D01*
X130234311Y119299500D01*
X130234311Y119299501D01*
X130348886Y119330201D01*
X130451613Y119389511D01*
X130535489Y119473387D01*
X130594799Y119576114D01*
X130625499Y119690689D01*
X130625500Y119690689D01*
X130625500Y119809311D01*
X130625499Y119809312D01*
X130594800Y119923883D01*
X130594798Y119923888D01*
X130535491Y120026610D01*
X130535490Y120026611D01*
X130535489Y120026613D01*
X130451613Y120110489D01*
X130451610Y120110491D01*
X130451609Y120110492D01*
X130348887Y120169799D01*
X130348882Y120169801D01*
X130234311Y120200500D01*
X130234309Y120200500D01*
X130115691Y120200500D01*
X130115689Y120200500D01*
X130001117Y120169801D01*
X130001112Y120169799D01*
X129898390Y120110492D01*
X129814508Y120026610D01*
X129755201Y119923888D01*
X129755199Y119923883D01*
X129724500Y119809312D01*
X72550500Y119809312D01*
X72550500Y121013051D01*
X72560415Y121050052D01*
X72561987Y121052776D01*
X72580022Y121084012D01*
X72600500Y121160438D01*
X72600500Y121239562D01*
X72600500Y122094877D01*
X72622174Y122147203D01*
X73757797Y123282826D01*
X73810123Y123304500D01*
X73884311Y123304500D01*
X73884311Y123304501D01*
X73998886Y123335201D01*
X74101613Y123394511D01*
X74185489Y123478387D01*
X74244799Y123581114D01*
X74275499Y123695689D01*
X74275500Y123695689D01*
X74275500Y123814311D01*
X74275499Y123814312D01*
X74244800Y123928883D01*
X74244798Y123928888D01*
X74185491Y124031610D01*
X74185490Y124031611D01*
X74185489Y124031613D01*
X74179902Y124037200D01*
X74158229Y124089524D01*
X74179903Y124141850D01*
X74232229Y124163524D01*
X74269229Y124153610D01*
X74301110Y124135203D01*
X74301114Y124135201D01*
X74301115Y124135201D01*
X74301117Y124135200D01*
X74333493Y124126525D01*
X74415688Y124104501D01*
X74415689Y124104500D01*
X74415691Y124104500D01*
X74534311Y124104500D01*
X74534311Y124104501D01*
X74648886Y124135201D01*
X74680769Y124153610D01*
X74736921Y124161003D01*
X74781855Y124126525D01*
X74789249Y124070373D01*
X74770099Y124037201D01*
X74764509Y124031611D01*
X74705201Y123928888D01*
X74705199Y123928883D01*
X74674500Y123814312D01*
X74674500Y123695689D01*
X74705199Y123581118D01*
X74705201Y123581113D01*
X74764508Y123478391D01*
X74764509Y123478390D01*
X74764511Y123478387D01*
X74848387Y123394511D01*
X74848389Y123394510D01*
X74848390Y123394509D01*
X74951112Y123335202D01*
X74951114Y123335201D01*
X74951115Y123335201D01*
X74951117Y123335200D01*
X75008402Y123319851D01*
X75065688Y123304501D01*
X75065689Y123304500D01*
X75065691Y123304500D01*
X75184311Y123304500D01*
X75184311Y123304501D01*
X75298886Y123335201D01*
X75401613Y123394511D01*
X75485489Y123478387D01*
X75544799Y123581114D01*
X75575499Y123695689D01*
X75575500Y123695689D01*
X75575500Y123814311D01*
X75575499Y123814312D01*
X75544800Y123928883D01*
X75544798Y123928888D01*
X75485491Y124031610D01*
X75485490Y124031611D01*
X75485489Y124031613D01*
X75479902Y124037200D01*
X75458229Y124089524D01*
X75479903Y124141850D01*
X75532229Y124163524D01*
X75569229Y124153610D01*
X75601110Y124135203D01*
X75601114Y124135201D01*
X75601115Y124135201D01*
X75601117Y124135200D01*
X75633493Y124126525D01*
X75715688Y124104501D01*
X75715689Y124104500D01*
X75715691Y124104500D01*
X75834311Y124104500D01*
X75834311Y124104501D01*
X75948886Y124135201D01*
X75980769Y124153610D01*
X76036921Y124161003D01*
X76081855Y124126525D01*
X76089249Y124070373D01*
X76070099Y124037201D01*
X76064509Y124031611D01*
X76005201Y123928888D01*
X76005199Y123928883D01*
X75974500Y123814312D01*
X75974500Y123695689D01*
X76005199Y123581118D01*
X76005201Y123581113D01*
X76064508Y123478391D01*
X76064509Y123478390D01*
X76064511Y123478387D01*
X76148387Y123394511D01*
X76148389Y123394510D01*
X76148390Y123394509D01*
X76251112Y123335202D01*
X76251114Y123335201D01*
X76251115Y123335201D01*
X76251117Y123335200D01*
X76308402Y123319851D01*
X76365688Y123304501D01*
X76365689Y123304500D01*
X76365691Y123304500D01*
X76484311Y123304500D01*
X76484311Y123304501D01*
X76598886Y123335201D01*
X76701613Y123394511D01*
X76785489Y123478387D01*
X76844799Y123581114D01*
X76875499Y123695689D01*
X76875500Y123695689D01*
X76875500Y123814311D01*
X76875499Y123814312D01*
X76844800Y123928883D01*
X76844798Y123928888D01*
X76785491Y124031610D01*
X76785490Y124031611D01*
X76785489Y124031613D01*
X76779902Y124037200D01*
X76758229Y124089524D01*
X76779903Y124141850D01*
X76832229Y124163524D01*
X76869229Y124153610D01*
X76901110Y124135203D01*
X76901114Y124135201D01*
X76901115Y124135201D01*
X76901117Y124135200D01*
X76933493Y124126525D01*
X77015688Y124104501D01*
X77015689Y124104500D01*
X77015691Y124104500D01*
X77134311Y124104500D01*
X77134311Y124104501D01*
X77248886Y124135201D01*
X77351613Y124194511D01*
X77435489Y124278387D01*
X77494799Y124381114D01*
X77525499Y124495689D01*
X77525500Y124495689D01*
X77525500Y124614311D01*
X77525499Y124614312D01*
X77924500Y124614312D01*
X77924500Y124495689D01*
X77955199Y124381118D01*
X77955201Y124381113D01*
X78014508Y124278391D01*
X78014509Y124278390D01*
X78014511Y124278387D01*
X78098387Y124194511D01*
X78098389Y124194510D01*
X78098390Y124194509D01*
X78201112Y124135202D01*
X78201114Y124135201D01*
X78201115Y124135201D01*
X78201117Y124135200D01*
X78233493Y124126525D01*
X78315688Y124104501D01*
X78315689Y124104500D01*
X78315691Y124104500D01*
X78434311Y124104500D01*
X78434311Y124104501D01*
X78548886Y124135201D01*
X78651613Y124194511D01*
X78735489Y124278387D01*
X78794799Y124381114D01*
X78825499Y124495689D01*
X78825500Y124495689D01*
X78825500Y124614311D01*
X78825499Y124614312D01*
X79224500Y124614312D01*
X79224500Y124495689D01*
X79255199Y124381118D01*
X79255201Y124381113D01*
X79314508Y124278391D01*
X79314509Y124278390D01*
X79314511Y124278387D01*
X79398387Y124194511D01*
X79398389Y124194510D01*
X79398390Y124194509D01*
X79501112Y124135202D01*
X79501114Y124135201D01*
X79501115Y124135201D01*
X79501117Y124135200D01*
X79533493Y124126525D01*
X79615688Y124104501D01*
X79615689Y124104500D01*
X79615691Y124104500D01*
X79734311Y124104500D01*
X79734311Y124104501D01*
X79848886Y124135201D01*
X79951613Y124194511D01*
X80035489Y124278387D01*
X80094799Y124381114D01*
X80125499Y124495689D01*
X80125500Y124495689D01*
X80125500Y124614311D01*
X80125499Y124614312D01*
X80094800Y124728883D01*
X80094798Y124728888D01*
X80035491Y124831610D01*
X80035490Y124831611D01*
X80035489Y124831613D01*
X79951613Y124915489D01*
X79951610Y124915491D01*
X79951609Y124915492D01*
X79848887Y124974799D01*
X79848882Y124974801D01*
X79734311Y125005500D01*
X79734309Y125005500D01*
X79615691Y125005500D01*
X79615689Y125005500D01*
X79501117Y124974801D01*
X79501112Y124974799D01*
X79398390Y124915492D01*
X79314508Y124831610D01*
X79255201Y124728888D01*
X79255199Y124728883D01*
X79224500Y124614312D01*
X78825499Y124614312D01*
X78794800Y124728883D01*
X78794798Y124728888D01*
X78735491Y124831610D01*
X78735490Y124831611D01*
X78735489Y124831613D01*
X78651613Y124915489D01*
X78651610Y124915491D01*
X78651609Y124915492D01*
X78548887Y124974799D01*
X78548882Y124974801D01*
X78434311Y125005500D01*
X78434309Y125005500D01*
X78315691Y125005500D01*
X78315689Y125005500D01*
X78201117Y124974801D01*
X78201112Y124974799D01*
X78098390Y124915492D01*
X78014508Y124831610D01*
X77955201Y124728888D01*
X77955199Y124728883D01*
X77924500Y124614312D01*
X77525499Y124614312D01*
X77494800Y124728883D01*
X77494798Y124728888D01*
X77435491Y124831610D01*
X77435490Y124831611D01*
X77435489Y124831613D01*
X77351613Y124915489D01*
X77351610Y124915491D01*
X77351609Y124915492D01*
X77248887Y124974799D01*
X77248882Y124974801D01*
X77134311Y125005500D01*
X77134309Y125005500D01*
X77015691Y125005500D01*
X77015689Y125005500D01*
X76901117Y124974801D01*
X76901112Y124974799D01*
X76798390Y124915492D01*
X76714508Y124831610D01*
X76655201Y124728888D01*
X76655199Y124728883D01*
X76624500Y124614312D01*
X76624500Y124495689D01*
X76655199Y124381118D01*
X76655201Y124381113D01*
X76714508Y124278391D01*
X76714509Y124278390D01*
X76714511Y124278387D01*
X76720096Y124272802D01*
X76741770Y124220477D01*
X76720096Y124168151D01*
X76667770Y124146477D01*
X76630770Y124156391D01*
X76598887Y124174799D01*
X76598882Y124174801D01*
X76484311Y124205500D01*
X76484309Y124205500D01*
X76365691Y124205500D01*
X76365689Y124205500D01*
X76251117Y124174801D01*
X76251108Y124174797D01*
X76219228Y124156391D01*
X76163075Y124148999D01*
X76118143Y124183478D01*
X76110751Y124239631D01*
X76129903Y124272802D01*
X76135489Y124278387D01*
X76194799Y124381114D01*
X76225499Y124495689D01*
X76225500Y124495689D01*
X76225500Y124614311D01*
X76225499Y124614312D01*
X76194800Y124728883D01*
X76194798Y124728888D01*
X76135491Y124831610D01*
X76135490Y124831611D01*
X76135489Y124831613D01*
X76051613Y124915489D01*
X76051610Y124915491D01*
X76051609Y124915492D01*
X75948887Y124974799D01*
X75948882Y124974801D01*
X75834311Y125005500D01*
X75834309Y125005500D01*
X75715691Y125005500D01*
X75715689Y125005500D01*
X75601117Y124974801D01*
X75601112Y124974799D01*
X75498390Y124915492D01*
X75414508Y124831610D01*
X75355201Y124728888D01*
X75355199Y124728883D01*
X75324500Y124614312D01*
X75324500Y124495689D01*
X75355199Y124381118D01*
X75355201Y124381113D01*
X75414508Y124278391D01*
X75414509Y124278390D01*
X75414511Y124278387D01*
X75420096Y124272802D01*
X75441770Y124220477D01*
X75420096Y124168151D01*
X75367770Y124146477D01*
X75330770Y124156391D01*
X75298887Y124174799D01*
X75298882Y124174801D01*
X75184311Y124205500D01*
X75184309Y124205500D01*
X75065691Y124205500D01*
X75065689Y124205500D01*
X74951117Y124174801D01*
X74951108Y124174797D01*
X74919228Y124156391D01*
X74863075Y124148999D01*
X74818143Y124183478D01*
X74810751Y124239631D01*
X74829903Y124272802D01*
X74835489Y124278387D01*
X74894799Y124381114D01*
X74925499Y124495689D01*
X74925500Y124495689D01*
X74925500Y124614311D01*
X74925499Y124614312D01*
X74894800Y124728883D01*
X74894798Y124728888D01*
X74835491Y124831610D01*
X74835490Y124831611D01*
X74835489Y124831613D01*
X74751613Y124915489D01*
X74751610Y124915491D01*
X74751609Y124915492D01*
X74648887Y124974799D01*
X74648882Y124974801D01*
X74534311Y125005500D01*
X74534309Y125005500D01*
X74415691Y125005500D01*
X74415689Y125005500D01*
X74301117Y124974801D01*
X74301112Y124974799D01*
X74198390Y124915492D01*
X74114508Y124831610D01*
X74055201Y124728888D01*
X74055199Y124728883D01*
X74024500Y124614312D01*
X74024500Y124495689D01*
X74055199Y124381118D01*
X74055201Y124381113D01*
X74114508Y124278391D01*
X74114509Y124278390D01*
X74114511Y124278387D01*
X74120096Y124272802D01*
X74141770Y124220477D01*
X74120096Y124168151D01*
X74067770Y124146477D01*
X74030770Y124156391D01*
X73998887Y124174799D01*
X73998882Y124174801D01*
X73884311Y124205500D01*
X73884309Y124205500D01*
X73765691Y124205500D01*
X73765689Y124205500D01*
X73651117Y124174801D01*
X73651112Y124174799D01*
X73548390Y124115492D01*
X73464508Y124031610D01*
X73405201Y123928888D01*
X73405199Y123928883D01*
X73374500Y123814312D01*
X73374500Y123780123D01*
X73352826Y123727797D01*
X72059540Y122434512D01*
X72019979Y122365991D01*
X72019977Y122365986D01*
X71999500Y122289565D01*
X71999500Y121336950D01*
X71989586Y121299951D01*
X71969978Y121265989D01*
X71949500Y121189565D01*
X71949500Y118455123D01*
X71927826Y118402797D01*
X71665489Y118140460D01*
X71665488Y118140460D01*
X71608976Y118083949D01*
X71593653Y118072190D01*
X71573388Y118060490D01*
X71489508Y117976610D01*
X71430201Y117873888D01*
X71430199Y117873883D01*
X71399500Y117759312D01*
X71399500Y117640689D01*
X71417275Y117574353D01*
X71409883Y117518200D01*
X71364950Y117483722D01*
X71345797Y117481200D01*
X69117623Y117481200D01*
X69065297Y117502874D01*
X67224574Y119343597D01*
X67202900Y119395923D01*
X67202900Y119450111D01*
X67202899Y119450112D01*
X67196661Y119473391D01*
X67172199Y119564686D01*
X67112889Y119667413D01*
X67029013Y119751289D01*
X67029010Y119751291D01*
X67029009Y119751292D01*
X66926287Y119810599D01*
X66926282Y119810601D01*
X66811711Y119841300D01*
X66811709Y119841300D01*
X66693091Y119841300D01*
X66693089Y119841300D01*
X66578517Y119810601D01*
X66578512Y119810599D01*
X66475790Y119751292D01*
X66391908Y119667410D01*
X66332601Y119564688D01*
X66332599Y119564683D01*
X66301900Y119450112D01*
X66000500Y119450112D01*
X66000500Y131575769D01*
X67824500Y131575769D01*
X67824500Y131424232D01*
X67863717Y131277870D01*
X67863718Y131277867D01*
X67863719Y131277865D01*
X67939485Y131146635D01*
X68046635Y131039485D01*
X68177865Y130963719D01*
X68324231Y130924501D01*
X68324232Y130924500D01*
X68324234Y130924500D01*
X79202931Y130924500D01*
X79255257Y130902826D01*
X79268792Y130884238D01*
X83151098Y123304500D01*
X83216363Y123177078D01*
X83224500Y123143343D01*
X83224500Y121624232D01*
X83263717Y121477870D01*
X83263721Y121477861D01*
X83281027Y121447887D01*
X83339485Y121346635D01*
X83446635Y121239485D01*
X83577865Y121163719D01*
X83724231Y121124501D01*
X83724232Y121124500D01*
X83724234Y121124500D01*
X83875768Y121124500D01*
X83875768Y121124501D01*
X84022135Y121163719D01*
X84153365Y121239485D01*
X84260515Y121346635D01*
X84336281Y121477865D01*
X84375499Y121624232D01*
X84375500Y121624232D01*
X84375500Y123283670D01*
X84375593Y123287386D01*
X84378579Y123346768D01*
X84377150Y123353423D01*
X84375500Y123368962D01*
X84375500Y123375768D01*
X84375499Y123375769D01*
X84360112Y123433195D01*
X84359251Y123436759D01*
X84346760Y123494922D01*
X84343658Y123500977D01*
X84338040Y123515567D01*
X84336281Y123522135D01*
X84306551Y123573629D01*
X84304778Y123576887D01*
X80143657Y131700980D01*
X80138044Y131715555D01*
X80136281Y131722135D01*
X80106561Y131773610D01*
X80104782Y131776877D01*
X80102518Y131781297D01*
X80077680Y131829792D01*
X80073112Y131834844D01*
X80063918Y131847471D01*
X80060514Y131853366D01*
X80018479Y131895401D01*
X80015918Y131898095D01*
X79976051Y131942183D01*
X79976049Y131942185D01*
X79976047Y131942187D01*
X79970328Y131945884D01*
X79958180Y131955700D01*
X79953365Y131960515D01*
X79901890Y131990235D01*
X79898719Y131992173D01*
X79848787Y132024449D01*
X79848788Y132024449D01*
X79842305Y132026540D01*
X79828028Y132032879D01*
X79822139Y132036279D01*
X79822130Y132036283D01*
X79764726Y132051664D01*
X79761162Y132052715D01*
X79724698Y132064477D01*
X79704572Y132070969D01*
X79704570Y132070970D01*
X79704568Y132070970D01*
X79697772Y132071312D01*
X79682343Y132073738D01*
X79680518Y132074227D01*
X79675766Y132075500D01*
X79675765Y132075500D01*
X79616330Y132075500D01*
X79612615Y132075593D01*
X79553232Y132078579D01*
X79553231Y132078579D01*
X79553228Y132078579D01*
X79546578Y132077150D01*
X79531038Y132075500D01*
X68324232Y132075500D01*
X68177869Y132036283D01*
X68177860Y132036279D01*
X68046637Y131960517D01*
X67939483Y131853363D01*
X67863721Y131722140D01*
X67863717Y131722131D01*
X67824500Y131575769D01*
X66000500Y131575769D01*
X66000500Y133290894D01*
X66000499Y133290895D01*
X65997814Y133300914D01*
X65966392Y133418186D01*
X65921170Y133496512D01*
X77077100Y133496512D01*
X77077100Y133377889D01*
X77107799Y133263318D01*
X77107801Y133263313D01*
X77167108Y133160591D01*
X77167109Y133160590D01*
X77167111Y133160587D01*
X77250987Y133076711D01*
X77250989Y133076710D01*
X77250990Y133076709D01*
X77353712Y133017402D01*
X77353714Y133017401D01*
X77353715Y133017401D01*
X77353717Y133017400D01*
X77411002Y133002051D01*
X77468288Y132986701D01*
X77468289Y132986700D01*
X77468291Y132986700D01*
X77586911Y132986700D01*
X77586911Y132986701D01*
X77701486Y133017401D01*
X77804213Y133076711D01*
X77888089Y133160587D01*
X77947399Y133263314D01*
X77978099Y133377889D01*
X77978100Y133377889D01*
X77978100Y133496511D01*
X77978099Y133496512D01*
X77971858Y133519806D01*
X77968025Y133534112D01*
X82084700Y133534112D01*
X82084700Y133415489D01*
X82115399Y133300918D01*
X82115401Y133300913D01*
X82174708Y133198191D01*
X82174709Y133198190D01*
X82174711Y133198187D01*
X82258587Y133114311D01*
X82258589Y133114310D01*
X82258590Y133114309D01*
X82323715Y133076709D01*
X82361314Y133055001D01*
X82361315Y133055001D01*
X82361317Y133055000D01*
X82418602Y133039651D01*
X82475888Y133024301D01*
X82475889Y133024300D01*
X82475891Y133024300D01*
X82594511Y133024300D01*
X82594511Y133024301D01*
X82709086Y133055001D01*
X82811813Y133114311D01*
X82895689Y133198187D01*
X82954999Y133300914D01*
X82985699Y133415489D01*
X82985700Y133415489D01*
X82985700Y133534111D01*
X82985699Y133534112D01*
X82955000Y133648683D01*
X82954998Y133648688D01*
X82895691Y133751410D01*
X82895690Y133751411D01*
X82895689Y133751413D01*
X82811813Y133835289D01*
X82811810Y133835291D01*
X82811809Y133835292D01*
X82709087Y133894599D01*
X82709082Y133894601D01*
X82594511Y133925300D01*
X82594509Y133925300D01*
X82475891Y133925300D01*
X82475889Y133925300D01*
X82361317Y133894601D01*
X82361312Y133894599D01*
X82258590Y133835292D01*
X82174708Y133751410D01*
X82115401Y133648688D01*
X82115399Y133648683D01*
X82084700Y133534112D01*
X77968025Y133534112D01*
X77947400Y133611083D01*
X77947398Y133611088D01*
X77888091Y133713810D01*
X77888090Y133713811D01*
X77888089Y133713813D01*
X77804213Y133797689D01*
X77804210Y133797691D01*
X77804209Y133797692D01*
X77701487Y133856999D01*
X77701482Y133857001D01*
X77586911Y133887700D01*
X77586909Y133887700D01*
X77468291Y133887700D01*
X77468289Y133887700D01*
X77353717Y133857001D01*
X77353712Y133856999D01*
X77250990Y133797692D01*
X77167108Y133713810D01*
X77107801Y133611088D01*
X77107799Y133611083D01*
X77077100Y133496512D01*
X65921170Y133496512D01*
X65900500Y133532314D01*
X65807314Y133625500D01*
X65767151Y133648688D01*
X65693190Y133691390D01*
X65693181Y133691394D01*
X65565894Y133725500D01*
X65565892Y133725500D01*
X65434108Y133725500D01*
X65434106Y133725500D01*
X65306818Y133691394D01*
X65306809Y133691390D01*
X65192685Y133625500D01*
X65099500Y133532315D01*
X65033610Y133418191D01*
X65033606Y133418182D01*
X64999500Y133290895D01*
X64999500Y128962623D01*
X64977826Y128910297D01*
X64925500Y128888623D01*
X64873174Y128910297D01*
X63194711Y130588760D01*
X63160061Y130608765D01*
X63126190Y130628321D01*
X63126185Y130628323D01*
X63049764Y130648800D01*
X63049762Y130648800D01*
X50367254Y130648800D01*
X50314929Y130670473D01*
X50276613Y130708789D01*
X50276610Y130708791D01*
X50276609Y130708792D01*
X50173887Y130768099D01*
X50173882Y130768101D01*
X50059311Y130798800D01*
X50059309Y130798800D01*
X49940691Y130798800D01*
X49940689Y130798800D01*
X49826117Y130768101D01*
X49826112Y130768099D01*
X49723390Y130708792D01*
X49639508Y130624910D01*
X49580201Y130522188D01*
X49580199Y130522183D01*
X49549500Y130407612D01*
X49549500Y130288989D01*
X49580199Y130174418D01*
X49580201Y130174413D01*
X49639508Y130071691D01*
X49639509Y130071690D01*
X49639511Y130071687D01*
X49723387Y129987811D01*
X49826114Y129928501D01*
X49826115Y129928501D01*
X49826117Y129928500D01*
X49883402Y129913151D01*
X49940688Y129897801D01*
X49940689Y129897800D01*
X49940691Y129897800D01*
X50059311Y129897800D01*
X50059311Y129897801D01*
X50173886Y129928501D01*
X50276613Y129987811D01*
X50314929Y130026127D01*
X50367254Y130047800D01*
X62855077Y130047800D01*
X62907403Y130026126D01*
X64977826Y127955703D01*
X64999500Y127903377D01*
X64999500Y86074500D01*
X64977826Y86022174D01*
X64925500Y86000500D01*
X11109106Y86000500D01*
X10981818Y85966394D01*
X10981809Y85966390D01*
X10867685Y85900500D01*
X10774500Y85807315D01*
X10708610Y85693191D01*
X10708606Y85693182D01*
X10674500Y85565895D01*
X10674500Y85565892D01*
X10674500Y85434108D01*
X10674501Y85434106D01*
X10708609Y85306812D01*
X10714584Y85296464D01*
X10724500Y85259461D01*
X10724500Y80274500D01*
X10702826Y80222174D01*
X10650500Y80200500D01*
X4255123Y80200500D01*
X4202797Y80222174D01*
X3684511Y80740460D01*
X3649861Y80760465D01*
X3615990Y80780021D01*
X3615985Y80780023D01*
X3539564Y80800500D01*
X3539562Y80800500D01*
X3142254Y80800500D01*
X3089929Y80822173D01*
X3051613Y80860489D01*
X3051610Y80860491D01*
X3051609Y80860492D01*
X2948887Y80919799D01*
X2948882Y80919801D01*
X2834311Y80950500D01*
X2834309Y80950500D01*
X2715691Y80950500D01*
X2715689Y80950500D01*
X2601117Y80919801D01*
X2601112Y80919799D01*
X2498390Y80860492D01*
X2414508Y80776610D01*
X2355201Y80673888D01*
X2355199Y80673883D01*
X2324500Y80559312D01*
X500000Y80559312D01*
X500000Y87738912D01*
X44589300Y87738912D01*
X44589300Y87620289D01*
X44619999Y87505718D01*
X44620001Y87505713D01*
X44679308Y87402991D01*
X44679309Y87402990D01*
X44679311Y87402987D01*
X44763187Y87319111D01*
X44865914Y87259801D01*
X44865915Y87259801D01*
X44865917Y87259800D01*
X44923202Y87244451D01*
X44980488Y87229101D01*
X44980489Y87229100D01*
X44980491Y87229100D01*
X45099111Y87229100D01*
X45099111Y87229101D01*
X45213686Y87259801D01*
X45316413Y87319111D01*
X45400289Y87402987D01*
X45459599Y87505714D01*
X45490299Y87620289D01*
X45490300Y87620289D01*
X45490300Y87738911D01*
X45490299Y87738912D01*
X45459600Y87853483D01*
X45459598Y87853488D01*
X45400291Y87956210D01*
X45400290Y87956211D01*
X45400289Y87956213D01*
X45316413Y88040089D01*
X45316410Y88040091D01*
X45316409Y88040092D01*
X45213687Y88099399D01*
X45213682Y88099401D01*
X45099111Y88130100D01*
X45099109Y88130100D01*
X44980491Y88130100D01*
X44980489Y88130100D01*
X44865917Y88099401D01*
X44865912Y88099399D01*
X44763190Y88040092D01*
X44679308Y87956210D01*
X44620001Y87853488D01*
X44619999Y87853483D01*
X44589300Y87738912D01*
X500000Y87738912D01*
X500000Y109054812D01*
X52865800Y109054812D01*
X52865800Y108936189D01*
X52896499Y108821618D01*
X52896501Y108821613D01*
X52955808Y108718891D01*
X52955809Y108718890D01*
X52955811Y108718887D01*
X53039687Y108635011D01*
X53039689Y108635010D01*
X53039690Y108635009D01*
X53131015Y108582282D01*
X53142414Y108575701D01*
X53142415Y108575701D01*
X53142417Y108575700D01*
X53199702Y108560351D01*
X53256988Y108545001D01*
X53256989Y108545000D01*
X53256991Y108545000D01*
X53375611Y108545000D01*
X53375611Y108545001D01*
X53490186Y108575701D01*
X53592913Y108635011D01*
X53676789Y108718887D01*
X53736099Y108821614D01*
X53766799Y108936189D01*
X53766800Y108936189D01*
X53766800Y109054811D01*
X53766799Y109054812D01*
X53765808Y109058509D01*
X53751449Y109112098D01*
X53736100Y109169383D01*
X53736098Y109169388D01*
X53676791Y109272110D01*
X53676790Y109272111D01*
X53676789Y109272113D01*
X53592913Y109355989D01*
X53592910Y109355991D01*
X53592909Y109355992D01*
X53490185Y109415300D01*
X53375611Y109446000D01*
X53375609Y109446000D01*
X53256991Y109446000D01*
X53256989Y109446000D01*
X53142417Y109415301D01*
X53142412Y109415299D01*
X53039690Y109355992D01*
X52955808Y109272110D01*
X52896501Y109169388D01*
X52896499Y109169383D01*
X52865800Y109054812D01*
X500000Y109054812D01*
X500000Y109478312D01*
X57370000Y109478312D01*
X57370000Y109359689D01*
X57400699Y109245118D01*
X57400701Y109245113D01*
X57460008Y109142391D01*
X57460009Y109142390D01*
X57460011Y109142387D01*
X57543887Y109058511D01*
X57543889Y109058510D01*
X57543890Y109058509D01*
X57605040Y109023204D01*
X57646614Y108999201D01*
X57646615Y108999201D01*
X57646617Y108999200D01*
X57703902Y108983851D01*
X57761188Y108968501D01*
X57761189Y108968500D01*
X57761191Y108968500D01*
X57879811Y108968500D01*
X57879811Y108968501D01*
X57994386Y108999201D01*
X58097113Y109058511D01*
X58180989Y109142387D01*
X58240299Y109245114D01*
X58270999Y109359689D01*
X58271000Y109359689D01*
X58271000Y109478311D01*
X58270999Y109478312D01*
X58240300Y109592883D01*
X58240298Y109592888D01*
X58180991Y109695610D01*
X58180990Y109695611D01*
X58180989Y109695613D01*
X58097113Y109779489D01*
X58097110Y109779491D01*
X58097109Y109779492D01*
X57994387Y109838799D01*
X57994382Y109838801D01*
X57879811Y109869500D01*
X57879809Y109869500D01*
X57761191Y109869500D01*
X57761189Y109869500D01*
X57646617Y109838801D01*
X57646612Y109838799D01*
X57543890Y109779492D01*
X57460008Y109695610D01*
X57400701Y109592888D01*
X57400699Y109592883D01*
X57370000Y109478312D01*
X500000Y109478312D01*
X500000Y110300912D01*
X54164100Y110300912D01*
X54164100Y110182289D01*
X54194799Y110067718D01*
X54194801Y110067713D01*
X54254108Y109964991D01*
X54254109Y109964990D01*
X54254111Y109964987D01*
X54337987Y109881111D01*
X54337989Y109881110D01*
X54337990Y109881109D01*
X54411269Y109838801D01*
X54440714Y109821801D01*
X54440715Y109821801D01*
X54440717Y109821800D01*
X54488447Y109809011D01*
X54555288Y109791101D01*
X54555289Y109791100D01*
X54555291Y109791100D01*
X54673911Y109791100D01*
X54673911Y109791101D01*
X54788486Y109821801D01*
X54891213Y109881111D01*
X54975089Y109964987D01*
X55034399Y110067714D01*
X55065099Y110182289D01*
X55065100Y110182289D01*
X55065100Y110300911D01*
X55065099Y110300912D01*
X55034400Y110415483D01*
X55034398Y110415488D01*
X54975091Y110518210D01*
X54975090Y110518211D01*
X54975089Y110518213D01*
X54891213Y110602089D01*
X54891210Y110602091D01*
X54891209Y110602092D01*
X54788487Y110661399D01*
X54788482Y110661401D01*
X54673911Y110692100D01*
X54673909Y110692100D01*
X54555291Y110692100D01*
X54555289Y110692100D01*
X54440717Y110661401D01*
X54440712Y110661399D01*
X54337990Y110602092D01*
X54254108Y110518210D01*
X54194801Y110415488D01*
X54194799Y110415483D01*
X54164100Y110300912D01*
X500000Y110300912D01*
X500000Y118064068D01*
X40949500Y118064068D01*
X40949500Y117935933D01*
X40974497Y117810261D01*
X40974498Y117810258D01*
X41019961Y117700500D01*
X41023535Y117691873D01*
X41094724Y117585331D01*
X41185331Y117494724D01*
X41291873Y117423535D01*
X41410256Y117374499D01*
X41410258Y117374499D01*
X41410260Y117374498D01*
X41452903Y117366016D01*
X41535931Y117349500D01*
X41535933Y117349500D01*
X41664067Y117349500D01*
X41664069Y117349500D01*
X41789744Y117374499D01*
X41908127Y117423535D01*
X42014669Y117494724D01*
X42105276Y117585331D01*
X42176465Y117691873D01*
X42225501Y117810256D01*
X42250500Y117935931D01*
X42250500Y118064068D01*
X47749500Y118064068D01*
X47749500Y117935933D01*
X47774497Y117810261D01*
X47774498Y117810258D01*
X47819961Y117700500D01*
X47823535Y117691873D01*
X47894724Y117585331D01*
X47985331Y117494724D01*
X48091873Y117423535D01*
X48210256Y117374499D01*
X48210258Y117374499D01*
X48210260Y117374498D01*
X48252903Y117366016D01*
X48335931Y117349500D01*
X48335933Y117349500D01*
X48464067Y117349500D01*
X48464069Y117349500D01*
X48589744Y117374499D01*
X48708127Y117423535D01*
X48814669Y117494724D01*
X48905276Y117585331D01*
X48976465Y117691873D01*
X49025501Y117810256D01*
X49050500Y117935931D01*
X49050500Y118064069D01*
X49035493Y118139511D01*
X49025502Y118189740D01*
X49025501Y118189743D01*
X49011565Y118223387D01*
X48976465Y118308127D01*
X48905276Y118414669D01*
X48814669Y118505276D01*
X48708127Y118576465D01*
X48708124Y118576467D01*
X48708123Y118576467D01*
X48589742Y118625502D01*
X48589739Y118625503D01*
X48499696Y118643414D01*
X48464069Y118650500D01*
X48335931Y118650500D01*
X48304726Y118644293D01*
X48210260Y118625503D01*
X48210257Y118625502D01*
X48091876Y118576467D01*
X47985331Y118505277D01*
X47985330Y118505275D01*
X47894725Y118414670D01*
X47894723Y118414669D01*
X47823533Y118308124D01*
X47774498Y118189743D01*
X47774497Y118189740D01*
X47764506Y118139509D01*
X47751116Y118072190D01*
X47749500Y118064068D01*
X42250500Y118064068D01*
X42250500Y118064069D01*
X42235493Y118139511D01*
X42225502Y118189740D01*
X42225501Y118189743D01*
X42211565Y118223387D01*
X42176465Y118308127D01*
X42105276Y118414669D01*
X42014669Y118505276D01*
X41908127Y118576465D01*
X41908124Y118576467D01*
X41908123Y118576467D01*
X41789742Y118625502D01*
X41789739Y118625503D01*
X41699696Y118643414D01*
X41664069Y118650500D01*
X41535931Y118650500D01*
X41504726Y118644293D01*
X41410260Y118625503D01*
X41410257Y118625502D01*
X41291876Y118576467D01*
X41185331Y118505277D01*
X41185330Y118505275D01*
X41094725Y118414670D01*
X41094723Y118414669D01*
X41023533Y118308124D01*
X40974498Y118189743D01*
X40974497Y118189740D01*
X40964506Y118139509D01*
X40951116Y118072190D01*
X40949500Y118064068D01*
X500000Y118064068D01*
X500000Y121783812D01*
X43244800Y121783812D01*
X43244800Y121665189D01*
X43275499Y121550618D01*
X43275501Y121550613D01*
X43334808Y121447891D01*
X43334809Y121447890D01*
X43334811Y121447887D01*
X43418687Y121364011D01*
X43418689Y121364010D01*
X43418690Y121364009D01*
X43499900Y121317122D01*
X43521414Y121304701D01*
X43521415Y121304701D01*
X43521417Y121304700D01*
X43539141Y121299951D01*
X43635988Y121274001D01*
X43635989Y121274000D01*
X43635991Y121274000D01*
X43754611Y121274000D01*
X43754611Y121274001D01*
X43869186Y121304701D01*
X43971913Y121364011D01*
X44055789Y121447887D01*
X44115099Y121550614D01*
X44145799Y121665189D01*
X44145800Y121665189D01*
X44145800Y121783811D01*
X44145799Y121783812D01*
X44115100Y121898383D01*
X44115098Y121898388D01*
X44055791Y122001110D01*
X44055790Y122001111D01*
X44055789Y122001113D01*
X43971913Y122084989D01*
X43971910Y122084991D01*
X43971909Y122084992D01*
X43869187Y122144299D01*
X43869182Y122144301D01*
X43754611Y122175000D01*
X43754609Y122175000D01*
X43635991Y122175000D01*
X43635989Y122175000D01*
X43521417Y122144301D01*
X43521412Y122144299D01*
X43418690Y122084992D01*
X43334808Y122001110D01*
X43275501Y121898388D01*
X43275499Y121898383D01*
X43244800Y121783812D01*
X500000Y121783812D01*
X500000Y124776212D01*
X59301500Y124776212D01*
X59301500Y124657589D01*
X59332199Y124543018D01*
X59332201Y124543013D01*
X59391508Y124440291D01*
X59391509Y124440290D01*
X59391511Y124440287D01*
X59475387Y124356411D01*
X59578114Y124297101D01*
X59578115Y124297101D01*
X59578117Y124297100D01*
X59635402Y124281751D01*
X59692688Y124266401D01*
X59692689Y124266400D01*
X59692691Y124266400D01*
X59811311Y124266400D01*
X59811311Y124266401D01*
X59925886Y124297101D01*
X60028613Y124356411D01*
X60112489Y124440287D01*
X60171799Y124543014D01*
X60202499Y124657589D01*
X60202500Y124657589D01*
X60202500Y124776211D01*
X60202499Y124776212D01*
X60171800Y124890783D01*
X60171798Y124890788D01*
X60112491Y124993510D01*
X60112490Y124993511D01*
X60112489Y124993513D01*
X60028613Y125077389D01*
X60028610Y125077391D01*
X60028609Y125077392D01*
X59925887Y125136699D01*
X59925882Y125136701D01*
X59811311Y125167400D01*
X59811309Y125167400D01*
X59692691Y125167400D01*
X59692689Y125167400D01*
X59578117Y125136701D01*
X59578112Y125136699D01*
X59475390Y125077392D01*
X59391508Y124993510D01*
X59332201Y124890788D01*
X59332199Y124890783D01*
X59301500Y124776212D01*
X500000Y124776212D01*
X500000Y134827112D01*
X76814400Y134827112D01*
X76814400Y134708489D01*
X76845099Y134593918D01*
X76845101Y134593913D01*
X76904408Y134491191D01*
X76904409Y134491190D01*
X76904411Y134491187D01*
X76988287Y134407311D01*
X77091014Y134348001D01*
X77091015Y134348001D01*
X77091017Y134348000D01*
X77148302Y134332651D01*
X77205588Y134317301D01*
X77205589Y134317300D01*
X77205591Y134317300D01*
X77324211Y134317300D01*
X77324211Y134317301D01*
X77438786Y134348001D01*
X77541513Y134407311D01*
X77579829Y134445627D01*
X77632154Y134467300D01*
X84427277Y134467300D01*
X84479603Y134445626D01*
X84848026Y134077203D01*
X84869700Y134024877D01*
X84869700Y133970689D01*
X84900399Y133856118D01*
X84900401Y133856113D01*
X84959708Y133753391D01*
X84959709Y133753390D01*
X84959711Y133753387D01*
X85043587Y133669511D01*
X85043589Y133669510D01*
X85043590Y133669509D01*
X85144781Y133611086D01*
X85146314Y133610201D01*
X85146315Y133610201D01*
X85146317Y133610200D01*
X85203602Y133594851D01*
X85260888Y133579501D01*
X85260889Y133579500D01*
X85260891Y133579500D01*
X85379511Y133579500D01*
X85379511Y133579501D01*
X85494086Y133610201D01*
X85596813Y133669511D01*
X85680689Y133753387D01*
X85739999Y133856114D01*
X85770699Y133970689D01*
X85770700Y133970689D01*
X85770700Y134089311D01*
X85770699Y134089312D01*
X85740000Y134203883D01*
X85739998Y134203888D01*
X85680691Y134306610D01*
X85680690Y134306611D01*
X85680689Y134306613D01*
X85596813Y134390489D01*
X85596810Y134390491D01*
X85596809Y134390492D01*
X85494087Y134449799D01*
X85494082Y134449801D01*
X85379511Y134480500D01*
X85379509Y134480500D01*
X85325323Y134480500D01*
X85272997Y134502174D01*
X84766911Y135008260D01*
X84732261Y135028265D01*
X84698390Y135047821D01*
X84698385Y135047823D01*
X84621964Y135068300D01*
X84621962Y135068300D01*
X77632154Y135068300D01*
X77579829Y135089973D01*
X77541513Y135128289D01*
X77541510Y135128291D01*
X77541509Y135128292D01*
X77438787Y135187599D01*
X77438782Y135187601D01*
X77324211Y135218300D01*
X77324209Y135218300D01*
X77205591Y135218300D01*
X77205589Y135218300D01*
X77091017Y135187601D01*
X77091012Y135187599D01*
X76988290Y135128292D01*
X76904408Y135044410D01*
X76845101Y134941688D01*
X76845099Y134941683D01*
X76814400Y134827112D01*
X500000Y134827112D01*
X500000Y136409312D01*
X78599500Y136409312D01*
X78599500Y136290689D01*
X78630199Y136176118D01*
X78630201Y136176113D01*
X78689508Y136073391D01*
X78689509Y136073390D01*
X78689511Y136073387D01*
X78773387Y135989511D01*
X78876114Y135930201D01*
X78876115Y135930201D01*
X78876117Y135930200D01*
X78933402Y135914851D01*
X78990688Y135899501D01*
X78990689Y135899500D01*
X78990691Y135899500D01*
X79109311Y135899500D01*
X79109311Y135899501D01*
X79223886Y135930201D01*
X79326613Y135989511D01*
X79410489Y136073387D01*
X79469799Y136176114D01*
X79500499Y136290689D01*
X79500500Y136290689D01*
X79500500Y136409311D01*
X79500499Y136409312D01*
X79469800Y136523883D01*
X79469798Y136523888D01*
X79410491Y136626610D01*
X79410490Y136626611D01*
X79410489Y136626613D01*
X79326613Y136710489D01*
X79326610Y136710491D01*
X79326609Y136710492D01*
X79223887Y136769799D01*
X79223882Y136769801D01*
X79109311Y136800500D01*
X79109309Y136800500D01*
X78990691Y136800500D01*
X78990689Y136800500D01*
X78876117Y136769801D01*
X78876112Y136769799D01*
X78773390Y136710492D01*
X78689508Y136626610D01*
X78630201Y136523888D01*
X78630199Y136523883D01*
X78599500Y136409312D01*
X500000Y136409312D01*
X500000Y140248665D01*
X521674Y140300991D01*
X574000Y140322665D01*
X626326Y140300991D01*
X646577Y140263103D01*
X706771Y139960492D01*
X766421Y139660608D01*
X1158045Y139074501D01*
X1525126Y138525127D01*
X2660607Y137766422D01*
X4000000Y137500000D01*
X5339392Y137766422D01*
X6474873Y138525127D01*
X7233578Y139660608D01*
X7235284Y139669186D01*
X76584500Y139669186D01*
X76584500Y139530815D01*
X76620310Y139397169D01*
X76620312Y139397164D01*
X76689495Y139277335D01*
X76787335Y139179495D01*
X76907164Y139110312D01*
X77040814Y139074501D01*
X77040815Y139074500D01*
X77040817Y139074500D01*
X77179185Y139074500D01*
X77179185Y139074501D01*
X77312836Y139110312D01*
X77432665Y139179495D01*
X77530505Y139277335D01*
X77599688Y139397164D01*
X77635499Y139530815D01*
X77635500Y139530815D01*
X77635500Y139659312D01*
X78799500Y139659312D01*
X78799500Y139540689D01*
X78830199Y139426118D01*
X78830201Y139426113D01*
X78889508Y139323391D01*
X78889509Y139323390D01*
X78889511Y139323387D01*
X78973387Y139239511D01*
X79076114Y139180201D01*
X79076115Y139180201D01*
X79076117Y139180200D01*
X79133402Y139164851D01*
X79190688Y139149501D01*
X79190689Y139149500D01*
X79190691Y139149500D01*
X79309311Y139149500D01*
X79309311Y139149501D01*
X79423886Y139180201D01*
X79526613Y139239511D01*
X79610489Y139323387D01*
X79669799Y139426114D01*
X79700499Y139540689D01*
X79700500Y139540689D01*
X79700500Y139659311D01*
X79700499Y139659312D01*
X80299500Y139659312D01*
X80299500Y139540689D01*
X80330199Y139426118D01*
X80330201Y139426113D01*
X80389508Y139323391D01*
X80389509Y139323390D01*
X80389511Y139323387D01*
X80473387Y139239511D01*
X80576114Y139180201D01*
X80576115Y139180201D01*
X80576117Y139180200D01*
X80633402Y139164851D01*
X80690688Y139149501D01*
X80690689Y139149500D01*
X80690691Y139149500D01*
X80809311Y139149500D01*
X80809311Y139149501D01*
X80923886Y139180201D01*
X81026613Y139239511D01*
X81110489Y139323387D01*
X81169799Y139426114D01*
X81200499Y139540689D01*
X81200500Y139540689D01*
X81200500Y139659311D01*
X81200499Y139659312D01*
X81200151Y139660609D01*
X81169799Y139773886D01*
X81110489Y139876613D01*
X81026613Y139960489D01*
X81026610Y139960491D01*
X81026609Y139960492D01*
X80923887Y140019799D01*
X80923882Y140019801D01*
X80809311Y140050500D01*
X80809309Y140050500D01*
X80690691Y140050500D01*
X80690689Y140050500D01*
X80576117Y140019801D01*
X80576112Y140019799D01*
X80473390Y139960492D01*
X80389508Y139876610D01*
X80330201Y139773888D01*
X80330199Y139773883D01*
X80299500Y139659312D01*
X79700499Y139659312D01*
X79700151Y139660609D01*
X79669799Y139773886D01*
X79610489Y139876613D01*
X79572173Y139914929D01*
X79550500Y139967254D01*
X79550500Y140044877D01*
X79572174Y140097203D01*
X79652797Y140177826D01*
X79705123Y140199500D01*
X81244877Y140199500D01*
X81297203Y140177826D01*
X81377826Y140097203D01*
X81399500Y140044877D01*
X81399500Y137255123D01*
X81377826Y137202797D01*
X80997203Y136822174D01*
X80944877Y136800500D01*
X80890689Y136800500D01*
X80776117Y136769801D01*
X80776112Y136769799D01*
X80673390Y136710492D01*
X80589508Y136626610D01*
X80530201Y136523888D01*
X80530199Y136523883D01*
X80499500Y136409312D01*
X80499500Y136290689D01*
X80530199Y136176118D01*
X80530201Y136176113D01*
X80589508Y136073391D01*
X80589509Y136073390D01*
X80589511Y136073387D01*
X80673387Y135989511D01*
X80776114Y135930201D01*
X80776115Y135930201D01*
X80776117Y135930200D01*
X80833402Y135914851D01*
X80890688Y135899501D01*
X80890689Y135899500D01*
X80890691Y135899500D01*
X81009311Y135899500D01*
X81009311Y135899501D01*
X81123886Y135930201D01*
X81226613Y135989511D01*
X81310489Y136073387D01*
X81369799Y136176114D01*
X81400499Y136290689D01*
X81400500Y136290689D01*
X81400500Y136344877D01*
X81422174Y136397203D01*
X81651584Y136626613D01*
X81940460Y136915489D01*
X81980021Y136984011D01*
X82000499Y137060436D01*
X82000500Y137060436D01*
X82000500Y139669186D01*
X82364500Y139669186D01*
X82364500Y139530815D01*
X82400310Y139397169D01*
X82400312Y139397164D01*
X82469495Y139277335D01*
X82567335Y139179495D01*
X82687164Y139110312D01*
X82820814Y139074501D01*
X82820815Y139074500D01*
X82820817Y139074500D01*
X82959185Y139074500D01*
X82959185Y139074501D01*
X83092836Y139110312D01*
X83212665Y139179495D01*
X83310505Y139277335D01*
X83379688Y139397164D01*
X83415499Y139530815D01*
X83415500Y139530815D01*
X83415500Y139669185D01*
X83415499Y139669186D01*
X83387444Y139773888D01*
X83379688Y139802836D01*
X83310505Y139922665D01*
X83212665Y140020505D01*
X83092836Y140089688D01*
X83092831Y140089690D01*
X82959185Y140125500D01*
X82959183Y140125500D01*
X82820817Y140125500D01*
X82820815Y140125500D01*
X82687168Y140089690D01*
X82687163Y140089688D01*
X82567334Y140020505D01*
X82469495Y139922666D01*
X82400312Y139802837D01*
X82400310Y139802832D01*
X82364500Y139669186D01*
X82000500Y139669186D01*
X82000500Y140239564D01*
X82000499Y140239565D01*
X81994191Y140263105D01*
X81980021Y140315989D01*
X81940460Y140384511D01*
X81884511Y140440460D01*
X81584511Y140740460D01*
X81515990Y140780021D01*
X81515985Y140780023D01*
X81439564Y140800500D01*
X81439562Y140800500D01*
X79510438Y140800500D01*
X79510436Y140800500D01*
X79434014Y140780023D01*
X79434009Y140780021D01*
X79365488Y140740460D01*
X79009540Y140384512D01*
X78969979Y140315991D01*
X78969977Y140315986D01*
X78949500Y140239565D01*
X78949500Y139967254D01*
X78927827Y139914929D01*
X78889508Y139876610D01*
X78830201Y139773888D01*
X78830199Y139773883D01*
X78799500Y139659312D01*
X77635500Y139659312D01*
X77635500Y139669185D01*
X77635499Y139669186D01*
X77607444Y139773888D01*
X77599688Y139802836D01*
X77530505Y139922665D01*
X77432665Y140020505D01*
X77312836Y140089688D01*
X77312831Y140089690D01*
X77179185Y140125500D01*
X77179183Y140125500D01*
X77040817Y140125500D01*
X77040815Y140125500D01*
X76907168Y140089690D01*
X76907163Y140089688D01*
X76787334Y140020505D01*
X76689495Y139922666D01*
X76620312Y139802837D01*
X76620310Y139802832D01*
X76584500Y139669186D01*
X7235284Y139669186D01*
X7500000Y141000000D01*
X7233578Y142339393D01*
X6474873Y143474874D01*
X5339392Y144233579D01*
X4736898Y144353423D01*
X4689807Y144384888D01*
X4678758Y144440437D01*
X4710224Y144487529D01*
X4751336Y144500000D01*
X155248664Y144500000D01*
X155300990Y144478326D01*
G37*
%TD.AperFunction*%
%TD*%
M02*
