M48
; DRILL file KiCad 10.0.6-10.0.6~ubuntu24.04.1 date 2026-09-26T21:29:22
; FORMAT={-:-/ absolute / metric / decimal}
; #@! TF.CreationDate,2026-09-26T21:29:22-07:00
; #@! TF.GenerationSoftware,Kicad,Pcbnew,10.0.6-10.0.6~ubuntu24.04.1
; #@! TF.FileFunction,Plated,1,4,PTH
FMAT,2
METRIC
; #@! TA.AperFunction,Plated,PTH,ViaDrill
T1C0.250
; #@! TA.AperFunction,Plated,PTH,ViaDrill
T2C0.300
; #@! TA.AperFunction,Plated,PTH,ComponentDrill
T3C0.600
; #@! TA.AperFunction,Plated,PTH,ComponentDrill
T4C1.100
%
G90
G05
T1
X11.05Y74.188
X11.05Y14.75
X12.0Y55.975
X12.0Y43.975
X12.0Y31.975
X12.0Y19.975
X12.95Y14.75
X14.0Y97.025
X14.0Y92.587
X15.75Y70.275
X15.75Y68.725
X17.05Y74.188
X17.05Y14.75
X18.0Y55.975
X18.0Y43.975
X18.0Y31.975
X18.0Y19.975
X18.95Y14.75
X20.0Y97.025
X20.0Y92.587
X21.75Y70.275
X21.75Y68.725
X23.05Y74.188
X23.05Y14.75
X24.0Y55.975
X24.0Y43.975
X24.0Y31.975
X24.0Y19.975
X24.95Y14.75
X26.0Y97.025
X26.0Y92.587
X27.75Y70.275
X27.75Y68.725
X29.05Y74.188
X29.05Y14.75
X29.775Y88.862
X30.0Y79.025
X30.0Y55.975
X30.0Y43.975
X30.0Y31.975
X30.0Y19.975
X30.95Y14.75
X32.0Y97.025
X32.0Y92.587
X33.75Y70.275
X33.75Y68.725
X34.075Y81.938
X34.725Y90.062
X34.725Y81.737
X35.05Y74.188
X35.05Y14.75
X35.375Y81.737
X36.0Y55.975
X36.0Y43.975
X36.0Y31.975
X36.0Y19.975
X36.025Y81.737
X36.675Y81.737
X36.95Y14.75
X37.325Y81.737
X37.7Y90.05
X38.0Y97.025
X38.0Y92.587
X38.625Y81.737
X38.75Y87.35
X39.275Y81.737
X39.35Y84.3
X39.75Y70.275
X39.75Y68.725
X39.925Y81.938
X40.1Y84.25
X40.63Y86.664
X41.05Y74.188
X41.05Y14.75
X42.0Y79.025
X42.0Y55.975
X42.0Y43.975
X42.0Y31.975
X42.0Y19.975
X42.95Y14.75
X43.8Y86.775
X44.0Y97.025
X44.0Y92.587
X45.75Y70.275
X45.75Y68.725
X47.05Y74.188
X47.05Y14.75
X48.0Y55.975
X48.0Y43.975
X48.0Y31.975
X48.0Y19.975
X48.95Y14.75
X50.0Y97.025
X50.0Y92.587
X51.75Y70.275
X51.75Y68.725
X53.05Y74.188
X53.05Y14.75
X54.0Y55.975
X54.0Y43.975
X54.0Y31.975
X54.0Y19.975
X54.95Y14.75
X56.0Y97.025
X56.0Y92.587
X57.75Y70.275
X57.75Y68.725
X59.05Y74.188
X59.05Y14.75
X60.0Y55.975
X60.0Y43.975
X60.0Y31.975
X60.0Y19.975
X60.95Y14.75
X62.0Y97.025
X62.0Y92.587
X62.0Y91.05
X63.75Y70.275
X63.75Y68.725
X65.05Y74.188
X65.05Y14.75
X66.0Y55.975
X66.0Y43.975
X66.0Y31.975
X66.0Y19.975
X66.95Y14.75
X68.0Y97.025
X68.0Y92.587
X68.0Y90.55
X69.75Y70.275
X69.75Y68.725
X71.05Y74.188
X71.05Y14.75
X72.0Y55.975
X72.0Y43.975
X72.0Y31.975
X72.0Y19.975
X72.95Y14.75
X74.0Y97.025
X75.75Y70.275
X75.75Y68.725
X77.05Y74.188
X77.05Y14.75
X77.775Y88.862
X78.0Y55.975
X78.0Y43.975
X78.0Y31.975
X78.0Y19.975
X78.55Y78.8
X78.95Y14.75
X79.1Y83.4
X80.0Y97.025
X80.0Y92.587
X80.0Y91.05
X81.75Y70.275
X81.75Y68.725
X82.075Y81.938
X82.725Y90.062
X82.725Y81.737
X82.95Y78.6
X83.05Y74.188
X83.05Y14.75
X83.375Y81.737
X84.0Y55.975
X84.0Y43.975
X84.0Y31.975
X84.0Y19.975
X84.025Y81.737
X84.3Y85.05
X84.95Y14.75
X85.15Y84.85
X85.325Y81.737
X85.35Y80.2
X85.85Y90.15
X85.975Y81.737
X86.0Y97.025
X86.0Y92.587
X86.0Y91.05
X86.35Y84.65
X86.625Y81.737
X86.75Y90.15
X87.275Y81.737
X87.75Y70.275
X87.75Y68.725
X87.776Y87.542
X87.925Y81.938
X88.55Y82.95
X88.55Y81.8
X89.05Y74.188
X89.05Y14.75
X89.858Y89.251
X90.0Y55.975
X90.0Y43.975
X90.0Y31.975
X90.0Y19.975
X90.25Y83.5
X90.4Y81.7
X90.9Y84.85
X90.95Y14.75
X91.0Y82.8
X91.1Y78.25
X91.8Y86.775
X92.0Y97.025
X92.0Y92.587
X92.0Y90.55
X93.75Y70.275
X93.75Y68.725
X95.05Y74.188
X95.05Y14.75
X95.65Y92.6
X96.0Y79.025
X96.0Y55.975
X96.0Y43.975
X96.0Y31.975
X96.0Y19.975
X96.5Y91.05
X96.95Y14.75
X97.95Y91.05
X98.0Y97.025
X98.0Y92.587
X98.65Y91.05
X99.75Y70.275
X99.75Y68.725
X101.05Y74.188
X101.05Y14.75
X101.9Y86.4
X102.0Y79.025
X102.0Y55.975
X102.0Y43.975
X102.0Y31.975
X102.0Y19.975
X102.5Y75.15
X102.95Y14.75
X104.0Y97.025
X105.65Y78.5
X105.75Y70.275
X105.75Y68.725
X106.55Y76.2
X109.15Y78.0
X110.2Y86.4
X110.4Y72.35
X114.2Y68.0
X117.9Y75.8
X124.55Y74.15
X125.9Y77.7
X126.85Y74.45
X127.4Y67.5
X127.4Y53.9
X127.95Y74.15
X129.8Y67.5
X129.8Y53.9
X130.6Y67.5
X130.6Y53.9
X132.2Y67.5
X133.4Y69.65
X133.8Y67.5
X134.6Y67.5
X135.025Y12.0
X135.4Y67.5
X135.662Y15.05
X136.0Y89.8
X136.7Y89.1
X136.7Y68.6
X137.8Y89.1
X137.8Y67.5
X138.8Y89.1
X139.975Y20.0
X140.2Y67.5
X141.8Y67.5
X144.38Y63.13
X146.25Y45.95
X146.312Y12.0
X146.312Y9.0
X146.55Y68.85
X146.6Y65.4
X147.688Y19.0
X148.05Y71.0
X150.0Y74.45
X150.7Y79.0
X150.77Y43.07
X150.9Y76.25
X151.95Y63.1
X152.05Y71.0
X152.088Y74.0
X152.75Y84.6
X152.8Y43.55
X155.0Y76.25
X155.9Y85.3
X156.0Y93.0
X156.0Y73.0
X156.05Y71.0
X156.8Y80.65
X156.8Y79.4
X157.0Y25.5
X157.3Y26.6
X158.8Y34.6
X160.05Y71.0
X160.887Y75.7
X163.412Y82.6
X165.9Y89.2
X166.1Y88.3
X166.5Y80.95
X166.5Y79.05
X166.95Y75.7
X167.412Y82.6
X167.8Y93.0
X167.8Y85.6
X169.05Y93.5
X169.9Y89.7
X170.0Y88.8
X170.45Y34.6
X170.5Y80.95
X170.75Y79.9
X170.9Y78.15
X171.4Y81.75
X171.4Y76.95
X171.7Y81.1
X171.7Y79.75
X171.7Y78.7
X171.9Y82.45
T2
X14.5Y64.05
X20.5Y64.05
X26.5Y64.05
X32.5Y64.05
X32.7Y90.263
X38.5Y64.05
X44.5Y64.05
X50.5Y64.05
X56.5Y64.05
X62.5Y64.05
X68.5Y64.05
X74.5Y64.05
X80.5Y64.05
X80.7Y90.263
X86.5Y64.05
X92.5Y64.05
X98.5Y64.05
X104.5Y64.05
X112.0Y36.5
X127.0Y39.913
X128.6Y47.0
X132.2Y38.712
X133.2Y88.6
X134.4Y88.6
X141.7Y12.0
X146.3Y92.0
X147.1Y46.05
X148.75Y61.6
X155.25Y66.4
X155.75Y30.1
X156.25Y23.7
X157.3Y45.675
X157.3Y23.3
X157.75Y54.6
X158.7Y57.95
X162.25Y29.8
X162.75Y62.3
X163.0Y41.3
X165.3Y67.2
X166.8Y56.0
X167.25Y35.4
X171.4Y43.25
X172.9Y33.0
T4
X123.19Y34.58
X125.73Y34.58
X128.27Y34.58
X130.81Y34.58
T3
X173.52Y84.32G85X174.62Y84.32
G05
X173.52Y75.68G85X174.62Y75.68
G05
X177.95Y84.32G85X178.55Y84.32
G05
X177.95Y75.68G85X178.55Y75.68
G05
M30
