%TF.GenerationSoftware,KiCad,Pcbnew,10.0.6-10.0.6~ubuntu24.04.1*%
%TF.CreationDate,2026-09-26T21:29:21-07:00*%
%TF.ProjectId,calibrator,63616c69-6272-4617-946f-722e6b696361,rev?*%
%TF.SameCoordinates,Original*%
%TF.FileFunction,Legend,Top*%
%TF.FilePolarity,Positive*%
%FSLAX46Y46*%
G04 Gerber Fmt 4.6, Leading zero omitted, Abs format (unit mm)*
G04 Created by KiCad (PCBNEW 10.0.6-10.0.6~ubuntu24.04.1) date 2026-09-26 21:29:21*
%MOMM*%
%LPD*%
G01*
G04 APERTURE LIST*
G04 Aperture macros list*
%AMRoundRect*
0 Rectangle with rounded corners*
0 $1 Rounding radius*
0 $2 $3 $4 $5 $6 $7 $8 $9 X,Y pos of 4 corners*
0 Add a 4 corners polygon primitive as box body*
4,1,4,$2,$3,$4,$5,$6,$7,$8,$9,$2,$3,0*
0 Add four circle primitives for the rounded corners*
1,1,$1+$1,$2,$3*
1,1,$1+$1,$4,$5*
1,1,$1+$1,$6,$7*
1,1,$1+$1,$8,$9*
0 Add four rect primitives between the rounded corners*
20,1,$1+$1,$2,$3,$4,$5,0*
20,1,$1+$1,$4,$5,$6,$7,0*
20,1,$1+$1,$6,$7,$8,$9,0*
20,1,$1+$1,$8,$9,$2,$3,0*%
G04 Aperture macros list end*
%ADD10C,0.120000*%
%ADD11C,0.150000*%
%ADD12RoundRect,0.250000X0.450000X-0.262500X0.450000X0.262500X-0.450000X0.262500X-0.450000X-0.262500X0*%
%ADD13RoundRect,0.250000X-0.250000X-0.475000X0.250000X-0.475000X0.250000X0.475000X-0.250000X0.475000X0*%
%ADD14RoundRect,0.250000X0.250000X0.475000X-0.250000X0.475000X-0.250000X-0.475000X0.250000X-0.475000X0*%
%ADD15C,3.200000*%
%ADD16RoundRect,0.250000X-0.262500X-0.450000X0.262500X-0.450000X0.262500X0.450000X-0.262500X0.450000X0*%
%ADD17RoundRect,0.250000X-0.625000X0.375000X-0.625000X-0.375000X0.625000X-0.375000X0.625000X0.375000X0*%
%ADD18RoundRect,0.250000X0.475000X-0.250000X0.475000X0.250000X-0.475000X0.250000X-0.475000X-0.250000X0*%
%ADD19RoundRect,0.250000X-0.450000X0.262500X-0.450000X-0.262500X0.450000X-0.262500X0.450000X0.262500X0*%
%ADD20RoundRect,0.150000X-0.512500X-0.150000X0.512500X-0.150000X0.512500X0.150000X-0.512500X0.150000X0*%
%ADD21RoundRect,0.150000X0.512500X0.150000X-0.512500X0.150000X-0.512500X-0.150000X0.512500X-0.150000X0*%
%ADD22RoundRect,0.175000X-0.725000X-0.175000X0.725000X-0.175000X0.725000X0.175000X-0.725000X0.175000X0*%
%ADD23RoundRect,0.200000X-0.700000X-0.200000X0.700000X-0.200000X0.700000X0.200000X-0.700000X0.200000X0*%
%ADD24RoundRect,0.250000X0.262500X0.450000X-0.262500X0.450000X-0.262500X-0.450000X0.262500X-0.450000X0*%
%ADD25RoundRect,0.100000X0.100000X-0.637500X0.100000X0.637500X-0.100000X0.637500X-0.100000X-0.637500X0*%
%ADD26C,2.700000*%
%ADD27R,1.800000X1.800000*%
%ADD28C,1.800000*%
%ADD29C,0.650000*%
%ADD30R,1.450000X0.600000*%
%ADD31R,1.450000X0.300000*%
%ADD32O,2.100000X1.000000*%
%ADD33O,1.600000X1.000000*%
%ADD34R,5.080000X1.500000*%
%ADD35R,0.350000X0.660000*%
%ADD36R,0.230000X0.660000*%
%ADD37RoundRect,0.150000X-0.150000X0.587500X-0.150000X-0.587500X0.150000X-0.587500X0.150000X0.587500X0*%
%ADD38RoundRect,0.218750X0.218750X0.256250X-0.218750X0.256250X-0.218750X-0.256250X0.218750X-0.256250X0*%
%ADD39R,0.200000X1.140000*%
%ADD40RoundRect,0.100000X-0.225000X-0.100000X0.225000X-0.100000X0.225000X0.100000X-0.225000X0.100000X0*%
%ADD41R,1.450000X0.450000*%
%ADD42RoundRect,0.250000X-0.475000X0.250000X-0.475000X-0.250000X0.475000X-0.250000X0.475000X0.250000X0*%
%ADD43C,1.500000*%
%ADD44R,1.000000X2.900000*%
%ADD45RoundRect,0.050000X-0.375000X-0.050000X0.375000X-0.050000X0.375000X0.050000X-0.375000X0.050000X0*%
%ADD46RoundRect,0.050000X-0.050000X-0.275000X0.050000X-0.275000X0.050000X0.275000X-0.050000X0.275000X0*%
%ADD47RoundRect,0.250000X-0.625000X0.312500X-0.625000X-0.312500X0.625000X-0.312500X0.625000X0.312500X0*%
%ADD48RoundRect,0.062500X-0.300000X-0.062500X0.300000X-0.062500X0.300000X0.062500X-0.300000X0.062500X0*%
%ADD49R,0.900000X1.600000*%
%ADD50RoundRect,0.255000X0.635000X-0.255000X0.635000X0.255000X-0.635000X0.255000X-0.635000X-0.255000X0*%
G04 APERTURE END LIST*
D10*
X125000000Y99200000D02*
X125000000Y55000000D01*
X125000000Y55000000D02*
X145000000Y55000000D01*
X145000000Y93500000D02*
X145000000Y99200000D01*
X145000000Y55000000D02*
X145000000Y90500000D01*
D11*
X3357142Y61545181D02*
X3023809Y62021372D01*
X2785714Y61545181D02*
X2785714Y62545181D01*
X2785714Y62545181D02*
X3166666Y62545181D01*
X3166666Y62545181D02*
X3261904Y62497562D01*
X3261904Y62497562D02*
X3309523Y62449943D01*
X3309523Y62449943D02*
X3357142Y62354705D01*
X3357142Y62354705D02*
X3357142Y62211848D01*
X3357142Y62211848D02*
X3309523Y62116610D01*
X3309523Y62116610D02*
X3261904Y62068991D01*
X3261904Y62068991D02*
X3166666Y62021372D01*
X3166666Y62021372D02*
X2785714Y62021372D01*
X3976190Y62545181D02*
X4166666Y62545181D01*
X4166666Y62545181D02*
X4261904Y62497562D01*
X4261904Y62497562D02*
X4357142Y62402324D01*
X4357142Y62402324D02*
X4404761Y62211848D01*
X4404761Y62211848D02*
X4404761Y61878515D01*
X4404761Y61878515D02*
X4357142Y61688039D01*
X4357142Y61688039D02*
X4261904Y61592800D01*
X4261904Y61592800D02*
X4166666Y61545181D01*
X4166666Y61545181D02*
X3976190Y61545181D01*
X3976190Y61545181D02*
X3880952Y61592800D01*
X3880952Y61592800D02*
X3785714Y61688039D01*
X3785714Y61688039D02*
X3738095Y61878515D01*
X3738095Y61878515D02*
X3738095Y62211848D01*
X3738095Y62211848D02*
X3785714Y62402324D01*
X3785714Y62402324D02*
X3880952Y62497562D01*
X3880952Y62497562D02*
X3976190Y62545181D01*
X4738095Y62545181D02*
X4976190Y61545181D01*
X4976190Y61545181D02*
X5166666Y62259467D01*
X5166666Y62259467D02*
X5357142Y61545181D01*
X5357142Y61545181D02*
X5595238Y62545181D01*
X6928571Y62545181D02*
X7023809Y62545181D01*
X7023809Y62545181D02*
X7119047Y62497562D01*
X7119047Y62497562D02*
X7166666Y62449943D01*
X7166666Y62449943D02*
X7214285Y62354705D01*
X7214285Y62354705D02*
X7261904Y62164229D01*
X7261904Y62164229D02*
X7261904Y61926134D01*
X7261904Y61926134D02*
X7214285Y61735658D01*
X7214285Y61735658D02*
X7166666Y61640420D01*
X7166666Y61640420D02*
X7119047Y61592800D01*
X7119047Y61592800D02*
X7023809Y61545181D01*
X7023809Y61545181D02*
X6928571Y61545181D01*
X6928571Y61545181D02*
X6833333Y61592800D01*
X6833333Y61592800D02*
X6785714Y61640420D01*
X6785714Y61640420D02*
X6738095Y61735658D01*
X6738095Y61735658D02*
X6690476Y61926134D01*
X6690476Y61926134D02*
X6690476Y62164229D01*
X6690476Y62164229D02*
X6738095Y62354705D01*
X6738095Y62354705D02*
X6785714Y62449943D01*
X6785714Y62449943D02*
X6833333Y62497562D01*
X6833333Y62497562D02*
X6928571Y62545181D01*
X3357142Y49545181D02*
X3023809Y50021372D01*
X2785714Y49545181D02*
X2785714Y50545181D01*
X2785714Y50545181D02*
X3166666Y50545181D01*
X3166666Y50545181D02*
X3261904Y50497562D01*
X3261904Y50497562D02*
X3309523Y50449943D01*
X3309523Y50449943D02*
X3357142Y50354705D01*
X3357142Y50354705D02*
X3357142Y50211848D01*
X3357142Y50211848D02*
X3309523Y50116610D01*
X3309523Y50116610D02*
X3261904Y50068991D01*
X3261904Y50068991D02*
X3166666Y50021372D01*
X3166666Y50021372D02*
X2785714Y50021372D01*
X3976190Y50545181D02*
X4166666Y50545181D01*
X4166666Y50545181D02*
X4261904Y50497562D01*
X4261904Y50497562D02*
X4357142Y50402324D01*
X4357142Y50402324D02*
X4404761Y50211848D01*
X4404761Y50211848D02*
X4404761Y49878515D01*
X4404761Y49878515D02*
X4357142Y49688039D01*
X4357142Y49688039D02*
X4261904Y49592800D01*
X4261904Y49592800D02*
X4166666Y49545181D01*
X4166666Y49545181D02*
X3976190Y49545181D01*
X3976190Y49545181D02*
X3880952Y49592800D01*
X3880952Y49592800D02*
X3785714Y49688039D01*
X3785714Y49688039D02*
X3738095Y49878515D01*
X3738095Y49878515D02*
X3738095Y50211848D01*
X3738095Y50211848D02*
X3785714Y50402324D01*
X3785714Y50402324D02*
X3880952Y50497562D01*
X3880952Y50497562D02*
X3976190Y50545181D01*
X4738095Y50545181D02*
X4976190Y49545181D01*
X4976190Y49545181D02*
X5166666Y50259467D01*
X5166666Y50259467D02*
X5357142Y49545181D01*
X5357142Y49545181D02*
X5595238Y50545181D01*
X7261904Y49545181D02*
X6690476Y49545181D01*
X6976190Y49545181D02*
X6976190Y50545181D01*
X6976190Y50545181D02*
X6880952Y50402324D01*
X6880952Y50402324D02*
X6785714Y50307086D01*
X6785714Y50307086D02*
X6690476Y50259467D01*
X3357142Y37545181D02*
X3023809Y38021372D01*
X2785714Y37545181D02*
X2785714Y38545181D01*
X2785714Y38545181D02*
X3166666Y38545181D01*
X3166666Y38545181D02*
X3261904Y38497562D01*
X3261904Y38497562D02*
X3309523Y38449943D01*
X3309523Y38449943D02*
X3357142Y38354705D01*
X3357142Y38354705D02*
X3357142Y38211848D01*
X3357142Y38211848D02*
X3309523Y38116610D01*
X3309523Y38116610D02*
X3261904Y38068991D01*
X3261904Y38068991D02*
X3166666Y38021372D01*
X3166666Y38021372D02*
X2785714Y38021372D01*
X3976190Y38545181D02*
X4166666Y38545181D01*
X4166666Y38545181D02*
X4261904Y38497562D01*
X4261904Y38497562D02*
X4357142Y38402324D01*
X4357142Y38402324D02*
X4404761Y38211848D01*
X4404761Y38211848D02*
X4404761Y37878515D01*
X4404761Y37878515D02*
X4357142Y37688039D01*
X4357142Y37688039D02*
X4261904Y37592800D01*
X4261904Y37592800D02*
X4166666Y37545181D01*
X4166666Y37545181D02*
X3976190Y37545181D01*
X3976190Y37545181D02*
X3880952Y37592800D01*
X3880952Y37592800D02*
X3785714Y37688039D01*
X3785714Y37688039D02*
X3738095Y37878515D01*
X3738095Y37878515D02*
X3738095Y38211848D01*
X3738095Y38211848D02*
X3785714Y38402324D01*
X3785714Y38402324D02*
X3880952Y38497562D01*
X3880952Y38497562D02*
X3976190Y38545181D01*
X4738095Y38545181D02*
X4976190Y37545181D01*
X4976190Y37545181D02*
X5166666Y38259467D01*
X5166666Y38259467D02*
X5357142Y37545181D01*
X5357142Y37545181D02*
X5595238Y38545181D01*
X6690476Y38449943D02*
X6738095Y38497562D01*
X6738095Y38497562D02*
X6833333Y38545181D01*
X6833333Y38545181D02*
X7071428Y38545181D01*
X7071428Y38545181D02*
X7166666Y38497562D01*
X7166666Y38497562D02*
X7214285Y38449943D01*
X7214285Y38449943D02*
X7261904Y38354705D01*
X7261904Y38354705D02*
X7261904Y38259467D01*
X7261904Y38259467D02*
X7214285Y38116610D01*
X7214285Y38116610D02*
X6642857Y37545181D01*
X6642857Y37545181D02*
X7261904Y37545181D01*
X3357142Y25545181D02*
X3023809Y26021372D01*
X2785714Y25545181D02*
X2785714Y26545181D01*
X2785714Y26545181D02*
X3166666Y26545181D01*
X3166666Y26545181D02*
X3261904Y26497562D01*
X3261904Y26497562D02*
X3309523Y26449943D01*
X3309523Y26449943D02*
X3357142Y26354705D01*
X3357142Y26354705D02*
X3357142Y26211848D01*
X3357142Y26211848D02*
X3309523Y26116610D01*
X3309523Y26116610D02*
X3261904Y26068991D01*
X3261904Y26068991D02*
X3166666Y26021372D01*
X3166666Y26021372D02*
X2785714Y26021372D01*
X3976190Y26545181D02*
X4166666Y26545181D01*
X4166666Y26545181D02*
X4261904Y26497562D01*
X4261904Y26497562D02*
X4357142Y26402324D01*
X4357142Y26402324D02*
X4404761Y26211848D01*
X4404761Y26211848D02*
X4404761Y25878515D01*
X4404761Y25878515D02*
X4357142Y25688039D01*
X4357142Y25688039D02*
X4261904Y25592800D01*
X4261904Y25592800D02*
X4166666Y25545181D01*
X4166666Y25545181D02*
X3976190Y25545181D01*
X3976190Y25545181D02*
X3880952Y25592800D01*
X3880952Y25592800D02*
X3785714Y25688039D01*
X3785714Y25688039D02*
X3738095Y25878515D01*
X3738095Y25878515D02*
X3738095Y26211848D01*
X3738095Y26211848D02*
X3785714Y26402324D01*
X3785714Y26402324D02*
X3880952Y26497562D01*
X3880952Y26497562D02*
X3976190Y26545181D01*
X4738095Y26545181D02*
X4976190Y25545181D01*
X4976190Y25545181D02*
X5166666Y26259467D01*
X5166666Y26259467D02*
X5357142Y25545181D01*
X5357142Y25545181D02*
X5595238Y26545181D01*
X6642857Y26545181D02*
X7261904Y26545181D01*
X7261904Y26545181D02*
X6928571Y26164229D01*
X6928571Y26164229D02*
X7071428Y26164229D01*
X7071428Y26164229D02*
X7166666Y26116610D01*
X7166666Y26116610D02*
X7214285Y26068991D01*
X7214285Y26068991D02*
X7261904Y25973753D01*
X7261904Y25973753D02*
X7261904Y25735658D01*
X7261904Y25735658D02*
X7214285Y25640420D01*
X7214285Y25640420D02*
X7166666Y25592800D01*
X7166666Y25592800D02*
X7071428Y25545181D01*
X7071428Y25545181D02*
X6785714Y25545181D01*
X6785714Y25545181D02*
X6690476Y25592800D01*
X6690476Y25592800D02*
X6642857Y25640420D01*
X11809523Y66545181D02*
X11238095Y66545181D01*
X11523809Y66545181D02*
X11523809Y67545181D01*
X11523809Y67545181D02*
X11428571Y67402324D01*
X11428571Y67402324D02*
X11333333Y67307086D01*
X11333333Y67307086D02*
X11238095Y67259467D01*
X12714285Y67545181D02*
X12238095Y67545181D01*
X12238095Y67545181D02*
X12190476Y67068991D01*
X12190476Y67068991D02*
X12238095Y67116610D01*
X12238095Y67116610D02*
X12333333Y67164229D01*
X12333333Y67164229D02*
X12571428Y67164229D01*
X12571428Y67164229D02*
X12666666Y67116610D01*
X12666666Y67116610D02*
X12714285Y67068991D01*
X12714285Y67068991D02*
X12761904Y66973753D01*
X12761904Y66973753D02*
X12761904Y66735658D01*
X12761904Y66735658D02*
X12714285Y66640420D01*
X12714285Y66640420D02*
X12666666Y66592800D01*
X12666666Y66592800D02*
X12571428Y66545181D01*
X12571428Y66545181D02*
X12333333Y66545181D01*
X12333333Y66545181D02*
X12238095Y66592800D01*
X12238095Y66592800D02*
X12190476Y66640420D01*
X17809523Y66545181D02*
X17238095Y66545181D01*
X17523809Y66545181D02*
X17523809Y67545181D01*
X17523809Y67545181D02*
X17428571Y67402324D01*
X17428571Y67402324D02*
X17333333Y67307086D01*
X17333333Y67307086D02*
X17238095Y67259467D01*
X18666666Y67211848D02*
X18666666Y66545181D01*
X18428571Y67592800D02*
X18190476Y66878515D01*
X18190476Y66878515D02*
X18809523Y66878515D01*
X23809523Y66545181D02*
X23238095Y66545181D01*
X23523809Y66545181D02*
X23523809Y67545181D01*
X23523809Y67545181D02*
X23428571Y67402324D01*
X23428571Y67402324D02*
X23333333Y67307086D01*
X23333333Y67307086D02*
X23238095Y67259467D01*
X24142857Y67545181D02*
X24761904Y67545181D01*
X24761904Y67545181D02*
X24428571Y67164229D01*
X24428571Y67164229D02*
X24571428Y67164229D01*
X24571428Y67164229D02*
X24666666Y67116610D01*
X24666666Y67116610D02*
X24714285Y67068991D01*
X24714285Y67068991D02*
X24761904Y66973753D01*
X24761904Y66973753D02*
X24761904Y66735658D01*
X24761904Y66735658D02*
X24714285Y66640420D01*
X24714285Y66640420D02*
X24666666Y66592800D01*
X24666666Y66592800D02*
X24571428Y66545181D01*
X24571428Y66545181D02*
X24285714Y66545181D01*
X24285714Y66545181D02*
X24190476Y66592800D01*
X24190476Y66592800D02*
X24142857Y66640420D01*
X29809523Y66545181D02*
X29238095Y66545181D01*
X29523809Y66545181D02*
X29523809Y67545181D01*
X29523809Y67545181D02*
X29428571Y67402324D01*
X29428571Y67402324D02*
X29333333Y67307086D01*
X29333333Y67307086D02*
X29238095Y67259467D01*
X30190476Y67449943D02*
X30238095Y67497562D01*
X30238095Y67497562D02*
X30333333Y67545181D01*
X30333333Y67545181D02*
X30571428Y67545181D01*
X30571428Y67545181D02*
X30666666Y67497562D01*
X30666666Y67497562D02*
X30714285Y67449943D01*
X30714285Y67449943D02*
X30761904Y67354705D01*
X30761904Y67354705D02*
X30761904Y67259467D01*
X30761904Y67259467D02*
X30714285Y67116610D01*
X30714285Y67116610D02*
X30142857Y66545181D01*
X30142857Y66545181D02*
X30761904Y66545181D01*
X35809523Y66545181D02*
X35238095Y66545181D01*
X35523809Y66545181D02*
X35523809Y67545181D01*
X35523809Y67545181D02*
X35428571Y67402324D01*
X35428571Y67402324D02*
X35333333Y67307086D01*
X35333333Y67307086D02*
X35238095Y67259467D01*
X36761904Y66545181D02*
X36190476Y66545181D01*
X36476190Y66545181D02*
X36476190Y67545181D01*
X36476190Y67545181D02*
X36380952Y67402324D01*
X36380952Y67402324D02*
X36285714Y67307086D01*
X36285714Y67307086D02*
X36190476Y67259467D01*
X41809523Y66545181D02*
X41238095Y66545181D01*
X41523809Y66545181D02*
X41523809Y67545181D01*
X41523809Y67545181D02*
X41428571Y67402324D01*
X41428571Y67402324D02*
X41333333Y67307086D01*
X41333333Y67307086D02*
X41238095Y67259467D01*
X42428571Y67545181D02*
X42523809Y67545181D01*
X42523809Y67545181D02*
X42619047Y67497562D01*
X42619047Y67497562D02*
X42666666Y67449943D01*
X42666666Y67449943D02*
X42714285Y67354705D01*
X42714285Y67354705D02*
X42761904Y67164229D01*
X42761904Y67164229D02*
X42761904Y66926134D01*
X42761904Y66926134D02*
X42714285Y66735658D01*
X42714285Y66735658D02*
X42666666Y66640420D01*
X42666666Y66640420D02*
X42619047Y66592800D01*
X42619047Y66592800D02*
X42523809Y66545181D01*
X42523809Y66545181D02*
X42428571Y66545181D01*
X42428571Y66545181D02*
X42333333Y66592800D01*
X42333333Y66592800D02*
X42285714Y66640420D01*
X42285714Y66640420D02*
X42238095Y66735658D01*
X42238095Y66735658D02*
X42190476Y66926134D01*
X42190476Y66926134D02*
X42190476Y67164229D01*
X42190476Y67164229D02*
X42238095Y67354705D01*
X42238095Y67354705D02*
X42285714Y67449943D01*
X42285714Y67449943D02*
X42333333Y67497562D01*
X42333333Y67497562D02*
X42428571Y67545181D01*
X47809524Y66545181D02*
X48000000Y66545181D01*
X48000000Y66545181D02*
X48095238Y66592800D01*
X48095238Y66592800D02*
X48142857Y66640420D01*
X48142857Y66640420D02*
X48238095Y66783277D01*
X48238095Y66783277D02*
X48285714Y66973753D01*
X48285714Y66973753D02*
X48285714Y67354705D01*
X48285714Y67354705D02*
X48238095Y67449943D01*
X48238095Y67449943D02*
X48190476Y67497562D01*
X48190476Y67497562D02*
X48095238Y67545181D01*
X48095238Y67545181D02*
X47904762Y67545181D01*
X47904762Y67545181D02*
X47809524Y67497562D01*
X47809524Y67497562D02*
X47761905Y67449943D01*
X47761905Y67449943D02*
X47714286Y67354705D01*
X47714286Y67354705D02*
X47714286Y67116610D01*
X47714286Y67116610D02*
X47761905Y67021372D01*
X47761905Y67021372D02*
X47809524Y66973753D01*
X47809524Y66973753D02*
X47904762Y66926134D01*
X47904762Y66926134D02*
X48095238Y66926134D01*
X48095238Y66926134D02*
X48190476Y66973753D01*
X48190476Y66973753D02*
X48238095Y67021372D01*
X48238095Y67021372D02*
X48285714Y67116610D01*
X53904762Y67116610D02*
X53809524Y67164229D01*
X53809524Y67164229D02*
X53761905Y67211848D01*
X53761905Y67211848D02*
X53714286Y67307086D01*
X53714286Y67307086D02*
X53714286Y67354705D01*
X53714286Y67354705D02*
X53761905Y67449943D01*
X53761905Y67449943D02*
X53809524Y67497562D01*
X53809524Y67497562D02*
X53904762Y67545181D01*
X53904762Y67545181D02*
X54095238Y67545181D01*
X54095238Y67545181D02*
X54190476Y67497562D01*
X54190476Y67497562D02*
X54238095Y67449943D01*
X54238095Y67449943D02*
X54285714Y67354705D01*
X54285714Y67354705D02*
X54285714Y67307086D01*
X54285714Y67307086D02*
X54238095Y67211848D01*
X54238095Y67211848D02*
X54190476Y67164229D01*
X54190476Y67164229D02*
X54095238Y67116610D01*
X54095238Y67116610D02*
X53904762Y67116610D01*
X53904762Y67116610D02*
X53809524Y67068991D01*
X53809524Y67068991D02*
X53761905Y67021372D01*
X53761905Y67021372D02*
X53714286Y66926134D01*
X53714286Y66926134D02*
X53714286Y66735658D01*
X53714286Y66735658D02*
X53761905Y66640420D01*
X53761905Y66640420D02*
X53809524Y66592800D01*
X53809524Y66592800D02*
X53904762Y66545181D01*
X53904762Y66545181D02*
X54095238Y66545181D01*
X54095238Y66545181D02*
X54190476Y66592800D01*
X54190476Y66592800D02*
X54238095Y66640420D01*
X54238095Y66640420D02*
X54285714Y66735658D01*
X54285714Y66735658D02*
X54285714Y66926134D01*
X54285714Y66926134D02*
X54238095Y67021372D01*
X54238095Y67021372D02*
X54190476Y67068991D01*
X54190476Y67068991D02*
X54095238Y67116610D01*
X59666667Y67545181D02*
X60333333Y67545181D01*
X60333333Y67545181D02*
X59904762Y66545181D01*
X48214285Y9497562D02*
X48119047Y9545181D01*
X48119047Y9545181D02*
X47976190Y9545181D01*
X47976190Y9545181D02*
X47833333Y9497562D01*
X47833333Y9497562D02*
X47738095Y9402324D01*
X47738095Y9402324D02*
X47690476Y9307086D01*
X47690476Y9307086D02*
X47642857Y9116610D01*
X47642857Y9116610D02*
X47642857Y8973753D01*
X47642857Y8973753D02*
X47690476Y8783277D01*
X47690476Y8783277D02*
X47738095Y8688039D01*
X47738095Y8688039D02*
X47833333Y8592800D01*
X47833333Y8592800D02*
X47976190Y8545181D01*
X47976190Y8545181D02*
X48071428Y8545181D01*
X48071428Y8545181D02*
X48214285Y8592800D01*
X48214285Y8592800D02*
X48261904Y8640420D01*
X48261904Y8640420D02*
X48261904Y8973753D01*
X48261904Y8973753D02*
X48071428Y8973753D01*
X48690476Y8545181D02*
X48690476Y9545181D01*
X48690476Y9545181D02*
X49071428Y9545181D01*
X49071428Y9545181D02*
X49166666Y9497562D01*
X49166666Y9497562D02*
X49214285Y9449943D01*
X49214285Y9449943D02*
X49261904Y9354705D01*
X49261904Y9354705D02*
X49261904Y9211848D01*
X49261904Y9211848D02*
X49214285Y9116610D01*
X49214285Y9116610D02*
X49166666Y9068991D01*
X49166666Y9068991D02*
X49071428Y9021372D01*
X49071428Y9021372D02*
X48690476Y9021372D01*
X49642857Y8592800D02*
X49785714Y8545181D01*
X49785714Y8545181D02*
X50023809Y8545181D01*
X50023809Y8545181D02*
X50119047Y8592800D01*
X50119047Y8592800D02*
X50166666Y8640420D01*
X50166666Y8640420D02*
X50214285Y8735658D01*
X50214285Y8735658D02*
X50214285Y8830896D01*
X50214285Y8830896D02*
X50166666Y8926134D01*
X50166666Y8926134D02*
X50119047Y8973753D01*
X50119047Y8973753D02*
X50023809Y9021372D01*
X50023809Y9021372D02*
X49833333Y9068991D01*
X49833333Y9068991D02*
X49738095Y9116610D01*
X49738095Y9116610D02*
X49690476Y9164229D01*
X49690476Y9164229D02*
X49642857Y9259467D01*
X49642857Y9259467D02*
X49642857Y9354705D01*
X49642857Y9354705D02*
X49690476Y9449943D01*
X49690476Y9449943D02*
X49738095Y9497562D01*
X49738095Y9497562D02*
X49833333Y9545181D01*
X49833333Y9545181D02*
X50071428Y9545181D01*
X50071428Y9545181D02*
X50214285Y9497562D01*
X51261905Y9545181D02*
X51833333Y9545181D01*
X51547619Y8545181D02*
X51547619Y9545181D01*
X52166667Y8545181D02*
X52166667Y9545181D01*
X52642857Y8545181D02*
X52642857Y9545181D01*
X52642857Y9545181D02*
X52976190Y8830896D01*
X52976190Y8830896D02*
X53309523Y9545181D01*
X53309523Y9545181D02*
X53309523Y8545181D01*
X53785714Y9068991D02*
X54119047Y9068991D01*
X54261904Y8545181D02*
X53785714Y8545181D01*
X53785714Y8545181D02*
X53785714Y9545181D01*
X53785714Y9545181D02*
X54261904Y9545181D01*
X56166666Y9592800D02*
X55309524Y8307086D01*
X57452381Y9545181D02*
X57642857Y9545181D01*
X57642857Y9545181D02*
X57738095Y9497562D01*
X57738095Y9497562D02*
X57833333Y9402324D01*
X57833333Y9402324D02*
X57880952Y9211848D01*
X57880952Y9211848D02*
X57880952Y8878515D01*
X57880952Y8878515D02*
X57833333Y8688039D01*
X57833333Y8688039D02*
X57738095Y8592800D01*
X57738095Y8592800D02*
X57642857Y8545181D01*
X57642857Y8545181D02*
X57452381Y8545181D01*
X57452381Y8545181D02*
X57357143Y8592800D01*
X57357143Y8592800D02*
X57261905Y8688039D01*
X57261905Y8688039D02*
X57214286Y8878515D01*
X57214286Y8878515D02*
X57214286Y9211848D01*
X57214286Y9211848D02*
X57261905Y9402324D01*
X57261905Y9402324D02*
X57357143Y9497562D01*
X57357143Y9497562D02*
X57452381Y9545181D01*
X58309524Y8545181D02*
X58309524Y9545181D01*
X58309524Y9545181D02*
X58690476Y9545181D01*
X58690476Y9545181D02*
X58785714Y9497562D01*
X58785714Y9497562D02*
X58833333Y9449943D01*
X58833333Y9449943D02*
X58880952Y9354705D01*
X58880952Y9354705D02*
X58880952Y9211848D01*
X58880952Y9211848D02*
X58833333Y9116610D01*
X58833333Y9116610D02*
X58785714Y9068991D01*
X58785714Y9068991D02*
X58690476Y9021372D01*
X58690476Y9021372D02*
X58309524Y9021372D01*
X59166667Y9545181D02*
X59738095Y9545181D01*
X59452381Y8545181D02*
X59452381Y9545181D01*
X60071429Y8545181D02*
X60071429Y9545181D01*
X61119047Y8640420D02*
X61071428Y8592800D01*
X61071428Y8592800D02*
X60928571Y8545181D01*
X60928571Y8545181D02*
X60833333Y8545181D01*
X60833333Y8545181D02*
X60690476Y8592800D01*
X60690476Y8592800D02*
X60595238Y8688039D01*
X60595238Y8688039D02*
X60547619Y8783277D01*
X60547619Y8783277D02*
X60500000Y8973753D01*
X60500000Y8973753D02*
X60500000Y9116610D01*
X60500000Y9116610D02*
X60547619Y9307086D01*
X60547619Y9307086D02*
X60595238Y9402324D01*
X60595238Y9402324D02*
X60690476Y9497562D01*
X60690476Y9497562D02*
X60833333Y9545181D01*
X60833333Y9545181D02*
X60928571Y9545181D01*
X60928571Y9545181D02*
X61071428Y9497562D01*
X61071428Y9497562D02*
X61119047Y9449943D01*
X61500000Y8830896D02*
X61976190Y8830896D01*
X61404762Y8545181D02*
X61738095Y9545181D01*
X61738095Y9545181D02*
X62071428Y8545181D01*
X62880952Y8545181D02*
X62404762Y8545181D01*
X62404762Y8545181D02*
X62404762Y9545181D01*
X64547619Y8640420D02*
X64500000Y8592800D01*
X64500000Y8592800D02*
X64357143Y8545181D01*
X64357143Y8545181D02*
X64261905Y8545181D01*
X64261905Y8545181D02*
X64119048Y8592800D01*
X64119048Y8592800D02*
X64023810Y8688039D01*
X64023810Y8688039D02*
X63976191Y8783277D01*
X63976191Y8783277D02*
X63928572Y8973753D01*
X63928572Y8973753D02*
X63928572Y9116610D01*
X63928572Y9116610D02*
X63976191Y9307086D01*
X63976191Y9307086D02*
X64023810Y9402324D01*
X64023810Y9402324D02*
X64119048Y9497562D01*
X64119048Y9497562D02*
X64261905Y9545181D01*
X64261905Y9545181D02*
X64357143Y9545181D01*
X64357143Y9545181D02*
X64500000Y9497562D01*
X64500000Y9497562D02*
X64547619Y9449943D01*
X64928572Y8830896D02*
X65404762Y8830896D01*
X64833334Y8545181D02*
X65166667Y9545181D01*
X65166667Y9545181D02*
X65500000Y8545181D01*
X66309524Y8545181D02*
X65833334Y8545181D01*
X65833334Y8545181D02*
X65833334Y9545181D01*
X66642858Y8545181D02*
X66642858Y9545181D01*
X67452381Y9068991D02*
X67595238Y9021372D01*
X67595238Y9021372D02*
X67642857Y8973753D01*
X67642857Y8973753D02*
X67690476Y8878515D01*
X67690476Y8878515D02*
X67690476Y8735658D01*
X67690476Y8735658D02*
X67642857Y8640420D01*
X67642857Y8640420D02*
X67595238Y8592800D01*
X67595238Y8592800D02*
X67500000Y8545181D01*
X67500000Y8545181D02*
X67119048Y8545181D01*
X67119048Y8545181D02*
X67119048Y9545181D01*
X67119048Y9545181D02*
X67452381Y9545181D01*
X67452381Y9545181D02*
X67547619Y9497562D01*
X67547619Y9497562D02*
X67595238Y9449943D01*
X67595238Y9449943D02*
X67642857Y9354705D01*
X67642857Y9354705D02*
X67642857Y9259467D01*
X67642857Y9259467D02*
X67595238Y9164229D01*
X67595238Y9164229D02*
X67547619Y9116610D01*
X67547619Y9116610D02*
X67452381Y9068991D01*
X67452381Y9068991D02*
X67119048Y9068991D01*
X68690476Y8545181D02*
X68357143Y9021372D01*
X68119048Y8545181D02*
X68119048Y9545181D01*
X68119048Y9545181D02*
X68500000Y9545181D01*
X68500000Y9545181D02*
X68595238Y9497562D01*
X68595238Y9497562D02*
X68642857Y9449943D01*
X68642857Y9449943D02*
X68690476Y9354705D01*
X68690476Y9354705D02*
X68690476Y9211848D01*
X68690476Y9211848D02*
X68642857Y9116610D01*
X68642857Y9116610D02*
X68595238Y9068991D01*
X68595238Y9068991D02*
X68500000Y9021372D01*
X68500000Y9021372D02*
X68119048Y9021372D01*
X69071429Y8830896D02*
X69547619Y8830896D01*
X68976191Y8545181D02*
X69309524Y9545181D01*
X69309524Y9545181D02*
X69642857Y8545181D01*
X69833334Y9545181D02*
X70404762Y9545181D01*
X70119048Y8545181D02*
X70119048Y9545181D01*
X70928572Y9545181D02*
X71119048Y9545181D01*
X71119048Y9545181D02*
X71214286Y9497562D01*
X71214286Y9497562D02*
X71309524Y9402324D01*
X71309524Y9402324D02*
X71357143Y9211848D01*
X71357143Y9211848D02*
X71357143Y8878515D01*
X71357143Y8878515D02*
X71309524Y8688039D01*
X71309524Y8688039D02*
X71214286Y8592800D01*
X71214286Y8592800D02*
X71119048Y8545181D01*
X71119048Y8545181D02*
X70928572Y8545181D01*
X70928572Y8545181D02*
X70833334Y8592800D01*
X70833334Y8592800D02*
X70738096Y8688039D01*
X70738096Y8688039D02*
X70690477Y8878515D01*
X70690477Y8878515D02*
X70690477Y9211848D01*
X70690477Y9211848D02*
X70738096Y9402324D01*
X70738096Y9402324D02*
X70833334Y9497562D01*
X70833334Y9497562D02*
X70928572Y9545181D01*
X72357143Y8545181D02*
X72023810Y9021372D01*
X71785715Y8545181D02*
X71785715Y9545181D01*
X71785715Y9545181D02*
X72166667Y9545181D01*
X72166667Y9545181D02*
X72261905Y9497562D01*
X72261905Y9497562D02*
X72309524Y9449943D01*
X72309524Y9449943D02*
X72357143Y9354705D01*
X72357143Y9354705D02*
X72357143Y9211848D01*
X72357143Y9211848D02*
X72309524Y9116610D01*
X72309524Y9116610D02*
X72261905Y9068991D01*
X72261905Y9068991D02*
X72166667Y9021372D01*
X72166667Y9021372D02*
X71785715Y9021372D01*
X40833331Y6211848D02*
X40833331Y5545181D01*
X40595236Y6592800D02*
X40357141Y5878515D01*
X40357141Y5878515D02*
X40976188Y5878515D01*
X42023808Y5545181D02*
X42547617Y6211848D01*
X42023808Y6211848D02*
X42547617Y5545181D01*
X44214284Y5545181D02*
X43642856Y5545181D01*
X43928570Y5545181D02*
X43928570Y6545181D01*
X43928570Y6545181D02*
X43833332Y6402324D01*
X43833332Y6402324D02*
X43738094Y6307086D01*
X43738094Y6307086D02*
X43642856Y6259467D01*
X45071427Y6545181D02*
X44880951Y6545181D01*
X44880951Y6545181D02*
X44785713Y6497562D01*
X44785713Y6497562D02*
X44738094Y6449943D01*
X44738094Y6449943D02*
X44642856Y6307086D01*
X44642856Y6307086D02*
X44595237Y6116610D01*
X44595237Y6116610D02*
X44595237Y5735658D01*
X44595237Y5735658D02*
X44642856Y5640420D01*
X44642856Y5640420D02*
X44690475Y5592800D01*
X44690475Y5592800D02*
X44785713Y5545181D01*
X44785713Y5545181D02*
X44976189Y5545181D01*
X44976189Y5545181D02*
X45071427Y5592800D01*
X45071427Y5592800D02*
X45119046Y5640420D01*
X45119046Y5640420D02*
X45166665Y5735658D01*
X45166665Y5735658D02*
X45166665Y5973753D01*
X45166665Y5973753D02*
X45119046Y6068991D01*
X45119046Y6068991D02*
X45071427Y6116610D01*
X45071427Y6116610D02*
X44976189Y6164229D01*
X44976189Y6164229D02*
X44785713Y6164229D01*
X44785713Y6164229D02*
X44690475Y6116610D01*
X44690475Y6116610D02*
X44642856Y6068991D01*
X44642856Y6068991D02*
X44595237Y5973753D01*
X46357142Y5545181D02*
X46357142Y6545181D01*
X46357142Y6164229D02*
X46452380Y6211848D01*
X46452380Y6211848D02*
X46642856Y6211848D01*
X46642856Y6211848D02*
X46738094Y6164229D01*
X46738094Y6164229D02*
X46785713Y6116610D01*
X46785713Y6116610D02*
X46833332Y6021372D01*
X46833332Y6021372D02*
X46833332Y5735658D01*
X46833332Y5735658D02*
X46785713Y5640420D01*
X46785713Y5640420D02*
X46738094Y5592800D01*
X46738094Y5592800D02*
X46642856Y5545181D01*
X46642856Y5545181D02*
X46452380Y5545181D01*
X46452380Y5545181D02*
X46357142Y5592800D01*
X47261904Y5545181D02*
X47261904Y6211848D01*
X47261904Y6545181D02*
X47214285Y6497562D01*
X47214285Y6497562D02*
X47261904Y6449943D01*
X47261904Y6449943D02*
X47309523Y6497562D01*
X47309523Y6497562D02*
X47261904Y6545181D01*
X47261904Y6545181D02*
X47261904Y6449943D01*
X47595237Y6211848D02*
X47976189Y6211848D01*
X47738094Y6545181D02*
X47738094Y5688039D01*
X47738094Y5688039D02*
X47785713Y5592800D01*
X47785713Y5592800D02*
X47880951Y5545181D01*
X47880951Y5545181D02*
X47976189Y5545181D01*
X48261904Y5592800D02*
X48357142Y5545181D01*
X48357142Y5545181D02*
X48547618Y5545181D01*
X48547618Y5545181D02*
X48642856Y5592800D01*
X48642856Y5592800D02*
X48690475Y5688039D01*
X48690475Y5688039D02*
X48690475Y5735658D01*
X48690475Y5735658D02*
X48642856Y5830896D01*
X48642856Y5830896D02*
X48547618Y5878515D01*
X48547618Y5878515D02*
X48404761Y5878515D01*
X48404761Y5878515D02*
X48309523Y5926134D01*
X48309523Y5926134D02*
X48261904Y6021372D01*
X48261904Y6021372D02*
X48261904Y6068991D01*
X48261904Y6068991D02*
X48309523Y6164229D01*
X48309523Y6164229D02*
X48404761Y6211848D01*
X48404761Y6211848D02*
X48547618Y6211848D01*
X48547618Y6211848D02*
X48642856Y6164229D01*
X50119047Y5211848D02*
X50119047Y6640420D01*
X51595238Y5545181D02*
X51595238Y6545181D01*
X51595238Y6545181D02*
X51928571Y5830896D01*
X51928571Y5830896D02*
X52261904Y6545181D01*
X52261904Y6545181D02*
X52261904Y5545181D01*
X52690476Y5592800D02*
X52833333Y5545181D01*
X52833333Y5545181D02*
X53071428Y5545181D01*
X53071428Y5545181D02*
X53166666Y5592800D01*
X53166666Y5592800D02*
X53214285Y5640420D01*
X53214285Y5640420D02*
X53261904Y5735658D01*
X53261904Y5735658D02*
X53261904Y5830896D01*
X53261904Y5830896D02*
X53214285Y5926134D01*
X53214285Y5926134D02*
X53166666Y5973753D01*
X53166666Y5973753D02*
X53071428Y6021372D01*
X53071428Y6021372D02*
X52880952Y6068991D01*
X52880952Y6068991D02*
X52785714Y6116610D01*
X52785714Y6116610D02*
X52738095Y6164229D01*
X52738095Y6164229D02*
X52690476Y6259467D01*
X52690476Y6259467D02*
X52690476Y6354705D01*
X52690476Y6354705D02*
X52738095Y6449943D01*
X52738095Y6449943D02*
X52785714Y6497562D01*
X52785714Y6497562D02*
X52880952Y6545181D01*
X52880952Y6545181D02*
X53119047Y6545181D01*
X53119047Y6545181D02*
X53261904Y6497562D01*
X54023809Y6068991D02*
X54166666Y6021372D01*
X54166666Y6021372D02*
X54214285Y5973753D01*
X54214285Y5973753D02*
X54261904Y5878515D01*
X54261904Y5878515D02*
X54261904Y5735658D01*
X54261904Y5735658D02*
X54214285Y5640420D01*
X54214285Y5640420D02*
X54166666Y5592800D01*
X54166666Y5592800D02*
X54071428Y5545181D01*
X54071428Y5545181D02*
X53690476Y5545181D01*
X53690476Y5545181D02*
X53690476Y6545181D01*
X53690476Y6545181D02*
X54023809Y6545181D01*
X54023809Y6545181D02*
X54119047Y6497562D01*
X54119047Y6497562D02*
X54166666Y6449943D01*
X54166666Y6449943D02*
X54214285Y6354705D01*
X54214285Y6354705D02*
X54214285Y6259467D01*
X54214285Y6259467D02*
X54166666Y6164229D01*
X54166666Y6164229D02*
X54119047Y6116610D01*
X54119047Y6116610D02*
X54023809Y6068991D01*
X54023809Y6068991D02*
X53690476Y6068991D01*
X55928571Y5545181D02*
X55452381Y5545181D01*
X55452381Y5545181D02*
X55452381Y6545181D01*
X56261905Y6068991D02*
X56595238Y6068991D01*
X56738095Y5545181D02*
X56261905Y5545181D01*
X56261905Y5545181D02*
X56261905Y6545181D01*
X56261905Y6545181D02*
X56738095Y6545181D01*
X57500000Y6068991D02*
X57166667Y6068991D01*
X57166667Y5545181D02*
X57166667Y6545181D01*
X57166667Y6545181D02*
X57642857Y6545181D01*
X57880953Y6545181D02*
X58452381Y6545181D01*
X58166667Y5545181D02*
X58166667Y6545181D01*
X59785715Y5211848D02*
X59785715Y6640420D01*
X61785715Y5545181D02*
X61214287Y5545181D01*
X61500001Y5545181D02*
X61500001Y6545181D01*
X61500001Y6545181D02*
X61404763Y6402324D01*
X61404763Y6402324D02*
X61309525Y6307086D01*
X61309525Y6307086D02*
X61214287Y6259467D01*
X62928572Y6592800D02*
X62071430Y5307086D01*
X63690477Y6545181D02*
X63500001Y6545181D01*
X63500001Y6545181D02*
X63404763Y6497562D01*
X63404763Y6497562D02*
X63357144Y6449943D01*
X63357144Y6449943D02*
X63261906Y6307086D01*
X63261906Y6307086D02*
X63214287Y6116610D01*
X63214287Y6116610D02*
X63214287Y5735658D01*
X63214287Y5735658D02*
X63261906Y5640420D01*
X63261906Y5640420D02*
X63309525Y5592800D01*
X63309525Y5592800D02*
X63404763Y5545181D01*
X63404763Y5545181D02*
X63595239Y5545181D01*
X63595239Y5545181D02*
X63690477Y5592800D01*
X63690477Y5592800D02*
X63738096Y5640420D01*
X63738096Y5640420D02*
X63785715Y5735658D01*
X63785715Y5735658D02*
X63785715Y5973753D01*
X63785715Y5973753D02*
X63738096Y6068991D01*
X63738096Y6068991D02*
X63690477Y6116610D01*
X63690477Y6116610D02*
X63595239Y6164229D01*
X63595239Y6164229D02*
X63404763Y6164229D01*
X63404763Y6164229D02*
X63309525Y6116610D01*
X63309525Y6116610D02*
X63261906Y6068991D01*
X63261906Y6068991D02*
X63214287Y5973753D01*
X64690477Y6545181D02*
X64214287Y6545181D01*
X64214287Y6545181D02*
X64166668Y6068991D01*
X64166668Y6068991D02*
X64214287Y6116610D01*
X64214287Y6116610D02*
X64309525Y6164229D01*
X64309525Y6164229D02*
X64547620Y6164229D01*
X64547620Y6164229D02*
X64642858Y6116610D01*
X64642858Y6116610D02*
X64690477Y6068991D01*
X64690477Y6068991D02*
X64738096Y5973753D01*
X64738096Y5973753D02*
X64738096Y5735658D01*
X64738096Y5735658D02*
X64690477Y5640420D01*
X64690477Y5640420D02*
X64642858Y5592800D01*
X64642858Y5592800D02*
X64547620Y5545181D01*
X64547620Y5545181D02*
X64309525Y5545181D01*
X64309525Y5545181D02*
X64214287Y5592800D01*
X64214287Y5592800D02*
X64166668Y5640420D01*
X65642858Y6545181D02*
X65166668Y6545181D01*
X65166668Y6545181D02*
X65119049Y6068991D01*
X65119049Y6068991D02*
X65166668Y6116610D01*
X65166668Y6116610D02*
X65261906Y6164229D01*
X65261906Y6164229D02*
X65500001Y6164229D01*
X65500001Y6164229D02*
X65595239Y6116610D01*
X65595239Y6116610D02*
X65642858Y6068991D01*
X65642858Y6068991D02*
X65690477Y5973753D01*
X65690477Y5973753D02*
X65690477Y5735658D01*
X65690477Y5735658D02*
X65642858Y5640420D01*
X65642858Y5640420D02*
X65595239Y5592800D01*
X65595239Y5592800D02*
X65500001Y5545181D01*
X65500001Y5545181D02*
X65261906Y5545181D01*
X65261906Y5545181D02*
X65166668Y5592800D01*
X65166668Y5592800D02*
X65119049Y5640420D01*
X66023811Y6545181D02*
X66642858Y6545181D01*
X66642858Y6545181D02*
X66309525Y6164229D01*
X66309525Y6164229D02*
X66452382Y6164229D01*
X66452382Y6164229D02*
X66547620Y6116610D01*
X66547620Y6116610D02*
X66595239Y6068991D01*
X66595239Y6068991D02*
X66642858Y5973753D01*
X66642858Y5973753D02*
X66642858Y5735658D01*
X66642858Y5735658D02*
X66595239Y5640420D01*
X66595239Y5640420D02*
X66547620Y5592800D01*
X66547620Y5592800D02*
X66452382Y5545181D01*
X66452382Y5545181D02*
X66166668Y5545181D01*
X66166668Y5545181D02*
X66071430Y5592800D01*
X66071430Y5592800D02*
X66023811Y5640420D01*
X67500001Y6545181D02*
X67309525Y6545181D01*
X67309525Y6545181D02*
X67214287Y6497562D01*
X67214287Y6497562D02*
X67166668Y6449943D01*
X67166668Y6449943D02*
X67071430Y6307086D01*
X67071430Y6307086D02*
X67023811Y6116610D01*
X67023811Y6116610D02*
X67023811Y5735658D01*
X67023811Y5735658D02*
X67071430Y5640420D01*
X67071430Y5640420D02*
X67119049Y5592800D01*
X67119049Y5592800D02*
X67214287Y5545181D01*
X67214287Y5545181D02*
X67404763Y5545181D01*
X67404763Y5545181D02*
X67500001Y5592800D01*
X67500001Y5592800D02*
X67547620Y5640420D01*
X67547620Y5640420D02*
X67595239Y5735658D01*
X67595239Y5735658D02*
X67595239Y5973753D01*
X67595239Y5973753D02*
X67547620Y6068991D01*
X67547620Y6068991D02*
X67500001Y6116610D01*
X67500001Y6116610D02*
X67404763Y6164229D01*
X67404763Y6164229D02*
X67214287Y6164229D01*
X67214287Y6164229D02*
X67119049Y6116610D01*
X67119049Y6116610D02*
X67071430Y6068991D01*
X67071430Y6068991D02*
X67023811Y5973753D01*
X68738097Y5592800D02*
X68833335Y5545181D01*
X68833335Y5545181D02*
X69023811Y5545181D01*
X69023811Y5545181D02*
X69119049Y5592800D01*
X69119049Y5592800D02*
X69166668Y5688039D01*
X69166668Y5688039D02*
X69166668Y5735658D01*
X69166668Y5735658D02*
X69119049Y5830896D01*
X69119049Y5830896D02*
X69023811Y5878515D01*
X69023811Y5878515D02*
X68880954Y5878515D01*
X68880954Y5878515D02*
X68785716Y5926134D01*
X68785716Y5926134D02*
X68738097Y6021372D01*
X68738097Y6021372D02*
X68738097Y6068991D01*
X68738097Y6068991D02*
X68785716Y6164229D01*
X68785716Y6164229D02*
X68880954Y6211848D01*
X68880954Y6211848D02*
X69023811Y6211848D01*
X69023811Y6211848D02*
X69119049Y6164229D01*
X70357145Y6068991D02*
X71119050Y6068991D01*
X71119050Y5783277D02*
X70357145Y5783277D01*
X72880954Y5545181D02*
X72309526Y5545181D01*
X72595240Y5545181D02*
X72595240Y6545181D01*
X72595240Y6545181D02*
X72500002Y6402324D01*
X72500002Y6402324D02*
X72404764Y6307086D01*
X72404764Y6307086D02*
X72309526Y6259467D01*
X73785716Y6545181D02*
X73309526Y6545181D01*
X73309526Y6545181D02*
X73261907Y6068991D01*
X73261907Y6068991D02*
X73309526Y6116610D01*
X73309526Y6116610D02*
X73404764Y6164229D01*
X73404764Y6164229D02*
X73642859Y6164229D01*
X73642859Y6164229D02*
X73738097Y6116610D01*
X73738097Y6116610D02*
X73785716Y6068991D01*
X73785716Y6068991D02*
X73833335Y5973753D01*
X73833335Y5973753D02*
X73833335Y5735658D01*
X73833335Y5735658D02*
X73785716Y5640420D01*
X73785716Y5640420D02*
X73738097Y5592800D01*
X73738097Y5592800D02*
X73642859Y5545181D01*
X73642859Y5545181D02*
X73404764Y5545181D01*
X73404764Y5545181D02*
X73309526Y5592800D01*
X73309526Y5592800D02*
X73261907Y5640420D01*
X74261907Y5640420D02*
X74309526Y5592800D01*
X74309526Y5592800D02*
X74261907Y5545181D01*
X74261907Y5545181D02*
X74214288Y5592800D01*
X74214288Y5592800D02*
X74261907Y5640420D01*
X74261907Y5640420D02*
X74261907Y5545181D01*
X74690478Y6449943D02*
X74738097Y6497562D01*
X74738097Y6497562D02*
X74833335Y6545181D01*
X74833335Y6545181D02*
X75071430Y6545181D01*
X75071430Y6545181D02*
X75166668Y6497562D01*
X75166668Y6497562D02*
X75214287Y6449943D01*
X75214287Y6449943D02*
X75261906Y6354705D01*
X75261906Y6354705D02*
X75261906Y6259467D01*
X75261906Y6259467D02*
X75214287Y6116610D01*
X75214287Y6116610D02*
X74642859Y5545181D01*
X74642859Y5545181D02*
X75261906Y5545181D01*
X76166668Y6545181D02*
X75690478Y6545181D01*
X75690478Y6545181D02*
X75642859Y6068991D01*
X75642859Y6068991D02*
X75690478Y6116610D01*
X75690478Y6116610D02*
X75785716Y6164229D01*
X75785716Y6164229D02*
X76023811Y6164229D01*
X76023811Y6164229D02*
X76119049Y6116610D01*
X76119049Y6116610D02*
X76166668Y6068991D01*
X76166668Y6068991D02*
X76214287Y5973753D01*
X76214287Y5973753D02*
X76214287Y5735658D01*
X76214287Y5735658D02*
X76166668Y5640420D01*
X76166668Y5640420D02*
X76119049Y5592800D01*
X76119049Y5592800D02*
X76023811Y5545181D01*
X76023811Y5545181D02*
X75785716Y5545181D01*
X75785716Y5545181D02*
X75690478Y5592800D01*
X75690478Y5592800D02*
X75642859Y5640420D01*
X76690478Y5545181D02*
X76880954Y5545181D01*
X76880954Y5545181D02*
X76976192Y5592800D01*
X76976192Y5592800D02*
X77023811Y5640420D01*
X77023811Y5640420D02*
X77119049Y5783277D01*
X77119049Y5783277D02*
X77166668Y5973753D01*
X77166668Y5973753D02*
X77166668Y6354705D01*
X77166668Y6354705D02*
X77119049Y6449943D01*
X77119049Y6449943D02*
X77071430Y6497562D01*
X77071430Y6497562D02*
X76976192Y6545181D01*
X76976192Y6545181D02*
X76785716Y6545181D01*
X76785716Y6545181D02*
X76690478Y6497562D01*
X76690478Y6497562D02*
X76642859Y6449943D01*
X76642859Y6449943D02*
X76595240Y6354705D01*
X76595240Y6354705D02*
X76595240Y6116610D01*
X76595240Y6116610D02*
X76642859Y6021372D01*
X76642859Y6021372D02*
X76690478Y5973753D01*
X76690478Y5973753D02*
X76785716Y5926134D01*
X76785716Y5926134D02*
X76976192Y5926134D01*
X76976192Y5926134D02*
X77071430Y5973753D01*
X77071430Y5973753D02*
X77119049Y6021372D01*
X77119049Y6021372D02*
X77166668Y6116610D01*
X78785716Y6211848D02*
X78785716Y5545181D01*
X78357145Y6211848D02*
X78357145Y5688039D01*
X78357145Y5688039D02*
X78404764Y5592800D01*
X78404764Y5592800D02*
X78500002Y5545181D01*
X78500002Y5545181D02*
X78642859Y5545181D01*
X78642859Y5545181D02*
X78738097Y5592800D01*
X78738097Y5592800D02*
X78785716Y5640420D01*
X79214288Y5592800D02*
X79309526Y5545181D01*
X79309526Y5545181D02*
X79500002Y5545181D01*
X79500002Y5545181D02*
X79595240Y5592800D01*
X79595240Y5592800D02*
X79642859Y5688039D01*
X79642859Y5688039D02*
X79642859Y5735658D01*
X79642859Y5735658D02*
X79595240Y5830896D01*
X79595240Y5830896D02*
X79500002Y5878515D01*
X79500002Y5878515D02*
X79357145Y5878515D01*
X79357145Y5878515D02*
X79261907Y5926134D01*
X79261907Y5926134D02*
X79214288Y6021372D01*
X79214288Y6021372D02*
X79214288Y6068991D01*
X79214288Y6068991D02*
X79261907Y6164229D01*
X79261907Y6164229D02*
X79357145Y6211848D01*
X79357145Y6211848D02*
X79500002Y6211848D01*
X79500002Y6211848D02*
X79595240Y6164229D01*
X66190476Y67545181D02*
X66000000Y67545181D01*
X66000000Y67545181D02*
X65904762Y67497562D01*
X65904762Y67497562D02*
X65857143Y67449943D01*
X65857143Y67449943D02*
X65761905Y67307086D01*
X65761905Y67307086D02*
X65714286Y67116610D01*
X65714286Y67116610D02*
X65714286Y66735658D01*
X65714286Y66735658D02*
X65761905Y66640420D01*
X65761905Y66640420D02*
X65809524Y66592800D01*
X65809524Y66592800D02*
X65904762Y66545181D01*
X65904762Y66545181D02*
X66095238Y66545181D01*
X66095238Y66545181D02*
X66190476Y66592800D01*
X66190476Y66592800D02*
X66238095Y66640420D01*
X66238095Y66640420D02*
X66285714Y66735658D01*
X66285714Y66735658D02*
X66285714Y66973753D01*
X66285714Y66973753D02*
X66238095Y67068991D01*
X66238095Y67068991D02*
X66190476Y67116610D01*
X66190476Y67116610D02*
X66095238Y67164229D01*
X66095238Y67164229D02*
X65904762Y67164229D01*
X65904762Y67164229D02*
X65809524Y67116610D01*
X65809524Y67116610D02*
X65761905Y67068991D01*
X65761905Y67068991D02*
X65714286Y66973753D01*
X72238095Y67545181D02*
X71761905Y67545181D01*
X71761905Y67545181D02*
X71714286Y67068991D01*
X71714286Y67068991D02*
X71761905Y67116610D01*
X71761905Y67116610D02*
X71857143Y67164229D01*
X71857143Y67164229D02*
X72095238Y67164229D01*
X72095238Y67164229D02*
X72190476Y67116610D01*
X72190476Y67116610D02*
X72238095Y67068991D01*
X72238095Y67068991D02*
X72285714Y66973753D01*
X72285714Y66973753D02*
X72285714Y66735658D01*
X72285714Y66735658D02*
X72238095Y66640420D01*
X72238095Y66640420D02*
X72190476Y66592800D01*
X72190476Y66592800D02*
X72095238Y66545181D01*
X72095238Y66545181D02*
X71857143Y66545181D01*
X71857143Y66545181D02*
X71761905Y66592800D01*
X71761905Y66592800D02*
X71714286Y66640420D01*
X78190476Y67211848D02*
X78190476Y66545181D01*
X77952381Y67592800D02*
X77714286Y66878515D01*
X77714286Y66878515D02*
X78333333Y66878515D01*
X83666667Y67545181D02*
X84285714Y67545181D01*
X84285714Y67545181D02*
X83952381Y67164229D01*
X83952381Y67164229D02*
X84095238Y67164229D01*
X84095238Y67164229D02*
X84190476Y67116610D01*
X84190476Y67116610D02*
X84238095Y67068991D01*
X84238095Y67068991D02*
X84285714Y66973753D01*
X84285714Y66973753D02*
X84285714Y66735658D01*
X84285714Y66735658D02*
X84238095Y66640420D01*
X84238095Y66640420D02*
X84190476Y66592800D01*
X84190476Y66592800D02*
X84095238Y66545181D01*
X84095238Y66545181D02*
X83809524Y66545181D01*
X83809524Y66545181D02*
X83714286Y66592800D01*
X83714286Y66592800D02*
X83666667Y66640420D01*
X89714286Y67449943D02*
X89761905Y67497562D01*
X89761905Y67497562D02*
X89857143Y67545181D01*
X89857143Y67545181D02*
X90095238Y67545181D01*
X90095238Y67545181D02*
X90190476Y67497562D01*
X90190476Y67497562D02*
X90238095Y67449943D01*
X90238095Y67449943D02*
X90285714Y67354705D01*
X90285714Y67354705D02*
X90285714Y67259467D01*
X90285714Y67259467D02*
X90238095Y67116610D01*
X90238095Y67116610D02*
X89666667Y66545181D01*
X89666667Y66545181D02*
X90285714Y66545181D01*
X96285714Y66545181D02*
X95714286Y66545181D01*
X96000000Y66545181D02*
X96000000Y67545181D01*
X96000000Y67545181D02*
X95904762Y67402324D01*
X95904762Y67402324D02*
X95809524Y67307086D01*
X95809524Y67307086D02*
X95714286Y67259467D01*
X101952381Y67545181D02*
X102047619Y67545181D01*
X102047619Y67545181D02*
X102142857Y67497562D01*
X102142857Y67497562D02*
X102190476Y67449943D01*
X102190476Y67449943D02*
X102238095Y67354705D01*
X102238095Y67354705D02*
X102285714Y67164229D01*
X102285714Y67164229D02*
X102285714Y66926134D01*
X102285714Y66926134D02*
X102238095Y66735658D01*
X102238095Y66735658D02*
X102190476Y66640420D01*
X102190476Y66640420D02*
X102142857Y66592800D01*
X102142857Y66592800D02*
X102047619Y66545181D01*
X102047619Y66545181D02*
X101952381Y66545181D01*
X101952381Y66545181D02*
X101857143Y66592800D01*
X101857143Y66592800D02*
X101809524Y66640420D01*
X101809524Y66640420D02*
X101761905Y66735658D01*
X101761905Y66735658D02*
X101714286Y66926134D01*
X101714286Y66926134D02*
X101714286Y67164229D01*
X101714286Y67164229D02*
X101761905Y67354705D01*
X101761905Y67354705D02*
X101809524Y67449943D01*
X101809524Y67449943D02*
X101857143Y67497562D01*
X101857143Y67497562D02*
X101952381Y67545181D01*
X131023809Y57545181D02*
X131023809Y58545181D01*
X131023809Y58545181D02*
X131357142Y57830896D01*
X131357142Y57830896D02*
X131690475Y58545181D01*
X131690475Y58545181D02*
X131690475Y57545181D01*
X132357142Y58545181D02*
X132547618Y58545181D01*
X132547618Y58545181D02*
X132642856Y58497562D01*
X132642856Y58497562D02*
X132738094Y58402324D01*
X132738094Y58402324D02*
X132785713Y58211848D01*
X132785713Y58211848D02*
X132785713Y57878515D01*
X132785713Y57878515D02*
X132738094Y57688039D01*
X132738094Y57688039D02*
X132642856Y57592800D01*
X132642856Y57592800D02*
X132547618Y57545181D01*
X132547618Y57545181D02*
X132357142Y57545181D01*
X132357142Y57545181D02*
X132261904Y57592800D01*
X132261904Y57592800D02*
X132166666Y57688039D01*
X132166666Y57688039D02*
X132119047Y57878515D01*
X132119047Y57878515D02*
X132119047Y58211848D01*
X132119047Y58211848D02*
X132166666Y58402324D01*
X132166666Y58402324D02*
X132261904Y58497562D01*
X132261904Y58497562D02*
X132357142Y58545181D01*
X133214285Y57545181D02*
X133214285Y58545181D01*
X133214285Y58545181D02*
X133452380Y58545181D01*
X133452380Y58545181D02*
X133595237Y58497562D01*
X133595237Y58497562D02*
X133690475Y58402324D01*
X133690475Y58402324D02*
X133738094Y58307086D01*
X133738094Y58307086D02*
X133785713Y58116610D01*
X133785713Y58116610D02*
X133785713Y57973753D01*
X133785713Y57973753D02*
X133738094Y57783277D01*
X133738094Y57783277D02*
X133690475Y57688039D01*
X133690475Y57688039D02*
X133595237Y57592800D01*
X133595237Y57592800D02*
X133452380Y57545181D01*
X133452380Y57545181D02*
X133214285Y57545181D01*
X134214285Y58545181D02*
X134214285Y57735658D01*
X134214285Y57735658D02*
X134261904Y57640420D01*
X134261904Y57640420D02*
X134309523Y57592800D01*
X134309523Y57592800D02*
X134404761Y57545181D01*
X134404761Y57545181D02*
X134595237Y57545181D01*
X134595237Y57545181D02*
X134690475Y57592800D01*
X134690475Y57592800D02*
X134738094Y57640420D01*
X134738094Y57640420D02*
X134785713Y57735658D01*
X134785713Y57735658D02*
X134785713Y58545181D01*
X135738094Y57545181D02*
X135261904Y57545181D01*
X135261904Y57545181D02*
X135261904Y58545181D01*
X136071428Y58068991D02*
X136404761Y58068991D01*
X136547618Y57545181D02*
X136071428Y57545181D01*
X136071428Y57545181D02*
X136071428Y58545181D01*
X136071428Y58545181D02*
X136547618Y58545181D01*
X137642857Y58211848D02*
X137880952Y57545181D01*
X137880952Y57545181D02*
X138119047Y58211848D01*
X139023809Y57545181D02*
X138452381Y57545181D01*
X138738095Y57545181D02*
X138738095Y58545181D01*
X138738095Y58545181D02*
X138642857Y58402324D01*
X138642857Y58402324D02*
X138547619Y58307086D01*
X138547619Y58307086D02*
X138452381Y58259467D01*
X172071429Y66745181D02*
X172071429Y67745181D01*
X172547619Y66745181D02*
X172547619Y67745181D01*
X172547619Y67745181D02*
X173119047Y66745181D01*
X173119047Y66745181D02*
X173119047Y67745181D01*
X173595238Y66745181D02*
X173595238Y67745181D01*
X173595238Y67745181D02*
X173976190Y67745181D01*
X173976190Y67745181D02*
X174071428Y67697562D01*
X174071428Y67697562D02*
X174119047Y67649943D01*
X174119047Y67649943D02*
X174166666Y67554705D01*
X174166666Y67554705D02*
X174166666Y67411848D01*
X174166666Y67411848D02*
X174119047Y67316610D01*
X174119047Y67316610D02*
X174071428Y67268991D01*
X174071428Y67268991D02*
X173976190Y67221372D01*
X173976190Y67221372D02*
X173595238Y67221372D01*
X174595238Y67745181D02*
X174595238Y66935658D01*
X174595238Y66935658D02*
X174642857Y66840420D01*
X174642857Y66840420D02*
X174690476Y66792800D01*
X174690476Y66792800D02*
X174785714Y66745181D01*
X174785714Y66745181D02*
X174976190Y66745181D01*
X174976190Y66745181D02*
X175071428Y66792800D01*
X175071428Y66792800D02*
X175119047Y66840420D01*
X175119047Y66840420D02*
X175166666Y66935658D01*
X175166666Y66935658D02*
X175166666Y67745181D01*
X175500000Y67745181D02*
X176071428Y67745181D01*
X175785714Y66745181D02*
X175785714Y67745181D01*
X171595238Y47545181D02*
X171785714Y47545181D01*
X171785714Y47545181D02*
X171880952Y47497562D01*
X171880952Y47497562D02*
X171976190Y47402324D01*
X171976190Y47402324D02*
X172023809Y47211848D01*
X172023809Y47211848D02*
X172023809Y46878515D01*
X172023809Y46878515D02*
X171976190Y46688039D01*
X171976190Y46688039D02*
X171880952Y46592800D01*
X171880952Y46592800D02*
X171785714Y46545181D01*
X171785714Y46545181D02*
X171595238Y46545181D01*
X171595238Y46545181D02*
X171500000Y46592800D01*
X171500000Y46592800D02*
X171404762Y46688039D01*
X171404762Y46688039D02*
X171357143Y46878515D01*
X171357143Y46878515D02*
X171357143Y47211848D01*
X171357143Y47211848D02*
X171404762Y47402324D01*
X171404762Y47402324D02*
X171500000Y47497562D01*
X171500000Y47497562D02*
X171595238Y47545181D01*
X172452381Y47545181D02*
X172452381Y46735658D01*
X172452381Y46735658D02*
X172500000Y46640420D01*
X172500000Y46640420D02*
X172547619Y46592800D01*
X172547619Y46592800D02*
X172642857Y46545181D01*
X172642857Y46545181D02*
X172833333Y46545181D01*
X172833333Y46545181D02*
X172928571Y46592800D01*
X172928571Y46592800D02*
X172976190Y46640420D01*
X172976190Y46640420D02*
X173023809Y46735658D01*
X173023809Y46735658D02*
X173023809Y47545181D01*
X173357143Y47545181D02*
X173928571Y47545181D01*
X173642857Y46545181D02*
X173642857Y47545181D01*
X174261905Y46545181D02*
X174261905Y47545181D01*
X174261905Y47545181D02*
X174642857Y47545181D01*
X174642857Y47545181D02*
X174738095Y47497562D01*
X174738095Y47497562D02*
X174785714Y47449943D01*
X174785714Y47449943D02*
X174833333Y47354705D01*
X174833333Y47354705D02*
X174833333Y47211848D01*
X174833333Y47211848D02*
X174785714Y47116610D01*
X174785714Y47116610D02*
X174738095Y47068991D01*
X174738095Y47068991D02*
X174642857Y47021372D01*
X174642857Y47021372D02*
X174261905Y47021372D01*
X175261905Y47545181D02*
X175261905Y46735658D01*
X175261905Y46735658D02*
X175309524Y46640420D01*
X175309524Y46640420D02*
X175357143Y46592800D01*
X175357143Y46592800D02*
X175452381Y46545181D01*
X175452381Y46545181D02*
X175642857Y46545181D01*
X175642857Y46545181D02*
X175738095Y46592800D01*
X175738095Y46592800D02*
X175785714Y46640420D01*
X175785714Y46640420D02*
X175833333Y46735658D01*
X175833333Y46735658D02*
X175833333Y47545181D01*
X176166667Y47545181D02*
X176738095Y47545181D01*
X176452381Y46545181D02*
X176452381Y47545181D01*
X173571428Y12497562D02*
X173476190Y12545181D01*
X173476190Y12545181D02*
X173333333Y12545181D01*
X173333333Y12545181D02*
X173190476Y12497562D01*
X173190476Y12497562D02*
X173095238Y12402324D01*
X173095238Y12402324D02*
X173047619Y12307086D01*
X173047619Y12307086D02*
X173000000Y12116610D01*
X173000000Y12116610D02*
X173000000Y11973753D01*
X173000000Y11973753D02*
X173047619Y11783277D01*
X173047619Y11783277D02*
X173095238Y11688039D01*
X173095238Y11688039D02*
X173190476Y11592800D01*
X173190476Y11592800D02*
X173333333Y11545181D01*
X173333333Y11545181D02*
X173428571Y11545181D01*
X173428571Y11545181D02*
X173571428Y11592800D01*
X173571428Y11592800D02*
X173619047Y11640420D01*
X173619047Y11640420D02*
X173619047Y11973753D01*
X173619047Y11973753D02*
X173428571Y11973753D01*
X174047619Y11545181D02*
X174047619Y12545181D01*
X174047619Y12545181D02*
X174428571Y12545181D01*
X174428571Y12545181D02*
X174523809Y12497562D01*
X174523809Y12497562D02*
X174571428Y12449943D01*
X174571428Y12449943D02*
X174619047Y12354705D01*
X174619047Y12354705D02*
X174619047Y12211848D01*
X174619047Y12211848D02*
X174571428Y12116610D01*
X174571428Y12116610D02*
X174523809Y12068991D01*
X174523809Y12068991D02*
X174428571Y12021372D01*
X174428571Y12021372D02*
X174047619Y12021372D01*
X175000000Y11592800D02*
X175142857Y11545181D01*
X175142857Y11545181D02*
X175380952Y11545181D01*
X175380952Y11545181D02*
X175476190Y11592800D01*
X175476190Y11592800D02*
X175523809Y11640420D01*
X175523809Y11640420D02*
X175571428Y11735658D01*
X175571428Y11735658D02*
X175571428Y11830896D01*
X175571428Y11830896D02*
X175523809Y11926134D01*
X175523809Y11926134D02*
X175476190Y11973753D01*
X175476190Y11973753D02*
X175380952Y12021372D01*
X175380952Y12021372D02*
X175190476Y12068991D01*
X175190476Y12068991D02*
X175095238Y12116610D01*
X175095238Y12116610D02*
X175047619Y12164229D01*
X175047619Y12164229D02*
X175000000Y12259467D01*
X175000000Y12259467D02*
X175000000Y12354705D01*
X175000000Y12354705D02*
X175047619Y12449943D01*
X175047619Y12449943D02*
X175095238Y12497562D01*
X175095238Y12497562D02*
X175190476Y12545181D01*
X175190476Y12545181D02*
X175428571Y12545181D01*
X175428571Y12545181D02*
X175571428Y12497562D01*
X176714286Y11830896D02*
X177190476Y11830896D01*
X176619048Y11545181D02*
X176952381Y12545181D01*
X176952381Y12545181D02*
X177285714Y11545181D01*
X177619048Y11545181D02*
X177619048Y12545181D01*
X177619048Y12545181D02*
X178190476Y11545181D01*
X178190476Y11545181D02*
X178190476Y12545181D01*
X178523810Y12545181D02*
X179095238Y12545181D01*
X178809524Y11545181D02*
X178809524Y12545181D01*
X157238095Y30045181D02*
X157238095Y29235658D01*
X157238095Y29235658D02*
X157285714Y29140420D01*
X157285714Y29140420D02*
X157333333Y29092800D01*
X157333333Y29092800D02*
X157428571Y29045181D01*
X157428571Y29045181D02*
X157619047Y29045181D01*
X157619047Y29045181D02*
X157714285Y29092800D01*
X157714285Y29092800D02*
X157761904Y29140420D01*
X157761904Y29140420D02*
X157809523Y29235658D01*
X157809523Y29235658D02*
X157809523Y30045181D01*
X158761904Y30045181D02*
X158285714Y30045181D01*
X158285714Y30045181D02*
X158238095Y29568991D01*
X158238095Y29568991D02*
X158285714Y29616610D01*
X158285714Y29616610D02*
X158380952Y29664229D01*
X158380952Y29664229D02*
X158619047Y29664229D01*
X158619047Y29664229D02*
X158714285Y29616610D01*
X158714285Y29616610D02*
X158761904Y29568991D01*
X158761904Y29568991D02*
X158809523Y29473753D01*
X158809523Y29473753D02*
X158809523Y29235658D01*
X158809523Y29235658D02*
X158761904Y29140420D01*
X158761904Y29140420D02*
X158714285Y29092800D01*
X158714285Y29092800D02*
X158619047Y29045181D01*
X158619047Y29045181D02*
X158380952Y29045181D01*
X158380952Y29045181D02*
X158285714Y29092800D01*
X158285714Y29092800D02*
X158238095Y29140420D01*
D10*
X167890476Y76636145D02*
X167890476Y75988526D01*
X167890476Y75988526D02*
X167928571Y75912336D01*
X167928571Y75912336D02*
X167966666Y75874240D01*
X167966666Y75874240D02*
X168042857Y75836145D01*
X168042857Y75836145D02*
X168195238Y75836145D01*
X168195238Y75836145D02*
X168271428Y75874240D01*
X168271428Y75874240D02*
X168309523Y75912336D01*
X168309523Y75912336D02*
X168347619Y75988526D01*
X168347619Y75988526D02*
X168347619Y76636145D01*
X169147618Y75836145D02*
X168690475Y75836145D01*
X168919047Y75836145D02*
X168919047Y76636145D01*
X168919047Y76636145D02*
X168842856Y76521860D01*
X168842856Y76521860D02*
X168766666Y76445669D01*
X168766666Y76445669D02*
X168690475Y76407574D01*
X162890476Y17736145D02*
X162890476Y17088526D01*
X162890476Y17088526D02*
X162928571Y17012336D01*
X162928571Y17012336D02*
X162966666Y16974240D01*
X162966666Y16974240D02*
X163042857Y16936145D01*
X163042857Y16936145D02*
X163195238Y16936145D01*
X163195238Y16936145D02*
X163271428Y16974240D01*
X163271428Y16974240D02*
X163309523Y17012336D01*
X163309523Y17012336D02*
X163347619Y17088526D01*
X163347619Y17088526D02*
X163347619Y17736145D01*
X164071428Y17736145D02*
X163919047Y17736145D01*
X163919047Y17736145D02*
X163842856Y17698050D01*
X163842856Y17698050D02*
X163804761Y17659955D01*
X163804761Y17659955D02*
X163728571Y17545669D01*
X163728571Y17545669D02*
X163690475Y17393288D01*
X163690475Y17393288D02*
X163690475Y17088526D01*
X163690475Y17088526D02*
X163728571Y17012336D01*
X163728571Y17012336D02*
X163766666Y16974240D01*
X163766666Y16974240D02*
X163842856Y16936145D01*
X163842856Y16936145D02*
X163995237Y16936145D01*
X163995237Y16936145D02*
X164071428Y16974240D01*
X164071428Y16974240D02*
X164109523Y17012336D01*
X164109523Y17012336D02*
X164147618Y17088526D01*
X164147618Y17088526D02*
X164147618Y17279002D01*
X164147618Y17279002D02*
X164109523Y17355193D01*
X164109523Y17355193D02*
X164071428Y17393288D01*
X164071428Y17393288D02*
X163995237Y17431383D01*
X163995237Y17431383D02*
X163842856Y17431383D01*
X163842856Y17431383D02*
X163766666Y17393288D01*
X163766666Y17393288D02*
X163728571Y17355193D01*
X163728571Y17355193D02*
X163690475Y17279002D01*
D11*
X36238095Y80545181D02*
X36238095Y79735658D01*
X36238095Y79735658D02*
X36285714Y79640420D01*
X36285714Y79640420D02*
X36333333Y79592800D01*
X36333333Y79592800D02*
X36428571Y79545181D01*
X36428571Y79545181D02*
X36619047Y79545181D01*
X36619047Y79545181D02*
X36714285Y79592800D01*
X36714285Y79592800D02*
X36761904Y79640420D01*
X36761904Y79640420D02*
X36809523Y79735658D01*
X36809523Y79735658D02*
X36809523Y80545181D01*
X37190476Y80545181D02*
X37809523Y80545181D01*
X37809523Y80545181D02*
X37476190Y80164229D01*
X37476190Y80164229D02*
X37619047Y80164229D01*
X37619047Y80164229D02*
X37714285Y80116610D01*
X37714285Y80116610D02*
X37761904Y80068991D01*
X37761904Y80068991D02*
X37809523Y79973753D01*
X37809523Y79973753D02*
X37809523Y79735658D01*
X37809523Y79735658D02*
X37761904Y79640420D01*
X37761904Y79640420D02*
X37714285Y79592800D01*
X37714285Y79592800D02*
X37619047Y79545181D01*
X37619047Y79545181D02*
X37333333Y79545181D01*
X37333333Y79545181D02*
X37238095Y79592800D01*
X37238095Y79592800D02*
X37190476Y79640420D01*
X176454819Y69666667D02*
X177169104Y69666667D01*
X177169104Y69666667D02*
X177311961Y69619048D01*
X177311961Y69619048D02*
X177407200Y69523810D01*
X177407200Y69523810D02*
X177454819Y69380953D01*
X177454819Y69380953D02*
X177454819Y69285715D01*
X176454819Y70047620D02*
X176454819Y70666667D01*
X176454819Y70666667D02*
X176835771Y70333334D01*
X176835771Y70333334D02*
X176835771Y70476191D01*
X176835771Y70476191D02*
X176883390Y70571429D01*
X176883390Y70571429D02*
X176931009Y70619048D01*
X176931009Y70619048D02*
X177026247Y70666667D01*
X177026247Y70666667D02*
X177264342Y70666667D01*
X177264342Y70666667D02*
X177359580Y70619048D01*
X177359580Y70619048D02*
X177407200Y70571429D01*
X177407200Y70571429D02*
X177454819Y70476191D01*
X177454819Y70476191D02*
X177454819Y70190477D01*
X177454819Y70190477D02*
X177407200Y70095239D01*
X177407200Y70095239D02*
X177359580Y70047620D01*
D10*
X170563855Y24733334D02*
X171135283Y24733334D01*
X171135283Y24733334D02*
X171249569Y24695239D01*
X171249569Y24695239D02*
X171325760Y24619048D01*
X171325760Y24619048D02*
X171363855Y24504763D01*
X171363855Y24504763D02*
X171363855Y24428572D01*
X170563855Y25495239D02*
X170563855Y25114287D01*
X170563855Y25114287D02*
X170944807Y25076191D01*
X170944807Y25076191D02*
X170906712Y25114287D01*
X170906712Y25114287D02*
X170868617Y25190477D01*
X170868617Y25190477D02*
X170868617Y25380953D01*
X170868617Y25380953D02*
X170906712Y25457144D01*
X170906712Y25457144D02*
X170944807Y25495239D01*
X170944807Y25495239D02*
X171020998Y25533334D01*
X171020998Y25533334D02*
X171211474Y25533334D01*
X171211474Y25533334D02*
X171287664Y25495239D01*
X171287664Y25495239D02*
X171325760Y25457144D01*
X171325760Y25457144D02*
X171363855Y25380953D01*
X171363855Y25380953D02*
X171363855Y25190477D01*
X171363855Y25190477D02*
X171325760Y25114287D01*
X171325760Y25114287D02*
X171287664Y25076191D01*
D11*
X148666666Y86245181D02*
X148666666Y85530896D01*
X148666666Y85530896D02*
X148619047Y85388039D01*
X148619047Y85388039D02*
X148523809Y85292800D01*
X148523809Y85292800D02*
X148380952Y85245181D01*
X148380952Y85245181D02*
X148285714Y85245181D01*
X149666666Y85245181D02*
X149095238Y85245181D01*
X149380952Y85245181D02*
X149380952Y86245181D01*
X149380952Y86245181D02*
X149285714Y86102324D01*
X149285714Y86102324D02*
X149190476Y86007086D01*
X149190476Y86007086D02*
X149095238Y85959467D01*
D10*
X167009524Y37736145D02*
X167009524Y37088526D01*
X167009524Y37088526D02*
X167047619Y37012336D01*
X167047619Y37012336D02*
X167085714Y36974240D01*
X167085714Y36974240D02*
X167161905Y36936145D01*
X167161905Y36936145D02*
X167314286Y36936145D01*
X167314286Y36936145D02*
X167390476Y36974240D01*
X167390476Y36974240D02*
X167428571Y37012336D01*
X167428571Y37012336D02*
X167466667Y37088526D01*
X167466667Y37088526D02*
X167466667Y37736145D01*
X168266666Y36936145D02*
X167809523Y36936145D01*
X168038095Y36936145D02*
X168038095Y37736145D01*
X168038095Y37736145D02*
X167961904Y37621860D01*
X167961904Y37621860D02*
X167885714Y37545669D01*
X167885714Y37545669D02*
X167809523Y37507574D01*
X168761905Y37736145D02*
X168838095Y37736145D01*
X168838095Y37736145D02*
X168914286Y37698050D01*
X168914286Y37698050D02*
X168952381Y37659955D01*
X168952381Y37659955D02*
X168990476Y37583764D01*
X168990476Y37583764D02*
X169028571Y37431383D01*
X169028571Y37431383D02*
X169028571Y37240907D01*
X169028571Y37240907D02*
X168990476Y37088526D01*
X168990476Y37088526D02*
X168952381Y37012336D01*
X168952381Y37012336D02*
X168914286Y36974240D01*
X168914286Y36974240D02*
X168838095Y36936145D01*
X168838095Y36936145D02*
X168761905Y36936145D01*
X168761905Y36936145D02*
X168685714Y36974240D01*
X168685714Y36974240D02*
X168647619Y37012336D01*
X168647619Y37012336D02*
X168609524Y37088526D01*
X168609524Y37088526D02*
X168571428Y37240907D01*
X168571428Y37240907D02*
X168571428Y37431383D01*
X168571428Y37431383D02*
X168609524Y37583764D01*
X168609524Y37583764D02*
X168647619Y37659955D01*
X168647619Y37659955D02*
X168685714Y37698050D01*
X168685714Y37698050D02*
X168761905Y37736145D01*
D11*
X169738095Y36345181D02*
X169738095Y35535658D01*
X169738095Y35535658D02*
X169785714Y35440420D01*
X169785714Y35440420D02*
X169833333Y35392800D01*
X169833333Y35392800D02*
X169928571Y35345181D01*
X169928571Y35345181D02*
X170119047Y35345181D01*
X170119047Y35345181D02*
X170214285Y35392800D01*
X170214285Y35392800D02*
X170261904Y35440420D01*
X170261904Y35440420D02*
X170309523Y35535658D01*
X170309523Y35535658D02*
X170309523Y36345181D01*
X170928571Y35916610D02*
X170833333Y35964229D01*
X170833333Y35964229D02*
X170785714Y36011848D01*
X170785714Y36011848D02*
X170738095Y36107086D01*
X170738095Y36107086D02*
X170738095Y36154705D01*
X170738095Y36154705D02*
X170785714Y36249943D01*
X170785714Y36249943D02*
X170833333Y36297562D01*
X170833333Y36297562D02*
X170928571Y36345181D01*
X170928571Y36345181D02*
X171119047Y36345181D01*
X171119047Y36345181D02*
X171214285Y36297562D01*
X171214285Y36297562D02*
X171261904Y36249943D01*
X171261904Y36249943D02*
X171309523Y36154705D01*
X171309523Y36154705D02*
X171309523Y36107086D01*
X171309523Y36107086D02*
X171261904Y36011848D01*
X171261904Y36011848D02*
X171214285Y35964229D01*
X171214285Y35964229D02*
X171119047Y35916610D01*
X171119047Y35916610D02*
X170928571Y35916610D01*
X170928571Y35916610D02*
X170833333Y35868991D01*
X170833333Y35868991D02*
X170785714Y35821372D01*
X170785714Y35821372D02*
X170738095Y35726134D01*
X170738095Y35726134D02*
X170738095Y35535658D01*
X170738095Y35535658D02*
X170785714Y35440420D01*
X170785714Y35440420D02*
X170833333Y35392800D01*
X170833333Y35392800D02*
X170928571Y35345181D01*
X170928571Y35345181D02*
X171119047Y35345181D01*
X171119047Y35345181D02*
X171214285Y35392800D01*
X171214285Y35392800D02*
X171261904Y35440420D01*
X171261904Y35440420D02*
X171309523Y35535658D01*
X171309523Y35535658D02*
X171309523Y35726134D01*
X171309523Y35726134D02*
X171261904Y35821372D01*
X171261904Y35821372D02*
X171214285Y35868991D01*
X171214285Y35868991D02*
X171119047Y35916610D01*
X148666666Y61245181D02*
X148666666Y60530896D01*
X148666666Y60530896D02*
X148619047Y60388039D01*
X148619047Y60388039D02*
X148523809Y60292800D01*
X148523809Y60292800D02*
X148380952Y60245181D01*
X148380952Y60245181D02*
X148285714Y60245181D01*
X149095238Y61149943D02*
X149142857Y61197562D01*
X149142857Y61197562D02*
X149238095Y61245181D01*
X149238095Y61245181D02*
X149476190Y61245181D01*
X149476190Y61245181D02*
X149571428Y61197562D01*
X149571428Y61197562D02*
X149619047Y61149943D01*
X149619047Y61149943D02*
X149666666Y61054705D01*
X149666666Y61054705D02*
X149666666Y60959467D01*
X149666666Y60959467D02*
X149619047Y60816610D01*
X149619047Y60816610D02*
X149047619Y60245181D01*
X149047619Y60245181D02*
X149666666Y60245181D01*
D10*
X158009524Y77836145D02*
X158009524Y77188526D01*
X158009524Y77188526D02*
X158047619Y77112336D01*
X158047619Y77112336D02*
X158085714Y77074240D01*
X158085714Y77074240D02*
X158161905Y77036145D01*
X158161905Y77036145D02*
X158314286Y77036145D01*
X158314286Y77036145D02*
X158390476Y77074240D01*
X158390476Y77074240D02*
X158428571Y77112336D01*
X158428571Y77112336D02*
X158466667Y77188526D01*
X158466667Y77188526D02*
X158466667Y77836145D01*
X159266666Y77036145D02*
X158809523Y77036145D01*
X159038095Y77036145D02*
X159038095Y77836145D01*
X159038095Y77836145D02*
X158961904Y77721860D01*
X158961904Y77721860D02*
X158885714Y77645669D01*
X158885714Y77645669D02*
X158809523Y77607574D01*
X159533333Y77836145D02*
X160028571Y77836145D01*
X160028571Y77836145D02*
X159761905Y77531383D01*
X159761905Y77531383D02*
X159876190Y77531383D01*
X159876190Y77531383D02*
X159952381Y77493288D01*
X159952381Y77493288D02*
X159990476Y77455193D01*
X159990476Y77455193D02*
X160028571Y77379002D01*
X160028571Y77379002D02*
X160028571Y77188526D01*
X160028571Y77188526D02*
X159990476Y77112336D01*
X159990476Y77112336D02*
X159952381Y77074240D01*
X159952381Y77074240D02*
X159876190Y77036145D01*
X159876190Y77036145D02*
X159647619Y77036145D01*
X159647619Y77036145D02*
X159571428Y77074240D01*
X159571428Y77074240D02*
X159533333Y77112336D01*
X153009524Y49236145D02*
X153009524Y48588526D01*
X153009524Y48588526D02*
X153047619Y48512336D01*
X153047619Y48512336D02*
X153085714Y48474240D01*
X153085714Y48474240D02*
X153161905Y48436145D01*
X153161905Y48436145D02*
X153314286Y48436145D01*
X153314286Y48436145D02*
X153390476Y48474240D01*
X153390476Y48474240D02*
X153428571Y48512336D01*
X153428571Y48512336D02*
X153466667Y48588526D01*
X153466667Y48588526D02*
X153466667Y49236145D01*
X154266666Y48436145D02*
X153809523Y48436145D01*
X154038095Y48436145D02*
X154038095Y49236145D01*
X154038095Y49236145D02*
X153961904Y49121860D01*
X153961904Y49121860D02*
X153885714Y49045669D01*
X153885714Y49045669D02*
X153809523Y49007574D01*
X154990476Y49236145D02*
X154609524Y49236145D01*
X154609524Y49236145D02*
X154571428Y48855193D01*
X154571428Y48855193D02*
X154609524Y48893288D01*
X154609524Y48893288D02*
X154685714Y48931383D01*
X154685714Y48931383D02*
X154876190Y48931383D01*
X154876190Y48931383D02*
X154952381Y48893288D01*
X154952381Y48893288D02*
X154990476Y48855193D01*
X154990476Y48855193D02*
X155028571Y48779002D01*
X155028571Y48779002D02*
X155028571Y48588526D01*
X155028571Y48588526D02*
X154990476Y48512336D01*
X154990476Y48512336D02*
X154952381Y48474240D01*
X154952381Y48474240D02*
X154876190Y48436145D01*
X154876190Y48436145D02*
X154685714Y48436145D01*
X154685714Y48436145D02*
X154609524Y48474240D01*
X154609524Y48474240D02*
X154571428Y48512336D01*
X171063855Y48233334D02*
X171635283Y48233334D01*
X171635283Y48233334D02*
X171749569Y48195239D01*
X171749569Y48195239D02*
X171825760Y48119048D01*
X171825760Y48119048D02*
X171863855Y48004763D01*
X171863855Y48004763D02*
X171863855Y47928572D01*
X171063855Y48538096D02*
X171063855Y49071430D01*
X171063855Y49071430D02*
X171863855Y48728572D01*
D11*
X84238095Y80545181D02*
X84238095Y79735658D01*
X84238095Y79735658D02*
X84285714Y79640420D01*
X84285714Y79640420D02*
X84333333Y79592800D01*
X84333333Y79592800D02*
X84428571Y79545181D01*
X84428571Y79545181D02*
X84619047Y79545181D01*
X84619047Y79545181D02*
X84714285Y79592800D01*
X84714285Y79592800D02*
X84761904Y79640420D01*
X84761904Y79640420D02*
X84809523Y79735658D01*
X84809523Y79735658D02*
X84809523Y80545181D01*
X85714285Y80211848D02*
X85714285Y79545181D01*
X85476190Y80592800D02*
X85238095Y79878515D01*
X85238095Y79878515D02*
X85857142Y79878515D01*
X165238095Y63345181D02*
X165238095Y62535658D01*
X165238095Y62535658D02*
X165285714Y62440420D01*
X165285714Y62440420D02*
X165333333Y62392800D01*
X165333333Y62392800D02*
X165428571Y62345181D01*
X165428571Y62345181D02*
X165619047Y62345181D01*
X165619047Y62345181D02*
X165714285Y62392800D01*
X165714285Y62392800D02*
X165761904Y62440420D01*
X165761904Y62440420D02*
X165809523Y62535658D01*
X165809523Y62535658D02*
X165809523Y63345181D01*
X166333333Y62345181D02*
X166523809Y62345181D01*
X166523809Y62345181D02*
X166619047Y62392800D01*
X166619047Y62392800D02*
X166666666Y62440420D01*
X166666666Y62440420D02*
X166761904Y62583277D01*
X166761904Y62583277D02*
X166809523Y62773753D01*
X166809523Y62773753D02*
X166809523Y63154705D01*
X166809523Y63154705D02*
X166761904Y63249943D01*
X166761904Y63249943D02*
X166714285Y63297562D01*
X166714285Y63297562D02*
X166619047Y63345181D01*
X166619047Y63345181D02*
X166428571Y63345181D01*
X166428571Y63345181D02*
X166333333Y63297562D01*
X166333333Y63297562D02*
X166285714Y63249943D01*
X166285714Y63249943D02*
X166238095Y63154705D01*
X166238095Y63154705D02*
X166238095Y62916610D01*
X166238095Y62916610D02*
X166285714Y62821372D01*
X166285714Y62821372D02*
X166333333Y62773753D01*
X166333333Y62773753D02*
X166428571Y62726134D01*
X166428571Y62726134D02*
X166619047Y62726134D01*
X166619047Y62726134D02*
X166714285Y62773753D01*
X166714285Y62773753D02*
X166761904Y62821372D01*
X166761904Y62821372D02*
X166809523Y62916610D01*
X151238095Y67345181D02*
X151238095Y66535658D01*
X151238095Y66535658D02*
X151285714Y66440420D01*
X151285714Y66440420D02*
X151333333Y66392800D01*
X151333333Y66392800D02*
X151428571Y66345181D01*
X151428571Y66345181D02*
X151619047Y66345181D01*
X151619047Y66345181D02*
X151714285Y66392800D01*
X151714285Y66392800D02*
X151761904Y66440420D01*
X151761904Y66440420D02*
X151809523Y66535658D01*
X151809523Y66535658D02*
X151809523Y67345181D01*
X152238095Y67249943D02*
X152285714Y67297562D01*
X152285714Y67297562D02*
X152380952Y67345181D01*
X152380952Y67345181D02*
X152619047Y67345181D01*
X152619047Y67345181D02*
X152714285Y67297562D01*
X152714285Y67297562D02*
X152761904Y67249943D01*
X152761904Y67249943D02*
X152809523Y67154705D01*
X152809523Y67154705D02*
X152809523Y67059467D01*
X152809523Y67059467D02*
X152761904Y66916610D01*
X152761904Y66916610D02*
X152190476Y66345181D01*
X152190476Y66345181D02*
X152809523Y66345181D01*
D10*
X133619048Y39017098D02*
X133619048Y38636145D01*
X133352381Y39436145D02*
X133619048Y39017098D01*
X133619048Y39017098D02*
X133885714Y39436145D01*
X134571428Y38636145D02*
X134114285Y38636145D01*
X134342857Y38636145D02*
X134342857Y39436145D01*
X134342857Y39436145D02*
X134266666Y39321860D01*
X134266666Y39321860D02*
X134190476Y39245669D01*
X134190476Y39245669D02*
X134114285Y39207574D01*
X171509524Y91436145D02*
X171509524Y90788526D01*
X171509524Y90788526D02*
X171547619Y90712336D01*
X171547619Y90712336D02*
X171585714Y90674240D01*
X171585714Y90674240D02*
X171661905Y90636145D01*
X171661905Y90636145D02*
X171814286Y90636145D01*
X171814286Y90636145D02*
X171890476Y90674240D01*
X171890476Y90674240D02*
X171928571Y90712336D01*
X171928571Y90712336D02*
X171966667Y90788526D01*
X171966667Y90788526D02*
X171966667Y91436145D01*
X172766666Y90636145D02*
X172309523Y90636145D01*
X172538095Y90636145D02*
X172538095Y91436145D01*
X172538095Y91436145D02*
X172461904Y91321860D01*
X172461904Y91321860D02*
X172385714Y91245669D01*
X172385714Y91245669D02*
X172309523Y91207574D01*
X173528571Y90636145D02*
X173071428Y90636145D01*
X173300000Y90636145D02*
X173300000Y91436145D01*
X173300000Y91436145D02*
X173223809Y91321860D01*
X173223809Y91321860D02*
X173147619Y91245669D01*
X173147619Y91245669D02*
X173071428Y91207574D01*
X160390476Y54936145D02*
X160390476Y54288526D01*
X160390476Y54288526D02*
X160428571Y54212336D01*
X160428571Y54212336D02*
X160466666Y54174240D01*
X160466666Y54174240D02*
X160542857Y54136145D01*
X160542857Y54136145D02*
X160695238Y54136145D01*
X160695238Y54136145D02*
X160771428Y54174240D01*
X160771428Y54174240D02*
X160809523Y54212336D01*
X160809523Y54212336D02*
X160847619Y54288526D01*
X160847619Y54288526D02*
X160847619Y54936145D01*
X161152380Y54936145D02*
X161685714Y54936145D01*
X161685714Y54936145D02*
X161342856Y54136145D01*
X152009524Y71436145D02*
X152009524Y70788526D01*
X152009524Y70788526D02*
X152047619Y70712336D01*
X152047619Y70712336D02*
X152085714Y70674240D01*
X152085714Y70674240D02*
X152161905Y70636145D01*
X152161905Y70636145D02*
X152314286Y70636145D01*
X152314286Y70636145D02*
X152390476Y70674240D01*
X152390476Y70674240D02*
X152428571Y70712336D01*
X152428571Y70712336D02*
X152466667Y70788526D01*
X152466667Y70788526D02*
X152466667Y71436145D01*
X153266666Y70636145D02*
X152809523Y70636145D01*
X153038095Y70636145D02*
X153038095Y71436145D01*
X153038095Y71436145D02*
X152961904Y71321860D01*
X152961904Y71321860D02*
X152885714Y71245669D01*
X152885714Y71245669D02*
X152809523Y71207574D01*
X153952381Y71169479D02*
X153952381Y70636145D01*
X153761905Y71474240D02*
X153571428Y70902812D01*
X153571428Y70902812D02*
X154066667Y70902812D01*
X155009524Y85036145D02*
X155009524Y84388526D01*
X155009524Y84388526D02*
X155047619Y84312336D01*
X155047619Y84312336D02*
X155085714Y84274240D01*
X155085714Y84274240D02*
X155161905Y84236145D01*
X155161905Y84236145D02*
X155314286Y84236145D01*
X155314286Y84236145D02*
X155390476Y84274240D01*
X155390476Y84274240D02*
X155428571Y84312336D01*
X155428571Y84312336D02*
X155466667Y84388526D01*
X155466667Y84388526D02*
X155466667Y85036145D01*
X156266666Y84236145D02*
X155809523Y84236145D01*
X156038095Y84236145D02*
X156038095Y85036145D01*
X156038095Y85036145D02*
X155961904Y84921860D01*
X155961904Y84921860D02*
X155885714Y84845669D01*
X155885714Y84845669D02*
X155809523Y84807574D01*
X156571428Y84959955D02*
X156609524Y84998050D01*
X156609524Y84998050D02*
X156685714Y85036145D01*
X156685714Y85036145D02*
X156876190Y85036145D01*
X156876190Y85036145D02*
X156952381Y84998050D01*
X156952381Y84998050D02*
X156990476Y84959955D01*
X156990476Y84959955D02*
X157028571Y84883764D01*
X157028571Y84883764D02*
X157028571Y84807574D01*
X157028571Y84807574D02*
X156990476Y84693288D01*
X156990476Y84693288D02*
X156533333Y84236145D01*
X156533333Y84236145D02*
X157028571Y84236145D01*
X172563855Y68733334D02*
X173135283Y68733334D01*
X173135283Y68733334D02*
X173249569Y68695239D01*
X173249569Y68695239D02*
X173325760Y68619048D01*
X173325760Y68619048D02*
X173363855Y68504763D01*
X173363855Y68504763D02*
X173363855Y68428572D01*
X172563855Y69457144D02*
X172563855Y69304763D01*
X172563855Y69304763D02*
X172601950Y69228572D01*
X172601950Y69228572D02*
X172640045Y69190477D01*
X172640045Y69190477D02*
X172754331Y69114287D01*
X172754331Y69114287D02*
X172906712Y69076191D01*
X172906712Y69076191D02*
X173211474Y69076191D01*
X173211474Y69076191D02*
X173287664Y69114287D01*
X173287664Y69114287D02*
X173325760Y69152382D01*
X173325760Y69152382D02*
X173363855Y69228572D01*
X173363855Y69228572D02*
X173363855Y69380953D01*
X173363855Y69380953D02*
X173325760Y69457144D01*
X173325760Y69457144D02*
X173287664Y69495239D01*
X173287664Y69495239D02*
X173211474Y69533334D01*
X173211474Y69533334D02*
X173020998Y69533334D01*
X173020998Y69533334D02*
X172944807Y69495239D01*
X172944807Y69495239D02*
X172906712Y69457144D01*
X172906712Y69457144D02*
X172868617Y69380953D01*
X172868617Y69380953D02*
X172868617Y69228572D01*
X172868617Y69228572D02*
X172906712Y69152382D01*
X172906712Y69152382D02*
X172944807Y69114287D01*
X172944807Y69114287D02*
X173020998Y69076191D01*
%TO.C,DS1*%
X113200000Y36050000D02*
X140800000Y36050000D01*
X140800000Y7950000D01*
X113200000Y7950000D01*
X113200000Y36050000D01*
%TO.C,U10*%
X168000000Y41560000D02*
X167200000Y41560000D01*
X168000000Y41560000D02*
X168800000Y41560000D01*
X168000000Y38440000D02*
X167200000Y38440000D01*
X168000000Y38440000D02*
X168800000Y38440000D01*
X166700000Y41510000D02*
X166460000Y41840000D01*
X166940000Y41840000D01*
X166700000Y41510000D01*
G36*
X166700000Y41510000D02*
G01*
X166460000Y41840000D01*
X166940000Y41840000D01*
X166700000Y41510000D01*
G37*
%TO.C,U13*%
X158290000Y81160000D02*
X159700000Y81160000D01*
X158300000Y78840000D02*
X159700000Y78840000D01*
X157920000Y81110000D02*
X157680000Y81440000D01*
X158160000Y81440000D01*
X157920000Y81110000D01*
G36*
X157920000Y81110000D02*
G01*
X157680000Y81440000D01*
X158160000Y81440000D01*
X157920000Y81110000D01*
G37*
%TO.C,U15*%
X152000000Y47450000D02*
X151760000Y47780000D01*
X152240000Y47780000D01*
X152000000Y47450000D01*
G36*
X152000000Y47450000D02*
G01*
X151760000Y47780000D01*
X152240000Y47780000D01*
X152000000Y47450000D01*
G37*
%TO.C,U9*%
X166000000Y61560000D02*
X165200000Y61560000D01*
X166000000Y61560000D02*
X166800000Y61560000D01*
X166000000Y58440000D02*
X165200000Y58440000D01*
X166000000Y58440000D02*
X166800000Y58440000D01*
X167300000Y58490000D02*
X167540000Y58160000D01*
X167060000Y58160000D01*
X167300000Y58490000D01*
G36*
X167540000Y58160000D02*
G01*
X167060000Y58160000D01*
X167300000Y58490000D01*
X167540000Y58160000D01*
G37*
%TO.C,U11*%
X166790000Y89560000D02*
X166790000Y89670000D01*
X167090000Y88090000D02*
X167090000Y88440000D01*
X168910000Y89910000D02*
X168910000Y89560000D01*
X168910000Y88090000D02*
X168910000Y88440000D01*
X166790000Y89910000D02*
X166550000Y90240000D01*
X167030000Y90240000D01*
X166790000Y89910000D01*
G36*
X166790000Y89910000D02*
G01*
X166550000Y90240000D01*
X167030000Y90240000D01*
X166790000Y89910000D01*
G37*
%TO.C,U14*%
X152000000Y77135000D02*
X154000000Y77135000D01*
X152000000Y74865000D02*
X154000000Y74865000D01*
X151450000Y77050000D02*
X151170000Y77050000D01*
X151450000Y77330000D01*
X151450000Y77050000D01*
G36*
X151450000Y77050000D02*
G01*
X151170000Y77050000D01*
X151450000Y77330000D01*
X151450000Y77050000D01*
G37*
%TO.C,U12*%
X156000000Y88560000D02*
X155200000Y88560000D01*
X156000000Y88560000D02*
X156800000Y88560000D01*
X156000000Y85440000D02*
X155200000Y85440000D01*
X156000000Y85440000D02*
X156800000Y85440000D01*
X154700000Y88510000D02*
X154460000Y88840000D01*
X154940000Y88840000D01*
X154700000Y88510000D01*
G36*
X154700000Y88510000D02*
G01*
X154460000Y88840000D01*
X154940000Y88840000D01*
X154700000Y88510000D01*
G37*
%TD*%
%LPC*%
D12*
%TO.C,R70*%
X84000000Y21087500D03*
X84000000Y22912500D03*
%TD*%
D13*
%TO.C,C55*%
X101050000Y16000000D03*
X102950000Y16000000D03*
%TD*%
%TO.C,C69*%
X152050000Y79000000D03*
X153950000Y79000000D03*
%TD*%
D14*
%TO.C,C73*%
X127250000Y47000000D03*
X125350000Y47000000D03*
%TD*%
D12*
%TO.C,R175*%
X131000000Y38087500D03*
X131000000Y39912500D03*
%TD*%
D13*
%TO.C,C77*%
X114050000Y39000000D03*
X115950000Y39000000D03*
%TD*%
D15*
%TO.C,H2*%
X4000000Y96000000D03*
%TD*%
D13*
%TO.C,C62*%
X156050000Y69500000D03*
X157950000Y69500000D03*
%TD*%
D12*
%TO.C,R9*%
X172000000Y62787500D03*
X172000000Y64612500D03*
%TD*%
D13*
%TO.C,C52*%
X83050000Y16000000D03*
X84950000Y16000000D03*
%TD*%
D16*
%TO.C,R80*%
X143087500Y12000000D03*
X144912500Y12000000D03*
%TD*%
D12*
%TO.C,R129*%
X69000000Y74087500D03*
X69000000Y75912500D03*
%TD*%
D17*
%TO.C,D73*%
X102000000Y27400000D03*
X102000000Y24600000D03*
%TD*%
%TO.C,D33*%
X54000000Y51400000D03*
X54000000Y48600000D03*
%TD*%
D12*
%TO.C,R65*%
X54000000Y21087500D03*
X54000000Y22912500D03*
%TD*%
D13*
%TO.C,C54*%
X95050000Y16000000D03*
X96950000Y16000000D03*
%TD*%
D17*
%TO.C,D29*%
X30000000Y51400000D03*
X30000000Y48600000D03*
%TD*%
%TO.C,D40*%
X96000000Y51400000D03*
X96000000Y48600000D03*
%TD*%
D12*
%TO.C,R27*%
X18000000Y45087500D03*
X18000000Y46912500D03*
%TD*%
D18*
%TO.C,C15*%
X170000000Y43250000D03*
X170000000Y45150000D03*
%TD*%
D17*
%TO.C,D43*%
X18000000Y39400000D03*
X18000000Y36600000D03*
%TD*%
D12*
%TO.C,R16*%
X48000000Y57087500D03*
X48000000Y58912500D03*
%TD*%
%TO.C,R64*%
X48000000Y21087500D03*
X48000000Y22912500D03*
%TD*%
D19*
%TO.C,R103*%
X30000000Y77912500D03*
X30000000Y76087500D03*
%TD*%
D14*
%TO.C,C65*%
X152750000Y86050000D03*
X150850000Y86050000D03*
%TD*%
D20*
%TO.C,U5*%
X157862500Y33450000D03*
X157862500Y32500000D03*
X157862500Y31550000D03*
X160137500Y31550000D03*
X160137500Y33450000D03*
%TD*%
D19*
%TO.C,R105*%
X42000000Y77912500D03*
X42000000Y76087500D03*
%TD*%
D17*
%TO.C,D25*%
X102000000Y63400000D03*
X102000000Y60600000D03*
%TD*%
%TO.C,D23*%
X90000000Y63400000D03*
X90000000Y60600000D03*
%TD*%
%TO.C,D12*%
X24000000Y63400000D03*
X24000000Y60600000D03*
%TD*%
D14*
%TO.C,C8*%
X156250000Y22200000D03*
X154350000Y22200000D03*
%TD*%
%TO.C,C4*%
X32700000Y88862500D03*
X30800000Y88862500D03*
%TD*%
D19*
%TO.C,R107*%
X54000000Y77912500D03*
X54000000Y76087500D03*
%TD*%
%TO.C,R100*%
X12000000Y77912500D03*
X12000000Y76087500D03*
%TD*%
D18*
%TO.C,C29*%
X68500000Y65550000D03*
X68500000Y67450000D03*
%TD*%
D12*
%TO.C,R20*%
X72000000Y57087500D03*
X72000000Y58912500D03*
%TD*%
D13*
%TO.C,C3*%
X155250000Y64950000D03*
X157150000Y64950000D03*
%TD*%
%TO.C,C41*%
X17050000Y16000000D03*
X18950000Y16000000D03*
%TD*%
%TO.C,C7*%
X162250000Y31550000D03*
X164150000Y31550000D03*
%TD*%
D15*
%TO.C,H5*%
X176000000Y4000000D03*
%TD*%
D21*
%TO.C,U1*%
X169637500Y79050000D03*
X169637500Y80000000D03*
X169637500Y80950000D03*
X167362500Y80950000D03*
X167362500Y80000000D03*
X167362500Y79050000D03*
%TD*%
D12*
%TO.C,R19*%
X66000000Y57087500D03*
X66000000Y58912500D03*
%TD*%
D14*
%TO.C,C2*%
X148750000Y63050000D03*
X146850000Y63050000D03*
%TD*%
D22*
%TO.C,U6*%
X158750000Y27700000D03*
D23*
X158750000Y26600000D03*
X158750000Y25500000D03*
X158750000Y24400000D03*
X158750000Y23300000D03*
X158750000Y22200000D03*
X158750000Y21100000D03*
X158750000Y20000000D03*
D22*
X158750000Y18900000D03*
X168250000Y18900000D03*
D23*
X168250000Y20000000D03*
X168250000Y21100000D03*
X168250000Y22200000D03*
X168250000Y23300000D03*
X168250000Y24400000D03*
X168250000Y25500000D03*
X168250000Y26600000D03*
D22*
X168250000Y27700000D03*
%TD*%
D18*
%TO.C,C31*%
X80500000Y65550000D03*
X80500000Y67450000D03*
%TD*%
D24*
%TO.C,R8*%
X171912500Y60950000D03*
X170087500Y60950000D03*
%TD*%
D18*
%TO.C,C70*%
X148700000Y46050000D03*
X148700000Y47950000D03*
%TD*%
%TO.C,C24*%
X38500000Y65550000D03*
X38500000Y67450000D03*
%TD*%
D25*
%TO.C,U3*%
X34075000Y83137500D03*
X34725000Y83137500D03*
X35375000Y83137500D03*
X36025000Y83137500D03*
X36675000Y83137500D03*
X37325000Y83137500D03*
X37975000Y83137500D03*
X38625000Y83137500D03*
X39275000Y83137500D03*
X39925000Y83137500D03*
X39925000Y88862500D03*
X39275000Y88862500D03*
X38625000Y88862500D03*
X37975000Y88862500D03*
X37325000Y88862500D03*
X36675000Y88862500D03*
X36025000Y88862500D03*
X35375000Y88862500D03*
X34725000Y88862500D03*
X34075000Y88862500D03*
%TD*%
D26*
%TO.C,DS1*%
X115350000Y33900000D03*
X115350000Y10100000D03*
X138650000Y33900000D03*
X138650000Y10100000D03*
D27*
X123190000Y34580000D03*
D28*
X125730000Y34580000D03*
X128270000Y34580000D03*
X130810000Y34580000D03*
%TD*%
D12*
%TO.C,R28*%
X24000000Y45087500D03*
X24000000Y46912500D03*
%TD*%
D29*
%TO.C,J3*%
X174600000Y77110000D03*
X174600000Y82890000D03*
D30*
X173155000Y76750000D03*
X173155000Y77550000D03*
D31*
X173155000Y78750000D03*
X173155000Y79750000D03*
X173155000Y80250000D03*
X173155000Y81250000D03*
D30*
X173155000Y82450000D03*
X173155000Y83250000D03*
X173155000Y83250000D03*
X173155000Y82450000D03*
D31*
X173155000Y81750000D03*
X173155000Y80750000D03*
X173155000Y79250000D03*
X173155000Y78250000D03*
D30*
X173155000Y77550000D03*
X173155000Y76750000D03*
D32*
X174070000Y75680000D03*
D33*
X178250000Y75680000D03*
D32*
X174070000Y84320000D03*
D33*
X178250000Y84320000D03*
%TD*%
D13*
%TO.C,C67*%
X158050000Y83000000D03*
X159950000Y83000000D03*
%TD*%
D17*
%TO.C,D47*%
X42000000Y39400000D03*
X42000000Y36600000D03*
%TD*%
D18*
%TO.C,C75*%
X168800000Y62750000D03*
X168800000Y64650000D03*
%TD*%
D34*
%TO.C,J5*%
X177460000Y20000000D03*
X177460000Y24250000D03*
X177460000Y15750000D03*
%TD*%
D12*
%TO.C,R52*%
X72000000Y33087500D03*
X72000000Y34912500D03*
%TD*%
D17*
%TO.C,D50*%
X60000000Y39400000D03*
X60000000Y36600000D03*
%TD*%
D12*
%TO.C,R132*%
X87000000Y74087500D03*
X87000000Y75912500D03*
%TD*%
D35*
%TO.C,J1*%
X130725000Y87055000D03*
X130725000Y84345000D03*
X139275000Y87055000D03*
X139275000Y84345000D03*
D36*
X138800000Y87055000D03*
X138400000Y87055000D03*
X138000000Y87055000D03*
X137600000Y87055000D03*
X137200000Y87055000D03*
X136800000Y87055000D03*
X136400000Y87055000D03*
X136000000Y87055000D03*
X135600000Y87055000D03*
X135200000Y87055000D03*
X134800001Y87055000D03*
X134400001Y87055000D03*
X134000001Y87055000D03*
X133600001Y87055000D03*
X133200001Y87055000D03*
X132800001Y87055000D03*
X132400001Y87055000D03*
X132000000Y87055000D03*
X131600000Y87055000D03*
X131200000Y87055000D03*
X138800000Y84345000D03*
X138400000Y84345000D03*
X138000000Y84345000D03*
X137600000Y84345000D03*
X137200000Y84345000D03*
X136800000Y84345000D03*
X136400000Y84345000D03*
X136000000Y84345000D03*
X135600000Y84345000D03*
X135200000Y84345000D03*
X134800001Y84345000D03*
X134400001Y84345000D03*
X134000001Y84345000D03*
X133600001Y84345000D03*
X133200001Y84345000D03*
X132800001Y84345000D03*
X132400001Y84345000D03*
X132000000Y84345000D03*
X131600000Y84345000D03*
X131200000Y84345000D03*
%TD*%
D12*
%TO.C,R60*%
X24000000Y21087500D03*
X24000000Y22912500D03*
%TD*%
D37*
%TO.C,Q6*%
X42950000Y72937500D03*
X41050000Y72937500D03*
X42000000Y71062500D03*
%TD*%
D17*
%TO.C,D53*%
X78000000Y39400000D03*
X78000000Y36600000D03*
%TD*%
D37*
%TO.C,Q16*%
X102950000Y72937500D03*
X101050000Y72937500D03*
X102000000Y71062500D03*
%TD*%
D12*
%TO.C,R29*%
X30000000Y45087500D03*
X30000000Y46912500D03*
%TD*%
%TO.C,R135*%
X105000000Y74087500D03*
X105000000Y75912500D03*
%TD*%
%TO.C,R44*%
X24000000Y33087500D03*
X24000000Y34912500D03*
%TD*%
%TO.C,R148*%
X62000000Y94087500D03*
X62000000Y95912500D03*
%TD*%
D13*
%TO.C,C63*%
X160050000Y69500000D03*
X161950000Y69500000D03*
%TD*%
D24*
%TO.C,R161*%
X169912500Y53000000D03*
X168087500Y53000000D03*
%TD*%
D16*
%TO.C,R166*%
X165087500Y93000000D03*
X166912500Y93000000D03*
%TD*%
D18*
%TO.C,C26*%
X50500000Y65550000D03*
X50500000Y67450000D03*
%TD*%
%TO.C,C34*%
X98500000Y65550000D03*
X98500000Y67450000D03*
%TD*%
D17*
%TO.C,D38*%
X84000000Y51400000D03*
X84000000Y48600000D03*
%TD*%
D37*
%TO.C,Q3*%
X24950000Y72937500D03*
X23050000Y72937500D03*
X24000000Y71062500D03*
%TD*%
D14*
%TO.C,C9*%
X156250000Y19000000D03*
X154350000Y19000000D03*
%TD*%
D16*
%TO.C,R169*%
X160887500Y77000000D03*
X162712500Y77000000D03*
%TD*%
D13*
%TO.C,C47*%
X53050000Y16000000D03*
X54950000Y16000000D03*
%TD*%
D17*
%TO.C,D57*%
X102000000Y39400000D03*
X102000000Y36600000D03*
%TD*%
D13*
%TO.C,C45*%
X41050000Y16000000D03*
X42950000Y16000000D03*
%TD*%
D12*
%TO.C,R121*%
X21000000Y74087500D03*
X21000000Y75912500D03*
%TD*%
D20*
%TO.C,U10*%
X166862500Y40950000D03*
X166862500Y40000000D03*
X166862500Y39050000D03*
X169137500Y39050000D03*
X169137500Y40950000D03*
%TD*%
D12*
%TO.C,R150*%
X74000000Y94087500D03*
X74000000Y95912500D03*
%TD*%
%TO.C,R58*%
X12000000Y21087500D03*
X12000000Y22912500D03*
%TD*%
D17*
%TO.C,D64*%
X48000000Y27400000D03*
X48000000Y24600000D03*
%TD*%
%TO.C,D19*%
X66000000Y63400000D03*
X66000000Y60600000D03*
%TD*%
D16*
%TO.C,R160*%
X168087500Y56000000D03*
X169912500Y56000000D03*
%TD*%
D17*
%TO.C,D20*%
X72000000Y63400000D03*
X72000000Y60600000D03*
%TD*%
D38*
%TO.C,D1*%
X159787500Y67200000D03*
X158212500Y67200000D03*
%TD*%
D12*
%TO.C,R24*%
X96000000Y57087500D03*
X96000000Y58912500D03*
%TD*%
D37*
%TO.C,Q1*%
X12950000Y72937500D03*
X11050000Y72937500D03*
X12000000Y71062500D03*
%TD*%
D12*
%TO.C,R62*%
X36000000Y21087500D03*
X36000000Y22912500D03*
%TD*%
D14*
%TO.C,C11*%
X157750000Y56050000D03*
X155850000Y56050000D03*
%TD*%
D18*
%TO.C,C21*%
X20500000Y65550000D03*
X20500000Y67450000D03*
%TD*%
D13*
%TO.C,C40*%
X11050000Y16000000D03*
X12950000Y16000000D03*
%TD*%
D12*
%TO.C,R21*%
X78000000Y57087500D03*
X78000000Y58912500D03*
%TD*%
D37*
%TO.C,Q11*%
X72950000Y72937500D03*
X71050000Y72937500D03*
X72000000Y71062500D03*
%TD*%
D20*
%TO.C,U8*%
X169362500Y33950000D03*
X169362500Y33000000D03*
X169362500Y32050000D03*
X171637500Y32050000D03*
X171637500Y33000000D03*
X171637500Y33950000D03*
%TD*%
D19*
%TO.C,R101*%
X18000000Y77912500D03*
X18000000Y76087500D03*
%TD*%
D13*
%TO.C,C60*%
X148050000Y69500000D03*
X149950000Y69500000D03*
%TD*%
D12*
%TO.C,R146*%
X50000000Y94087500D03*
X50000000Y95912500D03*
%TD*%
D18*
%TO.C,C30*%
X74500000Y65550000D03*
X74500000Y67450000D03*
%TD*%
D17*
%TO.C,D41*%
X102000000Y51400000D03*
X102000000Y48600000D03*
%TD*%
D15*
%TO.C,H3*%
X176000000Y96000000D03*
%TD*%
D17*
%TO.C,D13*%
X30000000Y63400000D03*
X30000000Y60600000D03*
%TD*%
D13*
%TO.C,C64*%
X169050000Y92000000D03*
X170950000Y92000000D03*
%TD*%
D19*
%TO.C,R109*%
X66000000Y77912500D03*
X66000000Y76087500D03*
%TD*%
D12*
%TO.C,R131*%
X81000000Y74087500D03*
X81000000Y75912500D03*
%TD*%
D17*
%TO.C,D55*%
X90000000Y39400000D03*
X90000000Y36600000D03*
%TD*%
D12*
%TO.C,R30*%
X36000000Y45087500D03*
X36000000Y46912500D03*
%TD*%
%TO.C,R13*%
X30000000Y57087500D03*
X30000000Y58912500D03*
%TD*%
D13*
%TO.C,C46*%
X47050000Y16000000D03*
X48950000Y16000000D03*
%TD*%
D12*
%TO.C,R15*%
X42000000Y57087500D03*
X42000000Y58912500D03*
%TD*%
%TO.C,R38*%
X84000000Y45087500D03*
X84000000Y46912500D03*
%TD*%
D39*
%TO.C,J2*%
X138800000Y62020000D03*
X138400000Y62020000D03*
X138000000Y62020000D03*
X137600000Y62020000D03*
X137200000Y62020000D03*
X136800000Y62020000D03*
X136400000Y62020000D03*
X136000000Y62020000D03*
X135600000Y62020000D03*
X135200000Y62020000D03*
X134800001Y62020000D03*
X134400001Y62020000D03*
X134000001Y62020000D03*
X133600001Y62020000D03*
X133200001Y62020000D03*
X132800001Y62020000D03*
X132400001Y62020000D03*
X132000000Y62020000D03*
X131600000Y62020000D03*
X131200000Y62020000D03*
X131200000Y59380000D03*
X131600000Y59380000D03*
X132000000Y59380000D03*
X132400001Y59380000D03*
X132800001Y59380000D03*
X133200001Y59380000D03*
X133600001Y59380000D03*
X134000001Y59380000D03*
X134400001Y59380000D03*
X134800001Y59380000D03*
X135200000Y59380000D03*
X135600000Y59380000D03*
X136000000Y59380000D03*
X136400000Y59380000D03*
X136800000Y59380000D03*
X137200000Y59380000D03*
X137600000Y59380000D03*
X138000000Y59380000D03*
X138400000Y59380000D03*
X138800000Y59380000D03*
%TD*%
D17*
%TO.C,D70*%
X84000000Y27400000D03*
X84000000Y24600000D03*
%TD*%
D12*
%TO.C,R128*%
X63000000Y74087500D03*
X63000000Y75912500D03*
%TD*%
%TO.C,R133*%
X93000000Y74087500D03*
X93000000Y75912500D03*
%TD*%
D17*
%TO.C,D69*%
X78000000Y27400000D03*
X78000000Y24600000D03*
%TD*%
D37*
%TO.C,Q7*%
X48950000Y72937500D03*
X47050000Y72937500D03*
X48000000Y71062500D03*
%TD*%
D17*
%TO.C,D37*%
X78000000Y51400000D03*
X78000000Y48600000D03*
%TD*%
D40*
%TO.C,U13*%
X158050000Y80650000D03*
X158050000Y80000000D03*
X158050000Y79350000D03*
X159950000Y79350000D03*
X159950000Y80650000D03*
%TD*%
D17*
%TO.C,D49*%
X54000000Y39400000D03*
X54000000Y36600000D03*
%TD*%
D12*
%TO.C,R153*%
X92000000Y94087500D03*
X92000000Y95912500D03*
%TD*%
%TO.C,R11*%
X18000000Y57087500D03*
X18000000Y58912500D03*
%TD*%
D14*
%TO.C,C68*%
X148950000Y77500000D03*
X147050000Y77500000D03*
%TD*%
D37*
%TO.C,Q14*%
X90950000Y72937500D03*
X89050000Y72937500D03*
X90000000Y71062500D03*
%TD*%
D12*
%TO.C,R51*%
X66000000Y33087500D03*
X66000000Y34912500D03*
%TD*%
%TO.C,R154*%
X98000000Y94087500D03*
X98000000Y95912500D03*
%TD*%
%TO.C,R22*%
X84000000Y57087500D03*
X84000000Y58912500D03*
%TD*%
%TO.C,R57*%
X102000000Y33087500D03*
X102000000Y34912500D03*
%TD*%
D19*
%TO.C,R113*%
X90000000Y77912500D03*
X90000000Y76087500D03*
%TD*%
D12*
%TO.C,R126*%
X51000000Y74087500D03*
X51000000Y75912500D03*
%TD*%
D16*
%TO.C,R162*%
X171087500Y39050000D03*
X172912500Y39050000D03*
%TD*%
D17*
%TO.C,D59*%
X18000000Y27400000D03*
X18000000Y24600000D03*
%TD*%
D18*
%TO.C,C71*%
X163000000Y47050000D03*
X163000000Y48950000D03*
%TD*%
D12*
%TO.C,R120*%
X15000000Y74087500D03*
X15000000Y75912500D03*
%TD*%
%TO.C,R37*%
X78000000Y45087500D03*
X78000000Y46912500D03*
%TD*%
D16*
%TO.C,R4*%
X143087500Y92000000D03*
X144912500Y92000000D03*
%TD*%
D17*
%TO.C,D62*%
X36000000Y27400000D03*
X36000000Y24600000D03*
%TD*%
D18*
%TO.C,C23*%
X32500000Y65550000D03*
X32500000Y67450000D03*
%TD*%
D17*
%TO.C,D63*%
X42000000Y27400000D03*
X42000000Y24600000D03*
%TD*%
%TO.C,D15*%
X42000000Y63400000D03*
X42000000Y60600000D03*
%TD*%
D12*
%TO.C,R34*%
X60000000Y45087500D03*
X60000000Y46912500D03*
%TD*%
%TO.C,R55*%
X90000000Y33087500D03*
X90000000Y34912500D03*
%TD*%
D41*
%TO.C,U15*%
X151800000Y46975000D03*
X151800000Y46325000D03*
X151800000Y45675000D03*
X151800000Y45025000D03*
X156200000Y45025000D03*
X156200000Y45675000D03*
X156200000Y46325000D03*
X156200000Y46975000D03*
%TD*%
D34*
%TO.C,J7*%
X177460000Y40000000D03*
X177460000Y44250000D03*
X177460000Y35750000D03*
%TD*%
D13*
%TO.C,C49*%
X65050000Y16000000D03*
X66950000Y16000000D03*
%TD*%
D14*
%TO.C,C1*%
X166950000Y77200001D03*
X165050000Y77200001D03*
%TD*%
D12*
%TO.C,R56*%
X96000000Y33087500D03*
X96000000Y34912500D03*
%TD*%
D13*
%TO.C,C50*%
X71050000Y16000000D03*
X72950000Y16000000D03*
%TD*%
D17*
%TO.C,D26*%
X12000000Y51400000D03*
X12000000Y48600000D03*
%TD*%
D42*
%TO.C,C13*%
X172000000Y55450000D03*
X172000000Y53550000D03*
%TD*%
D18*
%TO.C,C33*%
X92500000Y65550000D03*
X92500000Y67450000D03*
%TD*%
D16*
%TO.C,R81*%
X143087500Y9000000D03*
X144912500Y9000000D03*
%TD*%
D13*
%TO.C,C76*%
X119050000Y39000000D03*
X120950000Y39000000D03*
%TD*%
D12*
%TO.C,R59*%
X18000000Y21087500D03*
X18000000Y22912500D03*
%TD*%
%TO.C,R17*%
X54000000Y57087500D03*
X54000000Y58912500D03*
%TD*%
D16*
%TO.C,R168*%
X165587500Y84000000D03*
X167412500Y84000000D03*
%TD*%
D17*
%TO.C,D21*%
X78000000Y63400000D03*
X78000000Y60600000D03*
%TD*%
D19*
%TO.C,R106*%
X48000000Y77912500D03*
X48000000Y76087500D03*
%TD*%
D24*
%TO.C,R6*%
X150912500Y23000000D03*
X149087500Y23000000D03*
%TD*%
%TO.C,R163*%
X164912500Y40000000D03*
X163087500Y40000000D03*
%TD*%
D17*
%TO.C,D45*%
X30000000Y39400000D03*
X30000000Y36600000D03*
%TD*%
D12*
%TO.C,R149*%
X68000000Y94087500D03*
X68000000Y95912500D03*
%TD*%
%TO.C,R35*%
X66000000Y45087500D03*
X66000000Y46912500D03*
%TD*%
D13*
%TO.C,C53*%
X89050000Y16000000D03*
X90950000Y16000000D03*
%TD*%
D19*
%TO.C,R108*%
X60000000Y77912500D03*
X60000000Y76087500D03*
%TD*%
D17*
%TO.C,D34*%
X60000000Y51400000D03*
X60000000Y48600000D03*
%TD*%
D12*
%TO.C,R122*%
X27000000Y74087500D03*
X27000000Y75912500D03*
%TD*%
%TO.C,R151*%
X80000000Y94087500D03*
X80000000Y95912500D03*
%TD*%
D17*
%TO.C,D39*%
X90000000Y51400000D03*
X90000000Y48600000D03*
%TD*%
D25*
%TO.C,U4*%
X82075000Y83137500D03*
X82725000Y83137500D03*
X83375000Y83137500D03*
X84025000Y83137500D03*
X84675000Y83137500D03*
X85325000Y83137500D03*
X85975000Y83137500D03*
X86625000Y83137500D03*
X87275000Y83137500D03*
X87925000Y83137500D03*
X87925000Y88862500D03*
X87275000Y88862500D03*
X86625000Y88862500D03*
X85975000Y88862500D03*
X85325000Y88862500D03*
X84675000Y88862500D03*
X84025000Y88862500D03*
X83375000Y88862500D03*
X82725000Y88862500D03*
X82075000Y88862500D03*
%TD*%
D37*
%TO.C,Q9*%
X60950000Y72937500D03*
X59050000Y72937500D03*
X60000000Y71062500D03*
%TD*%
D17*
%TO.C,D17*%
X54000000Y63400000D03*
X54000000Y60600000D03*
%TD*%
D24*
%TO.C,R7*%
X150912500Y19000000D03*
X149087500Y19000000D03*
%TD*%
D12*
%TO.C,R33*%
X54000000Y45087500D03*
X54000000Y46912500D03*
%TD*%
%TO.C,R72*%
X96000000Y21087500D03*
X96000000Y22912500D03*
%TD*%
%TO.C,R49*%
X54000000Y33087500D03*
X54000000Y34912500D03*
%TD*%
D17*
%TO.C,D16*%
X48000000Y63400000D03*
X48000000Y60600000D03*
%TD*%
D12*
%TO.C,R39*%
X90000000Y45087500D03*
X90000000Y46912500D03*
%TD*%
%TO.C,R26*%
X12000000Y45087500D03*
X12000000Y46912500D03*
%TD*%
D18*
%TO.C,C20*%
X14500000Y65550000D03*
X14500000Y67450000D03*
%TD*%
D12*
%TO.C,R47*%
X42000000Y33087500D03*
X42000000Y34912500D03*
%TD*%
%TO.C,R42*%
X12000000Y33087500D03*
X12000000Y34912500D03*
%TD*%
D14*
%TO.C,C6*%
X155750000Y31550000D03*
X153850000Y31550000D03*
%TD*%
D12*
%TO.C,R25*%
X102000000Y57087500D03*
X102000000Y58912500D03*
%TD*%
D19*
%TO.C,R102*%
X24000000Y77912500D03*
X24000000Y76087500D03*
%TD*%
D37*
%TO.C,Q15*%
X96950000Y72937500D03*
X95050000Y72937500D03*
X96000000Y71062500D03*
%TD*%
D17*
%TO.C,D35*%
X66000000Y51400000D03*
X66000000Y48600000D03*
%TD*%
D12*
%TO.C,R48*%
X48000000Y33087500D03*
X48000000Y34912500D03*
%TD*%
D21*
%TO.C,U9*%
X167137500Y59050000D03*
X167137500Y60000000D03*
X167137500Y60950000D03*
X164862500Y60950000D03*
X164862500Y60000000D03*
X164862500Y59050000D03*
%TD*%
D12*
%TO.C,R31*%
X42000000Y45087500D03*
X42000000Y46912500D03*
%TD*%
%TO.C,R155*%
X104000000Y94087500D03*
X104000000Y95912500D03*
%TD*%
D20*
%TO.C,U2*%
X150862500Y64950000D03*
X150862500Y64000000D03*
X150862500Y63050000D03*
X153137500Y63050000D03*
X153137500Y64950000D03*
%TD*%
D17*
%TO.C,D28*%
X24000000Y51400000D03*
X24000000Y48600000D03*
%TD*%
%TO.C,D48*%
X48000000Y39400000D03*
X48000000Y36600000D03*
%TD*%
D12*
%TO.C,R66*%
X60000000Y21087500D03*
X60000000Y22912500D03*
%TD*%
D17*
%TO.C,D71*%
X90000000Y27400000D03*
X90000000Y24600000D03*
%TD*%
%TO.C,D36*%
X72000000Y51400000D03*
X72000000Y48600000D03*
%TD*%
D43*
%TO.C,Y1*%
X131000000Y43000000D03*
X137000000Y43000000D03*
X137000000Y47000000D03*
X131000000Y47000000D03*
%TD*%
D17*
%TO.C,D56*%
X96000000Y39400000D03*
X96000000Y36600000D03*
%TD*%
%TO.C,D51*%
X66000000Y39400000D03*
X66000000Y36600000D03*
%TD*%
%TO.C,D58*%
X12000000Y27400000D03*
X12000000Y24600000D03*
%TD*%
D12*
%TO.C,R152*%
X86000000Y94087500D03*
X86000000Y95912500D03*
%TD*%
D16*
%TO.C,R172*%
X153087500Y41000000D03*
X154912500Y41000000D03*
%TD*%
D17*
%TO.C,D11*%
X18000000Y63400000D03*
X18000000Y60600000D03*
%TD*%
D12*
%TO.C,R36*%
X72000000Y45087500D03*
X72000000Y46912500D03*
%TD*%
D15*
%TO.C,H4*%
X4000000Y4000000D03*
%TD*%
D12*
%TO.C,R10*%
X12000000Y57087500D03*
X12000000Y58912500D03*
%TD*%
D17*
%TO.C,D72*%
X96000000Y27400000D03*
X96000000Y24600000D03*
%TD*%
D12*
%TO.C,R123*%
X33000000Y74087500D03*
X33000000Y75912500D03*
%TD*%
D13*
%TO.C,C61*%
X152050000Y69500000D03*
X153950000Y69500000D03*
%TD*%
D19*
%TO.C,R114*%
X96000000Y77912500D03*
X96000000Y76087500D03*
%TD*%
D44*
%TO.C,L2*%
X158485000Y46325000D03*
X160515000Y46325000D03*
%TD*%
D17*
%TO.C,D52*%
X72000000Y39400000D03*
X72000000Y36600000D03*
%TD*%
%TO.C,D68*%
X72000000Y27400000D03*
X72000000Y24600000D03*
%TD*%
D12*
%TO.C,R40*%
X96000000Y45087500D03*
X96000000Y46912500D03*
%TD*%
D45*
%TO.C,U11*%
X167275000Y89200000D03*
X167275000Y88800000D03*
D46*
X167400000Y88175000D03*
X167800000Y88175000D03*
X168200000Y88175000D03*
X168600000Y88175000D03*
D45*
X168725000Y88800000D03*
X168725000Y89200000D03*
D46*
X168600000Y89825000D03*
X168200000Y89825000D03*
X167800000Y89825000D03*
X167400000Y89825000D03*
%TD*%
D17*
%TO.C,D30*%
X36000000Y51400000D03*
X36000000Y48600000D03*
%TD*%
D18*
%TO.C,C35*%
X104500000Y65550000D03*
X104500000Y67450000D03*
%TD*%
D12*
%TO.C,R61*%
X30000000Y21087500D03*
X30000000Y22912500D03*
%TD*%
D37*
%TO.C,Q5*%
X36950000Y72937500D03*
X35050000Y72937500D03*
X36000000Y71062500D03*
%TD*%
D18*
%TO.C,C32*%
X86500000Y65550000D03*
X86500000Y67450000D03*
%TD*%
D37*
%TO.C,Q8*%
X54950000Y72937500D03*
X53050000Y72937500D03*
X54000000Y71062500D03*
%TD*%
D17*
%TO.C,D14*%
X36000000Y63400000D03*
X36000000Y60600000D03*
%TD*%
%TO.C,D46*%
X36000000Y39400000D03*
X36000000Y36600000D03*
%TD*%
D12*
%TO.C,R140*%
X14000000Y94087500D03*
X14000000Y95912500D03*
%TD*%
D17*
%TO.C,D65*%
X54000000Y27400000D03*
X54000000Y24600000D03*
%TD*%
D16*
%TO.C,R164*%
X157087500Y93000000D03*
X158912500Y93000000D03*
%TD*%
D17*
%TO.C,D10*%
X12000000Y63400000D03*
X12000000Y60600000D03*
%TD*%
D14*
%TO.C,C5*%
X80700000Y88862500D03*
X78800000Y88862500D03*
%TD*%
D21*
%TO.C,U7*%
X162137500Y56050000D03*
X162137500Y57000000D03*
X162137500Y57950000D03*
X159862500Y57950000D03*
X159862500Y56050000D03*
%TD*%
D12*
%TO.C,R147*%
X56000000Y94087500D03*
X56000000Y95912500D03*
%TD*%
D13*
%TO.C,C44*%
X35050000Y16000000D03*
X36950000Y16000000D03*
%TD*%
D12*
%TO.C,R124*%
X39000000Y74087500D03*
X39000000Y75912500D03*
%TD*%
D13*
%TO.C,C48*%
X59050000Y16000000D03*
X60950000Y16000000D03*
%TD*%
D12*
%TO.C,R142*%
X26000000Y94087500D03*
X26000000Y95912500D03*
%TD*%
%TO.C,R144*%
X38000000Y94087500D03*
X38000000Y95912500D03*
%TD*%
D37*
%TO.C,Q4*%
X30950000Y72937500D03*
X29050000Y72937500D03*
X30000000Y71062500D03*
%TD*%
D12*
%TO.C,R32*%
X48000000Y45087500D03*
X48000000Y46912500D03*
%TD*%
D47*
%TO.C,R5*%
X175000000Y31962500D03*
X175000000Y29037500D03*
%TD*%
D16*
%TO.C,R171*%
X157087500Y41000000D03*
X158912500Y41000000D03*
%TD*%
D17*
%TO.C,D67*%
X66000000Y27400000D03*
X66000000Y24600000D03*
%TD*%
D37*
%TO.C,Q12*%
X78950000Y72937500D03*
X77050000Y72937500D03*
X78000000Y71062500D03*
%TD*%
D12*
%TO.C,R145*%
X44000000Y94087500D03*
X44000000Y95912500D03*
%TD*%
%TO.C,R54*%
X84000000Y33087500D03*
X84000000Y34912500D03*
%TD*%
D17*
%TO.C,D22*%
X84000000Y63400000D03*
X84000000Y60600000D03*
%TD*%
D12*
%TO.C,R12*%
X24000000Y57087500D03*
X24000000Y58912500D03*
%TD*%
D15*
%TO.C,H1*%
X135000000Y73200000D03*
%TD*%
D12*
%TO.C,R125*%
X45000000Y74087500D03*
X45000000Y75912500D03*
%TD*%
D19*
%TO.C,R111*%
X78000000Y77912500D03*
X78000000Y76087500D03*
%TD*%
D17*
%TO.C,D18*%
X60000000Y63400000D03*
X60000000Y60600000D03*
%TD*%
D48*
%TO.C,U14*%
X151987500Y76750000D03*
X151987500Y76250000D03*
X151987500Y75750000D03*
X151987500Y75250000D03*
X154012500Y75250000D03*
X154012500Y75750000D03*
X154012500Y76250000D03*
X154012500Y76750000D03*
D49*
X153000000Y76000000D03*
%TD*%
D18*
%TO.C,C27*%
X56500000Y65550000D03*
X56500000Y67450000D03*
%TD*%
D12*
%TO.C,R63*%
X42000000Y21087500D03*
X42000000Y22912500D03*
%TD*%
D37*
%TO.C,Q13*%
X84950000Y72937500D03*
X83050000Y72937500D03*
X84000000Y71062500D03*
%TD*%
D12*
%TO.C,R41*%
X102000000Y45087500D03*
X102000000Y46912500D03*
%TD*%
D20*
%TO.C,U12*%
X154862500Y87950000D03*
X154862500Y87000000D03*
X154862500Y86050000D03*
X157137500Y86050000D03*
X157137500Y87950000D03*
%TD*%
D17*
%TO.C,D27*%
X18000000Y51400000D03*
X18000000Y48600000D03*
%TD*%
D19*
%TO.C,R110*%
X72000000Y77912500D03*
X72000000Y76087500D03*
%TD*%
D12*
%TO.C,R174*%
X125730000Y38087500D03*
X125730000Y39912500D03*
%TD*%
D18*
%TO.C,C28*%
X62500000Y65550000D03*
X62500000Y67450000D03*
%TD*%
D14*
%TO.C,C14*%
X162750000Y60950000D03*
X160850000Y60950000D03*
%TD*%
D12*
%TO.C,R73*%
X102000000Y21087500D03*
X102000000Y22912500D03*
%TD*%
%TO.C,R71*%
X90000000Y21087500D03*
X90000000Y22912500D03*
%TD*%
D17*
%TO.C,D24*%
X96000000Y63400000D03*
X96000000Y60600000D03*
%TD*%
%TO.C,D32*%
X48000000Y51400000D03*
X48000000Y48600000D03*
%TD*%
D18*
%TO.C,C25*%
X44500000Y65550000D03*
X44500000Y67450000D03*
%TD*%
D12*
%TO.C,R68*%
X72000000Y21087500D03*
X72000000Y22912500D03*
%TD*%
D34*
%TO.C,J6*%
X177460000Y60000000D03*
X177460000Y64250000D03*
X177460000Y55750000D03*
%TD*%
D12*
%TO.C,R45*%
X30000000Y33087500D03*
X30000000Y34912500D03*
%TD*%
%TO.C,R46*%
X36000000Y33087500D03*
X36000000Y34912500D03*
%TD*%
%TO.C,R130*%
X75000000Y74087500D03*
X75000000Y75912500D03*
%TD*%
D17*
%TO.C,D61*%
X30000000Y27400000D03*
X30000000Y24600000D03*
%TD*%
D12*
%TO.C,R43*%
X18000000Y33087500D03*
X18000000Y34912500D03*
%TD*%
D18*
%TO.C,C22*%
X26500000Y65550000D03*
X26500000Y67450000D03*
%TD*%
D17*
%TO.C,D42*%
X12000000Y39400000D03*
X12000000Y36600000D03*
%TD*%
D12*
%TO.C,R67*%
X66000000Y21087500D03*
X66000000Y22912500D03*
%TD*%
%TO.C,R50*%
X60000000Y33087500D03*
X60000000Y34912500D03*
%TD*%
D17*
%TO.C,D44*%
X24000000Y39400000D03*
X24000000Y36600000D03*
%TD*%
D12*
%TO.C,R53*%
X78000000Y33087500D03*
X78000000Y34912500D03*
%TD*%
D13*
%TO.C,C66*%
X159250000Y87950000D03*
X161150000Y87950000D03*
%TD*%
D19*
%TO.C,R115*%
X102000000Y77912500D03*
X102000000Y76087500D03*
%TD*%
D24*
%TO.C,R3*%
X163912500Y67200000D03*
X162087500Y67200000D03*
%TD*%
D19*
%TO.C,R112*%
X84000000Y77912500D03*
X84000000Y76087500D03*
%TD*%
D16*
%TO.C,R165*%
X161087500Y93000000D03*
X162912500Y93000000D03*
%TD*%
D50*
%TO.C,L1*%
X172250000Y21910000D03*
X172250000Y23690000D03*
%TD*%
D37*
%TO.C,Q10*%
X66950000Y72937500D03*
X65050000Y72937500D03*
X66000000Y71062500D03*
%TD*%
D17*
%TO.C,D66*%
X60000000Y27400000D03*
X60000000Y24600000D03*
%TD*%
D19*
%TO.C,R104*%
X36000000Y77912500D03*
X36000000Y76087500D03*
%TD*%
D12*
%TO.C,R69*%
X78000000Y21087500D03*
X78000000Y22912500D03*
%TD*%
%TO.C,R141*%
X20000000Y94087500D03*
X20000000Y95912500D03*
%TD*%
%TO.C,R143*%
X32000000Y94087500D03*
X32000000Y95912500D03*
%TD*%
D17*
%TO.C,D31*%
X42000000Y51400000D03*
X42000000Y48600000D03*
%TD*%
D14*
%TO.C,C74*%
X127250000Y44000000D03*
X125350000Y44000000D03*
%TD*%
D16*
%TO.C,R167*%
X161587500Y84000000D03*
X163412500Y84000000D03*
%TD*%
D13*
%TO.C,C43*%
X29050000Y16000000D03*
X30950000Y16000000D03*
%TD*%
D16*
%TO.C,R173*%
X141087500Y49000000D03*
X142912500Y49000000D03*
%TD*%
D17*
%TO.C,D54*%
X84000000Y39400000D03*
X84000000Y36600000D03*
%TD*%
%TO.C,D60*%
X24000000Y27400000D03*
X24000000Y24600000D03*
%TD*%
D12*
%TO.C,R18*%
X60000000Y57087500D03*
X60000000Y58912500D03*
%TD*%
D16*
%TO.C,R170*%
X152087500Y72500000D03*
X153912500Y72500000D03*
%TD*%
D12*
%TO.C,R127*%
X57000000Y74087500D03*
X57000000Y75912500D03*
%TD*%
D37*
%TO.C,Q2*%
X18950000Y72937500D03*
X17050000Y72937500D03*
X18000000Y71062500D03*
%TD*%
D18*
%TO.C,C72*%
X163000000Y43050000D03*
X163000000Y44950000D03*
%TD*%
D13*
%TO.C,C10*%
X171300000Y26500000D03*
X173200000Y26500000D03*
%TD*%
%TO.C,C51*%
X77050000Y16000000D03*
X78950000Y16000000D03*
%TD*%
%TO.C,C42*%
X23050000Y16000000D03*
X24950000Y16000000D03*
%TD*%
D12*
%TO.C,R23*%
X90000000Y57087500D03*
X90000000Y58912500D03*
%TD*%
%TO.C,R14*%
X36000000Y57087500D03*
X36000000Y58912500D03*
%TD*%
%TO.C,R134*%
X99000000Y74087500D03*
X99000000Y75912500D03*
%TD*%
D14*
%TO.C,C12*%
X167250000Y33950000D03*
X165350000Y33950000D03*
%TD*%
%LPD*%
M02*
