M48
; DRILL file KiCad 10.0.6-10.0.6~ubuntu24.04.1 date 2026-09-27T19:15:34
; FORMAT={-:-/ absolute / metric / decimal}
; #@! TF.CreationDate,2026-09-27T19:15:34-07:00
; #@! TF.GenerationSoftware,Kicad,Pcbnew,10.0.6-10.0.6~ubuntu24.04.1
; #@! TF.FileFunction,MixedPlating,1,4
FMAT,2
METRIC
; #@! TA.AperFunction,Plated,PTH,ViaDrill
T1C0.250
; #@! TA.AperFunction,Plated,PTH,ViaDrill
T2C0.300
; #@! TA.AperFunction,Plated,PTH,ComponentDrill
T3C0.600
; #@! TA.AperFunction,Plated,PTH,ComponentDrill
T4C1.100
; #@! TA.AperFunction,NonPlated,NPTH,ComponentDrill
T5C0.650
; #@! TA.AperFunction,NonPlated,NPTH,ComponentDrill
T6C2.700
; #@! TA.AperFunction,NonPlated,NPTH,ComponentDrill
T7C3.200
%
G90
G05
T1
X31.05Y-35.812
X31.05Y-95.25
X32.0Y-54.025
X32.0Y-66.025
X32.0Y-78.025
X32.0Y-90.025
X32.95Y-95.25
X35.75Y-39.725
X35.75Y-41.275
X37.05Y-35.812
X37.05Y-95.25
X38.0Y-54.025
X38.0Y-66.025
X38.0Y-78.025
X38.0Y-90.025
X38.95Y-95.25
X41.75Y-39.725
X41.75Y-41.275
X43.05Y-35.812
X43.05Y-95.25
X44.0Y-54.025
X44.0Y-66.025
X44.0Y-78.025
X44.0Y-90.025
X44.95Y-95.25
X47.75Y-39.725
X47.75Y-41.275
X49.05Y-35.812
X49.05Y-95.25
X50.0Y-54.025
X50.0Y-66.025
X50.0Y-78.025
X50.0Y-90.025
X50.95Y-95.25
X53.75Y-39.725
X53.75Y-41.275
X55.05Y-35.812
X55.05Y-95.25
X56.0Y-54.025
X56.0Y-66.025
X56.0Y-78.025
X56.0Y-90.025
X56.575Y-19.85
X56.95Y-95.25
X57.5Y-24.6
X58.55Y-25.362
X59.75Y-39.725
X59.75Y-41.275
X61.05Y-35.812
X61.05Y-95.25
X62.0Y-54.025
X62.0Y-66.025
X62.0Y-78.025
X62.0Y-90.025
X62.95Y-95.25
X65.75Y-39.725
X65.75Y-41.275
X67.05Y-35.812
X67.05Y-95.25
X68.0Y-54.025
X68.0Y-66.025
X68.0Y-78.025
X68.0Y-90.025
X68.95Y-95.25
X71.75Y-39.725
X71.75Y-41.275
X73.05Y-35.812
X73.05Y-95.25
X74.0Y-54.025
X74.0Y-66.025
X74.0Y-78.025
X74.0Y-90.025
X74.95Y-95.25
X77.75Y-39.725
X77.75Y-41.275
X79.05Y-35.812
X79.05Y-95.25
X80.0Y-54.025
X80.0Y-66.025
X80.0Y-78.025
X80.0Y-90.025
X80.95Y-95.25
X83.75Y-39.725
X83.75Y-41.275
X85.05Y-35.812
X85.05Y-95.25
X86.0Y-54.025
X86.0Y-66.025
X86.0Y-78.025
X86.0Y-90.025
X86.95Y-95.25
X89.75Y-39.725
X89.75Y-41.275
X91.05Y-35.812
X91.05Y-95.25
X92.0Y-54.025
X92.0Y-66.025
X92.0Y-78.025
X92.0Y-90.025
X92.95Y-95.25
X95.75Y-39.725
X95.75Y-41.275
X97.05Y-35.812
X97.05Y-95.25
X98.0Y-54.025
X98.0Y-66.025
X98.0Y-78.025
X98.0Y-90.025
X98.95Y-95.25
X101.75Y-39.725
X101.75Y-41.275
X103.05Y-35.812
X103.05Y-95.25
X104.0Y-54.025
X104.0Y-66.025
X104.0Y-78.025
X104.0Y-90.025
X104.575Y-19.85
X104.95Y-95.25
X105.5Y-24.6
X106.55Y-25.362
X107.75Y-39.725
X107.75Y-41.275
X109.05Y-35.812
X109.05Y-95.25
X110.0Y-54.025
X110.0Y-66.025
X110.0Y-78.025
X110.0Y-90.025
X110.95Y-95.25
X113.75Y-39.725
X113.75Y-41.275
X114.087Y-25.362
X115.05Y-35.812
X115.05Y-95.25
X115.912Y-21.5
X116.0Y-54.025
X116.0Y-66.025
X116.0Y-78.025
X116.0Y-90.025
X116.95Y-95.25
X119.75Y-39.725
X119.75Y-41.275
X121.05Y-35.812
X121.05Y-95.25
X122.0Y-54.025
X122.0Y-66.025
X122.0Y-78.025
X122.0Y-90.025
X122.95Y-95.25
X125.75Y-39.725
X125.75Y-41.275
X126.55Y-33.8
X143.5Y-64.0
X148.2Y-56.1
X150.5Y-24.2
X151.1Y-24.8
X151.7Y-24.6
X152.3Y-24.1
X152.8Y-52.8
X152.9Y-24.6
X153.5Y-24.1
X154.0Y-66.65
X154.8Y-56.0
X155.9Y-68.73
X156.0Y-20.2
X156.6Y-52.2
X156.7Y-20.9
X157.8Y-20.9
X158.8Y-20.9
X159.0Y-62.2
X160.5Y-26.6
X161.55Y-75.3
X163.6Y-67.7
X163.6Y-72.3
X163.8Y-62.2
X164.0Y-49.0
X164.38Y-46.87
X164.6Y-60.6
X164.7Y-63.3
X166.55Y-41.15
X166.6Y-44.6
X167.3Y-60.6
X168.05Y-39.0
X170.0Y-35.55
X170.7Y-31.0
X170.9Y-33.75
X171.3Y-78.45
X171.7Y-49.0
X171.7Y-52.0
X171.7Y-82.6
X171.7Y-94.0
X171.7Y-97.2
X171.95Y-28.9
X172.05Y-39.0
X172.088Y-36.0
X172.7Y-56.9
X172.75Y-25.4
X172.8Y-66.45
X173.088Y-58.5
X174.0Y-71.35
X174.8Y-73.5
X175.0Y-33.75
X175.25Y-28.6
X175.65Y-85.6
X175.9Y-24.7
X176.0Y-37.0
X176.0Y-53.2
X176.05Y-39.0
X176.8Y-29.35
X176.8Y-30.6
X177.0Y-24.8
X177.0Y-84.5
X177.05Y-56.4
X177.088Y-37.7
X177.3Y-83.4
X177.3Y-86.7
X178.0Y-24.8
X178.8Y-75.4
X180.05Y-39.0
X180.15Y-47.5
X180.25Y-37.7
X180.4Y-55.0
X180.887Y-34.3
X181.3Y-76.55
X183.1Y-55.0
X183.412Y-27.4
X183.45Y-46.1
X184.35Y-36.3
X185.0Y-21.5
X185.65Y-65.8
X186.1Y-22.6
X186.5Y-29.05
X186.5Y-30.95
X186.95Y-34.3
X187.412Y-27.4
X188.0Y-24.5
X189.05Y-16.5
X189.5Y-64.4
X190.0Y-23.8
X190.25Y-21.0
X190.5Y-29.05
X190.75Y-30.1
X190.9Y-31.85
X191.0Y-21.5
X191.2Y-55.0
X191.4Y-28.25
X191.4Y-33.05
X191.7Y-28.9
X191.7Y-30.25
X191.7Y-31.3
X191.9Y-27.55
X194.5Y-80.912
X198.4Y-82.487
T2
X34.5Y-45.95
X40.5Y-45.95
X46.5Y-45.95
X52.5Y-45.95
X58.5Y-45.95
X64.5Y-45.95
X70.5Y-45.95
X76.5Y-45.95
X82.5Y-45.95
X88.5Y-45.95
X94.5Y-45.95
X100.5Y-45.95
X106.5Y-45.95
X112.5Y-45.95
X118.5Y-45.95
X124.5Y-45.95
X132.0Y-73.5
X147.0Y-70.087
X152.2Y-71.287
X153.2Y-21.4
X154.4Y-21.4
X166.3Y-18.0
X168.75Y-30.4
X176.0Y-73.0
X176.25Y-86.3
X182.25Y-80.2
X185.3Y-42.8
T4
X143.19Y-75.42
X145.73Y-75.42
X148.27Y-75.42
X150.81Y-75.42
T5
X194.6Y-27.11
X194.6Y-32.89
T6
X135.35Y-76.1
X135.35Y-99.9
X158.65Y-76.1
X158.65Y-99.9
T7
X24.0Y-14.0
X24.0Y-106.0
X155.0Y-36.8
X196.0Y-14.0
X196.0Y-106.0
T3
X193.52Y-25.68G85X194.62Y-25.68
G05
X193.52Y-34.32G85X194.62Y-34.32
G05
X197.95Y-25.68G85X198.55Y-25.68
G05
X197.95Y-34.32G85X198.55Y-34.32
G05
M30
