%TF.GenerationSoftware,KiCad,Pcbnew,10.0.6-10.0.6~ubuntu24.04.1*%
%TF.CreationDate,2026-09-26T10:06:51-07:00*%
%TF.ProjectId,module,6d6f6475-6c65-42e6-9b69-6361645f7063,rev?*%
%TF.SameCoordinates,Original*%
%TF.FileFunction,Copper,L3,Inr*%
%TF.FilePolarity,Positive*%
%FSLAX46Y46*%
G04 Gerber Fmt 4.6, Leading zero omitted, Abs format (unit mm)*
G04 Created by KiCad (PCBNEW 10.0.6-10.0.6~ubuntu24.04.1) date 2026-09-26 10:06:51*
%MOMM*%
%LPD*%
G01*
G04 APERTURE LIST*
%TA.AperFunction,ViaPad*%
%ADD10C,0.450000*%
%TD*%
%TA.AperFunction,Conductor*%
%ADD11C,0.200000*%
%TD*%
%TA.AperFunction,Conductor*%
%ADD12C,0.100000*%
%TD*%
%TA.AperFunction,Conductor*%
%ADD13C,0.250000*%
%TD*%
%TA.AperFunction,Conductor*%
%ADD14C,0.150000*%
%TD*%
G04 APERTURE END LIST*
D10*
%TO.N,+3.3V*%
X16515400Y-43100000D03*
X15200000Y-10300000D03*
X1775000Y-21500000D03*
X4100000Y-9500000D03*
X12100000Y-33200000D03*
X13800000Y-10700000D03*
X5125000Y-24325000D03*
X13950000Y-24200000D03*
X19000000Y-42800000D03*
X19200000Y-23000000D03*
X14200000Y-32824999D03*
X19000000Y-39000000D03*
X14375000Y-17325000D03*
X7175000Y-19925000D03*
X13000000Y-32199999D03*
X4400000Y-16800000D03*
X14350000Y-30700000D03*
X14250000Y-14900000D03*
X8250000Y-35200000D03*
X5175000Y-14925000D03*
X14200000Y-25900000D03*
X4075000Y-43600000D03*
X8650000Y-33650000D03*
X15900000Y-12400000D03*
%TO.N,GND*%
X4450000Y-18800000D03*
X2015400Y-39950000D03*
X14300000Y-18250000D03*
X1000000Y-9100000D03*
X1725000Y-37550000D03*
X10950000Y-7800000D03*
X13169200Y-10200000D03*
X5487500Y-36111480D03*
X14300000Y-35200000D03*
X2015400Y-41250000D03*
X3700000Y-33300000D03*
X1725000Y-42650000D03*
X6015400Y-33650000D03*
X17750000Y-31100000D03*
X9500000Y-4525000D03*
X5700000Y-35200000D03*
X11350000Y-31750000D03*
X13000000Y-7200000D03*
X13169200Y-9200000D03*
X18284600Y-42250000D03*
X4450000Y-20075000D03*
X18284600Y-40250000D03*
X14300000Y-21050000D03*
X14900000Y-4525000D03*
X2015400Y-38750000D03*
X18800000Y-21800000D03*
X5800000Y-43000000D03*
X4875000Y-26500000D03*
%TO.N,/FPGA_CRESET_N*%
X15500000Y-38750000D03*
X11800000Y-19900000D03*
%TO.N,+1.2V*%
X4384600Y-39950000D03*
X1175000Y-25500000D03*
X16515400Y-41100000D03*
X2775000Y-35050000D03*
%TO.N,/FPGA_CDONE*%
X12200000Y-20550000D03*
X14900000Y-39550000D03*
X19000000Y-36000000D03*
%TO.N,/ESP_EN*%
X14400000Y-12500000D03*
X16900000Y-10400000D03*
%TO.N,/ESP_GPIO0_BOOT*%
X6800000Y-20925000D03*
X11000000Y-11100000D03*
%TO.N,VIN_5V*%
X16000000Y-18700000D03*
%TO.N,/ESP_GPIO1*%
X10600000Y-10450000D03*
%TO.N,/ESP_GPIO2*%
X10200000Y-11100000D03*
%TO.N,/ESP_GPIO3*%
X9800000Y-10450000D03*
%TO.N,/ESP_GPIO4*%
X9400000Y-11100000D03*
%TO.N,/ESP_GPIO5*%
X9000000Y-10450000D03*
%TO.N,/ESP_GPIO6*%
X8600000Y-11100000D03*
%TO.N,/ESP_GPIO7*%
X8200000Y-10450000D03*
%TO.N,/ESP_GPIO8*%
X7800000Y-11100000D03*
%TO.N,/LINK_IO3*%
X7400000Y-10450000D03*
X10250000Y-34200000D03*
%TO.N,/LINK_CS_N*%
X4900000Y-12900000D03*
X11250000Y-35200000D03*
%TO.N,/LINK_MOSI*%
X2800000Y-19000000D03*
X5600000Y-13300000D03*
X10750000Y-34500000D03*
%TO.N,/LINK_MISO*%
X5600000Y-14100000D03*
X12250000Y-35200000D03*
%TO.N,/LINK_IO2*%
X4300000Y-13700000D03*
X12750000Y-34500000D03*
X10500000Y-32199999D03*
X5675000Y-24275000D03*
%TO.N,/ESP_GPIO15*%
X5600000Y-15300000D03*
X8425000Y-19775000D03*
%TO.N,/ESP_GPIO16*%
X4800000Y-15700000D03*
X7150000Y-22500000D03*
%TO.N,/ESP_GPIO17*%
X5600000Y-16100000D03*
X8800000Y-22000000D03*
%TO.N,/ESP_GPIO18*%
X6725000Y-23100000D03*
X4500000Y-16200000D03*
%TO.N,/USB_D-*%
X5300000Y-16850000D03*
%TO.N,/USB_D+*%
X5650000Y-17300000D03*
%TO.N,/ESP_GPIO21*%
X5675000Y-18375000D03*
%TO.N,/ESP_GPIO33*%
X10600000Y-19800000D03*
%TO.N,/ESP_GPIO34*%
X9800000Y-20400000D03*
%TO.N,/ESP_GPIO35*%
X11400000Y-20300000D03*
%TO.N,/ESP_GPIO38*%
X12600000Y-20000000D03*
X5500000Y-18900000D03*
%TO.N,/ESP_GPIO39*%
X15100000Y-18200000D03*
%TO.N,/ESP_GPIO40*%
X14700000Y-17800000D03*
%TO.N,/ESP_GPIO41*%
X15100000Y-16900000D03*
%TO.N,/ESP_GPIO42*%
X14300000Y-16500000D03*
%TO.N,/ESP_GPIO43_TXD*%
X15100000Y-16100000D03*
%TO.N,/ESP_GPIO44_RXD*%
X13200000Y-19400000D03*
X14300000Y-15700000D03*
%TO.N,/ESP_GPIO45*%
X15500000Y-15300000D03*
X9000000Y-19800000D03*
%TO.N,/ESP_GPIO46*%
X8700000Y-20300000D03*
X14300000Y-13200000D03*
%TO.N,/FPGA_IOB_6A*%
X14800000Y-41750000D03*
%TO.N,/FPGA_IOB_9B*%
X15400000Y-41550000D03*
%TO.N,/FPGA_IOB_8A*%
X14700000Y-40750000D03*
%TO.N,/FPGA_IOB_13B*%
X15300000Y-40750000D03*
%TO.N,/FPGA_IOB_16A*%
X15000000Y-38250000D03*
%TO.N,/FPGA_IOB_18A*%
X14300000Y-37750000D03*
%TO.N,/FPGA_IOB_20A*%
X15000000Y-37250000D03*
%TO.N,/FPGA_IOB_22A*%
X14300000Y-36750000D03*
%TO.N,/FPGA_IOB_29B*%
X9750000Y-34500000D03*
%TO.N,/FPGA_IOB_25B_G3*%
X9250000Y-35200000D03*
%TO.N,/FPGA_IOB_23B*%
X8750000Y-34500000D03*
%TO.N,/FPGA_IOT_37A*%
X7750000Y-34500000D03*
%TO.N,/FPGA_IOT_36B*%
X5000000Y-36750000D03*
%TO.N,/FPGA_IOT_39A*%
X5700000Y-37250000D03*
%TO.N,/FPGA_IOT_38B*%
X4900000Y-37750000D03*
%TO.N,/FPGA_IOT_41A*%
X5200000Y-38250000D03*
%TO.N,/FPGA_IOT_42B*%
X5000000Y-39750000D03*
%TO.N,/FPGA_IOT_43A*%
X5700000Y-40250000D03*
%TO.N,/FPGA_IOT_44B*%
X5000000Y-41250000D03*
%TO.N,/FPGA_IOT_46B_G0*%
X4700000Y-41750000D03*
%TO.N,/FPGA_IOT_48B*%
X5200000Y-42150000D03*
%TO.N,/FPGA_IOT_45A_G1*%
X7250000Y-44400000D03*
%TO.N,/FPGA_IOT_50B*%
X7750000Y-43800000D03*
%TO.N,/FPGA_RGB0*%
X19000000Y-44800000D03*
X8150000Y-44800000D03*
%TO.N,/FPGA_RGB1*%
X16950000Y-44700000D03*
X8750000Y-44800000D03*
%TO.N,/FPGA_RGB2*%
X16750000Y-43850000D03*
X9250000Y-44400000D03*
%TO.N,/FPGA_IOT_51A*%
X9750000Y-43800000D03*
%TO.N,/FPGA_IOT_49A*%
X10250000Y-44400000D03*
%TO.N,/FPGA_IOB_3B_G6*%
X10750000Y-44000000D03*
%TO.N,/FPGA_IOB_5B*%
X11250000Y-44400000D03*
%TO.N,/FPGA_IOB_0A*%
X11750000Y-43800000D03*
%TO.N,/FPGA_IOB_2A*%
X12250000Y-44400000D03*
%TO.N,/FPGA_IOB_4A*%
X12750000Y-43800000D03*
%TD*%
%TO.N,+3.3V*%
D11*
X5150000Y-24325000D02*
X5125000Y-24325000D01*
%TO.N,/FPGA_CRESET_N*%
D12*
X15500000Y-26450000D02*
X15500000Y-38750000D01*
X11800000Y-19900000D02*
X11800000Y-22750000D01*
X11800000Y-22750000D02*
X15500000Y-26450000D01*
%TO.N,+1.2V*%
D13*
X4384600Y-36659600D02*
X4384600Y-39950000D01*
X2775000Y-35050000D02*
X4384600Y-36659600D01*
X4384600Y-39950000D02*
X4384600Y-40250000D01*
X16515400Y-40250000D02*
X16515400Y-41100000D01*
X4384600Y-40250000D02*
X4884600Y-40750000D01*
X6650000Y-40250000D02*
X16515400Y-40250000D01*
X4884600Y-40750000D02*
X6150000Y-40750000D01*
X1175000Y-25500000D02*
X4384600Y-28709600D01*
X6150000Y-40750000D02*
X6650000Y-40250000D01*
X4384600Y-28709600D02*
X4384600Y-39950000D01*
%TO.N,/FPGA_CDONE*%
D12*
X15450000Y-39550000D02*
X19000000Y-36000000D01*
X14900000Y-39550000D02*
X15450000Y-39550000D01*
%TO.N,/ESP_EN*%
D14*
X16500000Y-10400000D02*
X14400000Y-12500000D01*
X16900000Y-10400000D02*
X16500000Y-10400000D01*
%TO.N,/ESP_GPIO0_BOOT*%
D12*
X6800000Y-20925000D02*
X6800000Y-11625000D01*
X6825000Y-11600000D02*
X10500000Y-11600000D01*
X10500000Y-11600000D02*
X11000000Y-11100000D01*
X6800000Y-11625000D02*
X6825000Y-11600000D01*
%TO.N,/LINK_IO3*%
X7400000Y-10450000D02*
X6325000Y-11525000D01*
X6325000Y-30275000D02*
X10250000Y-34200000D01*
X6325000Y-11525000D02*
X6325000Y-30275000D01*
%TO.N,/LINK_CS_N*%
X9875000Y-35200000D02*
X11250000Y-35200000D01*
X9350000Y-33775000D02*
X9350000Y-34675000D01*
X6050000Y-30475000D02*
X9350000Y-33775000D01*
X6050000Y-15175000D02*
X6050000Y-30475000D01*
X4900000Y-14025000D02*
X6050000Y-15175000D01*
X9350000Y-34675000D02*
X9875000Y-35200000D01*
X4900000Y-12900000D02*
X4900000Y-14025000D01*
%TO.N,/LINK_MISO*%
X5975000Y-13100000D02*
X5975000Y-13725000D01*
X5400000Y-12525000D02*
X5975000Y-13100000D01*
X11875000Y-35575000D02*
X12250000Y-35200000D01*
X3925000Y-25525000D02*
X3925000Y-13300000D01*
X7400001Y-35575000D02*
X11875000Y-35575000D01*
X5975000Y-13725000D02*
X5600000Y-14100000D01*
X4450000Y-26050000D02*
X5250000Y-26050000D01*
X3925000Y-13300000D02*
X4700000Y-12525000D01*
X4700000Y-12525000D02*
X5400000Y-12525000D01*
X4450000Y-26050000D02*
X3925000Y-25525000D01*
X5250000Y-33424999D02*
X7400001Y-35575000D01*
X5250000Y-26050000D02*
X5250000Y-33424999D01*
%TO.N,/ESP_GPIO44_RXD*%
X13200000Y-19400000D02*
X13200000Y-16800000D01*
X13200000Y-16800000D02*
X14300000Y-15700000D01*
%TO.N,/ESP_GPIO45*%
X13500000Y-15300000D02*
X9000000Y-19800000D01*
X15500000Y-15300000D02*
X13500000Y-15300000D01*
%TO.N,/ESP_GPIO46*%
X8050000Y-20040000D02*
X8310000Y-20300000D01*
X8050000Y-20040000D02*
X8050000Y-19450000D01*
X8050000Y-19450000D02*
X14300000Y-13200000D01*
X8700000Y-20300000D02*
X8310000Y-20300000D01*
%TO.N,/FPGA_RGB0*%
X8150000Y-44800000D02*
X8525000Y-45175000D01*
X18625000Y-45175000D02*
X19000000Y-44800000D01*
X8525000Y-45175000D02*
X18625000Y-45175000D01*
%TO.N,/FPGA_RGB1*%
X8750000Y-44800000D02*
X16850000Y-44800000D01*
X16850000Y-44800000D02*
X16950000Y-44700000D01*
%TO.N,/FPGA_RGB2*%
X9250000Y-44400000D02*
X9250000Y-43625000D01*
X16325000Y-43425000D02*
X16750000Y-43850000D01*
X9450000Y-43425000D02*
X9250000Y-43625000D01*
X9450000Y-43425000D02*
X16325000Y-43425000D01*
%TD*%
%TA.AperFunction,Conductor*%
%TO.N,+3.3V*%
G36*
X4566980Y-12940154D02*
G01*
X4579662Y-12962120D01*
X4596681Y-13025636D01*
X4596682Y-13025640D01*
X4624813Y-13074363D01*
X4639535Y-13099862D01*
X4700138Y-13160465D01*
X4725000Y-13174819D01*
X4747830Y-13204570D01*
X4749500Y-13217253D01*
X4749500Y-14054936D01*
X4758990Y-14077848D01*
X4772412Y-14110252D01*
X4772413Y-14110254D01*
X5559844Y-14897684D01*
X5574196Y-14932332D01*
X5559844Y-14966980D01*
X5537879Y-14979662D01*
X5474361Y-14996682D01*
X5474359Y-14996682D01*
X5400137Y-15039535D01*
X5400137Y-15039536D01*
X5339536Y-15100137D01*
X5339535Y-15100137D01*
X5296682Y-15174359D01*
X5296681Y-15174363D01*
X5274500Y-15257143D01*
X5274500Y-15342856D01*
X5296681Y-15425636D01*
X5296682Y-15425640D01*
X5314826Y-15457065D01*
X5339535Y-15499862D01*
X5400138Y-15560465D01*
X5424210Y-15574363D01*
X5474359Y-15603317D01*
X5474361Y-15603317D01*
X5474362Y-15603318D01*
X5539651Y-15620812D01*
X5557143Y-15625499D01*
X5557144Y-15625500D01*
X5557147Y-15625500D01*
X5642856Y-15625500D01*
X5642856Y-15625499D01*
X5725638Y-15603318D01*
X5799862Y-15560465D01*
X5815852Y-15544475D01*
X5850500Y-15530123D01*
X5885148Y-15544475D01*
X5899500Y-15579123D01*
X5899500Y-15820877D01*
X5885148Y-15855525D01*
X5850500Y-15869877D01*
X5815852Y-15855525D01*
X5799862Y-15839535D01*
X5725640Y-15796682D01*
X5725636Y-15796681D01*
X5642856Y-15774500D01*
X5642853Y-15774500D01*
X5557147Y-15774500D01*
X5557144Y-15774500D01*
X5474363Y-15796681D01*
X5474359Y-15796682D01*
X5400137Y-15839535D01*
X5400137Y-15839536D01*
X5339536Y-15900137D01*
X5339535Y-15900137D01*
X5296682Y-15974359D01*
X5296681Y-15974363D01*
X5274500Y-16057143D01*
X5274500Y-16142856D01*
X5296681Y-16225636D01*
X5296682Y-16225640D01*
X5339535Y-16299862D01*
X5400138Y-16360465D01*
X5424210Y-16374363D01*
X5474359Y-16403317D01*
X5474361Y-16403317D01*
X5474362Y-16403318D01*
X5539651Y-16420812D01*
X5557143Y-16425499D01*
X5557144Y-16425500D01*
X5557147Y-16425500D01*
X5642856Y-16425500D01*
X5642856Y-16425499D01*
X5725638Y-16403318D01*
X5799862Y-16360465D01*
X5815852Y-16344475D01*
X5850500Y-16330123D01*
X5885148Y-16344475D01*
X5899500Y-16379123D01*
X5899500Y-16983323D01*
X5885148Y-17017971D01*
X5850500Y-17032323D01*
X5826000Y-17025758D01*
X5775640Y-16996682D01*
X5775636Y-16996681D01*
X5692856Y-16974500D01*
X5692853Y-16974500D01*
X5667481Y-16974500D01*
X5632833Y-16960148D01*
X5618481Y-16925500D01*
X5620151Y-16912817D01*
X5625500Y-16892854D01*
X5625500Y-16807144D01*
X5625499Y-16807143D01*
X5616715Y-16774362D01*
X5603318Y-16724362D01*
X5603317Y-16724361D01*
X5603317Y-16724359D01*
X5560464Y-16650137D01*
X5499862Y-16589535D01*
X5425640Y-16546682D01*
X5425636Y-16546681D01*
X5342856Y-16524500D01*
X5342853Y-16524500D01*
X5257147Y-16524500D01*
X5257144Y-16524500D01*
X5174363Y-16546681D01*
X5174359Y-16546682D01*
X5100137Y-16589535D01*
X5100137Y-16589536D01*
X5039536Y-16650137D01*
X5039535Y-16650137D01*
X4996682Y-16724359D01*
X4996681Y-16724363D01*
X4974500Y-16807143D01*
X4974500Y-16892856D01*
X4996681Y-16975636D01*
X4996682Y-16975640D01*
X5029409Y-17032323D01*
X5039535Y-17049862D01*
X5100138Y-17110465D01*
X5127304Y-17126149D01*
X5174359Y-17153317D01*
X5174361Y-17153317D01*
X5174362Y-17153318D01*
X5239651Y-17170812D01*
X5257143Y-17175499D01*
X5257144Y-17175500D01*
X5282518Y-17175500D01*
X5317166Y-17189852D01*
X5331518Y-17224500D01*
X5329849Y-17237181D01*
X5324500Y-17257146D01*
X5324500Y-17342856D01*
X5346681Y-17425636D01*
X5346682Y-17425640D01*
X5374892Y-17474500D01*
X5389535Y-17499862D01*
X5450138Y-17560465D01*
X5465519Y-17569345D01*
X5524359Y-17603317D01*
X5524361Y-17603317D01*
X5524362Y-17603318D01*
X5574215Y-17616676D01*
X5607143Y-17625499D01*
X5607144Y-17625500D01*
X5607147Y-17625500D01*
X5692856Y-17625500D01*
X5692856Y-17625499D01*
X5775638Y-17603318D01*
X5826001Y-17574240D01*
X5863182Y-17569345D01*
X5892935Y-17592175D01*
X5899500Y-17616676D01*
X5899500Y-18043889D01*
X5885148Y-18078537D01*
X5850500Y-18092889D01*
X5826000Y-18086324D01*
X5800640Y-18071682D01*
X5800636Y-18071681D01*
X5717856Y-18049500D01*
X5717853Y-18049500D01*
X5632147Y-18049500D01*
X5632144Y-18049500D01*
X5549363Y-18071681D01*
X5549359Y-18071682D01*
X5475137Y-18114535D01*
X5475137Y-18114536D01*
X5414536Y-18175137D01*
X5414535Y-18175137D01*
X5371682Y-18249359D01*
X5371681Y-18249363D01*
X5349500Y-18332143D01*
X5349500Y-18417856D01*
X5371681Y-18500636D01*
X5371682Y-18500640D01*
X5389440Y-18531396D01*
X5394335Y-18568578D01*
X5371505Y-18598331D01*
X5300137Y-18639535D01*
X5300137Y-18639536D01*
X5239536Y-18700137D01*
X5239535Y-18700137D01*
X5196682Y-18774359D01*
X5196681Y-18774363D01*
X5174500Y-18857143D01*
X5174500Y-18942856D01*
X5196681Y-19025636D01*
X5196682Y-19025640D01*
X5236974Y-19095426D01*
X5239535Y-19099862D01*
X5300138Y-19160465D01*
X5327304Y-19176149D01*
X5374359Y-19203317D01*
X5374361Y-19203317D01*
X5374362Y-19203318D01*
X5439651Y-19220812D01*
X5457143Y-19225499D01*
X5457144Y-19225500D01*
X5457147Y-19225500D01*
X5542856Y-19225500D01*
X5542856Y-19225499D01*
X5625638Y-19203318D01*
X5699862Y-19160465D01*
X5760465Y-19099862D01*
X5803318Y-19025638D01*
X5803318Y-19025636D01*
X5804546Y-19022673D01*
X5805550Y-19023088D01*
X5826000Y-18996438D01*
X5863182Y-18991543D01*
X5892935Y-19014373D01*
X5899500Y-19038873D01*
X5899500Y-23943889D01*
X5885148Y-23978537D01*
X5850500Y-23992889D01*
X5826000Y-23986324D01*
X5800640Y-23971682D01*
X5800636Y-23971681D01*
X5717856Y-23949500D01*
X5717853Y-23949500D01*
X5632147Y-23949500D01*
X5632144Y-23949500D01*
X5549363Y-23971681D01*
X5549359Y-23971682D01*
X5475137Y-24014535D01*
X5475137Y-24014536D01*
X5414536Y-24075137D01*
X5414535Y-24075137D01*
X5371682Y-24149359D01*
X5371681Y-24149363D01*
X5349500Y-24232143D01*
X5349500Y-24317856D01*
X5371681Y-24400636D01*
X5371682Y-24400640D01*
X5414535Y-24474862D01*
X5475138Y-24535465D01*
X5502304Y-24551149D01*
X5549359Y-24578317D01*
X5549361Y-24578317D01*
X5549362Y-24578318D01*
X5614651Y-24595812D01*
X5632143Y-24600499D01*
X5632144Y-24600500D01*
X5632147Y-24600500D01*
X5717856Y-24600500D01*
X5717856Y-24600499D01*
X5800638Y-24578318D01*
X5826001Y-24563674D01*
X5863181Y-24558779D01*
X5892935Y-24581609D01*
X5899500Y-24606110D01*
X5899500Y-30504936D01*
X5908990Y-30527848D01*
X5922412Y-30560252D01*
X5922413Y-30560254D01*
X9185148Y-33822987D01*
X9199500Y-33857635D01*
X9199500Y-34704937D01*
X9205671Y-34719835D01*
X9205672Y-34719837D01*
X9207604Y-34724500D01*
X9222412Y-34760252D01*
X9256267Y-34794107D01*
X9258860Y-34797913D01*
X9261815Y-34812105D01*
X9267364Y-34825500D01*
X9265528Y-34829932D01*
X9266506Y-34834628D01*
X9258560Y-34846753D01*
X9253012Y-34860148D01*
X9248580Y-34861983D01*
X9245951Y-34865996D01*
X9231758Y-34868951D01*
X9218364Y-34874500D01*
X9207144Y-34874500D01*
X9124363Y-34896681D01*
X9124359Y-34896682D01*
X9050137Y-34939535D01*
X9050137Y-34939536D01*
X8989536Y-35000137D01*
X8989535Y-35000137D01*
X8946682Y-35074359D01*
X8946681Y-35074363D01*
X8924500Y-35157143D01*
X8924500Y-35242856D01*
X8946681Y-35325636D01*
X8946682Y-35325638D01*
X8961325Y-35351001D01*
X8966221Y-35388181D01*
X8943391Y-35417935D01*
X8918890Y-35424500D01*
X7482636Y-35424500D01*
X7447988Y-35410148D01*
X6526424Y-34488583D01*
X6494984Y-34457143D01*
X7424500Y-34457143D01*
X7424500Y-34542856D01*
X7446681Y-34625636D01*
X7446682Y-34625640D01*
X7489535Y-34699862D01*
X7550138Y-34760465D01*
X7577304Y-34776149D01*
X7624359Y-34803317D01*
X7624361Y-34803317D01*
X7624362Y-34803318D01*
X7657156Y-34812105D01*
X7707143Y-34825499D01*
X7707144Y-34825500D01*
X7707147Y-34825500D01*
X7792856Y-34825500D01*
X7792856Y-34825499D01*
X7875638Y-34803318D01*
X7949862Y-34760465D01*
X8010465Y-34699862D01*
X8053318Y-34625638D01*
X8075499Y-34542856D01*
X8075500Y-34542856D01*
X8075500Y-34457144D01*
X8075499Y-34457143D01*
X8424500Y-34457143D01*
X8424500Y-34542856D01*
X8446681Y-34625636D01*
X8446682Y-34625640D01*
X8489535Y-34699862D01*
X8550138Y-34760465D01*
X8577304Y-34776149D01*
X8624359Y-34803317D01*
X8624361Y-34803317D01*
X8624362Y-34803318D01*
X8657156Y-34812105D01*
X8707143Y-34825499D01*
X8707144Y-34825500D01*
X8707147Y-34825500D01*
X8792856Y-34825500D01*
X8792856Y-34825499D01*
X8875638Y-34803318D01*
X8949862Y-34760465D01*
X9010465Y-34699862D01*
X9053318Y-34625638D01*
X9075499Y-34542856D01*
X9075500Y-34542856D01*
X9075500Y-34457144D01*
X9075499Y-34457143D01*
X9053318Y-34374363D01*
X9053317Y-34374359D01*
X9010464Y-34300137D01*
X8949862Y-34239535D01*
X8875640Y-34196682D01*
X8875636Y-34196681D01*
X8792856Y-34174500D01*
X8792853Y-34174500D01*
X8707147Y-34174500D01*
X8707144Y-34174500D01*
X8624363Y-34196681D01*
X8624359Y-34196682D01*
X8550137Y-34239535D01*
X8550137Y-34239536D01*
X8489536Y-34300137D01*
X8489535Y-34300137D01*
X8446682Y-34374359D01*
X8446681Y-34374363D01*
X8424500Y-34457143D01*
X8075499Y-34457143D01*
X8053318Y-34374363D01*
X8053317Y-34374359D01*
X8010464Y-34300137D01*
X7949862Y-34239535D01*
X7875640Y-34196682D01*
X7875636Y-34196681D01*
X7792856Y-34174500D01*
X7792853Y-34174500D01*
X7707147Y-34174500D01*
X7707144Y-34174500D01*
X7624363Y-34196681D01*
X7624359Y-34196682D01*
X7550137Y-34239535D01*
X7550137Y-34239536D01*
X7489536Y-34300137D01*
X7489535Y-34300137D01*
X7446682Y-34374359D01*
X7446681Y-34374363D01*
X7424500Y-34457143D01*
X6494984Y-34457143D01*
X6082844Y-34045003D01*
X6068492Y-34010355D01*
X6082844Y-33975707D01*
X6104809Y-33963025D01*
X6141038Y-33953318D01*
X6215262Y-33910465D01*
X6275865Y-33849862D01*
X6318718Y-33775638D01*
X6340899Y-33692856D01*
X6340900Y-33692856D01*
X6340900Y-33607144D01*
X6340899Y-33607143D01*
X6318718Y-33524363D01*
X6318717Y-33524359D01*
X6284728Y-33465489D01*
X6275865Y-33450138D01*
X6215262Y-33389535D01*
X6193570Y-33377011D01*
X6141040Y-33346682D01*
X6141036Y-33346681D01*
X6058256Y-33324500D01*
X6058253Y-33324500D01*
X5972547Y-33324500D01*
X5972544Y-33324500D01*
X5889763Y-33346681D01*
X5889759Y-33346682D01*
X5815537Y-33389535D01*
X5815537Y-33389536D01*
X5754936Y-33450137D01*
X5754935Y-33450137D01*
X5712082Y-33524359D01*
X5712082Y-33524361D01*
X5702374Y-33560590D01*
X5679543Y-33590343D01*
X5642361Y-33595237D01*
X5620396Y-33582555D01*
X5414852Y-33377011D01*
X5400500Y-33342363D01*
X5400500Y-26020066D01*
X5400499Y-26020062D01*
X5377586Y-25964747D01*
X5335252Y-25922413D01*
X5279937Y-25899500D01*
X5279936Y-25899500D01*
X4532635Y-25899500D01*
X4497987Y-25885148D01*
X4089852Y-25477012D01*
X4075500Y-25442364D01*
X4075500Y-20260217D01*
X4089852Y-20225569D01*
X4124500Y-20211217D01*
X4159148Y-20225569D01*
X4166934Y-20235715D01*
X4189535Y-20274862D01*
X4250138Y-20335465D01*
X4275553Y-20350138D01*
X4324359Y-20378317D01*
X4324361Y-20378317D01*
X4324362Y-20378318D01*
X4389651Y-20395812D01*
X4407143Y-20400499D01*
X4407144Y-20400500D01*
X4407147Y-20400500D01*
X4492856Y-20400500D01*
X4492856Y-20400499D01*
X4575638Y-20378318D01*
X4649862Y-20335465D01*
X4710465Y-20274862D01*
X4753318Y-20200638D01*
X4775499Y-20117856D01*
X4775500Y-20117856D01*
X4775500Y-20032144D01*
X4775499Y-20032143D01*
X4763157Y-19986083D01*
X4753318Y-19949362D01*
X4753317Y-19949361D01*
X4753317Y-19949359D01*
X4726149Y-19902304D01*
X4710465Y-19875138D01*
X4649862Y-19814535D01*
X4624924Y-19800137D01*
X4575640Y-19771682D01*
X4575636Y-19771681D01*
X4492856Y-19749500D01*
X4492853Y-19749500D01*
X4407147Y-19749500D01*
X4407144Y-19749500D01*
X4324363Y-19771681D01*
X4324359Y-19771682D01*
X4250137Y-19814535D01*
X4250137Y-19814536D01*
X4189536Y-19875137D01*
X4189535Y-19875137D01*
X4166935Y-19914282D01*
X4137182Y-19937112D01*
X4100000Y-19932217D01*
X4077170Y-19902464D01*
X4075500Y-19889782D01*
X4075500Y-18985217D01*
X4089852Y-18950569D01*
X4124500Y-18936217D01*
X4159148Y-18950569D01*
X4166934Y-18960715D01*
X4189535Y-18999862D01*
X4250138Y-19060465D01*
X4277304Y-19076149D01*
X4324359Y-19103317D01*
X4324361Y-19103317D01*
X4324362Y-19103318D01*
X4376891Y-19117393D01*
X4407143Y-19125499D01*
X4407144Y-19125500D01*
X4407147Y-19125500D01*
X4492856Y-19125500D01*
X4492856Y-19125499D01*
X4575638Y-19103318D01*
X4649862Y-19060465D01*
X4710465Y-18999862D01*
X4753318Y-18925638D01*
X4775499Y-18842856D01*
X4775500Y-18842856D01*
X4775500Y-18757144D01*
X4775499Y-18757143D01*
X4770781Y-18739535D01*
X4753318Y-18674362D01*
X4753317Y-18674361D01*
X4753317Y-18674359D01*
X4726149Y-18627304D01*
X4710465Y-18600138D01*
X4649862Y-18539535D01*
X4625551Y-18525499D01*
X4575640Y-18496682D01*
X4575636Y-18496681D01*
X4492856Y-18474500D01*
X4492853Y-18474500D01*
X4407147Y-18474500D01*
X4407144Y-18474500D01*
X4324363Y-18496681D01*
X4324359Y-18496682D01*
X4250137Y-18539535D01*
X4250137Y-18539536D01*
X4189536Y-18600137D01*
X4189535Y-18600137D01*
X4166935Y-18639282D01*
X4137182Y-18662112D01*
X4100000Y-18657217D01*
X4077170Y-18627464D01*
X4075500Y-18614782D01*
X4075500Y-16157143D01*
X4174500Y-16157143D01*
X4174500Y-16242856D01*
X4196681Y-16325636D01*
X4196682Y-16325640D01*
X4224813Y-16374363D01*
X4239535Y-16399862D01*
X4300138Y-16460465D01*
X4327304Y-16476149D01*
X4374359Y-16503317D01*
X4374361Y-16503317D01*
X4374362Y-16503318D01*
X4439651Y-16520812D01*
X4457143Y-16525499D01*
X4457144Y-16525500D01*
X4457147Y-16525500D01*
X4542856Y-16525500D01*
X4542856Y-16525499D01*
X4625638Y-16503318D01*
X4699862Y-16460465D01*
X4760465Y-16399862D01*
X4803318Y-16325638D01*
X4825499Y-16242856D01*
X4825500Y-16242856D01*
X4825500Y-16157144D01*
X4806433Y-16085987D01*
X4811328Y-16048805D01*
X4841081Y-16025975D01*
X4876986Y-16016354D01*
X4925638Y-16003318D01*
X4999862Y-15960465D01*
X5060465Y-15899862D01*
X5103318Y-15825638D01*
X5125499Y-15742856D01*
X5125500Y-15742856D01*
X5125500Y-15657144D01*
X5125499Y-15657143D01*
X5111076Y-15603317D01*
X5103318Y-15574362D01*
X5103317Y-15574361D01*
X5103317Y-15574359D01*
X5060464Y-15500137D01*
X4999862Y-15439535D01*
X4925640Y-15396682D01*
X4925636Y-15396681D01*
X4842856Y-15374500D01*
X4842853Y-15374500D01*
X4757147Y-15374500D01*
X4757144Y-15374500D01*
X4674363Y-15396681D01*
X4674359Y-15396682D01*
X4600137Y-15439535D01*
X4600137Y-15439536D01*
X4539536Y-15500137D01*
X4539535Y-15500137D01*
X4496682Y-15574359D01*
X4496681Y-15574363D01*
X4474500Y-15657143D01*
X4474500Y-15742856D01*
X4493566Y-15814012D01*
X4488671Y-15851194D01*
X4458919Y-15874024D01*
X4374361Y-15896682D01*
X4374359Y-15896682D01*
X4300137Y-15939535D01*
X4300137Y-15939536D01*
X4239536Y-16000137D01*
X4239535Y-16000137D01*
X4196682Y-16074359D01*
X4196681Y-16074363D01*
X4174500Y-16157143D01*
X4075500Y-16157143D01*
X4075500Y-14031110D01*
X4089852Y-13996462D01*
X4124500Y-13982110D01*
X4148998Y-13988674D01*
X4174362Y-14003318D01*
X4239651Y-14020812D01*
X4257143Y-14025499D01*
X4257144Y-14025500D01*
X4257147Y-14025500D01*
X4342856Y-14025500D01*
X4342856Y-14025499D01*
X4425638Y-14003318D01*
X4499862Y-13960465D01*
X4560465Y-13899862D01*
X4603318Y-13825638D01*
X4625499Y-13742856D01*
X4625500Y-13742856D01*
X4625500Y-13657144D01*
X4625499Y-13657143D01*
X4603318Y-13574363D01*
X4603317Y-13574359D01*
X4560464Y-13500137D01*
X4499862Y-13439535D01*
X4425640Y-13396682D01*
X4425636Y-13396681D01*
X4342856Y-13374500D01*
X4342853Y-13374500D01*
X4257147Y-13374500D01*
X4257144Y-13374500D01*
X4171260Y-13397513D01*
X4171016Y-13396606D01*
X4137039Y-13396597D01*
X4110527Y-13370072D01*
X4110537Y-13332569D01*
X4121151Y-13316687D01*
X4497685Y-12940153D01*
X4532332Y-12925802D01*
X4566980Y-12940154D01*
G37*
%TD.AperFunction*%
%TA.AperFunction,Conductor*%
G36*
X19685148Y-1764852D02*
G01*
X19699500Y-1799500D01*
X19699500Y-46100500D01*
X19685148Y-46135148D01*
X19650500Y-46149500D01*
X349500Y-46149500D01*
X314852Y-46135148D01*
X300500Y-46100500D01*
X300500Y-44757143D01*
X7824500Y-44757143D01*
X7824500Y-44842856D01*
X7846681Y-44925636D01*
X7846682Y-44925640D01*
X7889535Y-44999862D01*
X7950138Y-45060465D01*
X7977304Y-45076149D01*
X8024359Y-45103317D01*
X8024361Y-45103317D01*
X8024362Y-45103318D01*
X8073185Y-45116400D01*
X8107143Y-45125499D01*
X8107144Y-45125500D01*
X8107147Y-45125500D01*
X8192855Y-45125500D01*
X8211156Y-45120595D01*
X8220581Y-45118070D01*
X8257763Y-45122964D01*
X8267912Y-45130752D01*
X8439748Y-45302587D01*
X8455946Y-45309295D01*
X8455949Y-45309298D01*
X8455950Y-45309297D01*
X8495064Y-45325500D01*
X8495065Y-45325500D01*
X18654934Y-45325500D01*
X18654936Y-45325500D01*
X18677848Y-45316009D01*
X18710252Y-45302588D01*
X18882087Y-45130751D01*
X18916734Y-45116400D01*
X18929417Y-45118070D01*
X18957145Y-45125500D01*
X18957147Y-45125500D01*
X19042856Y-45125500D01*
X19042856Y-45125499D01*
X19125638Y-45103318D01*
X19199862Y-45060465D01*
X19260465Y-44999862D01*
X19303318Y-44925638D01*
X19325499Y-44842856D01*
X19325500Y-44842856D01*
X19325500Y-44757144D01*
X19325499Y-44757143D01*
X19303318Y-44674363D01*
X19303317Y-44674359D01*
X19276149Y-44627304D01*
X19260465Y-44600138D01*
X19199862Y-44539535D01*
X19125640Y-44496682D01*
X19125636Y-44496681D01*
X19042856Y-44474500D01*
X19042853Y-44474500D01*
X18957147Y-44474500D01*
X18957144Y-44474500D01*
X18874363Y-44496681D01*
X18874359Y-44496682D01*
X18800137Y-44539535D01*
X18800137Y-44539536D01*
X18739536Y-44600137D01*
X18739535Y-44600137D01*
X18696682Y-44674359D01*
X18696681Y-44674363D01*
X18674500Y-44757143D01*
X18674500Y-44842853D01*
X18681929Y-44870584D01*
X18677032Y-44907766D01*
X18669246Y-44917912D01*
X18577011Y-45010148D01*
X18542365Y-45024500D01*
X17204123Y-45024500D01*
X17169475Y-45010148D01*
X17155123Y-44975500D01*
X17169475Y-44940852D01*
X17210464Y-44899863D01*
X17210465Y-44899862D01*
X17253318Y-44825638D01*
X17275499Y-44742856D01*
X17275500Y-44742856D01*
X17275500Y-44657144D01*
X17275499Y-44657143D01*
X17263720Y-44613182D01*
X17253318Y-44574362D01*
X17253317Y-44574361D01*
X17253317Y-44574359D01*
X17226149Y-44527304D01*
X17210465Y-44500138D01*
X17149862Y-44439535D01*
X17075640Y-44396682D01*
X17075636Y-44396681D01*
X16992856Y-44374500D01*
X16992853Y-44374500D01*
X16907147Y-44374500D01*
X16907144Y-44374500D01*
X16824363Y-44396681D01*
X16824359Y-44396682D01*
X16750137Y-44439535D01*
X16750137Y-44439536D01*
X16689536Y-44500137D01*
X16689535Y-44500137D01*
X16646682Y-44574359D01*
X16646681Y-44574362D01*
X16636280Y-44613182D01*
X16613450Y-44642935D01*
X16588950Y-44649500D01*
X12566677Y-44649500D01*
X12532029Y-44635148D01*
X12517677Y-44600500D01*
X12524242Y-44576000D01*
X12553317Y-44525640D01*
X12553317Y-44525639D01*
X12553318Y-44525638D01*
X12575499Y-44442856D01*
X12575500Y-44442856D01*
X12575500Y-44357144D01*
X12575499Y-44357143D01*
X12561997Y-44306753D01*
X12553318Y-44274362D01*
X12553317Y-44274361D01*
X12553317Y-44274359D01*
X12510464Y-44200137D01*
X12449862Y-44139535D01*
X12375640Y-44096682D01*
X12375636Y-44096681D01*
X12292856Y-44074500D01*
X12292853Y-44074500D01*
X12207147Y-44074500D01*
X12207144Y-44074500D01*
X12124363Y-44096681D01*
X12124359Y-44096682D01*
X12050137Y-44139535D01*
X12050137Y-44139536D01*
X11989536Y-44200137D01*
X11989535Y-44200137D01*
X11946682Y-44274359D01*
X11946681Y-44274363D01*
X11924500Y-44357143D01*
X11924500Y-44442856D01*
X11946681Y-44525636D01*
X11946682Y-44525640D01*
X11975758Y-44576000D01*
X11980653Y-44613182D01*
X11957823Y-44642935D01*
X11933323Y-44649500D01*
X11566677Y-44649500D01*
X11532029Y-44635148D01*
X11517677Y-44600500D01*
X11524242Y-44576000D01*
X11553317Y-44525640D01*
X11553317Y-44525639D01*
X11553318Y-44525638D01*
X11575499Y-44442856D01*
X11575500Y-44442856D01*
X11575500Y-44357144D01*
X11575499Y-44357143D01*
X11561997Y-44306753D01*
X11553318Y-44274362D01*
X11553317Y-44274361D01*
X11553317Y-44274359D01*
X11510464Y-44200137D01*
X11449862Y-44139535D01*
X11375640Y-44096682D01*
X11375636Y-44096681D01*
X11292856Y-44074500D01*
X11292853Y-44074500D01*
X11207147Y-44074500D01*
X11207144Y-44074500D01*
X11137182Y-44093246D01*
X11100000Y-44088351D01*
X11077170Y-44058598D01*
X11075500Y-44045916D01*
X11075500Y-43957144D01*
X11075499Y-43957143D01*
X11058273Y-43892856D01*
X11053318Y-43874362D01*
X11053317Y-43874361D01*
X11053317Y-43874359D01*
X11026149Y-43827304D01*
X11010465Y-43800138D01*
X10949862Y-43739535D01*
X10936960Y-43732086D01*
X10875640Y-43696682D01*
X10875636Y-43696681D01*
X10792856Y-43674500D01*
X10792853Y-43674500D01*
X10707147Y-43674500D01*
X10707144Y-43674500D01*
X10624363Y-43696681D01*
X10624359Y-43696682D01*
X10550137Y-43739535D01*
X10550137Y-43739536D01*
X10489536Y-43800137D01*
X10489535Y-43800137D01*
X10446682Y-43874359D01*
X10446681Y-43874363D01*
X10424500Y-43957143D01*
X10424500Y-44045916D01*
X10410148Y-44080564D01*
X10375500Y-44094916D01*
X10362818Y-44093246D01*
X10292856Y-44074500D01*
X10292853Y-44074500D01*
X10207147Y-44074500D01*
X10207144Y-44074500D01*
X10124363Y-44096681D01*
X10124359Y-44096682D01*
X10050137Y-44139535D01*
X10050137Y-44139536D01*
X9989536Y-44200137D01*
X9989535Y-44200137D01*
X9946682Y-44274359D01*
X9946681Y-44274363D01*
X9924500Y-44357143D01*
X9924500Y-44442856D01*
X9946681Y-44525636D01*
X9946682Y-44525640D01*
X9975758Y-44576000D01*
X9980653Y-44613182D01*
X9957823Y-44642935D01*
X9933323Y-44649500D01*
X9566677Y-44649500D01*
X9532029Y-44635148D01*
X9517677Y-44600500D01*
X9524242Y-44576000D01*
X9553317Y-44525640D01*
X9553317Y-44525639D01*
X9553318Y-44525638D01*
X9575499Y-44442856D01*
X9575500Y-44442856D01*
X9575500Y-44357144D01*
X9575499Y-44357143D01*
X9561997Y-44306753D01*
X9553318Y-44274362D01*
X9553317Y-44274361D01*
X9553317Y-44274359D01*
X9510464Y-44200137D01*
X9449865Y-44139538D01*
X9449862Y-44139535D01*
X9424998Y-44125179D01*
X9402169Y-44095426D01*
X9400500Y-44082745D01*
X9400500Y-44028177D01*
X9414852Y-43993529D01*
X9449500Y-43979177D01*
X9484148Y-43993529D01*
X9488378Y-43998353D01*
X9489533Y-43999859D01*
X9489535Y-43999862D01*
X9550138Y-44060465D01*
X9577304Y-44076149D01*
X9624359Y-44103317D01*
X9624361Y-44103317D01*
X9624362Y-44103318D01*
X9676891Y-44117393D01*
X9707143Y-44125499D01*
X9707144Y-44125500D01*
X9707147Y-44125500D01*
X9792856Y-44125500D01*
X9792856Y-44125499D01*
X9875638Y-44103318D01*
X9949862Y-44060465D01*
X10010465Y-43999862D01*
X10053318Y-43925638D01*
X10075499Y-43842856D01*
X10075500Y-43842856D01*
X10075500Y-43757144D01*
X10075499Y-43757143D01*
X10066715Y-43724362D01*
X10053318Y-43674362D01*
X10038674Y-43648998D01*
X10033779Y-43611819D01*
X10056609Y-43582065D01*
X10081110Y-43575500D01*
X11418890Y-43575500D01*
X11453538Y-43589852D01*
X11467890Y-43624500D01*
X11461325Y-43648998D01*
X11460668Y-43650138D01*
X11446681Y-43674363D01*
X11424500Y-43757143D01*
X11424500Y-43842856D01*
X11446681Y-43925636D01*
X11446682Y-43925640D01*
X11485879Y-43993529D01*
X11489535Y-43999862D01*
X11550138Y-44060465D01*
X11577304Y-44076149D01*
X11624359Y-44103317D01*
X11624361Y-44103317D01*
X11624362Y-44103318D01*
X11676891Y-44117393D01*
X11707143Y-44125499D01*
X11707144Y-44125500D01*
X11707147Y-44125500D01*
X11792856Y-44125500D01*
X11792856Y-44125499D01*
X11875638Y-44103318D01*
X11949862Y-44060465D01*
X12010465Y-43999862D01*
X12053318Y-43925638D01*
X12075499Y-43842856D01*
X12075500Y-43842856D01*
X12075500Y-43757144D01*
X12075499Y-43757143D01*
X12066715Y-43724362D01*
X12053318Y-43674362D01*
X12038674Y-43648998D01*
X12033779Y-43611819D01*
X12056609Y-43582065D01*
X12081110Y-43575500D01*
X12418890Y-43575500D01*
X12453538Y-43589852D01*
X12467890Y-43624500D01*
X12461325Y-43648998D01*
X12460668Y-43650138D01*
X12446681Y-43674363D01*
X12424500Y-43757143D01*
X12424500Y-43842856D01*
X12446681Y-43925636D01*
X12446682Y-43925640D01*
X12485879Y-43993529D01*
X12489535Y-43999862D01*
X12550138Y-44060465D01*
X12577304Y-44076149D01*
X12624359Y-44103317D01*
X12624361Y-44103317D01*
X12624362Y-44103318D01*
X12676891Y-44117393D01*
X12707143Y-44125499D01*
X12707144Y-44125500D01*
X12707147Y-44125500D01*
X12792856Y-44125500D01*
X12792856Y-44125499D01*
X12875638Y-44103318D01*
X12949862Y-44060465D01*
X13010465Y-43999862D01*
X13053318Y-43925638D01*
X13075499Y-43842856D01*
X13075500Y-43842856D01*
X13075500Y-43757144D01*
X13075499Y-43757143D01*
X13066715Y-43724362D01*
X13053318Y-43674362D01*
X13038674Y-43648998D01*
X13033779Y-43611819D01*
X13056609Y-43582065D01*
X13081110Y-43575500D01*
X16242364Y-43575500D01*
X16277012Y-43589852D01*
X16419246Y-43732086D01*
X16433598Y-43766734D01*
X16431929Y-43779413D01*
X16424500Y-43807144D01*
X16424500Y-43892856D01*
X16446681Y-43975636D01*
X16446682Y-43975640D01*
X16477015Y-44028177D01*
X16489535Y-44049862D01*
X16550138Y-44110465D01*
X16562138Y-44117393D01*
X16624359Y-44153317D01*
X16624361Y-44153317D01*
X16624362Y-44153318D01*
X16689651Y-44170812D01*
X16707143Y-44175499D01*
X16707144Y-44175500D01*
X16707147Y-44175500D01*
X16792856Y-44175500D01*
X16792856Y-44175499D01*
X16875638Y-44153318D01*
X16949862Y-44110465D01*
X17010465Y-44049862D01*
X17053318Y-43975638D01*
X17075499Y-43892856D01*
X17075500Y-43892856D01*
X17075500Y-43807144D01*
X17075499Y-43807143D01*
X17062102Y-43757144D01*
X17053318Y-43724362D01*
X17053317Y-43724361D01*
X17053317Y-43724359D01*
X17010464Y-43650137D01*
X16949862Y-43589535D01*
X16875640Y-43546682D01*
X16875636Y-43546681D01*
X16792856Y-43524500D01*
X16792853Y-43524500D01*
X16707147Y-43524500D01*
X16707146Y-43524500D01*
X16679415Y-43531929D01*
X16642233Y-43527032D01*
X16632087Y-43519246D01*
X16410255Y-43297414D01*
X16410252Y-43297412D01*
X16377848Y-43283990D01*
X16354936Y-43274500D01*
X9420064Y-43274500D01*
X9392406Y-43285955D01*
X9392406Y-43285956D01*
X9364749Y-43297412D01*
X9364747Y-43297413D01*
X9364746Y-43297414D01*
X9122414Y-43539745D01*
X9122411Y-43539750D01*
X9109892Y-43569977D01*
X9109891Y-43569979D01*
X9099500Y-43595062D01*
X9099500Y-44082745D01*
X9085148Y-44117393D01*
X9075001Y-44125180D01*
X9050141Y-44139533D01*
X9050134Y-44139538D01*
X8989536Y-44200137D01*
X8989535Y-44200137D01*
X8946682Y-44274359D01*
X8946681Y-44274363D01*
X8924500Y-44357143D01*
X8924500Y-44445916D01*
X8910148Y-44480564D01*
X8875500Y-44494916D01*
X8862818Y-44493246D01*
X8792856Y-44474500D01*
X8792853Y-44474500D01*
X8707147Y-44474500D01*
X8707144Y-44474500D01*
X8624363Y-44496681D01*
X8624359Y-44496682D01*
X8550137Y-44539535D01*
X8550137Y-44539536D01*
X8489536Y-44600136D01*
X8488873Y-44601001D01*
X8488397Y-44601275D01*
X8487264Y-44602409D01*
X8486960Y-44602105D01*
X8456394Y-44619751D01*
X8420169Y-44610043D01*
X8411127Y-44601001D01*
X8410463Y-44600136D01*
X8349862Y-44539535D01*
X8275640Y-44496682D01*
X8275636Y-44496681D01*
X8192856Y-44474500D01*
X8192853Y-44474500D01*
X8107147Y-44474500D01*
X8107144Y-44474500D01*
X8024363Y-44496681D01*
X8024359Y-44496682D01*
X7950137Y-44539535D01*
X7950137Y-44539536D01*
X7889536Y-44600137D01*
X7889535Y-44600137D01*
X7846682Y-44674359D01*
X7846681Y-44674363D01*
X7824500Y-44757143D01*
X300500Y-44757143D01*
X300500Y-44357143D01*
X6924500Y-44357143D01*
X6924500Y-44442856D01*
X6946681Y-44525636D01*
X6946682Y-44525640D01*
X6974813Y-44574363D01*
X6989535Y-44599862D01*
X7050138Y-44660465D01*
X7074210Y-44674363D01*
X7124359Y-44703317D01*
X7124361Y-44703317D01*
X7124362Y-44703318D01*
X7189651Y-44720812D01*
X7207143Y-44725499D01*
X7207144Y-44725500D01*
X7207147Y-44725500D01*
X7292856Y-44725500D01*
X7292856Y-44725499D01*
X7375638Y-44703318D01*
X7449862Y-44660465D01*
X7510465Y-44599862D01*
X7553318Y-44525638D01*
X7575499Y-44442856D01*
X7575500Y-44442856D01*
X7575500Y-44357144D01*
X7575499Y-44357143D01*
X7561997Y-44306753D01*
X7553318Y-44274362D01*
X7553317Y-44274361D01*
X7553317Y-44274359D01*
X7510464Y-44200137D01*
X7449862Y-44139535D01*
X7375640Y-44096682D01*
X7375636Y-44096681D01*
X7292856Y-44074500D01*
X7292853Y-44074500D01*
X7207147Y-44074500D01*
X7207144Y-44074500D01*
X7124363Y-44096681D01*
X7124359Y-44096682D01*
X7050137Y-44139535D01*
X7050137Y-44139536D01*
X6989536Y-44200137D01*
X6989535Y-44200137D01*
X6946682Y-44274359D01*
X6946681Y-44274363D01*
X6924500Y-44357143D01*
X300500Y-44357143D01*
X300500Y-43757143D01*
X7424500Y-43757143D01*
X7424500Y-43842856D01*
X7446681Y-43925636D01*
X7446682Y-43925640D01*
X7485879Y-43993529D01*
X7489535Y-43999862D01*
X7550138Y-44060465D01*
X7577304Y-44076149D01*
X7624359Y-44103317D01*
X7624361Y-44103317D01*
X7624362Y-44103318D01*
X7676891Y-44117393D01*
X7707143Y-44125499D01*
X7707144Y-44125500D01*
X7707147Y-44125500D01*
X7792856Y-44125500D01*
X7792856Y-44125499D01*
X7875638Y-44103318D01*
X7949862Y-44060465D01*
X8010465Y-43999862D01*
X8053318Y-43925638D01*
X8075499Y-43842856D01*
X8075500Y-43842856D01*
X8075500Y-43757144D01*
X8075499Y-43757143D01*
X8066715Y-43724362D01*
X8053318Y-43674362D01*
X8053317Y-43674361D01*
X8053317Y-43674359D01*
X8010464Y-43600137D01*
X7949862Y-43539535D01*
X7875640Y-43496682D01*
X7875636Y-43496681D01*
X7792856Y-43474500D01*
X7792853Y-43474500D01*
X7707147Y-43474500D01*
X7707144Y-43474500D01*
X7624363Y-43496681D01*
X7624359Y-43496682D01*
X7550137Y-43539535D01*
X7550137Y-43539536D01*
X7489536Y-43600137D01*
X7489535Y-43600137D01*
X7446682Y-43674359D01*
X7446681Y-43674363D01*
X7424500Y-43757143D01*
X300500Y-43757143D01*
X300500Y-42607143D01*
X1399500Y-42607143D01*
X1399500Y-42692856D01*
X1421681Y-42775636D01*
X1421682Y-42775640D01*
X1464535Y-42849862D01*
X1525138Y-42910465D01*
X1526931Y-42911500D01*
X1599359Y-42953317D01*
X1599361Y-42953317D01*
X1599362Y-42953318D01*
X1664651Y-42970812D01*
X1682143Y-42975499D01*
X1682144Y-42975500D01*
X1682147Y-42975500D01*
X1767856Y-42975500D01*
X1767856Y-42975499D01*
X1836363Y-42957143D01*
X5474500Y-42957143D01*
X5474500Y-43042856D01*
X5496681Y-43125636D01*
X5496682Y-43125640D01*
X5539535Y-43199862D01*
X5600138Y-43260465D01*
X5627304Y-43276149D01*
X5674359Y-43303317D01*
X5674361Y-43303317D01*
X5674362Y-43303318D01*
X5739651Y-43320812D01*
X5757143Y-43325499D01*
X5757144Y-43325500D01*
X5757147Y-43325500D01*
X5842856Y-43325500D01*
X5842856Y-43325499D01*
X5925638Y-43303318D01*
X5999862Y-43260465D01*
X6060465Y-43199862D01*
X6103318Y-43125638D01*
X6125499Y-43042856D01*
X6125500Y-43042856D01*
X6125500Y-42957144D01*
X6125499Y-42957143D01*
X6103318Y-42874363D01*
X6103317Y-42874359D01*
X6060464Y-42800137D01*
X5999862Y-42739535D01*
X5925640Y-42696682D01*
X5925636Y-42696681D01*
X5842856Y-42674500D01*
X5842853Y-42674500D01*
X5757147Y-42674500D01*
X5757144Y-42674500D01*
X5674363Y-42696681D01*
X5674359Y-42696682D01*
X5600137Y-42739535D01*
X5600137Y-42739536D01*
X5539536Y-42800137D01*
X5539535Y-42800137D01*
X5496682Y-42874359D01*
X5496681Y-42874363D01*
X5474500Y-42957143D01*
X1836363Y-42957143D01*
X1850638Y-42953318D01*
X1924862Y-42910465D01*
X1985465Y-42849862D01*
X2028318Y-42775638D01*
X2050499Y-42692856D01*
X2050500Y-42692856D01*
X2050500Y-42607144D01*
X2050499Y-42607143D01*
X2028318Y-42524363D01*
X2028317Y-42524359D01*
X1985464Y-42450137D01*
X1924862Y-42389535D01*
X1850640Y-42346682D01*
X1850636Y-42346681D01*
X1767856Y-42324500D01*
X1767853Y-42324500D01*
X1682147Y-42324500D01*
X1682144Y-42324500D01*
X1599363Y-42346681D01*
X1599359Y-42346682D01*
X1525137Y-42389535D01*
X1525137Y-42389536D01*
X1464536Y-42450137D01*
X1464535Y-42450137D01*
X1421682Y-42524359D01*
X1421681Y-42524363D01*
X1399500Y-42607143D01*
X300500Y-42607143D01*
X300500Y-41207143D01*
X1689900Y-41207143D01*
X1689900Y-41292856D01*
X1712081Y-41375636D01*
X1712082Y-41375640D01*
X1753098Y-41446681D01*
X1754935Y-41449862D01*
X1815538Y-41510465D01*
X1842704Y-41526149D01*
X1889759Y-41553317D01*
X1889761Y-41553317D01*
X1889762Y-41553318D01*
X1955051Y-41570812D01*
X1972543Y-41575499D01*
X1972544Y-41575500D01*
X1972547Y-41575500D01*
X2058256Y-41575500D01*
X2058256Y-41575499D01*
X2141038Y-41553318D01*
X2215262Y-41510465D01*
X2275865Y-41449862D01*
X2318718Y-41375638D01*
X2340899Y-41292856D01*
X2340900Y-41292856D01*
X2340900Y-41207144D01*
X2340899Y-41207143D01*
X2323673Y-41142856D01*
X2318718Y-41124362D01*
X2318717Y-41124361D01*
X2318717Y-41124359D01*
X2290507Y-41075499D01*
X2275865Y-41050138D01*
X2215262Y-40989535D01*
X2202324Y-40982065D01*
X2141040Y-40946682D01*
X2141036Y-40946681D01*
X2058256Y-40924500D01*
X2058253Y-40924500D01*
X1972547Y-40924500D01*
X1972544Y-40924500D01*
X1889763Y-40946681D01*
X1889759Y-40946682D01*
X1815537Y-40989535D01*
X1815537Y-40989536D01*
X1754936Y-41050137D01*
X1754935Y-41050137D01*
X1712082Y-41124359D01*
X1712081Y-41124363D01*
X1689900Y-41207143D01*
X300500Y-41207143D01*
X300500Y-39907143D01*
X1689900Y-39907143D01*
X1689900Y-39992856D01*
X1712081Y-40075636D01*
X1712082Y-40075640D01*
X1740213Y-40124363D01*
X1754935Y-40149862D01*
X1815538Y-40210465D01*
X1842704Y-40226149D01*
X1889759Y-40253317D01*
X1889761Y-40253317D01*
X1889762Y-40253318D01*
X1955051Y-40270812D01*
X1972543Y-40275499D01*
X1972544Y-40275500D01*
X1972547Y-40275500D01*
X2058256Y-40275500D01*
X2058256Y-40275499D01*
X2141038Y-40253318D01*
X2215262Y-40210465D01*
X2275865Y-40149862D01*
X2318718Y-40075638D01*
X2340899Y-39992856D01*
X2340900Y-39992856D01*
X2340900Y-39907144D01*
X2340899Y-39907143D01*
X2318718Y-39824363D01*
X2318717Y-39824359D01*
X2275864Y-39750137D01*
X2215262Y-39689535D01*
X2141040Y-39646682D01*
X2141036Y-39646681D01*
X2058256Y-39624500D01*
X2058253Y-39624500D01*
X1972547Y-39624500D01*
X1972544Y-39624500D01*
X1889763Y-39646681D01*
X1889759Y-39646682D01*
X1815537Y-39689535D01*
X1754936Y-39750137D01*
X1754935Y-39750137D01*
X1712082Y-39824359D01*
X1712081Y-39824363D01*
X1689900Y-39907143D01*
X300500Y-39907143D01*
X300500Y-38707143D01*
X1689900Y-38707143D01*
X1689900Y-38792856D01*
X1712081Y-38875636D01*
X1712082Y-38875640D01*
X1754935Y-38949862D01*
X1815538Y-39010465D01*
X1842704Y-39026149D01*
X1889759Y-39053317D01*
X1889761Y-39053317D01*
X1889762Y-39053318D01*
X1936861Y-39065938D01*
X1972543Y-39075499D01*
X1972544Y-39075500D01*
X1972547Y-39075500D01*
X2058256Y-39075500D01*
X2058256Y-39075499D01*
X2141038Y-39053318D01*
X2215262Y-39010465D01*
X2275865Y-38949862D01*
X2318718Y-38875638D01*
X2340899Y-38792856D01*
X2340900Y-38792856D01*
X2340900Y-38707144D01*
X2340899Y-38707143D01*
X2318718Y-38624363D01*
X2318717Y-38624359D01*
X2275864Y-38550137D01*
X2215262Y-38489535D01*
X2141040Y-38446682D01*
X2141036Y-38446681D01*
X2058256Y-38424500D01*
X2058253Y-38424500D01*
X1972547Y-38424500D01*
X1972544Y-38424500D01*
X1889763Y-38446681D01*
X1889759Y-38446682D01*
X1815537Y-38489535D01*
X1815537Y-38489536D01*
X1754936Y-38550137D01*
X1754935Y-38550137D01*
X1712082Y-38624359D01*
X1712081Y-38624363D01*
X1689900Y-38707143D01*
X300500Y-38707143D01*
X300500Y-37507143D01*
X1399500Y-37507143D01*
X1399500Y-37592856D01*
X1421681Y-37675636D01*
X1421682Y-37675640D01*
X1464535Y-37749862D01*
X1525138Y-37810465D01*
X1552304Y-37826149D01*
X1599359Y-37853317D01*
X1599361Y-37853317D01*
X1599362Y-37853318D01*
X1664651Y-37870812D01*
X1682143Y-37875499D01*
X1682144Y-37875500D01*
X1682147Y-37875500D01*
X1767856Y-37875500D01*
X1767856Y-37875499D01*
X1850638Y-37853318D01*
X1924862Y-37810465D01*
X1985465Y-37749862D01*
X2028318Y-37675638D01*
X2050499Y-37592856D01*
X2050500Y-37592856D01*
X2050500Y-37507144D01*
X2050499Y-37507143D01*
X2035151Y-37449863D01*
X2028318Y-37424362D01*
X2028317Y-37424361D01*
X2028317Y-37424359D01*
X2001149Y-37377304D01*
X1985465Y-37350138D01*
X1924862Y-37289535D01*
X1850640Y-37246682D01*
X1850636Y-37246681D01*
X1767856Y-37224500D01*
X1767853Y-37224500D01*
X1682147Y-37224500D01*
X1682144Y-37224500D01*
X1599363Y-37246681D01*
X1599359Y-37246682D01*
X1525137Y-37289535D01*
X1525137Y-37289536D01*
X1464536Y-37350137D01*
X1464535Y-37350137D01*
X1421682Y-37424359D01*
X1421681Y-37424363D01*
X1399500Y-37507143D01*
X300500Y-37507143D01*
X300500Y-33257143D01*
X3374500Y-33257143D01*
X3374500Y-33342856D01*
X3396681Y-33425636D01*
X3396682Y-33425640D01*
X3439535Y-33499862D01*
X3500138Y-33560465D01*
X3500355Y-33560590D01*
X3574359Y-33603317D01*
X3574361Y-33603317D01*
X3574362Y-33603318D01*
X3639651Y-33620812D01*
X3657143Y-33625499D01*
X3657144Y-33625500D01*
X3657147Y-33625500D01*
X3742856Y-33625500D01*
X3742856Y-33625499D01*
X3825638Y-33603318D01*
X3899862Y-33560465D01*
X3960465Y-33499862D01*
X4003318Y-33425638D01*
X4025499Y-33342856D01*
X4025500Y-33342856D01*
X4025500Y-33257144D01*
X4025499Y-33257143D01*
X4003318Y-33174363D01*
X4003317Y-33174359D01*
X3960464Y-33100137D01*
X3899862Y-33039535D01*
X3825640Y-32996682D01*
X3825636Y-32996681D01*
X3742856Y-32974500D01*
X3742853Y-32974500D01*
X3657147Y-32974500D01*
X3657144Y-32974500D01*
X3574363Y-32996681D01*
X3574359Y-32996682D01*
X3500137Y-33039535D01*
X3500137Y-33039536D01*
X3439536Y-33100137D01*
X3439535Y-33100137D01*
X3396682Y-33174359D01*
X3396681Y-33174363D01*
X3374500Y-33257143D01*
X300500Y-33257143D01*
X300500Y-25457143D01*
X849500Y-25457143D01*
X849500Y-25542856D01*
X871681Y-25625636D01*
X871682Y-25625640D01*
X914535Y-25699862D01*
X975138Y-25760465D01*
X1000530Y-25775125D01*
X1049359Y-25803317D01*
X1049361Y-25803317D01*
X1049362Y-25803318D01*
X1114651Y-25820812D01*
X1132143Y-25825499D01*
X1132144Y-25825500D01*
X1132147Y-25825500D01*
X1161299Y-25825500D01*
X1195947Y-25839852D01*
X4144748Y-28788653D01*
X4159100Y-28823301D01*
X4159100Y-35996899D01*
X4144748Y-36031547D01*
X4110100Y-36045899D01*
X4075452Y-36031547D01*
X3114852Y-35070947D01*
X3100500Y-35036299D01*
X3100500Y-35007144D01*
X3100499Y-35007143D01*
X3082384Y-34939536D01*
X3078318Y-34924362D01*
X3078317Y-34924361D01*
X3078317Y-34924359D01*
X3049530Y-34874500D01*
X3035465Y-34850138D01*
X2974862Y-34789535D01*
X2900640Y-34746682D01*
X2900636Y-34746681D01*
X2817856Y-34724500D01*
X2817853Y-34724500D01*
X2732147Y-34724500D01*
X2732144Y-34724500D01*
X2649363Y-34746681D01*
X2649359Y-34746682D01*
X2575137Y-34789535D01*
X2575137Y-34789536D01*
X2514536Y-34850137D01*
X2514535Y-34850137D01*
X2471682Y-34924359D01*
X2471681Y-34924363D01*
X2449500Y-35007143D01*
X2449500Y-35092856D01*
X2471681Y-35175636D01*
X2471682Y-35175640D01*
X2510488Y-35242853D01*
X2514535Y-35249862D01*
X2575138Y-35310465D01*
X2588037Y-35317912D01*
X2649359Y-35353317D01*
X2649361Y-35353317D01*
X2649362Y-35353318D01*
X2662156Y-35356746D01*
X2732143Y-35375499D01*
X2732144Y-35375500D01*
X2732147Y-35375500D01*
X2761299Y-35375500D01*
X2795947Y-35389852D01*
X4144748Y-36738653D01*
X4159100Y-36773301D01*
X4159100Y-39694877D01*
X4144748Y-39729525D01*
X4124136Y-39750137D01*
X4124135Y-39750137D01*
X4081282Y-39824359D01*
X4081281Y-39824363D01*
X4059100Y-39907143D01*
X4059100Y-39992856D01*
X4081281Y-40075636D01*
X4081282Y-40075640D01*
X4124135Y-40149862D01*
X4144747Y-40170474D01*
X4159099Y-40205122D01*
X4159099Y-40294856D01*
X4183374Y-40353460D01*
X4193430Y-40377737D01*
X4263755Y-40448061D01*
X4263757Y-40448062D01*
X4690634Y-40874939D01*
X4690637Y-40874943D01*
X4756861Y-40941168D01*
X4760874Y-40943849D01*
X4759646Y-40945686D01*
X4780422Y-40966444D01*
X4780439Y-41003947D01*
X4769809Y-41019864D01*
X4739534Y-41050139D01*
X4696682Y-41124359D01*
X4696681Y-41124363D01*
X4674500Y-41207143D01*
X4674500Y-41292856D01*
X4693566Y-41364012D01*
X4688671Y-41401194D01*
X4658919Y-41424024D01*
X4574361Y-41446682D01*
X4574359Y-41446682D01*
X4500137Y-41489535D01*
X4500137Y-41489536D01*
X4439536Y-41550137D01*
X4439535Y-41550137D01*
X4396682Y-41624359D01*
X4396681Y-41624363D01*
X4374500Y-41707143D01*
X4374500Y-41792856D01*
X4396681Y-41875636D01*
X4396682Y-41875640D01*
X4424892Y-41924500D01*
X4439535Y-41949862D01*
X4500138Y-42010465D01*
X4524210Y-42024363D01*
X4574359Y-42053317D01*
X4574361Y-42053317D01*
X4574362Y-42053318D01*
X4639651Y-42070812D01*
X4657143Y-42075499D01*
X4657144Y-42075500D01*
X4657147Y-42075500D01*
X4742855Y-42075500D01*
X4785192Y-42064155D01*
X4812817Y-42056753D01*
X4850000Y-42061648D01*
X4872830Y-42091400D01*
X4874500Y-42104083D01*
X4874500Y-42192856D01*
X4896681Y-42275636D01*
X4896682Y-42275640D01*
X4924892Y-42324500D01*
X4939535Y-42349862D01*
X5000138Y-42410465D01*
X5027304Y-42426149D01*
X5074359Y-42453317D01*
X5074361Y-42453317D01*
X5074362Y-42453318D01*
X5139651Y-42470812D01*
X5157143Y-42475499D01*
X5157144Y-42475500D01*
X5157147Y-42475500D01*
X5242856Y-42475500D01*
X5242856Y-42475499D01*
X5325638Y-42453318D01*
X5399862Y-42410465D01*
X5460465Y-42349862D01*
X5503318Y-42275638D01*
X5521671Y-42207143D01*
X17959100Y-42207143D01*
X17959100Y-42292856D01*
X17981281Y-42375636D01*
X17981282Y-42375640D01*
X18001389Y-42410465D01*
X18024135Y-42449862D01*
X18084738Y-42510465D01*
X18108810Y-42524363D01*
X18158959Y-42553317D01*
X18158961Y-42553317D01*
X18158962Y-42553318D01*
X18224251Y-42570812D01*
X18241743Y-42575499D01*
X18241744Y-42575500D01*
X18241747Y-42575500D01*
X18327456Y-42575500D01*
X18327456Y-42575499D01*
X18410238Y-42553318D01*
X18484462Y-42510465D01*
X18545065Y-42449862D01*
X18587918Y-42375638D01*
X18610099Y-42292856D01*
X18610100Y-42292856D01*
X18610100Y-42207144D01*
X18610099Y-42207143D01*
X18587918Y-42124363D01*
X18587917Y-42124359D01*
X18545064Y-42050137D01*
X18484462Y-41989535D01*
X18410240Y-41946682D01*
X18410236Y-41946681D01*
X18327456Y-41924500D01*
X18327453Y-41924500D01*
X18241747Y-41924500D01*
X18241744Y-41924500D01*
X18158963Y-41946681D01*
X18158959Y-41946682D01*
X18084737Y-41989535D01*
X18084737Y-41989536D01*
X18024136Y-42050137D01*
X18024135Y-42050137D01*
X17981282Y-42124359D01*
X17981281Y-42124363D01*
X17959100Y-42207143D01*
X5521671Y-42207143D01*
X5525499Y-42192857D01*
X5525500Y-42192856D01*
X5525500Y-42107144D01*
X5525499Y-42107143D01*
X5511076Y-42053317D01*
X5503318Y-42024362D01*
X5503317Y-42024361D01*
X5503317Y-42024359D01*
X5460464Y-41950137D01*
X5399862Y-41889535D01*
X5325640Y-41846682D01*
X5325636Y-41846681D01*
X5242856Y-41824500D01*
X5242853Y-41824500D01*
X5157147Y-41824500D01*
X5157144Y-41824500D01*
X5087182Y-41843246D01*
X5080617Y-41842381D01*
X5074500Y-41844916D01*
X5062681Y-41840020D01*
X5050000Y-41838351D01*
X5045969Y-41833097D01*
X5039852Y-41830564D01*
X5034956Y-41818745D01*
X5027170Y-41808598D01*
X5025500Y-41795916D01*
X5025500Y-41707144D01*
X5025500Y-41707143D01*
X14474500Y-41707143D01*
X14474500Y-41792856D01*
X14496681Y-41875636D01*
X14496682Y-41875640D01*
X14524892Y-41924500D01*
X14539535Y-41949862D01*
X14600138Y-42010465D01*
X14624210Y-42024363D01*
X14674359Y-42053317D01*
X14674361Y-42053317D01*
X14674362Y-42053318D01*
X14739651Y-42070812D01*
X14757143Y-42075499D01*
X14757144Y-42075500D01*
X14757147Y-42075500D01*
X14842856Y-42075500D01*
X14842856Y-42075499D01*
X14925638Y-42053318D01*
X14999862Y-42010465D01*
X15060465Y-41949862D01*
X15103318Y-41875638D01*
X15115585Y-41829855D01*
X15138415Y-41800103D01*
X15175597Y-41795208D01*
X15197563Y-41807890D01*
X15200138Y-41810465D01*
X15227304Y-41826149D01*
X15274359Y-41853317D01*
X15274361Y-41853317D01*
X15274362Y-41853318D01*
X15339651Y-41870812D01*
X15357143Y-41875499D01*
X15357144Y-41875500D01*
X15357147Y-41875500D01*
X15442856Y-41875500D01*
X15442856Y-41875499D01*
X15525638Y-41853318D01*
X15599862Y-41810465D01*
X15660465Y-41749862D01*
X15703318Y-41675638D01*
X15725499Y-41592856D01*
X15725500Y-41592856D01*
X15725500Y-41507144D01*
X15725499Y-41507143D01*
X15710151Y-41449863D01*
X15703318Y-41424362D01*
X15703317Y-41424361D01*
X15703317Y-41424359D01*
X15676149Y-41377304D01*
X15660465Y-41350138D01*
X15599862Y-41289535D01*
X15525640Y-41246682D01*
X15525636Y-41246681D01*
X15442856Y-41224500D01*
X15442853Y-41224500D01*
X15357147Y-41224500D01*
X15357144Y-41224500D01*
X15274363Y-41246681D01*
X15274359Y-41246682D01*
X15200137Y-41289535D01*
X15200137Y-41289536D01*
X15139536Y-41350137D01*
X15139535Y-41350137D01*
X15096682Y-41424359D01*
X15096682Y-41424361D01*
X15084414Y-41470144D01*
X15061583Y-41499897D01*
X15024401Y-41504791D01*
X15002436Y-41492109D01*
X14999862Y-41489535D01*
X14925640Y-41446682D01*
X14925636Y-41446681D01*
X14842856Y-41424500D01*
X14842853Y-41424500D01*
X14757147Y-41424500D01*
X14757144Y-41424500D01*
X14674363Y-41446681D01*
X14674359Y-41446682D01*
X14600137Y-41489535D01*
X14600137Y-41489536D01*
X14539536Y-41550137D01*
X14539535Y-41550137D01*
X14496682Y-41624359D01*
X14496681Y-41624363D01*
X14474500Y-41707143D01*
X5025500Y-41707143D01*
X5006433Y-41635987D01*
X5011328Y-41598805D01*
X5041081Y-41575975D01*
X5076986Y-41566354D01*
X5125638Y-41553318D01*
X5199862Y-41510465D01*
X5260465Y-41449862D01*
X5303318Y-41375638D01*
X5325499Y-41292856D01*
X5325500Y-41292856D01*
X5325500Y-41207144D01*
X5325499Y-41207143D01*
X5308273Y-41142856D01*
X5303318Y-41124362D01*
X5303317Y-41124361D01*
X5303317Y-41124359D01*
X5259808Y-41049000D01*
X5254913Y-41011818D01*
X5277743Y-40982065D01*
X5302243Y-40975500D01*
X6099436Y-40975500D01*
X6099444Y-40975501D01*
X6105145Y-40975501D01*
X6194853Y-40975501D01*
X6194855Y-40975501D01*
X6257625Y-40949500D01*
X6277736Y-40941170D01*
X6341170Y-40877736D01*
X6341170Y-40877735D01*
X6348059Y-40870846D01*
X6348060Y-40870843D01*
X6729053Y-40489852D01*
X6763701Y-40475500D01*
X14397757Y-40475500D01*
X14432405Y-40489852D01*
X14446757Y-40524500D01*
X14440192Y-40549000D01*
X14396682Y-40624359D01*
X14396681Y-40624363D01*
X14374500Y-40707143D01*
X14374500Y-40792856D01*
X14396681Y-40875636D01*
X14396682Y-40875640D01*
X14434517Y-40941170D01*
X14439535Y-40949862D01*
X14500138Y-41010465D01*
X14516418Y-41019864D01*
X14574359Y-41053317D01*
X14574361Y-41053317D01*
X14574362Y-41053318D01*
X14639651Y-41070812D01*
X14657143Y-41075499D01*
X14657144Y-41075500D01*
X14657147Y-41075500D01*
X14742856Y-41075500D01*
X14742856Y-41075499D01*
X14825638Y-41053318D01*
X14899862Y-41010465D01*
X14960465Y-40949862D01*
X14960468Y-40949855D01*
X14961127Y-40948999D01*
X14961602Y-40948724D01*
X14962736Y-40947591D01*
X14963039Y-40947894D01*
X14993606Y-40930249D01*
X15029831Y-40939957D01*
X15038873Y-40948999D01*
X15039534Y-40949860D01*
X15039535Y-40949862D01*
X15100138Y-41010465D01*
X15116418Y-41019864D01*
X15174359Y-41053317D01*
X15174361Y-41053317D01*
X15174362Y-41053318D01*
X15239651Y-41070812D01*
X15257143Y-41075499D01*
X15257144Y-41075500D01*
X15257147Y-41075500D01*
X15342856Y-41075500D01*
X15342856Y-41075499D01*
X15425638Y-41053318D01*
X15499862Y-41010465D01*
X15560465Y-40949862D01*
X15603318Y-40875638D01*
X15625499Y-40792856D01*
X15625500Y-40792856D01*
X15625500Y-40707144D01*
X15625499Y-40707143D01*
X15603318Y-40624363D01*
X15603317Y-40624359D01*
X15559808Y-40549000D01*
X15554913Y-40511818D01*
X15577743Y-40482065D01*
X15602243Y-40475500D01*
X16240900Y-40475500D01*
X16275548Y-40489852D01*
X16289900Y-40524500D01*
X16289900Y-40844877D01*
X16275548Y-40879525D01*
X16254936Y-40900137D01*
X16254935Y-40900137D01*
X16212082Y-40974359D01*
X16212081Y-40974363D01*
X16189900Y-41057143D01*
X16189900Y-41142856D01*
X16212081Y-41225636D01*
X16212082Y-41225640D01*
X16248973Y-41289535D01*
X16254935Y-41299862D01*
X16315538Y-41360465D01*
X16321682Y-41364012D01*
X16389759Y-41403317D01*
X16389761Y-41403317D01*
X16389762Y-41403318D01*
X16455051Y-41420812D01*
X16472543Y-41425499D01*
X16472544Y-41425500D01*
X16472547Y-41425500D01*
X16558256Y-41425500D01*
X16558256Y-41425499D01*
X16641038Y-41403318D01*
X16715262Y-41360465D01*
X16775865Y-41299862D01*
X16818718Y-41225638D01*
X16840899Y-41142856D01*
X16840900Y-41142856D01*
X16840900Y-41057144D01*
X16840899Y-41057143D01*
X16822784Y-40989536D01*
X16818718Y-40974362D01*
X16818717Y-40974361D01*
X16818717Y-40974359D01*
X16775864Y-40900137D01*
X16755252Y-40879525D01*
X16740900Y-40844877D01*
X16740900Y-40207143D01*
X17959100Y-40207143D01*
X17959100Y-40292856D01*
X17981281Y-40375636D01*
X17981282Y-40375640D01*
X18019117Y-40441170D01*
X18024135Y-40449862D01*
X18084738Y-40510465D01*
X18111904Y-40526149D01*
X18158959Y-40553317D01*
X18158961Y-40553317D01*
X18158962Y-40553318D01*
X18224251Y-40570812D01*
X18241743Y-40575499D01*
X18241744Y-40575500D01*
X18241747Y-40575500D01*
X18327456Y-40575500D01*
X18327456Y-40575499D01*
X18410238Y-40553318D01*
X18484462Y-40510465D01*
X18545065Y-40449862D01*
X18587918Y-40375638D01*
X18610099Y-40292856D01*
X18610100Y-40292856D01*
X18610100Y-40207144D01*
X18610099Y-40207143D01*
X18600337Y-40170711D01*
X18587918Y-40124362D01*
X18587917Y-40124361D01*
X18587917Y-40124359D01*
X18560749Y-40077304D01*
X18545065Y-40050138D01*
X18484462Y-39989535D01*
X18473249Y-39983061D01*
X18410240Y-39946682D01*
X18410236Y-39946681D01*
X18327456Y-39924500D01*
X18327453Y-39924500D01*
X18241747Y-39924500D01*
X18241744Y-39924500D01*
X18158963Y-39946681D01*
X18158959Y-39946682D01*
X18084737Y-39989535D01*
X18084737Y-39989536D01*
X18024136Y-40050137D01*
X18024135Y-40050137D01*
X17981282Y-40124359D01*
X17981281Y-40124363D01*
X17959100Y-40207143D01*
X16740900Y-40207143D01*
X16740900Y-40205147D01*
X16740900Y-40205145D01*
X16706570Y-40122264D01*
X16706569Y-40122263D01*
X16706568Y-40122261D01*
X16643139Y-40058832D01*
X16643136Y-40058830D01*
X16560258Y-40024501D01*
X16560256Y-40024500D01*
X16560255Y-40024500D01*
X16560253Y-40024500D01*
X6700564Y-40024500D01*
X6700556Y-40024499D01*
X6694855Y-40024499D01*
X6605146Y-40024499D01*
X6556594Y-40044608D01*
X6556595Y-40044609D01*
X6522262Y-40058830D01*
X6458830Y-40122264D01*
X6458829Y-40122265D01*
X6070947Y-40510148D01*
X6036299Y-40524500D01*
X6002243Y-40524500D01*
X5967595Y-40510148D01*
X5953243Y-40475500D01*
X5959808Y-40451000D01*
X6003317Y-40375640D01*
X6003317Y-40375639D01*
X6003318Y-40375638D01*
X6025499Y-40292856D01*
X6025500Y-40292856D01*
X6025500Y-40207144D01*
X6025499Y-40207143D01*
X6015737Y-40170711D01*
X6003318Y-40124362D01*
X6003317Y-40124361D01*
X6003317Y-40124359D01*
X5976149Y-40077304D01*
X5960465Y-40050138D01*
X5899862Y-39989535D01*
X5888649Y-39983061D01*
X5825640Y-39946682D01*
X5825636Y-39946681D01*
X5742856Y-39924500D01*
X5742853Y-39924500D01*
X5657147Y-39924500D01*
X5657144Y-39924500D01*
X5574363Y-39946681D01*
X5574359Y-39946682D01*
X5500137Y-39989535D01*
X5500137Y-39989536D01*
X5439536Y-40050137D01*
X5439535Y-40050137D01*
X5396682Y-40124359D01*
X5396681Y-40124363D01*
X5374500Y-40207143D01*
X5374500Y-40292856D01*
X5396681Y-40375636D01*
X5396682Y-40375640D01*
X5440192Y-40451000D01*
X5445087Y-40488182D01*
X5422257Y-40517935D01*
X5397757Y-40524500D01*
X4998301Y-40524500D01*
X4963653Y-40510148D01*
X4656388Y-40202883D01*
X4642036Y-40168235D01*
X4648599Y-40143740D01*
X4687918Y-40075638D01*
X4703440Y-40017708D01*
X4726268Y-39987957D01*
X4763450Y-39983061D01*
X4785417Y-39995744D01*
X4800138Y-40010465D01*
X4824449Y-40024501D01*
X4874359Y-40053317D01*
X4874361Y-40053317D01*
X4874362Y-40053318D01*
X4894941Y-40058832D01*
X4957143Y-40075499D01*
X4957144Y-40075500D01*
X4957147Y-40075500D01*
X5042856Y-40075500D01*
X5042856Y-40075499D01*
X5125638Y-40053318D01*
X5199862Y-40010465D01*
X5260465Y-39949862D01*
X5303318Y-39875638D01*
X5325499Y-39792856D01*
X5325500Y-39792856D01*
X5325500Y-39707144D01*
X5325499Y-39707143D01*
X5317057Y-39675636D01*
X5303318Y-39624362D01*
X5303317Y-39624361D01*
X5303317Y-39624359D01*
X5260464Y-39550137D01*
X5199862Y-39489535D01*
X5125640Y-39446682D01*
X5125636Y-39446681D01*
X5042856Y-39424500D01*
X5042853Y-39424500D01*
X4957147Y-39424500D01*
X4957144Y-39424500D01*
X4874363Y-39446681D01*
X4874359Y-39446682D01*
X4800137Y-39489535D01*
X4800137Y-39489536D01*
X4739536Y-39550137D01*
X4739535Y-39550137D01*
X4701535Y-39615955D01*
X4671782Y-39638785D01*
X4634600Y-39633890D01*
X4611770Y-39604137D01*
X4610100Y-39591455D01*
X4610100Y-38038723D01*
X4624452Y-38004075D01*
X4659100Y-37989723D01*
X4693748Y-38004075D01*
X4700138Y-38010465D01*
X4719809Y-38021822D01*
X4774359Y-38053317D01*
X4774361Y-38053317D01*
X4774362Y-38053318D01*
X4786126Y-38056470D01*
X4858918Y-38075975D01*
X4888671Y-38098805D01*
X4893566Y-38135987D01*
X4874500Y-38207143D01*
X4874500Y-38292856D01*
X4896681Y-38375636D01*
X4896682Y-38375640D01*
X4936974Y-38445426D01*
X4939535Y-38449862D01*
X5000138Y-38510465D01*
X5027304Y-38526149D01*
X5074359Y-38553317D01*
X5074361Y-38553317D01*
X5074362Y-38553318D01*
X5139651Y-38570812D01*
X5157143Y-38575499D01*
X5157144Y-38575500D01*
X5157147Y-38575500D01*
X5242856Y-38575500D01*
X5242856Y-38575499D01*
X5325638Y-38553318D01*
X5399862Y-38510465D01*
X5460465Y-38449862D01*
X5503318Y-38375638D01*
X5525499Y-38292856D01*
X5525500Y-38292856D01*
X5525500Y-38207144D01*
X5525499Y-38207143D01*
X5503318Y-38124363D01*
X5503317Y-38124359D01*
X5472407Y-38070822D01*
X5460465Y-38050138D01*
X5399862Y-37989535D01*
X5325639Y-37946682D01*
X5241080Y-37924024D01*
X5211328Y-37901194D01*
X5206433Y-37864011D01*
X5209299Y-37853318D01*
X5225500Y-37792853D01*
X5225500Y-37707147D01*
X5225500Y-37707144D01*
X5225499Y-37707143D01*
X13974500Y-37707143D01*
X13974500Y-37792856D01*
X13996681Y-37875636D01*
X13996682Y-37875640D01*
X14024892Y-37924500D01*
X14039535Y-37949862D01*
X14100138Y-38010465D01*
X14119809Y-38021822D01*
X14174359Y-38053317D01*
X14174361Y-38053317D01*
X14174362Y-38053318D01*
X14186126Y-38056470D01*
X14257143Y-38075499D01*
X14257144Y-38075500D01*
X14257147Y-38075500D01*
X14342856Y-38075500D01*
X14342856Y-38075499D01*
X14425638Y-38053318D01*
X14428526Y-38051651D01*
X14450917Y-38038723D01*
X14499862Y-38010465D01*
X14560465Y-37949862D01*
X14603318Y-37875638D01*
X14625499Y-37792856D01*
X14625500Y-37792856D01*
X14625500Y-37707144D01*
X14625499Y-37707143D01*
X14603318Y-37624363D01*
X14603317Y-37624359D01*
X14560464Y-37550137D01*
X14499862Y-37489535D01*
X14425640Y-37446682D01*
X14425636Y-37446681D01*
X14342856Y-37424500D01*
X14342853Y-37424500D01*
X14257147Y-37424500D01*
X14257144Y-37424500D01*
X14174363Y-37446681D01*
X14174359Y-37446682D01*
X14100137Y-37489535D01*
X14100137Y-37489536D01*
X14039536Y-37550137D01*
X14039535Y-37550137D01*
X13996682Y-37624359D01*
X13996681Y-37624363D01*
X13974500Y-37707143D01*
X5225499Y-37707143D01*
X5203318Y-37624363D01*
X5203317Y-37624359D01*
X5160464Y-37550137D01*
X5099862Y-37489535D01*
X5025640Y-37446682D01*
X5025636Y-37446681D01*
X4942856Y-37424500D01*
X4942853Y-37424500D01*
X4857147Y-37424500D01*
X4857144Y-37424500D01*
X4774363Y-37446681D01*
X4774359Y-37446682D01*
X4700137Y-37489535D01*
X4700137Y-37489536D01*
X4693748Y-37495925D01*
X4659100Y-37510277D01*
X4624452Y-37495925D01*
X4610100Y-37461277D01*
X4610100Y-37207143D01*
X5374500Y-37207143D01*
X5374500Y-37292856D01*
X5396681Y-37375636D01*
X5396682Y-37375640D01*
X5438664Y-37448353D01*
X5439535Y-37449862D01*
X5500138Y-37510465D01*
X5527304Y-37526149D01*
X5574359Y-37553317D01*
X5574361Y-37553317D01*
X5574362Y-37553318D01*
X5639651Y-37570812D01*
X5657143Y-37575499D01*
X5657144Y-37575500D01*
X5657147Y-37575500D01*
X5742856Y-37575500D01*
X5742856Y-37575499D01*
X5825638Y-37553318D01*
X5899862Y-37510465D01*
X5960465Y-37449862D01*
X6003318Y-37375638D01*
X6025499Y-37292856D01*
X6025500Y-37292856D01*
X6025500Y-37207144D01*
X6025499Y-37207143D01*
X6003318Y-37124363D01*
X6003317Y-37124359D01*
X5972407Y-37070822D01*
X5960465Y-37050138D01*
X5899862Y-36989535D01*
X5825640Y-36946682D01*
X5825636Y-36946681D01*
X5742856Y-36924500D01*
X5742853Y-36924500D01*
X5657147Y-36924500D01*
X5657144Y-36924500D01*
X5574363Y-36946681D01*
X5574359Y-36946682D01*
X5500137Y-36989535D01*
X5500137Y-36989536D01*
X5439536Y-37050137D01*
X5439535Y-37050137D01*
X5396682Y-37124359D01*
X5396681Y-37124363D01*
X5374500Y-37207143D01*
X4610100Y-37207143D01*
X4610100Y-36908544D01*
X4624452Y-36873896D01*
X4659100Y-36859544D01*
X4693748Y-36873896D01*
X4701535Y-36884044D01*
X4739535Y-36949862D01*
X4800138Y-37010465D01*
X4819809Y-37021822D01*
X4874359Y-37053317D01*
X4874361Y-37053317D01*
X4874362Y-37053318D01*
X4886126Y-37056470D01*
X4957143Y-37075499D01*
X4957144Y-37075500D01*
X4957147Y-37075500D01*
X5042856Y-37075500D01*
X5042856Y-37075499D01*
X5125638Y-37053318D01*
X5128526Y-37051651D01*
X5135583Y-37047576D01*
X5199862Y-37010465D01*
X5260465Y-36949862D01*
X5303318Y-36875638D01*
X5325499Y-36792856D01*
X5325500Y-36792856D01*
X5325500Y-36707144D01*
X5325499Y-36707143D01*
X13974500Y-36707143D01*
X13974500Y-36792856D01*
X13996681Y-36875636D01*
X13996682Y-36875640D01*
X14015680Y-36908544D01*
X14039535Y-36949862D01*
X14100138Y-37010465D01*
X14119809Y-37021822D01*
X14174359Y-37053317D01*
X14174361Y-37053317D01*
X14174362Y-37053318D01*
X14186126Y-37056470D01*
X14257143Y-37075499D01*
X14257144Y-37075500D01*
X14257147Y-37075500D01*
X14342856Y-37075500D01*
X14342856Y-37075499D01*
X14425638Y-37053318D01*
X14428526Y-37051651D01*
X14435583Y-37047576D01*
X14499862Y-37010465D01*
X14560465Y-36949862D01*
X14603318Y-36875638D01*
X14625499Y-36792856D01*
X14625500Y-36792856D01*
X14625500Y-36707144D01*
X14625499Y-36707143D01*
X14620812Y-36689651D01*
X14603318Y-36624362D01*
X14603317Y-36624361D01*
X14603317Y-36624359D01*
X14560464Y-36550137D01*
X14499862Y-36489535D01*
X14425640Y-36446682D01*
X14425636Y-36446681D01*
X14342856Y-36424500D01*
X14342853Y-36424500D01*
X14257147Y-36424500D01*
X14257144Y-36424500D01*
X14174363Y-36446681D01*
X14174359Y-36446682D01*
X14100137Y-36489535D01*
X14100137Y-36489536D01*
X14039536Y-36550137D01*
X14039535Y-36550137D01*
X13996682Y-36624359D01*
X13996681Y-36624363D01*
X13974500Y-36707143D01*
X5325499Y-36707143D01*
X5320812Y-36689651D01*
X5303318Y-36624362D01*
X5303317Y-36624361D01*
X5303317Y-36624359D01*
X5260464Y-36550137D01*
X5199862Y-36489535D01*
X5125640Y-36446682D01*
X5125636Y-36446681D01*
X5042856Y-36424500D01*
X5042853Y-36424500D01*
X4957147Y-36424500D01*
X4957144Y-36424500D01*
X4874363Y-36446681D01*
X4874359Y-36446682D01*
X4800137Y-36489535D01*
X4800137Y-36489536D01*
X4739536Y-36550137D01*
X4739535Y-36550137D01*
X4701535Y-36615955D01*
X4671782Y-36638785D01*
X4634600Y-36633890D01*
X4611770Y-36604137D01*
X4610100Y-36591455D01*
X4610100Y-36068623D01*
X5162000Y-36068623D01*
X5162000Y-36154336D01*
X5184181Y-36237116D01*
X5184182Y-36237120D01*
X5197661Y-36260465D01*
X5227035Y-36311342D01*
X5287638Y-36371945D01*
X5314804Y-36387629D01*
X5361859Y-36414797D01*
X5361861Y-36414797D01*
X5361862Y-36414798D01*
X5398071Y-36424500D01*
X5444643Y-36436979D01*
X5444644Y-36436980D01*
X5444647Y-36436980D01*
X5530356Y-36436980D01*
X5530356Y-36436979D01*
X5613138Y-36414798D01*
X5687362Y-36371945D01*
X5747965Y-36311342D01*
X5790818Y-36237118D01*
X5812999Y-36154336D01*
X5813000Y-36154336D01*
X5813000Y-36068624D01*
X5812999Y-36068623D01*
X5806094Y-36042853D01*
X5790818Y-35985842D01*
X5790817Y-35985841D01*
X5790817Y-35985839D01*
X5747964Y-35911617D01*
X5687362Y-35851015D01*
X5613140Y-35808162D01*
X5613136Y-35808161D01*
X5530356Y-35785980D01*
X5530353Y-35785980D01*
X5444647Y-35785980D01*
X5444644Y-35785980D01*
X5361863Y-35808161D01*
X5361859Y-35808162D01*
X5287637Y-35851015D01*
X5287637Y-35851016D01*
X5227036Y-35911617D01*
X5227035Y-35911617D01*
X5184182Y-35985839D01*
X5184181Y-35985843D01*
X5162000Y-36068623D01*
X4610100Y-36068623D01*
X4610100Y-35157143D01*
X5374500Y-35157143D01*
X5374500Y-35242856D01*
X5396681Y-35325636D01*
X5396682Y-35325640D01*
X5432791Y-35388181D01*
X5439535Y-35399862D01*
X5500138Y-35460465D01*
X5527304Y-35476149D01*
X5574359Y-35503317D01*
X5574361Y-35503317D01*
X5574362Y-35503318D01*
X5623185Y-35516400D01*
X5657143Y-35525499D01*
X5657144Y-35525500D01*
X5657147Y-35525500D01*
X5742856Y-35525500D01*
X5742856Y-35525499D01*
X5825638Y-35503318D01*
X5899862Y-35460465D01*
X5960465Y-35399862D01*
X6003318Y-35325638D01*
X6025499Y-35242856D01*
X6025500Y-35242856D01*
X6025500Y-35157144D01*
X6025499Y-35157143D01*
X6008273Y-35092856D01*
X6003318Y-35074362D01*
X6003317Y-35074361D01*
X6003317Y-35074359D01*
X5974819Y-35025000D01*
X5960465Y-35000138D01*
X5899862Y-34939535D01*
X5825640Y-34896682D01*
X5825636Y-34896681D01*
X5742856Y-34874500D01*
X5742853Y-34874500D01*
X5657147Y-34874500D01*
X5657144Y-34874500D01*
X5574363Y-34896681D01*
X5574359Y-34896682D01*
X5500137Y-34939535D01*
X5500137Y-34939536D01*
X5439536Y-35000137D01*
X5439535Y-35000137D01*
X5396682Y-35074359D01*
X5396681Y-35074363D01*
X5374500Y-35157143D01*
X4610100Y-35157143D01*
X4610100Y-28760164D01*
X4610101Y-28760155D01*
X4610101Y-28664747D01*
X4610100Y-28664743D01*
X4575770Y-28581865D01*
X4575769Y-28581863D01*
X4509546Y-28515640D01*
X4509539Y-28515634D01*
X1514852Y-25520947D01*
X1500500Y-25486299D01*
X1500500Y-25457144D01*
X1500499Y-25457143D01*
X1478318Y-25374363D01*
X1478317Y-25374359D01*
X1435464Y-25300137D01*
X1374862Y-25239535D01*
X1300640Y-25196682D01*
X1300636Y-25196681D01*
X1217856Y-25174500D01*
X1217853Y-25174500D01*
X1132147Y-25174500D01*
X1132144Y-25174500D01*
X1049363Y-25196681D01*
X1049359Y-25196682D01*
X975137Y-25239535D01*
X975137Y-25239536D01*
X914536Y-25300137D01*
X914535Y-25300137D01*
X871682Y-25374359D01*
X871681Y-25374363D01*
X849500Y-25457143D01*
X300500Y-25457143D01*
X300500Y-18957143D01*
X2474500Y-18957143D01*
X2474500Y-19042856D01*
X2496681Y-19125636D01*
X2496682Y-19125640D01*
X2516789Y-19160465D01*
X2539535Y-19199862D01*
X2600138Y-19260465D01*
X2624210Y-19274363D01*
X2674359Y-19303317D01*
X2674361Y-19303317D01*
X2674362Y-19303318D01*
X2739651Y-19320812D01*
X2757143Y-19325499D01*
X2757144Y-19325500D01*
X2757147Y-19325500D01*
X2842856Y-19325500D01*
X2842856Y-19325499D01*
X2925638Y-19303318D01*
X2999862Y-19260465D01*
X3060465Y-19199862D01*
X3103318Y-19125638D01*
X3125499Y-19042856D01*
X3125500Y-19042856D01*
X3125500Y-18957144D01*
X3125499Y-18957143D01*
X3110151Y-18899863D01*
X3103318Y-18874362D01*
X3103317Y-18874361D01*
X3103317Y-18874359D01*
X3076149Y-18827304D01*
X3060465Y-18800138D01*
X2999862Y-18739535D01*
X2925640Y-18696682D01*
X2925636Y-18696681D01*
X2842856Y-18674500D01*
X2842853Y-18674500D01*
X2757147Y-18674500D01*
X2757144Y-18674500D01*
X2674363Y-18696681D01*
X2674359Y-18696682D01*
X2600137Y-18739535D01*
X2600137Y-18739536D01*
X2539536Y-18800137D01*
X2539535Y-18800137D01*
X2496682Y-18874359D01*
X2496681Y-18874363D01*
X2474500Y-18957143D01*
X300500Y-18957143D01*
X300500Y-13270065D01*
X3774500Y-13270065D01*
X3774500Y-25554936D01*
X3783990Y-25577848D01*
X3797412Y-25610252D01*
X3797413Y-25610254D01*
X4364746Y-26177585D01*
X4364748Y-26177587D01*
X4380946Y-26184295D01*
X4380949Y-26184298D01*
X4380950Y-26184297D01*
X4420064Y-26200500D01*
X4595877Y-26200500D01*
X4630525Y-26214852D01*
X4644877Y-26249500D01*
X4630525Y-26284148D01*
X4614536Y-26300137D01*
X4614535Y-26300137D01*
X4571682Y-26374359D01*
X4571681Y-26374363D01*
X4549500Y-26457143D01*
X4549500Y-26542856D01*
X4571681Y-26625636D01*
X4571682Y-26625640D01*
X4614535Y-26699862D01*
X4675138Y-26760465D01*
X4702304Y-26776149D01*
X4749359Y-26803317D01*
X4749361Y-26803317D01*
X4749362Y-26803318D01*
X4814651Y-26820812D01*
X4832143Y-26825499D01*
X4832144Y-26825500D01*
X4832147Y-26825500D01*
X4917856Y-26825500D01*
X4917856Y-26825499D01*
X5000638Y-26803318D01*
X5026001Y-26788674D01*
X5063181Y-26783779D01*
X5092935Y-26806609D01*
X5099500Y-26831110D01*
X5099500Y-33454935D01*
X5103872Y-33465489D01*
X5103873Y-33465491D01*
X5122411Y-33510249D01*
X5122414Y-33510254D01*
X6769305Y-35157143D01*
X7314750Y-35702588D01*
X7342407Y-35714043D01*
X7370065Y-35725500D01*
X7370066Y-35725500D01*
X11904934Y-35725500D01*
X11904936Y-35725500D01*
X11927848Y-35716009D01*
X11960252Y-35702588D01*
X12132087Y-35530751D01*
X12166734Y-35516400D01*
X12179417Y-35518070D01*
X12207145Y-35525500D01*
X12207147Y-35525500D01*
X12292856Y-35525500D01*
X12292856Y-35525499D01*
X12375638Y-35503318D01*
X12449862Y-35460465D01*
X12510465Y-35399862D01*
X12553318Y-35325638D01*
X12575499Y-35242856D01*
X12575500Y-35242856D01*
X12575500Y-35157144D01*
X12575499Y-35157143D01*
X13974500Y-35157143D01*
X13974500Y-35242856D01*
X13996681Y-35325636D01*
X13996682Y-35325640D01*
X14032791Y-35388181D01*
X14039535Y-35399862D01*
X14100138Y-35460465D01*
X14127304Y-35476149D01*
X14174359Y-35503317D01*
X14174361Y-35503317D01*
X14174362Y-35503318D01*
X14223185Y-35516400D01*
X14257143Y-35525499D01*
X14257144Y-35525500D01*
X14257147Y-35525500D01*
X14342856Y-35525500D01*
X14342856Y-35525499D01*
X14425638Y-35503318D01*
X14499862Y-35460465D01*
X14560465Y-35399862D01*
X14603318Y-35325638D01*
X14625499Y-35242856D01*
X14625500Y-35242856D01*
X14625500Y-35157144D01*
X14625499Y-35157143D01*
X14608273Y-35092856D01*
X14603318Y-35074362D01*
X14603317Y-35074361D01*
X14603317Y-35074359D01*
X14574819Y-35025000D01*
X14560465Y-35000138D01*
X14499862Y-34939535D01*
X14425640Y-34896682D01*
X14425636Y-34896681D01*
X14342856Y-34874500D01*
X14342853Y-34874500D01*
X14257147Y-34874500D01*
X14257144Y-34874500D01*
X14174363Y-34896681D01*
X14174359Y-34896682D01*
X14100137Y-34939535D01*
X14100137Y-34939536D01*
X14039536Y-35000137D01*
X14039535Y-35000137D01*
X13996682Y-35074359D01*
X13996681Y-35074363D01*
X13974500Y-35157143D01*
X12575499Y-35157143D01*
X12558273Y-35092856D01*
X12553318Y-35074362D01*
X12553317Y-35074361D01*
X12553317Y-35074359D01*
X12524819Y-35025000D01*
X12510465Y-35000138D01*
X12449862Y-34939535D01*
X12375640Y-34896682D01*
X12375636Y-34896681D01*
X12292856Y-34874500D01*
X12292853Y-34874500D01*
X12207147Y-34874500D01*
X12207144Y-34874500D01*
X12124363Y-34896681D01*
X12124359Y-34896682D01*
X12050137Y-34939535D01*
X12050137Y-34939536D01*
X11989536Y-35000137D01*
X11989535Y-35000137D01*
X11946682Y-35074359D01*
X11946681Y-35074363D01*
X11924500Y-35157143D01*
X11924500Y-35242853D01*
X11931929Y-35270584D01*
X11927032Y-35307766D01*
X11919246Y-35317912D01*
X11827011Y-35410148D01*
X11792365Y-35424500D01*
X11581110Y-35424500D01*
X11546462Y-35410148D01*
X11532110Y-35375500D01*
X11538674Y-35351001D01*
X11553318Y-35325638D01*
X11575499Y-35242856D01*
X11575500Y-35242856D01*
X11575500Y-35157144D01*
X11575499Y-35157143D01*
X11558273Y-35092856D01*
X11553318Y-35074362D01*
X11553317Y-35074361D01*
X11553317Y-35074359D01*
X11524819Y-35025000D01*
X11510465Y-35000138D01*
X11449862Y-34939535D01*
X11375640Y-34896682D01*
X11375636Y-34896681D01*
X11292856Y-34874500D01*
X11292853Y-34874500D01*
X11207147Y-34874500D01*
X11207144Y-34874500D01*
X11124363Y-34896681D01*
X11124359Y-34896682D01*
X11050137Y-34939535D01*
X11050137Y-34939536D01*
X10989536Y-35000137D01*
X10989535Y-35000137D01*
X10975181Y-35025000D01*
X10945428Y-35047830D01*
X10932746Y-35049500D01*
X9957635Y-35049500D01*
X9922987Y-35035148D01*
X9790155Y-34902315D01*
X9775803Y-34867667D01*
X9790155Y-34833019D01*
X9812120Y-34820337D01*
X9875638Y-34803318D01*
X9949862Y-34760465D01*
X10010465Y-34699862D01*
X10053318Y-34625638D01*
X10075500Y-34542853D01*
X10075975Y-34541081D01*
X10098805Y-34511328D01*
X10135987Y-34506433D01*
X10207144Y-34525500D01*
X10207147Y-34525500D01*
X10292855Y-34525500D01*
X10332711Y-34514819D01*
X10364012Y-34506433D01*
X10401194Y-34511328D01*
X10424024Y-34541080D01*
X10446682Y-34625638D01*
X10446682Y-34625640D01*
X10489535Y-34699862D01*
X10550138Y-34760465D01*
X10577304Y-34776149D01*
X10624359Y-34803317D01*
X10624361Y-34803317D01*
X10624362Y-34803318D01*
X10657156Y-34812105D01*
X10707143Y-34825499D01*
X10707144Y-34825500D01*
X10707147Y-34825500D01*
X10792856Y-34825500D01*
X10792856Y-34825499D01*
X10875638Y-34803318D01*
X10949862Y-34760465D01*
X11010465Y-34699862D01*
X11053318Y-34625638D01*
X11075499Y-34542856D01*
X11075500Y-34542856D01*
X11075500Y-34457144D01*
X11075499Y-34457143D01*
X12424500Y-34457143D01*
X12424500Y-34542856D01*
X12446681Y-34625636D01*
X12446682Y-34625640D01*
X12489535Y-34699862D01*
X12550138Y-34760465D01*
X12577304Y-34776149D01*
X12624359Y-34803317D01*
X12624361Y-34803317D01*
X12624362Y-34803318D01*
X12657156Y-34812105D01*
X12707143Y-34825499D01*
X12707144Y-34825500D01*
X12707147Y-34825500D01*
X12792856Y-34825500D01*
X12792856Y-34825499D01*
X12875638Y-34803318D01*
X12949862Y-34760465D01*
X13010465Y-34699862D01*
X13053318Y-34625638D01*
X13075499Y-34542856D01*
X13075500Y-34542856D01*
X13075500Y-34457144D01*
X13075499Y-34457143D01*
X13053318Y-34374363D01*
X13053317Y-34374359D01*
X13010464Y-34300137D01*
X12949862Y-34239535D01*
X12875640Y-34196682D01*
X12875636Y-34196681D01*
X12792856Y-34174500D01*
X12792853Y-34174500D01*
X12707147Y-34174500D01*
X12707144Y-34174500D01*
X12624363Y-34196681D01*
X12624359Y-34196682D01*
X12550137Y-34239535D01*
X12550137Y-34239536D01*
X12489536Y-34300137D01*
X12489535Y-34300137D01*
X12446682Y-34374359D01*
X12446681Y-34374363D01*
X12424500Y-34457143D01*
X11075499Y-34457143D01*
X11053318Y-34374363D01*
X11053317Y-34374359D01*
X11010464Y-34300137D01*
X10949862Y-34239535D01*
X10875640Y-34196682D01*
X10875636Y-34196681D01*
X10792856Y-34174500D01*
X10792853Y-34174500D01*
X10707147Y-34174500D01*
X10707144Y-34174500D01*
X10635987Y-34193566D01*
X10598805Y-34188671D01*
X10575975Y-34158918D01*
X10560748Y-34102091D01*
X10553318Y-34074362D01*
X10553317Y-34074361D01*
X10553317Y-34074359D01*
X10526149Y-34027304D01*
X10510465Y-34000138D01*
X10449862Y-33939535D01*
X10375640Y-33896682D01*
X10375636Y-33896681D01*
X10292856Y-33874500D01*
X10292853Y-33874500D01*
X10207147Y-33874500D01*
X10207146Y-33874500D01*
X10179415Y-33881930D01*
X10142233Y-33877034D01*
X10132086Y-33869247D01*
X8451421Y-32188582D01*
X8419981Y-32157142D01*
X10174500Y-32157142D01*
X10174500Y-32242855D01*
X10196681Y-32325635D01*
X10196682Y-32325639D01*
X10239535Y-32399861D01*
X10300138Y-32460464D01*
X10327304Y-32476148D01*
X10374359Y-32503316D01*
X10374361Y-32503316D01*
X10374362Y-32503317D01*
X10439651Y-32520811D01*
X10457143Y-32525498D01*
X10457144Y-32525499D01*
X10457147Y-32525499D01*
X10542856Y-32525499D01*
X10542856Y-32525498D01*
X10625638Y-32503317D01*
X10699862Y-32460464D01*
X10760465Y-32399861D01*
X10803318Y-32325637D01*
X10825499Y-32242855D01*
X10825500Y-32242855D01*
X10825500Y-32157143D01*
X10825499Y-32157142D01*
X10803318Y-32074362D01*
X10803317Y-32074358D01*
X10760464Y-32000136D01*
X10699862Y-31939534D01*
X10625640Y-31896681D01*
X10625636Y-31896680D01*
X10542856Y-31874499D01*
X10542853Y-31874499D01*
X10457147Y-31874499D01*
X10457144Y-31874499D01*
X10374363Y-31896680D01*
X10374359Y-31896681D01*
X10300137Y-31939534D01*
X10300137Y-31939535D01*
X10239536Y-32000136D01*
X10239535Y-32000136D01*
X10196682Y-32074358D01*
X10196681Y-32074362D01*
X10174500Y-32157142D01*
X8419981Y-32157142D01*
X8273304Y-32010465D01*
X6489852Y-30227012D01*
X6475500Y-30192364D01*
X6475500Y-28963807D01*
X6489852Y-28929159D01*
X6524500Y-28914807D01*
X6559148Y-28929159D01*
X6572031Y-28951899D01*
X6650708Y-29265996D01*
X6766421Y-29589392D01*
X6766424Y-29589398D01*
X6766425Y-29589401D01*
X6766430Y-29589413D01*
X6913266Y-29899871D01*
X6913271Y-29899880D01*
X6913275Y-29899888D01*
X7055095Y-30136500D01*
X7089860Y-30194502D01*
X7294456Y-30470367D01*
X7294463Y-30470376D01*
X7346553Y-30527848D01*
X7525125Y-30724873D01*
X7651636Y-30839535D01*
X7779623Y-30955536D01*
X7779626Y-30955538D01*
X7779631Y-30955542D01*
X8055496Y-31160138D01*
X8055502Y-31160141D01*
X8055504Y-31160143D01*
X8350111Y-31336724D01*
X8350122Y-31336729D01*
X8350127Y-31336732D01*
X8660585Y-31483568D01*
X8660592Y-31483570D01*
X8660607Y-31483578D01*
X8984003Y-31599291D01*
X9317183Y-31682748D01*
X9656940Y-31733146D01*
X10000000Y-31750000D01*
X10343059Y-31733146D01*
X10682816Y-31682748D01*
X10975298Y-31609485D01*
X11012394Y-31614987D01*
X11034734Y-31645110D01*
X11034534Y-31669697D01*
X11024500Y-31707146D01*
X11024500Y-31792856D01*
X11046681Y-31875636D01*
X11046682Y-31875640D01*
X11083572Y-31939534D01*
X11089535Y-31949862D01*
X11150138Y-32010465D01*
X11177304Y-32026149D01*
X11224359Y-32053317D01*
X11224361Y-32053317D01*
X11224362Y-32053318D01*
X11289651Y-32070812D01*
X11307143Y-32075499D01*
X11307144Y-32075500D01*
X11307147Y-32075500D01*
X11392856Y-32075500D01*
X11392856Y-32075499D01*
X11475638Y-32053318D01*
X11549862Y-32010465D01*
X11610465Y-31949862D01*
X11653318Y-31875638D01*
X11675499Y-31792856D01*
X11675500Y-31792856D01*
X11675500Y-31707144D01*
X11675499Y-31707143D01*
X11653318Y-31624363D01*
X11653317Y-31624359D01*
X11610464Y-31550137D01*
X11549862Y-31489535D01*
X11530390Y-31478293D01*
X11507560Y-31448540D01*
X11512455Y-31411358D01*
X11533938Y-31391563D01*
X11649888Y-31336724D01*
X11944495Y-31160143D01*
X12220376Y-30955536D01*
X12474873Y-30724873D01*
X12705536Y-30470376D01*
X12910143Y-30194495D01*
X13086724Y-29899888D01*
X13233578Y-29589392D01*
X13349291Y-29265996D01*
X13432748Y-28932816D01*
X13483146Y-28593059D01*
X13500000Y-28250000D01*
X13483146Y-27906940D01*
X13432748Y-27567183D01*
X13349291Y-27234003D01*
X13233578Y-26910607D01*
X13195979Y-26831110D01*
X13086732Y-26600127D01*
X13086729Y-26600122D01*
X13086724Y-26600111D01*
X12910143Y-26305504D01*
X12910141Y-26305502D01*
X12910138Y-26305496D01*
X12705542Y-26029631D01*
X12705538Y-26029626D01*
X12705536Y-26029623D01*
X12574591Y-25885148D01*
X12474873Y-25775125D01*
X12292963Y-25610252D01*
X12220376Y-25544463D01*
X12220367Y-25544456D01*
X11944502Y-25339860D01*
X11878228Y-25300137D01*
X11649888Y-25163275D01*
X11649880Y-25163271D01*
X11649871Y-25163266D01*
X11339413Y-25016430D01*
X11339401Y-25016425D01*
X11339398Y-25016424D01*
X11339392Y-25016421D01*
X11015996Y-24900708D01*
X10794165Y-24845142D01*
X10682817Y-24817251D01*
X10597876Y-24804651D01*
X10343059Y-24766853D01*
X10343054Y-24766852D01*
X10343050Y-24766852D01*
X10000000Y-24750000D01*
X9656948Y-24766852D01*
X9656942Y-24766852D01*
X9656940Y-24766853D01*
X9487061Y-24792052D01*
X9317181Y-24817251D01*
X9094483Y-24873034D01*
X8984003Y-24900708D01*
X8660607Y-25016421D01*
X8660603Y-25016422D01*
X8660597Y-25016425D01*
X8660585Y-25016430D01*
X8350127Y-25163266D01*
X8350113Y-25163274D01*
X8055496Y-25339860D01*
X7779631Y-25544456D01*
X7779626Y-25544460D01*
X7525125Y-25775125D01*
X7294460Y-26029626D01*
X7294456Y-26029631D01*
X7089860Y-26305496D01*
X6913274Y-26600113D01*
X6913266Y-26600127D01*
X6766430Y-26910585D01*
X6766425Y-26910597D01*
X6650709Y-27234000D01*
X6572032Y-27548097D01*
X6549691Y-27578220D01*
X6512594Y-27583723D01*
X6482471Y-27561382D01*
X6475500Y-27536191D01*
X6475500Y-23416676D01*
X6489852Y-23382028D01*
X6524500Y-23367676D01*
X6548997Y-23374239D01*
X6599362Y-23403318D01*
X6649215Y-23416676D01*
X6682143Y-23425499D01*
X6682144Y-23425500D01*
X6682147Y-23425500D01*
X6767856Y-23425500D01*
X6767856Y-23425499D01*
X6850638Y-23403318D01*
X6924862Y-23360465D01*
X6985465Y-23299862D01*
X7028318Y-23225638D01*
X7050499Y-23142856D01*
X7050500Y-23142856D01*
X7050500Y-23057144D01*
X7050499Y-23057143D01*
X7028318Y-22974363D01*
X7028317Y-22974359D01*
X6985464Y-22900137D01*
X6966431Y-22881104D01*
X6952079Y-22846456D01*
X6966431Y-22811808D01*
X7001079Y-22797456D01*
X7021089Y-22802818D01*
X7021392Y-22802088D01*
X7024359Y-22803316D01*
X7024362Y-22803318D01*
X7089651Y-22820812D01*
X7107143Y-22825499D01*
X7107144Y-22825500D01*
X7107147Y-22825500D01*
X7192856Y-22825500D01*
X7192856Y-22825499D01*
X7275638Y-22803318D01*
X7276981Y-22802543D01*
X7287134Y-22796681D01*
X7349862Y-22760465D01*
X7410465Y-22699862D01*
X7453318Y-22625638D01*
X7475499Y-22542856D01*
X7475500Y-22542856D01*
X7475500Y-22457144D01*
X7475499Y-22457143D01*
X7453318Y-22374363D01*
X7453317Y-22374359D01*
X7410464Y-22300137D01*
X7349862Y-22239535D01*
X7275640Y-22196682D01*
X7275636Y-22196681D01*
X7192856Y-22174500D01*
X7192853Y-22174500D01*
X7107147Y-22174500D01*
X7107144Y-22174500D01*
X7024363Y-22196681D01*
X7024359Y-22196682D01*
X6950137Y-22239535D01*
X6950137Y-22239536D01*
X6889536Y-22300137D01*
X6889535Y-22300137D01*
X6846682Y-22374359D01*
X6846681Y-22374363D01*
X6824500Y-22457143D01*
X6824500Y-22542856D01*
X6846681Y-22625636D01*
X6846682Y-22625640D01*
X6889535Y-22699862D01*
X6908568Y-22718895D01*
X6922920Y-22753543D01*
X6908568Y-22788191D01*
X6873920Y-22802543D01*
X6853909Y-22797183D01*
X6853608Y-22797912D01*
X6850636Y-22796681D01*
X6767856Y-22774500D01*
X6767853Y-22774500D01*
X6682147Y-22774500D01*
X6682144Y-22774500D01*
X6599363Y-22796681D01*
X6599359Y-22796682D01*
X6549000Y-22825758D01*
X6511818Y-22830653D01*
X6482065Y-22807823D01*
X6475500Y-22783323D01*
X6475500Y-21957143D01*
X8474500Y-21957143D01*
X8474500Y-22042856D01*
X8496681Y-22125636D01*
X8496682Y-22125640D01*
X8524892Y-22174500D01*
X8539535Y-22199862D01*
X8600138Y-22260465D01*
X8627304Y-22276149D01*
X8674359Y-22303317D01*
X8674361Y-22303317D01*
X8674362Y-22303318D01*
X8739651Y-22320812D01*
X8757143Y-22325499D01*
X8757144Y-22325500D01*
X8757147Y-22325500D01*
X8842856Y-22325500D01*
X8842856Y-22325499D01*
X8925638Y-22303318D01*
X8999862Y-22260465D01*
X9060465Y-22199862D01*
X9103318Y-22125638D01*
X9125499Y-22042856D01*
X9125500Y-22042856D01*
X9125500Y-21957144D01*
X9125499Y-21957143D01*
X9103318Y-21874363D01*
X9103317Y-21874359D01*
X9060464Y-21800137D01*
X8999862Y-21739535D01*
X8925640Y-21696682D01*
X8925636Y-21696681D01*
X8842856Y-21674500D01*
X8842853Y-21674500D01*
X8757147Y-21674500D01*
X8757144Y-21674500D01*
X8674363Y-21696681D01*
X8674359Y-21696682D01*
X8600137Y-21739535D01*
X8600137Y-21739536D01*
X8539536Y-21800137D01*
X8539535Y-21800137D01*
X8496682Y-21874359D01*
X8496681Y-21874363D01*
X8474500Y-21957143D01*
X6475500Y-21957143D01*
X6475500Y-21179123D01*
X6489852Y-21144475D01*
X6524500Y-21130123D01*
X6559148Y-21144475D01*
X6600138Y-21185465D01*
X6627304Y-21201149D01*
X6674359Y-21228317D01*
X6674361Y-21228317D01*
X6674362Y-21228318D01*
X6739651Y-21245812D01*
X6757143Y-21250499D01*
X6757144Y-21250500D01*
X6757147Y-21250500D01*
X6842856Y-21250500D01*
X6842856Y-21250499D01*
X6925638Y-21228318D01*
X6999862Y-21185465D01*
X7060465Y-21124862D01*
X7103318Y-21050638D01*
X7125499Y-20967856D01*
X7125500Y-20967856D01*
X7125500Y-20882144D01*
X7125499Y-20882143D01*
X7103318Y-20799363D01*
X7103317Y-20799359D01*
X7060464Y-20725137D01*
X6999865Y-20664538D01*
X6999862Y-20664535D01*
X6974998Y-20650179D01*
X6952169Y-20620426D01*
X6950500Y-20607745D01*
X6950500Y-19420065D01*
X7899500Y-19420065D01*
X7899500Y-20069936D01*
X7908990Y-20092848D01*
X7922412Y-20125252D01*
X7922413Y-20125254D01*
X8224745Y-20427585D01*
X8224746Y-20427585D01*
X8224749Y-20427588D01*
X8280064Y-20450500D01*
X8382746Y-20450500D01*
X8417394Y-20464852D01*
X8425181Y-20475000D01*
X8439535Y-20499862D01*
X8500138Y-20560465D01*
X8515519Y-20569345D01*
X8574359Y-20603317D01*
X8574361Y-20603317D01*
X8574362Y-20603318D01*
X8624215Y-20616676D01*
X8657143Y-20625499D01*
X8657144Y-20625500D01*
X8657147Y-20625500D01*
X8742856Y-20625500D01*
X8742856Y-20625499D01*
X8825638Y-20603318D01*
X8899862Y-20560465D01*
X8960465Y-20499862D01*
X9003318Y-20425638D01*
X9021671Y-20357143D01*
X9474500Y-20357143D01*
X9474500Y-20442856D01*
X9496681Y-20525636D01*
X9496682Y-20525640D01*
X9535097Y-20592175D01*
X9539535Y-20599862D01*
X9600138Y-20660465D01*
X9607193Y-20664538D01*
X9674359Y-20703317D01*
X9674361Y-20703317D01*
X9674362Y-20703318D01*
X9736162Y-20719877D01*
X9757143Y-20725499D01*
X9757144Y-20725500D01*
X9757147Y-20725500D01*
X9842856Y-20725500D01*
X9842856Y-20725499D01*
X9925638Y-20703318D01*
X9999862Y-20660465D01*
X10060465Y-20599862D01*
X10103318Y-20525638D01*
X10125499Y-20442856D01*
X10125500Y-20442856D01*
X10125500Y-20357144D01*
X10125499Y-20357143D01*
X10103319Y-20274366D01*
X10103318Y-20274363D01*
X10103318Y-20274362D01*
X10093377Y-20257143D01*
X11074500Y-20257143D01*
X11074500Y-20342856D01*
X11096681Y-20425636D01*
X11096682Y-20425640D01*
X11119322Y-20464852D01*
X11139535Y-20499862D01*
X11200138Y-20560465D01*
X11215519Y-20569345D01*
X11274359Y-20603317D01*
X11274361Y-20603317D01*
X11274362Y-20603318D01*
X11324215Y-20616676D01*
X11357143Y-20625499D01*
X11357144Y-20625500D01*
X11357147Y-20625500D01*
X11442856Y-20625500D01*
X11442856Y-20625499D01*
X11525638Y-20603318D01*
X11576001Y-20574240D01*
X11613182Y-20569345D01*
X11642935Y-20592175D01*
X11649500Y-20616676D01*
X11649500Y-22779935D01*
X11656437Y-22796682D01*
X11656437Y-22796684D01*
X11672409Y-22835246D01*
X11672410Y-22835248D01*
X11672412Y-22835252D01*
X11672413Y-22835253D01*
X11672414Y-22835254D01*
X15335148Y-26497987D01*
X15349500Y-26532635D01*
X15349500Y-37021822D01*
X15335148Y-37056470D01*
X15300500Y-37070822D01*
X15265852Y-37056470D01*
X15261625Y-37051651D01*
X15260467Y-37050142D01*
X15260465Y-37050138D01*
X15199862Y-36989535D01*
X15125640Y-36946682D01*
X15125636Y-36946681D01*
X15042856Y-36924500D01*
X15042853Y-36924500D01*
X14957147Y-36924500D01*
X14957144Y-36924500D01*
X14874363Y-36946681D01*
X14874359Y-36946682D01*
X14800137Y-36989535D01*
X14800137Y-36989536D01*
X14739536Y-37050137D01*
X14739535Y-37050137D01*
X14696682Y-37124359D01*
X14696681Y-37124363D01*
X14674500Y-37207143D01*
X14674500Y-37292856D01*
X14696681Y-37375636D01*
X14696682Y-37375640D01*
X14738664Y-37448353D01*
X14739535Y-37449862D01*
X14800138Y-37510465D01*
X14827304Y-37526149D01*
X14874359Y-37553317D01*
X14874361Y-37553317D01*
X14874362Y-37553318D01*
X14939651Y-37570812D01*
X14957143Y-37575499D01*
X14957144Y-37575500D01*
X14957147Y-37575500D01*
X15042856Y-37575500D01*
X15042856Y-37575499D01*
X15125638Y-37553318D01*
X15199862Y-37510465D01*
X15260465Y-37449862D01*
X15260469Y-37449854D01*
X15261622Y-37448353D01*
X15262455Y-37447871D01*
X15262736Y-37447591D01*
X15262811Y-37447666D01*
X15294098Y-37429597D01*
X15330324Y-37439299D01*
X15349080Y-37471775D01*
X15349500Y-37478177D01*
X15349500Y-38021822D01*
X15335148Y-38056470D01*
X15300500Y-38070822D01*
X15265852Y-38056470D01*
X15261625Y-38051651D01*
X15260467Y-38050142D01*
X15260465Y-38050138D01*
X15199862Y-37989535D01*
X15125640Y-37946682D01*
X15125636Y-37946681D01*
X15042856Y-37924500D01*
X15042853Y-37924500D01*
X14957147Y-37924500D01*
X14957144Y-37924500D01*
X14874363Y-37946681D01*
X14874359Y-37946682D01*
X14800137Y-37989535D01*
X14800137Y-37989536D01*
X14739536Y-38050137D01*
X14739535Y-38050137D01*
X14696682Y-38124359D01*
X14696681Y-38124363D01*
X14674500Y-38207143D01*
X14674500Y-38292856D01*
X14696681Y-38375636D01*
X14696682Y-38375640D01*
X14736974Y-38445426D01*
X14739535Y-38449862D01*
X14800138Y-38510465D01*
X14827304Y-38526149D01*
X14874359Y-38553317D01*
X14874361Y-38553317D01*
X14874362Y-38553318D01*
X14939651Y-38570812D01*
X14957143Y-38575499D01*
X14957144Y-38575500D01*
X14957147Y-38575500D01*
X15042856Y-38575500D01*
X15042856Y-38575499D01*
X15125638Y-38553318D01*
X15135358Y-38547705D01*
X15172538Y-38542809D01*
X15202293Y-38565638D01*
X15207190Y-38602819D01*
X15202295Y-38614638D01*
X15196683Y-38624358D01*
X15196681Y-38624363D01*
X15174500Y-38707143D01*
X15174500Y-38792856D01*
X15196681Y-38875636D01*
X15196682Y-38875640D01*
X15239535Y-38949862D01*
X15300138Y-39010465D01*
X15327304Y-39026149D01*
X15374359Y-39053317D01*
X15374361Y-39053317D01*
X15374362Y-39053318D01*
X15421461Y-39065938D01*
X15457143Y-39075499D01*
X15457144Y-39075500D01*
X15457147Y-39075500D01*
X15542855Y-39075500D01*
X15583095Y-39064717D01*
X15596807Y-39061043D01*
X15633990Y-39065938D01*
X15656820Y-39095690D01*
X15651925Y-39132873D01*
X15644138Y-39143021D01*
X15402012Y-39385148D01*
X15367364Y-39399500D01*
X15217254Y-39399500D01*
X15182606Y-39385148D01*
X15174819Y-39375000D01*
X15160464Y-39350137D01*
X15099862Y-39289535D01*
X15025640Y-39246682D01*
X15025636Y-39246681D01*
X14942856Y-39224500D01*
X14942853Y-39224500D01*
X14857147Y-39224500D01*
X14857144Y-39224500D01*
X14774363Y-39246681D01*
X14774359Y-39246682D01*
X14700137Y-39289535D01*
X14700137Y-39289536D01*
X14639536Y-39350137D01*
X14639535Y-39350137D01*
X14596682Y-39424359D01*
X14596681Y-39424363D01*
X14574500Y-39507143D01*
X14574500Y-39592856D01*
X14596681Y-39675636D01*
X14596682Y-39675640D01*
X14619507Y-39715173D01*
X14639535Y-39749862D01*
X14700138Y-39810465D01*
X14724210Y-39824363D01*
X14774359Y-39853317D01*
X14774361Y-39853317D01*
X14774362Y-39853318D01*
X14839651Y-39870812D01*
X14857143Y-39875499D01*
X14857144Y-39875500D01*
X14857147Y-39875500D01*
X14942856Y-39875500D01*
X14942856Y-39875499D01*
X15025638Y-39853318D01*
X15099862Y-39810465D01*
X15160465Y-39749862D01*
X15174819Y-39725000D01*
X15204572Y-39702170D01*
X15217254Y-39700500D01*
X15479934Y-39700500D01*
X15479936Y-39700500D01*
X15506407Y-39689535D01*
X15535252Y-39677588D01*
X18882087Y-36330750D01*
X18916734Y-36316399D01*
X18929413Y-36318068D01*
X18948956Y-36323305D01*
X18957146Y-36325500D01*
X18957147Y-36325500D01*
X19042856Y-36325500D01*
X19042856Y-36325499D01*
X19125638Y-36303318D01*
X19199862Y-36260465D01*
X19260465Y-36199862D01*
X19303318Y-36125638D01*
X19325499Y-36042856D01*
X19325500Y-36042856D01*
X19325500Y-35957144D01*
X19325499Y-35957143D01*
X19303318Y-35874363D01*
X19303317Y-35874359D01*
X19276149Y-35827304D01*
X19260465Y-35800138D01*
X19199862Y-35739535D01*
X19175551Y-35725499D01*
X19125640Y-35696682D01*
X19125636Y-35696681D01*
X19042856Y-35674500D01*
X19042853Y-35674500D01*
X18957147Y-35674500D01*
X18957144Y-35674500D01*
X18874363Y-35696681D01*
X18874359Y-35696682D01*
X18800137Y-35739535D01*
X18800137Y-35739536D01*
X18739536Y-35800137D01*
X18739535Y-35800137D01*
X18696682Y-35874359D01*
X18696681Y-35874363D01*
X18674500Y-35957143D01*
X18674500Y-36042856D01*
X18681929Y-36070582D01*
X18677034Y-36107764D01*
X18669247Y-36117912D01*
X15893021Y-38894138D01*
X15858373Y-38908490D01*
X15823725Y-38894138D01*
X15809373Y-38859490D01*
X15811043Y-38846807D01*
X15825500Y-38792854D01*
X15825500Y-38707144D01*
X15825499Y-38707143D01*
X15803318Y-38624363D01*
X15803317Y-38624359D01*
X15760464Y-38550137D01*
X15699865Y-38489538D01*
X15699862Y-38489535D01*
X15674998Y-38475179D01*
X15652169Y-38445426D01*
X15650500Y-38432745D01*
X15650500Y-31057143D01*
X17424500Y-31057143D01*
X17424500Y-31142856D01*
X17446681Y-31225636D01*
X17446682Y-31225640D01*
X17489535Y-31299862D01*
X17550138Y-31360465D01*
X17577304Y-31376149D01*
X17624359Y-31403317D01*
X17624361Y-31403317D01*
X17624362Y-31403318D01*
X17654368Y-31411358D01*
X17707143Y-31425499D01*
X17707144Y-31425500D01*
X17707147Y-31425500D01*
X17792856Y-31425500D01*
X17792856Y-31425499D01*
X17875638Y-31403318D01*
X17949862Y-31360465D01*
X18010465Y-31299862D01*
X18053318Y-31225638D01*
X18075499Y-31142856D01*
X18075500Y-31142856D01*
X18075500Y-31057144D01*
X18075499Y-31057143D01*
X18053318Y-30974363D01*
X18053317Y-30974359D01*
X18010464Y-30900137D01*
X17949862Y-30839535D01*
X17875640Y-30796682D01*
X17875636Y-30796681D01*
X17792856Y-30774500D01*
X17792853Y-30774500D01*
X17707147Y-30774500D01*
X17707144Y-30774500D01*
X17624363Y-30796681D01*
X17624359Y-30796682D01*
X17550137Y-30839535D01*
X17550137Y-30839536D01*
X17489536Y-30900137D01*
X17489535Y-30900137D01*
X17446682Y-30974359D01*
X17446681Y-30974363D01*
X17424500Y-31057143D01*
X15650500Y-31057143D01*
X15650500Y-26420066D01*
X15650499Y-26420062D01*
X15627587Y-26364749D01*
X15627586Y-26364747D01*
X11964852Y-22702012D01*
X11950500Y-22667364D01*
X11950500Y-21757143D01*
X18474500Y-21757143D01*
X18474500Y-21842856D01*
X18496681Y-21925636D01*
X18496682Y-21925640D01*
X18539535Y-21999862D01*
X18600138Y-22060465D01*
X18627304Y-22076149D01*
X18674359Y-22103317D01*
X18674361Y-22103317D01*
X18674362Y-22103318D01*
X18739651Y-22120812D01*
X18757143Y-22125499D01*
X18757144Y-22125500D01*
X18757147Y-22125500D01*
X18842856Y-22125500D01*
X18842856Y-22125499D01*
X18925638Y-22103318D01*
X18999862Y-22060465D01*
X19060465Y-21999862D01*
X19103318Y-21925638D01*
X19125499Y-21842856D01*
X19125500Y-21842856D01*
X19125500Y-21757144D01*
X19125499Y-21757143D01*
X19120781Y-21739535D01*
X19103318Y-21674362D01*
X19103317Y-21674361D01*
X19103317Y-21674359D01*
X19060464Y-21600137D01*
X18999862Y-21539535D01*
X18925640Y-21496682D01*
X18925636Y-21496681D01*
X18842856Y-21474500D01*
X18842853Y-21474500D01*
X18757147Y-21474500D01*
X18757144Y-21474500D01*
X18674363Y-21496681D01*
X18674359Y-21496682D01*
X18600137Y-21539535D01*
X18600137Y-21539536D01*
X18539536Y-21600137D01*
X18539535Y-21600137D01*
X18496682Y-21674359D01*
X18496681Y-21674363D01*
X18474500Y-21757143D01*
X11950500Y-21757143D01*
X11950500Y-21007143D01*
X13974500Y-21007143D01*
X13974500Y-21092856D01*
X13996681Y-21175636D01*
X13996682Y-21175640D01*
X14039535Y-21249862D01*
X14100138Y-21310465D01*
X14127304Y-21326149D01*
X14174359Y-21353317D01*
X14174361Y-21353317D01*
X14174362Y-21353318D01*
X14239651Y-21370812D01*
X14257143Y-21375499D01*
X14257144Y-21375500D01*
X14257147Y-21375500D01*
X14342856Y-21375500D01*
X14342856Y-21375499D01*
X14425638Y-21353318D01*
X14499862Y-21310465D01*
X14560465Y-21249862D01*
X14603318Y-21175638D01*
X14625499Y-21092856D01*
X14625500Y-21092856D01*
X14625500Y-21007144D01*
X14625499Y-21007143D01*
X14603318Y-20924363D01*
X14603317Y-20924359D01*
X14560464Y-20850137D01*
X14499862Y-20789535D01*
X14425640Y-20746682D01*
X14425636Y-20746681D01*
X14342856Y-20724500D01*
X14342853Y-20724500D01*
X14257147Y-20724500D01*
X14257144Y-20724500D01*
X14174363Y-20746681D01*
X14174359Y-20746682D01*
X14100137Y-20789535D01*
X14100137Y-20789536D01*
X14039536Y-20850137D01*
X14039535Y-20850137D01*
X13996682Y-20924359D01*
X13996681Y-20924363D01*
X13974500Y-21007143D01*
X11950500Y-21007143D01*
X11950500Y-20866676D01*
X11964852Y-20832028D01*
X11999500Y-20817676D01*
X12023997Y-20824239D01*
X12074362Y-20853318D01*
X12124215Y-20866676D01*
X12157143Y-20875499D01*
X12157144Y-20875500D01*
X12157147Y-20875500D01*
X12242856Y-20875500D01*
X12242856Y-20875499D01*
X12325638Y-20853318D01*
X12399862Y-20810465D01*
X12460465Y-20749862D01*
X12503318Y-20675638D01*
X12525499Y-20592856D01*
X12525500Y-20592856D01*
X12525500Y-20507144D01*
X12525499Y-20507143D01*
X12514167Y-20464852D01*
X12503318Y-20424362D01*
X12503317Y-20424361D01*
X12503317Y-20424359D01*
X12485091Y-20392791D01*
X12480196Y-20355609D01*
X12503026Y-20325856D01*
X12540207Y-20320961D01*
X12557147Y-20325500D01*
X12642856Y-20325500D01*
X12642856Y-20325499D01*
X12725638Y-20303318D01*
X12799862Y-20260465D01*
X12860465Y-20199862D01*
X12897576Y-20135583D01*
X12903317Y-20125640D01*
X12903317Y-20125639D01*
X12903318Y-20125638D01*
X12925499Y-20042856D01*
X12925500Y-20042856D01*
X12925500Y-19957144D01*
X12925499Y-19957143D01*
X12903526Y-19875138D01*
X12903318Y-19874362D01*
X12903317Y-19874361D01*
X12903317Y-19874359D01*
X12876149Y-19827304D01*
X12860465Y-19800138D01*
X12799862Y-19739535D01*
X12775551Y-19725499D01*
X12725640Y-19696682D01*
X12725636Y-19696681D01*
X12642856Y-19674500D01*
X12642853Y-19674500D01*
X12557147Y-19674500D01*
X12557144Y-19674500D01*
X12474363Y-19696681D01*
X12474359Y-19696682D01*
X12400137Y-19739535D01*
X12400137Y-19739536D01*
X12339536Y-19800137D01*
X12339535Y-19800137D01*
X12296682Y-19874359D01*
X12296681Y-19874363D01*
X12274500Y-19957143D01*
X12274500Y-20042856D01*
X12296681Y-20125636D01*
X12296681Y-20125637D01*
X12314909Y-20157209D01*
X12319803Y-20194391D01*
X12296972Y-20224144D01*
X12259790Y-20229038D01*
X12242855Y-20224500D01*
X12242853Y-20224500D01*
X12157147Y-20224500D01*
X12157144Y-20224500D01*
X12074363Y-20246681D01*
X12074359Y-20246682D01*
X12024000Y-20275758D01*
X11986818Y-20280653D01*
X11957065Y-20257823D01*
X11950500Y-20233323D01*
X11950500Y-20217253D01*
X11964852Y-20182605D01*
X11974993Y-20174822D01*
X11999862Y-20160465D01*
X12060465Y-20099862D01*
X12103318Y-20025638D01*
X12125499Y-19942856D01*
X12125500Y-19942856D01*
X12125500Y-19857144D01*
X12125499Y-19857143D01*
X12120812Y-19839651D01*
X12103318Y-19774362D01*
X12103317Y-19774361D01*
X12103317Y-19774359D01*
X12062300Y-19703317D01*
X12060465Y-19700138D01*
X11999862Y-19639535D01*
X11991079Y-19634464D01*
X11925640Y-19596682D01*
X11925636Y-19596681D01*
X11842856Y-19574500D01*
X11842853Y-19574500D01*
X11757147Y-19574500D01*
X11757144Y-19574500D01*
X11674363Y-19596681D01*
X11674359Y-19596682D01*
X11600137Y-19639535D01*
X11600137Y-19639536D01*
X11539536Y-19700137D01*
X11539535Y-19700137D01*
X11496682Y-19774359D01*
X11496681Y-19774363D01*
X11474500Y-19857143D01*
X11474500Y-19925500D01*
X11460148Y-19960148D01*
X11425500Y-19974500D01*
X11357144Y-19974500D01*
X11274363Y-19996681D01*
X11274359Y-19996682D01*
X11200137Y-20039535D01*
X11200137Y-20039536D01*
X11139536Y-20100137D01*
X11139535Y-20100137D01*
X11096682Y-20174359D01*
X11096681Y-20174363D01*
X11074500Y-20257143D01*
X10093377Y-20257143D01*
X10060465Y-20200138D01*
X9999862Y-20139535D01*
X9925640Y-20096682D01*
X9925636Y-20096681D01*
X9842856Y-20074500D01*
X9842853Y-20074500D01*
X9757147Y-20074500D01*
X9757144Y-20074500D01*
X9674363Y-20096681D01*
X9674359Y-20096682D01*
X9600137Y-20139535D01*
X9600137Y-20139536D01*
X9539536Y-20200137D01*
X9539535Y-20200137D01*
X9496682Y-20274359D01*
X9496681Y-20274363D01*
X9474500Y-20357143D01*
X9021671Y-20357143D01*
X9025499Y-20342857D01*
X9025500Y-20342856D01*
X9025500Y-20257144D01*
X9006433Y-20185987D01*
X9011328Y-20148805D01*
X9041081Y-20125975D01*
X9076986Y-20116354D01*
X9125638Y-20103318D01*
X9199862Y-20060465D01*
X9260465Y-19999862D01*
X9303318Y-19925638D01*
X9325499Y-19842856D01*
X9325500Y-19842856D01*
X9325500Y-19759842D01*
X9325500Y-19757147D01*
X9325499Y-19757143D01*
X10274500Y-19757143D01*
X10274500Y-19842856D01*
X10296681Y-19925636D01*
X10296682Y-19925640D01*
X10316606Y-19960148D01*
X10339535Y-19999862D01*
X10400138Y-20060465D01*
X10427304Y-20076149D01*
X10474359Y-20103317D01*
X10474361Y-20103317D01*
X10474362Y-20103318D01*
X10528608Y-20117853D01*
X10557143Y-20125499D01*
X10557144Y-20125500D01*
X10557147Y-20125500D01*
X10642856Y-20125500D01*
X10642856Y-20125499D01*
X10725638Y-20103318D01*
X10799862Y-20060465D01*
X10860465Y-19999862D01*
X10903318Y-19925638D01*
X10925499Y-19842856D01*
X10925500Y-19842856D01*
X10925500Y-19757144D01*
X10925499Y-19757143D01*
X10917020Y-19725499D01*
X10903318Y-19674362D01*
X10903317Y-19674361D01*
X10903317Y-19674359D01*
X10860464Y-19600137D01*
X10799862Y-19539535D01*
X10725640Y-19496682D01*
X10725636Y-19496681D01*
X10642856Y-19474500D01*
X10642853Y-19474500D01*
X10557147Y-19474500D01*
X10557144Y-19474500D01*
X10474363Y-19496681D01*
X10474359Y-19496682D01*
X10400137Y-19539535D01*
X10400137Y-19539536D01*
X10339536Y-19600137D01*
X10339535Y-19600137D01*
X10296682Y-19674359D01*
X10296681Y-19674363D01*
X10274500Y-19757143D01*
X9325499Y-19757143D01*
X9317926Y-19728882D01*
X9317803Y-19728377D01*
X9320586Y-19710304D01*
X9322965Y-19692234D01*
X9323470Y-19691575D01*
X9323511Y-19691311D01*
X9323881Y-19691039D01*
X9330748Y-19682090D01*
X13547987Y-15464852D01*
X13582635Y-15450500D01*
X13983323Y-15450500D01*
X14017971Y-15464852D01*
X14032323Y-15499500D01*
X14025758Y-15524000D01*
X13996682Y-15574359D01*
X13996681Y-15574363D01*
X13974500Y-15657143D01*
X13974500Y-15742853D01*
X13981929Y-15770584D01*
X13977032Y-15807766D01*
X13969246Y-15817912D01*
X13072414Y-16714745D01*
X13072411Y-16714750D01*
X13064435Y-16734009D01*
X13064434Y-16734011D01*
X13049500Y-16770062D01*
X13049500Y-19082745D01*
X13035148Y-19117393D01*
X13025001Y-19125180D01*
X13000141Y-19139533D01*
X13000134Y-19139538D01*
X12939536Y-19200137D01*
X12939535Y-19200137D01*
X12896682Y-19274359D01*
X12896681Y-19274363D01*
X12874500Y-19357143D01*
X12874500Y-19442856D01*
X12896681Y-19525636D01*
X12896682Y-19525640D01*
X12928281Y-19580370D01*
X12939535Y-19599862D01*
X13000138Y-19660465D01*
X13027304Y-19676149D01*
X13074359Y-19703317D01*
X13074361Y-19703317D01*
X13074362Y-19703318D01*
X13139651Y-19720812D01*
X13157143Y-19725499D01*
X13157144Y-19725500D01*
X13157147Y-19725500D01*
X13242856Y-19725500D01*
X13242856Y-19725499D01*
X13325638Y-19703318D01*
X13399862Y-19660465D01*
X13460465Y-19599862D01*
X13503318Y-19525638D01*
X13525499Y-19442856D01*
X13525500Y-19442856D01*
X13525500Y-19357144D01*
X13525499Y-19357143D01*
X13503318Y-19274363D01*
X13503317Y-19274359D01*
X13460464Y-19200137D01*
X13399865Y-19139538D01*
X13399862Y-19139535D01*
X13374998Y-19125179D01*
X13352169Y-19095426D01*
X13350500Y-19082745D01*
X13350500Y-18657143D01*
X15674500Y-18657143D01*
X15674500Y-18742856D01*
X15696681Y-18825636D01*
X15696682Y-18825640D01*
X15724813Y-18874363D01*
X15739535Y-18899862D01*
X15800138Y-18960465D01*
X15827304Y-18976149D01*
X15874359Y-19003317D01*
X15874361Y-19003317D01*
X15874362Y-19003318D01*
X15939651Y-19020812D01*
X15957143Y-19025499D01*
X15957144Y-19025500D01*
X15957147Y-19025500D01*
X16042856Y-19025500D01*
X16042856Y-19025499D01*
X16125638Y-19003318D01*
X16199862Y-18960465D01*
X16260465Y-18899862D01*
X16303318Y-18825638D01*
X16325499Y-18742856D01*
X16325500Y-18742856D01*
X16325500Y-18657144D01*
X16325499Y-18657143D01*
X16319690Y-18635465D01*
X16303318Y-18574362D01*
X16303317Y-18574361D01*
X16303317Y-18574359D01*
X16266427Y-18510465D01*
X16260465Y-18500138D01*
X16199862Y-18439535D01*
X16125640Y-18396682D01*
X16125636Y-18396681D01*
X16042856Y-18374500D01*
X16042853Y-18374500D01*
X15957147Y-18374500D01*
X15957144Y-18374500D01*
X15874363Y-18396681D01*
X15874359Y-18396682D01*
X15800137Y-18439535D01*
X15800137Y-18439536D01*
X15739536Y-18500137D01*
X15739535Y-18500137D01*
X15696682Y-18574359D01*
X15696681Y-18574363D01*
X15674500Y-18657143D01*
X13350500Y-18657143D01*
X13350500Y-18207143D01*
X13974500Y-18207143D01*
X13974500Y-18292856D01*
X13996681Y-18375636D01*
X13996682Y-18375640D01*
X14021056Y-18417856D01*
X14039535Y-18449862D01*
X14100138Y-18510465D01*
X14126178Y-18525499D01*
X14174359Y-18553317D01*
X14174361Y-18553317D01*
X14174362Y-18553318D01*
X14231314Y-18568578D01*
X14257143Y-18575499D01*
X14257144Y-18575500D01*
X14257147Y-18575500D01*
X14342856Y-18575500D01*
X14342856Y-18575499D01*
X14425638Y-18553318D01*
X14499862Y-18510465D01*
X14560465Y-18449862D01*
X14603318Y-18375638D01*
X14625499Y-18292856D01*
X14625500Y-18292856D01*
X14625500Y-18207145D01*
X14620151Y-18187183D01*
X14625046Y-18150000D01*
X14654798Y-18127170D01*
X14667481Y-18125500D01*
X14725500Y-18125500D01*
X14760148Y-18139852D01*
X14774500Y-18174500D01*
X14774500Y-18242856D01*
X14796681Y-18325636D01*
X14796682Y-18325640D01*
X14837698Y-18396681D01*
X14839535Y-18399862D01*
X14900138Y-18460465D01*
X14927304Y-18476149D01*
X14974359Y-18503317D01*
X14974361Y-18503317D01*
X14974362Y-18503318D01*
X15039651Y-18520812D01*
X15057143Y-18525499D01*
X15057144Y-18525500D01*
X15057147Y-18525500D01*
X15142856Y-18525500D01*
X15142856Y-18525499D01*
X15225638Y-18503318D01*
X15230277Y-18500640D01*
X15237134Y-18496681D01*
X15299862Y-18460465D01*
X15360465Y-18399862D01*
X15403318Y-18325638D01*
X15425499Y-18242856D01*
X15425500Y-18242856D01*
X15425500Y-18157144D01*
X15425499Y-18157143D01*
X15416715Y-18124362D01*
X15403318Y-18074362D01*
X15403317Y-18074361D01*
X15403317Y-18074359D01*
X15360464Y-18000137D01*
X15299862Y-17939535D01*
X15225640Y-17896682D01*
X15225636Y-17896681D01*
X15142856Y-17874500D01*
X15142853Y-17874500D01*
X15074500Y-17874500D01*
X15039852Y-17860148D01*
X15025500Y-17825500D01*
X15025500Y-17757144D01*
X15025499Y-17757143D01*
X15003318Y-17674363D01*
X15003317Y-17674359D01*
X14960464Y-17600137D01*
X14899862Y-17539535D01*
X14825640Y-17496682D01*
X14825636Y-17496681D01*
X14742856Y-17474500D01*
X14742853Y-17474500D01*
X14657147Y-17474500D01*
X14657144Y-17474500D01*
X14574363Y-17496681D01*
X14574359Y-17496682D01*
X14500137Y-17539535D01*
X14500137Y-17539536D01*
X14439536Y-17600137D01*
X14439535Y-17600137D01*
X14396682Y-17674359D01*
X14396681Y-17674363D01*
X14374500Y-17757143D01*
X14374500Y-17842854D01*
X14379849Y-17862817D01*
X14374954Y-17900000D01*
X14345202Y-17922830D01*
X14332519Y-17924500D01*
X14257144Y-17924500D01*
X14174363Y-17946681D01*
X14174359Y-17946682D01*
X14100137Y-17989535D01*
X14100137Y-17989536D01*
X14039536Y-18050137D01*
X14039535Y-18050137D01*
X13996682Y-18124359D01*
X13996681Y-18124363D01*
X13974500Y-18207143D01*
X13350500Y-18207143D01*
X13350500Y-16882635D01*
X13361059Y-16857143D01*
X14774500Y-16857143D01*
X14774500Y-16942856D01*
X14796681Y-17025636D01*
X14796682Y-17025640D01*
X14833364Y-17089173D01*
X14839535Y-17099862D01*
X14900138Y-17160465D01*
X14924416Y-17174482D01*
X14974359Y-17203317D01*
X14974361Y-17203317D01*
X14974362Y-17203318D01*
X15039651Y-17220812D01*
X15057143Y-17225499D01*
X15057144Y-17225500D01*
X15057147Y-17225500D01*
X15142856Y-17225500D01*
X15142856Y-17225499D01*
X15225638Y-17203318D01*
X15299862Y-17160465D01*
X15360465Y-17099862D01*
X15403318Y-17025638D01*
X15425499Y-16942856D01*
X15425500Y-16942856D01*
X15425500Y-16857144D01*
X15425499Y-16857143D01*
X15412102Y-16807144D01*
X15403318Y-16774362D01*
X15403317Y-16774361D01*
X15403317Y-16774359D01*
X15360464Y-16700137D01*
X15299862Y-16639535D01*
X15225640Y-16596682D01*
X15225636Y-16596681D01*
X15142856Y-16574500D01*
X15142853Y-16574500D01*
X15057147Y-16574500D01*
X15057144Y-16574500D01*
X14974363Y-16596681D01*
X14974359Y-16596682D01*
X14900137Y-16639535D01*
X14900137Y-16639536D01*
X14839536Y-16700137D01*
X14839535Y-16700137D01*
X14796682Y-16774359D01*
X14796681Y-16774363D01*
X14774500Y-16857143D01*
X13361059Y-16857143D01*
X13364851Y-16847988D01*
X13949617Y-16263222D01*
X13984263Y-16248871D01*
X14018911Y-16263223D01*
X14033263Y-16297871D01*
X14026698Y-16322371D01*
X13996682Y-16374359D01*
X13996681Y-16374363D01*
X13974500Y-16457143D01*
X13974500Y-16542856D01*
X13996681Y-16625636D01*
X13996682Y-16625640D01*
X14039535Y-16699862D01*
X14100138Y-16760465D01*
X14124210Y-16774363D01*
X14174359Y-16803317D01*
X14174361Y-16803317D01*
X14174362Y-16803318D01*
X14239651Y-16820812D01*
X14257143Y-16825499D01*
X14257144Y-16825500D01*
X14257147Y-16825500D01*
X14342856Y-16825500D01*
X14342856Y-16825499D01*
X14425638Y-16803318D01*
X14499862Y-16760465D01*
X14560465Y-16699862D01*
X14603318Y-16625638D01*
X14625499Y-16542856D01*
X14625500Y-16542856D01*
X14625500Y-16457144D01*
X14625499Y-16457143D01*
X14610151Y-16399863D01*
X14603318Y-16374362D01*
X14603317Y-16374361D01*
X14603317Y-16374359D01*
X14576149Y-16327304D01*
X14560465Y-16300138D01*
X14499862Y-16239535D01*
X14477628Y-16226698D01*
X14425640Y-16196682D01*
X14425636Y-16196681D01*
X14342856Y-16174500D01*
X14342853Y-16174500D01*
X14257147Y-16174500D01*
X14257144Y-16174500D01*
X14174363Y-16196681D01*
X14174359Y-16196682D01*
X14122371Y-16226698D01*
X14085188Y-16231593D01*
X14055436Y-16208763D01*
X14050541Y-16171580D01*
X14063221Y-16149617D01*
X14155695Y-16057143D01*
X14774500Y-16057143D01*
X14774500Y-16142856D01*
X14796681Y-16225636D01*
X14796682Y-16225640D01*
X14839535Y-16299862D01*
X14900138Y-16360465D01*
X14924210Y-16374363D01*
X14974359Y-16403317D01*
X14974361Y-16403317D01*
X14974362Y-16403318D01*
X15039651Y-16420812D01*
X15057143Y-16425499D01*
X15057144Y-16425500D01*
X15057147Y-16425500D01*
X15142856Y-16425500D01*
X15142856Y-16425499D01*
X15225638Y-16403318D01*
X15299862Y-16360465D01*
X15360465Y-16299862D01*
X15403318Y-16225638D01*
X15425499Y-16142856D01*
X15425500Y-16142856D01*
X15425500Y-16057144D01*
X15425499Y-16057143D01*
X15420812Y-16039651D01*
X15403318Y-15974362D01*
X15403317Y-15974361D01*
X15403317Y-15974359D01*
X15360464Y-15900137D01*
X15299862Y-15839535D01*
X15225640Y-15796682D01*
X15225636Y-15796681D01*
X15142856Y-15774500D01*
X15142853Y-15774500D01*
X15057147Y-15774500D01*
X15057144Y-15774500D01*
X14974363Y-15796681D01*
X14974359Y-15796682D01*
X14900137Y-15839535D01*
X14900137Y-15839536D01*
X14839536Y-15900137D01*
X14839535Y-15900137D01*
X14796682Y-15974359D01*
X14796681Y-15974363D01*
X14774500Y-16057143D01*
X14155695Y-16057143D01*
X14182087Y-16030751D01*
X14216734Y-16016400D01*
X14229417Y-16018070D01*
X14257145Y-16025500D01*
X14257147Y-16025500D01*
X14342856Y-16025500D01*
X14342856Y-16025499D01*
X14425638Y-16003318D01*
X14499862Y-15960465D01*
X14560465Y-15899862D01*
X14603318Y-15825638D01*
X14625499Y-15742856D01*
X14625500Y-15742856D01*
X14625500Y-15657144D01*
X14625499Y-15657143D01*
X14611076Y-15603317D01*
X14603318Y-15574362D01*
X14603317Y-15574361D01*
X14603317Y-15574359D01*
X14574242Y-15524000D01*
X14569347Y-15486818D01*
X14592177Y-15457065D01*
X14616677Y-15450500D01*
X15182746Y-15450500D01*
X15217394Y-15464852D01*
X15225181Y-15475000D01*
X15239535Y-15499862D01*
X15300138Y-15560465D01*
X15324210Y-15574363D01*
X15374359Y-15603317D01*
X15374361Y-15603317D01*
X15374362Y-15603318D01*
X15439651Y-15620812D01*
X15457143Y-15625499D01*
X15457144Y-15625500D01*
X15457147Y-15625500D01*
X15542856Y-15625500D01*
X15542856Y-15625499D01*
X15625638Y-15603318D01*
X15699862Y-15560465D01*
X15760465Y-15499862D01*
X15803318Y-15425638D01*
X15825499Y-15342856D01*
X15825500Y-15342856D01*
X15825500Y-15257144D01*
X15825499Y-15257143D01*
X15803318Y-15174363D01*
X15803317Y-15174359D01*
X15760464Y-15100137D01*
X15699862Y-15039535D01*
X15625640Y-14996682D01*
X15625636Y-14996681D01*
X15542856Y-14974500D01*
X15542853Y-14974500D01*
X15457147Y-14974500D01*
X15457144Y-14974500D01*
X15374363Y-14996681D01*
X15374359Y-14996682D01*
X15300137Y-15039535D01*
X15300137Y-15039536D01*
X15239536Y-15100137D01*
X15239535Y-15100137D01*
X15225181Y-15125000D01*
X15195428Y-15147830D01*
X15182746Y-15149500D01*
X13470062Y-15149500D01*
X13430950Y-15165702D01*
X13414746Y-15172413D01*
X13414744Y-15172415D01*
X9117912Y-19469246D01*
X9083264Y-19483598D01*
X9070584Y-19481929D01*
X9042854Y-19474500D01*
X9042853Y-19474500D01*
X8957147Y-19474500D01*
X8957144Y-19474500D01*
X8874363Y-19496681D01*
X8874359Y-19496682D01*
X8800139Y-19539534D01*
X8759303Y-19580370D01*
X8724654Y-19594721D01*
X8690006Y-19580369D01*
X8685779Y-19575548D01*
X8685467Y-19575141D01*
X8685465Y-19575138D01*
X8624862Y-19514535D01*
X8593940Y-19496682D01*
X8550640Y-19471682D01*
X8550636Y-19471681D01*
X8467856Y-19449500D01*
X8467853Y-19449500D01*
X8382147Y-19449500D01*
X8381635Y-19449500D01*
X8346987Y-19435148D01*
X8332635Y-19400500D01*
X8346987Y-19365852D01*
X9790009Y-17922830D01*
X14182087Y-13530750D01*
X14216734Y-13516399D01*
X14229413Y-13518068D01*
X14248956Y-13523305D01*
X14257146Y-13525500D01*
X14257147Y-13525500D01*
X14342856Y-13525500D01*
X14342856Y-13525499D01*
X14425638Y-13503318D01*
X14499862Y-13460465D01*
X14560465Y-13399862D01*
X14603318Y-13325638D01*
X14625499Y-13242856D01*
X14625500Y-13242856D01*
X14625500Y-13157144D01*
X14625499Y-13157143D01*
X14620812Y-13139651D01*
X14603318Y-13074362D01*
X14603317Y-13074361D01*
X14603317Y-13074359D01*
X14576149Y-13027304D01*
X14560465Y-13000138D01*
X14499862Y-12939535D01*
X14449333Y-12910362D01*
X14426503Y-12880609D01*
X14431398Y-12843427D01*
X14461151Y-12820597D01*
X14465656Y-12819390D01*
X14525638Y-12803318D01*
X14599862Y-12760465D01*
X14660465Y-12699862D01*
X14703318Y-12625638D01*
X14725499Y-12542856D01*
X14725500Y-12542856D01*
X14725500Y-12457144D01*
X14725081Y-12453960D01*
X14726000Y-12453839D01*
X14730429Y-12420129D01*
X14738219Y-12409974D01*
X16558342Y-10589852D01*
X16592990Y-10575500D01*
X16597179Y-10575500D01*
X16631827Y-10589852D01*
X16637560Y-10597322D01*
X16637577Y-10597310D01*
X16639533Y-10599859D01*
X16639535Y-10599862D01*
X16700138Y-10660465D01*
X16727304Y-10676149D01*
X16774359Y-10703317D01*
X16774361Y-10703317D01*
X16774362Y-10703318D01*
X16839651Y-10720812D01*
X16857143Y-10725499D01*
X16857144Y-10725500D01*
X16857147Y-10725500D01*
X16942856Y-10725500D01*
X16942856Y-10725499D01*
X17025638Y-10703318D01*
X17099862Y-10660465D01*
X17160465Y-10599862D01*
X17203318Y-10525638D01*
X17225499Y-10442856D01*
X17225500Y-10442856D01*
X17225500Y-10357144D01*
X17225499Y-10357143D01*
X17216715Y-10324362D01*
X17203318Y-10274362D01*
X17203317Y-10274361D01*
X17203317Y-10274359D01*
X17161938Y-10202690D01*
X17160465Y-10200138D01*
X17099862Y-10139535D01*
X17025640Y-10096682D01*
X17025636Y-10096681D01*
X16942856Y-10074500D01*
X16942853Y-10074500D01*
X16857147Y-10074500D01*
X16857144Y-10074500D01*
X16774363Y-10096681D01*
X16774359Y-10096682D01*
X16700137Y-10139535D01*
X16700137Y-10139536D01*
X16639537Y-10200135D01*
X16637577Y-10202690D01*
X16636843Y-10202126D01*
X16609860Y-10222831D01*
X16597179Y-10224500D01*
X16465089Y-10224500D01*
X16400586Y-10251218D01*
X16377446Y-10274359D01*
X16351218Y-10300587D01*
X16351217Y-10300588D01*
X14490028Y-12161775D01*
X14455380Y-12176127D01*
X14446041Y-12174898D01*
X14446039Y-12174919D01*
X14442855Y-12174500D01*
X14442853Y-12174500D01*
X14357147Y-12174500D01*
X14357144Y-12174500D01*
X14274363Y-12196681D01*
X14274359Y-12196682D01*
X14200137Y-12239535D01*
X14200137Y-12239536D01*
X14139536Y-12300137D01*
X14139535Y-12300137D01*
X14096682Y-12374359D01*
X14096681Y-12374363D01*
X14074500Y-12457143D01*
X14074500Y-12542856D01*
X14096681Y-12625636D01*
X14096682Y-12625640D01*
X14129260Y-12682065D01*
X14139535Y-12699862D01*
X14200138Y-12760465D01*
X14250666Y-12789637D01*
X14273496Y-12819390D01*
X14268601Y-12856572D01*
X14238849Y-12879402D01*
X14174361Y-12896682D01*
X14174359Y-12896682D01*
X14100137Y-12939535D01*
X14100137Y-12939536D01*
X14039536Y-13000137D01*
X14039535Y-13000137D01*
X13996682Y-13074359D01*
X13996681Y-13074363D01*
X13974500Y-13157143D01*
X13974500Y-13242856D01*
X13981929Y-13270582D01*
X13977034Y-13307764D01*
X13969247Y-13317912D01*
X7922413Y-19364746D01*
X7908990Y-19397149D01*
X7908990Y-19397151D01*
X7907603Y-19400500D01*
X7899500Y-19420065D01*
X6950500Y-19420065D01*
X6950500Y-11799500D01*
X6964852Y-11764852D01*
X6999500Y-11750500D01*
X10529934Y-11750500D01*
X10529936Y-11750500D01*
X10552848Y-11741009D01*
X10585252Y-11727588D01*
X10882087Y-11430751D01*
X10916734Y-11416400D01*
X10929417Y-11418070D01*
X10957145Y-11425500D01*
X10957147Y-11425500D01*
X11042856Y-11425500D01*
X11042856Y-11425499D01*
X11125638Y-11403318D01*
X11199862Y-11360465D01*
X11260465Y-11299862D01*
X11303318Y-11225638D01*
X11325499Y-11142856D01*
X11325500Y-11142856D01*
X11325500Y-11057144D01*
X11325499Y-11057143D01*
X11303318Y-10974363D01*
X11303317Y-10974359D01*
X11260464Y-10900137D01*
X11199862Y-10839535D01*
X11125640Y-10796682D01*
X11125636Y-10796681D01*
X11042856Y-10774500D01*
X11042853Y-10774500D01*
X10957147Y-10774500D01*
X10957144Y-10774500D01*
X10874363Y-10796681D01*
X10874359Y-10796682D01*
X10800137Y-10839535D01*
X10800137Y-10839536D01*
X10739536Y-10900137D01*
X10739535Y-10900137D01*
X10696682Y-10974359D01*
X10696681Y-10974363D01*
X10674500Y-11057143D01*
X10674500Y-11142853D01*
X10681929Y-11170584D01*
X10677032Y-11207766D01*
X10669246Y-11217912D01*
X10550385Y-11336773D01*
X10515737Y-11351125D01*
X10481089Y-11336773D01*
X10466737Y-11302125D01*
X10473300Y-11277630D01*
X10503318Y-11225638D01*
X10525499Y-11142856D01*
X10525500Y-11142856D01*
X10525500Y-11057144D01*
X10525499Y-11057143D01*
X10503318Y-10974363D01*
X10503317Y-10974359D01*
X10460464Y-10900137D01*
X10399862Y-10839535D01*
X10325640Y-10796682D01*
X10325636Y-10796681D01*
X10242856Y-10774500D01*
X10242853Y-10774500D01*
X10157147Y-10774500D01*
X10157144Y-10774500D01*
X10074363Y-10796681D01*
X10074359Y-10796682D01*
X10000137Y-10839535D01*
X10000137Y-10839536D01*
X9939536Y-10900137D01*
X9939535Y-10900137D01*
X9896682Y-10974359D01*
X9896681Y-10974363D01*
X9874500Y-11057143D01*
X9874500Y-11142856D01*
X9896681Y-11225636D01*
X9896682Y-11225640D01*
X9926696Y-11277624D01*
X9939535Y-11299862D01*
X10000138Y-11360465D01*
X10000142Y-11360467D01*
X10001651Y-11361625D01*
X10002133Y-11362460D01*
X10002409Y-11362736D01*
X10002335Y-11362809D01*
X10020403Y-11394103D01*
X10010697Y-11430329D01*
X9978219Y-11449081D01*
X9971822Y-11449500D01*
X9628178Y-11449500D01*
X9593530Y-11435148D01*
X9579178Y-11400500D01*
X9593530Y-11365852D01*
X9598349Y-11361625D01*
X9599853Y-11360470D01*
X9599862Y-11360465D01*
X9660465Y-11299862D01*
X9703318Y-11225638D01*
X9725499Y-11142856D01*
X9725500Y-11142856D01*
X9725500Y-11057144D01*
X9725499Y-11057143D01*
X9703318Y-10974363D01*
X9703317Y-10974359D01*
X9660464Y-10900137D01*
X9599862Y-10839535D01*
X9525640Y-10796682D01*
X9525636Y-10796681D01*
X9442856Y-10774500D01*
X9442853Y-10774500D01*
X9357147Y-10774500D01*
X9357144Y-10774500D01*
X9274363Y-10796681D01*
X9274359Y-10796682D01*
X9200137Y-10839535D01*
X9200137Y-10839536D01*
X9139536Y-10900137D01*
X9139535Y-10900137D01*
X9096682Y-10974359D01*
X9096681Y-10974363D01*
X9074500Y-11057143D01*
X9074500Y-11142856D01*
X9096681Y-11225636D01*
X9096682Y-11225640D01*
X9126696Y-11277624D01*
X9139535Y-11299862D01*
X9200138Y-11360465D01*
X9200142Y-11360467D01*
X9201651Y-11361625D01*
X9202133Y-11362460D01*
X9202409Y-11362736D01*
X9202335Y-11362809D01*
X9220403Y-11394103D01*
X9210697Y-11430329D01*
X9178219Y-11449081D01*
X9171822Y-11449500D01*
X8828178Y-11449500D01*
X8793530Y-11435148D01*
X8779178Y-11400500D01*
X8793530Y-11365852D01*
X8798349Y-11361625D01*
X8799853Y-11360470D01*
X8799862Y-11360465D01*
X8860465Y-11299862D01*
X8903318Y-11225638D01*
X8925499Y-11142856D01*
X8925500Y-11142856D01*
X8925500Y-11057144D01*
X8925499Y-11057143D01*
X8903318Y-10974363D01*
X8903317Y-10974359D01*
X8860464Y-10900137D01*
X8799862Y-10839535D01*
X8725640Y-10796682D01*
X8725636Y-10796681D01*
X8642856Y-10774500D01*
X8642853Y-10774500D01*
X8557147Y-10774500D01*
X8557144Y-10774500D01*
X8474363Y-10796681D01*
X8474359Y-10796682D01*
X8400137Y-10839535D01*
X8400137Y-10839536D01*
X8339536Y-10900137D01*
X8339535Y-10900137D01*
X8296682Y-10974359D01*
X8296681Y-10974363D01*
X8274500Y-11057143D01*
X8274500Y-11142856D01*
X8296681Y-11225636D01*
X8296682Y-11225640D01*
X8326696Y-11277624D01*
X8339535Y-11299862D01*
X8400138Y-11360465D01*
X8400142Y-11360467D01*
X8401651Y-11361625D01*
X8402133Y-11362460D01*
X8402409Y-11362736D01*
X8402335Y-11362809D01*
X8420403Y-11394103D01*
X8410697Y-11430329D01*
X8378219Y-11449081D01*
X8371822Y-11449500D01*
X8028178Y-11449500D01*
X7993530Y-11435148D01*
X7979178Y-11400500D01*
X7993530Y-11365852D01*
X7998349Y-11361625D01*
X7999853Y-11360470D01*
X7999862Y-11360465D01*
X8060465Y-11299862D01*
X8103318Y-11225638D01*
X8125499Y-11142856D01*
X8125500Y-11142856D01*
X8125500Y-11057144D01*
X8125499Y-11057143D01*
X8103318Y-10974363D01*
X8103317Y-10974359D01*
X8060464Y-10900137D01*
X7999862Y-10839535D01*
X7925640Y-10796682D01*
X7925636Y-10796681D01*
X7842856Y-10774500D01*
X7842853Y-10774500D01*
X7757147Y-10774500D01*
X7757144Y-10774500D01*
X7674363Y-10796681D01*
X7674359Y-10796682D01*
X7600137Y-10839535D01*
X7600137Y-10839536D01*
X7539536Y-10900137D01*
X7539535Y-10900137D01*
X7496682Y-10974359D01*
X7496681Y-10974363D01*
X7474500Y-11057143D01*
X7474500Y-11142856D01*
X7496681Y-11225636D01*
X7496682Y-11225640D01*
X7526696Y-11277624D01*
X7539535Y-11299862D01*
X7600138Y-11360465D01*
X7600142Y-11360467D01*
X7601651Y-11361625D01*
X7602133Y-11362460D01*
X7602409Y-11362736D01*
X7602335Y-11362809D01*
X7620403Y-11394103D01*
X7610697Y-11430329D01*
X7578219Y-11449081D01*
X7571822Y-11449500D01*
X6795062Y-11449500D01*
X6755950Y-11465702D01*
X6739748Y-11472412D01*
X6672412Y-11539747D01*
X6659857Y-11570061D01*
X6659856Y-11570063D01*
X6649500Y-11595061D01*
X6649500Y-20607745D01*
X6635148Y-20642393D01*
X6625001Y-20650180D01*
X6600141Y-20664533D01*
X6600134Y-20664538D01*
X6559148Y-20705525D01*
X6524500Y-20719877D01*
X6489852Y-20705525D01*
X6475500Y-20670877D01*
X6475500Y-11607634D01*
X6489851Y-11572987D01*
X7282087Y-10780750D01*
X7316734Y-10766399D01*
X7329413Y-10768068D01*
X7348956Y-10773305D01*
X7357146Y-10775500D01*
X7357147Y-10775500D01*
X7442856Y-10775500D01*
X7442856Y-10775499D01*
X7525638Y-10753318D01*
X7599862Y-10710465D01*
X7660465Y-10649862D01*
X7703318Y-10575638D01*
X7725499Y-10492856D01*
X7725500Y-10492856D01*
X7725500Y-10407144D01*
X7725499Y-10407143D01*
X7874500Y-10407143D01*
X7874500Y-10492856D01*
X7896681Y-10575636D01*
X7896682Y-10575640D01*
X7939535Y-10649862D01*
X8000138Y-10710465D01*
X8026178Y-10725499D01*
X8074359Y-10753317D01*
X8074361Y-10753317D01*
X8074362Y-10753318D01*
X8129414Y-10768069D01*
X8157143Y-10775499D01*
X8157144Y-10775500D01*
X8157147Y-10775500D01*
X8242856Y-10775500D01*
X8242856Y-10775499D01*
X8325638Y-10753318D01*
X8399862Y-10710465D01*
X8460465Y-10649862D01*
X8503318Y-10575638D01*
X8525499Y-10492856D01*
X8525500Y-10492856D01*
X8525500Y-10407144D01*
X8525499Y-10407143D01*
X8674500Y-10407143D01*
X8674500Y-10492856D01*
X8696681Y-10575636D01*
X8696682Y-10575640D01*
X8739535Y-10649862D01*
X8800138Y-10710465D01*
X8826178Y-10725499D01*
X8874359Y-10753317D01*
X8874361Y-10753317D01*
X8874362Y-10753318D01*
X8929414Y-10768069D01*
X8957143Y-10775499D01*
X8957144Y-10775500D01*
X8957147Y-10775500D01*
X9042856Y-10775500D01*
X9042856Y-10775499D01*
X9125638Y-10753318D01*
X9199862Y-10710465D01*
X9260465Y-10649862D01*
X9303318Y-10575638D01*
X9325499Y-10492856D01*
X9325500Y-10492856D01*
X9325500Y-10407144D01*
X9325499Y-10407143D01*
X9474500Y-10407143D01*
X9474500Y-10492856D01*
X9496681Y-10575636D01*
X9496682Y-10575640D01*
X9539535Y-10649862D01*
X9600138Y-10710465D01*
X9626178Y-10725499D01*
X9674359Y-10753317D01*
X9674361Y-10753317D01*
X9674362Y-10753318D01*
X9729414Y-10768069D01*
X9757143Y-10775499D01*
X9757144Y-10775500D01*
X9757147Y-10775500D01*
X9842856Y-10775500D01*
X9842856Y-10775499D01*
X9925638Y-10753318D01*
X9999862Y-10710465D01*
X10060465Y-10649862D01*
X10103318Y-10575638D01*
X10125499Y-10492856D01*
X10125500Y-10492856D01*
X10125500Y-10407144D01*
X10125499Y-10407143D01*
X10274500Y-10407143D01*
X10274500Y-10492856D01*
X10296681Y-10575636D01*
X10296682Y-10575640D01*
X10339535Y-10649862D01*
X10400138Y-10710465D01*
X10426178Y-10725499D01*
X10474359Y-10753317D01*
X10474361Y-10753317D01*
X10474362Y-10753318D01*
X10529414Y-10768069D01*
X10557143Y-10775499D01*
X10557144Y-10775500D01*
X10557147Y-10775500D01*
X10642856Y-10775500D01*
X10642856Y-10775499D01*
X10725638Y-10753318D01*
X10799862Y-10710465D01*
X10860465Y-10649862D01*
X10903318Y-10575638D01*
X10925499Y-10492856D01*
X10925500Y-10492856D01*
X10925500Y-10407144D01*
X10925499Y-10407143D01*
X10912102Y-10357144D01*
X10903318Y-10324362D01*
X10903317Y-10324361D01*
X10903317Y-10324359D01*
X10874449Y-10274359D01*
X10860465Y-10250138D01*
X10799862Y-10189535D01*
X10743759Y-10157143D01*
X12843700Y-10157143D01*
X12843700Y-10242856D01*
X12865881Y-10325636D01*
X12865882Y-10325640D01*
X12908735Y-10399862D01*
X12969338Y-10460465D01*
X12996504Y-10476149D01*
X13043559Y-10503317D01*
X13043561Y-10503317D01*
X13043562Y-10503318D01*
X13107993Y-10520582D01*
X13126343Y-10525499D01*
X13126344Y-10525500D01*
X13126347Y-10525500D01*
X13212056Y-10525500D01*
X13212056Y-10525499D01*
X13294838Y-10503318D01*
X13369062Y-10460465D01*
X13429665Y-10399862D01*
X13472518Y-10325638D01*
X13494699Y-10242856D01*
X13494700Y-10242856D01*
X13494700Y-10157144D01*
X13494699Y-10157143D01*
X13485952Y-10124500D01*
X13472518Y-10074362D01*
X13472517Y-10074361D01*
X13472517Y-10074359D01*
X13429664Y-10000137D01*
X13369062Y-9939535D01*
X13294840Y-9896682D01*
X13294836Y-9896681D01*
X13212056Y-9874500D01*
X13212053Y-9874500D01*
X13126347Y-9874500D01*
X13126344Y-9874500D01*
X13043563Y-9896681D01*
X13043559Y-9896682D01*
X12969337Y-9939535D01*
X12969337Y-9939536D01*
X12908736Y-10000137D01*
X12908735Y-10000137D01*
X12865882Y-10074359D01*
X12865881Y-10074363D01*
X12843700Y-10157143D01*
X10743759Y-10157143D01*
X10725640Y-10146682D01*
X10725636Y-10146681D01*
X10642856Y-10124500D01*
X10642853Y-10124500D01*
X10557147Y-10124500D01*
X10557144Y-10124500D01*
X10474363Y-10146681D01*
X10474359Y-10146682D01*
X10400137Y-10189535D01*
X10400137Y-10189536D01*
X10339536Y-10250137D01*
X10339535Y-10250137D01*
X10296682Y-10324359D01*
X10296681Y-10324363D01*
X10274500Y-10407143D01*
X10125499Y-10407143D01*
X10112102Y-10357144D01*
X10103318Y-10324362D01*
X10103317Y-10324361D01*
X10103317Y-10324359D01*
X10074449Y-10274359D01*
X10060465Y-10250138D01*
X9999862Y-10189535D01*
X9925640Y-10146682D01*
X9925636Y-10146681D01*
X9842856Y-10124500D01*
X9842853Y-10124500D01*
X9757147Y-10124500D01*
X9757144Y-10124500D01*
X9674363Y-10146681D01*
X9674359Y-10146682D01*
X9600137Y-10189535D01*
X9600137Y-10189536D01*
X9539536Y-10250137D01*
X9539535Y-10250137D01*
X9496682Y-10324359D01*
X9496681Y-10324363D01*
X9474500Y-10407143D01*
X9325499Y-10407143D01*
X9312102Y-10357144D01*
X9303318Y-10324362D01*
X9303317Y-10324361D01*
X9303317Y-10324359D01*
X9274449Y-10274359D01*
X9260465Y-10250138D01*
X9199862Y-10189535D01*
X9125640Y-10146682D01*
X9125636Y-10146681D01*
X9042856Y-10124500D01*
X9042853Y-10124500D01*
X8957147Y-10124500D01*
X8957144Y-10124500D01*
X8874363Y-10146681D01*
X8874359Y-10146682D01*
X8800137Y-10189535D01*
X8800137Y-10189536D01*
X8739536Y-10250137D01*
X8739535Y-10250137D01*
X8696682Y-10324359D01*
X8696681Y-10324363D01*
X8674500Y-10407143D01*
X8525499Y-10407143D01*
X8512102Y-10357144D01*
X8503318Y-10324362D01*
X8503317Y-10324361D01*
X8503317Y-10324359D01*
X8474449Y-10274359D01*
X8460465Y-10250138D01*
X8399862Y-10189535D01*
X8325640Y-10146682D01*
X8325636Y-10146681D01*
X8242856Y-10124500D01*
X8242853Y-10124500D01*
X8157147Y-10124500D01*
X8157144Y-10124500D01*
X8074363Y-10146681D01*
X8074359Y-10146682D01*
X8000137Y-10189535D01*
X8000137Y-10189536D01*
X7939536Y-10250137D01*
X7939535Y-10250137D01*
X7896682Y-10324359D01*
X7896681Y-10324363D01*
X7874500Y-10407143D01*
X7725499Y-10407143D01*
X7712102Y-10357144D01*
X7703318Y-10324362D01*
X7703317Y-10324361D01*
X7703317Y-10324359D01*
X7674449Y-10274359D01*
X7660465Y-10250138D01*
X7599862Y-10189535D01*
X7525640Y-10146682D01*
X7525636Y-10146681D01*
X7442856Y-10124500D01*
X7442853Y-10124500D01*
X7357147Y-10124500D01*
X7357144Y-10124500D01*
X7274363Y-10146681D01*
X7274359Y-10146682D01*
X7200137Y-10189535D01*
X7200137Y-10189536D01*
X7139536Y-10250137D01*
X7139535Y-10250137D01*
X7096682Y-10324359D01*
X7096681Y-10324363D01*
X7074500Y-10407143D01*
X7074500Y-10492856D01*
X7081929Y-10520582D01*
X7077034Y-10557764D01*
X7069247Y-10567912D01*
X6197413Y-11439746D01*
X6183990Y-11472149D01*
X6183990Y-11472151D01*
X6174500Y-11495064D01*
X6174500Y-11495065D01*
X6174500Y-12968364D01*
X6160148Y-13003012D01*
X6125500Y-13017364D01*
X6090852Y-13003012D01*
X5485254Y-12397413D01*
X5485252Y-12397412D01*
X5452848Y-12383990D01*
X5429936Y-12374500D01*
X4729936Y-12374500D01*
X4670064Y-12374500D01*
X4670062Y-12374500D01*
X4614747Y-12397413D01*
X4614745Y-12397414D01*
X3797413Y-13214745D01*
X3797413Y-13214746D01*
X3783990Y-13247149D01*
X3783990Y-13247151D01*
X3779852Y-13257143D01*
X3774500Y-13270065D01*
X300500Y-13270065D01*
X300500Y-9057143D01*
X674500Y-9057143D01*
X674500Y-9142856D01*
X696681Y-9225636D01*
X696682Y-9225640D01*
X739535Y-9299862D01*
X800138Y-9360465D01*
X827304Y-9376149D01*
X874359Y-9403317D01*
X874361Y-9403317D01*
X874362Y-9403318D01*
X939651Y-9420812D01*
X957143Y-9425499D01*
X957144Y-9425500D01*
X957147Y-9425500D01*
X1042856Y-9425500D01*
X1042856Y-9425499D01*
X1125638Y-9403318D01*
X1199862Y-9360465D01*
X1260465Y-9299862D01*
X1303318Y-9225638D01*
X1321671Y-9157143D01*
X12843700Y-9157143D01*
X12843700Y-9242856D01*
X12865881Y-9325636D01*
X12865882Y-9325640D01*
X12885989Y-9360465D01*
X12908735Y-9399862D01*
X12969338Y-9460465D01*
X12996504Y-9476149D01*
X13043559Y-9503317D01*
X13043561Y-9503317D01*
X13043562Y-9503318D01*
X13108851Y-9520812D01*
X13126343Y-9525499D01*
X13126344Y-9525500D01*
X13126347Y-9525500D01*
X13212056Y-9525500D01*
X13212056Y-9525499D01*
X13294838Y-9503318D01*
X13369062Y-9460465D01*
X13429665Y-9399862D01*
X13472518Y-9325638D01*
X13494699Y-9242856D01*
X13494700Y-9242856D01*
X13494700Y-9157144D01*
X13494699Y-9157143D01*
X13472518Y-9074363D01*
X13472517Y-9074359D01*
X13429664Y-9000137D01*
X13369062Y-8939535D01*
X13294840Y-8896682D01*
X13294836Y-8896681D01*
X13212056Y-8874500D01*
X13212053Y-8874500D01*
X13126347Y-8874500D01*
X13126344Y-8874500D01*
X13043563Y-8896681D01*
X13043559Y-8896682D01*
X12969337Y-8939535D01*
X12969337Y-8939536D01*
X12908736Y-9000137D01*
X12908735Y-9000137D01*
X12865882Y-9074359D01*
X12865881Y-9074363D01*
X12843700Y-9157143D01*
X1321671Y-9157143D01*
X1325499Y-9142857D01*
X1325500Y-9142856D01*
X1325500Y-9057144D01*
X1325499Y-9057143D01*
X1320812Y-9039651D01*
X1303318Y-8974362D01*
X1303317Y-8974361D01*
X1303317Y-8974359D01*
X1260464Y-8900137D01*
X1199862Y-8839535D01*
X1125640Y-8796682D01*
X1125636Y-8796681D01*
X1042856Y-8774500D01*
X1042853Y-8774500D01*
X957147Y-8774500D01*
X957144Y-8774500D01*
X874363Y-8796681D01*
X874359Y-8796682D01*
X800137Y-8839535D01*
X800137Y-8839536D01*
X739536Y-8900137D01*
X739535Y-8900137D01*
X696682Y-8974359D01*
X696681Y-8974363D01*
X674500Y-9057143D01*
X300500Y-9057143D01*
X300500Y-7757143D01*
X10624500Y-7757143D01*
X10624500Y-7842856D01*
X10646681Y-7925636D01*
X10646682Y-7925640D01*
X10689535Y-7999862D01*
X10750138Y-8060465D01*
X10777304Y-8076149D01*
X10824359Y-8103317D01*
X10824361Y-8103317D01*
X10824362Y-8103318D01*
X10889651Y-8120812D01*
X10907143Y-8125499D01*
X10907144Y-8125500D01*
X10907147Y-8125500D01*
X10992856Y-8125500D01*
X10992856Y-8125499D01*
X11075638Y-8103318D01*
X11149862Y-8060465D01*
X11210465Y-7999862D01*
X11253318Y-7925638D01*
X11275499Y-7842856D01*
X11275500Y-7842856D01*
X11275500Y-7757144D01*
X11275499Y-7757143D01*
X11253318Y-7674363D01*
X11253317Y-7674359D01*
X11210464Y-7600137D01*
X11149862Y-7539535D01*
X11075640Y-7496682D01*
X11075636Y-7496681D01*
X10992856Y-7474500D01*
X10992853Y-7474500D01*
X10907147Y-7474500D01*
X10907144Y-7474500D01*
X10824363Y-7496681D01*
X10824359Y-7496682D01*
X10750137Y-7539535D01*
X10750137Y-7539536D01*
X10689536Y-7600137D01*
X10689535Y-7600137D01*
X10646682Y-7674359D01*
X10646681Y-7674363D01*
X10624500Y-7757143D01*
X300500Y-7757143D01*
X300500Y-7157143D01*
X12674500Y-7157143D01*
X12674500Y-7242856D01*
X12696681Y-7325636D01*
X12696682Y-7325640D01*
X12739535Y-7399862D01*
X12800138Y-7460465D01*
X12827304Y-7476149D01*
X12874359Y-7503317D01*
X12874361Y-7503317D01*
X12874362Y-7503318D01*
X12939651Y-7520812D01*
X12957143Y-7525499D01*
X12957144Y-7525500D01*
X12957147Y-7525500D01*
X13042856Y-7525500D01*
X13042856Y-7525499D01*
X13125638Y-7503318D01*
X13199862Y-7460465D01*
X13260465Y-7399862D01*
X13303318Y-7325638D01*
X13325499Y-7242856D01*
X13325500Y-7242856D01*
X13325500Y-7157144D01*
X13325499Y-7157143D01*
X13303318Y-7074363D01*
X13303317Y-7074359D01*
X13260464Y-7000137D01*
X13199862Y-6939535D01*
X13125640Y-6896682D01*
X13125636Y-6896681D01*
X13042856Y-6874500D01*
X13042853Y-6874500D01*
X12957147Y-6874500D01*
X12957144Y-6874500D01*
X12874363Y-6896681D01*
X12874359Y-6896682D01*
X12800137Y-6939535D01*
X12800137Y-6939536D01*
X12739536Y-7000137D01*
X12739535Y-7000137D01*
X12696682Y-7074359D01*
X12696681Y-7074363D01*
X12674500Y-7157143D01*
X300500Y-7157143D01*
X300500Y-5515000D01*
X11250000Y-5515000D01*
X13150000Y-5515000D01*
X13150000Y-4482143D01*
X14574500Y-4482143D01*
X14574500Y-4567856D01*
X14596681Y-4650636D01*
X14596682Y-4650640D01*
X14639535Y-4724862D01*
X14700138Y-4785465D01*
X14727304Y-4801149D01*
X14774359Y-4828317D01*
X14774361Y-4828317D01*
X14774362Y-4828318D01*
X14839651Y-4845812D01*
X14857143Y-4850499D01*
X14857144Y-4850500D01*
X14857147Y-4850500D01*
X14942856Y-4850500D01*
X14942856Y-4850499D01*
X15025638Y-4828318D01*
X15099862Y-4785465D01*
X15160465Y-4724862D01*
X15203318Y-4650638D01*
X15225499Y-4567856D01*
X15225500Y-4567856D01*
X15225500Y-4482144D01*
X15225499Y-4482143D01*
X15203318Y-4399363D01*
X15203317Y-4399359D01*
X15160464Y-4325137D01*
X15099862Y-4264535D01*
X15025640Y-4221682D01*
X15025636Y-4221681D01*
X14942856Y-4199500D01*
X14942853Y-4199500D01*
X14857147Y-4199500D01*
X14857144Y-4199500D01*
X14774363Y-4221681D01*
X14774359Y-4221682D01*
X14700137Y-4264535D01*
X14700137Y-4264536D01*
X14639536Y-4325137D01*
X14639535Y-4325137D01*
X14596682Y-4399359D01*
X14596681Y-4399363D01*
X14574500Y-4482143D01*
X13150000Y-4482143D01*
X13150000Y-3425000D01*
X11250000Y-3425000D01*
X11250000Y-5515000D01*
X300500Y-5515000D01*
X300500Y-4482143D01*
X9174500Y-4482143D01*
X9174500Y-4567856D01*
X9196681Y-4650636D01*
X9196682Y-4650640D01*
X9239535Y-4724862D01*
X9300138Y-4785465D01*
X9327304Y-4801149D01*
X9374359Y-4828317D01*
X9374361Y-4828317D01*
X9374362Y-4828318D01*
X9439651Y-4845812D01*
X9457143Y-4850499D01*
X9457144Y-4850500D01*
X9457147Y-4850500D01*
X9542856Y-4850500D01*
X9542856Y-4850499D01*
X9625638Y-4828318D01*
X9699862Y-4785465D01*
X9760465Y-4724862D01*
X9803318Y-4650638D01*
X9825499Y-4567856D01*
X9825500Y-4567856D01*
X9825500Y-4482144D01*
X9825499Y-4482143D01*
X9803318Y-4399363D01*
X9803317Y-4399359D01*
X9760464Y-4325137D01*
X9699862Y-4264535D01*
X9625640Y-4221682D01*
X9625636Y-4221681D01*
X9542856Y-4199500D01*
X9542853Y-4199500D01*
X9457147Y-4199500D01*
X9457144Y-4199500D01*
X9374363Y-4221681D01*
X9374359Y-4221682D01*
X9300137Y-4264535D01*
X9300137Y-4264536D01*
X9239536Y-4325137D01*
X9239535Y-4325137D01*
X9196682Y-4399359D01*
X9196681Y-4399363D01*
X9174500Y-4482143D01*
X300500Y-4482143D01*
X300500Y-1799500D01*
X314852Y-1764852D01*
X349500Y-1750500D01*
X19650500Y-1750500D01*
X19685148Y-1764852D01*
G37*
%TD.AperFunction*%
%TD*%
M02*
