%TF.GenerationSoftware,KiCad,Pcbnew,10.0.6-10.0.6~ubuntu24.04.1*%
%TF.CreationDate,2026-09-26T10:06:51-07:00*%
%TF.ProjectId,module,6d6f6475-6c65-42e6-9b69-6361645f7063,rev?*%
%TF.SameCoordinates,Original*%
%TF.FileFunction,Copper,L4,Bot*%
%TF.FilePolarity,Positive*%
%FSLAX46Y46*%
G04 Gerber Fmt 4.6, Leading zero omitted, Abs format (unit mm)*
G04 Created by KiCad (PCBNEW 10.0.6-10.0.6~ubuntu24.04.1) date 2026-09-26 10:06:51*
%MOMM*%
%LPD*%
G01*
G04 APERTURE LIST*
%TA.AperFunction,SMDPad,CuDef*%
%ADD10R,0.350000X0.660000*%
%TD*%
%TA.AperFunction,SMDPad,CuDef*%
%ADD11R,0.230000X0.660000*%
%TD*%
%TA.AperFunction,SMDPad,CuDef*%
%ADD12R,0.200000X1.140000*%
%TD*%
%TA.AperFunction,ViaPad*%
%ADD13C,0.450000*%
%TD*%
%TA.AperFunction,Conductor*%
%ADD14C,0.200000*%
%TD*%
%TA.AperFunction,Conductor*%
%ADD15C,0.150000*%
%TD*%
%TA.AperFunction,Conductor*%
%ADD16C,0.100000*%
%TD*%
%TA.AperFunction,Conductor*%
%ADD17C,0.400000*%
%TD*%
G04 APERTURE END LIST*
D10*
%TO.P,J2,*%
%TO.N,*%
X14275000Y-42105000D03*
X14275000Y-39395000D03*
X5725000Y-42105000D03*
X5725000Y-39395000D03*
D11*
%TO.P,J2,1*%
%TO.N,GND*%
X13800000Y-39395000D03*
%TO.P,J2,2*%
%TO.N,/FPGA_IOB_18A*%
X13400000Y-39395000D03*
%TO.P,J2,3*%
%TO.N,GND*%
X13000000Y-39395000D03*
%TO.P,J2,4*%
%TO.N,/FPGA_IOB_16A*%
X12599999Y-39395000D03*
%TO.P,J2,5*%
%TO.N,/FPGA_IOB_22A*%
X12199999Y-39395000D03*
%TO.P,J2,6*%
%TO.N,/FPGA_IOB_13B*%
X11799999Y-39395000D03*
%TO.P,J2,7*%
%TO.N,/FPGA_IOB_20A*%
X11399999Y-39395000D03*
%TO.P,J2,8*%
%TO.N,GND*%
X10999999Y-39395000D03*
%TO.P,J2,9*%
%TO.N,/FPGA_IOT_37A*%
X10599999Y-39395000D03*
%TO.P,J2,10*%
%TO.N,/FPGA_IOB_23B*%
X10199999Y-39395000D03*
%TO.P,J2,11*%
%TO.N,/FPGA_IOB_29B*%
X9800000Y-39395000D03*
%TO.P,J2,12*%
%TO.N,/FPGA_IOB_25B_G3*%
X9400000Y-39395000D03*
%TO.P,J2,13*%
%TO.N,GND*%
X9000000Y-39395000D03*
%TO.P,J2,14*%
%TO.N,/FPGA_IOT_36B*%
X8600000Y-39395000D03*
%TO.P,J2,15*%
%TO.N,/FPGA_IOT_38B*%
X8200000Y-39395000D03*
%TO.P,J2,16*%
%TO.N,/FPGA_IOT_39A*%
X7800000Y-39395000D03*
%TO.P,J2,17*%
%TO.N,/FPGA_IOT_41A*%
X7400000Y-39395000D03*
%TO.P,J2,18*%
%TO.N,GND*%
X7000000Y-39395000D03*
%TO.P,J2,19*%
%TO.N,/FPGA_IOT_42B*%
X6600000Y-39395000D03*
%TO.P,J2,20*%
%TO.N,/FPGA_IOT_43A*%
X6200000Y-39395000D03*
%TO.P,J2,21*%
%TO.N,/FPGA_IOT_48B*%
X6200000Y-42105000D03*
%TO.P,J2,22*%
%TO.N,/FPGA_IOT_46B_G0*%
X6600000Y-42105000D03*
%TO.P,J2,23*%
%TO.N,GND*%
X7000000Y-42105000D03*
%TO.P,J2,24*%
%TO.N,/FPGA_IOT_45A_G1*%
X7400000Y-42105000D03*
%TO.P,J2,25*%
%TO.N,/FPGA_IOT_50B*%
X7800000Y-42105000D03*
%TO.P,J2,26*%
%TO.N,/FPGA_RGB0*%
X8200000Y-42105000D03*
%TO.P,J2,27*%
%TO.N,/FPGA_RGB1*%
X8600000Y-42105000D03*
%TO.P,J2,28*%
%TO.N,GND*%
X9000000Y-42105000D03*
%TO.P,J2,29*%
%TO.N,/FPGA_RGB2*%
X9400000Y-42105000D03*
%TO.P,J2,30*%
%TO.N,/FPGA_IOT_51A*%
X9800000Y-42105000D03*
%TO.P,J2,31*%
%TO.N,/FPGA_IOT_49A*%
X10199999Y-42105000D03*
%TO.P,J2,32*%
%TO.N,/FPGA_IOB_3B_G6*%
X10599999Y-42105000D03*
%TO.P,J2,33*%
%TO.N,/FPGA_IOT_44B*%
X10999999Y-42105000D03*
%TO.P,J2,34*%
%TO.N,/FPGA_IOB_5B*%
X11399999Y-42105000D03*
%TO.P,J2,35*%
%TO.N,/FPGA_IOB_0A*%
X11799999Y-42105000D03*
%TO.P,J2,36*%
%TO.N,/FPGA_IOB_2A*%
X12199999Y-42105000D03*
%TO.P,J2,37*%
%TO.N,/FPGA_IOB_4A*%
X12599999Y-42105000D03*
%TO.P,J2,38*%
%TO.N,/FPGA_IOB_9B*%
X13000000Y-42105000D03*
%TO.P,J2,39*%
%TO.N,/FPGA_IOB_8A*%
X13400000Y-42105000D03*
%TO.P,J2,40*%
%TO.N,/FPGA_IOB_6A*%
X13800000Y-42105000D03*
%TD*%
D12*
%TO.P,J1,1*%
%TO.N,VIN_5V*%
X13800000Y-14430000D03*
%TO.P,J1,2*%
X13400000Y-14430000D03*
%TO.P,J1,3*%
X13000000Y-14430000D03*
%TO.P,J1,4*%
X12599999Y-14430000D03*
%TO.P,J1,5*%
%TO.N,GND*%
X12199999Y-14430000D03*
%TO.P,J1,6*%
X11799999Y-14430000D03*
%TO.P,J1,7*%
%TO.N,/USB_D+*%
X11399999Y-14430000D03*
%TO.P,J1,8*%
%TO.N,/USB_D-*%
X10999999Y-14430000D03*
%TO.P,J1,9*%
%TO.N,GND*%
X10599999Y-14430000D03*
%TO.P,J1,10*%
X10199999Y-14430000D03*
%TO.P,J1,11*%
%TO.N,/ESP_EN*%
X9800000Y-14430000D03*
%TO.P,J1,12*%
%TO.N,/ESP_GPIO0_BOOT*%
X9400000Y-14430000D03*
%TO.P,J1,13*%
%TO.N,/ESP_GPIO1*%
X9000000Y-14430000D03*
%TO.P,J1,14*%
%TO.N,/ESP_GPIO2*%
X8600000Y-14430000D03*
%TO.P,J1,15*%
%TO.N,/ESP_GPIO3*%
X8200000Y-14430000D03*
%TO.P,J1,16*%
%TO.N,/ESP_GPIO4*%
X7800000Y-14430000D03*
%TO.P,J1,17*%
%TO.N,/ESP_GPIO5*%
X7400000Y-14430000D03*
%TO.P,J1,18*%
%TO.N,/ESP_GPIO6*%
X7000000Y-14430000D03*
%TO.P,J1,19*%
%TO.N,/ESP_GPIO7*%
X6600000Y-14430000D03*
%TO.P,J1,20*%
%TO.N,/ESP_GPIO8*%
X6200000Y-14430000D03*
%TO.P,J1,21*%
%TO.N,/ESP_GPIO40*%
X13800000Y-17070000D03*
%TO.P,J1,22*%
%TO.N,GND*%
X13400000Y-17070000D03*
%TO.P,J1,23*%
%TO.N,/ESP_GPIO39*%
X13000000Y-17070000D03*
%TO.P,J1,24*%
%TO.N,/ESP_GPIO41*%
X12599999Y-17070000D03*
%TO.P,J1,25*%
%TO.N,/ESP_GPIO42*%
X12199999Y-17070000D03*
%TO.P,J1,26*%
%TO.N,/ESP_GPIO43_TXD*%
X11799999Y-17070000D03*
%TO.P,J1,27*%
%TO.N,/ESP_GPIO44_RXD*%
X11399999Y-17070000D03*
%TO.P,J1,28*%
%TO.N,/ESP_GPIO35*%
X10999999Y-17070000D03*
%TO.P,J1,29*%
%TO.N,/ESP_GPIO33*%
X10599999Y-17070000D03*
%TO.P,J1,30*%
%TO.N,GND*%
X10199999Y-17070000D03*
%TO.P,J1,31*%
X9800000Y-17070000D03*
%TO.P,J1,32*%
%TO.N,/ESP_GPIO34*%
X9400000Y-17070000D03*
%TO.P,J1,33*%
%TO.N,/ESP_GPIO46*%
X9000000Y-17070000D03*
%TO.P,J1,34*%
%TO.N,/ESP_GPIO45*%
X8600000Y-17070000D03*
%TO.P,J1,35*%
%TO.N,/ESP_GPIO15*%
X8200000Y-17070000D03*
%TO.P,J1,36*%
%TO.N,/ESP_GPIO17*%
X7800000Y-17070000D03*
%TO.P,J1,37*%
%TO.N,/ESP_GPIO16*%
X7400000Y-17070000D03*
%TO.P,J1,38*%
%TO.N,/ESP_GPIO18*%
X7000000Y-17070000D03*
%TO.P,J1,39*%
%TO.N,/ESP_GPIO38*%
X6600000Y-17070000D03*
%TO.P,J1,40*%
%TO.N,/ESP_GPIO21*%
X6200000Y-17070000D03*
%TD*%
D13*
%TO.N,+3.3V*%
X16515400Y-43100000D03*
X15200000Y-10300000D03*
X1775000Y-21500000D03*
X4100000Y-9500000D03*
X12100000Y-33200000D03*
X13800000Y-10700000D03*
X5125000Y-24325000D03*
X13950000Y-24200000D03*
X19000000Y-42800000D03*
X19200000Y-23000000D03*
X14200000Y-32824999D03*
X19000000Y-39000000D03*
X14375000Y-17325000D03*
X7175000Y-19925000D03*
X13000000Y-32199999D03*
X4400000Y-16800000D03*
X14350000Y-30700000D03*
X14250000Y-14900000D03*
X8250000Y-35200000D03*
X5175000Y-14925000D03*
X14200000Y-25900000D03*
X4075000Y-43600000D03*
X8650000Y-33650000D03*
X15900000Y-12400000D03*
%TO.N,GND*%
X4450000Y-18800000D03*
X2015400Y-39950000D03*
X14300000Y-18250000D03*
X1000000Y-9100000D03*
X1725000Y-37550000D03*
X10950000Y-7800000D03*
X13169200Y-10200000D03*
X5487500Y-36111480D03*
X14300000Y-35200000D03*
X2015400Y-41250000D03*
X3700000Y-33300000D03*
X1725000Y-42650000D03*
X6015400Y-33650000D03*
X17750000Y-31100000D03*
X9500000Y-4525000D03*
X5700000Y-35200000D03*
X11350000Y-31750000D03*
X13000000Y-7200000D03*
X13169200Y-9200000D03*
X18284600Y-42250000D03*
X4450000Y-20075000D03*
X18284600Y-40250000D03*
X14300000Y-21050000D03*
X14900000Y-4525000D03*
X2015400Y-38750000D03*
X18800000Y-21800000D03*
X5800000Y-43000000D03*
X4875000Y-26500000D03*
%TO.N,/FPGA_CRESET_N*%
X15500000Y-38750000D03*
X11800000Y-19900000D03*
%TO.N,+1.2V*%
X4384600Y-39950000D03*
X1175000Y-25500000D03*
X16515400Y-41100000D03*
X2775000Y-35050000D03*
%TO.N,/FPGA_CDONE*%
X12200000Y-20550000D03*
X14900000Y-39550000D03*
X19000000Y-36000000D03*
%TO.N,/ESP_EN*%
X14400000Y-12500000D03*
X16900000Y-10400000D03*
%TO.N,/ESP_GPIO0_BOOT*%
X6800000Y-20925000D03*
X11000000Y-11100000D03*
%TO.N,VIN_5V*%
X16000000Y-18700000D03*
%TO.N,/ESP_GPIO1*%
X10600000Y-10450000D03*
%TO.N,/ESP_GPIO2*%
X10200000Y-11100000D03*
%TO.N,/ESP_GPIO3*%
X9800000Y-10450000D03*
%TO.N,/ESP_GPIO4*%
X9400000Y-11100000D03*
%TO.N,/ESP_GPIO5*%
X9000000Y-10450000D03*
%TO.N,/ESP_GPIO6*%
X8600000Y-11100000D03*
%TO.N,/ESP_GPIO7*%
X8200000Y-10450000D03*
%TO.N,/ESP_GPIO8*%
X7800000Y-11100000D03*
%TO.N,/LINK_IO3*%
X7400000Y-10450000D03*
X10250000Y-34200000D03*
%TO.N,/LINK_CS_N*%
X4900000Y-12900000D03*
X11250000Y-35200000D03*
%TO.N,/LINK_MOSI*%
X2800000Y-19000000D03*
X5600000Y-13300000D03*
X10750000Y-34500000D03*
%TO.N,/LINK_MISO*%
X5600000Y-14100000D03*
X12250000Y-35200000D03*
%TO.N,/LINK_IO2*%
X4300000Y-13700000D03*
X12750000Y-34500000D03*
X10500000Y-32199999D03*
X5675000Y-24275000D03*
%TO.N,/ESP_GPIO15*%
X5600000Y-15300000D03*
X8425000Y-19775000D03*
%TO.N,/ESP_GPIO16*%
X4800000Y-15700000D03*
X7150000Y-22500000D03*
%TO.N,/ESP_GPIO17*%
X5600000Y-16100000D03*
X8800000Y-22000000D03*
%TO.N,/ESP_GPIO18*%
X6725000Y-23100000D03*
X4500000Y-16200000D03*
%TO.N,/USB_D-*%
X5300000Y-16850000D03*
%TO.N,/USB_D+*%
X5650000Y-17300000D03*
%TO.N,/ESP_GPIO21*%
X5675000Y-18375000D03*
%TO.N,/ESP_GPIO33*%
X10600000Y-19800000D03*
%TO.N,/ESP_GPIO34*%
X9800000Y-20400000D03*
%TO.N,/ESP_GPIO35*%
X11400000Y-20300000D03*
%TO.N,/ESP_GPIO38*%
X12600000Y-20000000D03*
X5500000Y-18900000D03*
%TO.N,/ESP_GPIO39*%
X15100000Y-18200000D03*
%TO.N,/ESP_GPIO40*%
X14700000Y-17800000D03*
%TO.N,/ESP_GPIO41*%
X15100000Y-16900000D03*
%TO.N,/ESP_GPIO42*%
X14300000Y-16500000D03*
%TO.N,/ESP_GPIO43_TXD*%
X15100000Y-16100000D03*
%TO.N,/ESP_GPIO44_RXD*%
X13200000Y-19400000D03*
X14300000Y-15700000D03*
%TO.N,/ESP_GPIO45*%
X15500000Y-15300000D03*
X9000000Y-19800000D03*
%TO.N,/ESP_GPIO46*%
X8700000Y-20300000D03*
X14300000Y-13200000D03*
%TO.N,/FPGA_IOB_6A*%
X14800000Y-41750000D03*
%TO.N,/FPGA_IOB_9B*%
X15400000Y-41550000D03*
%TO.N,/FPGA_IOB_8A*%
X14700000Y-40750000D03*
%TO.N,/FPGA_IOB_13B*%
X15300000Y-40750000D03*
%TO.N,/FPGA_IOB_16A*%
X15000000Y-38250000D03*
%TO.N,/FPGA_IOB_18A*%
X14300000Y-37750000D03*
%TO.N,/FPGA_IOB_20A*%
X15000000Y-37250000D03*
%TO.N,/FPGA_IOB_22A*%
X14300000Y-36750000D03*
%TO.N,/FPGA_IOB_29B*%
X9750000Y-34500000D03*
%TO.N,/FPGA_IOB_25B_G3*%
X9250000Y-35200000D03*
%TO.N,/FPGA_IOB_23B*%
X8750000Y-34500000D03*
%TO.N,/FPGA_IOT_37A*%
X7750000Y-34500000D03*
%TO.N,/FPGA_IOT_36B*%
X5000000Y-36750000D03*
%TO.N,/FPGA_IOT_39A*%
X5700000Y-37250000D03*
%TO.N,/FPGA_IOT_38B*%
X4900000Y-37750000D03*
%TO.N,/FPGA_IOT_41A*%
X5200000Y-38250000D03*
%TO.N,/FPGA_IOT_42B*%
X5000000Y-39750000D03*
%TO.N,/FPGA_IOT_43A*%
X5700000Y-40250000D03*
%TO.N,/FPGA_IOT_44B*%
X5000000Y-41250000D03*
%TO.N,/FPGA_IOT_46B_G0*%
X4700000Y-41750000D03*
%TO.N,/FPGA_IOT_48B*%
X5200000Y-42150000D03*
%TO.N,/FPGA_IOT_45A_G1*%
X7250000Y-44400000D03*
%TO.N,/FPGA_IOT_50B*%
X7750000Y-43800000D03*
%TO.N,/FPGA_RGB0*%
X19000000Y-44800000D03*
X8150000Y-44800000D03*
%TO.N,/FPGA_RGB1*%
X16950000Y-44700000D03*
X8750000Y-44800000D03*
%TO.N,/FPGA_RGB2*%
X16750000Y-43850000D03*
X9250000Y-44400000D03*
%TO.N,/FPGA_IOT_51A*%
X9750000Y-43800000D03*
%TO.N,/FPGA_IOT_49A*%
X10250000Y-44400000D03*
%TO.N,/FPGA_IOB_3B_G6*%
X10750000Y-44000000D03*
%TO.N,/FPGA_IOB_5B*%
X11250000Y-44400000D03*
%TO.N,/FPGA_IOB_0A*%
X11750000Y-43800000D03*
%TO.N,/FPGA_IOB_2A*%
X12250000Y-44400000D03*
%TO.N,/FPGA_IOB_4A*%
X12750000Y-43800000D03*
%TD*%
%TO.N,+3.3V*%
D14*
X13900000Y-33125000D02*
X13000000Y-32225000D01*
D15*
X14350000Y-26050000D02*
X14350000Y-30700000D01*
D14*
X13000000Y-32225000D02*
X13000000Y-32200000D01*
X14200000Y-32825000D02*
X13825000Y-33200000D01*
X5125000Y-24325000D02*
X2300000Y-21500000D01*
X2300000Y-21500000D02*
X1775000Y-21500000D01*
D15*
X14200000Y-25900000D02*
X14350000Y-26050000D01*
%TO.N,GND*%
D16*
X6375000Y-43000000D02*
X5800000Y-43000000D01*
X9000000Y-42105000D02*
X9000000Y-41817000D01*
X10650000Y-31850000D02*
X10750000Y-31750000D01*
X9800000Y-17070000D02*
X10199999Y-17070000D01*
X13760000Y-18250000D02*
X14300000Y-18250000D01*
X10800000Y-13680000D02*
X10600000Y-13880000D01*
X10440000Y-14430000D02*
X10600000Y-14270000D01*
X12200000Y-14430000D02*
X12200000Y-13680000D01*
X10200000Y-14430000D02*
X10440000Y-14430000D01*
X7000000Y-42105000D02*
X7000000Y-41605000D01*
X10199999Y-17070000D02*
X10199999Y-17770000D01*
X10750000Y-31750000D02*
X11350000Y-31750000D01*
X8808000Y-41625000D02*
X7200000Y-41625000D01*
X7200000Y-41625000D02*
X6875000Y-41950000D01*
X10600000Y-14270000D02*
X10600000Y-13880000D01*
X13760000Y-18250000D02*
X13400000Y-17890000D01*
X6875000Y-42500000D02*
X6375000Y-43000000D01*
X6875000Y-41950000D02*
X6875000Y-42500000D01*
X11800000Y-14430000D02*
X11800000Y-13680000D01*
X10800000Y-13680000D02*
X14800000Y-13680000D01*
X13400000Y-17070000D02*
X13400000Y-17890000D01*
X8808000Y-41625000D02*
X9000000Y-41817000D01*
%TO.N,/FPGA_CDONE*%
X19000000Y-27350000D02*
X19000000Y-36000000D01*
X12200000Y-20550000D02*
X19000000Y-27350000D01*
%TO.N,/ESP_EN*%
X11225000Y-12500000D02*
X14400000Y-12500000D01*
X9800000Y-14430000D02*
X9800000Y-13925000D01*
X9800000Y-13925000D02*
X11225000Y-12500000D01*
%TO.N,/ESP_GPIO0_BOOT*%
X11000000Y-11100000D02*
X11000000Y-12250000D01*
X9400000Y-13850000D02*
X9400000Y-14430000D01*
X11000000Y-12250000D02*
X9400000Y-13850000D01*
%TO.N,VIN_5V*%
D17*
X16025000Y-14775000D02*
X16025000Y-18675000D01*
X16025000Y-14775000D02*
X15625000Y-14375000D01*
X13400000Y-14430000D02*
X13455000Y-14375000D01*
X14425000Y-14375000D02*
X15625000Y-14375000D01*
X12600000Y-14430000D02*
X13800000Y-14430000D01*
X13455000Y-14375000D02*
X14425000Y-14375000D01*
%TO.N,/ESP_GPIO1*%
D16*
X10600000Y-10450000D02*
X10600000Y-12250000D01*
X10600000Y-12250000D02*
X9000000Y-13850000D01*
X9000000Y-13850000D02*
X9000000Y-14430000D01*
%TO.N,/ESP_GPIO2*%
X10200000Y-12250000D02*
X8600000Y-13850000D01*
X8600000Y-13850000D02*
X8600000Y-14430000D01*
X10200000Y-11100000D02*
X10200000Y-12250000D01*
%TO.N,/ESP_GPIO3*%
X8200000Y-13850000D02*
X8200000Y-14430000D01*
X9800000Y-12250000D02*
X8200000Y-13850000D01*
X9800000Y-10450000D02*
X9800000Y-12250000D01*
%TO.N,/ESP_GPIO4*%
X9400000Y-12250000D02*
X7800000Y-13850000D01*
X9400000Y-11100000D02*
X9400000Y-12250000D01*
X7800000Y-13850000D02*
X7800000Y-14430000D01*
%TO.N,/ESP_GPIO5*%
X7400000Y-13850000D02*
X7400000Y-14430000D01*
X9000000Y-10450000D02*
X9000000Y-12250000D01*
X9000000Y-12250000D02*
X7400000Y-13850000D01*
%TO.N,/ESP_GPIO6*%
X8600000Y-12250000D02*
X7000000Y-13850000D01*
X7000000Y-13850000D02*
X7000000Y-14430000D01*
X8600000Y-11100000D02*
X8600000Y-12250000D01*
%TO.N,/ESP_GPIO7*%
X8200000Y-10450000D02*
X8200000Y-12250000D01*
X6600000Y-13850000D02*
X6600000Y-14430000D01*
X8200000Y-12250000D02*
X6600000Y-13850000D01*
%TO.N,/ESP_GPIO8*%
X6200000Y-12700000D02*
X7800000Y-11100000D01*
X6200000Y-14430000D02*
X6200000Y-12700000D01*
%TO.N,/LINK_MOSI*%
X10750000Y-33850000D02*
X10750000Y-34500000D01*
X1400000Y-24825000D02*
X10425000Y-33850000D01*
X2800000Y-19000000D02*
X1400000Y-20400000D01*
X10425000Y-33850000D02*
X10750000Y-33850000D01*
X1400000Y-20400000D02*
X1400000Y-24825000D01*
%TO.N,/LINK_IO2*%
X10500000Y-32199999D02*
X12750000Y-34449999D01*
X12750000Y-34449999D02*
X12750000Y-34500000D01*
X4025000Y-22625000D02*
X5675000Y-24275000D01*
X4025000Y-13975000D02*
X4025000Y-22625000D01*
X4300000Y-13700000D02*
X4025000Y-13975000D01*
%TO.N,/ESP_GPIO15*%
X8200000Y-17070000D02*
X8200000Y-19550000D01*
X8200000Y-19550000D02*
X8425000Y-19775000D01*
%TO.N,/ESP_GPIO16*%
X7150000Y-22500000D02*
X7550000Y-22100000D01*
X7550000Y-17220000D02*
X7400000Y-17070000D01*
X7550000Y-22100000D02*
X7550000Y-17220000D01*
%TO.N,/ESP_GPIO17*%
X7800000Y-21000000D02*
X8800000Y-22000000D01*
X7800000Y-17070000D02*
X7800000Y-21000000D01*
%TO.N,/ESP_GPIO18*%
X7000000Y-18750000D02*
X7000000Y-17070000D01*
X6425000Y-20525000D02*
X6800000Y-20150000D01*
X6425000Y-22800000D02*
X6425000Y-20525000D01*
X6800000Y-18950000D02*
X7000000Y-18750000D01*
X6800000Y-20150000D02*
X6800000Y-18950000D01*
X6725000Y-23100000D02*
X6425000Y-22800000D01*
%TO.N,/USB_D-*%
D15*
X6400000Y-15300000D02*
X10850000Y-15300000D01*
X4950000Y-16500000D02*
X4950000Y-16150000D01*
X5400000Y-15700000D02*
X6000000Y-15700000D01*
X11000000Y-15150000D02*
X11000000Y-14430000D01*
X6000000Y-15700000D02*
X6400000Y-15300000D01*
X10850000Y-15300000D02*
X11000000Y-15150000D01*
X5300000Y-16850000D02*
X4950000Y-16500000D01*
X4950000Y-16150000D02*
X5400000Y-15700000D01*
%TO.N,/USB_D+*%
X5925000Y-16400000D02*
X6525000Y-15800000D01*
X5925000Y-17025000D02*
X5925000Y-16400000D01*
X11400000Y-15250000D02*
X11400000Y-14430000D01*
X10850000Y-15800000D02*
X11400000Y-15250000D01*
X6525000Y-15800000D02*
X10850000Y-15800000D01*
X5650000Y-17300000D02*
X5925000Y-17025000D01*
%TO.N,/ESP_GPIO21*%
D16*
X5675000Y-18375000D02*
X6200000Y-17850000D01*
X6200000Y-17850000D02*
X6200000Y-17070000D01*
%TO.N,/ESP_GPIO33*%
X10600000Y-17070000D02*
X10600000Y-19800000D01*
%TO.N,/ESP_GPIO34*%
X9400000Y-17725000D02*
X9800000Y-18125000D01*
X9800000Y-18125000D02*
X9800000Y-20400000D01*
X9400000Y-17070000D02*
X9400000Y-17725000D01*
%TO.N,/ESP_GPIO35*%
X11000000Y-19900000D02*
X11400000Y-20300000D01*
X11000000Y-17070000D02*
X11000000Y-19900000D01*
%TO.N,/ESP_GPIO38*%
X6600000Y-17070000D02*
X6600000Y-18500000D01*
X6200000Y-18900000D02*
X5500000Y-18900000D01*
X6200000Y-18900000D02*
X6600000Y-18500000D01*
%TO.N,/ESP_GPIO39*%
X13400000Y-18625000D02*
X14675000Y-18625000D01*
X13000000Y-18225000D02*
X13400000Y-18625000D01*
X14675000Y-18625000D02*
X15100000Y-18200000D01*
X13000000Y-17070000D02*
X13000000Y-18225000D01*
%TO.N,/ESP_GPIO40*%
X14092000Y-17800000D02*
X13800000Y-17508000D01*
X14092000Y-17800000D02*
X14700000Y-17800000D01*
X13800000Y-17070000D02*
X13800000Y-17508000D01*
%TO.N,/ESP_GPIO41*%
X12978000Y-16125000D02*
X12600000Y-16503000D01*
X12978000Y-16125000D02*
X14475000Y-16125000D01*
X15100000Y-16750000D02*
X15100000Y-16900000D01*
X14475000Y-16125000D02*
X15100000Y-16750000D01*
X12600000Y-17070000D02*
X12600000Y-16503000D01*
%TO.N,/ESP_GPIO42*%
X14300000Y-16650000D02*
X14300000Y-16500000D01*
X15075000Y-18825000D02*
X15475000Y-18425000D01*
X15475000Y-17825000D02*
X14300000Y-16650000D01*
X12600000Y-18825000D02*
X15075000Y-18825000D01*
X15475000Y-18425000D02*
X15475000Y-17825000D01*
X12600000Y-18825000D02*
X12200000Y-18425000D01*
X12200000Y-17070000D02*
X12200000Y-18425000D01*
%TO.N,/ESP_GPIO43_TXD*%
X11800000Y-15725000D02*
X12200000Y-15325000D01*
X12200000Y-15325000D02*
X14790000Y-15325000D01*
X15100000Y-15635000D02*
X15100000Y-16100000D01*
X14790000Y-15325000D02*
X15100000Y-15635000D01*
X11800000Y-17070000D02*
X11800000Y-15725000D01*
%TO.N,/ESP_GPIO44_RXD*%
X11799999Y-19400000D02*
X13200000Y-19400000D01*
X11399999Y-19000000D02*
X11799999Y-19400000D01*
X11399999Y-17070000D02*
X11399999Y-19000000D01*
%TO.N,/ESP_GPIO45*%
X8600000Y-19400000D02*
X9000000Y-19800000D01*
X8600000Y-17070000D02*
X8600000Y-19400000D01*
%TO.N,/ESP_GPIO46*%
X8700000Y-20300000D02*
X9105000Y-20300000D01*
X9000000Y-17625000D02*
X9000000Y-17070000D01*
X9375000Y-20030000D02*
X9105000Y-20300000D01*
X9375000Y-18000000D02*
X9000000Y-17625000D01*
X9375000Y-20030000D02*
X9375000Y-18000000D01*
%TO.N,/FPGA_IOB_6A*%
X14675000Y-41625000D02*
X14800000Y-41750000D01*
X13800000Y-42105000D02*
X13800000Y-41817000D01*
X13992000Y-41625000D02*
X14675000Y-41625000D01*
X13800000Y-41817000D02*
X13992000Y-41625000D01*
%TO.N,/FPGA_IOB_9B*%
X14525000Y-42600000D02*
X15400000Y-41725000D01*
X13198000Y-42600000D02*
X13000000Y-42402000D01*
X13198000Y-42600000D02*
X14525000Y-42600000D01*
X13000000Y-42105000D02*
X13000000Y-42402000D01*
X15400000Y-41725000D02*
X15400000Y-41550000D01*
%TO.N,/FPGA_IOB_8A*%
X13400000Y-42105000D02*
X13400000Y-41150000D01*
X13800000Y-40750000D02*
X14700000Y-40750000D01*
X13800000Y-40750000D02*
X13400000Y-41150000D01*
%TO.N,/FPGA_IOB_13B*%
X12191999Y-40375000D02*
X14925000Y-40375000D01*
X11799999Y-39395000D02*
X11799999Y-39983000D01*
X14925000Y-40375000D02*
X15300000Y-40750000D01*
X12191999Y-40375000D02*
X11799999Y-39983000D01*
%TO.N,/FPGA_IOB_16A*%
X14475000Y-37375000D02*
X15000000Y-37900000D01*
X12999999Y-37375000D02*
X14475000Y-37375000D01*
X15000000Y-37900000D02*
X15000000Y-38250000D01*
X12599999Y-39395000D02*
X12599999Y-37775000D01*
X12999999Y-37375000D02*
X12599999Y-37775000D01*
%TO.N,/FPGA_IOB_18A*%
X13400000Y-38650000D02*
X14300000Y-37750000D01*
X13400000Y-39395000D02*
X13400000Y-38650000D01*
%TO.N,/FPGA_IOB_20A*%
X11399999Y-36775000D02*
X11799999Y-36375000D01*
X11399999Y-39395000D02*
X11399999Y-36775000D01*
X11799999Y-36375000D02*
X14650000Y-36375000D01*
X15000000Y-36725000D02*
X15000000Y-37250000D01*
X15000000Y-36725000D02*
X14650000Y-36375000D01*
%TO.N,/FPGA_IOB_22A*%
X12599999Y-36750000D02*
X14300000Y-36750000D01*
X12199999Y-39395000D02*
X12199999Y-37150000D01*
X12599999Y-36750000D02*
X12199999Y-37150000D01*
%TO.N,/FPGA_IOB_29B*%
X9750000Y-39345000D02*
X9750000Y-34500000D01*
X9800000Y-39395000D02*
X9750000Y-39345000D01*
%TO.N,/FPGA_IOB_25B_G3*%
X9400000Y-39395000D02*
X9400000Y-35350000D01*
X9400000Y-35350000D02*
X9250000Y-35200000D01*
%TO.N,/FPGA_IOB_23B*%
X4400000Y-40625000D02*
X4000000Y-40225000D01*
X4000000Y-35975000D02*
X4000000Y-40225000D01*
X10199999Y-40225000D02*
X10199999Y-39395000D01*
X8750000Y-34500000D02*
X8750000Y-35375000D01*
X8750000Y-35375000D02*
X8550000Y-35575000D01*
X8550000Y-35575000D02*
X4400000Y-35575000D01*
X4400000Y-40625000D02*
X9799999Y-40625000D01*
X10199999Y-40225000D02*
X9799999Y-40625000D01*
X4400000Y-35575000D02*
X4000000Y-35975000D01*
%TO.N,/FPGA_IOT_37A*%
X3800000Y-35475000D02*
X3800000Y-40425000D01*
X10199999Y-40825000D02*
X10599999Y-40425000D01*
X4200000Y-40825000D02*
X3800000Y-40425000D01*
X4775000Y-34500000D02*
X3800000Y-35475000D01*
X7750000Y-34500000D02*
X4775000Y-34500000D01*
X4200000Y-40825000D02*
X10199999Y-40825000D01*
X10599999Y-40425000D02*
X10599999Y-39395000D01*
%TO.N,/FPGA_IOT_36B*%
X5000000Y-36750000D02*
X5075000Y-36675000D01*
X5075000Y-36675000D02*
X8400000Y-36675000D01*
X8400000Y-36675000D02*
X8600000Y-36875000D01*
X8600000Y-36875000D02*
X8600000Y-39395000D01*
%TO.N,/FPGA_IOT_39A*%
X7400000Y-37250000D02*
X7800000Y-37650000D01*
X7800000Y-39395000D02*
X7800000Y-37650000D01*
X7400000Y-37250000D02*
X5700000Y-37250000D01*
%TO.N,/FPGA_IOT_38B*%
X7800000Y-36875000D02*
X8200000Y-37275000D01*
X5525000Y-36875000D02*
X7800000Y-36875000D01*
X4900000Y-37500000D02*
X5525000Y-36875000D01*
X4900000Y-37750000D02*
X4900000Y-37500000D01*
X8200000Y-37275000D02*
X8200000Y-39395000D01*
%TO.N,/FPGA_IOT_41A*%
X7400000Y-39395000D02*
X7400000Y-38650000D01*
X7000000Y-38250000D02*
X5200000Y-38250000D01*
X7000000Y-38250000D02*
X7400000Y-38650000D01*
%TO.N,/FPGA_IOT_42B*%
X6600000Y-39395000D02*
X6600000Y-39098000D01*
X6402000Y-38900000D02*
X6600000Y-39098000D01*
X6402000Y-38900000D02*
X5475000Y-38900000D01*
X5475000Y-38900000D02*
X5000000Y-39375000D01*
X5000000Y-39375000D02*
X5000000Y-39750000D01*
%TO.N,/FPGA_IOT_43A*%
X6200000Y-39750000D02*
X5700000Y-40250000D01*
X6200000Y-39395000D02*
X6200000Y-39750000D01*
%TO.N,/FPGA_IOT_44B*%
X10657999Y-41250000D02*
X10999999Y-41592000D01*
X10657999Y-41250000D02*
X5000000Y-41250000D01*
X10999999Y-42105000D02*
X10999999Y-41592000D01*
%TO.N,/FPGA_IOT_46B_G0*%
X6600000Y-41817000D02*
X6600000Y-42105000D01*
X6600000Y-41817000D02*
X6408000Y-41625000D01*
X4825000Y-41625000D02*
X6408000Y-41625000D01*
X4700000Y-41750000D02*
X4825000Y-41625000D01*
%TO.N,/FPGA_IOT_48B*%
X5200000Y-42325000D02*
X5200000Y-42150000D01*
X6002000Y-42600000D02*
X6200000Y-42402000D01*
X6002000Y-42600000D02*
X5475000Y-42600000D01*
X6200000Y-42105000D02*
X6200000Y-42402000D01*
X5475000Y-42600000D02*
X5200000Y-42325000D01*
%TO.N,/FPGA_IOT_45A_G1*%
X7300000Y-44350000D02*
X7300000Y-42205000D01*
X7300000Y-42205000D02*
X7400000Y-42105000D01*
X7250000Y-44400000D02*
X7300000Y-44350000D01*
%TO.N,/FPGA_IOT_50B*%
X7750000Y-42155000D02*
X7750000Y-43800000D01*
X7800000Y-42105000D02*
X7750000Y-42155000D01*
%TO.N,/FPGA_RGB0*%
X8150000Y-42155000D02*
X8150000Y-44800000D01*
X8200000Y-42105000D02*
X8150000Y-42155000D01*
%TO.N,/FPGA_RGB1*%
X8600000Y-42105000D02*
X8600000Y-44650000D01*
X8600000Y-44650000D02*
X8750000Y-44800000D01*
%TO.N,/FPGA_RGB2*%
X9300000Y-42205000D02*
X9400000Y-42105000D01*
X9250000Y-44400000D02*
X9300000Y-44350000D01*
X9300000Y-44350000D02*
X9300000Y-42205000D01*
%TO.N,/FPGA_IOT_51A*%
X9750000Y-42155000D02*
X9750000Y-43800000D01*
X9800000Y-42105000D02*
X9750000Y-42155000D01*
%TO.N,/FPGA_IOT_49A*%
X10199999Y-42105000D02*
X10250000Y-42155001D01*
X10250000Y-42155001D02*
X10250000Y-44400000D01*
%TO.N,/FPGA_IOB_3B_G6*%
X10599999Y-43849999D02*
X10750000Y-44000000D01*
X10599999Y-42105000D02*
X10599999Y-43849999D01*
%TO.N,/FPGA_IOB_5B*%
X11300000Y-44350000D02*
X11300000Y-42204999D01*
X11250000Y-44400000D02*
X11300000Y-44350000D01*
X11300000Y-42204999D02*
X11399999Y-42105000D01*
%TO.N,/FPGA_IOB_0A*%
X11799999Y-42105000D02*
X11750000Y-42154999D01*
X11750000Y-42154999D02*
X11750000Y-43800000D01*
%TO.N,/FPGA_IOB_2A*%
X12199999Y-42105000D02*
X12250000Y-42155001D01*
X12250000Y-42155001D02*
X12250000Y-44400000D01*
%TO.N,/FPGA_IOB_4A*%
X12599999Y-43649999D02*
X12750000Y-43800000D01*
X12599999Y-42105000D02*
X12599999Y-43649999D01*
%TD*%
%TA.AperFunction,Conductor*%
%TO.N,GND*%
G36*
X10610011Y-41414852D02*
G01*
X10791384Y-41596225D01*
X10805736Y-41630873D01*
X10791384Y-41665521D01*
X10756736Y-41679873D01*
X10747177Y-41678931D01*
X10724900Y-41674500D01*
X10475104Y-41674500D01*
X10475103Y-41674500D01*
X10475101Y-41674501D01*
X10460443Y-41677416D01*
X10445784Y-41680331D01*
X10427221Y-41692735D01*
X10390438Y-41700050D01*
X10372777Y-41692734D01*
X10354215Y-41680331D01*
X10354211Y-41680330D01*
X10324900Y-41674500D01*
X10075104Y-41674500D01*
X10075103Y-41674500D01*
X10075101Y-41674501D01*
X10060443Y-41677416D01*
X10045784Y-41680331D01*
X10027221Y-41692735D01*
X9990438Y-41700050D01*
X9972776Y-41692734D01*
X9954212Y-41680330D01*
X9924901Y-41674500D01*
X9675105Y-41674500D01*
X9675104Y-41674500D01*
X9675102Y-41674501D01*
X9660444Y-41677416D01*
X9645785Y-41680331D01*
X9627222Y-41692735D01*
X9590439Y-41700050D01*
X9572778Y-41692734D01*
X9554216Y-41680331D01*
X9554212Y-41680330D01*
X9524901Y-41674500D01*
X9275105Y-41674500D01*
X9275104Y-41674500D01*
X9275102Y-41674501D01*
X9245787Y-41680331D01*
X9245786Y-41680331D01*
X9245784Y-41680332D01*
X9245783Y-41680332D01*
X9226770Y-41693036D01*
X9189987Y-41700351D01*
X9172327Y-41693035D01*
X9154019Y-41680802D01*
X9124846Y-41675000D01*
X9050000Y-41675000D01*
X9050000Y-42534999D01*
X9100500Y-42534999D01*
X9135148Y-42549351D01*
X9149500Y-42583999D01*
X9149500Y-44053878D01*
X9135148Y-44088526D01*
X9125000Y-44096313D01*
X9050137Y-44139535D01*
X9050137Y-44139536D01*
X8989536Y-44200137D01*
X8989535Y-44200137D01*
X8946682Y-44274359D01*
X8946681Y-44274363D01*
X8924500Y-44357143D01*
X8924500Y-44445916D01*
X8910148Y-44480564D01*
X8875500Y-44494916D01*
X8862818Y-44493246D01*
X8789751Y-44473668D01*
X8789999Y-44472739D01*
X8760627Y-44455783D01*
X8750500Y-44425952D01*
X8750500Y-42558341D01*
X8764852Y-42523693D01*
X8772270Y-42517604D01*
X8772282Y-42517596D01*
X8773220Y-42516968D01*
X8810001Y-42509646D01*
X8827673Y-42516964D01*
X8845981Y-42529197D01*
X8875153Y-42534999D01*
X8949999Y-42534999D01*
X8950000Y-42534998D01*
X8950000Y-41675000D01*
X8875155Y-41675000D01*
X8875154Y-41675001D01*
X8845981Y-41680802D01*
X8845977Y-41680804D01*
X8827673Y-41693035D01*
X8790890Y-41700351D01*
X8773227Y-41693035D01*
X8754212Y-41680330D01*
X8724901Y-41674500D01*
X8475105Y-41674500D01*
X8475104Y-41674500D01*
X8475102Y-41674501D01*
X8460444Y-41677416D01*
X8445785Y-41680331D01*
X8427222Y-41692735D01*
X8390439Y-41700050D01*
X8372778Y-41692734D01*
X8354216Y-41680331D01*
X8354212Y-41680330D01*
X8324901Y-41674500D01*
X8075105Y-41674500D01*
X8075104Y-41674500D01*
X8075102Y-41674501D01*
X8060444Y-41677416D01*
X8045785Y-41680331D01*
X8027222Y-41692735D01*
X7990439Y-41700050D01*
X7972778Y-41692734D01*
X7954216Y-41680331D01*
X7954212Y-41680330D01*
X7924901Y-41674500D01*
X7675105Y-41674500D01*
X7675104Y-41674500D01*
X7675102Y-41674501D01*
X7660444Y-41677416D01*
X7645785Y-41680331D01*
X7627222Y-41692735D01*
X7590439Y-41700050D01*
X7572778Y-41692734D01*
X7554216Y-41680331D01*
X7554212Y-41680330D01*
X7524901Y-41674500D01*
X7275105Y-41674500D01*
X7275104Y-41674500D01*
X7275102Y-41674501D01*
X7245787Y-41680331D01*
X7245786Y-41680331D01*
X7245784Y-41680332D01*
X7245783Y-41680332D01*
X7226770Y-41693036D01*
X7189987Y-41700351D01*
X7172327Y-41693035D01*
X7154019Y-41680802D01*
X7124845Y-41675000D01*
X6875155Y-41675000D01*
X6875154Y-41675001D01*
X6845981Y-41680802D01*
X6845977Y-41680804D01*
X6827673Y-41693035D01*
X6790890Y-41700351D01*
X6773227Y-41693035D01*
X6754212Y-41680330D01*
X6724904Y-41674500D01*
X6724899Y-41674500D01*
X6690636Y-41674500D01*
X6655988Y-41660148D01*
X6493254Y-41497413D01*
X6493252Y-41497412D01*
X6486872Y-41494769D01*
X6460354Y-41468252D01*
X6460354Y-41430749D01*
X6486872Y-41404230D01*
X6505624Y-41400500D01*
X10575363Y-41400500D01*
X10610011Y-41414852D01*
G37*
%TD.AperFunction*%
%TA.AperFunction,Conductor*%
G36*
X8964917Y-35377469D02*
G01*
X8987561Y-35397329D01*
X8987581Y-35397315D01*
X8987656Y-35397413D01*
X8988598Y-35398239D01*
X8989535Y-35399862D01*
X9050138Y-35460465D01*
X9077304Y-35476149D01*
X9124359Y-35503317D01*
X9124361Y-35503317D01*
X9124362Y-35503318D01*
X9145358Y-35508944D01*
X9210249Y-35526332D01*
X9209999Y-35527264D01*
X9239363Y-35544203D01*
X9249500Y-35574047D01*
X9249500Y-38941658D01*
X9235148Y-38976306D01*
X9227710Y-38982409D01*
X9226759Y-38983044D01*
X9189974Y-38990348D01*
X9172327Y-38983035D01*
X9154019Y-38970802D01*
X9124846Y-38965000D01*
X9050000Y-38965000D01*
X9050000Y-39824999D01*
X9124845Y-39824999D01*
X9124845Y-39824998D01*
X9154018Y-39819197D01*
X9154020Y-39819196D01*
X9172324Y-39806965D01*
X9209106Y-39799647D01*
X9226771Y-39806963D01*
X9245787Y-39819669D01*
X9275101Y-39825500D01*
X9524898Y-39825499D01*
X9554213Y-39819669D01*
X9572778Y-39807264D01*
X9609558Y-39799948D01*
X9627222Y-39807265D01*
X9636843Y-39813693D01*
X9645787Y-39819669D01*
X9675101Y-39825500D01*
X9924898Y-39825499D01*
X9954213Y-39819669D01*
X9972778Y-39807264D01*
X10009558Y-39799948D01*
X10027216Y-39807261D01*
X10027679Y-39807571D01*
X10027717Y-39807596D01*
X10048556Y-39838776D01*
X10049499Y-39848341D01*
X10049499Y-40142364D01*
X10035147Y-40177012D01*
X9752011Y-40460148D01*
X9717363Y-40474500D01*
X6031110Y-40474500D01*
X5996462Y-40460148D01*
X5982110Y-40425500D01*
X5988674Y-40401001D01*
X6003318Y-40375638D01*
X6025499Y-40292856D01*
X6025500Y-40292856D01*
X6025500Y-40207145D01*
X6018070Y-40179417D01*
X6022965Y-40142234D01*
X6030748Y-40132090D01*
X6327588Y-39835251D01*
X6327588Y-39835249D01*
X6329916Y-39832922D01*
X6350025Y-39822174D01*
X6349753Y-39821516D01*
X6354207Y-39819670D01*
X6354213Y-39819669D01*
X6372778Y-39807264D01*
X6409558Y-39799948D01*
X6427222Y-39807265D01*
X6436843Y-39813693D01*
X6445787Y-39819669D01*
X6475101Y-39825500D01*
X6724898Y-39825499D01*
X6754213Y-39819669D01*
X6773228Y-39806963D01*
X6810009Y-39799647D01*
X6827673Y-39806964D01*
X6845981Y-39819197D01*
X6875153Y-39824999D01*
X6949999Y-39824999D01*
X6950000Y-39824998D01*
X6950000Y-38965000D01*
X6875155Y-38965000D01*
X6875154Y-38965001D01*
X6845981Y-38970802D01*
X6845977Y-38970804D01*
X6827673Y-38983035D01*
X6790890Y-38990351D01*
X6773227Y-38983035D01*
X6754212Y-38970330D01*
X6724904Y-38964500D01*
X6724899Y-38964500D01*
X6699635Y-38964500D01*
X6664987Y-38950148D01*
X6487254Y-38772413D01*
X6487252Y-38772412D01*
X6454848Y-38758990D01*
X6431936Y-38749500D01*
X5445064Y-38749500D01*
X5445062Y-38749500D01*
X5405950Y-38765702D01*
X5389746Y-38772413D01*
X5389745Y-38772415D01*
X4872414Y-39289745D01*
X4872411Y-39289750D01*
X4864129Y-39309747D01*
X4864128Y-39309749D01*
X4849500Y-39345062D01*
X4849500Y-39432745D01*
X4835148Y-39467393D01*
X4825001Y-39475180D01*
X4800141Y-39489533D01*
X4800134Y-39489538D01*
X4739536Y-39550137D01*
X4739535Y-39550137D01*
X4696682Y-39624359D01*
X4696681Y-39624363D01*
X4681160Y-39682289D01*
X4658330Y-39712042D01*
X4621148Y-39716937D01*
X4599182Y-39704255D01*
X4584462Y-39689535D01*
X4510240Y-39646682D01*
X4510236Y-39646681D01*
X4427456Y-39624500D01*
X4427453Y-39624500D01*
X4341747Y-39624500D01*
X4341744Y-39624500D01*
X4258963Y-39646681D01*
X4258959Y-39646682D01*
X4224000Y-39666867D01*
X4186818Y-39671762D01*
X4157065Y-39648932D01*
X4150500Y-39624432D01*
X4150500Y-37707143D01*
X4574500Y-37707143D01*
X4574500Y-37792856D01*
X4596681Y-37875636D01*
X4596682Y-37875640D01*
X4636974Y-37945426D01*
X4639535Y-37949862D01*
X4700138Y-38010465D01*
X4727304Y-38026149D01*
X4774359Y-38053317D01*
X4774361Y-38053317D01*
X4774362Y-38053318D01*
X4802088Y-38060747D01*
X4858918Y-38075975D01*
X4888671Y-38098805D01*
X4893566Y-38135987D01*
X4874500Y-38207143D01*
X4874500Y-38292856D01*
X4896681Y-38375636D01*
X4896682Y-38375640D01*
X4919322Y-38414852D01*
X4939535Y-38449862D01*
X5000138Y-38510465D01*
X5027304Y-38526149D01*
X5074359Y-38553317D01*
X5074361Y-38553317D01*
X5074362Y-38553318D01*
X5139651Y-38570812D01*
X5157143Y-38575499D01*
X5157144Y-38575500D01*
X5157147Y-38575500D01*
X5242856Y-38575500D01*
X5242856Y-38575499D01*
X5325638Y-38553318D01*
X5399862Y-38510465D01*
X5460465Y-38449862D01*
X5474819Y-38425000D01*
X5504572Y-38402170D01*
X5517254Y-38400500D01*
X6917364Y-38400500D01*
X6952012Y-38414852D01*
X7235148Y-38697987D01*
X7249500Y-38732635D01*
X7249500Y-38941658D01*
X7235148Y-38976306D01*
X7227710Y-38982409D01*
X7226759Y-38983044D01*
X7189974Y-38990348D01*
X7172327Y-38983035D01*
X7154019Y-38970802D01*
X7124846Y-38965000D01*
X7050000Y-38965000D01*
X7050000Y-39824999D01*
X7124845Y-39824999D01*
X7124845Y-39824998D01*
X7154018Y-39819197D01*
X7154020Y-39819196D01*
X7172324Y-39806965D01*
X7209106Y-39799647D01*
X7226771Y-39806963D01*
X7245787Y-39819669D01*
X7275101Y-39825500D01*
X7524898Y-39825499D01*
X7554213Y-39819669D01*
X7572778Y-39807264D01*
X7609558Y-39799948D01*
X7627222Y-39807265D01*
X7636843Y-39813693D01*
X7645787Y-39819669D01*
X7675101Y-39825500D01*
X7924898Y-39825499D01*
X7954213Y-39819669D01*
X7972778Y-39807264D01*
X8009558Y-39799948D01*
X8027222Y-39807265D01*
X8036843Y-39813693D01*
X8045787Y-39819669D01*
X8075101Y-39825500D01*
X8324898Y-39825499D01*
X8354213Y-39819669D01*
X8372778Y-39807264D01*
X8409558Y-39799948D01*
X8427222Y-39807265D01*
X8436843Y-39813693D01*
X8445787Y-39819669D01*
X8475101Y-39825500D01*
X8724898Y-39825499D01*
X8754213Y-39819669D01*
X8773228Y-39806963D01*
X8810009Y-39799647D01*
X8827673Y-39806964D01*
X8845981Y-39819197D01*
X8875153Y-39824999D01*
X8949999Y-39824999D01*
X8950000Y-39824998D01*
X8950000Y-38965000D01*
X8875155Y-38965000D01*
X8875154Y-38965001D01*
X8845981Y-38970802D01*
X8845977Y-38970804D01*
X8827673Y-38983035D01*
X8790890Y-38990351D01*
X8773220Y-38983030D01*
X8772270Y-38982395D01*
X8751440Y-38951209D01*
X8750500Y-38941658D01*
X8750500Y-36845066D01*
X8750499Y-36845062D01*
X8732905Y-36802587D01*
X8732904Y-36802585D01*
X8727588Y-36789749D01*
X8682901Y-36745062D01*
X8485254Y-36547413D01*
X8485252Y-36547412D01*
X8452848Y-36533990D01*
X8429936Y-36524500D01*
X5255123Y-36524500D01*
X5220475Y-36510148D01*
X5199862Y-36489535D01*
X5125640Y-36446682D01*
X5125636Y-36446681D01*
X5042856Y-36424500D01*
X5042853Y-36424500D01*
X4957147Y-36424500D01*
X4957144Y-36424500D01*
X4874363Y-36446681D01*
X4874359Y-36446682D01*
X4800137Y-36489535D01*
X4800137Y-36489536D01*
X4739536Y-36550137D01*
X4739535Y-36550137D01*
X4696682Y-36624359D01*
X4696681Y-36624363D01*
X4674500Y-36707143D01*
X4674500Y-36792856D01*
X4696681Y-36875636D01*
X4696682Y-36875640D01*
X4732305Y-36937339D01*
X4739535Y-36949862D01*
X4800138Y-37010465D01*
X4826180Y-37025500D01*
X4874359Y-37053317D01*
X4874361Y-37053317D01*
X4874362Y-37053318D01*
X4917020Y-37064748D01*
X4957143Y-37075499D01*
X4957144Y-37075500D01*
X4993364Y-37075500D01*
X5028012Y-37089852D01*
X5042364Y-37124500D01*
X5028012Y-37159148D01*
X4772413Y-37414745D01*
X4772413Y-37414746D01*
X4760780Y-37442831D01*
X4740011Y-37466514D01*
X4700135Y-37489537D01*
X4639536Y-37550137D01*
X4639535Y-37550137D01*
X4596682Y-37624359D01*
X4596681Y-37624363D01*
X4574500Y-37707143D01*
X4150500Y-37707143D01*
X4150500Y-36057635D01*
X4164852Y-36022987D01*
X4447987Y-35739852D01*
X4482635Y-35725500D01*
X8579934Y-35725500D01*
X8579936Y-35725500D01*
X8602848Y-35716009D01*
X8635252Y-35702588D01*
X8877588Y-35460251D01*
X8889043Y-35432593D01*
X8900500Y-35404936D01*
X8900500Y-35404935D01*
X8900894Y-35403984D01*
X8927414Y-35377467D01*
X8964917Y-35377469D01*
G37*
%TD.AperFunction*%
%TA.AperFunction,Conductor*%
G36*
X13227672Y-17711942D02*
G01*
X13260980Y-17734197D01*
X13290154Y-17739999D01*
X13509844Y-17739999D01*
X13509845Y-17739998D01*
X13539018Y-17734197D01*
X13539019Y-17734196D01*
X13572325Y-17711942D01*
X13609108Y-17704625D01*
X13626772Y-17711942D01*
X13660784Y-17734668D01*
X13660786Y-17734668D01*
X13660787Y-17734669D01*
X13690101Y-17740500D01*
X13799363Y-17740499D01*
X13834009Y-17754849D01*
X14006748Y-17927587D01*
X14022946Y-17934295D01*
X14022949Y-17934298D01*
X14022950Y-17934297D01*
X14062064Y-17950500D01*
X14382746Y-17950500D01*
X14417394Y-17964852D01*
X14425181Y-17975000D01*
X14439535Y-17999862D01*
X14500138Y-18060465D01*
X14506696Y-18064251D01*
X14574359Y-18103317D01*
X14574361Y-18103317D01*
X14574362Y-18103318D01*
X14639651Y-18120812D01*
X14657143Y-18125499D01*
X14657144Y-18125500D01*
X14725500Y-18125500D01*
X14760148Y-18139852D01*
X14774500Y-18174500D01*
X14774500Y-18242853D01*
X14781929Y-18270584D01*
X14777032Y-18307766D01*
X14769246Y-18317912D01*
X14627012Y-18460148D01*
X14592364Y-18474500D01*
X13482635Y-18474500D01*
X13447987Y-18460148D01*
X13164852Y-18177012D01*
X13150500Y-18142364D01*
X13150500Y-17753319D01*
X13164852Y-17718671D01*
X13172270Y-17712582D01*
X13173220Y-17711947D01*
X13210001Y-17704624D01*
X13227672Y-17711942D01*
G37*
%TD.AperFunction*%
%TA.AperFunction,Conductor*%
G36*
X19685148Y-1764852D02*
G01*
X19699500Y-1799500D01*
X19699500Y-46100500D01*
X19685148Y-46135148D01*
X19650500Y-46149500D01*
X349500Y-46149500D01*
X314852Y-46135148D01*
X300500Y-46100500D01*
X300500Y-43557143D01*
X3749500Y-43557143D01*
X3749500Y-43642856D01*
X3771681Y-43725636D01*
X3771682Y-43725640D01*
X3814535Y-43799862D01*
X3875138Y-43860465D01*
X3902304Y-43876149D01*
X3949359Y-43903317D01*
X3949361Y-43903317D01*
X3949362Y-43903318D01*
X4014651Y-43920812D01*
X4032143Y-43925499D01*
X4032144Y-43925500D01*
X4032147Y-43925500D01*
X4117856Y-43925500D01*
X4117856Y-43925499D01*
X4200638Y-43903318D01*
X4274862Y-43860465D01*
X4335465Y-43799862D01*
X4378318Y-43725638D01*
X4400499Y-43642856D01*
X4400500Y-43642856D01*
X4400500Y-43557144D01*
X4400499Y-43557143D01*
X4391936Y-43525187D01*
X4378318Y-43474362D01*
X4378317Y-43474361D01*
X4378317Y-43474359D01*
X4335464Y-43400137D01*
X4274862Y-43339535D01*
X4200640Y-43296682D01*
X4200636Y-43296681D01*
X4117856Y-43274500D01*
X4117853Y-43274500D01*
X4032147Y-43274500D01*
X4032144Y-43274500D01*
X3949363Y-43296681D01*
X3949359Y-43296682D01*
X3875137Y-43339535D01*
X3875137Y-43339536D01*
X3814536Y-43400137D01*
X3814535Y-43400137D01*
X3771682Y-43474359D01*
X3771681Y-43474363D01*
X3749500Y-43557143D01*
X300500Y-43557143D01*
X300500Y-35007143D01*
X2449500Y-35007143D01*
X2449500Y-35092856D01*
X2471681Y-35175636D01*
X2471682Y-35175640D01*
X2510488Y-35242853D01*
X2514535Y-35249862D01*
X2575138Y-35310465D01*
X2601415Y-35325636D01*
X2649359Y-35353317D01*
X2649361Y-35353317D01*
X2649362Y-35353318D01*
X2714651Y-35370812D01*
X2732143Y-35375499D01*
X2732144Y-35375500D01*
X2732147Y-35375500D01*
X2817856Y-35375500D01*
X2817856Y-35375499D01*
X2900638Y-35353318D01*
X2974862Y-35310465D01*
X3035465Y-35249862D01*
X3078318Y-35175638D01*
X3100499Y-35092856D01*
X3100500Y-35092856D01*
X3100500Y-35007144D01*
X3100499Y-35007143D01*
X3082384Y-34939536D01*
X3078318Y-34924362D01*
X3078317Y-34924361D01*
X3078317Y-34924359D01*
X3035464Y-34850137D01*
X2974862Y-34789535D01*
X2900640Y-34746682D01*
X2900636Y-34746681D01*
X2817856Y-34724500D01*
X2817853Y-34724500D01*
X2732147Y-34724500D01*
X2732144Y-34724500D01*
X2649363Y-34746681D01*
X2649359Y-34746682D01*
X2575137Y-34789535D01*
X2575137Y-34789536D01*
X2514536Y-34850137D01*
X2514535Y-34850137D01*
X2471682Y-34924359D01*
X2471681Y-34924363D01*
X2449500Y-35007143D01*
X300500Y-35007143D01*
X300500Y-33607143D01*
X8324500Y-33607143D01*
X8324500Y-33692856D01*
X8346681Y-33775636D01*
X8346682Y-33775640D01*
X8365510Y-33808250D01*
X8389535Y-33849862D01*
X8450138Y-33910465D01*
X8477304Y-33926149D01*
X8524359Y-33953317D01*
X8524361Y-33953317D01*
X8524362Y-33953318D01*
X8589651Y-33970812D01*
X8607143Y-33975499D01*
X8607144Y-33975500D01*
X8607147Y-33975500D01*
X8692856Y-33975500D01*
X8692856Y-33975499D01*
X8775638Y-33953318D01*
X8849862Y-33910465D01*
X8910465Y-33849862D01*
X8953318Y-33775638D01*
X8975499Y-33692856D01*
X8975500Y-33692856D01*
X8975500Y-33607144D01*
X8975499Y-33607143D01*
X8953318Y-33524363D01*
X8953317Y-33524359D01*
X8916427Y-33460465D01*
X8910465Y-33450138D01*
X8849862Y-33389535D01*
X8775640Y-33346682D01*
X8775636Y-33346681D01*
X8692856Y-33324500D01*
X8692853Y-33324500D01*
X8607147Y-33324500D01*
X8607144Y-33324500D01*
X8524363Y-33346681D01*
X8524359Y-33346682D01*
X8450137Y-33389535D01*
X8450137Y-33389536D01*
X8389536Y-33450137D01*
X8389535Y-33450137D01*
X8346682Y-33524359D01*
X8346681Y-33524363D01*
X8324500Y-33607143D01*
X300500Y-33607143D01*
X300500Y-25457143D01*
X849500Y-25457143D01*
X849500Y-25542856D01*
X871681Y-25625636D01*
X871682Y-25625640D01*
X914535Y-25699862D01*
X975138Y-25760465D01*
X999210Y-25774363D01*
X1049359Y-25803317D01*
X1049361Y-25803317D01*
X1049362Y-25803318D01*
X1114651Y-25820812D01*
X1132143Y-25825499D01*
X1132144Y-25825500D01*
X1132147Y-25825500D01*
X1217856Y-25825500D01*
X1217856Y-25825499D01*
X1300638Y-25803318D01*
X1374862Y-25760465D01*
X1435465Y-25699862D01*
X1478318Y-25625638D01*
X1500499Y-25542856D01*
X1500500Y-25542856D01*
X1500500Y-25457144D01*
X1500499Y-25457143D01*
X1478318Y-25374363D01*
X1478317Y-25374359D01*
X1435464Y-25300137D01*
X1374862Y-25239535D01*
X1300640Y-25196682D01*
X1300636Y-25196681D01*
X1217856Y-25174500D01*
X1217853Y-25174500D01*
X1132147Y-25174500D01*
X1132144Y-25174500D01*
X1049363Y-25196681D01*
X1049359Y-25196682D01*
X975137Y-25239535D01*
X975137Y-25239536D01*
X914536Y-25300137D01*
X914535Y-25300137D01*
X871682Y-25374359D01*
X871681Y-25374363D01*
X849500Y-25457143D01*
X300500Y-25457143D01*
X300500Y-20370065D01*
X1249500Y-20370065D01*
X1249500Y-24854936D01*
X1258990Y-24877848D01*
X1272412Y-24910252D01*
X1272413Y-24910254D01*
X10170411Y-33808250D01*
X10184763Y-33842898D01*
X10170411Y-33877546D01*
X10148446Y-33890228D01*
X10124361Y-33896682D01*
X10124359Y-33896682D01*
X10050137Y-33939535D01*
X10050137Y-33939536D01*
X9989536Y-34000137D01*
X9989535Y-34000137D01*
X9946682Y-34074359D01*
X9946682Y-34074361D01*
X9924024Y-34158919D01*
X9901193Y-34188672D01*
X9864012Y-34193566D01*
X9792856Y-34174500D01*
X9792853Y-34174500D01*
X9707147Y-34174500D01*
X9707144Y-34174500D01*
X9624363Y-34196681D01*
X9624359Y-34196682D01*
X9550137Y-34239535D01*
X9550137Y-34239536D01*
X9489536Y-34300137D01*
X9489535Y-34300137D01*
X9446682Y-34374359D01*
X9446681Y-34374363D01*
X9424500Y-34457143D01*
X9424500Y-34542856D01*
X9446681Y-34625636D01*
X9446682Y-34625640D01*
X9469322Y-34664852D01*
X9489535Y-34699862D01*
X9550138Y-34760465D01*
X9575000Y-34774819D01*
X9597830Y-34804570D01*
X9599500Y-34817253D01*
X9599500Y-34971822D01*
X9585148Y-35006470D01*
X9550500Y-35020822D01*
X9515852Y-35006470D01*
X9511625Y-35001651D01*
X9510467Y-35000142D01*
X9510465Y-35000138D01*
X9449862Y-34939535D01*
X9375640Y-34896682D01*
X9375636Y-34896681D01*
X9292856Y-34874500D01*
X9292853Y-34874500D01*
X9207147Y-34874500D01*
X9207144Y-34874500D01*
X9124363Y-34896681D01*
X9124359Y-34896682D01*
X9050137Y-34939535D01*
X9050137Y-34939536D01*
X8989538Y-35000134D01*
X8988375Y-35001651D01*
X8987539Y-35002133D01*
X8987264Y-35002409D01*
X8987190Y-35002335D01*
X8955897Y-35020403D01*
X8919671Y-35010697D01*
X8900919Y-34978219D01*
X8900500Y-34971822D01*
X8900500Y-34817253D01*
X8914852Y-34782605D01*
X8924993Y-34774822D01*
X8949862Y-34760465D01*
X9010465Y-34699862D01*
X9053318Y-34625638D01*
X9075499Y-34542856D01*
X9075500Y-34542856D01*
X9075500Y-34457144D01*
X9075499Y-34457143D01*
X9053318Y-34374363D01*
X9053317Y-34374359D01*
X9010464Y-34300137D01*
X8949862Y-34239535D01*
X8875640Y-34196682D01*
X8875636Y-34196681D01*
X8792856Y-34174500D01*
X8792853Y-34174500D01*
X8707147Y-34174500D01*
X8707144Y-34174500D01*
X8624363Y-34196681D01*
X8624359Y-34196682D01*
X8550137Y-34239535D01*
X8550137Y-34239536D01*
X8489536Y-34300137D01*
X8489535Y-34300137D01*
X8446682Y-34374359D01*
X8446681Y-34374363D01*
X8424500Y-34457143D01*
X8424500Y-34542856D01*
X8446681Y-34625636D01*
X8446682Y-34625640D01*
X8469322Y-34664852D01*
X8489535Y-34699862D01*
X8550138Y-34760465D01*
X8575000Y-34774819D01*
X8597830Y-34804570D01*
X8599500Y-34817253D01*
X8599500Y-34971822D01*
X8585148Y-35006470D01*
X8550500Y-35020822D01*
X8515852Y-35006470D01*
X8511625Y-35001651D01*
X8510467Y-35000142D01*
X8510465Y-35000138D01*
X8449862Y-34939535D01*
X8375640Y-34896682D01*
X8375636Y-34896681D01*
X8292856Y-34874500D01*
X8292853Y-34874500D01*
X8207147Y-34874500D01*
X8207144Y-34874500D01*
X8124363Y-34896681D01*
X8124359Y-34896682D01*
X8050137Y-34939535D01*
X8050137Y-34939536D01*
X7989536Y-35000137D01*
X7989535Y-35000137D01*
X7946682Y-35074359D01*
X7946681Y-35074363D01*
X7924500Y-35157143D01*
X7924500Y-35242856D01*
X7946681Y-35325636D01*
X7946682Y-35325638D01*
X7961325Y-35351001D01*
X7966221Y-35388181D01*
X7943391Y-35417935D01*
X7918890Y-35424500D01*
X4370062Y-35424500D01*
X4331534Y-35440460D01*
X4314746Y-35447413D01*
X4314745Y-35447415D01*
X4034148Y-35728012D01*
X3999500Y-35742364D01*
X3964852Y-35728012D01*
X3950500Y-35693364D01*
X3950500Y-35557635D01*
X3964852Y-35522987D01*
X4822987Y-34664852D01*
X4857635Y-34650500D01*
X7432746Y-34650500D01*
X7467394Y-34664852D01*
X7475181Y-34675000D01*
X7489535Y-34699862D01*
X7550138Y-34760465D01*
X7574997Y-34774817D01*
X7624359Y-34803317D01*
X7624361Y-34803317D01*
X7624362Y-34803318D01*
X7629035Y-34804570D01*
X7707143Y-34825499D01*
X7707144Y-34825500D01*
X7707147Y-34825500D01*
X7792856Y-34825500D01*
X7792856Y-34825499D01*
X7875638Y-34803318D01*
X7949862Y-34760465D01*
X8010465Y-34699862D01*
X8053318Y-34625638D01*
X8075499Y-34542856D01*
X8075500Y-34542856D01*
X8075500Y-34457144D01*
X8075499Y-34457143D01*
X8053318Y-34374363D01*
X8053317Y-34374359D01*
X8010464Y-34300137D01*
X7949862Y-34239535D01*
X7875640Y-34196682D01*
X7875636Y-34196681D01*
X7792856Y-34174500D01*
X7792853Y-34174500D01*
X7707147Y-34174500D01*
X7707144Y-34174500D01*
X7624363Y-34196681D01*
X7624359Y-34196682D01*
X7550137Y-34239535D01*
X7550137Y-34239536D01*
X7489536Y-34300137D01*
X7489535Y-34300137D01*
X7475181Y-34325000D01*
X7445428Y-34347830D01*
X7432746Y-34349500D01*
X4745062Y-34349500D01*
X4708253Y-34364748D01*
X4689746Y-34372413D01*
X4689744Y-34372415D01*
X3672413Y-35389745D01*
X3672413Y-35389746D01*
X3658990Y-35422149D01*
X3658990Y-35422151D01*
X3651407Y-35440460D01*
X3649500Y-35445065D01*
X3649500Y-40454937D01*
X3657603Y-40474497D01*
X3657603Y-40474500D01*
X3672411Y-40510252D01*
X3672412Y-40510253D01*
X4037797Y-40875636D01*
X4114748Y-40952587D01*
X4130946Y-40959295D01*
X4130949Y-40959298D01*
X4130950Y-40959297D01*
X4170064Y-40975500D01*
X4697757Y-40975500D01*
X4732405Y-40989852D01*
X4746757Y-41024500D01*
X4740192Y-41049000D01*
X4696682Y-41124359D01*
X4696681Y-41124363D01*
X4674500Y-41207143D01*
X4674500Y-41292856D01*
X4693566Y-41364012D01*
X4688671Y-41401194D01*
X4658919Y-41424024D01*
X4574361Y-41446682D01*
X4574359Y-41446682D01*
X4500137Y-41489535D01*
X4500137Y-41489536D01*
X4439536Y-41550137D01*
X4439535Y-41550137D01*
X4396682Y-41624359D01*
X4396681Y-41624363D01*
X4374500Y-41707143D01*
X4374500Y-41792856D01*
X4396681Y-41875636D01*
X4396682Y-41875640D01*
X4433364Y-41939173D01*
X4439535Y-41949862D01*
X4500138Y-42010465D01*
X4527304Y-42026149D01*
X4574359Y-42053317D01*
X4574361Y-42053317D01*
X4574362Y-42053318D01*
X4637878Y-42070337D01*
X4657143Y-42075499D01*
X4657144Y-42075500D01*
X4657147Y-42075500D01*
X4742855Y-42075500D01*
X4785192Y-42064155D01*
X4812817Y-42056753D01*
X4850000Y-42061648D01*
X4872830Y-42091400D01*
X4874500Y-42104083D01*
X4874500Y-42192856D01*
X4896681Y-42275636D01*
X4896682Y-42275640D01*
X4939535Y-42349862D01*
X5000138Y-42410465D01*
X5074362Y-42453318D01*
X5117849Y-42464970D01*
X5139808Y-42477648D01*
X5389749Y-42727588D01*
X5417406Y-42739043D01*
X5445064Y-42750500D01*
X5445065Y-42750500D01*
X6031934Y-42750500D01*
X6031936Y-42750500D01*
X6054848Y-42741009D01*
X6087252Y-42727588D01*
X6264988Y-42549850D01*
X6299636Y-42535499D01*
X6324895Y-42535499D01*
X6324898Y-42535499D01*
X6354213Y-42529669D01*
X6372778Y-42517264D01*
X6409558Y-42509948D01*
X6427222Y-42517265D01*
X6427755Y-42517621D01*
X6445787Y-42529669D01*
X6475101Y-42535500D01*
X6724898Y-42535499D01*
X6754213Y-42529669D01*
X6773228Y-42516963D01*
X6810009Y-42509647D01*
X6827673Y-42516964D01*
X6845981Y-42529197D01*
X6875154Y-42534999D01*
X7100500Y-42534999D01*
X7135148Y-42549351D01*
X7149500Y-42583999D01*
X7149500Y-44053878D01*
X7135148Y-44088526D01*
X7125000Y-44096313D01*
X7050137Y-44139535D01*
X7050137Y-44139536D01*
X6989536Y-44200137D01*
X6989535Y-44200137D01*
X6946682Y-44274359D01*
X6946681Y-44274363D01*
X6924500Y-44357143D01*
X6924500Y-44442856D01*
X6946681Y-44525636D01*
X6946682Y-44525640D01*
X6974813Y-44574363D01*
X6989535Y-44599862D01*
X7050138Y-44660465D01*
X7074210Y-44674363D01*
X7124359Y-44703317D01*
X7124361Y-44703317D01*
X7124362Y-44703318D01*
X7137182Y-44706753D01*
X7207143Y-44725499D01*
X7207144Y-44725500D01*
X7207147Y-44725500D01*
X7292856Y-44725500D01*
X7292856Y-44725499D01*
X7375638Y-44703318D01*
X7449862Y-44660465D01*
X7510465Y-44599862D01*
X7553318Y-44525638D01*
X7575499Y-44442856D01*
X7575500Y-44442856D01*
X7575500Y-44357144D01*
X7575499Y-44357143D01*
X7561997Y-44306753D01*
X7553318Y-44274362D01*
X7553317Y-44274361D01*
X7553317Y-44274359D01*
X7510464Y-44200137D01*
X7464852Y-44154525D01*
X7450500Y-44119877D01*
X7450500Y-44079123D01*
X7464852Y-44044475D01*
X7499500Y-44030123D01*
X7534148Y-44044475D01*
X7550138Y-44060465D01*
X7565519Y-44069345D01*
X7624359Y-44103317D01*
X7624361Y-44103317D01*
X7624362Y-44103318D01*
X7674215Y-44116676D01*
X7707143Y-44125499D01*
X7707144Y-44125500D01*
X7707147Y-44125500D01*
X7792856Y-44125500D01*
X7792856Y-44125499D01*
X7875638Y-44103318D01*
X7926001Y-44074240D01*
X7963182Y-44069345D01*
X7992935Y-44092175D01*
X7999500Y-44116676D01*
X7999500Y-44482745D01*
X7985148Y-44517393D01*
X7975001Y-44525180D01*
X7950141Y-44539533D01*
X7950134Y-44539538D01*
X7889536Y-44600137D01*
X7889535Y-44600137D01*
X7846682Y-44674359D01*
X7846681Y-44674363D01*
X7824500Y-44757143D01*
X7824500Y-44842856D01*
X7846681Y-44925636D01*
X7846682Y-44925640D01*
X7866789Y-44960465D01*
X7889535Y-44999862D01*
X7950138Y-45060465D01*
X7977304Y-45076149D01*
X8024359Y-45103317D01*
X8024361Y-45103317D01*
X8024362Y-45103318D01*
X8089651Y-45120812D01*
X8107143Y-45125499D01*
X8107144Y-45125500D01*
X8107147Y-45125500D01*
X8192856Y-45125500D01*
X8192856Y-45125499D01*
X8275638Y-45103318D01*
X8349862Y-45060465D01*
X8410465Y-44999862D01*
X8410468Y-44999855D01*
X8411127Y-44998999D01*
X8411602Y-44998724D01*
X8412736Y-44997591D01*
X8413039Y-44997894D01*
X8443606Y-44980249D01*
X8479831Y-44989957D01*
X8488873Y-44998999D01*
X8489534Y-44999860D01*
X8489535Y-44999862D01*
X8550138Y-45060465D01*
X8577304Y-45076149D01*
X8624359Y-45103317D01*
X8624361Y-45103317D01*
X8624362Y-45103318D01*
X8689651Y-45120812D01*
X8707143Y-45125499D01*
X8707144Y-45125500D01*
X8707147Y-45125500D01*
X8792856Y-45125500D01*
X8792856Y-45125499D01*
X8875638Y-45103318D01*
X8949862Y-45060465D01*
X9010465Y-44999862D01*
X9053318Y-44925638D01*
X9075499Y-44842856D01*
X9075500Y-44842856D01*
X9075500Y-44754083D01*
X9089852Y-44719435D01*
X9124500Y-44705083D01*
X9137180Y-44706752D01*
X9164807Y-44714155D01*
X9207145Y-44725500D01*
X9207147Y-44725500D01*
X9292856Y-44725500D01*
X9292856Y-44725499D01*
X9375638Y-44703318D01*
X9449862Y-44660465D01*
X9510465Y-44599862D01*
X9553318Y-44525638D01*
X9575499Y-44442856D01*
X9575500Y-44442856D01*
X9575500Y-44357144D01*
X9575499Y-44357143D01*
X9561997Y-44306753D01*
X9553318Y-44274362D01*
X9553317Y-44274361D01*
X9553317Y-44274359D01*
X9510464Y-44200137D01*
X9464852Y-44154525D01*
X9450500Y-44119877D01*
X9450500Y-44079123D01*
X9464852Y-44044475D01*
X9499500Y-44030123D01*
X9534148Y-44044475D01*
X9550138Y-44060465D01*
X9565519Y-44069345D01*
X9624359Y-44103317D01*
X9624361Y-44103317D01*
X9624362Y-44103318D01*
X9674215Y-44116676D01*
X9707143Y-44125499D01*
X9707144Y-44125500D01*
X9707147Y-44125500D01*
X9792856Y-44125500D01*
X9792856Y-44125499D01*
X9875638Y-44103318D01*
X9949862Y-44060465D01*
X10010465Y-43999862D01*
X10010469Y-43999854D01*
X10011622Y-43998353D01*
X10012455Y-43997871D01*
X10012736Y-43997591D01*
X10012811Y-43997666D01*
X10044098Y-43979597D01*
X10080324Y-43989299D01*
X10099080Y-44021775D01*
X10099500Y-44028177D01*
X10099500Y-44082745D01*
X10085148Y-44117393D01*
X10075001Y-44125180D01*
X10050141Y-44139533D01*
X10050134Y-44139538D01*
X9989536Y-44200137D01*
X9989535Y-44200137D01*
X9946682Y-44274359D01*
X9946681Y-44274363D01*
X9924500Y-44357143D01*
X9924500Y-44442856D01*
X9946681Y-44525636D01*
X9946682Y-44525640D01*
X9974813Y-44574363D01*
X9989535Y-44599862D01*
X10050138Y-44660465D01*
X10074210Y-44674363D01*
X10124359Y-44703317D01*
X10124361Y-44703317D01*
X10124362Y-44703318D01*
X10137182Y-44706753D01*
X10207143Y-44725499D01*
X10207144Y-44725500D01*
X10207147Y-44725500D01*
X10292856Y-44725500D01*
X10292856Y-44725499D01*
X10375638Y-44703318D01*
X10449862Y-44660465D01*
X10510465Y-44599862D01*
X10553318Y-44525638D01*
X10575499Y-44442856D01*
X10575500Y-44442856D01*
X10575500Y-44354083D01*
X10589852Y-44319435D01*
X10624500Y-44305083D01*
X10637180Y-44306752D01*
X10664807Y-44314155D01*
X10707145Y-44325500D01*
X10707147Y-44325500D01*
X10792855Y-44325500D01*
X10835192Y-44314155D01*
X10862817Y-44306753D01*
X10900000Y-44311648D01*
X10922830Y-44341400D01*
X10924500Y-44354083D01*
X10924500Y-44442856D01*
X10946681Y-44525636D01*
X10946682Y-44525640D01*
X10974813Y-44574363D01*
X10989535Y-44599862D01*
X11050138Y-44660465D01*
X11074210Y-44674363D01*
X11124359Y-44703317D01*
X11124361Y-44703317D01*
X11124362Y-44703318D01*
X11137182Y-44706753D01*
X11207143Y-44725499D01*
X11207144Y-44725500D01*
X11207147Y-44725500D01*
X11292856Y-44725500D01*
X11292856Y-44725499D01*
X11375638Y-44703318D01*
X11449862Y-44660465D01*
X11510465Y-44599862D01*
X11553318Y-44525638D01*
X11575499Y-44442856D01*
X11575500Y-44442856D01*
X11575500Y-44357144D01*
X11575499Y-44357143D01*
X11561997Y-44306753D01*
X11553318Y-44274362D01*
X11553317Y-44274361D01*
X11553317Y-44274359D01*
X11510464Y-44200137D01*
X11464852Y-44154525D01*
X11450500Y-44119877D01*
X11450500Y-44079123D01*
X11464852Y-44044475D01*
X11499500Y-44030123D01*
X11534148Y-44044475D01*
X11550138Y-44060465D01*
X11565519Y-44069345D01*
X11624359Y-44103317D01*
X11624361Y-44103317D01*
X11624362Y-44103318D01*
X11674215Y-44116676D01*
X11707143Y-44125499D01*
X11707144Y-44125500D01*
X11707147Y-44125500D01*
X11792856Y-44125500D01*
X11792856Y-44125499D01*
X11875638Y-44103318D01*
X11949862Y-44060465D01*
X12010465Y-43999862D01*
X12010469Y-43999854D01*
X12011622Y-43998353D01*
X12012455Y-43997871D01*
X12012736Y-43997591D01*
X12012811Y-43997666D01*
X12044098Y-43979597D01*
X12080324Y-43989299D01*
X12099080Y-44021775D01*
X12099500Y-44028177D01*
X12099500Y-44082745D01*
X12085148Y-44117393D01*
X12075001Y-44125180D01*
X12050141Y-44139533D01*
X12050134Y-44139538D01*
X11989536Y-44200137D01*
X11989535Y-44200137D01*
X11946682Y-44274359D01*
X11946681Y-44274363D01*
X11924500Y-44357143D01*
X11924500Y-44442856D01*
X11946681Y-44525636D01*
X11946682Y-44525640D01*
X11974813Y-44574363D01*
X11989535Y-44599862D01*
X12050138Y-44660465D01*
X12074210Y-44674363D01*
X12124359Y-44703317D01*
X12124361Y-44703317D01*
X12124362Y-44703318D01*
X12137182Y-44706753D01*
X12207143Y-44725499D01*
X12207144Y-44725500D01*
X12207147Y-44725500D01*
X12292856Y-44725500D01*
X12292856Y-44725499D01*
X12375638Y-44703318D01*
X12449862Y-44660465D01*
X12453184Y-44657143D01*
X16624500Y-44657143D01*
X16624500Y-44742856D01*
X16646681Y-44825636D01*
X16646682Y-44825640D01*
X16689535Y-44899862D01*
X16750138Y-44960465D01*
X16777304Y-44976149D01*
X16824359Y-45003317D01*
X16824361Y-45003317D01*
X16824362Y-45003318D01*
X16889651Y-45020812D01*
X16907143Y-45025499D01*
X16907144Y-45025500D01*
X16907147Y-45025500D01*
X16992856Y-45025500D01*
X16992856Y-45025499D01*
X17075638Y-45003318D01*
X17149862Y-44960465D01*
X17210465Y-44899862D01*
X17253318Y-44825638D01*
X17271671Y-44757143D01*
X18674500Y-44757143D01*
X18674500Y-44842856D01*
X18696681Y-44925636D01*
X18696682Y-44925640D01*
X18716789Y-44960465D01*
X18739535Y-44999862D01*
X18800138Y-45060465D01*
X18827304Y-45076149D01*
X18874359Y-45103317D01*
X18874361Y-45103317D01*
X18874362Y-45103318D01*
X18939651Y-45120812D01*
X18957143Y-45125499D01*
X18957144Y-45125500D01*
X18957147Y-45125500D01*
X19042856Y-45125500D01*
X19042856Y-45125499D01*
X19125638Y-45103318D01*
X19199862Y-45060465D01*
X19260465Y-44999862D01*
X19303318Y-44925638D01*
X19325499Y-44842856D01*
X19325500Y-44842856D01*
X19325500Y-44757144D01*
X19325499Y-44757143D01*
X19311997Y-44706753D01*
X19303318Y-44674362D01*
X19303317Y-44674361D01*
X19303317Y-44674359D01*
X19260464Y-44600137D01*
X19199862Y-44539535D01*
X19125640Y-44496682D01*
X19125636Y-44496681D01*
X19042856Y-44474500D01*
X19042853Y-44474500D01*
X18957147Y-44474500D01*
X18957144Y-44474500D01*
X18874363Y-44496681D01*
X18874359Y-44496682D01*
X18800137Y-44539535D01*
X18800137Y-44539536D01*
X18739536Y-44600137D01*
X18739535Y-44600137D01*
X18696682Y-44674359D01*
X18696681Y-44674363D01*
X18674500Y-44757143D01*
X17271671Y-44757143D01*
X17275499Y-44742857D01*
X17275500Y-44742856D01*
X17275500Y-44657144D01*
X17275499Y-44657143D01*
X17270812Y-44639651D01*
X17253318Y-44574362D01*
X17253317Y-44574361D01*
X17253317Y-44574359D01*
X17226149Y-44527304D01*
X17210465Y-44500138D01*
X17149862Y-44439535D01*
X17075640Y-44396682D01*
X17075636Y-44396681D01*
X16992856Y-44374500D01*
X16992853Y-44374500D01*
X16907147Y-44374500D01*
X16907144Y-44374500D01*
X16824363Y-44396681D01*
X16824359Y-44396682D01*
X16750137Y-44439535D01*
X16750137Y-44439536D01*
X16689536Y-44500137D01*
X16689535Y-44500137D01*
X16646682Y-44574359D01*
X16646681Y-44574363D01*
X16624500Y-44657143D01*
X12453184Y-44657143D01*
X12510465Y-44599862D01*
X12553318Y-44525638D01*
X12575499Y-44442856D01*
X12575500Y-44442856D01*
X12575500Y-44357144D01*
X12575499Y-44357143D01*
X12561997Y-44306753D01*
X12553318Y-44274362D01*
X12553317Y-44274361D01*
X12553317Y-44274359D01*
X12510464Y-44200137D01*
X12449865Y-44139538D01*
X12449862Y-44139535D01*
X12424998Y-44125179D01*
X12402169Y-44095426D01*
X12400500Y-44082745D01*
X12400500Y-44028177D01*
X12414852Y-43993529D01*
X12449500Y-43979177D01*
X12484148Y-43993529D01*
X12488378Y-43998353D01*
X12489533Y-43999859D01*
X12489535Y-43999862D01*
X12550138Y-44060465D01*
X12565519Y-44069345D01*
X12624359Y-44103317D01*
X12624361Y-44103317D01*
X12624362Y-44103318D01*
X12674215Y-44116676D01*
X12707143Y-44125499D01*
X12707144Y-44125500D01*
X12707147Y-44125500D01*
X12792856Y-44125500D01*
X12792856Y-44125499D01*
X12875638Y-44103318D01*
X12949862Y-44060465D01*
X13010465Y-43999862D01*
X13053318Y-43925638D01*
X13075499Y-43842856D01*
X13075500Y-43842856D01*
X13075500Y-43807143D01*
X16424500Y-43807143D01*
X16424500Y-43892856D01*
X16446681Y-43975636D01*
X16446682Y-43975640D01*
X16485488Y-44042853D01*
X16489535Y-44049862D01*
X16550138Y-44110465D01*
X16560896Y-44116676D01*
X16624359Y-44153317D01*
X16624361Y-44153317D01*
X16624362Y-44153318D01*
X16689651Y-44170812D01*
X16707143Y-44175499D01*
X16707144Y-44175500D01*
X16707147Y-44175500D01*
X16792856Y-44175500D01*
X16792856Y-44175499D01*
X16875638Y-44153318D01*
X16949862Y-44110465D01*
X17010465Y-44049862D01*
X17053318Y-43975638D01*
X17075499Y-43892856D01*
X17075500Y-43892856D01*
X17075500Y-43807144D01*
X17075499Y-43807143D01*
X17062102Y-43757144D01*
X17053318Y-43724362D01*
X17053317Y-43724361D01*
X17053317Y-43724359D01*
X17010464Y-43650137D01*
X16949862Y-43589535D01*
X16875640Y-43546682D01*
X16875636Y-43546681D01*
X16792856Y-43524500D01*
X16792853Y-43524500D01*
X16707147Y-43524500D01*
X16707144Y-43524500D01*
X16624363Y-43546681D01*
X16624359Y-43546682D01*
X16550137Y-43589535D01*
X16550137Y-43589536D01*
X16489536Y-43650137D01*
X16489535Y-43650137D01*
X16446682Y-43724359D01*
X16446681Y-43724363D01*
X16424500Y-43807143D01*
X13075500Y-43807143D01*
X13075500Y-43757144D01*
X13075499Y-43757143D01*
X13066715Y-43724362D01*
X13053318Y-43674362D01*
X13053317Y-43674361D01*
X13053317Y-43674359D01*
X13022407Y-43620822D01*
X13010465Y-43600138D01*
X12949862Y-43539535D01*
X12926010Y-43525764D01*
X12875640Y-43496682D01*
X12875636Y-43496681D01*
X12789751Y-43473668D01*
X12789998Y-43472743D01*
X12760617Y-43455771D01*
X12750499Y-43425951D01*
X12750499Y-43057143D01*
X16189900Y-43057143D01*
X16189900Y-43142856D01*
X16212081Y-43225636D01*
X16212082Y-43225640D01*
X16240292Y-43274500D01*
X16254935Y-43299862D01*
X16315538Y-43360465D01*
X16342704Y-43376149D01*
X16389759Y-43403317D01*
X16389761Y-43403317D01*
X16389762Y-43403318D01*
X16455051Y-43420812D01*
X16472543Y-43425499D01*
X16472544Y-43425500D01*
X16472547Y-43425500D01*
X16558256Y-43425500D01*
X16558256Y-43425499D01*
X16641038Y-43403318D01*
X16715262Y-43360465D01*
X16775865Y-43299862D01*
X16818718Y-43225638D01*
X16840899Y-43142856D01*
X16840900Y-43142856D01*
X16840900Y-43057144D01*
X16840899Y-43057143D01*
X16825551Y-42999863D01*
X16818718Y-42974362D01*
X16818717Y-42974361D01*
X16818717Y-42974359D01*
X16791549Y-42927304D01*
X16775865Y-42900138D01*
X16715262Y-42839535D01*
X16641039Y-42796682D01*
X16641036Y-42796681D01*
X16558256Y-42774500D01*
X16558253Y-42774500D01*
X16472547Y-42774500D01*
X16472544Y-42774500D01*
X16389763Y-42796681D01*
X16389759Y-42796682D01*
X16315537Y-42839535D01*
X16315537Y-42839536D01*
X16254936Y-42900137D01*
X16254935Y-42900137D01*
X16212082Y-42974359D01*
X16212081Y-42974363D01*
X16189900Y-43057143D01*
X12750499Y-43057143D01*
X12750499Y-42757143D01*
X18674500Y-42757143D01*
X18674500Y-42842856D01*
X18696681Y-42925636D01*
X18696682Y-42925640D01*
X18724813Y-42974363D01*
X18739535Y-42999862D01*
X18800138Y-43060465D01*
X18827304Y-43076149D01*
X18874359Y-43103317D01*
X18874361Y-43103317D01*
X18874362Y-43103318D01*
X18939651Y-43120812D01*
X18957143Y-43125499D01*
X18957144Y-43125500D01*
X18957147Y-43125500D01*
X19042856Y-43125500D01*
X19042856Y-43125499D01*
X19125638Y-43103318D01*
X19199862Y-43060465D01*
X19260465Y-42999862D01*
X19303318Y-42925638D01*
X19325499Y-42842856D01*
X19325500Y-42842856D01*
X19325500Y-42757144D01*
X19325499Y-42757143D01*
X19303318Y-42674363D01*
X19303317Y-42674359D01*
X19260464Y-42600137D01*
X19199862Y-42539535D01*
X19125640Y-42496682D01*
X19125636Y-42496681D01*
X19042856Y-42474500D01*
X19042853Y-42474500D01*
X18957147Y-42474500D01*
X18957144Y-42474500D01*
X18874363Y-42496681D01*
X18874359Y-42496682D01*
X18800137Y-42539535D01*
X18800137Y-42539536D01*
X18739536Y-42600137D01*
X18739535Y-42600137D01*
X18696682Y-42674359D01*
X18696681Y-42674363D01*
X18674500Y-42757143D01*
X12750499Y-42757143D01*
X12750499Y-42558341D01*
X12764851Y-42523693D01*
X12772281Y-42517596D01*
X12772319Y-42517571D01*
X12772781Y-42517261D01*
X12809564Y-42509950D01*
X12827222Y-42517265D01*
X12845784Y-42529668D01*
X12845786Y-42529668D01*
X12845787Y-42529669D01*
X12875101Y-42535500D01*
X12900363Y-42535499D01*
X12935011Y-42549850D01*
X13112748Y-42727587D01*
X13128946Y-42734295D01*
X13128949Y-42734298D01*
X13128950Y-42734297D01*
X13168064Y-42750500D01*
X13168065Y-42750500D01*
X14554934Y-42750500D01*
X14554936Y-42750500D01*
X14577848Y-42741009D01*
X14610252Y-42727588D01*
X15460189Y-41877649D01*
X15482150Y-41864969D01*
X15525638Y-41853318D01*
X15599862Y-41810465D01*
X15660465Y-41749862D01*
X15697576Y-41685583D01*
X15703317Y-41675640D01*
X15703317Y-41675639D01*
X15703318Y-41675638D01*
X15725499Y-41592856D01*
X15725500Y-41592856D01*
X15725500Y-41507144D01*
X15725499Y-41507143D01*
X15714993Y-41467935D01*
X15703318Y-41424362D01*
X15703317Y-41424361D01*
X15703317Y-41424359D01*
X15666427Y-41360465D01*
X15660465Y-41350138D01*
X15599862Y-41289535D01*
X15525640Y-41246682D01*
X15525636Y-41246681D01*
X15442856Y-41224500D01*
X15442853Y-41224500D01*
X15357147Y-41224500D01*
X15357144Y-41224500D01*
X15274363Y-41246681D01*
X15274359Y-41246682D01*
X15200137Y-41289535D01*
X15200137Y-41289536D01*
X15139536Y-41350137D01*
X15139535Y-41350137D01*
X15096682Y-41424359D01*
X15096682Y-41424361D01*
X15084414Y-41470144D01*
X15061583Y-41499897D01*
X15024401Y-41504791D01*
X15002436Y-41492109D01*
X14999862Y-41489535D01*
X14925640Y-41446682D01*
X14925636Y-41446681D01*
X14842856Y-41424500D01*
X14842853Y-41424500D01*
X14757147Y-41424500D01*
X14757144Y-41424500D01*
X14674363Y-41446681D01*
X14674360Y-41446682D01*
X14637551Y-41467935D01*
X14613051Y-41474500D01*
X13962064Y-41474500D01*
X13939151Y-41483990D01*
X13906748Y-41497412D01*
X13906746Y-41497413D01*
X13906744Y-41497414D01*
X13744010Y-41660148D01*
X13709363Y-41674500D01*
X13675105Y-41674500D01*
X13675104Y-41674500D01*
X13675102Y-41674501D01*
X13660444Y-41677416D01*
X13645785Y-41680331D01*
X13627222Y-41692735D01*
X13590439Y-41700050D01*
X13572782Y-41692737D01*
X13572282Y-41692403D01*
X13551443Y-41661223D01*
X13550500Y-41651658D01*
X13550500Y-41232635D01*
X13564852Y-41197987D01*
X13847987Y-40914852D01*
X13882635Y-40900500D01*
X14382746Y-40900500D01*
X14417394Y-40914852D01*
X14425181Y-40925000D01*
X14439535Y-40949862D01*
X14500138Y-41010465D01*
X14527304Y-41026149D01*
X14574359Y-41053317D01*
X14574361Y-41053317D01*
X14574362Y-41053318D01*
X14617020Y-41064748D01*
X14657143Y-41075499D01*
X14657144Y-41075500D01*
X14657147Y-41075500D01*
X14742856Y-41075500D01*
X14742856Y-41075499D01*
X14825638Y-41053318D01*
X14899862Y-41010465D01*
X14960465Y-40949862D01*
X14960468Y-40949855D01*
X14961127Y-40948999D01*
X14961602Y-40948724D01*
X14962736Y-40947591D01*
X14963039Y-40947894D01*
X14993606Y-40930249D01*
X15029831Y-40939957D01*
X15038873Y-40948999D01*
X15039534Y-40949860D01*
X15039535Y-40949862D01*
X15100138Y-41010465D01*
X15127304Y-41026149D01*
X15174359Y-41053317D01*
X15174361Y-41053317D01*
X15174362Y-41053318D01*
X15217020Y-41064748D01*
X15257143Y-41075499D01*
X15257144Y-41075500D01*
X15257147Y-41075500D01*
X15342856Y-41075500D01*
X15342856Y-41075499D01*
X15411363Y-41057143D01*
X16189900Y-41057143D01*
X16189900Y-41142856D01*
X16212081Y-41225636D01*
X16212082Y-41225640D01*
X16248973Y-41289535D01*
X16254935Y-41299862D01*
X16315538Y-41360465D01*
X16321682Y-41364012D01*
X16389759Y-41403317D01*
X16389761Y-41403317D01*
X16389762Y-41403318D01*
X16432808Y-41414852D01*
X16472543Y-41425499D01*
X16472544Y-41425500D01*
X16472547Y-41425500D01*
X16558256Y-41425500D01*
X16558256Y-41425499D01*
X16641038Y-41403318D01*
X16715262Y-41360465D01*
X16775865Y-41299862D01*
X16818718Y-41225638D01*
X16840899Y-41142856D01*
X16840900Y-41142856D01*
X16840900Y-41057144D01*
X16840899Y-41057143D01*
X16828391Y-41010464D01*
X16818718Y-40974362D01*
X16818717Y-40974361D01*
X16818717Y-40974359D01*
X16775864Y-40900137D01*
X16715262Y-40839535D01*
X16641040Y-40796682D01*
X16641036Y-40796681D01*
X16558256Y-40774500D01*
X16558253Y-40774500D01*
X16472547Y-40774500D01*
X16472544Y-40774500D01*
X16389763Y-40796681D01*
X16389759Y-40796682D01*
X16315537Y-40839535D01*
X16315537Y-40839536D01*
X16254936Y-40900137D01*
X16254935Y-40900137D01*
X16212082Y-40974359D01*
X16212081Y-40974363D01*
X16189900Y-41057143D01*
X15411363Y-41057143D01*
X15425638Y-41053318D01*
X15499862Y-41010465D01*
X15560465Y-40949862D01*
X15603318Y-40875638D01*
X15625499Y-40792856D01*
X15625500Y-40792856D01*
X15625500Y-40707144D01*
X15625499Y-40707143D01*
X15603318Y-40624363D01*
X15603317Y-40624359D01*
X15560464Y-40550137D01*
X15499862Y-40489535D01*
X15425640Y-40446682D01*
X15425636Y-40446681D01*
X15342856Y-40424500D01*
X15342853Y-40424500D01*
X15257147Y-40424500D01*
X15257146Y-40424500D01*
X15229415Y-40431929D01*
X15192233Y-40427032D01*
X15182087Y-40419246D01*
X15010255Y-40247414D01*
X15010252Y-40247412D01*
X14977848Y-40233990D01*
X14954936Y-40224500D01*
X12274634Y-40224500D01*
X12239986Y-40210148D01*
X11964851Y-39935012D01*
X11950499Y-39900364D01*
X11950499Y-39848341D01*
X11964851Y-39813693D01*
X11972239Y-39807624D01*
X11972744Y-39807286D01*
X12009519Y-39799941D01*
X12027221Y-39807265D01*
X12036842Y-39813693D01*
X12045786Y-39819669D01*
X12075100Y-39825500D01*
X12324897Y-39825499D01*
X12354212Y-39819669D01*
X12372777Y-39807264D01*
X12409557Y-39799948D01*
X12427221Y-39807265D01*
X12436842Y-39813693D01*
X12445786Y-39819669D01*
X12475100Y-39825500D01*
X12724897Y-39825499D01*
X12754212Y-39819669D01*
X12773227Y-39806963D01*
X12810008Y-39799647D01*
X12827671Y-39806963D01*
X12845982Y-39819197D01*
X12875153Y-39824999D01*
X12949999Y-39824999D01*
X12950000Y-39824998D01*
X12950000Y-38965000D01*
X12875155Y-38965000D01*
X12875154Y-38965001D01*
X12845981Y-38970802D01*
X12845977Y-38970804D01*
X12827671Y-38983036D01*
X12790888Y-38990351D01*
X12773219Y-38983030D01*
X12772269Y-38982395D01*
X12751439Y-38951209D01*
X12750499Y-38941658D01*
X12750499Y-37857635D01*
X12764851Y-37822987D01*
X13047986Y-37539852D01*
X13082634Y-37525500D01*
X13968890Y-37525500D01*
X14003538Y-37539852D01*
X14017890Y-37574500D01*
X14011325Y-37598998D01*
X14001346Y-37616283D01*
X13996681Y-37624363D01*
X13974500Y-37707143D01*
X13974500Y-37792856D01*
X13981929Y-37820582D01*
X13977034Y-37857764D01*
X13969247Y-37867912D01*
X13272413Y-38564746D01*
X13258990Y-38597149D01*
X13258990Y-38597151D01*
X13249500Y-38620064D01*
X13249500Y-38620065D01*
X13249500Y-38941658D01*
X13235148Y-38976306D01*
X13227710Y-38982409D01*
X13226759Y-38983044D01*
X13189974Y-38990348D01*
X13172327Y-38983035D01*
X13154019Y-38970802D01*
X13124846Y-38965000D01*
X13050000Y-38965000D01*
X13050000Y-39824999D01*
X13124845Y-39824999D01*
X13124845Y-39824998D01*
X13154018Y-39819197D01*
X13154020Y-39819196D01*
X13172324Y-39806965D01*
X13209106Y-39799647D01*
X13226771Y-39806963D01*
X13245787Y-39819669D01*
X13275101Y-39825500D01*
X13524898Y-39825499D01*
X13554213Y-39819669D01*
X13573228Y-39806963D01*
X13610009Y-39799647D01*
X13627673Y-39806964D01*
X13645981Y-39819197D01*
X13675153Y-39824999D01*
X13749999Y-39824999D01*
X13750000Y-39824998D01*
X13750000Y-38965000D01*
X13850000Y-38965000D01*
X13850000Y-39824999D01*
X13924845Y-39824999D01*
X13924845Y-39824998D01*
X13954018Y-39819197D01*
X13954023Y-39819195D01*
X13979825Y-39801954D01*
X14016607Y-39794636D01*
X14034272Y-39801953D01*
X14041770Y-39806963D01*
X14060787Y-39819669D01*
X14090101Y-39825500D01*
X14459898Y-39825499D01*
X14489213Y-39819669D01*
X14522457Y-39797457D01*
X14544669Y-39764213D01*
X14545701Y-39759020D01*
X14566533Y-39727838D01*
X14603315Y-39720518D01*
X14634499Y-39741350D01*
X14636192Y-39744072D01*
X14639535Y-39749862D01*
X14700138Y-39810465D01*
X14716078Y-39819668D01*
X14774359Y-39853317D01*
X14774361Y-39853317D01*
X14774362Y-39853318D01*
X14839651Y-39870812D01*
X14857143Y-39875499D01*
X14857144Y-39875500D01*
X14857147Y-39875500D01*
X14942856Y-39875500D01*
X14942856Y-39875499D01*
X15025638Y-39853318D01*
X15034259Y-39848341D01*
X15035583Y-39847576D01*
X15099862Y-39810465D01*
X15160465Y-39749862D01*
X15203318Y-39675638D01*
X15225499Y-39592856D01*
X15225500Y-39592856D01*
X15225500Y-39507144D01*
X15225499Y-39507143D01*
X15219375Y-39484289D01*
X15203318Y-39424362D01*
X15203317Y-39424361D01*
X15203317Y-39424359D01*
X15176149Y-39377304D01*
X15160465Y-39350138D01*
X15099862Y-39289535D01*
X15025640Y-39246682D01*
X15025636Y-39246681D01*
X14942856Y-39224500D01*
X14942853Y-39224500D01*
X14857147Y-39224500D01*
X14857144Y-39224500D01*
X14774363Y-39246681D01*
X14774359Y-39246682D01*
X14700137Y-39289535D01*
X14700137Y-39289536D01*
X14639534Y-39350138D01*
X14638369Y-39351657D01*
X14637534Y-39352138D01*
X14637264Y-39352409D01*
X14637191Y-39352336D01*
X14605888Y-39370404D01*
X14569664Y-39360692D01*
X14550917Y-39328211D01*
X14550499Y-39321822D01*
X14550499Y-39055105D01*
X14550499Y-39055102D01*
X14544669Y-39025787D01*
X14544667Y-39025784D01*
X14544667Y-39025783D01*
X14522457Y-38992543D01*
X14489212Y-38970330D01*
X14459901Y-38964500D01*
X14090105Y-38964500D01*
X14090104Y-38964500D01*
X14090102Y-38964501D01*
X14060787Y-38970331D01*
X14060786Y-38970331D01*
X14060784Y-38970332D01*
X14060783Y-38970332D01*
X14034270Y-38988047D01*
X13997488Y-38995362D01*
X13979827Y-38988046D01*
X13954019Y-38970802D01*
X13924846Y-38965000D01*
X13850000Y-38965000D01*
X13750000Y-38965000D01*
X13675155Y-38965000D01*
X13675154Y-38965001D01*
X13645981Y-38970802D01*
X13645977Y-38970804D01*
X13627673Y-38983035D01*
X13590890Y-38990351D01*
X13573220Y-38983030D01*
X13572270Y-38982395D01*
X13551440Y-38951209D01*
X13550500Y-38941658D01*
X13550500Y-38732634D01*
X13564851Y-38697987D01*
X14182087Y-38080750D01*
X14216734Y-38066399D01*
X14229413Y-38068068D01*
X14248956Y-38073305D01*
X14257146Y-38075500D01*
X14257147Y-38075500D01*
X14342856Y-38075500D01*
X14342856Y-38075499D01*
X14425638Y-38053318D01*
X14499862Y-38010465D01*
X14560465Y-37949862D01*
X14603318Y-37875638D01*
X14615055Y-37831834D01*
X14637883Y-37802084D01*
X14675066Y-37797188D01*
X14697032Y-37809871D01*
X14803947Y-37916786D01*
X14818299Y-37951434D01*
X14803947Y-37986082D01*
X14801032Y-37988640D01*
X14739536Y-38050137D01*
X14739535Y-38050137D01*
X14696682Y-38124359D01*
X14696681Y-38124363D01*
X14674500Y-38207143D01*
X14674500Y-38292856D01*
X14696681Y-38375636D01*
X14696682Y-38375640D01*
X14719322Y-38414852D01*
X14739535Y-38449862D01*
X14800138Y-38510465D01*
X14827304Y-38526149D01*
X14874359Y-38553317D01*
X14874361Y-38553317D01*
X14874362Y-38553318D01*
X14939651Y-38570812D01*
X14957143Y-38575499D01*
X14957144Y-38575500D01*
X14957147Y-38575500D01*
X15042856Y-38575500D01*
X15042856Y-38575499D01*
X15125638Y-38553318D01*
X15135358Y-38547705D01*
X15172538Y-38542809D01*
X15202293Y-38565638D01*
X15207190Y-38602819D01*
X15202295Y-38614638D01*
X15196683Y-38624358D01*
X15196681Y-38624363D01*
X15174500Y-38707143D01*
X15174500Y-38792856D01*
X15196681Y-38875636D01*
X15196682Y-38875640D01*
X15234798Y-38941658D01*
X15239535Y-38949862D01*
X15300138Y-39010465D01*
X15326670Y-39025783D01*
X15374359Y-39053317D01*
X15374361Y-39053317D01*
X15374362Y-39053318D01*
X15439651Y-39070812D01*
X15457143Y-39075499D01*
X15457144Y-39075500D01*
X15457147Y-39075500D01*
X15542856Y-39075500D01*
X15542856Y-39075499D01*
X15625638Y-39053318D01*
X15699862Y-39010465D01*
X15753184Y-38957143D01*
X18674500Y-38957143D01*
X18674500Y-39042856D01*
X18696681Y-39125636D01*
X18696682Y-39125640D01*
X18739535Y-39199862D01*
X18800138Y-39260465D01*
X18827304Y-39276149D01*
X18874359Y-39303317D01*
X18874361Y-39303317D01*
X18874362Y-39303318D01*
X18939651Y-39320812D01*
X18957143Y-39325499D01*
X18957144Y-39325500D01*
X18957147Y-39325500D01*
X19042856Y-39325500D01*
X19042856Y-39325499D01*
X19125638Y-39303318D01*
X19199862Y-39260465D01*
X19260465Y-39199862D01*
X19303318Y-39125638D01*
X19325499Y-39042856D01*
X19325500Y-39042856D01*
X19325500Y-38957144D01*
X19325499Y-38957143D01*
X19303318Y-38874363D01*
X19303317Y-38874359D01*
X19260464Y-38800137D01*
X19199862Y-38739535D01*
X19125640Y-38696682D01*
X19125636Y-38696681D01*
X19042856Y-38674500D01*
X19042853Y-38674500D01*
X18957147Y-38674500D01*
X18957144Y-38674500D01*
X18874363Y-38696681D01*
X18874359Y-38696682D01*
X18800137Y-38739535D01*
X18800137Y-38739536D01*
X18739536Y-38800137D01*
X18739535Y-38800137D01*
X18696682Y-38874359D01*
X18696681Y-38874363D01*
X18674500Y-38957143D01*
X15753184Y-38957143D01*
X15760465Y-38949862D01*
X15803318Y-38875638D01*
X15825499Y-38792856D01*
X15825500Y-38792856D01*
X15825500Y-38707144D01*
X15825499Y-38707143D01*
X15803318Y-38624363D01*
X15803317Y-38624359D01*
X15760464Y-38550137D01*
X15699862Y-38489535D01*
X15625640Y-38446682D01*
X15625636Y-38446681D01*
X15542856Y-38424500D01*
X15542853Y-38424500D01*
X15457147Y-38424500D01*
X15457144Y-38424500D01*
X15374363Y-38446681D01*
X15374358Y-38446683D01*
X15364638Y-38452295D01*
X15327456Y-38457189D01*
X15297704Y-38434357D01*
X15292810Y-38397175D01*
X15297704Y-38385361D01*
X15303318Y-38375638D01*
X15325499Y-38292856D01*
X15325500Y-38292856D01*
X15325500Y-38207144D01*
X15325499Y-38207143D01*
X15303318Y-38124363D01*
X15303317Y-38124359D01*
X15260464Y-38050137D01*
X15199865Y-37989538D01*
X15199862Y-37989535D01*
X15174998Y-37975179D01*
X15152169Y-37945426D01*
X15150500Y-37932745D01*
X15150500Y-37870066D01*
X15150499Y-37870062D01*
X15149608Y-37867912D01*
X15127587Y-37814749D01*
X15127587Y-37814748D01*
X15051178Y-37738339D01*
X14971988Y-37659148D01*
X14957636Y-37624500D01*
X14971988Y-37589852D01*
X15006636Y-37575500D01*
X15042856Y-37575500D01*
X15042856Y-37575499D01*
X15125638Y-37553318D01*
X15199862Y-37510465D01*
X15260465Y-37449862D01*
X15303318Y-37375638D01*
X15325499Y-37292856D01*
X15325500Y-37292856D01*
X15325500Y-37207144D01*
X15325499Y-37207143D01*
X15303318Y-37124363D01*
X15303317Y-37124359D01*
X15260464Y-37050137D01*
X15199865Y-36989538D01*
X15199862Y-36989535D01*
X15174998Y-36975179D01*
X15152169Y-36945426D01*
X15150500Y-36932745D01*
X15150500Y-36695066D01*
X15150499Y-36695062D01*
X15129789Y-36645064D01*
X15129787Y-36645060D01*
X15127696Y-36640011D01*
X15127588Y-36639749D01*
X15127586Y-36639747D01*
X15127585Y-36639745D01*
X14735254Y-36247413D01*
X14735252Y-36247412D01*
X14702848Y-36233990D01*
X14679936Y-36224500D01*
X11770063Y-36224500D01*
X11770061Y-36224500D01*
X11731533Y-36240460D01*
X11714745Y-36247413D01*
X11714744Y-36247415D01*
X11272413Y-36689745D01*
X11272410Y-36689750D01*
X11265206Y-36707145D01*
X11265205Y-36707147D01*
X11249499Y-36745062D01*
X11249499Y-38941658D01*
X11235147Y-38976306D01*
X11227709Y-38982409D01*
X11226758Y-38983044D01*
X11189973Y-38990348D01*
X11172326Y-38983035D01*
X11154018Y-38970802D01*
X11124845Y-38965000D01*
X11049999Y-38965000D01*
X11049999Y-39824999D01*
X11124844Y-39824999D01*
X11124844Y-39824998D01*
X11154017Y-39819197D01*
X11154019Y-39819196D01*
X11172323Y-39806965D01*
X11209105Y-39799647D01*
X11226770Y-39806963D01*
X11245786Y-39819669D01*
X11275100Y-39825500D01*
X11524897Y-39825499D01*
X11554212Y-39819669D01*
X11572777Y-39807264D01*
X11609557Y-39799948D01*
X11627178Y-39807237D01*
X11627679Y-39807571D01*
X11648547Y-39838731D01*
X11649499Y-39848341D01*
X11649499Y-40012937D01*
X11656576Y-40030021D01*
X11656577Y-40030023D01*
X11672410Y-40068250D01*
X11672413Y-40068255D01*
X12005159Y-40400999D01*
X12106748Y-40502588D01*
X12134405Y-40514043D01*
X12162063Y-40525500D01*
X13702378Y-40525500D01*
X13737026Y-40539852D01*
X13751378Y-40574500D01*
X13737026Y-40609148D01*
X13721129Y-40619770D01*
X13714747Y-40622413D01*
X13714744Y-40622415D01*
X13272413Y-41064745D01*
X13272413Y-41064746D01*
X13258990Y-41097149D01*
X13258990Y-41097151D01*
X13254087Y-41108990D01*
X13249500Y-41120065D01*
X13249500Y-41651658D01*
X13235148Y-41686306D01*
X13227718Y-41692403D01*
X13227218Y-41692737D01*
X13190435Y-41700049D01*
X13172778Y-41692734D01*
X13154216Y-41680331D01*
X13154212Y-41680330D01*
X13124901Y-41674500D01*
X12875105Y-41674500D01*
X12875104Y-41674500D01*
X12875102Y-41674501D01*
X12855558Y-41678387D01*
X12845786Y-41680331D01*
X12827220Y-41692736D01*
X12790437Y-41700050D01*
X12772777Y-41692734D01*
X12754215Y-41680331D01*
X12754211Y-41680330D01*
X12724900Y-41674500D01*
X12475104Y-41674500D01*
X12475103Y-41674500D01*
X12475101Y-41674501D01*
X12460443Y-41677416D01*
X12445784Y-41680331D01*
X12427221Y-41692735D01*
X12390438Y-41700050D01*
X12372777Y-41692734D01*
X12354215Y-41680331D01*
X12354211Y-41680330D01*
X12324900Y-41674500D01*
X12075104Y-41674500D01*
X12075103Y-41674500D01*
X12075101Y-41674501D01*
X12060443Y-41677416D01*
X12045784Y-41680331D01*
X12027221Y-41692735D01*
X11990438Y-41700050D01*
X11972777Y-41692734D01*
X11954215Y-41680331D01*
X11954211Y-41680330D01*
X11924900Y-41674500D01*
X11675104Y-41674500D01*
X11675103Y-41674500D01*
X11675101Y-41674501D01*
X11660443Y-41677416D01*
X11645784Y-41680331D01*
X11627221Y-41692735D01*
X11590438Y-41700050D01*
X11572777Y-41692734D01*
X11554215Y-41680331D01*
X11554211Y-41680330D01*
X11524900Y-41674500D01*
X11275104Y-41674500D01*
X11275103Y-41674500D01*
X11275101Y-41674501D01*
X11260443Y-41677416D01*
X11245784Y-41680331D01*
X11227221Y-41692735D01*
X11190438Y-41700050D01*
X11172781Y-41692737D01*
X11172281Y-41692403D01*
X11151442Y-41661223D01*
X11150499Y-41651658D01*
X11150499Y-41562064D01*
X11134296Y-41522950D01*
X11134296Y-41522949D01*
X11134294Y-41522946D01*
X11127751Y-41507147D01*
X11127586Y-41506748D01*
X11035690Y-41414852D01*
X10743253Y-41122413D01*
X10743251Y-41122412D01*
X10710847Y-41108990D01*
X10687935Y-41099500D01*
X5317254Y-41099500D01*
X5282606Y-41085148D01*
X5274819Y-41075000D01*
X5259808Y-41049000D01*
X5254913Y-41011818D01*
X5277743Y-40982065D01*
X5302243Y-40975500D01*
X10229933Y-40975500D01*
X10229935Y-40975500D01*
X10252847Y-40966009D01*
X10285251Y-40952588D01*
X10506418Y-40731420D01*
X10727584Y-40510255D01*
X10727584Y-40510254D01*
X10727586Y-40510252D01*
X10742395Y-40474500D01*
X10750499Y-40454936D01*
X10750499Y-39848341D01*
X10764851Y-39813693D01*
X10772269Y-39807604D01*
X10772281Y-39807596D01*
X10773219Y-39806968D01*
X10810000Y-39799646D01*
X10827672Y-39806964D01*
X10845980Y-39819197D01*
X10875152Y-39824999D01*
X10949998Y-39824999D01*
X10949999Y-39824998D01*
X10949999Y-38965000D01*
X10875154Y-38965000D01*
X10875153Y-38965001D01*
X10845980Y-38970802D01*
X10845976Y-38970804D01*
X10827672Y-38983035D01*
X10790889Y-38990351D01*
X10773226Y-38983035D01*
X10754211Y-38970330D01*
X10724900Y-38964500D01*
X10475104Y-38964500D01*
X10475103Y-38964500D01*
X10475101Y-38964501D01*
X10460443Y-38967416D01*
X10445784Y-38970331D01*
X10427221Y-38982735D01*
X10390438Y-38990050D01*
X10372777Y-38982734D01*
X10354215Y-38970331D01*
X10354211Y-38970330D01*
X10324900Y-38964500D01*
X10075104Y-38964500D01*
X10075103Y-38964500D01*
X10075101Y-38964501D01*
X10060443Y-38967416D01*
X10045784Y-38970331D01*
X10027221Y-38982735D01*
X9990438Y-38990050D01*
X9972776Y-38982734D01*
X9954213Y-38970330D01*
X9939939Y-38967491D01*
X9908757Y-38946655D01*
X9900500Y-38919433D01*
X9900500Y-35157143D01*
X10924500Y-35157143D01*
X10924500Y-35242856D01*
X10946681Y-35325636D01*
X10946682Y-35325640D01*
X10983696Y-35389748D01*
X10989535Y-35399862D01*
X11050138Y-35460465D01*
X11077304Y-35476149D01*
X11124359Y-35503317D01*
X11124361Y-35503317D01*
X11124362Y-35503318D01*
X11189651Y-35520812D01*
X11207143Y-35525499D01*
X11207144Y-35525500D01*
X11207147Y-35525500D01*
X11292856Y-35525500D01*
X11292856Y-35525499D01*
X11375638Y-35503318D01*
X11449862Y-35460465D01*
X11510465Y-35399862D01*
X11553318Y-35325638D01*
X11575499Y-35242856D01*
X11575500Y-35242856D01*
X11575500Y-35157144D01*
X11575499Y-35157143D01*
X11924500Y-35157143D01*
X11924500Y-35242856D01*
X11946681Y-35325636D01*
X11946682Y-35325640D01*
X11983696Y-35389748D01*
X11989535Y-35399862D01*
X12050138Y-35460465D01*
X12077304Y-35476149D01*
X12124359Y-35503317D01*
X12124361Y-35503317D01*
X12124362Y-35503318D01*
X12189651Y-35520812D01*
X12207143Y-35525499D01*
X12207144Y-35525500D01*
X12207147Y-35525500D01*
X12292856Y-35525500D01*
X12292856Y-35525499D01*
X12375638Y-35503318D01*
X12449862Y-35460465D01*
X12510465Y-35399862D01*
X12553318Y-35325638D01*
X12575499Y-35242856D01*
X12575500Y-35242856D01*
X12575500Y-35157144D01*
X12575499Y-35157143D01*
X12558273Y-35092856D01*
X12553318Y-35074362D01*
X12553317Y-35074361D01*
X12553317Y-35074359D01*
X12516561Y-35010697D01*
X12510465Y-35000138D01*
X12449862Y-34939535D01*
X12375640Y-34896682D01*
X12375636Y-34896681D01*
X12292856Y-34874500D01*
X12292853Y-34874500D01*
X12207147Y-34874500D01*
X12207144Y-34874500D01*
X12124363Y-34896681D01*
X12124359Y-34896682D01*
X12050137Y-34939535D01*
X12050137Y-34939536D01*
X11989536Y-35000137D01*
X11989535Y-35000137D01*
X11946682Y-35074359D01*
X11946681Y-35074363D01*
X11924500Y-35157143D01*
X11575499Y-35157143D01*
X11558273Y-35092856D01*
X11553318Y-35074362D01*
X11553317Y-35074361D01*
X11553317Y-35074359D01*
X11516561Y-35010697D01*
X11510465Y-35000138D01*
X11449862Y-34939535D01*
X11375640Y-34896682D01*
X11375636Y-34896681D01*
X11292856Y-34874500D01*
X11292853Y-34874500D01*
X11207147Y-34874500D01*
X11207144Y-34874500D01*
X11124363Y-34896681D01*
X11124359Y-34896682D01*
X11050137Y-34939535D01*
X11050137Y-34939536D01*
X10989536Y-35000137D01*
X10989535Y-35000137D01*
X10946682Y-35074359D01*
X10946681Y-35074363D01*
X10924500Y-35157143D01*
X9900500Y-35157143D01*
X9900500Y-34817253D01*
X9914852Y-34782605D01*
X9924993Y-34774822D01*
X9949862Y-34760465D01*
X10010465Y-34699862D01*
X10053318Y-34625638D01*
X10075500Y-34542853D01*
X10075975Y-34541081D01*
X10098805Y-34511328D01*
X10135987Y-34506433D01*
X10207144Y-34525500D01*
X10207147Y-34525500D01*
X10292855Y-34525500D01*
X10332711Y-34514819D01*
X10364012Y-34506433D01*
X10401194Y-34511328D01*
X10424024Y-34541080D01*
X10446682Y-34625638D01*
X10446682Y-34625640D01*
X10469322Y-34664852D01*
X10489535Y-34699862D01*
X10550138Y-34760465D01*
X10574997Y-34774817D01*
X10624359Y-34803317D01*
X10624361Y-34803317D01*
X10624362Y-34803318D01*
X10629035Y-34804570D01*
X10707143Y-34825499D01*
X10707144Y-34825500D01*
X10707147Y-34825500D01*
X10792856Y-34825500D01*
X10792856Y-34825499D01*
X10875638Y-34803318D01*
X10949862Y-34760465D01*
X11010465Y-34699862D01*
X11053318Y-34625638D01*
X11075499Y-34542856D01*
X11075500Y-34542856D01*
X11075500Y-34457144D01*
X11075499Y-34457143D01*
X11053318Y-34374363D01*
X11053317Y-34374359D01*
X11010464Y-34300137D01*
X10949865Y-34239538D01*
X10949862Y-34239535D01*
X10924998Y-34225179D01*
X10902169Y-34195426D01*
X10900500Y-34182745D01*
X10900500Y-33820066D01*
X10900499Y-33820062D01*
X10882098Y-33775638D01*
X10877587Y-33764749D01*
X10877586Y-33764748D01*
X10877586Y-33764747D01*
X10835252Y-33722413D01*
X10779937Y-33699500D01*
X10779936Y-33699500D01*
X10507635Y-33699500D01*
X10472987Y-33685148D01*
X8944981Y-32157142D01*
X10174500Y-32157142D01*
X10174500Y-32242855D01*
X10196681Y-32325635D01*
X10196682Y-32325639D01*
X10239535Y-32399861D01*
X10300138Y-32460464D01*
X10327304Y-32476148D01*
X10374359Y-32503316D01*
X10374361Y-32503316D01*
X10374362Y-32503317D01*
X10429418Y-32518069D01*
X10457143Y-32525498D01*
X10457144Y-32525499D01*
X10457147Y-32525499D01*
X10542855Y-32525499D01*
X10561156Y-32520594D01*
X10570581Y-32518069D01*
X10607763Y-32522963D01*
X10617912Y-32530751D01*
X12429814Y-34342652D01*
X12444166Y-34377300D01*
X12442496Y-34389982D01*
X12424500Y-34457143D01*
X12424500Y-34542856D01*
X12446681Y-34625636D01*
X12446682Y-34625640D01*
X12469322Y-34664852D01*
X12489535Y-34699862D01*
X12550138Y-34760465D01*
X12574997Y-34774817D01*
X12624359Y-34803317D01*
X12624361Y-34803317D01*
X12624362Y-34803318D01*
X12629035Y-34804570D01*
X12707143Y-34825499D01*
X12707144Y-34825500D01*
X12707147Y-34825500D01*
X12792856Y-34825500D01*
X12792856Y-34825499D01*
X12875638Y-34803318D01*
X12949862Y-34760465D01*
X13010465Y-34699862D01*
X13053318Y-34625638D01*
X13075499Y-34542856D01*
X13075500Y-34542856D01*
X13075500Y-34457144D01*
X13075499Y-34457143D01*
X13053318Y-34374363D01*
X13053317Y-34374359D01*
X13010464Y-34300137D01*
X12949862Y-34239535D01*
X12875640Y-34196682D01*
X12875636Y-34196681D01*
X12792856Y-34174500D01*
X12792853Y-34174500D01*
X12707636Y-34174500D01*
X12672988Y-34160148D01*
X12120438Y-33607598D01*
X12106086Y-33572950D01*
X12120438Y-33538302D01*
X12142404Y-33525620D01*
X12142852Y-33525500D01*
X12142853Y-33525500D01*
X12225638Y-33503318D01*
X12299862Y-33460465D01*
X12360465Y-33399862D01*
X12403318Y-33325638D01*
X12425499Y-33242856D01*
X12425500Y-33242856D01*
X12425500Y-33157144D01*
X12425499Y-33157143D01*
X12403318Y-33074363D01*
X12403317Y-33074359D01*
X12360464Y-33000137D01*
X12299862Y-32939535D01*
X12225640Y-32896682D01*
X12225636Y-32896681D01*
X12142856Y-32874500D01*
X12142853Y-32874500D01*
X12057147Y-32874500D01*
X12057144Y-32874500D01*
X11974363Y-32896681D01*
X11974359Y-32896682D01*
X11900137Y-32939535D01*
X11900137Y-32939536D01*
X11839536Y-33000137D01*
X11839535Y-33000137D01*
X11796682Y-33074359D01*
X11796681Y-33074363D01*
X11774379Y-33157595D01*
X11751549Y-33187348D01*
X11714367Y-33192243D01*
X11692401Y-33179561D01*
X11294986Y-32782146D01*
X10830752Y-32317911D01*
X10816400Y-32283263D01*
X10818070Y-32270580D01*
X10825500Y-32242853D01*
X10825500Y-32157143D01*
X10825499Y-32157142D01*
X12674500Y-32157142D01*
X12674500Y-32242855D01*
X12696681Y-32325635D01*
X12696682Y-32325639D01*
X12739535Y-32399861D01*
X12800138Y-32460464D01*
X12827304Y-32476148D01*
X12874359Y-32503316D01*
X12874361Y-32503316D01*
X12874362Y-32503317D01*
X12929418Y-32518069D01*
X12957143Y-32525498D01*
X12957144Y-32525499D01*
X12957147Y-32525499D01*
X12996653Y-32525499D01*
X13031301Y-32539851D01*
X13610470Y-33119020D01*
X13624822Y-33153668D01*
X13624500Y-33156947D01*
X13624500Y-33239883D01*
X13636372Y-33268543D01*
X13655024Y-33313574D01*
X13655025Y-33313575D01*
X13655026Y-33313577D01*
X13711423Y-33369974D01*
X13711424Y-33369974D01*
X13711426Y-33369976D01*
X13785118Y-33400500D01*
X13785120Y-33400500D01*
X13864880Y-33400500D01*
X13864882Y-33400500D01*
X13938574Y-33369976D01*
X14143699Y-33164851D01*
X14178347Y-33150499D01*
X14242856Y-33150499D01*
X14242856Y-33150498D01*
X14325638Y-33128317D01*
X14399862Y-33085464D01*
X14460465Y-33024861D01*
X14503318Y-32950637D01*
X14525499Y-32867855D01*
X14525500Y-32867855D01*
X14525500Y-32782143D01*
X14525499Y-32782142D01*
X14503318Y-32699362D01*
X14503317Y-32699358D01*
X14460464Y-32625136D01*
X14399862Y-32564534D01*
X14325640Y-32521681D01*
X14325636Y-32521680D01*
X14242856Y-32499499D01*
X14242853Y-32499499D01*
X14157147Y-32499499D01*
X14157144Y-32499499D01*
X14074363Y-32521680D01*
X14074359Y-32521681D01*
X14000137Y-32564534D01*
X14000137Y-32564535D01*
X13939536Y-32625136D01*
X13939535Y-32625136D01*
X13896682Y-32699358D01*
X13896682Y-32699359D01*
X13889321Y-32726829D01*
X13866489Y-32756581D01*
X13829307Y-32761475D01*
X13807343Y-32748793D01*
X13339783Y-32281233D01*
X13325431Y-32246585D01*
X13325500Y-32245538D01*
X13325500Y-32157143D01*
X13325499Y-32157142D01*
X13303318Y-32074362D01*
X13303317Y-32074358D01*
X13260464Y-32000136D01*
X13199862Y-31939534D01*
X13125640Y-31896681D01*
X13125636Y-31896680D01*
X13042856Y-31874499D01*
X13042853Y-31874499D01*
X12957147Y-31874499D01*
X12957144Y-31874499D01*
X12874363Y-31896680D01*
X12874359Y-31896681D01*
X12800137Y-31939534D01*
X12800137Y-31939535D01*
X12739536Y-32000136D01*
X12739535Y-32000136D01*
X12696682Y-32074358D01*
X12696681Y-32074362D01*
X12674500Y-32157142D01*
X10825499Y-32157142D01*
X10803318Y-32074362D01*
X10803317Y-32074358D01*
X10760464Y-32000136D01*
X10699862Y-31939534D01*
X10625640Y-31896681D01*
X10625636Y-31896680D01*
X10542856Y-31874499D01*
X10542853Y-31874499D01*
X10457147Y-31874499D01*
X10457144Y-31874499D01*
X10374363Y-31896680D01*
X10374359Y-31896681D01*
X10300137Y-31939534D01*
X10300137Y-31939535D01*
X10239536Y-32000136D01*
X10239535Y-32000136D01*
X10196682Y-32074358D01*
X10196681Y-32074362D01*
X10174500Y-32157142D01*
X8944981Y-32157142D01*
X8068036Y-31280197D01*
X8053684Y-31245549D01*
X8068036Y-31210901D01*
X8102684Y-31196549D01*
X8127873Y-31203519D01*
X8350111Y-31336724D01*
X8350122Y-31336729D01*
X8350127Y-31336732D01*
X8660585Y-31483568D01*
X8660592Y-31483570D01*
X8660607Y-31483578D01*
X8984003Y-31599291D01*
X9317183Y-31682748D01*
X9656940Y-31733146D01*
X10000000Y-31750000D01*
X10343059Y-31733146D01*
X10682816Y-31682748D01*
X11015996Y-31599291D01*
X11339392Y-31483578D01*
X11649888Y-31336724D01*
X11944495Y-31160143D01*
X12220376Y-30955536D01*
X12474873Y-30724873D01*
X12705536Y-30470376D01*
X12864904Y-30255491D01*
X12910138Y-30194502D01*
X12910138Y-30194500D01*
X12910143Y-30194495D01*
X13086724Y-29899888D01*
X13233578Y-29589392D01*
X13349291Y-29265996D01*
X13432748Y-28932816D01*
X13483146Y-28593059D01*
X13500000Y-28250000D01*
X13483146Y-27906940D01*
X13432748Y-27567183D01*
X13349291Y-27234003D01*
X13233578Y-26910607D01*
X13086724Y-26600111D01*
X12910143Y-26305504D01*
X12910141Y-26305502D01*
X12910138Y-26305496D01*
X12705542Y-26029631D01*
X12705538Y-26029626D01*
X12705536Y-26029623D01*
X12549209Y-25857143D01*
X13874500Y-25857143D01*
X13874500Y-25942856D01*
X13896681Y-26025636D01*
X13896682Y-26025640D01*
X13939535Y-26099862D01*
X14000138Y-26160465D01*
X14027304Y-26176149D01*
X14074359Y-26203317D01*
X14074361Y-26203317D01*
X14074362Y-26203318D01*
X14093695Y-26208498D01*
X14138182Y-26220419D01*
X14167935Y-26243249D01*
X14174500Y-26267749D01*
X14174500Y-30397179D01*
X14160148Y-30431827D01*
X14152675Y-30437562D01*
X14152688Y-30437579D01*
X14150134Y-30439538D01*
X14089536Y-30500137D01*
X14089535Y-30500137D01*
X14046682Y-30574359D01*
X14046681Y-30574363D01*
X14024500Y-30657143D01*
X14024500Y-30742856D01*
X14046681Y-30825636D01*
X14046682Y-30825640D01*
X14089535Y-30899862D01*
X14150138Y-30960465D01*
X14177304Y-30976149D01*
X14224359Y-31003317D01*
X14224361Y-31003317D01*
X14224362Y-31003318D01*
X14289651Y-31020812D01*
X14307143Y-31025499D01*
X14307144Y-31025500D01*
X14307147Y-31025500D01*
X14392856Y-31025500D01*
X14392856Y-31025499D01*
X14475638Y-31003318D01*
X14549862Y-30960465D01*
X14610465Y-30899862D01*
X14653318Y-30825638D01*
X14675499Y-30742856D01*
X14675500Y-30742856D01*
X14675500Y-30657144D01*
X14675499Y-30657143D01*
X14653318Y-30574363D01*
X14653317Y-30574359D01*
X14610464Y-30500137D01*
X14549865Y-30439538D01*
X14549862Y-30439535D01*
X14549858Y-30439532D01*
X14547312Y-30437579D01*
X14547873Y-30436847D01*
X14527168Y-30409855D01*
X14525500Y-30397179D01*
X14525500Y-26015091D01*
X14525499Y-26015088D01*
X14520112Y-26002084D01*
X14518051Y-25970649D01*
X14525500Y-25942853D01*
X14525500Y-25857147D01*
X14525500Y-25857144D01*
X14525499Y-25857143D01*
X14511076Y-25803317D01*
X14503318Y-25774362D01*
X14503317Y-25774361D01*
X14503317Y-25774359D01*
X14460464Y-25700137D01*
X14399862Y-25639535D01*
X14325640Y-25596682D01*
X14325636Y-25596681D01*
X14242856Y-25574500D01*
X14242853Y-25574500D01*
X14157147Y-25574500D01*
X14157144Y-25574500D01*
X14074363Y-25596681D01*
X14074359Y-25596682D01*
X14000137Y-25639535D01*
X14000137Y-25639536D01*
X13939536Y-25700137D01*
X13939535Y-25700137D01*
X13896682Y-25774359D01*
X13896681Y-25774363D01*
X13874500Y-25857143D01*
X12549209Y-25857143D01*
X12474873Y-25775125D01*
X12309936Y-25625636D01*
X12220376Y-25544463D01*
X12220367Y-25544456D01*
X11944502Y-25339860D01*
X11878228Y-25300137D01*
X11649888Y-25163275D01*
X11649880Y-25163271D01*
X11649871Y-25163266D01*
X11339413Y-25016430D01*
X11339401Y-25016425D01*
X11339398Y-25016424D01*
X11339392Y-25016421D01*
X11015996Y-24900708D01*
X10794165Y-24845142D01*
X10682817Y-24817251D01*
X10597876Y-24804651D01*
X10343059Y-24766853D01*
X10343054Y-24766852D01*
X10343050Y-24766852D01*
X10000000Y-24750000D01*
X9656948Y-24766852D01*
X9656942Y-24766852D01*
X9656940Y-24766853D01*
X9487061Y-24792052D01*
X9317181Y-24817251D01*
X9094483Y-24873034D01*
X8984003Y-24900708D01*
X8660607Y-25016421D01*
X8660603Y-25016422D01*
X8660597Y-25016425D01*
X8660585Y-25016430D01*
X8350127Y-25163266D01*
X8350113Y-25163274D01*
X8055496Y-25339860D01*
X7779631Y-25544456D01*
X7779626Y-25544460D01*
X7525125Y-25775125D01*
X7294460Y-26029626D01*
X7294456Y-26029631D01*
X7089860Y-26305496D01*
X6913274Y-26600113D01*
X6913266Y-26600127D01*
X6766430Y-26910585D01*
X6766425Y-26910597D01*
X6650709Y-27234000D01*
X6567251Y-27567181D01*
X6516853Y-27906942D01*
X6516852Y-27906948D01*
X6500000Y-28249999D01*
X6500000Y-28250000D01*
X6516852Y-28593050D01*
X6516852Y-28593054D01*
X6516853Y-28593059D01*
X6567251Y-28932816D01*
X6650708Y-29265996D01*
X6766421Y-29589392D01*
X6766424Y-29589398D01*
X6766425Y-29589401D01*
X6766430Y-29589413D01*
X6913266Y-29899871D01*
X6913271Y-29899880D01*
X6913275Y-29899888D01*
X7046478Y-30122123D01*
X7051981Y-30159219D01*
X7029640Y-30189342D01*
X6992543Y-30194845D01*
X6969801Y-30181961D01*
X1564852Y-24777012D01*
X1550500Y-24742364D01*
X1550500Y-21831110D01*
X1564852Y-21796462D01*
X1599500Y-21782110D01*
X1623998Y-21788674D01*
X1649362Y-21803318D01*
X1714651Y-21820812D01*
X1732143Y-21825499D01*
X1732144Y-21825500D01*
X1732147Y-21825500D01*
X1817856Y-21825500D01*
X1817856Y-21825499D01*
X1900638Y-21803318D01*
X1974862Y-21760465D01*
X2020475Y-21714852D01*
X2055123Y-21700500D01*
X2196654Y-21700500D01*
X2231302Y-21714852D01*
X4785148Y-24268698D01*
X4799500Y-24303346D01*
X4799500Y-24367856D01*
X4821681Y-24450636D01*
X4821682Y-24450640D01*
X4853471Y-24505699D01*
X4864535Y-24524862D01*
X4925138Y-24585465D01*
X4951178Y-24600499D01*
X4999359Y-24628317D01*
X4999361Y-24628317D01*
X4999362Y-24628318D01*
X5064651Y-24645812D01*
X5082143Y-24650499D01*
X5082144Y-24650500D01*
X5082147Y-24650500D01*
X5167856Y-24650500D01*
X5167856Y-24650499D01*
X5250638Y-24628318D01*
X5324862Y-24585465D01*
X5385465Y-24524862D01*
X5385472Y-24524849D01*
X5385774Y-24524457D01*
X5386001Y-24524325D01*
X5387736Y-24522591D01*
X5388200Y-24523055D01*
X5418248Y-24505699D01*
X5454476Y-24515397D01*
X5459303Y-24519630D01*
X5475138Y-24535465D01*
X5502304Y-24551149D01*
X5549359Y-24578317D01*
X5549361Y-24578317D01*
X5549362Y-24578318D01*
X5614651Y-24595812D01*
X5632143Y-24600499D01*
X5632144Y-24600500D01*
X5632147Y-24600500D01*
X5717856Y-24600500D01*
X5717856Y-24600499D01*
X5800638Y-24578318D01*
X5874862Y-24535465D01*
X5935465Y-24474862D01*
X5978318Y-24400638D01*
X6000499Y-24317856D01*
X6000500Y-24317856D01*
X6000500Y-24232144D01*
X6000499Y-24232143D01*
X5982942Y-24166617D01*
X5980403Y-24157143D01*
X13624500Y-24157143D01*
X13624500Y-24242856D01*
X13646681Y-24325636D01*
X13646682Y-24325640D01*
X13671056Y-24367856D01*
X13689535Y-24399862D01*
X13750138Y-24460465D01*
X13775076Y-24474863D01*
X13824359Y-24503317D01*
X13824361Y-24503317D01*
X13824362Y-24503318D01*
X13869442Y-24515397D01*
X13907143Y-24525499D01*
X13907144Y-24525500D01*
X13907147Y-24525500D01*
X13992856Y-24525500D01*
X13992856Y-24525499D01*
X14075638Y-24503318D01*
X14149862Y-24460465D01*
X14210465Y-24399862D01*
X14253318Y-24325638D01*
X14275499Y-24242856D01*
X14275500Y-24242856D01*
X14275500Y-24157144D01*
X14275499Y-24157143D01*
X14253526Y-24075138D01*
X14253318Y-24074362D01*
X14253317Y-24074361D01*
X14253317Y-24074359D01*
X14210464Y-24000137D01*
X14149862Y-23939535D01*
X14075640Y-23896682D01*
X14075636Y-23896681D01*
X13992856Y-23874500D01*
X13992853Y-23874500D01*
X13907147Y-23874500D01*
X13907144Y-23874500D01*
X13824363Y-23896681D01*
X13824359Y-23896682D01*
X13750137Y-23939535D01*
X13750137Y-23939536D01*
X13689536Y-24000137D01*
X13689535Y-24000137D01*
X13646682Y-24074359D01*
X13646681Y-24074363D01*
X13624500Y-24157143D01*
X5980403Y-24157143D01*
X5978318Y-24149362D01*
X5978317Y-24149360D01*
X5978317Y-24149359D01*
X5935464Y-24075137D01*
X5874862Y-24014535D01*
X5800640Y-23971682D01*
X5800636Y-23971681D01*
X5717856Y-23949500D01*
X5717853Y-23949500D01*
X5632147Y-23949500D01*
X5632146Y-23949500D01*
X5604415Y-23956930D01*
X5567233Y-23952034D01*
X5557086Y-23944247D01*
X4189852Y-22577012D01*
X4175500Y-22542364D01*
X4175500Y-17131110D01*
X4189852Y-17096462D01*
X4224500Y-17082110D01*
X4248998Y-17088674D01*
X4274362Y-17103318D01*
X4339651Y-17120812D01*
X4357143Y-17125499D01*
X4357144Y-17125500D01*
X4357147Y-17125500D01*
X4442856Y-17125500D01*
X4442856Y-17125499D01*
X4525638Y-17103318D01*
X4599862Y-17060465D01*
X4660465Y-16999862D01*
X4703318Y-16925638D01*
X4725499Y-16842856D01*
X4725500Y-16842856D01*
X4725500Y-16757144D01*
X4725499Y-16757143D01*
X4716715Y-16724362D01*
X4703318Y-16674362D01*
X4703317Y-16674361D01*
X4703317Y-16674359D01*
X4660464Y-16600137D01*
X4631490Y-16571163D01*
X4617138Y-16536515D01*
X4631490Y-16501867D01*
X4641635Y-16494081D01*
X4699862Y-16460465D01*
X4699864Y-16460462D01*
X4701000Y-16459807D01*
X4738182Y-16454912D01*
X4767935Y-16477742D01*
X4774500Y-16502242D01*
X4774500Y-16534909D01*
X4801218Y-16599413D01*
X4801219Y-16599414D01*
X4801219Y-16599415D01*
X4961776Y-16759971D01*
X4976128Y-16794619D01*
X4974898Y-16803958D01*
X4974919Y-16803961D01*
X4974500Y-16807145D01*
X4974500Y-16892856D01*
X4996681Y-16975636D01*
X4996682Y-16975640D01*
X5031432Y-17035827D01*
X5039535Y-17049862D01*
X5100138Y-17110465D01*
X5125551Y-17125137D01*
X5174359Y-17153317D01*
X5174361Y-17153317D01*
X5174362Y-17153318D01*
X5215288Y-17164284D01*
X5257143Y-17175499D01*
X5257144Y-17175500D01*
X5282518Y-17175500D01*
X5317166Y-17189852D01*
X5331518Y-17224500D01*
X5329849Y-17237181D01*
X5324500Y-17257146D01*
X5324500Y-17342856D01*
X5346681Y-17425636D01*
X5346682Y-17425640D01*
X5387109Y-17495660D01*
X5389535Y-17499862D01*
X5450138Y-17560465D01*
X5477304Y-17576149D01*
X5524359Y-17603317D01*
X5524361Y-17603317D01*
X5524362Y-17603318D01*
X5589651Y-17620812D01*
X5607143Y-17625499D01*
X5607144Y-17625500D01*
X5607147Y-17625500D01*
X5692856Y-17625500D01*
X5692856Y-17625499D01*
X5775638Y-17603318D01*
X5849862Y-17560465D01*
X5910465Y-17499862D01*
X5910471Y-17499850D01*
X5911618Y-17498357D01*
X5912451Y-17497875D01*
X5912736Y-17497591D01*
X5912812Y-17497667D01*
X5944092Y-17479597D01*
X5980319Y-17489294D01*
X5999079Y-17521768D01*
X5999500Y-17528176D01*
X5999500Y-17649894D01*
X5999501Y-17649898D01*
X6000687Y-17655861D01*
X6005331Y-17679213D01*
X6027388Y-17712226D01*
X6027543Y-17712457D01*
X6027716Y-17712573D01*
X6027834Y-17712749D01*
X6030956Y-17715871D01*
X6030335Y-17716491D01*
X6048557Y-17743752D01*
X6049500Y-17753319D01*
X6049500Y-17767363D01*
X6035148Y-17802011D01*
X5792912Y-18044246D01*
X5758264Y-18058598D01*
X5745584Y-18056929D01*
X5717854Y-18049500D01*
X5717853Y-18049500D01*
X5632147Y-18049500D01*
X5632144Y-18049500D01*
X5549363Y-18071681D01*
X5549359Y-18071682D01*
X5475137Y-18114535D01*
X5475137Y-18114536D01*
X5414536Y-18175137D01*
X5414535Y-18175137D01*
X5371682Y-18249359D01*
X5371681Y-18249363D01*
X5349500Y-18332143D01*
X5349500Y-18417856D01*
X5371681Y-18500636D01*
X5371682Y-18500640D01*
X5389440Y-18531396D01*
X5394335Y-18568578D01*
X5371505Y-18598331D01*
X5300137Y-18639535D01*
X5300137Y-18639536D01*
X5239536Y-18700137D01*
X5239535Y-18700137D01*
X5196682Y-18774359D01*
X5196681Y-18774363D01*
X5174500Y-18857143D01*
X5174500Y-18942856D01*
X5196681Y-19025636D01*
X5196682Y-19025640D01*
X5222631Y-19070584D01*
X5239535Y-19099862D01*
X5300138Y-19160465D01*
X5327304Y-19176149D01*
X5374359Y-19203317D01*
X5374361Y-19203317D01*
X5374362Y-19203318D01*
X5439651Y-19220812D01*
X5457143Y-19225499D01*
X5457144Y-19225500D01*
X5457147Y-19225500D01*
X5542856Y-19225500D01*
X5542856Y-19225499D01*
X5625638Y-19203318D01*
X5699862Y-19160465D01*
X5760465Y-19099862D01*
X5774819Y-19075000D01*
X5804572Y-19052170D01*
X5817254Y-19050500D01*
X6229934Y-19050500D01*
X6229936Y-19050500D01*
X6256342Y-19039562D01*
X6285252Y-19027588D01*
X6506419Y-18806420D01*
X6727585Y-18585255D01*
X6727585Y-18585253D01*
X6727587Y-18585252D01*
X6741117Y-18552587D01*
X6750500Y-18529936D01*
X6750500Y-17753318D01*
X6764852Y-17718671D01*
X6772282Y-17712574D01*
X6772782Y-17712240D01*
X6809565Y-17704928D01*
X6827218Y-17712240D01*
X6827718Y-17712574D01*
X6848557Y-17743754D01*
X6849500Y-17753319D01*
X6849500Y-18667363D01*
X6835148Y-18702011D01*
X6672413Y-18864746D01*
X6658990Y-18897149D01*
X6658990Y-18897151D01*
X6649500Y-18920064D01*
X6649500Y-18920065D01*
X6649500Y-20067363D01*
X6635148Y-20102011D01*
X6297413Y-20439746D01*
X6283990Y-20472149D01*
X6283990Y-20472151D01*
X6279648Y-20482635D01*
X6274500Y-20495065D01*
X6274500Y-22829936D01*
X6283990Y-22852848D01*
X6297412Y-22885252D01*
X6297414Y-22885255D01*
X6394246Y-22982087D01*
X6408598Y-23016735D01*
X6406929Y-23029415D01*
X6399500Y-23057146D01*
X6399500Y-23142856D01*
X6421681Y-23225636D01*
X6421682Y-23225640D01*
X6441789Y-23260465D01*
X6464535Y-23299862D01*
X6525138Y-23360465D01*
X6552304Y-23376149D01*
X6599359Y-23403317D01*
X6599361Y-23403317D01*
X6599362Y-23403318D01*
X6664651Y-23420812D01*
X6682143Y-23425499D01*
X6682144Y-23425500D01*
X6682147Y-23425500D01*
X6767856Y-23425500D01*
X6767856Y-23425499D01*
X6850638Y-23403318D01*
X6924862Y-23360465D01*
X6985465Y-23299862D01*
X7028318Y-23225638D01*
X7050499Y-23142856D01*
X7050500Y-23142856D01*
X7050500Y-23057144D01*
X7050499Y-23057143D01*
X7028318Y-22974363D01*
X7028317Y-22974359D01*
X6985464Y-22900137D01*
X6966431Y-22881104D01*
X6952079Y-22846456D01*
X6966431Y-22811808D01*
X7001079Y-22797456D01*
X7021089Y-22802818D01*
X7021392Y-22802088D01*
X7024359Y-22803316D01*
X7024362Y-22803318D01*
X7089651Y-22820812D01*
X7107143Y-22825499D01*
X7107144Y-22825500D01*
X7107147Y-22825500D01*
X7192856Y-22825500D01*
X7192856Y-22825499D01*
X7275638Y-22803318D01*
X7276981Y-22802543D01*
X7300003Y-22789251D01*
X7349862Y-22760465D01*
X7410465Y-22699862D01*
X7453318Y-22625638D01*
X7475499Y-22542856D01*
X7475500Y-22542856D01*
X7475500Y-22457145D01*
X7468070Y-22429417D01*
X7472965Y-22392234D01*
X7480748Y-22382090D01*
X7677587Y-22185252D01*
X7684297Y-22169049D01*
X7700500Y-22129936D01*
X7700500Y-21231635D01*
X7714852Y-21196987D01*
X7749500Y-21182635D01*
X7784148Y-21196987D01*
X8469247Y-21882086D01*
X8483599Y-21916734D01*
X8481930Y-21929415D01*
X8474500Y-21957146D01*
X8474500Y-22042856D01*
X8496681Y-22125636D01*
X8496682Y-22125640D01*
X8524892Y-22174500D01*
X8539535Y-22199862D01*
X8600138Y-22260465D01*
X8627304Y-22276149D01*
X8674359Y-22303317D01*
X8674361Y-22303317D01*
X8674362Y-22303318D01*
X8739651Y-22320812D01*
X8757143Y-22325499D01*
X8757144Y-22325500D01*
X8757147Y-22325500D01*
X8842856Y-22325500D01*
X8842856Y-22325499D01*
X8925638Y-22303318D01*
X8999862Y-22260465D01*
X9060465Y-22199862D01*
X9103318Y-22125638D01*
X9125499Y-22042856D01*
X9125500Y-22042856D01*
X9125500Y-21957144D01*
X9125499Y-21957143D01*
X9110748Y-21902091D01*
X9103318Y-21874362D01*
X9103317Y-21874361D01*
X9103317Y-21874359D01*
X9060464Y-21800137D01*
X8999862Y-21739535D01*
X8925640Y-21696682D01*
X8925636Y-21696681D01*
X8842856Y-21674500D01*
X8842853Y-21674500D01*
X8757147Y-21674500D01*
X8757146Y-21674500D01*
X8729415Y-21681930D01*
X8692233Y-21677034D01*
X8682086Y-21669247D01*
X7964852Y-20952012D01*
X7950500Y-20917364D01*
X7950500Y-17753319D01*
X7964852Y-17718671D01*
X7972282Y-17712574D01*
X7972782Y-17712240D01*
X8009565Y-17704928D01*
X8027218Y-17712240D01*
X8027718Y-17712574D01*
X8048557Y-17743754D01*
X8049500Y-17753318D01*
X8049500Y-19579936D01*
X8055280Y-19593889D01*
X8056437Y-19596682D01*
X8056437Y-19596684D01*
X8072409Y-19635246D01*
X8072410Y-19635248D01*
X8072412Y-19635252D01*
X8072414Y-19635254D01*
X8094246Y-19657086D01*
X8108598Y-19691734D01*
X8106929Y-19704413D01*
X8099500Y-19732144D01*
X8099500Y-19817856D01*
X8121681Y-19900636D01*
X8121682Y-19900640D01*
X8154307Y-19957147D01*
X8164535Y-19974862D01*
X8225138Y-20035465D01*
X8237940Y-20042856D01*
X8299359Y-20078317D01*
X8299362Y-20078318D01*
X8369983Y-20097241D01*
X8399736Y-20120071D01*
X8404631Y-20157253D01*
X8399737Y-20169070D01*
X8396682Y-20174361D01*
X8396681Y-20174363D01*
X8374500Y-20257143D01*
X8374500Y-20342856D01*
X8396681Y-20425636D01*
X8396682Y-20425640D01*
X8429589Y-20482635D01*
X8439535Y-20499862D01*
X8500138Y-20560465D01*
X8527304Y-20576149D01*
X8574359Y-20603317D01*
X8574361Y-20603317D01*
X8574362Y-20603318D01*
X8638789Y-20620581D01*
X8657143Y-20625499D01*
X8657144Y-20625500D01*
X8657147Y-20625500D01*
X8742856Y-20625500D01*
X8742856Y-20625499D01*
X8825638Y-20603318D01*
X8899862Y-20560465D01*
X8960465Y-20499862D01*
X8974819Y-20475000D01*
X9004572Y-20452170D01*
X9017254Y-20450500D01*
X9134934Y-20450500D01*
X9134936Y-20450500D01*
X9153389Y-20442856D01*
X9157846Y-20441010D01*
X9157848Y-20441009D01*
X9190252Y-20427588D01*
X9442787Y-20175052D01*
X9477433Y-20160701D01*
X9512081Y-20175053D01*
X9526433Y-20209701D01*
X9519868Y-20234201D01*
X9496682Y-20274359D01*
X9496681Y-20274363D01*
X9474500Y-20357143D01*
X9474500Y-20442856D01*
X9496681Y-20525636D01*
X9496682Y-20525640D01*
X9539326Y-20599500D01*
X9539535Y-20599862D01*
X9600138Y-20660465D01*
X9613037Y-20667912D01*
X9674359Y-20703317D01*
X9674361Y-20703317D01*
X9674362Y-20703318D01*
X9739651Y-20720812D01*
X9757143Y-20725499D01*
X9757144Y-20725500D01*
X9757147Y-20725500D01*
X9842856Y-20725500D01*
X9842856Y-20725499D01*
X9925638Y-20703318D01*
X9999862Y-20660465D01*
X10060465Y-20599862D01*
X10103318Y-20525638D01*
X10125499Y-20442856D01*
X10125500Y-20442856D01*
X10125500Y-20357144D01*
X10125499Y-20357143D01*
X10107384Y-20289536D01*
X10103318Y-20274362D01*
X10103317Y-20274361D01*
X10103317Y-20274359D01*
X10074325Y-20224144D01*
X10060465Y-20200138D01*
X9999862Y-20139535D01*
X9974998Y-20125179D01*
X9952169Y-20095426D01*
X9950500Y-20082745D01*
X9950500Y-18095066D01*
X9950499Y-18095062D01*
X9945351Y-18082635D01*
X9927587Y-18039749D01*
X9927587Y-18039748D01*
X9822134Y-17934295D01*
X9711487Y-17823647D01*
X9697135Y-17788999D01*
X9711487Y-17754351D01*
X9746135Y-17739999D01*
X9909845Y-17739999D01*
X9909845Y-17739998D01*
X9939018Y-17734197D01*
X9939023Y-17734195D01*
X9972775Y-17711642D01*
X10009557Y-17704324D01*
X10027222Y-17711641D01*
X10060980Y-17734197D01*
X10090153Y-17739999D01*
X10309843Y-17739999D01*
X10309844Y-17739998D01*
X10339017Y-17734197D01*
X10339018Y-17734196D01*
X10372324Y-17711942D01*
X10409107Y-17704625D01*
X10426738Y-17711920D01*
X10427541Y-17712455D01*
X10427542Y-17712457D01*
X10427691Y-17712556D01*
X10448551Y-17743721D01*
X10449500Y-17753319D01*
X10449500Y-19482745D01*
X10435148Y-19517393D01*
X10425001Y-19525180D01*
X10400141Y-19539533D01*
X10400134Y-19539538D01*
X10339536Y-19600137D01*
X10339535Y-19600137D01*
X10296682Y-19674359D01*
X10296681Y-19674363D01*
X10274500Y-19757143D01*
X10274500Y-19842856D01*
X10296681Y-19925636D01*
X10296682Y-19925640D01*
X10324892Y-19974500D01*
X10339535Y-19999862D01*
X10400138Y-20060465D01*
X10412086Y-20067363D01*
X10474359Y-20103317D01*
X10474361Y-20103317D01*
X10474362Y-20103318D01*
X10515710Y-20114397D01*
X10557143Y-20125499D01*
X10557144Y-20125500D01*
X10557147Y-20125500D01*
X10642856Y-20125500D01*
X10642856Y-20125499D01*
X10725638Y-20103318D01*
X10799862Y-20060465D01*
X10839097Y-20021229D01*
X10873742Y-20006879D01*
X10908389Y-20021229D01*
X10908391Y-20021231D01*
X11069246Y-20182086D01*
X11083598Y-20216734D01*
X11081929Y-20229413D01*
X11074500Y-20257144D01*
X11074500Y-20342856D01*
X11096681Y-20425636D01*
X11096682Y-20425640D01*
X11129589Y-20482635D01*
X11139535Y-20499862D01*
X11200138Y-20560465D01*
X11227304Y-20576149D01*
X11274359Y-20603317D01*
X11274361Y-20603317D01*
X11274362Y-20603318D01*
X11338789Y-20620581D01*
X11357143Y-20625499D01*
X11357144Y-20625500D01*
X11357147Y-20625500D01*
X11442856Y-20625500D01*
X11442856Y-20625499D01*
X11525638Y-20603318D01*
X11599862Y-20560465D01*
X11653184Y-20507143D01*
X11874500Y-20507143D01*
X11874500Y-20592856D01*
X11896681Y-20675636D01*
X11896682Y-20675640D01*
X11939535Y-20749862D01*
X12000138Y-20810465D01*
X12027304Y-20826149D01*
X12074359Y-20853317D01*
X12074361Y-20853317D01*
X12074362Y-20853318D01*
X12129418Y-20868070D01*
X12157143Y-20875499D01*
X12157144Y-20875500D01*
X12157147Y-20875500D01*
X12242855Y-20875500D01*
X12261156Y-20870595D01*
X12270581Y-20868070D01*
X12307763Y-20872964D01*
X12317912Y-20880752D01*
X18835148Y-27397987D01*
X18849500Y-27432635D01*
X18849500Y-35682745D01*
X18835148Y-35717393D01*
X18825001Y-35725180D01*
X18800141Y-35739533D01*
X18800134Y-35739538D01*
X18739536Y-35800137D01*
X18739535Y-35800137D01*
X18696682Y-35874359D01*
X18696681Y-35874363D01*
X18674500Y-35957143D01*
X18674500Y-36042856D01*
X18696681Y-36125636D01*
X18696682Y-36125640D01*
X18739535Y-36199862D01*
X18800138Y-36260465D01*
X18827304Y-36276149D01*
X18874359Y-36303317D01*
X18874361Y-36303317D01*
X18874362Y-36303318D01*
X18939651Y-36320812D01*
X18957143Y-36325499D01*
X18957144Y-36325500D01*
X18957147Y-36325500D01*
X19042856Y-36325500D01*
X19042856Y-36325499D01*
X19125638Y-36303318D01*
X19199862Y-36260465D01*
X19260465Y-36199862D01*
X19303318Y-36125638D01*
X19325499Y-36042856D01*
X19325500Y-36042856D01*
X19325500Y-35957144D01*
X19325499Y-35957143D01*
X19303318Y-35874363D01*
X19303317Y-35874359D01*
X19260464Y-35800137D01*
X19199865Y-35739538D01*
X19199862Y-35739535D01*
X19174998Y-35725179D01*
X19152169Y-35695426D01*
X19150500Y-35682745D01*
X19150500Y-27320066D01*
X19150499Y-27320062D01*
X19127587Y-27264749D01*
X19127586Y-27264747D01*
X14851423Y-22988583D01*
X14819983Y-22957143D01*
X18874500Y-22957143D01*
X18874500Y-23042856D01*
X18896681Y-23125636D01*
X18896682Y-23125640D01*
X18939535Y-23199862D01*
X19000138Y-23260465D01*
X19027304Y-23276149D01*
X19074359Y-23303317D01*
X19074361Y-23303317D01*
X19074362Y-23303318D01*
X19139651Y-23320812D01*
X19157143Y-23325499D01*
X19157144Y-23325500D01*
X19157147Y-23325500D01*
X19242856Y-23325500D01*
X19242856Y-23325499D01*
X19325638Y-23303318D01*
X19399862Y-23260465D01*
X19460465Y-23199862D01*
X19503318Y-23125638D01*
X19525499Y-23042856D01*
X19525500Y-23042856D01*
X19525500Y-22957144D01*
X19525499Y-22957143D01*
X19520812Y-22939651D01*
X19503318Y-22874362D01*
X19503317Y-22874361D01*
X19503317Y-22874359D01*
X19475107Y-22825499D01*
X19460465Y-22800138D01*
X19399862Y-22739535D01*
X19372191Y-22723559D01*
X19325640Y-22696682D01*
X19325636Y-22696681D01*
X19242856Y-22674500D01*
X19242853Y-22674500D01*
X19157147Y-22674500D01*
X19157144Y-22674500D01*
X19074363Y-22696681D01*
X19074359Y-22696682D01*
X19000137Y-22739535D01*
X19000137Y-22739536D01*
X18939536Y-22800137D01*
X18939535Y-22800137D01*
X18896682Y-22874359D01*
X18896681Y-22874363D01*
X18874500Y-22957143D01*
X14819983Y-22957143D01*
X12530752Y-20667912D01*
X12516400Y-20633264D01*
X12518070Y-20620581D01*
X12525500Y-20592854D01*
X12525500Y-20507144D01*
X12525499Y-20507143D01*
X12510769Y-20452170D01*
X12503318Y-20424362D01*
X12503317Y-20424361D01*
X12503317Y-20424359D01*
X12485091Y-20392791D01*
X12480196Y-20355609D01*
X12503026Y-20325856D01*
X12540207Y-20320961D01*
X12557147Y-20325500D01*
X12642856Y-20325500D01*
X12642856Y-20325499D01*
X12725638Y-20303318D01*
X12799862Y-20260465D01*
X12860465Y-20199862D01*
X12903318Y-20125638D01*
X12925499Y-20042856D01*
X12925500Y-20042856D01*
X12925500Y-19957144D01*
X12925499Y-19957143D01*
X12910359Y-19900640D01*
X12903318Y-19874362D01*
X12903317Y-19874361D01*
X12903317Y-19874359D01*
X12860464Y-19800137D01*
X12799862Y-19739535D01*
X12725640Y-19696682D01*
X12725636Y-19696681D01*
X12642856Y-19674500D01*
X12642853Y-19674500D01*
X12557147Y-19674500D01*
X12557144Y-19674500D01*
X12474363Y-19696681D01*
X12474359Y-19696682D01*
X12400137Y-19739535D01*
X12400137Y-19739536D01*
X12339536Y-19800137D01*
X12339535Y-19800137D01*
X12296682Y-19874359D01*
X12296681Y-19874363D01*
X12274500Y-19957143D01*
X12274500Y-20042856D01*
X12296681Y-20125636D01*
X12296681Y-20125637D01*
X12314909Y-20157209D01*
X12319803Y-20194391D01*
X12296972Y-20224144D01*
X12259790Y-20229038D01*
X12242855Y-20224500D01*
X12242853Y-20224500D01*
X12157147Y-20224500D01*
X12157144Y-20224500D01*
X12074363Y-20246681D01*
X12074359Y-20246682D01*
X12000137Y-20289535D01*
X12000137Y-20289536D01*
X11939536Y-20350137D01*
X11939535Y-20350137D01*
X11896682Y-20424359D01*
X11896681Y-20424363D01*
X11874500Y-20507143D01*
X11653184Y-20507143D01*
X11660465Y-20499862D01*
X11703318Y-20425638D01*
X11725499Y-20342856D01*
X11725500Y-20342856D01*
X11725500Y-20274500D01*
X11739852Y-20239852D01*
X11774500Y-20225500D01*
X11842856Y-20225500D01*
X11842856Y-20225499D01*
X11925638Y-20203318D01*
X11999862Y-20160465D01*
X12060465Y-20099862D01*
X12103318Y-20025638D01*
X12125499Y-19942856D01*
X12125500Y-19942856D01*
X12125500Y-19857144D01*
X12125499Y-19857143D01*
X12114840Y-19817364D01*
X12103318Y-19774362D01*
X12103317Y-19774361D01*
X12103317Y-19774359D01*
X12060464Y-19700137D01*
X11999865Y-19639538D01*
X11999862Y-19639535D01*
X11999858Y-19639532D01*
X11998349Y-19638375D01*
X11997866Y-19637539D01*
X11997591Y-19637264D01*
X11997664Y-19637190D01*
X11979597Y-19605897D01*
X11989303Y-19569671D01*
X12021781Y-19550919D01*
X12028178Y-19550500D01*
X12882746Y-19550500D01*
X12917394Y-19564852D01*
X12925181Y-19575000D01*
X12939535Y-19599862D01*
X13000138Y-19660465D01*
X13027304Y-19676149D01*
X13074359Y-19703317D01*
X13074361Y-19703317D01*
X13074362Y-19703318D01*
X13139651Y-19720812D01*
X13157143Y-19725499D01*
X13157144Y-19725500D01*
X13157147Y-19725500D01*
X13242856Y-19725500D01*
X13242856Y-19725499D01*
X13325638Y-19703318D01*
X13399862Y-19660465D01*
X13460465Y-19599862D01*
X13503318Y-19525638D01*
X13525499Y-19442856D01*
X13525500Y-19442856D01*
X13525500Y-19357144D01*
X13525499Y-19357143D01*
X13520279Y-19337660D01*
X13503318Y-19274362D01*
X13503317Y-19274361D01*
X13503317Y-19274359D01*
X13460464Y-19200137D01*
X13399862Y-19139535D01*
X13325640Y-19096682D01*
X13325636Y-19096681D01*
X13242856Y-19074500D01*
X13242853Y-19074500D01*
X13157147Y-19074500D01*
X13157144Y-19074500D01*
X13074363Y-19096681D01*
X13074359Y-19096682D01*
X13000137Y-19139535D01*
X13000137Y-19139536D01*
X12939536Y-19200137D01*
X12939535Y-19200137D01*
X12925181Y-19225000D01*
X12895428Y-19247830D01*
X12882746Y-19249500D01*
X11882634Y-19249500D01*
X11847986Y-19235148D01*
X11564851Y-18952012D01*
X11550499Y-18917364D01*
X11550499Y-17753319D01*
X11564851Y-17718671D01*
X11572281Y-17712574D01*
X11572781Y-17712240D01*
X11609564Y-17704928D01*
X11627222Y-17712243D01*
X11627541Y-17712456D01*
X11627542Y-17712457D01*
X11660786Y-17734669D01*
X11690100Y-17740500D01*
X11909897Y-17740499D01*
X11939212Y-17734669D01*
X11972456Y-17712457D01*
X11972459Y-17712452D01*
X11972774Y-17712242D01*
X12009557Y-17704925D01*
X12027197Y-17712226D01*
X12027541Y-17712455D01*
X12027542Y-17712457D01*
X12027700Y-17712562D01*
X12048553Y-17743731D01*
X12049500Y-17753319D01*
X12049500Y-18454937D01*
X12057603Y-18474497D01*
X12057603Y-18474500D01*
X12072411Y-18510252D01*
X12072412Y-18510253D01*
X12514744Y-18952584D01*
X12514745Y-18952584D01*
X12514748Y-18952587D01*
X12525757Y-18957147D01*
X12570064Y-18975500D01*
X12570066Y-18975500D01*
X15104934Y-18975500D01*
X15104936Y-18975500D01*
X15127848Y-18966009D01*
X15160252Y-18952588D01*
X15381419Y-18731420D01*
X15602585Y-18510255D01*
X15602585Y-18510254D01*
X15602587Y-18510252D01*
X15617396Y-18474500D01*
X15625500Y-18454936D01*
X15625500Y-17795064D01*
X15625499Y-17795061D01*
X15615144Y-17770063D01*
X15615143Y-17770061D01*
X15608544Y-17754129D01*
X15602588Y-17739748D01*
X15159872Y-17297032D01*
X15145520Y-17262384D01*
X15159872Y-17227736D01*
X15181838Y-17215054D01*
X15225638Y-17203318D01*
X15299862Y-17160465D01*
X15360465Y-17099862D01*
X15403318Y-17025638D01*
X15425499Y-16942856D01*
X15425500Y-16942856D01*
X15425500Y-16857144D01*
X15425499Y-16857143D01*
X15417020Y-16825500D01*
X15403318Y-16774362D01*
X15403317Y-16774361D01*
X15403317Y-16774359D01*
X15360464Y-16700137D01*
X15299862Y-16639535D01*
X15225639Y-16596682D01*
X15148000Y-16575878D01*
X15126035Y-16563196D01*
X15071987Y-16509148D01*
X15057635Y-16474500D01*
X15071987Y-16439852D01*
X15106635Y-16425500D01*
X15142856Y-16425500D01*
X15142856Y-16425499D01*
X15225638Y-16403318D01*
X15299862Y-16360465D01*
X15360465Y-16299862D01*
X15403318Y-16225638D01*
X15425499Y-16142856D01*
X15425500Y-16142856D01*
X15425500Y-16057144D01*
X15425499Y-16057143D01*
X15417020Y-16025500D01*
X15403318Y-15974362D01*
X15403317Y-15974361D01*
X15403317Y-15974359D01*
X15367209Y-15911819D01*
X15360465Y-15900138D01*
X15299862Y-15839535D01*
X15274998Y-15825179D01*
X15252169Y-15795426D01*
X15250500Y-15782745D01*
X15250500Y-15616676D01*
X15264852Y-15582028D01*
X15299500Y-15567676D01*
X15323997Y-15574239D01*
X15374362Y-15603318D01*
X15424215Y-15616676D01*
X15457143Y-15625499D01*
X15457144Y-15625500D01*
X15457147Y-15625500D01*
X15542856Y-15625500D01*
X15542856Y-15625499D01*
X15625638Y-15603318D01*
X15651001Y-15588674D01*
X15688181Y-15583779D01*
X15717935Y-15606609D01*
X15724500Y-15631110D01*
X15724500Y-18513050D01*
X15717936Y-18537546D01*
X15696682Y-18574362D01*
X15696680Y-18574366D01*
X15674500Y-18657143D01*
X15674500Y-18742856D01*
X15696681Y-18825636D01*
X15696682Y-18825640D01*
X15724813Y-18874363D01*
X15739535Y-18899862D01*
X15800138Y-18960465D01*
X15826178Y-18975499D01*
X15874359Y-19003317D01*
X15874361Y-19003317D01*
X15874362Y-19003318D01*
X15939651Y-19020812D01*
X15957143Y-19025499D01*
X15957144Y-19025500D01*
X15957147Y-19025500D01*
X16042856Y-19025500D01*
X16042856Y-19025499D01*
X16125638Y-19003318D01*
X16199862Y-18960465D01*
X16260465Y-18899862D01*
X16303318Y-18825638D01*
X16325499Y-18742856D01*
X16325500Y-18742856D01*
X16325500Y-14735436D01*
X16306501Y-14664535D01*
X16305021Y-14659011D01*
X16305020Y-14659009D01*
X16305020Y-14659008D01*
X16265459Y-14590488D01*
X15809513Y-14134542D01*
X15809507Y-14134537D01*
X15793851Y-14125499D01*
X15793851Y-14125498D01*
X15793849Y-14125498D01*
X15740991Y-14094979D01*
X15740987Y-14094978D01*
X15664564Y-14074500D01*
X15664562Y-14074500D01*
X14464562Y-14074500D01*
X14049499Y-14074500D01*
X14014851Y-14060148D01*
X14000499Y-14025500D01*
X14000499Y-13850105D01*
X14000499Y-13850102D01*
X13994669Y-13820787D01*
X13994667Y-13820784D01*
X13994667Y-13820783D01*
X13972457Y-13787543D01*
X13939212Y-13765330D01*
X13909901Y-13759500D01*
X13690105Y-13759500D01*
X13690104Y-13759500D01*
X13690102Y-13759501D01*
X13660787Y-13765331D01*
X13660786Y-13765331D01*
X13660784Y-13765332D01*
X13660783Y-13765332D01*
X13627222Y-13787757D01*
X13590440Y-13795073D01*
X13572777Y-13787757D01*
X13572452Y-13787540D01*
X13552936Y-13774500D01*
X13539212Y-13765330D01*
X13509901Y-13759500D01*
X13290105Y-13759500D01*
X13290104Y-13759500D01*
X13290102Y-13759501D01*
X13260787Y-13765331D01*
X13260786Y-13765331D01*
X13260784Y-13765332D01*
X13260783Y-13765332D01*
X13227222Y-13787757D01*
X13190440Y-13795073D01*
X13172777Y-13787757D01*
X13172452Y-13787540D01*
X13152936Y-13774500D01*
X13139212Y-13765330D01*
X13109901Y-13759500D01*
X12890105Y-13759500D01*
X12890104Y-13759500D01*
X12890102Y-13759501D01*
X12874575Y-13762589D01*
X12860786Y-13765331D01*
X12827221Y-13787758D01*
X12790438Y-13795073D01*
X12772776Y-13787757D01*
X12772451Y-13787540D01*
X12752935Y-13774500D01*
X12739211Y-13765330D01*
X12709900Y-13759500D01*
X12490104Y-13759500D01*
X12490103Y-13759500D01*
X12490101Y-13759501D01*
X12460786Y-13765331D01*
X12460785Y-13765331D01*
X12460783Y-13765332D01*
X12426769Y-13788058D01*
X12389987Y-13795373D01*
X12372326Y-13788058D01*
X12339016Y-13765802D01*
X12309844Y-13760000D01*
X12090154Y-13760000D01*
X12090153Y-13760001D01*
X12060980Y-13765802D01*
X12060976Y-13765804D01*
X12027220Y-13788359D01*
X11990438Y-13795674D01*
X11972776Y-13788358D01*
X11939018Y-13765802D01*
X11909844Y-13760000D01*
X11690154Y-13760000D01*
X11690153Y-13760001D01*
X11660980Y-13765802D01*
X11660973Y-13765805D01*
X11627671Y-13788057D01*
X11590889Y-13795373D01*
X11573227Y-13788057D01*
X11539215Y-13765331D01*
X11539211Y-13765330D01*
X11509900Y-13759500D01*
X11290104Y-13759500D01*
X11290103Y-13759500D01*
X11290101Y-13759501D01*
X11260786Y-13765331D01*
X11260785Y-13765331D01*
X11260783Y-13765332D01*
X11260782Y-13765332D01*
X11227221Y-13787757D01*
X11190439Y-13795073D01*
X11172776Y-13787757D01*
X11172451Y-13787540D01*
X11152935Y-13774500D01*
X11139211Y-13765330D01*
X11109900Y-13759500D01*
X10890104Y-13759500D01*
X10890103Y-13759500D01*
X10890101Y-13759501D01*
X10860786Y-13765331D01*
X10860785Y-13765331D01*
X10860783Y-13765332D01*
X10826769Y-13788058D01*
X10789987Y-13795373D01*
X10772326Y-13788058D01*
X10739016Y-13765802D01*
X10709844Y-13760000D01*
X10490154Y-13760000D01*
X10490153Y-13760001D01*
X10460980Y-13765802D01*
X10460976Y-13765804D01*
X10427220Y-13788359D01*
X10390438Y-13795674D01*
X10372776Y-13788358D01*
X10339018Y-13765802D01*
X10309845Y-13760000D01*
X10296134Y-13760000D01*
X10261486Y-13745648D01*
X10247134Y-13711000D01*
X10261485Y-13676353D01*
X11272987Y-12664852D01*
X11307635Y-12650500D01*
X14082746Y-12650500D01*
X14117394Y-12664852D01*
X14125181Y-12675000D01*
X14139535Y-12699862D01*
X14200138Y-12760465D01*
X14238536Y-12782634D01*
X14250666Y-12789637D01*
X14273496Y-12819390D01*
X14268601Y-12856572D01*
X14238849Y-12879402D01*
X14174361Y-12896682D01*
X14174359Y-12896682D01*
X14100137Y-12939535D01*
X14100137Y-12939536D01*
X14039536Y-13000137D01*
X14039535Y-13000137D01*
X13996682Y-13074359D01*
X13996681Y-13074363D01*
X13974500Y-13157143D01*
X13974500Y-13242856D01*
X13996681Y-13325636D01*
X13996682Y-13325640D01*
X14024892Y-13374500D01*
X14039535Y-13399862D01*
X14100138Y-13460465D01*
X14127304Y-13476149D01*
X14174359Y-13503317D01*
X14174361Y-13503317D01*
X14174362Y-13503318D01*
X14239651Y-13520812D01*
X14257143Y-13525499D01*
X14257144Y-13525500D01*
X14257147Y-13525500D01*
X14342856Y-13525500D01*
X14342856Y-13525499D01*
X14425638Y-13503318D01*
X14499862Y-13460465D01*
X14560465Y-13399862D01*
X14603318Y-13325638D01*
X14625499Y-13242856D01*
X14625500Y-13242856D01*
X14625500Y-13157144D01*
X14625499Y-13157143D01*
X14620812Y-13139651D01*
X14603318Y-13074362D01*
X14603317Y-13074361D01*
X14603317Y-13074359D01*
X14576149Y-13027304D01*
X14560465Y-13000138D01*
X14499862Y-12939535D01*
X14449333Y-12910362D01*
X14426503Y-12880609D01*
X14431398Y-12843427D01*
X14461151Y-12820597D01*
X14465656Y-12819390D01*
X14525638Y-12803318D01*
X14599862Y-12760465D01*
X14660465Y-12699862D01*
X14703318Y-12625638D01*
X14725499Y-12542856D01*
X14725500Y-12542856D01*
X14725500Y-12457144D01*
X14725499Y-12457143D01*
X14703319Y-12374366D01*
X14703318Y-12374362D01*
X14693377Y-12357143D01*
X15574500Y-12357143D01*
X15574500Y-12442856D01*
X15596681Y-12525636D01*
X15596682Y-12525640D01*
X15624892Y-12574500D01*
X15639535Y-12599862D01*
X15700138Y-12660465D01*
X15707737Y-12664852D01*
X15774359Y-12703317D01*
X15774361Y-12703317D01*
X15774362Y-12703318D01*
X15839651Y-12720812D01*
X15857143Y-12725499D01*
X15857144Y-12725500D01*
X15857147Y-12725500D01*
X15942856Y-12725500D01*
X15942856Y-12725499D01*
X16025638Y-12703318D01*
X16099862Y-12660465D01*
X16160465Y-12599862D01*
X16203318Y-12525638D01*
X16225499Y-12442856D01*
X16225500Y-12442856D01*
X16225500Y-12357144D01*
X16225499Y-12357143D01*
X16216886Y-12325000D01*
X16203318Y-12274362D01*
X16203317Y-12274361D01*
X16203317Y-12274359D01*
X16160464Y-12200137D01*
X16099862Y-12139535D01*
X16025640Y-12096682D01*
X16025636Y-12096681D01*
X15942856Y-12074500D01*
X15942853Y-12074500D01*
X15857147Y-12074500D01*
X15857144Y-12074500D01*
X15774363Y-12096681D01*
X15774359Y-12096682D01*
X15700137Y-12139535D01*
X15700137Y-12139536D01*
X15639536Y-12200137D01*
X15639535Y-12200137D01*
X15596682Y-12274359D01*
X15596681Y-12274363D01*
X15574500Y-12357143D01*
X14693377Y-12357143D01*
X14660465Y-12300138D01*
X14599862Y-12239535D01*
X14525640Y-12196682D01*
X14525636Y-12196681D01*
X14442856Y-12174500D01*
X14442853Y-12174500D01*
X14357147Y-12174500D01*
X14357144Y-12174500D01*
X14274363Y-12196681D01*
X14274359Y-12196682D01*
X14200137Y-12239535D01*
X14200137Y-12239536D01*
X14139536Y-12300137D01*
X14139535Y-12300137D01*
X14125181Y-12325000D01*
X14095428Y-12347830D01*
X14082746Y-12349500D01*
X11195019Y-12349500D01*
X11160371Y-12335148D01*
X11146019Y-12300500D01*
X11149750Y-12281746D01*
X11150500Y-12279936D01*
X11150500Y-11417253D01*
X11164852Y-11382605D01*
X11174993Y-11374822D01*
X11199862Y-11360465D01*
X11260465Y-11299862D01*
X11303318Y-11225638D01*
X11325499Y-11142856D01*
X11325500Y-11142856D01*
X11325500Y-11057144D01*
X11325499Y-11057143D01*
X11303318Y-10974363D01*
X11303317Y-10974359D01*
X11260464Y-10900137D01*
X11199862Y-10839535D01*
X11125640Y-10796682D01*
X11125636Y-10796681D01*
X11042856Y-10774500D01*
X11042853Y-10774500D01*
X10957147Y-10774500D01*
X10957144Y-10774500D01*
X10874363Y-10796681D01*
X10874359Y-10796682D01*
X10824000Y-10825758D01*
X10786818Y-10830653D01*
X10757065Y-10807823D01*
X10750500Y-10783323D01*
X10750500Y-10767253D01*
X10764852Y-10732605D01*
X10774993Y-10724822D01*
X10799862Y-10710465D01*
X10853184Y-10657143D01*
X13474500Y-10657143D01*
X13474500Y-10742856D01*
X13496681Y-10825636D01*
X13496682Y-10825640D01*
X13533364Y-10889173D01*
X13539535Y-10899862D01*
X13600138Y-10960465D01*
X13624210Y-10974363D01*
X13674359Y-11003317D01*
X13674361Y-11003317D01*
X13674362Y-11003318D01*
X13739651Y-11020812D01*
X13757143Y-11025499D01*
X13757144Y-11025500D01*
X13757147Y-11025500D01*
X13842856Y-11025500D01*
X13842856Y-11025499D01*
X13925638Y-11003318D01*
X13999862Y-10960465D01*
X14060465Y-10899862D01*
X14103318Y-10825638D01*
X14125499Y-10742856D01*
X14125500Y-10742856D01*
X14125500Y-10657144D01*
X14125499Y-10657143D01*
X14110151Y-10599863D01*
X14103318Y-10574362D01*
X14103317Y-10574361D01*
X14103317Y-10574359D01*
X14076149Y-10527304D01*
X14060465Y-10500138D01*
X13999862Y-10439535D01*
X13925640Y-10396682D01*
X13925636Y-10396681D01*
X13842856Y-10374500D01*
X13842853Y-10374500D01*
X13757147Y-10374500D01*
X13757144Y-10374500D01*
X13674363Y-10396681D01*
X13674359Y-10396682D01*
X13600137Y-10439535D01*
X13600137Y-10439536D01*
X13539536Y-10500137D01*
X13539535Y-10500137D01*
X13496682Y-10574359D01*
X13496681Y-10574363D01*
X13474500Y-10657143D01*
X10853184Y-10657143D01*
X10860465Y-10649862D01*
X10903318Y-10575638D01*
X10925499Y-10492856D01*
X10925500Y-10492856D01*
X10925500Y-10407144D01*
X10925499Y-10407143D01*
X10912102Y-10357144D01*
X10903318Y-10324362D01*
X10903317Y-10324361D01*
X10903317Y-10324359D01*
X10876802Y-10278435D01*
X10874451Y-10274363D01*
X10864509Y-10257143D01*
X14874500Y-10257143D01*
X14874500Y-10342856D01*
X14896681Y-10425636D01*
X14896682Y-10425640D01*
X14935488Y-10492853D01*
X14939535Y-10499862D01*
X15000138Y-10560465D01*
X15024210Y-10574363D01*
X15074359Y-10603317D01*
X15074361Y-10603317D01*
X15074362Y-10603318D01*
X15139651Y-10620812D01*
X15157143Y-10625499D01*
X15157144Y-10625500D01*
X15157147Y-10625500D01*
X15242856Y-10625500D01*
X15242856Y-10625499D01*
X15325638Y-10603318D01*
X15399862Y-10560465D01*
X15460465Y-10499862D01*
X15503318Y-10425638D01*
X15521671Y-10357143D01*
X16574500Y-10357143D01*
X16574500Y-10442856D01*
X16596681Y-10525636D01*
X16596682Y-10525640D01*
X16639535Y-10599862D01*
X16700138Y-10660465D01*
X16727304Y-10676149D01*
X16774359Y-10703317D01*
X16774361Y-10703317D01*
X16774362Y-10703318D01*
X16839651Y-10720812D01*
X16857143Y-10725499D01*
X16857144Y-10725500D01*
X16857147Y-10725500D01*
X16942856Y-10725500D01*
X16942856Y-10725499D01*
X17025638Y-10703318D01*
X17099862Y-10660465D01*
X17160465Y-10599862D01*
X17203318Y-10525638D01*
X17225499Y-10442856D01*
X17225500Y-10442856D01*
X17225500Y-10357144D01*
X17225499Y-10357143D01*
X17216715Y-10324362D01*
X17203318Y-10274362D01*
X17203317Y-10274361D01*
X17203317Y-10274359D01*
X17160464Y-10200137D01*
X17099862Y-10139535D01*
X17025640Y-10096682D01*
X17025636Y-10096681D01*
X16942856Y-10074500D01*
X16942853Y-10074500D01*
X16857147Y-10074500D01*
X16857144Y-10074500D01*
X16774363Y-10096681D01*
X16774359Y-10096682D01*
X16700137Y-10139535D01*
X16700137Y-10139536D01*
X16639536Y-10200137D01*
X16639535Y-10200137D01*
X16596682Y-10274359D01*
X16596681Y-10274363D01*
X16574500Y-10357143D01*
X15521671Y-10357143D01*
X15525499Y-10342857D01*
X15525500Y-10342856D01*
X15525500Y-10257144D01*
X15525499Y-10257143D01*
X15520812Y-10239651D01*
X15503318Y-10174362D01*
X15503317Y-10174361D01*
X15503317Y-10174359D01*
X15460464Y-10100137D01*
X15399862Y-10039535D01*
X15325640Y-9996682D01*
X15325636Y-9996681D01*
X15242856Y-9974500D01*
X15242853Y-9974500D01*
X15157147Y-9974500D01*
X15157144Y-9974500D01*
X15074363Y-9996681D01*
X15074359Y-9996682D01*
X15000137Y-10039535D01*
X15000137Y-10039536D01*
X14939536Y-10100137D01*
X14939535Y-10100137D01*
X14896682Y-10174359D01*
X14896681Y-10174363D01*
X14874500Y-10257143D01*
X10864509Y-10257143D01*
X10860465Y-10250138D01*
X10799862Y-10189535D01*
X10725640Y-10146682D01*
X10725636Y-10146681D01*
X10642856Y-10124500D01*
X10642853Y-10124500D01*
X10557147Y-10124500D01*
X10557144Y-10124500D01*
X10474363Y-10146681D01*
X10474359Y-10146682D01*
X10400137Y-10189535D01*
X10400137Y-10189536D01*
X10339536Y-10250137D01*
X10339535Y-10250137D01*
X10296682Y-10324359D01*
X10296681Y-10324363D01*
X10274500Y-10407143D01*
X10274500Y-10492856D01*
X10296681Y-10575636D01*
X10296682Y-10575640D01*
X10339535Y-10649862D01*
X10400138Y-10710465D01*
X10425000Y-10724819D01*
X10447830Y-10754570D01*
X10449500Y-10767253D01*
X10449500Y-10783323D01*
X10435148Y-10817971D01*
X10400500Y-10832323D01*
X10376000Y-10825758D01*
X10325640Y-10796682D01*
X10325636Y-10796681D01*
X10242856Y-10774500D01*
X10242853Y-10774500D01*
X10157147Y-10774500D01*
X10157144Y-10774500D01*
X10074363Y-10796681D01*
X10074359Y-10796682D01*
X10024000Y-10825758D01*
X9986818Y-10830653D01*
X9957065Y-10807823D01*
X9950500Y-10783323D01*
X9950500Y-10767253D01*
X9964852Y-10732605D01*
X9974993Y-10724822D01*
X9999862Y-10710465D01*
X10060465Y-10649862D01*
X10103318Y-10575638D01*
X10125499Y-10492856D01*
X10125500Y-10492856D01*
X10125500Y-10407144D01*
X10125499Y-10407143D01*
X10112102Y-10357144D01*
X10103318Y-10324362D01*
X10103317Y-10324361D01*
X10103317Y-10324359D01*
X10074449Y-10274359D01*
X10060465Y-10250138D01*
X9999862Y-10189535D01*
X9925640Y-10146682D01*
X9925636Y-10146681D01*
X9842856Y-10124500D01*
X9842853Y-10124500D01*
X9757147Y-10124500D01*
X9757144Y-10124500D01*
X9674363Y-10146681D01*
X9674359Y-10146682D01*
X9600137Y-10189535D01*
X9600137Y-10189536D01*
X9539536Y-10250137D01*
X9539535Y-10250137D01*
X9496682Y-10324359D01*
X9496681Y-10324363D01*
X9474500Y-10407143D01*
X9474500Y-10492856D01*
X9496681Y-10575636D01*
X9496682Y-10575640D01*
X9539535Y-10649862D01*
X9600138Y-10710465D01*
X9625000Y-10724819D01*
X9647830Y-10754570D01*
X9649500Y-10767253D01*
X9649500Y-10783323D01*
X9635148Y-10817971D01*
X9600500Y-10832323D01*
X9576000Y-10825758D01*
X9525640Y-10796682D01*
X9525636Y-10796681D01*
X9442856Y-10774500D01*
X9442853Y-10774500D01*
X9357147Y-10774500D01*
X9357144Y-10774500D01*
X9274363Y-10796681D01*
X9274359Y-10796682D01*
X9224000Y-10825758D01*
X9186818Y-10830653D01*
X9157065Y-10807823D01*
X9150500Y-10783323D01*
X9150500Y-10767253D01*
X9164852Y-10732605D01*
X9174993Y-10724822D01*
X9199862Y-10710465D01*
X9260465Y-10649862D01*
X9303318Y-10575638D01*
X9325499Y-10492856D01*
X9325500Y-10492856D01*
X9325500Y-10407144D01*
X9325499Y-10407143D01*
X9312102Y-10357144D01*
X9303318Y-10324362D01*
X9303317Y-10324361D01*
X9303317Y-10324359D01*
X9274449Y-10274359D01*
X9260465Y-10250138D01*
X9199862Y-10189535D01*
X9125640Y-10146682D01*
X9125636Y-10146681D01*
X9042856Y-10124500D01*
X9042853Y-10124500D01*
X8957147Y-10124500D01*
X8957144Y-10124500D01*
X8874363Y-10146681D01*
X8874359Y-10146682D01*
X8800137Y-10189535D01*
X8800137Y-10189536D01*
X8739536Y-10250137D01*
X8739535Y-10250137D01*
X8696682Y-10324359D01*
X8696681Y-10324363D01*
X8674500Y-10407143D01*
X8674500Y-10492856D01*
X8696681Y-10575636D01*
X8696682Y-10575640D01*
X8739535Y-10649862D01*
X8800138Y-10710465D01*
X8825000Y-10724819D01*
X8847830Y-10754570D01*
X8849500Y-10767253D01*
X8849500Y-10783323D01*
X8835148Y-10817971D01*
X8800500Y-10832323D01*
X8776000Y-10825758D01*
X8725640Y-10796682D01*
X8725636Y-10796681D01*
X8642856Y-10774500D01*
X8642853Y-10774500D01*
X8557147Y-10774500D01*
X8557144Y-10774500D01*
X8474363Y-10796681D01*
X8474359Y-10796682D01*
X8424000Y-10825758D01*
X8386818Y-10830653D01*
X8357065Y-10807823D01*
X8350500Y-10783323D01*
X8350500Y-10767253D01*
X8364852Y-10732605D01*
X8374993Y-10724822D01*
X8399862Y-10710465D01*
X8460465Y-10649862D01*
X8503318Y-10575638D01*
X8525499Y-10492856D01*
X8525500Y-10492856D01*
X8525500Y-10407144D01*
X8525499Y-10407143D01*
X8512102Y-10357144D01*
X8503318Y-10324362D01*
X8503317Y-10324361D01*
X8503317Y-10324359D01*
X8474449Y-10274359D01*
X8460465Y-10250138D01*
X8399862Y-10189535D01*
X8325640Y-10146682D01*
X8325636Y-10146681D01*
X8242856Y-10124500D01*
X8242853Y-10124500D01*
X8157147Y-10124500D01*
X8157144Y-10124500D01*
X8074363Y-10146681D01*
X8074359Y-10146682D01*
X8000137Y-10189535D01*
X8000137Y-10189536D01*
X7939536Y-10250137D01*
X7939535Y-10250137D01*
X7896682Y-10324359D01*
X7896681Y-10324363D01*
X7874500Y-10407143D01*
X7874500Y-10492856D01*
X7896681Y-10575636D01*
X7896682Y-10575640D01*
X7939535Y-10649862D01*
X8000138Y-10710465D01*
X8025000Y-10724819D01*
X8047830Y-10754570D01*
X8049500Y-10767253D01*
X8049500Y-10783323D01*
X8035148Y-10817971D01*
X8000500Y-10832323D01*
X7976000Y-10825758D01*
X7925640Y-10796682D01*
X7925636Y-10796681D01*
X7842856Y-10774500D01*
X7842853Y-10774500D01*
X7757147Y-10774500D01*
X7757144Y-10774500D01*
X7674363Y-10796681D01*
X7674359Y-10796682D01*
X7600137Y-10839535D01*
X7600137Y-10839536D01*
X7539536Y-10900137D01*
X7539535Y-10900137D01*
X7496682Y-10974359D01*
X7496681Y-10974363D01*
X7474500Y-11057143D01*
X7474500Y-11142856D01*
X7481929Y-11170582D01*
X7477034Y-11207764D01*
X7469247Y-11217912D01*
X6072414Y-12614745D01*
X6072411Y-12614750D01*
X6062147Y-12639533D01*
X6062146Y-12639535D01*
X6049500Y-12670062D01*
X6049500Y-13746680D01*
X6035148Y-13781328D01*
X6027725Y-13787421D01*
X6027545Y-13787540D01*
X6027542Y-13787543D01*
X6005330Y-13820786D01*
X6005330Y-13820787D01*
X5999500Y-13850095D01*
X5999500Y-13961127D01*
X5985148Y-13995775D01*
X5950500Y-14010127D01*
X5915852Y-13995775D01*
X5905074Y-13977108D01*
X5904546Y-13977327D01*
X5903317Y-13974359D01*
X5873174Y-13922151D01*
X5860465Y-13900138D01*
X5799862Y-13839535D01*
X5725640Y-13796682D01*
X5725636Y-13796681D01*
X5642856Y-13774500D01*
X5642853Y-13774500D01*
X5557147Y-13774500D01*
X5557144Y-13774500D01*
X5474363Y-13796681D01*
X5474359Y-13796682D01*
X5400137Y-13839535D01*
X5400137Y-13839536D01*
X5339536Y-13900137D01*
X5339535Y-13900137D01*
X5296682Y-13974359D01*
X5296681Y-13974363D01*
X5274500Y-14057143D01*
X5274500Y-14142856D01*
X5296681Y-14225636D01*
X5296682Y-14225640D01*
X5339535Y-14299862D01*
X5400138Y-14360465D01*
X5427304Y-14376149D01*
X5474359Y-14403317D01*
X5474361Y-14403317D01*
X5474362Y-14403318D01*
X5539651Y-14420812D01*
X5557143Y-14425499D01*
X5557144Y-14425500D01*
X5557147Y-14425500D01*
X5642856Y-14425500D01*
X5642856Y-14425499D01*
X5725638Y-14403318D01*
X5799862Y-14360465D01*
X5860465Y-14299862D01*
X5903318Y-14225638D01*
X5903318Y-14225636D01*
X5904546Y-14222673D01*
X5905551Y-14223089D01*
X5925992Y-14196441D01*
X5963173Y-14191538D01*
X5992930Y-14214363D01*
X5999500Y-14238871D01*
X5999500Y-15009894D01*
X5999501Y-15009898D01*
X6005331Y-15039213D01*
X6005331Y-15039214D01*
X6005332Y-15039215D01*
X6005332Y-15039216D01*
X6027542Y-15072456D01*
X6027543Y-15072457D01*
X6060787Y-15094669D01*
X6090101Y-15100500D01*
X6233009Y-15100499D01*
X6267657Y-15114851D01*
X6282009Y-15149499D01*
X6267658Y-15184146D01*
X6251219Y-15200586D01*
X6251217Y-15200588D01*
X5987660Y-15464144D01*
X5953012Y-15478496D01*
X5918364Y-15464144D01*
X5904012Y-15429496D01*
X5905681Y-15416817D01*
X5925500Y-15342853D01*
X5925500Y-15257147D01*
X5925500Y-15257144D01*
X5925499Y-15257143D01*
X5910345Y-15200587D01*
X5903318Y-15174362D01*
X5903317Y-15174361D01*
X5903317Y-15174359D01*
X5869098Y-15115091D01*
X5860465Y-15100138D01*
X5799862Y-15039535D01*
X5799304Y-15039213D01*
X5725640Y-14996682D01*
X5725636Y-14996681D01*
X5642856Y-14974500D01*
X5642853Y-14974500D01*
X5557147Y-14974500D01*
X5557140Y-14974500D01*
X5555885Y-14974665D01*
X5555270Y-14974500D01*
X5553936Y-14974500D01*
X5553936Y-14974142D01*
X5519662Y-14964951D01*
X5500918Y-14932468D01*
X5500500Y-14926083D01*
X5500500Y-14882144D01*
X5500499Y-14882143D01*
X5493801Y-14857147D01*
X5478318Y-14799362D01*
X5478317Y-14799361D01*
X5478317Y-14799359D01*
X5449242Y-14749001D01*
X5435465Y-14725138D01*
X5374862Y-14664535D01*
X5365294Y-14659011D01*
X5300640Y-14621682D01*
X5300636Y-14621681D01*
X5217856Y-14599500D01*
X5217853Y-14599500D01*
X5132147Y-14599500D01*
X5132144Y-14599500D01*
X5049363Y-14621681D01*
X5049359Y-14621682D01*
X4975137Y-14664535D01*
X4975137Y-14664536D01*
X4914536Y-14725137D01*
X4914535Y-14725137D01*
X4871682Y-14799359D01*
X4871681Y-14799363D01*
X4849500Y-14882143D01*
X4849500Y-14967856D01*
X4871681Y-15050636D01*
X4871682Y-15050640D01*
X4900758Y-15101000D01*
X4914535Y-15124862D01*
X4975138Y-15185465D01*
X5001330Y-15200587D01*
X5049359Y-15228317D01*
X5049361Y-15228317D01*
X5049362Y-15228318D01*
X5114651Y-15245812D01*
X5132143Y-15250499D01*
X5132144Y-15250500D01*
X5132147Y-15250500D01*
X5217850Y-15250500D01*
X5217853Y-15250500D01*
X5217855Y-15250499D01*
X5219103Y-15250335D01*
X5219719Y-15250500D01*
X5221065Y-15250500D01*
X5221065Y-15250860D01*
X5255328Y-15260041D01*
X5274081Y-15292519D01*
X5274500Y-15298916D01*
X5274500Y-15342856D01*
X5296681Y-15425636D01*
X5296682Y-15425640D01*
X5310044Y-15448782D01*
X5327199Y-15478496D01*
X5328009Y-15479898D01*
X5332904Y-15517080D01*
X5310074Y-15546833D01*
X5304332Y-15549666D01*
X5300585Y-15551218D01*
X5200127Y-15651677D01*
X5165479Y-15666029D01*
X5130831Y-15651677D01*
X5118149Y-15629711D01*
X5103318Y-15574363D01*
X5103317Y-15574359D01*
X5060464Y-15500137D01*
X4999862Y-15439535D01*
X4925640Y-15396682D01*
X4925636Y-15396681D01*
X4842856Y-15374500D01*
X4842853Y-15374500D01*
X4757147Y-15374500D01*
X4757144Y-15374500D01*
X4674363Y-15396681D01*
X4674359Y-15396682D01*
X4600137Y-15439535D01*
X4600137Y-15439536D01*
X4539536Y-15500137D01*
X4539535Y-15500137D01*
X4496682Y-15574359D01*
X4496681Y-15574363D01*
X4474500Y-15657143D01*
X4474500Y-15742856D01*
X4493566Y-15814012D01*
X4488671Y-15851194D01*
X4458919Y-15874024D01*
X4374361Y-15896682D01*
X4374359Y-15896682D01*
X4300137Y-15939535D01*
X4300137Y-15939536D01*
X4259148Y-15980525D01*
X4224500Y-15994877D01*
X4189852Y-15980525D01*
X4175500Y-15945877D01*
X4175500Y-14067480D01*
X4189852Y-14032832D01*
X4224500Y-14018480D01*
X4237176Y-14020149D01*
X4257147Y-14025500D01*
X4342856Y-14025500D01*
X4342856Y-14025499D01*
X4425638Y-14003318D01*
X4499862Y-13960465D01*
X4560465Y-13899862D01*
X4603318Y-13825638D01*
X4625499Y-13742856D01*
X4625500Y-13742856D01*
X4625500Y-13657144D01*
X4625499Y-13657143D01*
X4603318Y-13574363D01*
X4603317Y-13574359D01*
X4560464Y-13500137D01*
X4499862Y-13439535D01*
X4425640Y-13396682D01*
X4425636Y-13396681D01*
X4342856Y-13374500D01*
X4342853Y-13374500D01*
X4257147Y-13374500D01*
X4257144Y-13374500D01*
X4174363Y-13396681D01*
X4174359Y-13396682D01*
X4100137Y-13439535D01*
X4100137Y-13439536D01*
X4039536Y-13500137D01*
X4039535Y-13500137D01*
X3996682Y-13574359D01*
X3996681Y-13574363D01*
X3974500Y-13657143D01*
X3974500Y-13742853D01*
X3981929Y-13770584D01*
X3977032Y-13807766D01*
X3969246Y-13817912D01*
X3897414Y-13889744D01*
X3897413Y-13889746D01*
X3883990Y-13922149D01*
X3883990Y-13922151D01*
X3874500Y-13945064D01*
X3874500Y-13945065D01*
X3874500Y-22654937D01*
X3876406Y-22659537D01*
X3876406Y-22697040D01*
X3849888Y-22723559D01*
X3812385Y-22723559D01*
X3796488Y-22712937D01*
X2413577Y-21330026D01*
X2413575Y-21330025D01*
X2413574Y-21330024D01*
X2370407Y-21312143D01*
X2339883Y-21299500D01*
X2339882Y-21299500D01*
X2055123Y-21299500D01*
X2020475Y-21285148D01*
X1974862Y-21239535D01*
X1900640Y-21196682D01*
X1900636Y-21196681D01*
X1817856Y-21174500D01*
X1817853Y-21174500D01*
X1732147Y-21174500D01*
X1732144Y-21174500D01*
X1649363Y-21196681D01*
X1649359Y-21196682D01*
X1624000Y-21211324D01*
X1586817Y-21216219D01*
X1557065Y-21193389D01*
X1550500Y-21168889D01*
X1550500Y-20482635D01*
X1564851Y-20447988D01*
X2682087Y-19330751D01*
X2716734Y-19316400D01*
X2729417Y-19318070D01*
X2757145Y-19325500D01*
X2757147Y-19325500D01*
X2842856Y-19325500D01*
X2842856Y-19325499D01*
X2925638Y-19303318D01*
X2999862Y-19260465D01*
X3060465Y-19199862D01*
X3103318Y-19125638D01*
X3125500Y-19042853D01*
X3125500Y-18957147D01*
X3125500Y-18957144D01*
X3125499Y-18957143D01*
X3110151Y-18899863D01*
X3103318Y-18874362D01*
X3103317Y-18874361D01*
X3103317Y-18874359D01*
X3076149Y-18827304D01*
X3060465Y-18800138D01*
X2999862Y-18739535D01*
X2925640Y-18696682D01*
X2925636Y-18696681D01*
X2842856Y-18674500D01*
X2842853Y-18674500D01*
X2757147Y-18674500D01*
X2757144Y-18674500D01*
X2674363Y-18696681D01*
X2674359Y-18696682D01*
X2600137Y-18739535D01*
X2600137Y-18739536D01*
X2539536Y-18800137D01*
X2539535Y-18800137D01*
X2496682Y-18874359D01*
X2496681Y-18874363D01*
X2474500Y-18957143D01*
X2474500Y-19042853D01*
X2481929Y-19070584D01*
X2477032Y-19107766D01*
X2469246Y-19117912D01*
X1272414Y-20314744D01*
X1272413Y-20314746D01*
X1258990Y-20347149D01*
X1258990Y-20347151D01*
X1254850Y-20357147D01*
X1249500Y-20370065D01*
X300500Y-20370065D01*
X300500Y-13257143D01*
X5274500Y-13257143D01*
X5274500Y-13342856D01*
X5296681Y-13425636D01*
X5296682Y-13425640D01*
X5316789Y-13460465D01*
X5339535Y-13499862D01*
X5400138Y-13560465D01*
X5424210Y-13574363D01*
X5474359Y-13603317D01*
X5474361Y-13603317D01*
X5474362Y-13603318D01*
X5539651Y-13620812D01*
X5557143Y-13625499D01*
X5557144Y-13625500D01*
X5557147Y-13625500D01*
X5642856Y-13625500D01*
X5642856Y-13625499D01*
X5725638Y-13603318D01*
X5799862Y-13560465D01*
X5860465Y-13499862D01*
X5903318Y-13425638D01*
X5925499Y-13342856D01*
X5925500Y-13342856D01*
X5925500Y-13257144D01*
X5925499Y-13257143D01*
X5903318Y-13174363D01*
X5903317Y-13174359D01*
X5860464Y-13100137D01*
X5799862Y-13039535D01*
X5725640Y-12996682D01*
X5725636Y-12996681D01*
X5642856Y-12974500D01*
X5642853Y-12974500D01*
X5557147Y-12974500D01*
X5557144Y-12974500D01*
X5474363Y-12996681D01*
X5474359Y-12996682D01*
X5400137Y-13039535D01*
X5400137Y-13039536D01*
X5339536Y-13100137D01*
X5339535Y-13100137D01*
X5296682Y-13174359D01*
X5296681Y-13174363D01*
X5274500Y-13257143D01*
X300500Y-13257143D01*
X300500Y-12857143D01*
X4574500Y-12857143D01*
X4574500Y-12942856D01*
X4596681Y-13025636D01*
X4596682Y-13025640D01*
X4624813Y-13074363D01*
X4639535Y-13099862D01*
X4700138Y-13160465D01*
X4724210Y-13174363D01*
X4774359Y-13203317D01*
X4774361Y-13203317D01*
X4774362Y-13203318D01*
X4839651Y-13220812D01*
X4857143Y-13225499D01*
X4857144Y-13225500D01*
X4857147Y-13225500D01*
X4942856Y-13225500D01*
X4942856Y-13225499D01*
X5025638Y-13203318D01*
X5099862Y-13160465D01*
X5160465Y-13099862D01*
X5203318Y-13025638D01*
X5225499Y-12942856D01*
X5225500Y-12942856D01*
X5225500Y-12857144D01*
X5225499Y-12857143D01*
X5217020Y-12825500D01*
X5203318Y-12774362D01*
X5203317Y-12774361D01*
X5203317Y-12774359D01*
X5160464Y-12700137D01*
X5099862Y-12639535D01*
X5025640Y-12596682D01*
X5025636Y-12596681D01*
X4942856Y-12574500D01*
X4942853Y-12574500D01*
X4857147Y-12574500D01*
X4857144Y-12574500D01*
X4774363Y-12596681D01*
X4774359Y-12596682D01*
X4700137Y-12639535D01*
X4639536Y-12700137D01*
X4639535Y-12700137D01*
X4596682Y-12774359D01*
X4596681Y-12774363D01*
X4574500Y-12857143D01*
X300500Y-12857143D01*
X300500Y-10407143D01*
X7074500Y-10407143D01*
X7074500Y-10492856D01*
X7096681Y-10575636D01*
X7096682Y-10575640D01*
X7139535Y-10649862D01*
X7200138Y-10710465D01*
X7224997Y-10724817D01*
X7274359Y-10753317D01*
X7274361Y-10753317D01*
X7274362Y-10753318D01*
X7279035Y-10754570D01*
X7357143Y-10775499D01*
X7357144Y-10775500D01*
X7357147Y-10775500D01*
X7442856Y-10775500D01*
X7442856Y-10775499D01*
X7525638Y-10753318D01*
X7599862Y-10710465D01*
X7660465Y-10649862D01*
X7703318Y-10575638D01*
X7725499Y-10492856D01*
X7725500Y-10492856D01*
X7725500Y-10407144D01*
X7725499Y-10407143D01*
X7712102Y-10357144D01*
X7703318Y-10324362D01*
X7703317Y-10324361D01*
X7703317Y-10324359D01*
X7674449Y-10274359D01*
X7660465Y-10250138D01*
X7599862Y-10189535D01*
X7525640Y-10146682D01*
X7525636Y-10146681D01*
X7442856Y-10124500D01*
X7442853Y-10124500D01*
X7357147Y-10124500D01*
X7357144Y-10124500D01*
X7274363Y-10146681D01*
X7274359Y-10146682D01*
X7200137Y-10189535D01*
X7200137Y-10189536D01*
X7139536Y-10250137D01*
X7139535Y-10250137D01*
X7096682Y-10324359D01*
X7096681Y-10324363D01*
X7074500Y-10407143D01*
X300500Y-10407143D01*
X300500Y-9457143D01*
X3774500Y-9457143D01*
X3774500Y-9542856D01*
X3796681Y-9625636D01*
X3796682Y-9625640D01*
X3839535Y-9699862D01*
X3900138Y-9760465D01*
X3927304Y-9776149D01*
X3974359Y-9803317D01*
X3974361Y-9803317D01*
X3974362Y-9803318D01*
X4039651Y-9820812D01*
X4057143Y-9825499D01*
X4057144Y-9825500D01*
X4057147Y-9825500D01*
X4142856Y-9825500D01*
X4142856Y-9825499D01*
X4225638Y-9803318D01*
X4299862Y-9760465D01*
X4360465Y-9699862D01*
X4403318Y-9625638D01*
X4425499Y-9542856D01*
X4425500Y-9542856D01*
X4425500Y-9457144D01*
X4425499Y-9457143D01*
X4403318Y-9374363D01*
X4403317Y-9374359D01*
X4360464Y-9300137D01*
X4299862Y-9239535D01*
X4225640Y-9196682D01*
X4225636Y-9196681D01*
X4142856Y-9174500D01*
X4142853Y-9174500D01*
X4057147Y-9174500D01*
X4057144Y-9174500D01*
X3974363Y-9196681D01*
X3974359Y-9196682D01*
X3900137Y-9239535D01*
X3900137Y-9239536D01*
X3839536Y-9300137D01*
X3839535Y-9300137D01*
X3796682Y-9374359D01*
X3796681Y-9374363D01*
X3774500Y-9457143D01*
X300500Y-9457143D01*
X300500Y-5515000D01*
X11250000Y-5515000D01*
X13150000Y-5515000D01*
X13150000Y-3425000D01*
X11250000Y-3425000D01*
X11250000Y-5515000D01*
X300500Y-5515000D01*
X300500Y-1799500D01*
X314852Y-1764852D01*
X349500Y-1750500D01*
X19650500Y-1750500D01*
X19685148Y-1764852D01*
G37*
%TD.AperFunction*%
%TD*%
M02*
