%TF.GenerationSoftware,KiCad,Pcbnew,10.0.6-10.0.6~ubuntu24.04.1*%
%TF.CreationDate,2026-09-26T10:06:51-07:00*%
%TF.ProjectId,module,6d6f6475-6c65-42e6-9b69-6361645f7063,rev?*%
%TF.SameCoordinates,Original*%
%TF.FileFunction,Copper,L2,Inr*%
%TF.FilePolarity,Positive*%
%FSLAX46Y46*%
G04 Gerber Fmt 4.6, Leading zero omitted, Abs format (unit mm)*
G04 Created by KiCad (PCBNEW 10.0.6-10.0.6~ubuntu24.04.1) date 2026-09-26 10:06:51*
%MOMM*%
%LPD*%
G01*
G04 APERTURE LIST*
%TA.AperFunction,ViaPad*%
%ADD10C,0.450000*%
%TD*%
%TA.AperFunction,Conductor*%
%ADD11C,0.100000*%
%TD*%
G04 APERTURE END LIST*
D10*
%TO.N,+3.3V*%
X16515400Y-43100000D03*
X15200000Y-10300000D03*
X1775000Y-21500000D03*
X4100000Y-9500000D03*
X12100000Y-33200000D03*
X13800000Y-10700000D03*
X5125000Y-24325000D03*
X13950000Y-24200000D03*
X19000000Y-42800000D03*
X19200000Y-23000000D03*
X14200000Y-32824999D03*
X19000000Y-39000000D03*
X14375000Y-17325000D03*
X7175000Y-19925000D03*
X13000000Y-32199999D03*
X4400000Y-16800000D03*
X14350000Y-30700000D03*
X14250000Y-14900000D03*
X8250000Y-35200000D03*
X5175000Y-14925000D03*
X14200000Y-25900000D03*
X4075000Y-43600000D03*
X8650000Y-33650000D03*
X15900000Y-12400000D03*
%TO.N,GND*%
X4450000Y-18800000D03*
X2015400Y-39950000D03*
X14300000Y-18250000D03*
X1000000Y-9100000D03*
X1725000Y-37550000D03*
X10950000Y-7800000D03*
X13169200Y-10200000D03*
X5487500Y-36111480D03*
X14300000Y-35200000D03*
X2015400Y-41250000D03*
X3700000Y-33300000D03*
X1725000Y-42650000D03*
X6015400Y-33650000D03*
X17750000Y-31100000D03*
X9500000Y-4525000D03*
X5700000Y-35200000D03*
X11350000Y-31750000D03*
X13000000Y-7200000D03*
X13169200Y-9200000D03*
X18284600Y-42250000D03*
X4450000Y-20075000D03*
X18284600Y-40250000D03*
X14300000Y-21050000D03*
X14900000Y-4525000D03*
X2015400Y-38750000D03*
X18800000Y-21800000D03*
X5800000Y-43000000D03*
X4875000Y-26500000D03*
%TO.N,/FPGA_CRESET_N*%
X15500000Y-38750000D03*
X11800000Y-19900000D03*
%TO.N,+1.2V*%
X4384600Y-39950000D03*
X1175000Y-25500000D03*
X16515400Y-41100000D03*
X2775000Y-35050000D03*
%TO.N,/FPGA_CDONE*%
X12200000Y-20550000D03*
X14900000Y-39550000D03*
X19000000Y-36000000D03*
%TO.N,/ESP_EN*%
X14400000Y-12500000D03*
X16900000Y-10400000D03*
%TO.N,/ESP_GPIO0_BOOT*%
X6800000Y-20925000D03*
X11000000Y-11100000D03*
%TO.N,VIN_5V*%
X16000000Y-18700000D03*
%TO.N,/ESP_GPIO1*%
X10600000Y-10450000D03*
%TO.N,/ESP_GPIO2*%
X10200000Y-11100000D03*
%TO.N,/ESP_GPIO3*%
X9800000Y-10450000D03*
%TO.N,/ESP_GPIO4*%
X9400000Y-11100000D03*
%TO.N,/ESP_GPIO5*%
X9000000Y-10450000D03*
%TO.N,/ESP_GPIO6*%
X8600000Y-11100000D03*
%TO.N,/ESP_GPIO7*%
X8200000Y-10450000D03*
%TO.N,/ESP_GPIO8*%
X7800000Y-11100000D03*
%TO.N,/LINK_IO3*%
X7400000Y-10450000D03*
X10250000Y-34200000D03*
%TO.N,/LINK_CS_N*%
X4900000Y-12900000D03*
X11250000Y-35200000D03*
%TO.N,/LINK_MOSI*%
X2800000Y-19000000D03*
X5600000Y-13300000D03*
X10750000Y-34500000D03*
%TO.N,/LINK_MISO*%
X5600000Y-14100000D03*
X12250000Y-35200000D03*
%TO.N,/LINK_IO2*%
X4300000Y-13700000D03*
X12750000Y-34500000D03*
X10500000Y-32199999D03*
X5675000Y-24275000D03*
%TO.N,/ESP_GPIO15*%
X5600000Y-15300000D03*
X8425000Y-19775000D03*
%TO.N,/ESP_GPIO16*%
X4800000Y-15700000D03*
X7150000Y-22500000D03*
%TO.N,/ESP_GPIO17*%
X5600000Y-16100000D03*
X8800000Y-22000000D03*
%TO.N,/ESP_GPIO18*%
X6725000Y-23100000D03*
X4500000Y-16200000D03*
%TO.N,/USB_D-*%
X5300000Y-16850000D03*
%TO.N,/USB_D+*%
X5650000Y-17300000D03*
%TO.N,/ESP_GPIO21*%
X5675000Y-18375000D03*
%TO.N,/ESP_GPIO33*%
X10600000Y-19800000D03*
%TO.N,/ESP_GPIO34*%
X9800000Y-20400000D03*
%TO.N,/ESP_GPIO35*%
X11400000Y-20300000D03*
%TO.N,/ESP_GPIO38*%
X12600000Y-20000000D03*
X5500000Y-18900000D03*
%TO.N,/ESP_GPIO39*%
X15100000Y-18200000D03*
%TO.N,/ESP_GPIO40*%
X14700000Y-17800000D03*
%TO.N,/ESP_GPIO41*%
X15100000Y-16900000D03*
%TO.N,/ESP_GPIO42*%
X14300000Y-16500000D03*
%TO.N,/ESP_GPIO43_TXD*%
X15100000Y-16100000D03*
%TO.N,/ESP_GPIO44_RXD*%
X13200000Y-19400000D03*
X14300000Y-15700000D03*
%TO.N,/ESP_GPIO45*%
X15500000Y-15300000D03*
X9000000Y-19800000D03*
%TO.N,/ESP_GPIO46*%
X8700000Y-20300000D03*
X14300000Y-13200000D03*
%TO.N,/FPGA_IOB_6A*%
X14800000Y-41750000D03*
%TO.N,/FPGA_IOB_9B*%
X15400000Y-41550000D03*
%TO.N,/FPGA_IOB_8A*%
X14700000Y-40750000D03*
%TO.N,/FPGA_IOB_13B*%
X15300000Y-40750000D03*
%TO.N,/FPGA_IOB_16A*%
X15000000Y-38250000D03*
%TO.N,/FPGA_IOB_18A*%
X14300000Y-37750000D03*
%TO.N,/FPGA_IOB_20A*%
X15000000Y-37250000D03*
%TO.N,/FPGA_IOB_22A*%
X14300000Y-36750000D03*
%TO.N,/FPGA_IOB_29B*%
X9750000Y-34500000D03*
%TO.N,/FPGA_IOB_25B_G3*%
X9250000Y-35200000D03*
%TO.N,/FPGA_IOB_23B*%
X8750000Y-34500000D03*
%TO.N,/FPGA_IOT_37A*%
X7750000Y-34500000D03*
%TO.N,/FPGA_IOT_36B*%
X5000000Y-36750000D03*
%TO.N,/FPGA_IOT_39A*%
X5700000Y-37250000D03*
%TO.N,/FPGA_IOT_38B*%
X4900000Y-37750000D03*
%TO.N,/FPGA_IOT_41A*%
X5200000Y-38250000D03*
%TO.N,/FPGA_IOT_42B*%
X5000000Y-39750000D03*
%TO.N,/FPGA_IOT_43A*%
X5700000Y-40250000D03*
%TO.N,/FPGA_IOT_44B*%
X5000000Y-41250000D03*
%TO.N,/FPGA_IOT_46B_G0*%
X4700000Y-41750000D03*
%TO.N,/FPGA_IOT_48B*%
X5200000Y-42150000D03*
%TO.N,/FPGA_IOT_45A_G1*%
X7250000Y-44400000D03*
%TO.N,/FPGA_IOT_50B*%
X7750000Y-43800000D03*
%TO.N,/FPGA_RGB0*%
X19000000Y-44800000D03*
X8150000Y-44800000D03*
%TO.N,/FPGA_RGB1*%
X16950000Y-44700000D03*
X8750000Y-44800000D03*
%TO.N,/FPGA_RGB2*%
X16750000Y-43850000D03*
X9250000Y-44400000D03*
%TO.N,/FPGA_IOT_51A*%
X9750000Y-43800000D03*
%TO.N,/FPGA_IOT_49A*%
X10250000Y-44400000D03*
%TO.N,/FPGA_IOB_3B_G6*%
X10750000Y-44000000D03*
%TO.N,/FPGA_IOB_5B*%
X11250000Y-44400000D03*
%TO.N,/FPGA_IOB_0A*%
X11750000Y-43800000D03*
%TO.N,/FPGA_IOB_2A*%
X12250000Y-44400000D03*
%TO.N,/FPGA_IOB_4A*%
X12750000Y-43800000D03*
%TD*%
%TO.N,GND*%
D11*
X4450000Y-20075000D02*
X4450000Y-20100000D01*
%TO.N,/LINK_MOSI*%
X5600000Y-13300000D02*
X2800000Y-16100000D01*
X2800000Y-16100000D02*
X2800000Y-19000000D01*
%TO.N,/ESP_GPIO15*%
X5600000Y-15300000D02*
X8425000Y-18125000D01*
X8425000Y-18125000D02*
X8425000Y-19775000D01*
%TO.N,/ESP_GPIO16*%
X4925000Y-15825000D02*
X4925000Y-20275000D01*
X4925000Y-20275000D02*
X7150000Y-22500000D01*
X4800000Y-15700000D02*
X4925000Y-15825000D01*
%TO.N,/ESP_GPIO17*%
X8050000Y-18550000D02*
X8050000Y-21250000D01*
X5600000Y-16100000D02*
X8050000Y-18550000D01*
X8050000Y-21250000D02*
X8800000Y-22000000D01*
%TO.N,/ESP_GPIO18*%
X4025000Y-16390000D02*
X4025000Y-20400000D01*
X4025000Y-16390000D02*
X4215000Y-16200000D01*
X4500000Y-16200000D02*
X4215000Y-16200000D01*
X4025000Y-20400000D02*
X6725000Y-23100000D01*
%TO.N,/ESP_GPIO38*%
X12200000Y-22375000D02*
X12600000Y-21975000D01*
X7175000Y-20575000D02*
X7175000Y-20925000D01*
X5500000Y-18900000D02*
X7175000Y-20575000D01*
X12600000Y-21975000D02*
X12600000Y-20000000D01*
X7175000Y-20925000D02*
X8625000Y-22375000D01*
X8625000Y-22375000D02*
X12200000Y-22375000D01*
%TD*%
%TA.AperFunction,Conductor*%
%TO.N,GND*%
G36*
X4750000Y-16942782D02*
G01*
X4772830Y-16972535D01*
X4774500Y-16985217D01*
X4774500Y-20304935D01*
X4783018Y-20325500D01*
X4783019Y-20325502D01*
X4797411Y-20360250D01*
X4797414Y-20360255D01*
X6819247Y-22382086D01*
X6833599Y-22416734D01*
X6831930Y-22429415D01*
X6824500Y-22457146D01*
X6824500Y-22542856D01*
X6846681Y-22625636D01*
X6846682Y-22625640D01*
X6889535Y-22699862D01*
X6908568Y-22718895D01*
X6922920Y-22753543D01*
X6908568Y-22788191D01*
X6873920Y-22802543D01*
X6853909Y-22797183D01*
X6853608Y-22797912D01*
X6850636Y-22796681D01*
X6767856Y-22774500D01*
X6767853Y-22774500D01*
X6682147Y-22774500D01*
X6682146Y-22774500D01*
X6654415Y-22781930D01*
X6617233Y-22777034D01*
X6607086Y-22769247D01*
X4189852Y-20352012D01*
X4175500Y-20317364D01*
X4175500Y-17131110D01*
X4189852Y-17096462D01*
X4224500Y-17082110D01*
X4248998Y-17088674D01*
X4274362Y-17103318D01*
X4339651Y-17120812D01*
X4357143Y-17125499D01*
X4357144Y-17125500D01*
X4357147Y-17125500D01*
X4442856Y-17125500D01*
X4442856Y-17125499D01*
X4525638Y-17103318D01*
X4599862Y-17060465D01*
X4660465Y-16999862D01*
X4683065Y-16960716D01*
X4712818Y-16937887D01*
X4750000Y-16942782D01*
G37*
%TD.AperFunction*%
%TA.AperFunction,Conductor*%
G36*
X19685148Y-1764852D02*
G01*
X19699500Y-1799500D01*
X19699500Y-46100500D01*
X19685148Y-46135148D01*
X19650500Y-46149500D01*
X349500Y-46149500D01*
X314852Y-46135148D01*
X300500Y-46100500D01*
X300500Y-44757143D01*
X7824500Y-44757143D01*
X7824500Y-44842856D01*
X7846681Y-44925636D01*
X7846682Y-44925640D01*
X7866789Y-44960465D01*
X7889535Y-44999862D01*
X7950138Y-45060465D01*
X7977304Y-45076149D01*
X8024359Y-45103317D01*
X8024361Y-45103317D01*
X8024362Y-45103318D01*
X8089651Y-45120812D01*
X8107143Y-45125499D01*
X8107144Y-45125500D01*
X8107147Y-45125500D01*
X8192856Y-45125500D01*
X8192856Y-45125499D01*
X8275638Y-45103318D01*
X8349862Y-45060465D01*
X8410465Y-44999862D01*
X8410468Y-44999855D01*
X8411127Y-44998999D01*
X8411602Y-44998724D01*
X8412736Y-44997591D01*
X8413039Y-44997894D01*
X8443606Y-44980249D01*
X8479831Y-44989957D01*
X8488873Y-44998999D01*
X8489534Y-44999860D01*
X8489535Y-44999862D01*
X8550138Y-45060465D01*
X8577304Y-45076149D01*
X8624359Y-45103317D01*
X8624361Y-45103317D01*
X8624362Y-45103318D01*
X8689651Y-45120812D01*
X8707143Y-45125499D01*
X8707144Y-45125500D01*
X8707147Y-45125500D01*
X8792856Y-45125500D01*
X8792856Y-45125499D01*
X8875638Y-45103318D01*
X8949862Y-45060465D01*
X9010465Y-44999862D01*
X9053318Y-44925638D01*
X9075499Y-44842856D01*
X9075500Y-44842856D01*
X9075500Y-44754083D01*
X9089852Y-44719435D01*
X9124500Y-44705083D01*
X9137180Y-44706752D01*
X9164807Y-44714155D01*
X9207145Y-44725500D01*
X9207147Y-44725500D01*
X9292856Y-44725500D01*
X9292856Y-44725499D01*
X9375638Y-44703318D01*
X9449862Y-44660465D01*
X9510465Y-44599862D01*
X9553318Y-44525638D01*
X9575499Y-44442856D01*
X9575500Y-44442856D01*
X9575500Y-44357144D01*
X9575499Y-44357143D01*
X9924500Y-44357143D01*
X9924500Y-44442856D01*
X9946681Y-44525636D01*
X9946682Y-44525640D01*
X9974813Y-44574363D01*
X9989535Y-44599862D01*
X10050138Y-44660465D01*
X10074210Y-44674363D01*
X10124359Y-44703317D01*
X10124361Y-44703317D01*
X10124362Y-44703318D01*
X10137182Y-44706753D01*
X10207143Y-44725499D01*
X10207144Y-44725500D01*
X10207147Y-44725500D01*
X10292856Y-44725500D01*
X10292856Y-44725499D01*
X10375638Y-44703318D01*
X10449862Y-44660465D01*
X10510465Y-44599862D01*
X10553318Y-44525638D01*
X10575499Y-44442856D01*
X10575500Y-44442856D01*
X10575500Y-44354083D01*
X10589852Y-44319435D01*
X10624500Y-44305083D01*
X10637180Y-44306752D01*
X10664807Y-44314155D01*
X10707145Y-44325500D01*
X10707147Y-44325500D01*
X10792855Y-44325500D01*
X10835192Y-44314155D01*
X10862817Y-44306753D01*
X10900000Y-44311648D01*
X10922830Y-44341400D01*
X10924500Y-44354083D01*
X10924500Y-44442856D01*
X10946681Y-44525636D01*
X10946682Y-44525640D01*
X10974813Y-44574363D01*
X10989535Y-44599862D01*
X11050138Y-44660465D01*
X11074210Y-44674363D01*
X11124359Y-44703317D01*
X11124361Y-44703317D01*
X11124362Y-44703318D01*
X11137182Y-44706753D01*
X11207143Y-44725499D01*
X11207144Y-44725500D01*
X11207147Y-44725500D01*
X11292856Y-44725500D01*
X11292856Y-44725499D01*
X11375638Y-44703318D01*
X11449862Y-44660465D01*
X11510465Y-44599862D01*
X11553318Y-44525638D01*
X11575499Y-44442856D01*
X11575500Y-44442856D01*
X11575500Y-44357144D01*
X11575499Y-44357143D01*
X11924500Y-44357143D01*
X11924500Y-44442856D01*
X11946681Y-44525636D01*
X11946682Y-44525640D01*
X11974813Y-44574363D01*
X11989535Y-44599862D01*
X12050138Y-44660465D01*
X12074210Y-44674363D01*
X12124359Y-44703317D01*
X12124361Y-44703317D01*
X12124362Y-44703318D01*
X12137182Y-44706753D01*
X12207143Y-44725499D01*
X12207144Y-44725500D01*
X12207147Y-44725500D01*
X12292856Y-44725500D01*
X12292856Y-44725499D01*
X12375638Y-44703318D01*
X12449862Y-44660465D01*
X12453184Y-44657143D01*
X16624500Y-44657143D01*
X16624500Y-44742856D01*
X16646681Y-44825636D01*
X16646682Y-44825640D01*
X16689535Y-44899862D01*
X16750138Y-44960465D01*
X16777304Y-44976149D01*
X16824359Y-45003317D01*
X16824361Y-45003317D01*
X16824362Y-45003318D01*
X16889651Y-45020812D01*
X16907143Y-45025499D01*
X16907144Y-45025500D01*
X16907147Y-45025500D01*
X16992856Y-45025500D01*
X16992856Y-45025499D01*
X17075638Y-45003318D01*
X17149862Y-44960465D01*
X17210465Y-44899862D01*
X17253318Y-44825638D01*
X17271671Y-44757143D01*
X18674500Y-44757143D01*
X18674500Y-44842856D01*
X18696681Y-44925636D01*
X18696682Y-44925640D01*
X18716789Y-44960465D01*
X18739535Y-44999862D01*
X18800138Y-45060465D01*
X18827304Y-45076149D01*
X18874359Y-45103317D01*
X18874361Y-45103317D01*
X18874362Y-45103318D01*
X18939651Y-45120812D01*
X18957143Y-45125499D01*
X18957144Y-45125500D01*
X18957147Y-45125500D01*
X19042856Y-45125500D01*
X19042856Y-45125499D01*
X19125638Y-45103318D01*
X19199862Y-45060465D01*
X19260465Y-44999862D01*
X19303318Y-44925638D01*
X19325499Y-44842856D01*
X19325500Y-44842856D01*
X19325500Y-44757144D01*
X19325499Y-44757143D01*
X19311957Y-44706605D01*
X19303318Y-44674362D01*
X19303317Y-44674361D01*
X19303317Y-44674359D01*
X19276149Y-44627304D01*
X19260465Y-44600138D01*
X19199862Y-44539535D01*
X19125640Y-44496682D01*
X19125636Y-44496681D01*
X19042856Y-44474500D01*
X19042853Y-44474500D01*
X18957147Y-44474500D01*
X18957144Y-44474500D01*
X18874363Y-44496681D01*
X18874359Y-44496682D01*
X18800137Y-44539535D01*
X18800137Y-44539536D01*
X18739536Y-44600137D01*
X18739535Y-44600137D01*
X18696682Y-44674359D01*
X18696681Y-44674363D01*
X18674500Y-44757143D01*
X17271671Y-44757143D01*
X17275499Y-44742857D01*
X17275500Y-44742856D01*
X17275500Y-44657144D01*
X17275499Y-44657143D01*
X17265480Y-44619751D01*
X17253318Y-44574362D01*
X17253317Y-44574361D01*
X17253317Y-44574359D01*
X17226149Y-44527304D01*
X17210465Y-44500138D01*
X17149862Y-44439535D01*
X17075640Y-44396682D01*
X17075636Y-44396681D01*
X16992856Y-44374500D01*
X16992853Y-44374500D01*
X16907147Y-44374500D01*
X16907144Y-44374500D01*
X16824363Y-44396681D01*
X16824359Y-44396682D01*
X16750137Y-44439535D01*
X16750137Y-44439536D01*
X16689536Y-44500137D01*
X16689535Y-44500137D01*
X16646682Y-44574359D01*
X16646681Y-44574363D01*
X16624500Y-44657143D01*
X12453184Y-44657143D01*
X12510465Y-44599862D01*
X12553318Y-44525638D01*
X12575499Y-44442856D01*
X12575500Y-44442856D01*
X12575500Y-44357144D01*
X12575499Y-44357143D01*
X12561997Y-44306753D01*
X12553318Y-44274362D01*
X12553317Y-44274361D01*
X12553317Y-44274359D01*
X12510464Y-44200137D01*
X12449862Y-44139535D01*
X12375640Y-44096682D01*
X12375636Y-44096681D01*
X12292856Y-44074500D01*
X12292853Y-44074500D01*
X12207147Y-44074500D01*
X12207144Y-44074500D01*
X12124363Y-44096681D01*
X12124359Y-44096682D01*
X12050137Y-44139535D01*
X12050137Y-44139536D01*
X11989536Y-44200137D01*
X11989535Y-44200137D01*
X11946682Y-44274359D01*
X11946681Y-44274363D01*
X11924500Y-44357143D01*
X11575499Y-44357143D01*
X11561997Y-44306753D01*
X11553318Y-44274362D01*
X11553317Y-44274361D01*
X11553317Y-44274359D01*
X11510464Y-44200137D01*
X11449862Y-44139535D01*
X11375640Y-44096682D01*
X11375636Y-44096681D01*
X11292856Y-44074500D01*
X11292853Y-44074500D01*
X11207147Y-44074500D01*
X11207144Y-44074500D01*
X11137182Y-44093246D01*
X11100000Y-44088351D01*
X11077170Y-44058598D01*
X11075500Y-44045916D01*
X11075500Y-43957144D01*
X11075499Y-43957143D01*
X11058273Y-43892856D01*
X11053318Y-43874362D01*
X11053317Y-43874361D01*
X11053317Y-43874359D01*
X11026149Y-43827304D01*
X11010465Y-43800138D01*
X10967470Y-43757143D01*
X11424500Y-43757143D01*
X11424500Y-43842856D01*
X11446681Y-43925636D01*
X11446682Y-43925640D01*
X11489535Y-43999862D01*
X11550138Y-44060465D01*
X11577304Y-44076149D01*
X11624359Y-44103317D01*
X11624361Y-44103317D01*
X11624362Y-44103318D01*
X11689651Y-44120812D01*
X11707143Y-44125499D01*
X11707144Y-44125500D01*
X11707147Y-44125500D01*
X11792856Y-44125500D01*
X11792856Y-44125499D01*
X11875638Y-44103318D01*
X11949862Y-44060465D01*
X12010465Y-43999862D01*
X12053318Y-43925638D01*
X12075499Y-43842856D01*
X12075500Y-43842856D01*
X12075500Y-43757144D01*
X12075499Y-43757143D01*
X12424500Y-43757143D01*
X12424500Y-43842856D01*
X12446681Y-43925636D01*
X12446682Y-43925640D01*
X12489535Y-43999862D01*
X12550138Y-44060465D01*
X12577304Y-44076149D01*
X12624359Y-44103317D01*
X12624361Y-44103317D01*
X12624362Y-44103318D01*
X12689651Y-44120812D01*
X12707143Y-44125499D01*
X12707144Y-44125500D01*
X12707147Y-44125500D01*
X12792856Y-44125500D01*
X12792856Y-44125499D01*
X12875638Y-44103318D01*
X12949862Y-44060465D01*
X13010465Y-43999862D01*
X13053318Y-43925638D01*
X13075499Y-43842856D01*
X13075500Y-43842856D01*
X13075500Y-43807143D01*
X16424500Y-43807143D01*
X16424500Y-43892856D01*
X16446681Y-43975636D01*
X16446682Y-43975640D01*
X16485488Y-44042853D01*
X16489535Y-44049862D01*
X16550138Y-44110465D01*
X16576178Y-44125499D01*
X16624359Y-44153317D01*
X16624361Y-44153317D01*
X16624362Y-44153318D01*
X16689651Y-44170812D01*
X16707143Y-44175499D01*
X16707144Y-44175500D01*
X16707147Y-44175500D01*
X16792856Y-44175500D01*
X16792856Y-44175499D01*
X16875638Y-44153318D01*
X16949862Y-44110465D01*
X17010465Y-44049862D01*
X17053318Y-43975638D01*
X17075499Y-43892856D01*
X17075500Y-43892856D01*
X17075500Y-43807144D01*
X17075499Y-43807143D01*
X17062102Y-43757144D01*
X17053318Y-43724362D01*
X17053317Y-43724361D01*
X17053317Y-43724359D01*
X17010464Y-43650137D01*
X16949862Y-43589535D01*
X16875640Y-43546682D01*
X16875636Y-43546681D01*
X16792856Y-43524500D01*
X16792853Y-43524500D01*
X16707147Y-43524500D01*
X16707144Y-43524500D01*
X16624363Y-43546681D01*
X16624359Y-43546682D01*
X16550137Y-43589535D01*
X16550137Y-43589536D01*
X16489536Y-43650137D01*
X16489535Y-43650137D01*
X16446682Y-43724359D01*
X16446681Y-43724363D01*
X16424500Y-43807143D01*
X13075500Y-43807143D01*
X13075500Y-43757144D01*
X13075499Y-43757143D01*
X13066715Y-43724362D01*
X13053318Y-43674362D01*
X13053317Y-43674361D01*
X13053317Y-43674359D01*
X13010464Y-43600137D01*
X12949862Y-43539535D01*
X12875640Y-43496682D01*
X12875636Y-43496681D01*
X12792856Y-43474500D01*
X12792853Y-43474500D01*
X12707147Y-43474500D01*
X12707144Y-43474500D01*
X12624363Y-43496681D01*
X12624359Y-43496682D01*
X12550137Y-43539535D01*
X12550137Y-43539536D01*
X12489536Y-43600137D01*
X12489535Y-43600137D01*
X12446682Y-43674359D01*
X12446681Y-43674363D01*
X12424500Y-43757143D01*
X12075499Y-43757143D01*
X12066715Y-43724362D01*
X12053318Y-43674362D01*
X12053317Y-43674361D01*
X12053317Y-43674359D01*
X12010464Y-43600137D01*
X11949862Y-43539535D01*
X11875640Y-43496682D01*
X11875636Y-43496681D01*
X11792856Y-43474500D01*
X11792853Y-43474500D01*
X11707147Y-43474500D01*
X11707144Y-43474500D01*
X11624363Y-43496681D01*
X11624359Y-43496682D01*
X11550137Y-43539535D01*
X11550137Y-43539536D01*
X11489536Y-43600137D01*
X11489535Y-43600137D01*
X11446682Y-43674359D01*
X11446681Y-43674363D01*
X11424500Y-43757143D01*
X10967470Y-43757143D01*
X10949862Y-43739535D01*
X10875640Y-43696682D01*
X10875636Y-43696681D01*
X10792856Y-43674500D01*
X10792853Y-43674500D01*
X10707147Y-43674500D01*
X10707144Y-43674500D01*
X10624363Y-43696681D01*
X10624359Y-43696682D01*
X10550137Y-43739535D01*
X10550137Y-43739536D01*
X10489536Y-43800137D01*
X10489535Y-43800137D01*
X10446682Y-43874359D01*
X10446681Y-43874363D01*
X10424500Y-43957143D01*
X10424500Y-44045916D01*
X10410148Y-44080564D01*
X10375500Y-44094916D01*
X10362818Y-44093246D01*
X10292856Y-44074500D01*
X10292853Y-44074500D01*
X10207147Y-44074500D01*
X10207144Y-44074500D01*
X10124363Y-44096681D01*
X10124359Y-44096682D01*
X10050137Y-44139535D01*
X10050137Y-44139536D01*
X9989536Y-44200137D01*
X9989535Y-44200137D01*
X9946682Y-44274359D01*
X9946681Y-44274363D01*
X9924500Y-44357143D01*
X9575499Y-44357143D01*
X9561997Y-44306753D01*
X9553318Y-44274362D01*
X9553317Y-44274361D01*
X9553317Y-44274359D01*
X9510464Y-44200137D01*
X9449862Y-44139535D01*
X9375640Y-44096682D01*
X9375636Y-44096681D01*
X9292856Y-44074500D01*
X9292853Y-44074500D01*
X9207147Y-44074500D01*
X9207144Y-44074500D01*
X9124363Y-44096681D01*
X9124359Y-44096682D01*
X9050137Y-44139535D01*
X9050137Y-44139536D01*
X8989536Y-44200137D01*
X8989535Y-44200137D01*
X8946682Y-44274359D01*
X8946681Y-44274363D01*
X8924500Y-44357143D01*
X8924500Y-44445916D01*
X8910148Y-44480564D01*
X8875500Y-44494916D01*
X8862818Y-44493246D01*
X8792856Y-44474500D01*
X8792853Y-44474500D01*
X8707147Y-44474500D01*
X8707144Y-44474500D01*
X8624363Y-44496681D01*
X8624359Y-44496682D01*
X8550137Y-44539535D01*
X8550137Y-44539536D01*
X8489536Y-44600136D01*
X8488873Y-44601001D01*
X8488397Y-44601275D01*
X8487264Y-44602409D01*
X8486960Y-44602105D01*
X8456394Y-44619751D01*
X8420169Y-44610043D01*
X8411127Y-44601001D01*
X8410463Y-44600136D01*
X8349862Y-44539535D01*
X8275640Y-44496682D01*
X8275636Y-44496681D01*
X8192856Y-44474500D01*
X8192853Y-44474500D01*
X8107147Y-44474500D01*
X8107144Y-44474500D01*
X8024363Y-44496681D01*
X8024359Y-44496682D01*
X7950137Y-44539535D01*
X7950137Y-44539536D01*
X7889536Y-44600137D01*
X7889535Y-44600137D01*
X7846682Y-44674359D01*
X7846681Y-44674363D01*
X7824500Y-44757143D01*
X300500Y-44757143D01*
X300500Y-44357143D01*
X6924500Y-44357143D01*
X6924500Y-44442856D01*
X6946681Y-44525636D01*
X6946682Y-44525640D01*
X6974813Y-44574363D01*
X6989535Y-44599862D01*
X7050138Y-44660465D01*
X7074210Y-44674363D01*
X7124359Y-44703317D01*
X7124361Y-44703317D01*
X7124362Y-44703318D01*
X7137182Y-44706753D01*
X7207143Y-44725499D01*
X7207144Y-44725500D01*
X7207147Y-44725500D01*
X7292856Y-44725500D01*
X7292856Y-44725499D01*
X7375638Y-44703318D01*
X7449862Y-44660465D01*
X7510465Y-44599862D01*
X7553318Y-44525638D01*
X7575499Y-44442856D01*
X7575500Y-44442856D01*
X7575500Y-44357144D01*
X7575499Y-44357143D01*
X7561997Y-44306753D01*
X7553318Y-44274362D01*
X7553317Y-44274361D01*
X7553317Y-44274359D01*
X7510464Y-44200137D01*
X7449862Y-44139535D01*
X7375640Y-44096682D01*
X7375636Y-44096681D01*
X7292856Y-44074500D01*
X7292853Y-44074500D01*
X7207147Y-44074500D01*
X7207144Y-44074500D01*
X7124363Y-44096681D01*
X7124359Y-44096682D01*
X7050137Y-44139535D01*
X7050137Y-44139536D01*
X6989536Y-44200137D01*
X6989535Y-44200137D01*
X6946682Y-44274359D01*
X6946681Y-44274363D01*
X6924500Y-44357143D01*
X300500Y-44357143D01*
X300500Y-43557143D01*
X3749500Y-43557143D01*
X3749500Y-43642856D01*
X3771681Y-43725636D01*
X3771682Y-43725640D01*
X3814535Y-43799862D01*
X3875138Y-43860465D01*
X3899210Y-43874363D01*
X3949359Y-43903317D01*
X3949361Y-43903317D01*
X3949362Y-43903318D01*
X4014651Y-43920812D01*
X4032143Y-43925499D01*
X4032144Y-43925500D01*
X4032147Y-43925500D01*
X4117856Y-43925500D01*
X4117856Y-43925499D01*
X4200638Y-43903318D01*
X4274862Y-43860465D01*
X4335465Y-43799862D01*
X4360129Y-43757143D01*
X7424500Y-43757143D01*
X7424500Y-43842856D01*
X7446681Y-43925636D01*
X7446682Y-43925640D01*
X7489535Y-43999862D01*
X7550138Y-44060465D01*
X7577304Y-44076149D01*
X7624359Y-44103317D01*
X7624361Y-44103317D01*
X7624362Y-44103318D01*
X7689651Y-44120812D01*
X7707143Y-44125499D01*
X7707144Y-44125500D01*
X7707147Y-44125500D01*
X7792856Y-44125500D01*
X7792856Y-44125499D01*
X7875638Y-44103318D01*
X7949862Y-44060465D01*
X8010465Y-43999862D01*
X8053318Y-43925638D01*
X8075499Y-43842856D01*
X8075500Y-43842856D01*
X8075500Y-43757144D01*
X8075499Y-43757143D01*
X9424500Y-43757143D01*
X9424500Y-43842856D01*
X9446681Y-43925636D01*
X9446682Y-43925640D01*
X9489535Y-43999862D01*
X9550138Y-44060465D01*
X9577304Y-44076149D01*
X9624359Y-44103317D01*
X9624361Y-44103317D01*
X9624362Y-44103318D01*
X9689651Y-44120812D01*
X9707143Y-44125499D01*
X9707144Y-44125500D01*
X9707147Y-44125500D01*
X9792856Y-44125500D01*
X9792856Y-44125499D01*
X9875638Y-44103318D01*
X9949862Y-44060465D01*
X10010465Y-43999862D01*
X10053318Y-43925638D01*
X10075499Y-43842856D01*
X10075500Y-43842856D01*
X10075500Y-43757144D01*
X10075499Y-43757143D01*
X10066715Y-43724362D01*
X10053318Y-43674362D01*
X10053317Y-43674361D01*
X10053317Y-43674359D01*
X10010464Y-43600137D01*
X9949862Y-43539535D01*
X9875640Y-43496682D01*
X9875636Y-43496681D01*
X9792856Y-43474500D01*
X9792853Y-43474500D01*
X9707147Y-43474500D01*
X9707144Y-43474500D01*
X9624363Y-43496681D01*
X9624359Y-43496682D01*
X9550137Y-43539535D01*
X9550137Y-43539536D01*
X9489536Y-43600137D01*
X9489535Y-43600137D01*
X9446682Y-43674359D01*
X9446681Y-43674363D01*
X9424500Y-43757143D01*
X8075499Y-43757143D01*
X8066715Y-43724362D01*
X8053318Y-43674362D01*
X8053317Y-43674361D01*
X8053317Y-43674359D01*
X8010464Y-43600137D01*
X7949862Y-43539535D01*
X7875640Y-43496682D01*
X7875636Y-43496681D01*
X7792856Y-43474500D01*
X7792853Y-43474500D01*
X7707147Y-43474500D01*
X7707144Y-43474500D01*
X7624363Y-43496681D01*
X7624359Y-43496682D01*
X7550137Y-43539535D01*
X7550137Y-43539536D01*
X7489536Y-43600137D01*
X7489535Y-43600137D01*
X7446682Y-43674359D01*
X7446681Y-43674363D01*
X7424500Y-43757143D01*
X4360129Y-43757143D01*
X4378318Y-43725638D01*
X4400499Y-43642856D01*
X4400500Y-43642856D01*
X4400500Y-43557144D01*
X4400499Y-43557143D01*
X4391752Y-43524500D01*
X4378318Y-43474362D01*
X4378317Y-43474361D01*
X4378317Y-43474359D01*
X4335464Y-43400137D01*
X4274862Y-43339535D01*
X4200640Y-43296682D01*
X4200636Y-43296681D01*
X4117856Y-43274500D01*
X4117853Y-43274500D01*
X4032147Y-43274500D01*
X4032144Y-43274500D01*
X3949363Y-43296681D01*
X3949359Y-43296682D01*
X3875137Y-43339535D01*
X3875137Y-43339536D01*
X3814536Y-43400137D01*
X3814535Y-43400137D01*
X3771682Y-43474359D01*
X3771681Y-43474363D01*
X3749500Y-43557143D01*
X300500Y-43557143D01*
X300500Y-43057143D01*
X16189900Y-43057143D01*
X16189900Y-43142856D01*
X16212081Y-43225636D01*
X16212082Y-43225640D01*
X16240292Y-43274500D01*
X16254935Y-43299862D01*
X16315538Y-43360465D01*
X16342704Y-43376149D01*
X16389759Y-43403317D01*
X16389761Y-43403317D01*
X16389762Y-43403318D01*
X16455051Y-43420812D01*
X16472543Y-43425499D01*
X16472544Y-43425500D01*
X16472547Y-43425500D01*
X16558256Y-43425500D01*
X16558256Y-43425499D01*
X16641038Y-43403318D01*
X16715262Y-43360465D01*
X16775865Y-43299862D01*
X16818718Y-43225638D01*
X16840899Y-43142856D01*
X16840900Y-43142856D01*
X16840900Y-43057144D01*
X16840899Y-43057143D01*
X16825551Y-42999863D01*
X16818718Y-42974362D01*
X16818717Y-42974361D01*
X16818717Y-42974359D01*
X16791549Y-42927304D01*
X16775865Y-42900138D01*
X16715262Y-42839535D01*
X16641039Y-42796682D01*
X16641036Y-42796681D01*
X16558256Y-42774500D01*
X16558253Y-42774500D01*
X16472547Y-42774500D01*
X16472544Y-42774500D01*
X16389763Y-42796681D01*
X16389759Y-42796682D01*
X16315537Y-42839535D01*
X16315537Y-42839536D01*
X16254936Y-42900137D01*
X16254935Y-42900137D01*
X16212082Y-42974359D01*
X16212081Y-42974363D01*
X16189900Y-43057143D01*
X300500Y-43057143D01*
X300500Y-42757143D01*
X18674500Y-42757143D01*
X18674500Y-42842856D01*
X18696681Y-42925636D01*
X18696682Y-42925640D01*
X18724813Y-42974363D01*
X18739535Y-42999862D01*
X18800138Y-43060465D01*
X18827304Y-43076149D01*
X18874359Y-43103317D01*
X18874361Y-43103317D01*
X18874362Y-43103318D01*
X18939651Y-43120812D01*
X18957143Y-43125499D01*
X18957144Y-43125500D01*
X18957147Y-43125500D01*
X19042856Y-43125500D01*
X19042856Y-43125499D01*
X19125638Y-43103318D01*
X19199862Y-43060465D01*
X19260465Y-42999862D01*
X19303318Y-42925638D01*
X19325499Y-42842856D01*
X19325500Y-42842856D01*
X19325500Y-42757144D01*
X19325499Y-42757143D01*
X19303318Y-42674363D01*
X19303317Y-42674359D01*
X19260464Y-42600137D01*
X19199862Y-42539535D01*
X19125640Y-42496682D01*
X19125636Y-42496681D01*
X19042856Y-42474500D01*
X19042853Y-42474500D01*
X18957147Y-42474500D01*
X18957144Y-42474500D01*
X18874363Y-42496681D01*
X18874359Y-42496682D01*
X18800137Y-42539535D01*
X18800137Y-42539536D01*
X18739536Y-42600137D01*
X18739535Y-42600137D01*
X18696682Y-42674359D01*
X18696681Y-42674363D01*
X18674500Y-42757143D01*
X300500Y-42757143D01*
X300500Y-41707143D01*
X4374500Y-41707143D01*
X4374500Y-41792856D01*
X4396681Y-41875636D01*
X4396682Y-41875640D01*
X4439535Y-41949862D01*
X4500138Y-42010465D01*
X4524210Y-42024363D01*
X4574359Y-42053317D01*
X4574361Y-42053317D01*
X4574362Y-42053318D01*
X4639651Y-42070812D01*
X4657143Y-42075499D01*
X4657144Y-42075500D01*
X4657147Y-42075500D01*
X4742855Y-42075500D01*
X4785192Y-42064155D01*
X4812817Y-42056753D01*
X4850000Y-42061648D01*
X4872830Y-42091400D01*
X4874500Y-42104083D01*
X4874500Y-42192856D01*
X4896681Y-42275636D01*
X4896682Y-42275640D01*
X4939535Y-42349862D01*
X5000138Y-42410465D01*
X5027304Y-42426149D01*
X5074359Y-42453317D01*
X5074361Y-42453317D01*
X5074362Y-42453318D01*
X5139651Y-42470812D01*
X5157143Y-42475499D01*
X5157144Y-42475500D01*
X5157147Y-42475500D01*
X5242856Y-42475500D01*
X5242856Y-42475499D01*
X5325638Y-42453318D01*
X5399862Y-42410465D01*
X5460465Y-42349862D01*
X5503318Y-42275638D01*
X5525499Y-42192856D01*
X5525500Y-42192856D01*
X5525500Y-42107144D01*
X5525499Y-42107143D01*
X5503318Y-42024363D01*
X5503317Y-42024359D01*
X5460464Y-41950137D01*
X5399862Y-41889535D01*
X5325640Y-41846682D01*
X5325636Y-41846681D01*
X5242856Y-41824500D01*
X5242853Y-41824500D01*
X5157147Y-41824500D01*
X5157144Y-41824500D01*
X5087182Y-41843246D01*
X5080617Y-41842381D01*
X5074500Y-41844916D01*
X5062681Y-41840020D01*
X5050000Y-41838351D01*
X5045969Y-41833097D01*
X5039852Y-41830564D01*
X5034956Y-41818745D01*
X5027170Y-41808598D01*
X5025500Y-41795916D01*
X5025500Y-41707144D01*
X5025500Y-41707143D01*
X14474500Y-41707143D01*
X14474500Y-41792856D01*
X14496681Y-41875636D01*
X14496682Y-41875640D01*
X14539535Y-41949862D01*
X14600138Y-42010465D01*
X14624210Y-42024363D01*
X14674359Y-42053317D01*
X14674361Y-42053317D01*
X14674362Y-42053318D01*
X14739651Y-42070812D01*
X14757143Y-42075499D01*
X14757144Y-42075500D01*
X14757147Y-42075500D01*
X14842856Y-42075500D01*
X14842856Y-42075499D01*
X14925638Y-42053318D01*
X14999862Y-42010465D01*
X15060465Y-41949862D01*
X15103318Y-41875638D01*
X15115585Y-41829855D01*
X15138415Y-41800103D01*
X15175597Y-41795208D01*
X15197563Y-41807890D01*
X15200138Y-41810465D01*
X15227304Y-41826149D01*
X15274359Y-41853317D01*
X15274361Y-41853317D01*
X15274362Y-41853318D01*
X15339651Y-41870812D01*
X15357143Y-41875499D01*
X15357144Y-41875500D01*
X15357147Y-41875500D01*
X15442856Y-41875500D01*
X15442856Y-41875499D01*
X15525638Y-41853318D01*
X15599862Y-41810465D01*
X15660465Y-41749862D01*
X15703318Y-41675638D01*
X15725499Y-41592856D01*
X15725500Y-41592856D01*
X15725500Y-41507144D01*
X15725499Y-41507143D01*
X15710151Y-41449863D01*
X15703318Y-41424362D01*
X15703317Y-41424361D01*
X15703317Y-41424359D01*
X15676149Y-41377304D01*
X15660465Y-41350138D01*
X15599862Y-41289535D01*
X15525640Y-41246682D01*
X15525636Y-41246681D01*
X15442856Y-41224500D01*
X15442853Y-41224500D01*
X15357147Y-41224500D01*
X15357144Y-41224500D01*
X15274363Y-41246681D01*
X15274359Y-41246682D01*
X15200137Y-41289535D01*
X15200137Y-41289536D01*
X15139536Y-41350137D01*
X15139535Y-41350137D01*
X15096682Y-41424359D01*
X15096682Y-41424361D01*
X15084414Y-41470144D01*
X15061583Y-41499897D01*
X15024401Y-41504791D01*
X15002436Y-41492109D01*
X14999862Y-41489535D01*
X14925640Y-41446682D01*
X14925636Y-41446681D01*
X14842856Y-41424500D01*
X14842853Y-41424500D01*
X14757147Y-41424500D01*
X14757144Y-41424500D01*
X14674363Y-41446681D01*
X14674359Y-41446682D01*
X14600137Y-41489535D01*
X14600137Y-41489536D01*
X14539536Y-41550137D01*
X14539535Y-41550137D01*
X14496682Y-41624359D01*
X14496681Y-41624363D01*
X14474500Y-41707143D01*
X5025500Y-41707143D01*
X5006433Y-41635987D01*
X5011328Y-41598805D01*
X5041081Y-41575975D01*
X5076986Y-41566354D01*
X5125638Y-41553318D01*
X5199862Y-41510465D01*
X5260465Y-41449862D01*
X5303318Y-41375638D01*
X5325499Y-41292856D01*
X5325500Y-41292856D01*
X5325500Y-41207144D01*
X5325499Y-41207143D01*
X5308273Y-41142856D01*
X5303318Y-41124362D01*
X5303317Y-41124361D01*
X5303317Y-41124359D01*
X5275107Y-41075499D01*
X5260465Y-41050138D01*
X5199862Y-40989535D01*
X5125640Y-40946682D01*
X5125636Y-40946681D01*
X5042856Y-40924500D01*
X5042853Y-40924500D01*
X4957147Y-40924500D01*
X4957144Y-40924500D01*
X4874363Y-40946681D01*
X4874359Y-40946682D01*
X4800137Y-40989535D01*
X4800137Y-40989536D01*
X4739536Y-41050137D01*
X4739535Y-41050137D01*
X4696682Y-41124359D01*
X4696681Y-41124363D01*
X4674500Y-41207143D01*
X4674500Y-41292856D01*
X4693566Y-41364012D01*
X4688671Y-41401194D01*
X4658919Y-41424024D01*
X4574361Y-41446682D01*
X4574359Y-41446682D01*
X4500137Y-41489535D01*
X4500137Y-41489536D01*
X4439536Y-41550137D01*
X4439535Y-41550137D01*
X4396682Y-41624359D01*
X4396681Y-41624363D01*
X4374500Y-41707143D01*
X300500Y-41707143D01*
X300500Y-40707143D01*
X14374500Y-40707143D01*
X14374500Y-40792856D01*
X14396681Y-40875636D01*
X14396682Y-40875640D01*
X14424892Y-40924500D01*
X14439535Y-40949862D01*
X14500138Y-41010465D01*
X14501931Y-41011500D01*
X14574359Y-41053317D01*
X14574361Y-41053317D01*
X14574362Y-41053318D01*
X14639651Y-41070812D01*
X14657143Y-41075499D01*
X14657144Y-41075500D01*
X14657147Y-41075500D01*
X14742856Y-41075500D01*
X14742856Y-41075499D01*
X14825638Y-41053318D01*
X14899862Y-41010465D01*
X14960465Y-40949862D01*
X14960468Y-40949855D01*
X14961127Y-40948999D01*
X14961602Y-40948724D01*
X14962736Y-40947591D01*
X14963039Y-40947894D01*
X14993606Y-40930249D01*
X15029831Y-40939957D01*
X15038873Y-40948999D01*
X15039534Y-40949860D01*
X15039535Y-40949862D01*
X15100138Y-41010465D01*
X15101931Y-41011500D01*
X15174359Y-41053317D01*
X15174361Y-41053317D01*
X15174362Y-41053318D01*
X15239651Y-41070812D01*
X15257143Y-41075499D01*
X15257144Y-41075500D01*
X15257147Y-41075500D01*
X15342856Y-41075500D01*
X15342856Y-41075499D01*
X15411363Y-41057143D01*
X16189900Y-41057143D01*
X16189900Y-41142856D01*
X16212081Y-41225636D01*
X16212082Y-41225640D01*
X16248973Y-41289535D01*
X16254935Y-41299862D01*
X16315538Y-41360465D01*
X16321682Y-41364012D01*
X16389759Y-41403317D01*
X16389761Y-41403317D01*
X16389762Y-41403318D01*
X16455051Y-41420812D01*
X16472543Y-41425499D01*
X16472544Y-41425500D01*
X16472547Y-41425500D01*
X16558256Y-41425500D01*
X16558256Y-41425499D01*
X16641038Y-41403318D01*
X16715262Y-41360465D01*
X16775865Y-41299862D01*
X16818718Y-41225638D01*
X16840899Y-41142856D01*
X16840900Y-41142856D01*
X16840900Y-41057144D01*
X16840899Y-41057143D01*
X16822784Y-40989536D01*
X16818718Y-40974362D01*
X16818717Y-40974361D01*
X16818717Y-40974359D01*
X16775864Y-40900137D01*
X16715262Y-40839535D01*
X16641040Y-40796682D01*
X16641036Y-40796681D01*
X16558256Y-40774500D01*
X16558253Y-40774500D01*
X16472547Y-40774500D01*
X16472544Y-40774500D01*
X16389763Y-40796681D01*
X16389759Y-40796682D01*
X16315537Y-40839535D01*
X16315537Y-40839536D01*
X16254936Y-40900137D01*
X16254935Y-40900137D01*
X16212082Y-40974359D01*
X16212081Y-40974363D01*
X16189900Y-41057143D01*
X15411363Y-41057143D01*
X15425638Y-41053318D01*
X15499862Y-41010465D01*
X15560465Y-40949862D01*
X15603318Y-40875638D01*
X15625499Y-40792856D01*
X15625500Y-40792856D01*
X15625500Y-40707144D01*
X15625499Y-40707143D01*
X15603318Y-40624363D01*
X15603317Y-40624359D01*
X15575107Y-40575499D01*
X15560465Y-40550138D01*
X15499862Y-40489535D01*
X15425640Y-40446682D01*
X15425636Y-40446681D01*
X15342856Y-40424500D01*
X15342853Y-40424500D01*
X15257147Y-40424500D01*
X15257144Y-40424500D01*
X15174363Y-40446681D01*
X15174359Y-40446682D01*
X15100137Y-40489535D01*
X15100137Y-40489536D01*
X15039536Y-40550136D01*
X15038873Y-40551001D01*
X15038397Y-40551275D01*
X15037264Y-40552409D01*
X15036960Y-40552105D01*
X15006394Y-40569751D01*
X14970169Y-40560043D01*
X14961127Y-40551001D01*
X14960463Y-40550136D01*
X14899862Y-40489535D01*
X14825640Y-40446682D01*
X14825636Y-40446681D01*
X14742856Y-40424500D01*
X14742853Y-40424500D01*
X14657147Y-40424500D01*
X14657144Y-40424500D01*
X14574363Y-40446681D01*
X14574359Y-40446682D01*
X14500137Y-40489535D01*
X14500137Y-40489536D01*
X14439536Y-40550137D01*
X14439535Y-40550137D01*
X14396682Y-40624359D01*
X14396681Y-40624363D01*
X14374500Y-40707143D01*
X300500Y-40707143D01*
X300500Y-39907143D01*
X4059100Y-39907143D01*
X4059100Y-39992856D01*
X4081281Y-40075636D01*
X4081282Y-40075640D01*
X4109413Y-40124363D01*
X4124135Y-40149862D01*
X4184738Y-40210465D01*
X4211904Y-40226149D01*
X4258959Y-40253317D01*
X4258961Y-40253317D01*
X4258962Y-40253318D01*
X4324251Y-40270812D01*
X4341743Y-40275499D01*
X4341744Y-40275500D01*
X4341747Y-40275500D01*
X4427456Y-40275500D01*
X4427456Y-40275499D01*
X4510238Y-40253318D01*
X4584462Y-40210465D01*
X4587784Y-40207143D01*
X5374500Y-40207143D01*
X5374500Y-40292856D01*
X5396681Y-40375636D01*
X5396682Y-40375640D01*
X5424892Y-40424500D01*
X5439535Y-40449862D01*
X5500138Y-40510465D01*
X5527304Y-40526149D01*
X5574359Y-40553317D01*
X5574361Y-40553317D01*
X5574362Y-40553318D01*
X5635691Y-40569751D01*
X5657143Y-40575499D01*
X5657144Y-40575500D01*
X5657147Y-40575500D01*
X5742856Y-40575500D01*
X5742856Y-40575499D01*
X5825638Y-40553318D01*
X5827213Y-40552409D01*
X5835583Y-40547576D01*
X5899862Y-40510465D01*
X5960465Y-40449862D01*
X6003318Y-40375638D01*
X6025499Y-40292856D01*
X6025500Y-40292856D01*
X6025500Y-40207144D01*
X6025499Y-40207143D01*
X6010151Y-40149863D01*
X6003318Y-40124362D01*
X6003317Y-40124361D01*
X6003317Y-40124359D01*
X5975189Y-40075641D01*
X5960465Y-40050138D01*
X5899862Y-39989535D01*
X5888649Y-39983061D01*
X5825640Y-39946682D01*
X5825636Y-39946681D01*
X5742856Y-39924500D01*
X5742853Y-39924500D01*
X5657147Y-39924500D01*
X5657144Y-39924500D01*
X5574363Y-39946681D01*
X5574359Y-39946682D01*
X5500137Y-39989535D01*
X5500137Y-39989536D01*
X5439536Y-40050137D01*
X5439535Y-40050137D01*
X5396682Y-40124359D01*
X5396681Y-40124363D01*
X5374500Y-40207143D01*
X4587784Y-40207143D01*
X4645065Y-40149862D01*
X4687918Y-40075638D01*
X4703440Y-40017708D01*
X4726268Y-39987957D01*
X4763450Y-39983061D01*
X4785417Y-39995744D01*
X4800138Y-40010465D01*
X4812689Y-40017711D01*
X4874359Y-40053317D01*
X4874361Y-40053317D01*
X4874362Y-40053318D01*
X4939651Y-40070812D01*
X4957143Y-40075499D01*
X4957144Y-40075500D01*
X4957147Y-40075500D01*
X5042856Y-40075500D01*
X5042856Y-40075499D01*
X5125638Y-40053318D01*
X5199862Y-40010465D01*
X5260465Y-39949862D01*
X5303318Y-39875638D01*
X5325499Y-39792856D01*
X5325500Y-39792856D01*
X5325500Y-39707144D01*
X5325499Y-39707143D01*
X5317057Y-39675636D01*
X5303318Y-39624362D01*
X5303317Y-39624361D01*
X5303317Y-39624359D01*
X5260464Y-39550137D01*
X5217470Y-39507143D01*
X14574500Y-39507143D01*
X14574500Y-39592856D01*
X14596681Y-39675636D01*
X14596682Y-39675640D01*
X14639535Y-39749862D01*
X14700138Y-39810465D01*
X14724210Y-39824363D01*
X14774359Y-39853317D01*
X14774361Y-39853317D01*
X14774362Y-39853318D01*
X14839651Y-39870812D01*
X14857143Y-39875499D01*
X14857144Y-39875500D01*
X14857147Y-39875500D01*
X14942856Y-39875500D01*
X14942856Y-39875499D01*
X15025638Y-39853318D01*
X15099862Y-39810465D01*
X15160465Y-39749862D01*
X15203318Y-39675638D01*
X15225499Y-39592856D01*
X15225500Y-39592856D01*
X15225500Y-39507144D01*
X15225499Y-39507143D01*
X15220781Y-39489535D01*
X15203318Y-39424362D01*
X15203317Y-39424361D01*
X15203317Y-39424359D01*
X15160464Y-39350137D01*
X15099862Y-39289535D01*
X15025640Y-39246682D01*
X15025636Y-39246681D01*
X14942856Y-39224500D01*
X14942853Y-39224500D01*
X14857147Y-39224500D01*
X14857144Y-39224500D01*
X14774363Y-39246681D01*
X14774359Y-39246682D01*
X14700137Y-39289535D01*
X14700137Y-39289536D01*
X14639536Y-39350137D01*
X14639535Y-39350137D01*
X14596682Y-39424359D01*
X14596681Y-39424363D01*
X14574500Y-39507143D01*
X5217470Y-39507143D01*
X5199862Y-39489535D01*
X5125640Y-39446682D01*
X5125636Y-39446681D01*
X5042856Y-39424500D01*
X5042853Y-39424500D01*
X4957147Y-39424500D01*
X4957144Y-39424500D01*
X4874363Y-39446681D01*
X4874359Y-39446682D01*
X4800137Y-39489535D01*
X4800137Y-39489536D01*
X4739536Y-39550137D01*
X4739535Y-39550137D01*
X4696682Y-39624359D01*
X4696681Y-39624363D01*
X4681160Y-39682289D01*
X4658330Y-39712042D01*
X4621148Y-39716937D01*
X4599182Y-39704255D01*
X4584462Y-39689535D01*
X4510240Y-39646682D01*
X4510236Y-39646681D01*
X4427456Y-39624500D01*
X4427453Y-39624500D01*
X4341747Y-39624500D01*
X4341744Y-39624500D01*
X4258963Y-39646681D01*
X4258959Y-39646682D01*
X4184737Y-39689535D01*
X4184737Y-39689536D01*
X4124136Y-39750137D01*
X4124135Y-39750137D01*
X4081282Y-39824359D01*
X4081281Y-39824363D01*
X4059100Y-39907143D01*
X300500Y-39907143D01*
X300500Y-37707143D01*
X4574500Y-37707143D01*
X4574500Y-37792856D01*
X4596681Y-37875636D01*
X4596682Y-37875640D01*
X4624892Y-37924500D01*
X4639535Y-37949862D01*
X4700138Y-38010465D01*
X4727304Y-38026149D01*
X4774359Y-38053317D01*
X4774361Y-38053317D01*
X4774362Y-38053318D01*
X4805244Y-38061592D01*
X4858918Y-38075975D01*
X4888671Y-38098805D01*
X4893566Y-38135987D01*
X4874500Y-38207143D01*
X4874500Y-38292856D01*
X4896681Y-38375636D01*
X4896682Y-38375640D01*
X4909116Y-38397175D01*
X4939535Y-38449862D01*
X5000138Y-38510465D01*
X5027304Y-38526149D01*
X5074359Y-38553317D01*
X5074361Y-38553317D01*
X5074362Y-38553318D01*
X5139651Y-38570812D01*
X5157143Y-38575499D01*
X5157144Y-38575500D01*
X5157147Y-38575500D01*
X5242856Y-38575500D01*
X5242856Y-38575499D01*
X5325638Y-38553318D01*
X5399862Y-38510465D01*
X5460465Y-38449862D01*
X5503318Y-38375638D01*
X5525499Y-38292856D01*
X5525500Y-38292856D01*
X5525500Y-38207144D01*
X5525499Y-38207143D01*
X14674500Y-38207143D01*
X14674500Y-38292856D01*
X14696681Y-38375636D01*
X14696682Y-38375640D01*
X14709116Y-38397175D01*
X14739535Y-38449862D01*
X14800138Y-38510465D01*
X14827304Y-38526149D01*
X14874359Y-38553317D01*
X14874361Y-38553317D01*
X14874362Y-38553318D01*
X14939651Y-38570812D01*
X14957143Y-38575499D01*
X14957144Y-38575500D01*
X14957147Y-38575500D01*
X15042856Y-38575500D01*
X15042856Y-38575499D01*
X15125638Y-38553318D01*
X15135358Y-38547705D01*
X15172538Y-38542809D01*
X15202293Y-38565638D01*
X15207190Y-38602819D01*
X15202295Y-38614638D01*
X15196683Y-38624358D01*
X15196681Y-38624363D01*
X15174500Y-38707143D01*
X15174500Y-38792856D01*
X15196681Y-38875636D01*
X15196682Y-38875640D01*
X15239535Y-38949862D01*
X15300138Y-39010465D01*
X15327304Y-39026149D01*
X15374359Y-39053317D01*
X15374361Y-39053317D01*
X15374362Y-39053318D01*
X15439651Y-39070812D01*
X15457143Y-39075499D01*
X15457144Y-39075500D01*
X15457147Y-39075500D01*
X15542856Y-39075500D01*
X15542856Y-39075499D01*
X15625638Y-39053318D01*
X15699862Y-39010465D01*
X15753184Y-38957143D01*
X18674500Y-38957143D01*
X18674500Y-39042856D01*
X18696681Y-39125636D01*
X18696682Y-39125640D01*
X18739535Y-39199862D01*
X18800138Y-39260465D01*
X18827304Y-39276149D01*
X18874359Y-39303317D01*
X18874361Y-39303317D01*
X18874362Y-39303318D01*
X18939651Y-39320812D01*
X18957143Y-39325499D01*
X18957144Y-39325500D01*
X18957147Y-39325500D01*
X19042856Y-39325500D01*
X19042856Y-39325499D01*
X19125638Y-39303318D01*
X19199862Y-39260465D01*
X19260465Y-39199862D01*
X19303318Y-39125638D01*
X19325499Y-39042856D01*
X19325500Y-39042856D01*
X19325500Y-38957144D01*
X19325499Y-38957143D01*
X19303318Y-38874363D01*
X19303317Y-38874359D01*
X19260464Y-38800137D01*
X19199862Y-38739535D01*
X19125640Y-38696682D01*
X19125636Y-38696681D01*
X19042856Y-38674500D01*
X19042853Y-38674500D01*
X18957147Y-38674500D01*
X18957144Y-38674500D01*
X18874363Y-38696681D01*
X18874359Y-38696682D01*
X18800137Y-38739535D01*
X18800137Y-38739536D01*
X18739536Y-38800137D01*
X18739535Y-38800137D01*
X18696682Y-38874359D01*
X18696681Y-38874363D01*
X18674500Y-38957143D01*
X15753184Y-38957143D01*
X15760465Y-38949862D01*
X15803318Y-38875638D01*
X15825499Y-38792856D01*
X15825500Y-38792856D01*
X15825500Y-38707144D01*
X15825499Y-38707143D01*
X15803318Y-38624363D01*
X15803317Y-38624359D01*
X15760464Y-38550137D01*
X15699862Y-38489535D01*
X15625640Y-38446682D01*
X15625636Y-38446681D01*
X15542856Y-38424500D01*
X15542853Y-38424500D01*
X15457147Y-38424500D01*
X15457144Y-38424500D01*
X15374363Y-38446681D01*
X15374358Y-38446683D01*
X15364638Y-38452295D01*
X15327456Y-38457189D01*
X15297704Y-38434357D01*
X15292810Y-38397175D01*
X15297704Y-38385361D01*
X15303318Y-38375638D01*
X15325499Y-38292856D01*
X15325500Y-38292856D01*
X15325500Y-38207144D01*
X15325499Y-38207143D01*
X15303318Y-38124363D01*
X15303317Y-38124359D01*
X15260464Y-38050137D01*
X15199862Y-37989535D01*
X15125640Y-37946682D01*
X15125636Y-37946681D01*
X15042856Y-37924500D01*
X15042853Y-37924500D01*
X14957147Y-37924500D01*
X14957144Y-37924500D01*
X14874363Y-37946681D01*
X14874359Y-37946682D01*
X14800137Y-37989535D01*
X14800137Y-37989536D01*
X14739536Y-38050137D01*
X14739535Y-38050137D01*
X14696682Y-38124359D01*
X14696681Y-38124363D01*
X14674500Y-38207143D01*
X5525499Y-38207143D01*
X5503318Y-38124363D01*
X5503317Y-38124359D01*
X5460464Y-38050137D01*
X5399862Y-37989535D01*
X5325639Y-37946682D01*
X5241080Y-37924024D01*
X5211328Y-37901194D01*
X5206433Y-37864011D01*
X5225500Y-37792854D01*
X5225500Y-37707144D01*
X5225499Y-37707143D01*
X13974500Y-37707143D01*
X13974500Y-37792856D01*
X13996681Y-37875636D01*
X13996682Y-37875640D01*
X14024892Y-37924500D01*
X14039535Y-37949862D01*
X14100138Y-38010465D01*
X14127304Y-38026149D01*
X14174359Y-38053317D01*
X14174361Y-38053317D01*
X14174362Y-38053318D01*
X14239651Y-38070812D01*
X14257143Y-38075499D01*
X14257144Y-38075500D01*
X14257147Y-38075500D01*
X14342856Y-38075500D01*
X14342856Y-38075499D01*
X14425638Y-38053318D01*
X14499862Y-38010465D01*
X14560465Y-37949862D01*
X14603318Y-37875638D01*
X14625499Y-37792856D01*
X14625500Y-37792856D01*
X14625500Y-37707144D01*
X14625499Y-37707143D01*
X14603318Y-37624363D01*
X14603317Y-37624359D01*
X14560464Y-37550137D01*
X14499862Y-37489535D01*
X14425640Y-37446682D01*
X14425636Y-37446681D01*
X14342856Y-37424500D01*
X14342853Y-37424500D01*
X14257147Y-37424500D01*
X14257144Y-37424500D01*
X14174363Y-37446681D01*
X14174359Y-37446682D01*
X14100137Y-37489535D01*
X14100137Y-37489536D01*
X14039536Y-37550137D01*
X14039535Y-37550137D01*
X13996682Y-37624359D01*
X13996681Y-37624363D01*
X13974500Y-37707143D01*
X5225499Y-37707143D01*
X5203318Y-37624363D01*
X5203317Y-37624359D01*
X5160464Y-37550137D01*
X5099862Y-37489535D01*
X5025640Y-37446682D01*
X5025636Y-37446681D01*
X4942856Y-37424500D01*
X4942853Y-37424500D01*
X4857147Y-37424500D01*
X4857144Y-37424500D01*
X4774363Y-37446681D01*
X4774359Y-37446682D01*
X4700137Y-37489535D01*
X4700137Y-37489536D01*
X4639536Y-37550137D01*
X4639535Y-37550137D01*
X4596682Y-37624359D01*
X4596681Y-37624363D01*
X4574500Y-37707143D01*
X300500Y-37707143D01*
X300500Y-37207143D01*
X5374500Y-37207143D01*
X5374500Y-37292856D01*
X5396681Y-37375636D01*
X5396682Y-37375640D01*
X5424892Y-37424500D01*
X5439535Y-37449862D01*
X5500138Y-37510465D01*
X5527304Y-37526149D01*
X5574359Y-37553317D01*
X5574361Y-37553317D01*
X5574362Y-37553318D01*
X5639651Y-37570812D01*
X5657143Y-37575499D01*
X5657144Y-37575500D01*
X5657147Y-37575500D01*
X5742856Y-37575500D01*
X5742856Y-37575499D01*
X5825638Y-37553318D01*
X5899862Y-37510465D01*
X5960465Y-37449862D01*
X6003318Y-37375638D01*
X6025499Y-37292856D01*
X6025500Y-37292856D01*
X6025500Y-37207144D01*
X6025499Y-37207143D01*
X14674500Y-37207143D01*
X14674500Y-37292856D01*
X14696681Y-37375636D01*
X14696682Y-37375640D01*
X14724892Y-37424500D01*
X14739535Y-37449862D01*
X14800138Y-37510465D01*
X14827304Y-37526149D01*
X14874359Y-37553317D01*
X14874361Y-37553317D01*
X14874362Y-37553318D01*
X14939651Y-37570812D01*
X14957143Y-37575499D01*
X14957144Y-37575500D01*
X14957147Y-37575500D01*
X15042856Y-37575500D01*
X15042856Y-37575499D01*
X15125638Y-37553318D01*
X15199862Y-37510465D01*
X15260465Y-37449862D01*
X15303318Y-37375638D01*
X15325499Y-37292856D01*
X15325500Y-37292856D01*
X15325500Y-37207144D01*
X15325499Y-37207143D01*
X15303318Y-37124363D01*
X15303317Y-37124359D01*
X15260464Y-37050137D01*
X15199862Y-36989535D01*
X15125640Y-36946682D01*
X15125636Y-36946681D01*
X15042856Y-36924500D01*
X15042853Y-36924500D01*
X14957147Y-36924500D01*
X14957144Y-36924500D01*
X14874363Y-36946681D01*
X14874359Y-36946682D01*
X14800137Y-36989535D01*
X14800137Y-36989536D01*
X14739536Y-37050137D01*
X14739535Y-37050137D01*
X14696682Y-37124359D01*
X14696681Y-37124363D01*
X14674500Y-37207143D01*
X6025499Y-37207143D01*
X6003318Y-37124363D01*
X6003317Y-37124359D01*
X5960464Y-37050137D01*
X5899862Y-36989535D01*
X5825640Y-36946682D01*
X5825636Y-36946681D01*
X5742856Y-36924500D01*
X5742853Y-36924500D01*
X5657147Y-36924500D01*
X5657144Y-36924500D01*
X5574363Y-36946681D01*
X5574359Y-36946682D01*
X5500137Y-36989535D01*
X5500137Y-36989536D01*
X5439536Y-37050137D01*
X5439535Y-37050137D01*
X5396682Y-37124359D01*
X5396681Y-37124363D01*
X5374500Y-37207143D01*
X300500Y-37207143D01*
X300500Y-36707143D01*
X4674500Y-36707143D01*
X4674500Y-36792856D01*
X4696681Y-36875636D01*
X4696682Y-36875640D01*
X4724892Y-36924500D01*
X4739535Y-36949862D01*
X4800138Y-37010465D01*
X4827304Y-37026149D01*
X4874359Y-37053317D01*
X4874361Y-37053317D01*
X4874362Y-37053318D01*
X4939651Y-37070812D01*
X4957143Y-37075499D01*
X4957144Y-37075500D01*
X4957147Y-37075500D01*
X5042856Y-37075500D01*
X5042856Y-37075499D01*
X5125638Y-37053318D01*
X5199862Y-37010465D01*
X5260465Y-36949862D01*
X5303318Y-36875638D01*
X5325499Y-36792856D01*
X5325500Y-36792856D01*
X5325500Y-36707144D01*
X5325499Y-36707143D01*
X13974500Y-36707143D01*
X13974500Y-36792856D01*
X13996681Y-36875636D01*
X13996682Y-36875640D01*
X14024892Y-36924500D01*
X14039535Y-36949862D01*
X14100138Y-37010465D01*
X14127304Y-37026149D01*
X14174359Y-37053317D01*
X14174361Y-37053317D01*
X14174362Y-37053318D01*
X14239651Y-37070812D01*
X14257143Y-37075499D01*
X14257144Y-37075500D01*
X14257147Y-37075500D01*
X14342856Y-37075500D01*
X14342856Y-37075499D01*
X14425638Y-37053318D01*
X14499862Y-37010465D01*
X14560465Y-36949862D01*
X14603318Y-36875638D01*
X14625499Y-36792856D01*
X14625500Y-36792856D01*
X14625500Y-36707144D01*
X14625499Y-36707143D01*
X14603318Y-36624363D01*
X14603317Y-36624359D01*
X14560464Y-36550137D01*
X14499862Y-36489535D01*
X14425640Y-36446682D01*
X14425636Y-36446681D01*
X14342856Y-36424500D01*
X14342853Y-36424500D01*
X14257147Y-36424500D01*
X14257144Y-36424500D01*
X14174363Y-36446681D01*
X14174359Y-36446682D01*
X14100137Y-36489535D01*
X14100137Y-36489536D01*
X14039536Y-36550137D01*
X14039535Y-36550137D01*
X13996682Y-36624359D01*
X13996681Y-36624363D01*
X13974500Y-36707143D01*
X5325499Y-36707143D01*
X5303318Y-36624363D01*
X5303317Y-36624359D01*
X5260464Y-36550137D01*
X5199862Y-36489535D01*
X5125640Y-36446682D01*
X5125636Y-36446681D01*
X5042856Y-36424500D01*
X5042853Y-36424500D01*
X4957147Y-36424500D01*
X4957144Y-36424500D01*
X4874363Y-36446681D01*
X4874359Y-36446682D01*
X4800137Y-36489535D01*
X4800137Y-36489536D01*
X4739536Y-36550137D01*
X4739535Y-36550137D01*
X4696682Y-36624359D01*
X4696681Y-36624363D01*
X4674500Y-36707143D01*
X300500Y-36707143D01*
X300500Y-35957143D01*
X18674500Y-35957143D01*
X18674500Y-36042856D01*
X18696681Y-36125636D01*
X18696682Y-36125640D01*
X18739535Y-36199862D01*
X18800138Y-36260465D01*
X18827304Y-36276149D01*
X18874359Y-36303317D01*
X18874361Y-36303317D01*
X18874362Y-36303318D01*
X18939651Y-36320812D01*
X18957143Y-36325499D01*
X18957144Y-36325500D01*
X18957147Y-36325500D01*
X19042856Y-36325500D01*
X19042856Y-36325499D01*
X19125638Y-36303318D01*
X19199862Y-36260465D01*
X19260465Y-36199862D01*
X19303318Y-36125638D01*
X19325499Y-36042856D01*
X19325500Y-36042856D01*
X19325500Y-35957144D01*
X19325499Y-35957143D01*
X19303318Y-35874363D01*
X19303317Y-35874359D01*
X19260464Y-35800137D01*
X19199862Y-35739535D01*
X19125640Y-35696682D01*
X19125636Y-35696681D01*
X19042856Y-35674500D01*
X19042853Y-35674500D01*
X18957147Y-35674500D01*
X18957144Y-35674500D01*
X18874363Y-35696681D01*
X18874359Y-35696682D01*
X18800137Y-35739535D01*
X18800137Y-35739536D01*
X18739536Y-35800137D01*
X18739535Y-35800137D01*
X18696682Y-35874359D01*
X18696681Y-35874363D01*
X18674500Y-35957143D01*
X300500Y-35957143D01*
X300500Y-35007143D01*
X2449500Y-35007143D01*
X2449500Y-35092856D01*
X2471681Y-35175636D01*
X2471682Y-35175640D01*
X2510488Y-35242853D01*
X2514535Y-35249862D01*
X2575138Y-35310465D01*
X2601415Y-35325636D01*
X2649359Y-35353317D01*
X2649361Y-35353317D01*
X2649362Y-35353318D01*
X2714651Y-35370812D01*
X2732143Y-35375499D01*
X2732144Y-35375500D01*
X2732147Y-35375500D01*
X2817856Y-35375500D01*
X2817856Y-35375499D01*
X2900638Y-35353318D01*
X2974862Y-35310465D01*
X3035465Y-35249862D01*
X3078318Y-35175638D01*
X3083274Y-35157143D01*
X7924500Y-35157143D01*
X7924500Y-35242856D01*
X7946681Y-35325636D01*
X7946682Y-35325640D01*
X7989535Y-35399862D01*
X8050138Y-35460465D01*
X8077304Y-35476149D01*
X8124359Y-35503317D01*
X8124361Y-35503317D01*
X8124362Y-35503318D01*
X8189651Y-35520812D01*
X8207143Y-35525499D01*
X8207144Y-35525500D01*
X8207147Y-35525500D01*
X8292856Y-35525500D01*
X8292856Y-35525499D01*
X8375638Y-35503318D01*
X8449862Y-35460465D01*
X8510465Y-35399862D01*
X8553318Y-35325638D01*
X8575499Y-35242856D01*
X8575500Y-35242856D01*
X8575500Y-35157144D01*
X8575499Y-35157143D01*
X8924500Y-35157143D01*
X8924500Y-35242856D01*
X8946681Y-35325636D01*
X8946682Y-35325640D01*
X8989535Y-35399862D01*
X9050138Y-35460465D01*
X9077304Y-35476149D01*
X9124359Y-35503317D01*
X9124361Y-35503317D01*
X9124362Y-35503318D01*
X9189651Y-35520812D01*
X9207143Y-35525499D01*
X9207144Y-35525500D01*
X9207147Y-35525500D01*
X9292856Y-35525500D01*
X9292856Y-35525499D01*
X9375638Y-35503318D01*
X9449862Y-35460465D01*
X9510465Y-35399862D01*
X9553318Y-35325638D01*
X9575499Y-35242856D01*
X9575500Y-35242856D01*
X9575500Y-35157144D01*
X9575499Y-35157143D01*
X10924500Y-35157143D01*
X10924500Y-35242856D01*
X10946681Y-35325636D01*
X10946682Y-35325640D01*
X10989535Y-35399862D01*
X11050138Y-35460465D01*
X11077304Y-35476149D01*
X11124359Y-35503317D01*
X11124361Y-35503317D01*
X11124362Y-35503318D01*
X11189651Y-35520812D01*
X11207143Y-35525499D01*
X11207144Y-35525500D01*
X11207147Y-35525500D01*
X11292856Y-35525500D01*
X11292856Y-35525499D01*
X11375638Y-35503318D01*
X11449862Y-35460465D01*
X11510465Y-35399862D01*
X11553318Y-35325638D01*
X11575499Y-35242856D01*
X11575500Y-35242856D01*
X11575500Y-35157144D01*
X11575499Y-35157143D01*
X11924500Y-35157143D01*
X11924500Y-35242856D01*
X11946681Y-35325636D01*
X11946682Y-35325640D01*
X11989535Y-35399862D01*
X12050138Y-35460465D01*
X12077304Y-35476149D01*
X12124359Y-35503317D01*
X12124361Y-35503317D01*
X12124362Y-35503318D01*
X12189651Y-35520812D01*
X12207143Y-35525499D01*
X12207144Y-35525500D01*
X12207147Y-35525500D01*
X12292856Y-35525500D01*
X12292856Y-35525499D01*
X12375638Y-35503318D01*
X12449862Y-35460465D01*
X12510465Y-35399862D01*
X12553318Y-35325638D01*
X12575499Y-35242856D01*
X12575500Y-35242856D01*
X12575500Y-35157144D01*
X12575499Y-35157143D01*
X12558273Y-35092856D01*
X12553318Y-35074362D01*
X12553317Y-35074361D01*
X12553317Y-35074359D01*
X12526149Y-35027304D01*
X12510465Y-35000138D01*
X12449862Y-34939535D01*
X12375640Y-34896682D01*
X12375636Y-34896681D01*
X12292856Y-34874500D01*
X12292853Y-34874500D01*
X12207147Y-34874500D01*
X12207144Y-34874500D01*
X12124363Y-34896681D01*
X12124359Y-34896682D01*
X12050137Y-34939535D01*
X12050137Y-34939536D01*
X11989536Y-35000137D01*
X11989535Y-35000137D01*
X11946682Y-35074359D01*
X11946681Y-35074363D01*
X11924500Y-35157143D01*
X11575499Y-35157143D01*
X11558273Y-35092856D01*
X11553318Y-35074362D01*
X11553317Y-35074361D01*
X11553317Y-35074359D01*
X11526149Y-35027304D01*
X11510465Y-35000138D01*
X11449862Y-34939535D01*
X11375640Y-34896682D01*
X11375636Y-34896681D01*
X11292856Y-34874500D01*
X11292853Y-34874500D01*
X11207147Y-34874500D01*
X11207144Y-34874500D01*
X11124363Y-34896681D01*
X11124359Y-34896682D01*
X11050137Y-34939535D01*
X11050137Y-34939536D01*
X10989536Y-35000137D01*
X10989535Y-35000137D01*
X10946682Y-35074359D01*
X10946681Y-35074363D01*
X10924500Y-35157143D01*
X9575499Y-35157143D01*
X9558273Y-35092856D01*
X9553318Y-35074362D01*
X9553317Y-35074361D01*
X9553317Y-35074359D01*
X9526149Y-35027304D01*
X9510465Y-35000138D01*
X9449862Y-34939535D01*
X9375640Y-34896682D01*
X9375636Y-34896681D01*
X9292856Y-34874500D01*
X9292853Y-34874500D01*
X9207147Y-34874500D01*
X9207144Y-34874500D01*
X9124363Y-34896681D01*
X9124359Y-34896682D01*
X9050137Y-34939535D01*
X9050137Y-34939536D01*
X8989536Y-35000137D01*
X8989535Y-35000137D01*
X8946682Y-35074359D01*
X8946681Y-35074363D01*
X8924500Y-35157143D01*
X8575499Y-35157143D01*
X8558273Y-35092856D01*
X8553318Y-35074362D01*
X8553317Y-35074361D01*
X8553317Y-35074359D01*
X8526149Y-35027304D01*
X8510465Y-35000138D01*
X8449862Y-34939535D01*
X8375640Y-34896682D01*
X8375636Y-34896681D01*
X8292856Y-34874500D01*
X8292853Y-34874500D01*
X8207147Y-34874500D01*
X8207144Y-34874500D01*
X8124363Y-34896681D01*
X8124359Y-34896682D01*
X8050137Y-34939535D01*
X8050137Y-34939536D01*
X7989536Y-35000137D01*
X7989535Y-35000137D01*
X7946682Y-35074359D01*
X7946681Y-35074363D01*
X7924500Y-35157143D01*
X3083274Y-35157143D01*
X3100499Y-35092856D01*
X3100500Y-35092856D01*
X3100500Y-35007144D01*
X3100499Y-35007143D01*
X3082384Y-34939536D01*
X3078318Y-34924362D01*
X3078317Y-34924361D01*
X3078317Y-34924359D01*
X3035464Y-34850137D01*
X2974862Y-34789535D01*
X2900640Y-34746682D01*
X2900636Y-34746681D01*
X2817856Y-34724500D01*
X2817853Y-34724500D01*
X2732147Y-34724500D01*
X2732144Y-34724500D01*
X2649363Y-34746681D01*
X2649359Y-34746682D01*
X2575137Y-34789535D01*
X2575137Y-34789536D01*
X2514536Y-34850137D01*
X2514535Y-34850137D01*
X2471682Y-34924359D01*
X2471681Y-34924363D01*
X2449500Y-35007143D01*
X300500Y-35007143D01*
X300500Y-34457143D01*
X7424500Y-34457143D01*
X7424500Y-34542856D01*
X7446681Y-34625636D01*
X7446682Y-34625640D01*
X7489535Y-34699862D01*
X7550138Y-34760465D01*
X7577304Y-34776149D01*
X7624359Y-34803317D01*
X7624361Y-34803317D01*
X7624362Y-34803318D01*
X7689651Y-34820812D01*
X7707143Y-34825499D01*
X7707144Y-34825500D01*
X7707147Y-34825500D01*
X7792856Y-34825500D01*
X7792856Y-34825499D01*
X7875638Y-34803318D01*
X7949862Y-34760465D01*
X8010465Y-34699862D01*
X8053318Y-34625638D01*
X8075499Y-34542856D01*
X8075500Y-34542856D01*
X8075500Y-34457144D01*
X8075499Y-34457143D01*
X8424500Y-34457143D01*
X8424500Y-34542856D01*
X8446681Y-34625636D01*
X8446682Y-34625640D01*
X8489535Y-34699862D01*
X8550138Y-34760465D01*
X8577304Y-34776149D01*
X8624359Y-34803317D01*
X8624361Y-34803317D01*
X8624362Y-34803318D01*
X8689651Y-34820812D01*
X8707143Y-34825499D01*
X8707144Y-34825500D01*
X8707147Y-34825500D01*
X8792856Y-34825500D01*
X8792856Y-34825499D01*
X8875638Y-34803318D01*
X8949862Y-34760465D01*
X9010465Y-34699862D01*
X9053318Y-34625638D01*
X9075499Y-34542856D01*
X9075500Y-34542856D01*
X9075500Y-34457144D01*
X9075499Y-34457143D01*
X9424500Y-34457143D01*
X9424500Y-34542856D01*
X9446681Y-34625636D01*
X9446682Y-34625640D01*
X9489535Y-34699862D01*
X9550138Y-34760465D01*
X9577304Y-34776149D01*
X9624359Y-34803317D01*
X9624361Y-34803317D01*
X9624362Y-34803318D01*
X9689651Y-34820812D01*
X9707143Y-34825499D01*
X9707144Y-34825500D01*
X9707147Y-34825500D01*
X9792856Y-34825500D01*
X9792856Y-34825499D01*
X9875638Y-34803318D01*
X9949862Y-34760465D01*
X10010465Y-34699862D01*
X10053318Y-34625638D01*
X10075500Y-34542853D01*
X10075975Y-34541081D01*
X10098805Y-34511328D01*
X10135987Y-34506433D01*
X10207144Y-34525500D01*
X10207147Y-34525500D01*
X10292855Y-34525500D01*
X10332711Y-34514819D01*
X10364012Y-34506433D01*
X10401194Y-34511328D01*
X10424024Y-34541080D01*
X10446682Y-34625638D01*
X10446682Y-34625640D01*
X10489535Y-34699862D01*
X10550138Y-34760465D01*
X10577304Y-34776149D01*
X10624359Y-34803317D01*
X10624361Y-34803317D01*
X10624362Y-34803318D01*
X10689651Y-34820812D01*
X10707143Y-34825499D01*
X10707144Y-34825500D01*
X10707147Y-34825500D01*
X10792856Y-34825500D01*
X10792856Y-34825499D01*
X10875638Y-34803318D01*
X10949862Y-34760465D01*
X11010465Y-34699862D01*
X11053318Y-34625638D01*
X11075499Y-34542856D01*
X11075500Y-34542856D01*
X11075500Y-34457144D01*
X11075499Y-34457143D01*
X12424500Y-34457143D01*
X12424500Y-34542856D01*
X12446681Y-34625636D01*
X12446682Y-34625640D01*
X12489535Y-34699862D01*
X12550138Y-34760465D01*
X12577304Y-34776149D01*
X12624359Y-34803317D01*
X12624361Y-34803317D01*
X12624362Y-34803318D01*
X12689651Y-34820812D01*
X12707143Y-34825499D01*
X12707144Y-34825500D01*
X12707147Y-34825500D01*
X12792856Y-34825500D01*
X12792856Y-34825499D01*
X12875638Y-34803318D01*
X12949862Y-34760465D01*
X13010465Y-34699862D01*
X13053318Y-34625638D01*
X13075499Y-34542856D01*
X13075500Y-34542856D01*
X13075500Y-34457144D01*
X13075499Y-34457143D01*
X13053318Y-34374363D01*
X13053317Y-34374359D01*
X13010464Y-34300137D01*
X12949862Y-34239535D01*
X12875640Y-34196682D01*
X12875636Y-34196681D01*
X12792856Y-34174500D01*
X12792853Y-34174500D01*
X12707147Y-34174500D01*
X12707144Y-34174500D01*
X12624363Y-34196681D01*
X12624359Y-34196682D01*
X12550137Y-34239535D01*
X12550137Y-34239536D01*
X12489536Y-34300137D01*
X12489535Y-34300137D01*
X12446682Y-34374359D01*
X12446681Y-34374363D01*
X12424500Y-34457143D01*
X11075499Y-34457143D01*
X11053318Y-34374363D01*
X11053317Y-34374359D01*
X11010464Y-34300137D01*
X10949862Y-34239535D01*
X10875640Y-34196682D01*
X10875636Y-34196681D01*
X10792856Y-34174500D01*
X10792853Y-34174500D01*
X10707147Y-34174500D01*
X10707144Y-34174500D01*
X10635987Y-34193566D01*
X10598805Y-34188671D01*
X10575975Y-34158918D01*
X10553318Y-34074363D01*
X10553317Y-34074359D01*
X10510464Y-34000137D01*
X10449862Y-33939535D01*
X10375640Y-33896682D01*
X10375636Y-33896681D01*
X10292856Y-33874500D01*
X10292853Y-33874500D01*
X10207147Y-33874500D01*
X10207144Y-33874500D01*
X10124363Y-33896681D01*
X10124359Y-33896682D01*
X10050137Y-33939535D01*
X10050137Y-33939536D01*
X9989536Y-34000137D01*
X9989535Y-34000137D01*
X9946682Y-34074359D01*
X9946682Y-34074361D01*
X9924024Y-34158919D01*
X9901193Y-34188672D01*
X9864012Y-34193566D01*
X9792856Y-34174500D01*
X9792853Y-34174500D01*
X9707147Y-34174500D01*
X9707144Y-34174500D01*
X9624363Y-34196681D01*
X9624359Y-34196682D01*
X9550137Y-34239535D01*
X9550137Y-34239536D01*
X9489536Y-34300137D01*
X9489535Y-34300137D01*
X9446682Y-34374359D01*
X9446681Y-34374363D01*
X9424500Y-34457143D01*
X9075499Y-34457143D01*
X9053318Y-34374363D01*
X9053317Y-34374359D01*
X9010464Y-34300137D01*
X8949862Y-34239535D01*
X8875640Y-34196682D01*
X8875636Y-34196681D01*
X8792856Y-34174500D01*
X8792853Y-34174500D01*
X8707147Y-34174500D01*
X8707144Y-34174500D01*
X8624363Y-34196681D01*
X8624359Y-34196682D01*
X8550137Y-34239535D01*
X8550137Y-34239536D01*
X8489536Y-34300137D01*
X8489535Y-34300137D01*
X8446682Y-34374359D01*
X8446681Y-34374363D01*
X8424500Y-34457143D01*
X8075499Y-34457143D01*
X8053318Y-34374363D01*
X8053317Y-34374359D01*
X8010464Y-34300137D01*
X7949862Y-34239535D01*
X7875640Y-34196682D01*
X7875636Y-34196681D01*
X7792856Y-34174500D01*
X7792853Y-34174500D01*
X7707147Y-34174500D01*
X7707144Y-34174500D01*
X7624363Y-34196681D01*
X7624359Y-34196682D01*
X7550137Y-34239535D01*
X7550137Y-34239536D01*
X7489536Y-34300137D01*
X7489535Y-34300137D01*
X7446682Y-34374359D01*
X7446681Y-34374363D01*
X7424500Y-34457143D01*
X300500Y-34457143D01*
X300500Y-33607143D01*
X8324500Y-33607143D01*
X8324500Y-33692856D01*
X8346681Y-33775636D01*
X8346682Y-33775640D01*
X8389535Y-33849862D01*
X8450138Y-33910465D01*
X8477304Y-33926149D01*
X8524359Y-33953317D01*
X8524361Y-33953317D01*
X8524362Y-33953318D01*
X8589651Y-33970812D01*
X8607143Y-33975499D01*
X8607144Y-33975500D01*
X8607147Y-33975500D01*
X8692856Y-33975500D01*
X8692856Y-33975499D01*
X8775638Y-33953318D01*
X8849862Y-33910465D01*
X8910465Y-33849862D01*
X8953318Y-33775638D01*
X8975499Y-33692856D01*
X8975500Y-33692856D01*
X8975500Y-33607144D01*
X8975499Y-33607143D01*
X8953623Y-33525500D01*
X8953318Y-33524362D01*
X8953317Y-33524361D01*
X8953317Y-33524359D01*
X8916427Y-33460465D01*
X8910465Y-33450138D01*
X8849862Y-33389535D01*
X8775640Y-33346682D01*
X8775636Y-33346681D01*
X8692856Y-33324500D01*
X8692853Y-33324500D01*
X8607147Y-33324500D01*
X8607144Y-33324500D01*
X8524363Y-33346681D01*
X8524359Y-33346682D01*
X8450137Y-33389535D01*
X8450137Y-33389536D01*
X8389536Y-33450137D01*
X8389535Y-33450137D01*
X8346682Y-33524359D01*
X8346681Y-33524363D01*
X8324500Y-33607143D01*
X300500Y-33607143D01*
X300500Y-33157143D01*
X11774500Y-33157143D01*
X11774500Y-33242856D01*
X11796681Y-33325636D01*
X11796682Y-33325640D01*
X11833573Y-33389535D01*
X11839535Y-33399862D01*
X11900138Y-33460465D01*
X11927304Y-33476149D01*
X11974359Y-33503317D01*
X11974361Y-33503317D01*
X11974362Y-33503318D01*
X12039651Y-33520812D01*
X12057143Y-33525499D01*
X12057144Y-33525500D01*
X12057147Y-33525500D01*
X12142856Y-33525500D01*
X12142856Y-33525499D01*
X12225638Y-33503318D01*
X12299862Y-33460465D01*
X12360465Y-33399862D01*
X12403318Y-33325638D01*
X12425499Y-33242856D01*
X12425500Y-33242856D01*
X12425500Y-33157144D01*
X12425499Y-33157143D01*
X12403318Y-33074363D01*
X12403317Y-33074359D01*
X12360464Y-33000137D01*
X12299862Y-32939535D01*
X12225640Y-32896682D01*
X12225636Y-32896681D01*
X12142856Y-32874500D01*
X12142853Y-32874500D01*
X12057147Y-32874500D01*
X12057144Y-32874500D01*
X11974363Y-32896681D01*
X11974359Y-32896682D01*
X11900137Y-32939535D01*
X11900137Y-32939536D01*
X11839536Y-33000137D01*
X11839535Y-33000137D01*
X11796682Y-33074359D01*
X11796681Y-33074363D01*
X11774500Y-33157143D01*
X300500Y-33157143D01*
X300500Y-32782142D01*
X13874500Y-32782142D01*
X13874500Y-32867855D01*
X13896681Y-32950635D01*
X13896682Y-32950639D01*
X13925261Y-33000138D01*
X13939535Y-33024861D01*
X14000138Y-33085464D01*
X14027304Y-33101148D01*
X14074359Y-33128316D01*
X14074361Y-33128316D01*
X14074362Y-33128317D01*
X14139651Y-33145811D01*
X14157143Y-33150498D01*
X14157144Y-33150499D01*
X14157147Y-33150499D01*
X14242856Y-33150499D01*
X14242856Y-33150498D01*
X14325638Y-33128317D01*
X14399862Y-33085464D01*
X14460465Y-33024861D01*
X14503318Y-32950637D01*
X14525499Y-32867855D01*
X14525500Y-32867855D01*
X14525500Y-32782143D01*
X14525499Y-32782142D01*
X14503318Y-32699362D01*
X14503317Y-32699358D01*
X14460464Y-32625136D01*
X14399862Y-32564534D01*
X14325640Y-32521681D01*
X14325636Y-32521680D01*
X14242856Y-32499499D01*
X14242853Y-32499499D01*
X14157147Y-32499499D01*
X14157144Y-32499499D01*
X14074363Y-32521680D01*
X14074359Y-32521681D01*
X14000137Y-32564534D01*
X14000137Y-32564535D01*
X13939536Y-32625136D01*
X13939535Y-32625136D01*
X13896682Y-32699358D01*
X13896681Y-32699362D01*
X13874500Y-32782142D01*
X300500Y-32782142D01*
X300500Y-32157142D01*
X10174500Y-32157142D01*
X10174500Y-32242855D01*
X10196681Y-32325635D01*
X10196682Y-32325639D01*
X10239535Y-32399861D01*
X10300138Y-32460464D01*
X10327304Y-32476148D01*
X10374359Y-32503316D01*
X10374361Y-32503316D01*
X10374362Y-32503317D01*
X10439651Y-32520811D01*
X10457143Y-32525498D01*
X10457144Y-32525499D01*
X10457147Y-32525499D01*
X10542856Y-32525499D01*
X10542856Y-32525498D01*
X10625638Y-32503317D01*
X10699862Y-32460464D01*
X10760465Y-32399861D01*
X10803318Y-32325637D01*
X10825499Y-32242855D01*
X10825500Y-32242855D01*
X10825500Y-32157143D01*
X10825499Y-32157142D01*
X12674500Y-32157142D01*
X12674500Y-32242855D01*
X12696681Y-32325635D01*
X12696682Y-32325639D01*
X12739535Y-32399861D01*
X12800138Y-32460464D01*
X12827304Y-32476148D01*
X12874359Y-32503316D01*
X12874361Y-32503316D01*
X12874362Y-32503317D01*
X12939651Y-32520811D01*
X12957143Y-32525498D01*
X12957144Y-32525499D01*
X12957147Y-32525499D01*
X13042856Y-32525499D01*
X13042856Y-32525498D01*
X13125638Y-32503317D01*
X13199862Y-32460464D01*
X13260465Y-32399861D01*
X13303318Y-32325637D01*
X13325499Y-32242855D01*
X13325500Y-32242855D01*
X13325500Y-32157143D01*
X13325499Y-32157142D01*
X13303318Y-32074362D01*
X13303317Y-32074358D01*
X13260464Y-32000136D01*
X13199862Y-31939534D01*
X13125640Y-31896681D01*
X13125636Y-31896680D01*
X13042856Y-31874499D01*
X13042853Y-31874499D01*
X12957147Y-31874499D01*
X12957144Y-31874499D01*
X12874363Y-31896680D01*
X12874359Y-31896681D01*
X12800137Y-31939534D01*
X12800137Y-31939535D01*
X12739536Y-32000136D01*
X12739535Y-32000136D01*
X12696682Y-32074358D01*
X12696681Y-32074362D01*
X12674500Y-32157142D01*
X10825499Y-32157142D01*
X10803318Y-32074362D01*
X10803317Y-32074358D01*
X10760464Y-32000136D01*
X10699862Y-31939534D01*
X10625640Y-31896681D01*
X10625636Y-31896680D01*
X10542856Y-31874499D01*
X10542853Y-31874499D01*
X10457147Y-31874499D01*
X10457144Y-31874499D01*
X10374363Y-31896680D01*
X10374359Y-31896681D01*
X10300137Y-31939534D01*
X10300137Y-31939535D01*
X10239536Y-32000136D01*
X10239535Y-32000136D01*
X10196682Y-32074358D01*
X10196681Y-32074362D01*
X10174500Y-32157142D01*
X300500Y-32157142D01*
X300500Y-28249999D01*
X6500000Y-28249999D01*
X6500000Y-28250000D01*
X6516852Y-28593050D01*
X6516852Y-28593054D01*
X6516853Y-28593059D01*
X6567251Y-28932816D01*
X6650708Y-29265996D01*
X6766421Y-29589392D01*
X6766424Y-29589398D01*
X6766425Y-29589401D01*
X6766430Y-29589413D01*
X6913266Y-29899871D01*
X6913271Y-29899880D01*
X6913275Y-29899888D01*
X7055095Y-30136500D01*
X7089860Y-30194502D01*
X7294456Y-30470367D01*
X7294463Y-30470376D01*
X7321437Y-30500137D01*
X7525125Y-30724873D01*
X7636303Y-30825638D01*
X7779623Y-30955536D01*
X7779626Y-30955538D01*
X7779631Y-30955542D01*
X8055496Y-31160138D01*
X8055502Y-31160141D01*
X8055504Y-31160143D01*
X8350111Y-31336724D01*
X8350122Y-31336729D01*
X8350127Y-31336732D01*
X8660585Y-31483568D01*
X8660592Y-31483570D01*
X8660607Y-31483578D01*
X8984003Y-31599291D01*
X9317183Y-31682748D01*
X9656940Y-31733146D01*
X10000000Y-31750000D01*
X10343059Y-31733146D01*
X10682816Y-31682748D01*
X11015996Y-31599291D01*
X11339392Y-31483578D01*
X11649888Y-31336724D01*
X11944495Y-31160143D01*
X12220376Y-30955536D01*
X12474873Y-30724873D01*
X12536260Y-30657143D01*
X14024500Y-30657143D01*
X14024500Y-30742856D01*
X14046681Y-30825636D01*
X14046682Y-30825640D01*
X14089535Y-30899862D01*
X14150138Y-30960465D01*
X14177304Y-30976149D01*
X14224359Y-31003317D01*
X14224361Y-31003317D01*
X14224362Y-31003318D01*
X14289651Y-31020812D01*
X14307143Y-31025499D01*
X14307144Y-31025500D01*
X14307147Y-31025500D01*
X14392856Y-31025500D01*
X14392856Y-31025499D01*
X14475638Y-31003318D01*
X14549862Y-30960465D01*
X14610465Y-30899862D01*
X14653318Y-30825638D01*
X14675499Y-30742856D01*
X14675500Y-30742856D01*
X14675500Y-30657144D01*
X14675499Y-30657143D01*
X14653318Y-30574363D01*
X14653317Y-30574359D01*
X14610464Y-30500137D01*
X14549862Y-30439535D01*
X14475640Y-30396682D01*
X14475636Y-30396681D01*
X14392856Y-30374500D01*
X14392853Y-30374500D01*
X14307147Y-30374500D01*
X14307144Y-30374500D01*
X14224363Y-30396681D01*
X14224359Y-30396682D01*
X14150137Y-30439535D01*
X14150137Y-30439536D01*
X14089536Y-30500137D01*
X14089535Y-30500137D01*
X14046682Y-30574359D01*
X14046681Y-30574363D01*
X14024500Y-30657143D01*
X12536260Y-30657143D01*
X12705536Y-30470376D01*
X12910143Y-30194495D01*
X13086724Y-29899888D01*
X13233578Y-29589392D01*
X13349291Y-29265996D01*
X13432748Y-28932816D01*
X13483146Y-28593059D01*
X13500000Y-28250000D01*
X13483146Y-27906940D01*
X13432748Y-27567183D01*
X13349291Y-27234003D01*
X13233578Y-26910607D01*
X13086724Y-26600111D01*
X12910143Y-26305504D01*
X12910141Y-26305502D01*
X12910138Y-26305496D01*
X12705542Y-26029631D01*
X12705538Y-26029626D01*
X12705536Y-26029623D01*
X12549209Y-25857143D01*
X13874500Y-25857143D01*
X13874500Y-25942856D01*
X13896681Y-26025636D01*
X13896682Y-26025640D01*
X13939535Y-26099862D01*
X14000138Y-26160465D01*
X14027304Y-26176149D01*
X14074359Y-26203317D01*
X14074361Y-26203317D01*
X14074362Y-26203318D01*
X14139651Y-26220812D01*
X14157143Y-26225499D01*
X14157144Y-26225500D01*
X14157147Y-26225500D01*
X14242856Y-26225500D01*
X14242856Y-26225499D01*
X14325638Y-26203318D01*
X14399862Y-26160465D01*
X14460465Y-26099862D01*
X14503318Y-26025638D01*
X14525499Y-25942856D01*
X14525500Y-25942856D01*
X14525500Y-25857144D01*
X14525499Y-25857143D01*
X14511076Y-25803317D01*
X14503318Y-25774362D01*
X14503317Y-25774361D01*
X14503317Y-25774359D01*
X14460464Y-25700137D01*
X14399862Y-25639535D01*
X14325640Y-25596682D01*
X14325636Y-25596681D01*
X14242856Y-25574500D01*
X14242853Y-25574500D01*
X14157147Y-25574500D01*
X14157144Y-25574500D01*
X14074363Y-25596681D01*
X14074359Y-25596682D01*
X14000137Y-25639535D01*
X14000137Y-25639536D01*
X13939536Y-25700137D01*
X13939535Y-25700137D01*
X13896682Y-25774359D01*
X13896681Y-25774363D01*
X13874500Y-25857143D01*
X12549209Y-25857143D01*
X12474873Y-25775125D01*
X12309936Y-25625636D01*
X12220376Y-25544463D01*
X12220367Y-25544456D01*
X11944502Y-25339860D01*
X11878228Y-25300137D01*
X11649888Y-25163275D01*
X11649880Y-25163271D01*
X11649871Y-25163266D01*
X11339413Y-25016430D01*
X11339401Y-25016425D01*
X11339398Y-25016424D01*
X11339392Y-25016421D01*
X11015996Y-24900708D01*
X10794165Y-24845142D01*
X10682817Y-24817251D01*
X10597876Y-24804651D01*
X10343059Y-24766853D01*
X10343054Y-24766852D01*
X10343050Y-24766852D01*
X10000000Y-24750000D01*
X9656948Y-24766852D01*
X9656942Y-24766852D01*
X9656940Y-24766853D01*
X9487061Y-24792052D01*
X9317181Y-24817251D01*
X9094483Y-24873034D01*
X8984003Y-24900708D01*
X8660607Y-25016421D01*
X8660603Y-25016422D01*
X8660597Y-25016425D01*
X8660585Y-25016430D01*
X8350127Y-25163266D01*
X8350113Y-25163274D01*
X8055496Y-25339860D01*
X7779631Y-25544456D01*
X7779626Y-25544460D01*
X7525125Y-25775125D01*
X7294460Y-26029626D01*
X7294456Y-26029631D01*
X7089860Y-26305496D01*
X6913274Y-26600113D01*
X6913266Y-26600127D01*
X6766430Y-26910585D01*
X6766425Y-26910597D01*
X6650709Y-27234000D01*
X6567251Y-27567181D01*
X6516853Y-27906942D01*
X6516852Y-27906948D01*
X6500000Y-28249999D01*
X300500Y-28249999D01*
X300500Y-25457143D01*
X849500Y-25457143D01*
X849500Y-25542856D01*
X871681Y-25625636D01*
X871682Y-25625640D01*
X914535Y-25699862D01*
X975138Y-25760465D01*
X999210Y-25774363D01*
X1049359Y-25803317D01*
X1049361Y-25803317D01*
X1049362Y-25803318D01*
X1114651Y-25820812D01*
X1132143Y-25825499D01*
X1132144Y-25825500D01*
X1132147Y-25825500D01*
X1217856Y-25825500D01*
X1217856Y-25825499D01*
X1300638Y-25803318D01*
X1374862Y-25760465D01*
X1435465Y-25699862D01*
X1478318Y-25625638D01*
X1500499Y-25542856D01*
X1500500Y-25542856D01*
X1500500Y-25457144D01*
X1500499Y-25457143D01*
X1478318Y-25374363D01*
X1478317Y-25374359D01*
X1435464Y-25300137D01*
X1374862Y-25239535D01*
X1300640Y-25196682D01*
X1300636Y-25196681D01*
X1217856Y-25174500D01*
X1217853Y-25174500D01*
X1132147Y-25174500D01*
X1132144Y-25174500D01*
X1049363Y-25196681D01*
X1049359Y-25196682D01*
X975137Y-25239535D01*
X975137Y-25239536D01*
X914536Y-25300137D01*
X914535Y-25300137D01*
X871682Y-25374359D01*
X871681Y-25374363D01*
X849500Y-25457143D01*
X300500Y-25457143D01*
X300500Y-24282143D01*
X4799500Y-24282143D01*
X4799500Y-24367856D01*
X4821681Y-24450636D01*
X4821682Y-24450640D01*
X4853471Y-24505699D01*
X4864535Y-24524862D01*
X4925138Y-24585465D01*
X4951178Y-24600499D01*
X4999359Y-24628317D01*
X4999361Y-24628317D01*
X4999362Y-24628318D01*
X5064651Y-24645812D01*
X5082143Y-24650499D01*
X5082144Y-24650500D01*
X5082147Y-24650500D01*
X5167856Y-24650500D01*
X5167856Y-24650499D01*
X5250638Y-24628318D01*
X5324862Y-24585465D01*
X5385465Y-24524862D01*
X5385472Y-24524849D01*
X5385774Y-24524457D01*
X5386001Y-24524325D01*
X5387736Y-24522591D01*
X5388200Y-24523055D01*
X5418248Y-24505699D01*
X5454476Y-24515397D01*
X5459303Y-24519630D01*
X5475138Y-24535465D01*
X5502304Y-24551149D01*
X5549359Y-24578317D01*
X5549361Y-24578317D01*
X5549362Y-24578318D01*
X5614651Y-24595812D01*
X5632143Y-24600499D01*
X5632144Y-24600500D01*
X5632147Y-24600500D01*
X5717856Y-24600500D01*
X5717856Y-24600499D01*
X5800638Y-24578318D01*
X5874862Y-24535465D01*
X5935465Y-24474862D01*
X5978318Y-24400638D01*
X6000499Y-24317856D01*
X6000500Y-24317856D01*
X6000500Y-24232144D01*
X6000499Y-24232143D01*
X5982942Y-24166617D01*
X5980403Y-24157143D01*
X13624500Y-24157143D01*
X13624500Y-24242856D01*
X13646681Y-24325636D01*
X13646682Y-24325640D01*
X13671056Y-24367856D01*
X13689535Y-24399862D01*
X13750138Y-24460465D01*
X13775076Y-24474863D01*
X13824359Y-24503317D01*
X13824361Y-24503317D01*
X13824362Y-24503318D01*
X13869442Y-24515397D01*
X13907143Y-24525499D01*
X13907144Y-24525500D01*
X13907147Y-24525500D01*
X13992856Y-24525500D01*
X13992856Y-24525499D01*
X14075638Y-24503318D01*
X14149862Y-24460465D01*
X14210465Y-24399862D01*
X14253318Y-24325638D01*
X14275499Y-24242856D01*
X14275500Y-24242856D01*
X14275500Y-24157144D01*
X14275499Y-24157143D01*
X14256059Y-24084591D01*
X14253318Y-24074362D01*
X14253317Y-24074361D01*
X14253317Y-24074359D01*
X14222903Y-24021681D01*
X14210465Y-24000138D01*
X14149862Y-23939535D01*
X14075640Y-23896682D01*
X14075636Y-23896681D01*
X13992856Y-23874500D01*
X13992853Y-23874500D01*
X13907147Y-23874500D01*
X13907144Y-23874500D01*
X13824363Y-23896681D01*
X13824359Y-23896682D01*
X13750137Y-23939535D01*
X13750137Y-23939536D01*
X13689536Y-24000137D01*
X13689535Y-24000137D01*
X13646682Y-24074359D01*
X13646681Y-24074363D01*
X13624500Y-24157143D01*
X5980403Y-24157143D01*
X5978318Y-24149362D01*
X5978317Y-24149360D01*
X5978317Y-24149359D01*
X5946530Y-24094303D01*
X5935465Y-24075138D01*
X5874862Y-24014535D01*
X5849924Y-24000137D01*
X5800640Y-23971682D01*
X5800636Y-23971681D01*
X5717856Y-23949500D01*
X5717853Y-23949500D01*
X5632147Y-23949500D01*
X5632144Y-23949500D01*
X5549363Y-23971681D01*
X5549359Y-23971682D01*
X5475137Y-24014535D01*
X5475137Y-24014536D01*
X5414534Y-24075138D01*
X5414214Y-24075556D01*
X5413984Y-24075688D01*
X5412264Y-24077409D01*
X5411802Y-24076947D01*
X5381732Y-24094303D01*
X5345509Y-24084591D01*
X5340696Y-24080369D01*
X5324862Y-24064535D01*
X5250640Y-24021682D01*
X5250636Y-24021681D01*
X5167856Y-23999500D01*
X5167853Y-23999500D01*
X5082147Y-23999500D01*
X5082144Y-23999500D01*
X4999363Y-24021681D01*
X4999359Y-24021682D01*
X4925137Y-24064535D01*
X4925137Y-24064536D01*
X4864536Y-24125137D01*
X4864535Y-24125137D01*
X4821682Y-24199359D01*
X4821681Y-24199363D01*
X4799500Y-24282143D01*
X300500Y-24282143D01*
X300500Y-21457143D01*
X1449500Y-21457143D01*
X1449500Y-21542856D01*
X1471681Y-21625636D01*
X1471682Y-21625640D01*
X1499892Y-21674500D01*
X1514535Y-21699862D01*
X1575138Y-21760465D01*
X1602304Y-21776149D01*
X1649359Y-21803317D01*
X1649361Y-21803317D01*
X1649362Y-21803318D01*
X1714651Y-21820812D01*
X1732143Y-21825499D01*
X1732144Y-21825500D01*
X1732147Y-21825500D01*
X1817856Y-21825500D01*
X1817856Y-21825499D01*
X1900638Y-21803318D01*
X1974862Y-21760465D01*
X2035465Y-21699862D01*
X2078318Y-21625638D01*
X2100499Y-21542856D01*
X2100500Y-21542856D01*
X2100500Y-21457144D01*
X2100499Y-21457143D01*
X2078318Y-21374363D01*
X2078317Y-21374359D01*
X2035464Y-21300137D01*
X1974862Y-21239535D01*
X1900640Y-21196682D01*
X1900636Y-21196681D01*
X1817856Y-21174500D01*
X1817853Y-21174500D01*
X1732147Y-21174500D01*
X1732144Y-21174500D01*
X1649363Y-21196681D01*
X1649359Y-21196682D01*
X1575137Y-21239535D01*
X1575137Y-21239536D01*
X1514536Y-21300137D01*
X1514535Y-21300137D01*
X1471682Y-21374359D01*
X1471681Y-21374363D01*
X1449500Y-21457143D01*
X300500Y-21457143D01*
X300500Y-18957143D01*
X2474500Y-18957143D01*
X2474500Y-19042856D01*
X2496681Y-19125636D01*
X2496682Y-19125640D01*
X2516789Y-19160465D01*
X2539535Y-19199862D01*
X2600138Y-19260465D01*
X2624210Y-19274363D01*
X2674359Y-19303317D01*
X2674361Y-19303317D01*
X2674362Y-19303318D01*
X2739651Y-19320812D01*
X2757143Y-19325499D01*
X2757144Y-19325500D01*
X2757147Y-19325500D01*
X2842856Y-19325500D01*
X2842856Y-19325499D01*
X2925638Y-19303318D01*
X2999862Y-19260465D01*
X3060465Y-19199862D01*
X3103318Y-19125638D01*
X3125499Y-19042856D01*
X3125500Y-19042856D01*
X3125500Y-18957144D01*
X3125499Y-18957143D01*
X3110151Y-18899863D01*
X3103318Y-18874362D01*
X3103317Y-18874361D01*
X3103317Y-18874359D01*
X3076149Y-18827304D01*
X3060465Y-18800138D01*
X2999862Y-18739535D01*
X2974998Y-18725179D01*
X2952169Y-18695426D01*
X2950500Y-18682745D01*
X2950500Y-16360064D01*
X3874500Y-16360064D01*
X3874500Y-16360065D01*
X3874500Y-20429936D01*
X3883990Y-20452848D01*
X3897412Y-20485252D01*
X3897413Y-20485254D01*
X6394247Y-22982086D01*
X6408599Y-23016734D01*
X6406930Y-23029415D01*
X6399500Y-23057146D01*
X6399500Y-23142856D01*
X6421681Y-23225636D01*
X6421682Y-23225640D01*
X6441789Y-23260465D01*
X6464535Y-23299862D01*
X6525138Y-23360465D01*
X6552304Y-23376149D01*
X6599359Y-23403317D01*
X6599361Y-23403317D01*
X6599362Y-23403318D01*
X6664651Y-23420812D01*
X6682143Y-23425499D01*
X6682144Y-23425500D01*
X6682147Y-23425500D01*
X6767856Y-23425500D01*
X6767856Y-23425499D01*
X6850638Y-23403318D01*
X6924862Y-23360465D01*
X6985465Y-23299862D01*
X7028318Y-23225638D01*
X7050499Y-23142856D01*
X7050500Y-23142856D01*
X7050500Y-23057144D01*
X7050499Y-23057143D01*
X7028319Y-22974366D01*
X7028318Y-22974362D01*
X7018377Y-22957143D01*
X18874500Y-22957143D01*
X18874500Y-23042856D01*
X18896681Y-23125636D01*
X18896682Y-23125640D01*
X18939535Y-23199862D01*
X19000138Y-23260465D01*
X19027304Y-23276149D01*
X19074359Y-23303317D01*
X19074361Y-23303317D01*
X19074362Y-23303318D01*
X19139651Y-23320812D01*
X19157143Y-23325499D01*
X19157144Y-23325500D01*
X19157147Y-23325500D01*
X19242856Y-23325500D01*
X19242856Y-23325499D01*
X19325638Y-23303318D01*
X19399862Y-23260465D01*
X19460465Y-23199862D01*
X19503318Y-23125638D01*
X19525499Y-23042856D01*
X19525500Y-23042856D01*
X19525500Y-22957144D01*
X19525499Y-22957143D01*
X19520812Y-22939651D01*
X19503318Y-22874362D01*
X19503317Y-22874361D01*
X19503317Y-22874359D01*
X19475107Y-22825499D01*
X19460465Y-22800138D01*
X19399862Y-22739535D01*
X19325640Y-22696682D01*
X19325636Y-22696681D01*
X19242856Y-22674500D01*
X19242853Y-22674500D01*
X19157147Y-22674500D01*
X19157144Y-22674500D01*
X19074363Y-22696681D01*
X19074359Y-22696682D01*
X19000137Y-22739535D01*
X19000137Y-22739536D01*
X18939536Y-22800137D01*
X18939535Y-22800137D01*
X18896682Y-22874359D01*
X18896681Y-22874363D01*
X18874500Y-22957143D01*
X7018377Y-22957143D01*
X6985465Y-22900138D01*
X6966431Y-22881104D01*
X6952079Y-22846456D01*
X6966431Y-22811808D01*
X7001079Y-22797456D01*
X7021089Y-22802818D01*
X7021392Y-22802088D01*
X7024359Y-22803316D01*
X7024362Y-22803318D01*
X7089651Y-22820812D01*
X7107143Y-22825499D01*
X7107144Y-22825500D01*
X7107147Y-22825500D01*
X7192856Y-22825500D01*
X7192856Y-22825499D01*
X7275638Y-22803318D01*
X7276981Y-22802543D01*
X7300001Y-22789252D01*
X7349862Y-22760465D01*
X7410465Y-22699862D01*
X7453318Y-22625638D01*
X7475499Y-22542856D01*
X7475500Y-22542856D01*
X7475500Y-22457144D01*
X7475499Y-22457143D01*
X7460748Y-22402091D01*
X7453318Y-22374362D01*
X7453317Y-22374361D01*
X7453317Y-22374359D01*
X7410464Y-22300137D01*
X7349862Y-22239535D01*
X7275640Y-22196682D01*
X7275636Y-22196681D01*
X7192856Y-22174500D01*
X7192853Y-22174500D01*
X7107147Y-22174500D01*
X7107146Y-22174500D01*
X7079415Y-22181930D01*
X7042233Y-22177034D01*
X7032086Y-22169247D01*
X5089852Y-20227012D01*
X5075500Y-20192364D01*
X5075500Y-17181110D01*
X5089852Y-17146462D01*
X5124500Y-17132110D01*
X5148998Y-17138674D01*
X5174362Y-17153318D01*
X5239651Y-17170812D01*
X5257143Y-17175499D01*
X5257144Y-17175500D01*
X5282518Y-17175500D01*
X5317166Y-17189852D01*
X5331518Y-17224500D01*
X5329849Y-17237181D01*
X5324500Y-17257146D01*
X5324500Y-17342856D01*
X5346681Y-17425636D01*
X5346682Y-17425640D01*
X5366606Y-17460148D01*
X5389535Y-17499862D01*
X5450138Y-17560465D01*
X5477304Y-17576149D01*
X5524359Y-17603317D01*
X5524361Y-17603317D01*
X5524362Y-17603318D01*
X5589651Y-17620812D01*
X5607143Y-17625499D01*
X5607144Y-17625500D01*
X5607147Y-17625500D01*
X5692856Y-17625500D01*
X5692856Y-17625499D01*
X5775638Y-17603318D01*
X5849862Y-17560465D01*
X5910465Y-17499862D01*
X5953318Y-17425638D01*
X5975499Y-17342856D01*
X5975500Y-17342856D01*
X5975500Y-17257144D01*
X5975499Y-17257143D01*
X5960016Y-17199359D01*
X5953318Y-17174362D01*
X5953317Y-17174361D01*
X5953317Y-17174359D01*
X5910464Y-17100137D01*
X5849862Y-17039535D01*
X5775640Y-16996682D01*
X5775636Y-16996681D01*
X5692856Y-16974500D01*
X5692853Y-16974500D01*
X5667481Y-16974500D01*
X5632833Y-16960148D01*
X5618481Y-16925500D01*
X5620151Y-16912817D01*
X5625500Y-16892854D01*
X5625500Y-16807144D01*
X5625499Y-16807143D01*
X5616715Y-16774362D01*
X5603318Y-16724362D01*
X5603317Y-16724361D01*
X5603317Y-16724359D01*
X5560464Y-16650137D01*
X5499862Y-16589535D01*
X5425640Y-16546682D01*
X5425636Y-16546681D01*
X5342856Y-16524500D01*
X5342853Y-16524500D01*
X5257147Y-16524500D01*
X5257144Y-16524500D01*
X5174363Y-16546681D01*
X5174359Y-16546682D01*
X5149000Y-16561324D01*
X5111817Y-16566219D01*
X5082065Y-16543389D01*
X5075500Y-16518889D01*
X5075500Y-15886949D01*
X5082065Y-15862449D01*
X5095294Y-15839536D01*
X5103318Y-15825638D01*
X5125499Y-15742856D01*
X5125500Y-15742856D01*
X5125500Y-15657144D01*
X5125499Y-15657143D01*
X5120812Y-15639651D01*
X5103318Y-15574362D01*
X5103317Y-15574361D01*
X5103317Y-15574359D01*
X5060464Y-15500137D01*
X4999862Y-15439535D01*
X4925640Y-15396682D01*
X4925636Y-15396681D01*
X4842856Y-15374500D01*
X4842853Y-15374500D01*
X4757147Y-15374500D01*
X4757144Y-15374500D01*
X4674363Y-15396681D01*
X4674359Y-15396682D01*
X4600137Y-15439535D01*
X4600137Y-15439536D01*
X4539536Y-15500137D01*
X4539535Y-15500137D01*
X4496682Y-15574359D01*
X4496681Y-15574363D01*
X4474500Y-15657143D01*
X4474500Y-15742856D01*
X4493566Y-15814012D01*
X4488671Y-15851194D01*
X4458919Y-15874024D01*
X4374361Y-15896682D01*
X4374359Y-15896682D01*
X4300137Y-15939535D01*
X4300137Y-15939536D01*
X4239536Y-16000137D01*
X4239535Y-16000137D01*
X4225181Y-16025000D01*
X4195428Y-16047830D01*
X4189610Y-16048596D01*
X4185062Y-16049500D01*
X4158658Y-16060438D01*
X4158656Y-16060439D01*
X4129749Y-16072411D01*
X3897413Y-16304745D01*
X3897413Y-16304746D01*
X3883990Y-16337149D01*
X3883990Y-16337151D01*
X3874500Y-16360064D01*
X2950500Y-16360064D01*
X2950500Y-16182635D01*
X2964851Y-16147988D01*
X4230695Y-14882143D01*
X4849500Y-14882143D01*
X4849500Y-14967856D01*
X4871681Y-15050636D01*
X4871682Y-15050640D01*
X4914535Y-15124862D01*
X4975138Y-15185465D01*
X5002304Y-15201149D01*
X5049359Y-15228317D01*
X5049361Y-15228317D01*
X5049362Y-15228318D01*
X5114651Y-15245812D01*
X5132143Y-15250499D01*
X5132144Y-15250500D01*
X5132147Y-15250500D01*
X5217850Y-15250500D01*
X5217853Y-15250500D01*
X5217855Y-15250499D01*
X5219103Y-15250335D01*
X5219719Y-15250500D01*
X5221065Y-15250500D01*
X5221065Y-15250860D01*
X5255328Y-15260041D01*
X5274081Y-15292519D01*
X5274500Y-15298916D01*
X5274500Y-15342856D01*
X5296681Y-15425636D01*
X5296682Y-15425640D01*
X5339535Y-15499862D01*
X5400138Y-15560465D01*
X5424210Y-15574363D01*
X5474359Y-15603317D01*
X5474361Y-15603317D01*
X5474362Y-15603318D01*
X5529418Y-15618070D01*
X5557143Y-15625499D01*
X5557144Y-15625500D01*
X5557147Y-15625500D01*
X5642855Y-15625500D01*
X5661156Y-15620595D01*
X5670581Y-15618070D01*
X5707763Y-15622964D01*
X5717912Y-15630752D01*
X5836774Y-15749614D01*
X5851126Y-15784262D01*
X5836774Y-15818910D01*
X5802126Y-15833262D01*
X5777626Y-15826697D01*
X5725640Y-15796682D01*
X5725636Y-15796681D01*
X5642856Y-15774500D01*
X5642853Y-15774500D01*
X5557147Y-15774500D01*
X5557144Y-15774500D01*
X5474363Y-15796681D01*
X5474359Y-15796682D01*
X5400137Y-15839535D01*
X5400137Y-15839536D01*
X5339536Y-15900137D01*
X5339535Y-15900137D01*
X5296682Y-15974359D01*
X5296681Y-15974363D01*
X5274500Y-16057143D01*
X5274500Y-16142856D01*
X5296681Y-16225636D01*
X5296682Y-16225640D01*
X5339535Y-16299862D01*
X5400138Y-16360465D01*
X5424210Y-16374363D01*
X5474359Y-16403317D01*
X5474361Y-16403317D01*
X5474362Y-16403318D01*
X5529418Y-16418070D01*
X5557143Y-16425499D01*
X5557144Y-16425500D01*
X5557147Y-16425500D01*
X5642855Y-16425500D01*
X5661156Y-16420595D01*
X5670581Y-16418070D01*
X5707763Y-16422964D01*
X5717912Y-16430752D01*
X7885148Y-18597987D01*
X7899500Y-18632635D01*
X7899500Y-21279937D01*
X7907868Y-21300138D01*
X7907869Y-21300140D01*
X7916050Y-21319893D01*
X7916048Y-21357396D01*
X7889529Y-21383914D01*
X7852026Y-21383912D01*
X7836131Y-21373291D01*
X7339852Y-20877012D01*
X7325500Y-20842364D01*
X7325500Y-20545066D01*
X7325499Y-20545062D01*
X7317452Y-20525636D01*
X7309794Y-20507147D01*
X7302588Y-20489749D01*
X7146987Y-20334148D01*
X7132635Y-20299500D01*
X7146987Y-20264852D01*
X7181635Y-20250500D01*
X7217856Y-20250500D01*
X7217856Y-20250499D01*
X7300638Y-20228318D01*
X7374862Y-20185465D01*
X7435465Y-20124862D01*
X7478318Y-20050638D01*
X7500499Y-19967856D01*
X7500500Y-19967856D01*
X7500500Y-19882144D01*
X7500499Y-19882143D01*
X7493801Y-19857147D01*
X7478318Y-19799362D01*
X7478317Y-19799361D01*
X7478317Y-19799359D01*
X7451149Y-19752304D01*
X7435465Y-19725138D01*
X7374862Y-19664535D01*
X7367811Y-19660464D01*
X7300640Y-19621682D01*
X7300636Y-19621681D01*
X7217856Y-19599500D01*
X7217853Y-19599500D01*
X7132147Y-19599500D01*
X7132144Y-19599500D01*
X7049363Y-19621681D01*
X7049359Y-19621682D01*
X6975137Y-19664535D01*
X6975137Y-19664536D01*
X6914536Y-19725137D01*
X6914535Y-19725137D01*
X6871682Y-19799359D01*
X6871681Y-19799363D01*
X6849500Y-19882143D01*
X6849500Y-19918364D01*
X6835148Y-19953012D01*
X6800500Y-19967364D01*
X6765852Y-19953012D01*
X5830752Y-19017912D01*
X5816400Y-18983264D01*
X5818070Y-18970581D01*
X5825500Y-18942854D01*
X5825500Y-18857144D01*
X5825499Y-18857143D01*
X5817057Y-18825636D01*
X5803318Y-18774362D01*
X5785558Y-18743601D01*
X5780663Y-18706422D01*
X5803490Y-18676671D01*
X5874862Y-18635465D01*
X5935465Y-18574862D01*
X5978318Y-18500638D01*
X6000499Y-18417856D01*
X6000500Y-18417856D01*
X6000500Y-18332144D01*
X6000499Y-18332143D01*
X5978318Y-18249363D01*
X5978317Y-18249359D01*
X5935464Y-18175137D01*
X5874862Y-18114535D01*
X5800640Y-18071682D01*
X5800636Y-18071681D01*
X5717856Y-18049500D01*
X5717853Y-18049500D01*
X5632147Y-18049500D01*
X5632144Y-18049500D01*
X5549363Y-18071681D01*
X5549359Y-18071682D01*
X5475137Y-18114535D01*
X5475137Y-18114536D01*
X5414536Y-18175137D01*
X5414535Y-18175137D01*
X5371682Y-18249359D01*
X5371681Y-18249363D01*
X5349500Y-18332143D01*
X5349500Y-18417856D01*
X5371681Y-18500636D01*
X5371682Y-18500640D01*
X5389440Y-18531396D01*
X5394335Y-18568578D01*
X5371505Y-18598331D01*
X5300137Y-18639535D01*
X5300137Y-18639536D01*
X5239536Y-18700137D01*
X5239535Y-18700137D01*
X5196682Y-18774359D01*
X5196681Y-18774363D01*
X5174500Y-18857143D01*
X5174500Y-18942856D01*
X5196681Y-19025636D01*
X5196682Y-19025640D01*
X5224892Y-19074500D01*
X5239535Y-19099862D01*
X5300138Y-19160465D01*
X5327304Y-19176149D01*
X5374359Y-19203317D01*
X5374361Y-19203317D01*
X5374362Y-19203318D01*
X5429418Y-19218070D01*
X5457143Y-19225499D01*
X5457144Y-19225500D01*
X5457147Y-19225500D01*
X5542855Y-19225500D01*
X5561156Y-19220595D01*
X5570581Y-19218070D01*
X5607763Y-19222964D01*
X5617912Y-19230752D01*
X6305524Y-19918364D01*
X6909989Y-20522828D01*
X6924341Y-20557476D01*
X6909989Y-20592124D01*
X6875341Y-20606476D01*
X6862659Y-20604806D01*
X6842856Y-20599500D01*
X6842853Y-20599500D01*
X6757147Y-20599500D01*
X6757144Y-20599500D01*
X6674363Y-20621681D01*
X6674359Y-20621682D01*
X6600137Y-20664535D01*
X6600137Y-20664536D01*
X6539536Y-20725137D01*
X6539535Y-20725137D01*
X6496682Y-20799359D01*
X6496681Y-20799363D01*
X6474500Y-20882143D01*
X6474500Y-20967856D01*
X6496681Y-21050636D01*
X6496682Y-21050640D01*
X6528432Y-21105631D01*
X6539535Y-21124862D01*
X6600138Y-21185465D01*
X6619565Y-21196681D01*
X6674359Y-21228317D01*
X6674361Y-21228317D01*
X6674362Y-21228318D01*
X6739651Y-21245812D01*
X6757143Y-21250499D01*
X6757144Y-21250500D01*
X6757147Y-21250500D01*
X6842856Y-21250500D01*
X6842856Y-21250499D01*
X6925638Y-21228318D01*
X6999862Y-21185465D01*
X7060465Y-21124862D01*
X7065706Y-21115782D01*
X7095456Y-21092950D01*
X7132638Y-21097841D01*
X7142791Y-21105631D01*
X7862660Y-21825499D01*
X8539749Y-22502588D01*
X8567406Y-22514043D01*
X8595064Y-22525500D01*
X8595065Y-22525500D01*
X12229934Y-22525500D01*
X12229936Y-22525500D01*
X12252848Y-22516009D01*
X12285252Y-22502588D01*
X12506419Y-22281420D01*
X12727585Y-22060255D01*
X12727585Y-22060253D01*
X12727587Y-22060252D01*
X12740144Y-22029936D01*
X12750500Y-22004936D01*
X12750500Y-20317253D01*
X12764852Y-20282605D01*
X12774993Y-20274822D01*
X12799862Y-20260465D01*
X12860465Y-20199862D01*
X12897576Y-20135583D01*
X12903317Y-20125640D01*
X12903317Y-20125639D01*
X12903318Y-20125638D01*
X12925499Y-20042856D01*
X12925500Y-20042856D01*
X12925500Y-19957144D01*
X12925499Y-19957143D01*
X12903318Y-19874363D01*
X12903317Y-19874359D01*
X12860464Y-19800137D01*
X12799862Y-19739535D01*
X12725640Y-19696682D01*
X12725636Y-19696681D01*
X12642856Y-19674500D01*
X12642853Y-19674500D01*
X12557147Y-19674500D01*
X12557144Y-19674500D01*
X12474363Y-19696681D01*
X12474359Y-19696682D01*
X12400137Y-19739535D01*
X12400137Y-19739536D01*
X12339536Y-19800137D01*
X12339535Y-19800137D01*
X12296682Y-19874359D01*
X12296681Y-19874363D01*
X12274500Y-19957143D01*
X12274500Y-20042856D01*
X12296681Y-20125636D01*
X12296681Y-20125637D01*
X12314909Y-20157209D01*
X12319803Y-20194391D01*
X12296972Y-20224144D01*
X12259790Y-20229038D01*
X12242855Y-20224500D01*
X12242853Y-20224500D01*
X12157147Y-20224500D01*
X12157144Y-20224500D01*
X12074363Y-20246681D01*
X12074359Y-20246682D01*
X12000137Y-20289535D01*
X12000137Y-20289536D01*
X11939536Y-20350137D01*
X11939535Y-20350137D01*
X11896682Y-20424359D01*
X11896681Y-20424363D01*
X11874500Y-20507143D01*
X11874500Y-20592856D01*
X11896681Y-20675636D01*
X11896682Y-20675640D01*
X11939535Y-20749862D01*
X12000138Y-20810465D01*
X12015519Y-20819345D01*
X12074359Y-20853317D01*
X12074361Y-20853317D01*
X12074362Y-20853318D01*
X12124215Y-20866676D01*
X12157143Y-20875499D01*
X12157144Y-20875500D01*
X12157147Y-20875500D01*
X12242856Y-20875500D01*
X12242856Y-20875499D01*
X12325638Y-20853318D01*
X12376001Y-20824240D01*
X12413182Y-20819345D01*
X12442935Y-20842175D01*
X12449500Y-20866676D01*
X12449500Y-21892364D01*
X12435148Y-21927012D01*
X12152012Y-22210148D01*
X12117364Y-22224500D01*
X9131110Y-22224500D01*
X9096462Y-22210148D01*
X9082110Y-22175500D01*
X9088674Y-22151001D01*
X9103318Y-22125638D01*
X9125499Y-22042856D01*
X9125500Y-22042856D01*
X9125500Y-21957144D01*
X9125499Y-21957143D01*
X9110748Y-21902091D01*
X9103318Y-21874362D01*
X9103317Y-21874361D01*
X9103317Y-21874359D01*
X9060464Y-21800137D01*
X8999862Y-21739535D01*
X8925640Y-21696682D01*
X8925636Y-21696681D01*
X8842856Y-21674500D01*
X8842853Y-21674500D01*
X8757147Y-21674500D01*
X8757146Y-21674500D01*
X8729415Y-21681930D01*
X8692233Y-21677034D01*
X8682086Y-21669247D01*
X8214852Y-21202012D01*
X8200500Y-21167364D01*
X8200500Y-20106110D01*
X8214852Y-20071462D01*
X8249500Y-20057110D01*
X8273998Y-20063674D01*
X8299362Y-20078318D01*
X8369983Y-20097241D01*
X8399736Y-20120071D01*
X8404631Y-20157253D01*
X8399737Y-20169070D01*
X8396682Y-20174361D01*
X8396681Y-20174363D01*
X8374500Y-20257143D01*
X8374500Y-20342856D01*
X8396681Y-20425636D01*
X8396682Y-20425640D01*
X8433696Y-20489749D01*
X8439535Y-20499862D01*
X8500138Y-20560465D01*
X8527304Y-20576149D01*
X8574359Y-20603317D01*
X8574361Y-20603317D01*
X8574362Y-20603318D01*
X8639651Y-20620812D01*
X8657143Y-20625499D01*
X8657144Y-20625500D01*
X8657147Y-20625500D01*
X8742856Y-20625500D01*
X8742856Y-20625499D01*
X8825638Y-20603318D01*
X8899862Y-20560465D01*
X8960465Y-20499862D01*
X9003318Y-20425638D01*
X9021671Y-20357143D01*
X9474500Y-20357143D01*
X9474500Y-20442856D01*
X9496681Y-20525636D01*
X9496682Y-20525640D01*
X9516789Y-20560465D01*
X9539535Y-20599862D01*
X9600138Y-20660465D01*
X9626415Y-20675636D01*
X9674359Y-20703317D01*
X9674361Y-20703317D01*
X9674362Y-20703318D01*
X9739651Y-20720812D01*
X9757143Y-20725499D01*
X9757144Y-20725500D01*
X9757147Y-20725500D01*
X9842856Y-20725500D01*
X9842856Y-20725499D01*
X9925638Y-20703318D01*
X9999862Y-20660465D01*
X10060465Y-20599862D01*
X10103318Y-20525638D01*
X10125499Y-20442856D01*
X10125500Y-20442856D01*
X10125500Y-20357144D01*
X10125499Y-20357143D01*
X10103319Y-20274366D01*
X10103318Y-20274363D01*
X10103318Y-20274362D01*
X10093377Y-20257143D01*
X11074500Y-20257143D01*
X11074500Y-20342856D01*
X11096681Y-20425636D01*
X11096682Y-20425640D01*
X11133696Y-20489749D01*
X11139535Y-20499862D01*
X11200138Y-20560465D01*
X11227304Y-20576149D01*
X11274359Y-20603317D01*
X11274361Y-20603317D01*
X11274362Y-20603318D01*
X11339651Y-20620812D01*
X11357143Y-20625499D01*
X11357144Y-20625500D01*
X11357147Y-20625500D01*
X11442856Y-20625500D01*
X11442856Y-20625499D01*
X11525638Y-20603318D01*
X11599862Y-20560465D01*
X11660465Y-20499862D01*
X11703318Y-20425638D01*
X11725499Y-20342856D01*
X11725500Y-20342856D01*
X11725500Y-20274500D01*
X11739852Y-20239852D01*
X11774500Y-20225500D01*
X11842856Y-20225500D01*
X11842856Y-20225499D01*
X11925638Y-20203318D01*
X11999862Y-20160465D01*
X12060465Y-20099862D01*
X12103318Y-20025638D01*
X12125499Y-19942856D01*
X12125500Y-19942856D01*
X12125500Y-19857144D01*
X12125499Y-19857143D01*
X12120812Y-19839651D01*
X12103318Y-19774362D01*
X12103317Y-19774361D01*
X12103317Y-19774359D01*
X12060464Y-19700137D01*
X11999862Y-19639535D01*
X11925640Y-19596682D01*
X11925636Y-19596681D01*
X11842856Y-19574500D01*
X11842853Y-19574500D01*
X11757147Y-19574500D01*
X11757144Y-19574500D01*
X11674363Y-19596681D01*
X11674359Y-19596682D01*
X11600137Y-19639535D01*
X11600137Y-19639536D01*
X11539536Y-19700137D01*
X11539535Y-19700137D01*
X11496682Y-19774359D01*
X11496681Y-19774363D01*
X11474500Y-19857143D01*
X11474500Y-19925500D01*
X11460148Y-19960148D01*
X11425500Y-19974500D01*
X11357144Y-19974500D01*
X11274363Y-19996681D01*
X11274359Y-19996682D01*
X11200137Y-20039535D01*
X11200137Y-20039536D01*
X11139536Y-20100137D01*
X11139535Y-20100137D01*
X11096682Y-20174359D01*
X11096681Y-20174363D01*
X11074500Y-20257143D01*
X10093377Y-20257143D01*
X10060465Y-20200138D01*
X9999862Y-20139535D01*
X9925640Y-20096682D01*
X9925636Y-20096681D01*
X9842856Y-20074500D01*
X9842853Y-20074500D01*
X9757147Y-20074500D01*
X9757144Y-20074500D01*
X9674363Y-20096681D01*
X9674359Y-20096682D01*
X9600137Y-20139535D01*
X9600137Y-20139536D01*
X9539536Y-20200137D01*
X9539535Y-20200137D01*
X9496682Y-20274359D01*
X9496681Y-20274363D01*
X9474500Y-20357143D01*
X9021671Y-20357143D01*
X9025499Y-20342857D01*
X9025500Y-20342856D01*
X9025500Y-20257144D01*
X9006433Y-20185987D01*
X9011328Y-20148805D01*
X9041081Y-20125975D01*
X9076986Y-20116354D01*
X9125638Y-20103318D01*
X9199862Y-20060465D01*
X9260465Y-19999862D01*
X9303318Y-19925638D01*
X9325499Y-19842856D01*
X9325500Y-19842856D01*
X9325500Y-19757144D01*
X9325499Y-19757143D01*
X10274500Y-19757143D01*
X10274500Y-19842856D01*
X10296681Y-19925636D01*
X10296682Y-19925640D01*
X10321056Y-19967856D01*
X10339535Y-19999862D01*
X10400138Y-20060465D01*
X10427304Y-20076149D01*
X10474359Y-20103317D01*
X10474361Y-20103317D01*
X10474362Y-20103318D01*
X10536886Y-20120071D01*
X10557143Y-20125499D01*
X10557144Y-20125500D01*
X10557147Y-20125500D01*
X10642856Y-20125500D01*
X10642856Y-20125499D01*
X10725638Y-20103318D01*
X10799862Y-20060465D01*
X10860465Y-19999862D01*
X10903318Y-19925638D01*
X10925499Y-19842856D01*
X10925500Y-19842856D01*
X10925500Y-19757144D01*
X10925499Y-19757143D01*
X10911076Y-19703317D01*
X10903318Y-19674362D01*
X10903317Y-19674361D01*
X10903317Y-19674359D01*
X10860464Y-19600137D01*
X10799862Y-19539535D01*
X10725640Y-19496682D01*
X10725636Y-19496681D01*
X10642856Y-19474500D01*
X10642853Y-19474500D01*
X10557147Y-19474500D01*
X10557144Y-19474500D01*
X10474363Y-19496681D01*
X10474359Y-19496682D01*
X10400137Y-19539535D01*
X10400137Y-19539536D01*
X10339536Y-19600137D01*
X10339535Y-19600137D01*
X10296682Y-19674359D01*
X10296681Y-19674363D01*
X10274500Y-19757143D01*
X9325499Y-19757143D01*
X9311076Y-19703317D01*
X9303318Y-19674362D01*
X9303317Y-19674361D01*
X9303317Y-19674359D01*
X9260464Y-19600137D01*
X9199862Y-19539535D01*
X9125640Y-19496682D01*
X9125636Y-19496681D01*
X9042856Y-19474500D01*
X9042853Y-19474500D01*
X8957147Y-19474500D01*
X8957144Y-19474500D01*
X8874363Y-19496681D01*
X8874359Y-19496682D01*
X8800139Y-19539534D01*
X8759303Y-19580370D01*
X8724654Y-19594721D01*
X8690006Y-19580369D01*
X8685779Y-19575548D01*
X8685467Y-19575141D01*
X8685465Y-19575138D01*
X8624862Y-19514535D01*
X8599998Y-19500179D01*
X8577169Y-19470426D01*
X8575500Y-19457745D01*
X8575500Y-19357143D01*
X12874500Y-19357143D01*
X12874500Y-19442856D01*
X12896681Y-19525636D01*
X12896682Y-19525640D01*
X12928281Y-19580370D01*
X12939535Y-19599862D01*
X13000138Y-19660465D01*
X13027304Y-19676149D01*
X13074359Y-19703317D01*
X13074361Y-19703317D01*
X13074362Y-19703318D01*
X13139651Y-19720812D01*
X13157143Y-19725499D01*
X13157144Y-19725500D01*
X13157147Y-19725500D01*
X13242856Y-19725500D01*
X13242856Y-19725499D01*
X13325638Y-19703318D01*
X13399862Y-19660465D01*
X13460465Y-19599862D01*
X13503318Y-19525638D01*
X13525499Y-19442856D01*
X13525500Y-19442856D01*
X13525500Y-19357144D01*
X13525499Y-19357143D01*
X13503318Y-19274363D01*
X13503317Y-19274359D01*
X13475107Y-19225499D01*
X13460465Y-19200138D01*
X13399862Y-19139535D01*
X13325640Y-19096682D01*
X13325636Y-19096681D01*
X13242856Y-19074500D01*
X13242853Y-19074500D01*
X13157147Y-19074500D01*
X13157144Y-19074500D01*
X13074363Y-19096681D01*
X13074359Y-19096682D01*
X13000137Y-19139535D01*
X13000137Y-19139536D01*
X12939536Y-19200137D01*
X12939535Y-19200137D01*
X12896682Y-19274359D01*
X12896681Y-19274363D01*
X12874500Y-19357143D01*
X8575500Y-19357143D01*
X8575500Y-18657143D01*
X15674500Y-18657143D01*
X15674500Y-18742856D01*
X15696681Y-18825636D01*
X15696682Y-18825640D01*
X15724813Y-18874363D01*
X15739535Y-18899862D01*
X15800138Y-18960465D01*
X15817660Y-18970581D01*
X15874359Y-19003317D01*
X15874361Y-19003317D01*
X15874362Y-19003318D01*
X15928828Y-19017912D01*
X15957143Y-19025499D01*
X15957144Y-19025500D01*
X15957147Y-19025500D01*
X16042856Y-19025500D01*
X16042856Y-19025499D01*
X16125638Y-19003318D01*
X16199862Y-18960465D01*
X16260465Y-18899862D01*
X16303318Y-18825638D01*
X16325499Y-18742856D01*
X16325500Y-18742856D01*
X16325500Y-18657144D01*
X16325499Y-18657143D01*
X16309648Y-18597987D01*
X16303318Y-18574362D01*
X16303317Y-18574361D01*
X16303317Y-18574359D01*
X16261180Y-18501377D01*
X16260465Y-18500138D01*
X16199862Y-18439535D01*
X16125640Y-18396682D01*
X16125636Y-18396681D01*
X16042856Y-18374500D01*
X16042853Y-18374500D01*
X15957147Y-18374500D01*
X15957144Y-18374500D01*
X15874363Y-18396681D01*
X15874359Y-18396682D01*
X15800137Y-18439535D01*
X15800137Y-18439536D01*
X15739536Y-18500137D01*
X15739535Y-18500137D01*
X15696682Y-18574359D01*
X15696681Y-18574363D01*
X15674500Y-18657143D01*
X8575500Y-18657143D01*
X8575500Y-18095066D01*
X8575499Y-18095062D01*
X8565814Y-18071682D01*
X8552587Y-18039749D01*
X8552587Y-18039748D01*
X7794982Y-17282143D01*
X14049500Y-17282143D01*
X14049500Y-17367856D01*
X14071681Y-17450636D01*
X14071682Y-17450640D01*
X14098265Y-17496682D01*
X14114535Y-17524862D01*
X14175138Y-17585465D01*
X14200551Y-17600137D01*
X14249359Y-17628317D01*
X14249361Y-17628317D01*
X14249362Y-17628318D01*
X14314651Y-17645812D01*
X14332143Y-17650499D01*
X14332144Y-17650500D01*
X14332147Y-17650500D01*
X14339218Y-17650500D01*
X14373866Y-17664852D01*
X14388218Y-17699500D01*
X14386548Y-17712183D01*
X14374500Y-17757145D01*
X14374500Y-17842856D01*
X14396681Y-17925636D01*
X14396682Y-17925640D01*
X14439535Y-17999862D01*
X14500138Y-18060465D01*
X14524210Y-18074363D01*
X14574359Y-18103317D01*
X14574361Y-18103317D01*
X14574362Y-18103318D01*
X14639651Y-18120812D01*
X14657143Y-18125499D01*
X14657144Y-18125500D01*
X14725500Y-18125500D01*
X14760148Y-18139852D01*
X14774500Y-18174500D01*
X14774500Y-18242856D01*
X14796681Y-18325636D01*
X14796682Y-18325640D01*
X14824892Y-18374500D01*
X14839535Y-18399862D01*
X14900138Y-18460465D01*
X14927304Y-18476149D01*
X14974359Y-18503317D01*
X14974361Y-18503317D01*
X14974362Y-18503318D01*
X15036859Y-18520064D01*
X15057143Y-18525499D01*
X15057144Y-18525500D01*
X15057147Y-18525500D01*
X15142856Y-18525500D01*
X15142856Y-18525499D01*
X15225638Y-18503318D01*
X15230277Y-18500640D01*
X15253858Y-18487025D01*
X15299862Y-18460465D01*
X15360465Y-18399862D01*
X15403318Y-18325638D01*
X15425499Y-18242856D01*
X15425500Y-18242856D01*
X15425500Y-18157144D01*
X15425499Y-18157143D01*
X15417020Y-18125499D01*
X15403318Y-18074362D01*
X15403317Y-18074361D01*
X15403317Y-18074359D01*
X15360464Y-18000137D01*
X15299862Y-17939535D01*
X15225640Y-17896682D01*
X15225636Y-17896681D01*
X15142856Y-17874500D01*
X15142853Y-17874500D01*
X15074500Y-17874500D01*
X15039852Y-17860148D01*
X15025500Y-17825500D01*
X15025500Y-17757144D01*
X15025499Y-17757143D01*
X15013452Y-17712183D01*
X15003318Y-17674362D01*
X15003317Y-17674361D01*
X15003317Y-17674359D01*
X14960464Y-17600137D01*
X14899862Y-17539535D01*
X14825640Y-17496682D01*
X14825636Y-17496681D01*
X14742856Y-17474500D01*
X14742853Y-17474500D01*
X14735782Y-17474500D01*
X14701134Y-17460148D01*
X14686782Y-17425500D01*
X14688452Y-17412817D01*
X14700500Y-17367854D01*
X14700500Y-17282144D01*
X14700499Y-17282143D01*
X14693801Y-17257146D01*
X14678318Y-17199362D01*
X14678317Y-17199361D01*
X14678317Y-17199359D01*
X14647776Y-17146462D01*
X14635465Y-17125138D01*
X14574862Y-17064535D01*
X14567811Y-17060464D01*
X14500640Y-17021682D01*
X14500636Y-17021681D01*
X14417856Y-16999500D01*
X14417853Y-16999500D01*
X14332147Y-16999500D01*
X14332144Y-16999500D01*
X14249363Y-17021681D01*
X14249359Y-17021682D01*
X14175137Y-17064535D01*
X14175137Y-17064536D01*
X14114536Y-17125137D01*
X14114535Y-17125137D01*
X14071682Y-17199359D01*
X14071681Y-17199363D01*
X14049500Y-17282143D01*
X7794982Y-17282143D01*
X7425656Y-16912817D01*
X7369982Y-16857143D01*
X14774500Y-16857143D01*
X14774500Y-16942856D01*
X14796681Y-17025636D01*
X14796682Y-17025640D01*
X14829286Y-17082110D01*
X14839535Y-17099862D01*
X14900138Y-17160465D01*
X14924210Y-17174363D01*
X14974359Y-17203317D01*
X14974361Y-17203317D01*
X14974362Y-17203318D01*
X15039651Y-17220812D01*
X15057143Y-17225499D01*
X15057144Y-17225500D01*
X15057147Y-17225500D01*
X15142856Y-17225500D01*
X15142856Y-17225499D01*
X15225638Y-17203318D01*
X15299862Y-17160465D01*
X15360465Y-17099862D01*
X15403318Y-17025638D01*
X15425499Y-16942856D01*
X15425500Y-16942856D01*
X15425500Y-16857144D01*
X15425499Y-16857143D01*
X15412102Y-16807144D01*
X15403318Y-16774362D01*
X15403317Y-16774361D01*
X15403317Y-16774359D01*
X15360464Y-16700137D01*
X15299862Y-16639535D01*
X15225640Y-16596682D01*
X15225636Y-16596681D01*
X15142856Y-16574500D01*
X15142853Y-16574500D01*
X15057147Y-16574500D01*
X15057144Y-16574500D01*
X14974363Y-16596681D01*
X14974359Y-16596682D01*
X14900137Y-16639535D01*
X14900137Y-16639536D01*
X14839536Y-16700137D01*
X14839535Y-16700137D01*
X14796682Y-16774359D01*
X14796681Y-16774363D01*
X14774500Y-16857143D01*
X7369982Y-16857143D01*
X7001423Y-16488583D01*
X6969983Y-16457143D01*
X13974500Y-16457143D01*
X13974500Y-16542856D01*
X13996681Y-16625636D01*
X13996682Y-16625640D01*
X14039535Y-16699862D01*
X14100138Y-16760465D01*
X14124210Y-16774363D01*
X14174359Y-16803317D01*
X14174361Y-16803317D01*
X14174362Y-16803318D01*
X14239651Y-16820812D01*
X14257143Y-16825499D01*
X14257144Y-16825500D01*
X14257147Y-16825500D01*
X14342856Y-16825500D01*
X14342856Y-16825499D01*
X14425638Y-16803318D01*
X14499862Y-16760465D01*
X14560465Y-16699862D01*
X14603318Y-16625638D01*
X14625499Y-16542856D01*
X14625500Y-16542856D01*
X14625500Y-16457144D01*
X14625499Y-16457143D01*
X14620812Y-16439651D01*
X14603318Y-16374362D01*
X14603317Y-16374361D01*
X14603317Y-16374359D01*
X14576149Y-16327304D01*
X14560465Y-16300138D01*
X14499862Y-16239535D01*
X14425640Y-16196682D01*
X14425636Y-16196681D01*
X14342856Y-16174500D01*
X14342853Y-16174500D01*
X14257147Y-16174500D01*
X14257144Y-16174500D01*
X14174363Y-16196681D01*
X14174359Y-16196682D01*
X14100137Y-16239535D01*
X14100137Y-16239536D01*
X14039536Y-16300137D01*
X14039535Y-16300137D01*
X13996682Y-16374359D01*
X13996681Y-16374363D01*
X13974500Y-16457143D01*
X6969983Y-16457143D01*
X6569983Y-16057143D01*
X14774500Y-16057143D01*
X14774500Y-16142856D01*
X14796681Y-16225636D01*
X14796682Y-16225640D01*
X14839535Y-16299862D01*
X14900138Y-16360465D01*
X14924210Y-16374363D01*
X14974359Y-16403317D01*
X14974361Y-16403317D01*
X14974362Y-16403318D01*
X15029418Y-16418070D01*
X15057143Y-16425499D01*
X15057144Y-16425500D01*
X15057147Y-16425500D01*
X15142856Y-16425500D01*
X15142856Y-16425499D01*
X15225638Y-16403318D01*
X15299862Y-16360465D01*
X15360465Y-16299862D01*
X15403318Y-16225638D01*
X15425499Y-16142856D01*
X15425500Y-16142856D01*
X15425500Y-16057144D01*
X15425499Y-16057143D01*
X15411076Y-16003317D01*
X15403318Y-15974362D01*
X15403317Y-15974361D01*
X15403317Y-15974359D01*
X15360464Y-15900137D01*
X15299862Y-15839535D01*
X15225640Y-15796682D01*
X15225636Y-15796681D01*
X15142856Y-15774500D01*
X15142853Y-15774500D01*
X15057147Y-15774500D01*
X15057144Y-15774500D01*
X14974363Y-15796681D01*
X14974359Y-15796682D01*
X14900137Y-15839535D01*
X14900137Y-15839536D01*
X14839536Y-15900137D01*
X14839535Y-15900137D01*
X14796682Y-15974359D01*
X14796681Y-15974363D01*
X14774500Y-16057143D01*
X6569983Y-16057143D01*
X6169983Y-15657143D01*
X13974500Y-15657143D01*
X13974500Y-15742856D01*
X13996681Y-15825636D01*
X13996682Y-15825640D01*
X14024892Y-15874500D01*
X14039535Y-15899862D01*
X14100138Y-15960465D01*
X14124210Y-15974363D01*
X14174359Y-16003317D01*
X14174361Y-16003317D01*
X14174362Y-16003318D01*
X14217020Y-16014748D01*
X14257143Y-16025499D01*
X14257144Y-16025500D01*
X14257147Y-16025500D01*
X14342856Y-16025500D01*
X14342856Y-16025499D01*
X14425638Y-16003318D01*
X14499862Y-15960465D01*
X14560465Y-15899862D01*
X14603318Y-15825638D01*
X14625499Y-15742856D01*
X14625500Y-15742856D01*
X14625500Y-15657144D01*
X14625499Y-15657143D01*
X14620812Y-15639651D01*
X14603318Y-15574362D01*
X14603317Y-15574361D01*
X14603317Y-15574359D01*
X14560464Y-15500137D01*
X14499862Y-15439535D01*
X14425640Y-15396682D01*
X14425636Y-15396681D01*
X14342856Y-15374500D01*
X14342853Y-15374500D01*
X14257147Y-15374500D01*
X14257144Y-15374500D01*
X14174363Y-15396681D01*
X14174359Y-15396682D01*
X14100137Y-15439535D01*
X14100137Y-15439536D01*
X14039536Y-15500137D01*
X14039535Y-15500137D01*
X13996682Y-15574359D01*
X13996681Y-15574363D01*
X13974500Y-15657143D01*
X6169983Y-15657143D01*
X5930752Y-15417912D01*
X5916400Y-15383264D01*
X5918070Y-15370581D01*
X5925500Y-15342854D01*
X5925500Y-15257144D01*
X5925499Y-15257143D01*
X15174500Y-15257143D01*
X15174500Y-15342856D01*
X15196681Y-15425636D01*
X15196682Y-15425640D01*
X15239535Y-15499862D01*
X15300138Y-15560465D01*
X15324210Y-15574363D01*
X15374359Y-15603317D01*
X15374361Y-15603317D01*
X15374362Y-15603318D01*
X15429418Y-15618070D01*
X15457143Y-15625499D01*
X15457144Y-15625500D01*
X15457147Y-15625500D01*
X15542856Y-15625500D01*
X15542856Y-15625499D01*
X15625638Y-15603318D01*
X15699862Y-15560465D01*
X15760465Y-15499862D01*
X15803318Y-15425638D01*
X15825499Y-15342856D01*
X15825500Y-15342856D01*
X15825500Y-15257144D01*
X15825499Y-15257143D01*
X15803318Y-15174363D01*
X15803317Y-15174359D01*
X15760464Y-15100137D01*
X15699862Y-15039535D01*
X15625640Y-14996682D01*
X15625636Y-14996681D01*
X15542856Y-14974500D01*
X15542853Y-14974500D01*
X15457147Y-14974500D01*
X15457144Y-14974500D01*
X15374363Y-14996681D01*
X15374359Y-14996682D01*
X15300137Y-15039535D01*
X15300137Y-15039536D01*
X15239536Y-15100137D01*
X15239535Y-15100137D01*
X15196682Y-15174359D01*
X15196681Y-15174363D01*
X15174500Y-15257143D01*
X5925499Y-15257143D01*
X5903318Y-15174363D01*
X5903317Y-15174359D01*
X5860464Y-15100137D01*
X5799862Y-15039535D01*
X5725640Y-14996682D01*
X5725636Y-14996681D01*
X5642856Y-14974500D01*
X5642853Y-14974500D01*
X5557147Y-14974500D01*
X5557140Y-14974500D01*
X5555885Y-14974665D01*
X5555270Y-14974500D01*
X5554275Y-14974500D01*
X5553447Y-14974924D01*
X5536676Y-14969513D01*
X5519662Y-14964951D01*
X5519005Y-14963813D01*
X5517756Y-14963410D01*
X5513659Y-14954548D01*
X5500918Y-14932468D01*
X5500659Y-14930030D01*
X5500500Y-14928062D01*
X5500500Y-14882147D01*
X5493801Y-14857147D01*
X5493800Y-14857143D01*
X13924500Y-14857143D01*
X13924500Y-14942856D01*
X13946681Y-15025636D01*
X13946682Y-15025640D01*
X13989535Y-15099862D01*
X14050138Y-15160465D01*
X14074210Y-15174363D01*
X14124359Y-15203317D01*
X14124361Y-15203317D01*
X14124362Y-15203318D01*
X14189651Y-15220812D01*
X14207143Y-15225499D01*
X14207144Y-15225500D01*
X14207147Y-15225500D01*
X14292856Y-15225500D01*
X14292856Y-15225499D01*
X14375638Y-15203318D01*
X14449862Y-15160465D01*
X14510465Y-15099862D01*
X14553318Y-15025638D01*
X14575499Y-14942856D01*
X14575500Y-14942856D01*
X14575500Y-14857144D01*
X14575499Y-14857143D01*
X14553318Y-14774363D01*
X14553317Y-14774359D01*
X14510464Y-14700137D01*
X14449862Y-14639535D01*
X14375640Y-14596682D01*
X14375636Y-14596681D01*
X14292856Y-14574500D01*
X14292853Y-14574500D01*
X14207147Y-14574500D01*
X14207144Y-14574500D01*
X14124363Y-14596681D01*
X14124359Y-14596682D01*
X14050137Y-14639535D01*
X14050137Y-14639536D01*
X13989536Y-14700137D01*
X13989535Y-14700137D01*
X13946682Y-14774359D01*
X13946681Y-14774363D01*
X13924500Y-14857143D01*
X5493800Y-14857143D01*
X5478318Y-14799362D01*
X5478317Y-14799359D01*
X5435464Y-14725137D01*
X5374862Y-14664535D01*
X5300640Y-14621682D01*
X5300636Y-14621681D01*
X5217856Y-14599500D01*
X5217853Y-14599500D01*
X5132147Y-14599500D01*
X5132144Y-14599500D01*
X5049363Y-14621681D01*
X5049359Y-14621682D01*
X4975137Y-14664535D01*
X4975137Y-14664536D01*
X4914536Y-14725137D01*
X4914535Y-14725137D01*
X4871682Y-14799359D01*
X4871681Y-14799363D01*
X4849500Y-14882143D01*
X4230695Y-14882143D01*
X5249616Y-13863222D01*
X5284263Y-13848871D01*
X5318911Y-13863223D01*
X5333263Y-13897871D01*
X5326698Y-13922371D01*
X5296682Y-13974359D01*
X5296681Y-13974363D01*
X5274500Y-14057143D01*
X5274500Y-14142856D01*
X5296681Y-14225636D01*
X5296682Y-14225640D01*
X5339535Y-14299862D01*
X5400138Y-14360465D01*
X5427304Y-14376149D01*
X5474359Y-14403317D01*
X5474361Y-14403317D01*
X5474362Y-14403318D01*
X5539651Y-14420812D01*
X5557143Y-14425499D01*
X5557144Y-14425500D01*
X5557147Y-14425500D01*
X5642856Y-14425500D01*
X5642856Y-14425499D01*
X5725638Y-14403318D01*
X5799862Y-14360465D01*
X5860465Y-14299862D01*
X5903318Y-14225638D01*
X5925499Y-14142856D01*
X5925500Y-14142856D01*
X5925500Y-14057144D01*
X5925499Y-14057143D01*
X5903318Y-13974363D01*
X5903317Y-13974359D01*
X5860464Y-13900137D01*
X5799862Y-13839535D01*
X5725640Y-13796682D01*
X5725636Y-13796681D01*
X5642856Y-13774500D01*
X5642853Y-13774500D01*
X5557147Y-13774500D01*
X5557144Y-13774500D01*
X5474363Y-13796681D01*
X5474359Y-13796682D01*
X5422371Y-13826698D01*
X5385188Y-13831593D01*
X5355436Y-13808763D01*
X5350541Y-13771580D01*
X5363221Y-13749617D01*
X5482087Y-13630751D01*
X5516734Y-13616400D01*
X5529417Y-13618070D01*
X5557145Y-13625500D01*
X5557147Y-13625500D01*
X5642856Y-13625500D01*
X5642856Y-13625499D01*
X5725638Y-13603318D01*
X5799862Y-13560465D01*
X5860465Y-13499862D01*
X5903318Y-13425638D01*
X5925499Y-13342856D01*
X5925500Y-13342856D01*
X5925500Y-13257144D01*
X5925499Y-13257143D01*
X5903319Y-13174366D01*
X5903318Y-13174363D01*
X5903318Y-13174362D01*
X5893377Y-13157143D01*
X13974500Y-13157143D01*
X13974500Y-13242856D01*
X13996681Y-13325636D01*
X13996682Y-13325640D01*
X14022631Y-13370584D01*
X14039535Y-13399862D01*
X14100138Y-13460465D01*
X14127304Y-13476149D01*
X14174359Y-13503317D01*
X14174361Y-13503317D01*
X14174362Y-13503318D01*
X14239651Y-13520812D01*
X14257143Y-13525499D01*
X14257144Y-13525500D01*
X14257147Y-13525500D01*
X14342856Y-13525500D01*
X14342856Y-13525499D01*
X14425638Y-13503318D01*
X14499862Y-13460465D01*
X14560465Y-13399862D01*
X14603318Y-13325638D01*
X14625499Y-13242856D01*
X14625500Y-13242856D01*
X14625500Y-13157144D01*
X14625499Y-13157143D01*
X14620812Y-13139651D01*
X14603318Y-13074362D01*
X14603317Y-13074361D01*
X14603317Y-13074359D01*
X14576149Y-13027304D01*
X14560465Y-13000138D01*
X14499862Y-12939535D01*
X14449333Y-12910362D01*
X14426503Y-12880609D01*
X14431398Y-12843427D01*
X14461151Y-12820597D01*
X14465656Y-12819390D01*
X14525638Y-12803318D01*
X14599862Y-12760465D01*
X14660465Y-12699862D01*
X14703318Y-12625638D01*
X14725499Y-12542856D01*
X14725500Y-12542856D01*
X14725500Y-12457144D01*
X14725499Y-12457143D01*
X14703319Y-12374366D01*
X14703318Y-12374363D01*
X14703318Y-12374362D01*
X14693377Y-12357143D01*
X15574500Y-12357143D01*
X15574500Y-12442856D01*
X15596681Y-12525636D01*
X15596682Y-12525640D01*
X15624892Y-12574500D01*
X15639535Y-12599862D01*
X15700138Y-12660465D01*
X15727304Y-12676149D01*
X15774359Y-12703317D01*
X15774361Y-12703317D01*
X15774362Y-12703318D01*
X15839651Y-12720812D01*
X15857143Y-12725499D01*
X15857144Y-12725500D01*
X15857147Y-12725500D01*
X15942856Y-12725500D01*
X15942856Y-12725499D01*
X16025638Y-12703318D01*
X16099862Y-12660465D01*
X16160465Y-12599862D01*
X16203318Y-12525638D01*
X16225499Y-12442856D01*
X16225500Y-12442856D01*
X16225500Y-12357144D01*
X16225499Y-12357143D01*
X16220812Y-12339651D01*
X16203318Y-12274362D01*
X16203317Y-12274361D01*
X16203317Y-12274359D01*
X16160464Y-12200137D01*
X16099862Y-12139535D01*
X16025640Y-12096682D01*
X16025636Y-12096681D01*
X15942856Y-12074500D01*
X15942853Y-12074500D01*
X15857147Y-12074500D01*
X15857144Y-12074500D01*
X15774363Y-12096681D01*
X15774359Y-12096682D01*
X15700137Y-12139535D01*
X15700137Y-12139536D01*
X15639536Y-12200137D01*
X15639535Y-12200137D01*
X15596682Y-12274359D01*
X15596681Y-12274363D01*
X15574500Y-12357143D01*
X14693377Y-12357143D01*
X14660465Y-12300138D01*
X14599862Y-12239535D01*
X14525640Y-12196682D01*
X14525636Y-12196681D01*
X14442856Y-12174500D01*
X14442853Y-12174500D01*
X14357147Y-12174500D01*
X14357144Y-12174500D01*
X14274363Y-12196681D01*
X14274359Y-12196682D01*
X14200137Y-12239535D01*
X14200137Y-12239536D01*
X14139536Y-12300137D01*
X14139535Y-12300137D01*
X14096682Y-12374359D01*
X14096681Y-12374363D01*
X14074500Y-12457143D01*
X14074500Y-12542856D01*
X14096681Y-12625636D01*
X14096682Y-12625640D01*
X14116789Y-12660465D01*
X14139535Y-12699862D01*
X14200138Y-12760465D01*
X14250666Y-12789637D01*
X14273496Y-12819390D01*
X14268601Y-12856572D01*
X14238849Y-12879402D01*
X14174361Y-12896682D01*
X14174359Y-12896682D01*
X14100137Y-12939535D01*
X14100137Y-12939536D01*
X14039536Y-13000137D01*
X14039535Y-13000137D01*
X13996682Y-13074359D01*
X13996681Y-13074363D01*
X13974500Y-13157143D01*
X5893377Y-13157143D01*
X5860465Y-13100138D01*
X5799862Y-13039535D01*
X5725640Y-12996682D01*
X5725636Y-12996681D01*
X5642856Y-12974500D01*
X5642853Y-12974500D01*
X5557147Y-12974500D01*
X5557144Y-12974500D01*
X5474363Y-12996681D01*
X5474359Y-12996682D01*
X5400137Y-13039535D01*
X5400137Y-13039536D01*
X5339536Y-13100137D01*
X5339535Y-13100137D01*
X5296682Y-13174359D01*
X5296681Y-13174363D01*
X5274500Y-13257143D01*
X5274500Y-13342853D01*
X5281929Y-13370584D01*
X5277032Y-13407766D01*
X5269246Y-13417912D01*
X2672414Y-16014744D01*
X2672413Y-16014746D01*
X2658990Y-16047149D01*
X2658990Y-16047151D01*
X2649500Y-16070064D01*
X2649500Y-16070065D01*
X2649500Y-18682745D01*
X2635148Y-18717393D01*
X2625001Y-18725180D01*
X2600141Y-18739533D01*
X2600134Y-18739538D01*
X2539536Y-18800137D01*
X2539535Y-18800137D01*
X2496682Y-18874359D01*
X2496681Y-18874363D01*
X2474500Y-18957143D01*
X300500Y-18957143D01*
X300500Y-13657143D01*
X3974500Y-13657143D01*
X3974500Y-13742856D01*
X3996681Y-13825636D01*
X3996682Y-13825640D01*
X4039535Y-13899862D01*
X4100138Y-13960465D01*
X4124210Y-13974363D01*
X4174359Y-14003317D01*
X4174361Y-14003317D01*
X4174362Y-14003318D01*
X4239651Y-14020812D01*
X4257143Y-14025499D01*
X4257144Y-14025500D01*
X4257147Y-14025500D01*
X4342856Y-14025500D01*
X4342856Y-14025499D01*
X4425638Y-14003318D01*
X4499862Y-13960465D01*
X4560465Y-13899862D01*
X4603318Y-13825638D01*
X4625499Y-13742856D01*
X4625500Y-13742856D01*
X4625500Y-13657144D01*
X4625499Y-13657143D01*
X4620812Y-13639651D01*
X4603318Y-13574362D01*
X4603317Y-13574361D01*
X4603317Y-13574359D01*
X4560464Y-13500137D01*
X4499862Y-13439535D01*
X4425640Y-13396682D01*
X4425636Y-13396681D01*
X4342856Y-13374500D01*
X4342853Y-13374500D01*
X4257147Y-13374500D01*
X4257144Y-13374500D01*
X4174363Y-13396681D01*
X4174359Y-13396682D01*
X4100137Y-13439535D01*
X4100137Y-13439536D01*
X4039536Y-13500137D01*
X4039535Y-13500137D01*
X3996682Y-13574359D01*
X3996681Y-13574363D01*
X3974500Y-13657143D01*
X300500Y-13657143D01*
X300500Y-12857143D01*
X4574500Y-12857143D01*
X4574500Y-12942856D01*
X4596681Y-13025636D01*
X4596682Y-13025640D01*
X4624813Y-13074363D01*
X4639535Y-13099862D01*
X4700138Y-13160465D01*
X4724210Y-13174363D01*
X4774359Y-13203317D01*
X4774361Y-13203317D01*
X4774362Y-13203318D01*
X4839651Y-13220812D01*
X4857143Y-13225499D01*
X4857144Y-13225500D01*
X4857147Y-13225500D01*
X4942856Y-13225500D01*
X4942856Y-13225499D01*
X5025638Y-13203318D01*
X5099862Y-13160465D01*
X5160465Y-13099862D01*
X5203318Y-13025638D01*
X5225499Y-12942856D01*
X5225500Y-12942856D01*
X5225500Y-12857144D01*
X5225499Y-12857143D01*
X5217020Y-12825500D01*
X5203318Y-12774362D01*
X5203317Y-12774361D01*
X5203317Y-12774359D01*
X5160464Y-12700137D01*
X5099862Y-12639535D01*
X5025640Y-12596682D01*
X5025636Y-12596681D01*
X4942856Y-12574500D01*
X4942853Y-12574500D01*
X4857147Y-12574500D01*
X4857144Y-12574500D01*
X4774363Y-12596681D01*
X4774359Y-12596682D01*
X4700137Y-12639535D01*
X4700137Y-12639536D01*
X4639536Y-12700137D01*
X4639535Y-12700137D01*
X4596682Y-12774359D01*
X4596681Y-12774363D01*
X4574500Y-12857143D01*
X300500Y-12857143D01*
X300500Y-11057143D01*
X7474500Y-11057143D01*
X7474500Y-11142856D01*
X7496681Y-11225636D01*
X7496682Y-11225640D01*
X7539535Y-11299862D01*
X7600138Y-11360465D01*
X7627304Y-11376149D01*
X7674359Y-11403317D01*
X7674361Y-11403317D01*
X7674362Y-11403318D01*
X7739651Y-11420812D01*
X7757143Y-11425499D01*
X7757144Y-11425500D01*
X7757147Y-11425500D01*
X7842856Y-11425500D01*
X7842856Y-11425499D01*
X7925638Y-11403318D01*
X7999862Y-11360465D01*
X8060465Y-11299862D01*
X8103318Y-11225638D01*
X8125499Y-11142856D01*
X8125500Y-11142856D01*
X8125500Y-11057144D01*
X8125499Y-11057143D01*
X8274500Y-11057143D01*
X8274500Y-11142856D01*
X8296681Y-11225636D01*
X8296682Y-11225640D01*
X8339535Y-11299862D01*
X8400138Y-11360465D01*
X8427304Y-11376149D01*
X8474359Y-11403317D01*
X8474361Y-11403317D01*
X8474362Y-11403318D01*
X8539651Y-11420812D01*
X8557143Y-11425499D01*
X8557144Y-11425500D01*
X8557147Y-11425500D01*
X8642856Y-11425500D01*
X8642856Y-11425499D01*
X8725638Y-11403318D01*
X8799862Y-11360465D01*
X8860465Y-11299862D01*
X8903318Y-11225638D01*
X8925499Y-11142856D01*
X8925500Y-11142856D01*
X8925500Y-11057144D01*
X8925499Y-11057143D01*
X9074500Y-11057143D01*
X9074500Y-11142856D01*
X9096681Y-11225636D01*
X9096682Y-11225640D01*
X9139535Y-11299862D01*
X9200138Y-11360465D01*
X9227304Y-11376149D01*
X9274359Y-11403317D01*
X9274361Y-11403317D01*
X9274362Y-11403318D01*
X9339651Y-11420812D01*
X9357143Y-11425499D01*
X9357144Y-11425500D01*
X9357147Y-11425500D01*
X9442856Y-11425500D01*
X9442856Y-11425499D01*
X9525638Y-11403318D01*
X9599862Y-11360465D01*
X9660465Y-11299862D01*
X9703318Y-11225638D01*
X9725499Y-11142856D01*
X9725500Y-11142856D01*
X9725500Y-11057144D01*
X9725499Y-11057143D01*
X9874500Y-11057143D01*
X9874500Y-11142856D01*
X9896681Y-11225636D01*
X9896682Y-11225640D01*
X9939535Y-11299862D01*
X10000138Y-11360465D01*
X10027304Y-11376149D01*
X10074359Y-11403317D01*
X10074361Y-11403317D01*
X10074362Y-11403318D01*
X10139651Y-11420812D01*
X10157143Y-11425499D01*
X10157144Y-11425500D01*
X10157147Y-11425500D01*
X10242856Y-11425500D01*
X10242856Y-11425499D01*
X10325638Y-11403318D01*
X10399862Y-11360465D01*
X10460465Y-11299862D01*
X10503318Y-11225638D01*
X10525499Y-11142856D01*
X10525500Y-11142856D01*
X10525500Y-11057144D01*
X10525499Y-11057143D01*
X10674500Y-11057143D01*
X10674500Y-11142856D01*
X10696681Y-11225636D01*
X10696682Y-11225640D01*
X10739535Y-11299862D01*
X10800138Y-11360465D01*
X10827304Y-11376149D01*
X10874359Y-11403317D01*
X10874361Y-11403317D01*
X10874362Y-11403318D01*
X10939651Y-11420812D01*
X10957143Y-11425499D01*
X10957144Y-11425500D01*
X10957147Y-11425500D01*
X11042856Y-11425500D01*
X11042856Y-11425499D01*
X11125638Y-11403318D01*
X11199862Y-11360465D01*
X11260465Y-11299862D01*
X11303318Y-11225638D01*
X11325499Y-11142856D01*
X11325500Y-11142856D01*
X11325500Y-11057144D01*
X11325499Y-11057143D01*
X11303318Y-10974363D01*
X11303317Y-10974359D01*
X11260464Y-10900137D01*
X11199862Y-10839535D01*
X11125640Y-10796682D01*
X11125636Y-10796681D01*
X11042856Y-10774500D01*
X11042853Y-10774500D01*
X10957147Y-10774500D01*
X10957144Y-10774500D01*
X10874363Y-10796681D01*
X10874359Y-10796682D01*
X10800137Y-10839535D01*
X10800137Y-10839536D01*
X10739536Y-10900137D01*
X10739535Y-10900137D01*
X10696682Y-10974359D01*
X10696681Y-10974363D01*
X10674500Y-11057143D01*
X10525499Y-11057143D01*
X10503318Y-10974363D01*
X10503317Y-10974359D01*
X10460464Y-10900137D01*
X10399862Y-10839535D01*
X10325640Y-10796682D01*
X10325636Y-10796681D01*
X10242856Y-10774500D01*
X10242853Y-10774500D01*
X10157147Y-10774500D01*
X10157144Y-10774500D01*
X10074363Y-10796681D01*
X10074359Y-10796682D01*
X10000137Y-10839535D01*
X10000137Y-10839536D01*
X9939536Y-10900137D01*
X9939535Y-10900137D01*
X9896682Y-10974359D01*
X9896681Y-10974363D01*
X9874500Y-11057143D01*
X9725499Y-11057143D01*
X9703318Y-10974363D01*
X9703317Y-10974359D01*
X9660464Y-10900137D01*
X9599862Y-10839535D01*
X9525640Y-10796682D01*
X9525636Y-10796681D01*
X9442856Y-10774500D01*
X9442853Y-10774500D01*
X9357147Y-10774500D01*
X9357144Y-10774500D01*
X9274363Y-10796681D01*
X9274359Y-10796682D01*
X9200137Y-10839535D01*
X9200137Y-10839536D01*
X9139536Y-10900137D01*
X9139535Y-10900137D01*
X9096682Y-10974359D01*
X9096681Y-10974363D01*
X9074500Y-11057143D01*
X8925499Y-11057143D01*
X8903318Y-10974363D01*
X8903317Y-10974359D01*
X8860464Y-10900137D01*
X8799862Y-10839535D01*
X8725640Y-10796682D01*
X8725636Y-10796681D01*
X8642856Y-10774500D01*
X8642853Y-10774500D01*
X8557147Y-10774500D01*
X8557144Y-10774500D01*
X8474363Y-10796681D01*
X8474359Y-10796682D01*
X8400137Y-10839535D01*
X8400137Y-10839536D01*
X8339536Y-10900137D01*
X8339535Y-10900137D01*
X8296682Y-10974359D01*
X8296681Y-10974363D01*
X8274500Y-11057143D01*
X8125499Y-11057143D01*
X8103318Y-10974363D01*
X8103317Y-10974359D01*
X8060464Y-10900137D01*
X7999862Y-10839535D01*
X7925640Y-10796682D01*
X7925636Y-10796681D01*
X7842856Y-10774500D01*
X7842853Y-10774500D01*
X7757147Y-10774500D01*
X7757144Y-10774500D01*
X7674363Y-10796681D01*
X7674359Y-10796682D01*
X7600137Y-10839535D01*
X7600137Y-10839536D01*
X7539536Y-10900137D01*
X7539535Y-10900137D01*
X7496682Y-10974359D01*
X7496681Y-10974363D01*
X7474500Y-11057143D01*
X300500Y-11057143D01*
X300500Y-10407143D01*
X7074500Y-10407143D01*
X7074500Y-10492856D01*
X7096681Y-10575636D01*
X7096682Y-10575640D01*
X7139535Y-10649862D01*
X7200138Y-10710465D01*
X7226178Y-10725499D01*
X7274359Y-10753317D01*
X7274361Y-10753317D01*
X7274362Y-10753318D01*
X7339651Y-10770812D01*
X7357143Y-10775499D01*
X7357144Y-10775500D01*
X7357147Y-10775500D01*
X7442856Y-10775500D01*
X7442856Y-10775499D01*
X7525638Y-10753318D01*
X7599862Y-10710465D01*
X7660465Y-10649862D01*
X7703318Y-10575638D01*
X7725499Y-10492856D01*
X7725500Y-10492856D01*
X7725500Y-10407144D01*
X7725499Y-10407143D01*
X7874500Y-10407143D01*
X7874500Y-10492856D01*
X7896681Y-10575636D01*
X7896682Y-10575640D01*
X7939535Y-10649862D01*
X8000138Y-10710465D01*
X8026178Y-10725499D01*
X8074359Y-10753317D01*
X8074361Y-10753317D01*
X8074362Y-10753318D01*
X8139651Y-10770812D01*
X8157143Y-10775499D01*
X8157144Y-10775500D01*
X8157147Y-10775500D01*
X8242856Y-10775500D01*
X8242856Y-10775499D01*
X8325638Y-10753318D01*
X8399862Y-10710465D01*
X8460465Y-10649862D01*
X8503318Y-10575638D01*
X8525499Y-10492856D01*
X8525500Y-10492856D01*
X8525500Y-10407144D01*
X8525499Y-10407143D01*
X8674500Y-10407143D01*
X8674500Y-10492856D01*
X8696681Y-10575636D01*
X8696682Y-10575640D01*
X8739535Y-10649862D01*
X8800138Y-10710465D01*
X8826178Y-10725499D01*
X8874359Y-10753317D01*
X8874361Y-10753317D01*
X8874362Y-10753318D01*
X8939651Y-10770812D01*
X8957143Y-10775499D01*
X8957144Y-10775500D01*
X8957147Y-10775500D01*
X9042856Y-10775500D01*
X9042856Y-10775499D01*
X9125638Y-10753318D01*
X9199862Y-10710465D01*
X9260465Y-10649862D01*
X9303318Y-10575638D01*
X9325499Y-10492856D01*
X9325500Y-10492856D01*
X9325500Y-10407144D01*
X9325499Y-10407143D01*
X9474500Y-10407143D01*
X9474500Y-10492856D01*
X9496681Y-10575636D01*
X9496682Y-10575640D01*
X9539535Y-10649862D01*
X9600138Y-10710465D01*
X9626178Y-10725499D01*
X9674359Y-10753317D01*
X9674361Y-10753317D01*
X9674362Y-10753318D01*
X9739651Y-10770812D01*
X9757143Y-10775499D01*
X9757144Y-10775500D01*
X9757147Y-10775500D01*
X9842856Y-10775500D01*
X9842856Y-10775499D01*
X9925638Y-10753318D01*
X9999862Y-10710465D01*
X10060465Y-10649862D01*
X10103318Y-10575638D01*
X10125499Y-10492856D01*
X10125500Y-10492856D01*
X10125500Y-10407144D01*
X10125499Y-10407143D01*
X10274500Y-10407143D01*
X10274500Y-10492856D01*
X10296681Y-10575636D01*
X10296682Y-10575640D01*
X10339535Y-10649862D01*
X10400138Y-10710465D01*
X10426178Y-10725499D01*
X10474359Y-10753317D01*
X10474361Y-10753317D01*
X10474362Y-10753318D01*
X10539651Y-10770812D01*
X10557143Y-10775499D01*
X10557144Y-10775500D01*
X10557147Y-10775500D01*
X10642856Y-10775500D01*
X10642856Y-10775499D01*
X10725638Y-10753318D01*
X10799862Y-10710465D01*
X10853184Y-10657143D01*
X13474500Y-10657143D01*
X13474500Y-10742856D01*
X13496681Y-10825636D01*
X13496682Y-10825640D01*
X13539535Y-10899862D01*
X13600138Y-10960465D01*
X13624210Y-10974363D01*
X13674359Y-11003317D01*
X13674361Y-11003317D01*
X13674362Y-11003318D01*
X13739651Y-11020812D01*
X13757143Y-11025499D01*
X13757144Y-11025500D01*
X13757147Y-11025500D01*
X13842856Y-11025500D01*
X13842856Y-11025499D01*
X13925638Y-11003318D01*
X13999862Y-10960465D01*
X14060465Y-10899862D01*
X14103318Y-10825638D01*
X14125499Y-10742856D01*
X14125500Y-10742856D01*
X14125500Y-10657144D01*
X14125499Y-10657143D01*
X14110151Y-10599863D01*
X14103318Y-10574362D01*
X14103317Y-10574361D01*
X14103317Y-10574359D01*
X14076149Y-10527304D01*
X14060465Y-10500138D01*
X13999862Y-10439535D01*
X13925640Y-10396682D01*
X13925636Y-10396681D01*
X13842856Y-10374500D01*
X13842853Y-10374500D01*
X13757147Y-10374500D01*
X13757144Y-10374500D01*
X13674363Y-10396681D01*
X13674359Y-10396682D01*
X13600137Y-10439535D01*
X13600137Y-10439536D01*
X13539536Y-10500137D01*
X13539535Y-10500137D01*
X13496682Y-10574359D01*
X13496681Y-10574363D01*
X13474500Y-10657143D01*
X10853184Y-10657143D01*
X10860465Y-10649862D01*
X10903318Y-10575638D01*
X10925499Y-10492856D01*
X10925500Y-10492856D01*
X10925500Y-10407144D01*
X10925499Y-10407143D01*
X10912102Y-10357144D01*
X10903318Y-10324362D01*
X10903317Y-10324361D01*
X10903317Y-10324359D01*
X10876802Y-10278435D01*
X10874451Y-10274363D01*
X10864509Y-10257143D01*
X14874500Y-10257143D01*
X14874500Y-10342856D01*
X14896681Y-10425636D01*
X14896682Y-10425640D01*
X14935488Y-10492853D01*
X14939535Y-10499862D01*
X15000138Y-10560465D01*
X15024210Y-10574363D01*
X15074359Y-10603317D01*
X15074361Y-10603317D01*
X15074362Y-10603318D01*
X15139651Y-10620812D01*
X15157143Y-10625499D01*
X15157144Y-10625500D01*
X15157147Y-10625500D01*
X15242856Y-10625500D01*
X15242856Y-10625499D01*
X15325638Y-10603318D01*
X15399862Y-10560465D01*
X15460465Y-10499862D01*
X15503318Y-10425638D01*
X15521671Y-10357143D01*
X16574500Y-10357143D01*
X16574500Y-10442856D01*
X16596681Y-10525636D01*
X16596682Y-10525640D01*
X16639535Y-10599862D01*
X16700138Y-10660465D01*
X16727304Y-10676149D01*
X16774359Y-10703317D01*
X16774361Y-10703317D01*
X16774362Y-10703318D01*
X16839651Y-10720812D01*
X16857143Y-10725499D01*
X16857144Y-10725500D01*
X16857147Y-10725500D01*
X16942856Y-10725500D01*
X16942856Y-10725499D01*
X17025638Y-10703318D01*
X17099862Y-10660465D01*
X17160465Y-10599862D01*
X17203318Y-10525638D01*
X17225499Y-10442856D01*
X17225500Y-10442856D01*
X17225500Y-10357144D01*
X17225499Y-10357143D01*
X17216715Y-10324362D01*
X17203318Y-10274362D01*
X17203317Y-10274361D01*
X17203317Y-10274359D01*
X17160464Y-10200137D01*
X17099862Y-10139535D01*
X17025640Y-10096682D01*
X17025636Y-10096681D01*
X16942856Y-10074500D01*
X16942853Y-10074500D01*
X16857147Y-10074500D01*
X16857144Y-10074500D01*
X16774363Y-10096681D01*
X16774359Y-10096682D01*
X16700137Y-10139535D01*
X16700137Y-10139536D01*
X16639536Y-10200137D01*
X16639535Y-10200137D01*
X16596682Y-10274359D01*
X16596681Y-10274363D01*
X16574500Y-10357143D01*
X15521671Y-10357143D01*
X15525499Y-10342857D01*
X15525500Y-10342856D01*
X15525500Y-10257144D01*
X15525499Y-10257143D01*
X15520812Y-10239651D01*
X15503318Y-10174362D01*
X15503317Y-10174361D01*
X15503317Y-10174359D01*
X15460464Y-10100137D01*
X15399862Y-10039535D01*
X15325640Y-9996682D01*
X15325636Y-9996681D01*
X15242856Y-9974500D01*
X15242853Y-9974500D01*
X15157147Y-9974500D01*
X15157144Y-9974500D01*
X15074363Y-9996681D01*
X15074359Y-9996682D01*
X15000137Y-10039535D01*
X15000137Y-10039536D01*
X14939536Y-10100137D01*
X14939535Y-10100137D01*
X14896682Y-10174359D01*
X14896681Y-10174363D01*
X14874500Y-10257143D01*
X10864509Y-10257143D01*
X10860465Y-10250138D01*
X10799862Y-10189535D01*
X10725640Y-10146682D01*
X10725636Y-10146681D01*
X10642856Y-10124500D01*
X10642853Y-10124500D01*
X10557147Y-10124500D01*
X10557144Y-10124500D01*
X10474363Y-10146681D01*
X10474359Y-10146682D01*
X10400137Y-10189535D01*
X10400137Y-10189536D01*
X10339536Y-10250137D01*
X10339535Y-10250137D01*
X10296682Y-10324359D01*
X10296681Y-10324363D01*
X10274500Y-10407143D01*
X10125499Y-10407143D01*
X10112102Y-10357144D01*
X10103318Y-10324362D01*
X10103317Y-10324361D01*
X10103317Y-10324359D01*
X10074449Y-10274359D01*
X10060465Y-10250138D01*
X9999862Y-10189535D01*
X9925640Y-10146682D01*
X9925636Y-10146681D01*
X9842856Y-10124500D01*
X9842853Y-10124500D01*
X9757147Y-10124500D01*
X9757144Y-10124500D01*
X9674363Y-10146681D01*
X9674359Y-10146682D01*
X9600137Y-10189535D01*
X9600137Y-10189536D01*
X9539536Y-10250137D01*
X9539535Y-10250137D01*
X9496682Y-10324359D01*
X9496681Y-10324363D01*
X9474500Y-10407143D01*
X9325499Y-10407143D01*
X9312102Y-10357144D01*
X9303318Y-10324362D01*
X9303317Y-10324361D01*
X9303317Y-10324359D01*
X9274449Y-10274359D01*
X9260465Y-10250138D01*
X9199862Y-10189535D01*
X9125640Y-10146682D01*
X9125636Y-10146681D01*
X9042856Y-10124500D01*
X9042853Y-10124500D01*
X8957147Y-10124500D01*
X8957144Y-10124500D01*
X8874363Y-10146681D01*
X8874359Y-10146682D01*
X8800137Y-10189535D01*
X8800137Y-10189536D01*
X8739536Y-10250137D01*
X8739535Y-10250137D01*
X8696682Y-10324359D01*
X8696681Y-10324363D01*
X8674500Y-10407143D01*
X8525499Y-10407143D01*
X8512102Y-10357144D01*
X8503318Y-10324362D01*
X8503317Y-10324361D01*
X8503317Y-10324359D01*
X8474449Y-10274359D01*
X8460465Y-10250138D01*
X8399862Y-10189535D01*
X8325640Y-10146682D01*
X8325636Y-10146681D01*
X8242856Y-10124500D01*
X8242853Y-10124500D01*
X8157147Y-10124500D01*
X8157144Y-10124500D01*
X8074363Y-10146681D01*
X8074359Y-10146682D01*
X8000137Y-10189535D01*
X8000137Y-10189536D01*
X7939536Y-10250137D01*
X7939535Y-10250137D01*
X7896682Y-10324359D01*
X7896681Y-10324363D01*
X7874500Y-10407143D01*
X7725499Y-10407143D01*
X7712102Y-10357144D01*
X7703318Y-10324362D01*
X7703317Y-10324361D01*
X7703317Y-10324359D01*
X7674449Y-10274359D01*
X7660465Y-10250138D01*
X7599862Y-10189535D01*
X7525640Y-10146682D01*
X7525636Y-10146681D01*
X7442856Y-10124500D01*
X7442853Y-10124500D01*
X7357147Y-10124500D01*
X7357144Y-10124500D01*
X7274363Y-10146681D01*
X7274359Y-10146682D01*
X7200137Y-10189535D01*
X7200137Y-10189536D01*
X7139536Y-10250137D01*
X7139535Y-10250137D01*
X7096682Y-10324359D01*
X7096681Y-10324363D01*
X7074500Y-10407143D01*
X300500Y-10407143D01*
X300500Y-9457143D01*
X3774500Y-9457143D01*
X3774500Y-9542856D01*
X3796681Y-9625636D01*
X3796682Y-9625640D01*
X3839535Y-9699862D01*
X3900138Y-9760465D01*
X3927304Y-9776149D01*
X3974359Y-9803317D01*
X3974361Y-9803317D01*
X3974362Y-9803318D01*
X4039651Y-9820812D01*
X4057143Y-9825499D01*
X4057144Y-9825500D01*
X4057147Y-9825500D01*
X4142856Y-9825500D01*
X4142856Y-9825499D01*
X4225638Y-9803318D01*
X4299862Y-9760465D01*
X4360465Y-9699862D01*
X4403318Y-9625638D01*
X4425499Y-9542856D01*
X4425500Y-9542856D01*
X4425500Y-9457144D01*
X4425499Y-9457143D01*
X4403318Y-9374363D01*
X4403317Y-9374359D01*
X4360464Y-9300137D01*
X4299862Y-9239535D01*
X4225640Y-9196682D01*
X4225636Y-9196681D01*
X4142856Y-9174500D01*
X4142853Y-9174500D01*
X4057147Y-9174500D01*
X4057144Y-9174500D01*
X3974363Y-9196681D01*
X3974359Y-9196682D01*
X3900137Y-9239535D01*
X3900137Y-9239536D01*
X3839536Y-9300137D01*
X3839535Y-9300137D01*
X3796682Y-9374359D01*
X3796681Y-9374363D01*
X3774500Y-9457143D01*
X300500Y-9457143D01*
X300500Y-5515000D01*
X11250000Y-5515000D01*
X13150000Y-5515000D01*
X13150000Y-3425000D01*
X11250000Y-3425000D01*
X11250000Y-5515000D01*
X300500Y-5515000D01*
X300500Y-1799500D01*
X314852Y-1764852D01*
X349500Y-1750500D01*
X19650500Y-1750500D01*
X19685148Y-1764852D01*
G37*
%TD.AperFunction*%
%TD*%
M02*
