%TF.GenerationSoftware,KiCad,Pcbnew,10.0.6-10.0.6~ubuntu24.04.1*%
%TF.CreationDate,2026-09-26T10:06:51-07:00*%
%TF.ProjectId,module,6d6f6475-6c65-42e6-9b69-6361645f7063,rev?*%
%TF.SameCoordinates,Original*%
%TF.FileFunction,Paste,Top*%
%TF.FilePolarity,Positive*%
%FSLAX46Y46*%
G04 Gerber Fmt 4.6, Leading zero omitted, Abs format (unit mm)*
G04 Created by KiCad (PCBNEW 10.0.6-10.0.6~ubuntu24.04.1) date 2026-09-26 10:06:51*
%MOMM*%
%LPD*%
G01*
G04 APERTURE LIST*
G04 Aperture macros list*
%AMRoundRect*
0 Rectangle with rounded corners*
0 $1 Rounding radius*
0 $2 $3 $4 $5 $6 $7 $8 $9 X,Y pos of 4 corners*
0 Add a 4 corners polygon primitive as box body*
4,1,4,$2,$3,$4,$5,$6,$7,$8,$9,$2,$3,0*
0 Add four circle primitives for the rounded corners*
1,1,$1+$1,$2,$3*
1,1,$1+$1,$4,$5*
1,1,$1+$1,$6,$7*
1,1,$1+$1,$8,$9*
0 Add four rect primitives between the rounded corners*
20,1,$1+$1,$2,$3,$4,$5,0*
20,1,$1+$1,$4,$5,$6,$7,0*
20,1,$1+$1,$6,$7,$8,$9,0*
20,1,$1+$1,$8,$9,$2,$3,0*%
G04 Aperture macros list end*
%ADD10C,0.000000*%
%ADD11RoundRect,0.218750X-0.218750X-0.256250X0.218750X-0.256250X0.218750X0.256250X-0.218750X0.256250X0*%
%ADD12R,0.560000X0.629100*%
%ADD13RoundRect,0.150000X-0.512500X-0.150000X0.512500X-0.150000X0.512500X0.150000X-0.512500X0.150000X0*%
%ADD14RoundRect,0.225000X-0.225000X-0.250000X0.225000X-0.250000X0.225000X0.250000X-0.225000X0.250000X0*%
%ADD15R,0.535100X0.644000*%
%ADD16R,0.644000X0.535100*%
%ADD17RoundRect,0.225000X0.225000X0.250000X-0.225000X0.250000X-0.225000X-0.250000X0.225000X-0.250000X0*%
%ADD18RoundRect,0.225000X-0.250000X0.225000X-0.250000X-0.225000X0.250000X-0.225000X0.250000X0.225000X0*%
%ADD19RoundRect,0.135000X0.185000X-0.135000X0.185000X0.135000X-0.185000X0.135000X-0.185000X-0.135000X0*%
%ADD20RoundRect,0.225000X0.250000X-0.225000X0.250000X0.225000X-0.250000X0.225000X-0.250000X-0.225000X0*%
%ADD21RoundRect,0.250000X0.250000X-0.275000X0.250000X0.275000X-0.250000X0.275000X-0.250000X-0.275000X0*%
%ADD22RoundRect,0.250000X0.275000X-0.850000X0.275000X0.850000X-0.275000X0.850000X-0.275000X-0.850000X0*%
%ADD23RoundRect,0.135000X-0.135000X-0.185000X0.135000X-0.185000X0.135000X0.185000X-0.135000X0.185000X0*%
%ADD24R,0.450000X1.450000*%
%ADD25R,0.629100X0.560000*%
%ADD26R,0.203200X0.863600*%
%ADD27R,0.863600X0.203200*%
%ADD28RoundRect,0.101600X0.330200X-0.025400X0.330200X0.025400X-0.330200X0.025400X-0.330200X-0.025400X0*%
%ADD29RoundRect,0.101600X-0.025400X-0.330200X0.025400X-0.330200X0.025400X0.330200X-0.025400X0.330200X0*%
%ADD30R,0.900000X1.000000*%
%ADD31R,1.000000X2.900000*%
%ADD32RoundRect,0.135000X0.135000X0.185000X-0.135000X0.185000X-0.135000X-0.185000X0.135000X-0.185000X0*%
%ADD33R,0.300000X0.300000*%
%ADD34R,0.729100X0.560000*%
G04 APERTURE END LIST*
D10*
%TO.C,U1*%
G36*
X9239600Y-14739600D02*
G01*
X8068000Y-14739600D01*
X8068000Y-13568000D01*
X9239600Y-13568000D01*
X9239600Y-14739600D01*
G37*
G36*
X9239600Y-16085800D02*
G01*
X8068000Y-16085800D01*
X8068000Y-14914200D01*
X9239600Y-14914200D01*
X9239600Y-16085800D01*
G37*
G36*
X9239600Y-17432000D02*
G01*
X8068000Y-17432000D01*
X8068000Y-16260400D01*
X9239600Y-16260400D01*
X9239600Y-17432000D01*
G37*
G36*
X10585800Y-14739600D02*
G01*
X9414200Y-14739600D01*
X9414200Y-13568000D01*
X10585800Y-13568000D01*
X10585800Y-14739600D01*
G37*
G36*
X10585800Y-16085800D02*
G01*
X9414200Y-16085800D01*
X9414200Y-14914200D01*
X10585800Y-14914200D01*
X10585800Y-16085800D01*
G37*
G36*
X10585800Y-17432000D02*
G01*
X9414200Y-17432000D01*
X9414200Y-16260400D01*
X10585800Y-16260400D01*
X10585800Y-17432000D01*
G37*
G36*
X11932000Y-14739600D02*
G01*
X10760400Y-14739600D01*
X10760400Y-13568000D01*
X11932000Y-13568000D01*
X11932000Y-14739600D01*
G37*
G36*
X11932000Y-16085800D02*
G01*
X10760400Y-16085800D01*
X10760400Y-14914200D01*
X11932000Y-14914200D01*
X11932000Y-16085800D01*
G37*
G36*
X11932000Y-17432000D02*
G01*
X10760400Y-17432000D01*
X10760400Y-16260400D01*
X11932000Y-16260400D01*
X11932000Y-17432000D01*
G37*
%TO.C,U2*%
G36*
X9277700Y-38142700D02*
G01*
X8182300Y-38142700D01*
X8182300Y-37047300D01*
X9277700Y-37047300D01*
X9277700Y-38142700D01*
G37*
G36*
X9277700Y-39412700D02*
G01*
X8182300Y-39412700D01*
X8182300Y-38317300D01*
X9277700Y-38317300D01*
X9277700Y-39412700D01*
G37*
G36*
X9277700Y-40682700D02*
G01*
X8182300Y-40682700D01*
X8182300Y-39587300D01*
X9277700Y-39587300D01*
X9277700Y-40682700D01*
G37*
G36*
X9277700Y-41952700D02*
G01*
X8182300Y-41952700D01*
X8182300Y-40857300D01*
X9277700Y-40857300D01*
X9277700Y-41952700D01*
G37*
G36*
X10547700Y-38142700D02*
G01*
X9452300Y-38142700D01*
X9452300Y-37047300D01*
X10547700Y-37047300D01*
X10547700Y-38142700D01*
G37*
G36*
X10547700Y-39412700D02*
G01*
X9452300Y-39412700D01*
X9452300Y-38317300D01*
X10547700Y-38317300D01*
X10547700Y-39412700D01*
G37*
G36*
X10547700Y-40682700D02*
G01*
X9452300Y-40682700D01*
X9452300Y-39587300D01*
X10547700Y-39587300D01*
X10547700Y-40682700D01*
G37*
G36*
X10547700Y-41952700D02*
G01*
X9452300Y-41952700D01*
X9452300Y-40857300D01*
X10547700Y-40857300D01*
X10547700Y-41952700D01*
G37*
G36*
X11817700Y-38142700D02*
G01*
X10722300Y-38142700D01*
X10722300Y-37047300D01*
X11817700Y-37047300D01*
X11817700Y-38142700D01*
G37*
G36*
X11817700Y-39412700D02*
G01*
X10722300Y-39412700D01*
X10722300Y-38317300D01*
X11817700Y-38317300D01*
X11817700Y-39412700D01*
G37*
G36*
X11817700Y-40682700D02*
G01*
X10722300Y-40682700D01*
X10722300Y-39587300D01*
X11817700Y-39587300D01*
X11817700Y-40682700D01*
G37*
G36*
X11817700Y-41952700D02*
G01*
X10722300Y-41952700D01*
X10722300Y-40857300D01*
X11817700Y-40857300D01*
X11817700Y-41952700D01*
G37*
%TD*%
D11*
%TO.C,L1*%
X6712500Y-9500000D03*
X8287500Y-9500000D03*
%TD*%
D12*
%TO.C,C38*%
X4584600Y-14900000D03*
X3615400Y-14900000D03*
%TD*%
%TO.C,C2*%
X12200000Y-8100000D03*
X13169200Y-8100000D03*
%TD*%
D13*
%TO.C,U4*%
X1862500Y-22575000D03*
X1862500Y-23525000D03*
X1862500Y-24475000D03*
X4137500Y-24475000D03*
X4137500Y-22575000D03*
%TD*%
D14*
%TO.C,C67*%
X15225000Y-32500000D03*
X16775000Y-32500000D03*
%TD*%
D12*
%TO.C,C7*%
X18784600Y-17800000D03*
X17815400Y-17800000D03*
%TD*%
%TO.C,C6*%
X17815400Y-13200000D03*
X18784600Y-13200000D03*
%TD*%
D15*
%TO.C,R29*%
X16492500Y-39000000D03*
X17507500Y-39000000D03*
%TD*%
D12*
%TO.C,C32*%
X17715400Y-11200000D03*
X18684600Y-11200000D03*
%TD*%
%TO.C,C50*%
X16515400Y-40250000D03*
X17484600Y-40250000D03*
%TD*%
D16*
%TO.C,R20*%
X6150000Y-21157500D03*
X6150000Y-20142500D03*
%TD*%
D17*
%TO.C,C66*%
X4075000Y-42650000D03*
X2525000Y-42650000D03*
%TD*%
D12*
%TO.C,C1*%
X12200000Y-10900000D03*
X13169200Y-10900000D03*
%TD*%
%TO.C,C40*%
X4734600Y-17600000D03*
X3765400Y-17600000D03*
%TD*%
D18*
%TO.C,C60*%
X18600000Y-19225000D03*
X18600000Y-20775000D03*
%TD*%
D19*
%TO.C,R62*%
X18500000Y-24310000D03*
X18500000Y-23290000D03*
%TD*%
D12*
%TO.C,C52*%
X16515400Y-42250000D03*
X17484600Y-42250000D03*
%TD*%
%TO.C,C46*%
X3784600Y-41250000D03*
X2815400Y-41250000D03*
%TD*%
D14*
%TO.C,C61*%
X15225000Y-29800000D03*
X16775000Y-29800000D03*
%TD*%
D12*
%TO.C,C37*%
X14015400Y-11400000D03*
X14984600Y-11400000D03*
%TD*%
D17*
%TO.C,C43*%
X4075000Y-37550000D03*
X2525000Y-37550000D03*
%TD*%
D15*
%TO.C,R3*%
X16192500Y-13200000D03*
X17207500Y-13200000D03*
%TD*%
D20*
%TO.C,C33*%
X5200000Y-9500000D03*
X5200000Y-7950000D03*
%TD*%
D21*
%TO.C,J3*%
X12200000Y-6050000D03*
D22*
X10725000Y-4525000D03*
X13675000Y-4525000D03*
%TD*%
D14*
%TO.C,C62*%
X1725000Y-20500000D03*
X3275000Y-20500000D03*
%TD*%
D23*
%TO.C,R65*%
X12440000Y-22000000D03*
X13460000Y-22000000D03*
%TD*%
D24*
%TO.C,U3*%
X16975000Y-20600000D03*
X16325000Y-20600000D03*
X15675000Y-20600000D03*
X15025000Y-20600000D03*
X15025000Y-25000000D03*
X15675000Y-25000000D03*
X16325000Y-25000000D03*
X16975000Y-25000000D03*
%TD*%
D12*
%TO.C,C48*%
X7784600Y-33650000D03*
X6815400Y-33650000D03*
%TD*%
%TO.C,C44*%
X3784600Y-38750000D03*
X2815400Y-38750000D03*
%TD*%
D25*
%TO.C,C42*%
X15150000Y-13384600D03*
X15150000Y-12415400D03*
%TD*%
D26*
%TO.C,U1*%
X12600000Y-11994800D03*
X12200000Y-11994800D03*
X11800000Y-11994800D03*
X11400000Y-11994800D03*
X11000000Y-11994800D03*
X10600000Y-11994800D03*
X10200000Y-11994800D03*
X9800000Y-11994800D03*
X9400000Y-11994800D03*
X9000000Y-11994800D03*
X8600000Y-11994800D03*
X8200000Y-11994800D03*
X7800000Y-11994800D03*
X7400000Y-11994800D03*
D27*
X6494800Y-12900000D03*
X6494800Y-13300000D03*
X6494800Y-13700000D03*
X6494800Y-14100000D03*
X6494800Y-14500000D03*
X6494800Y-14900000D03*
X6494800Y-15300000D03*
X6494800Y-15700000D03*
X6494800Y-16100000D03*
X6494800Y-16500000D03*
X6494800Y-16900000D03*
X6494800Y-17300000D03*
X6494800Y-17700000D03*
X6494800Y-18100000D03*
D26*
X7400000Y-19005200D03*
X7800000Y-19005200D03*
X8200000Y-19005200D03*
X8600000Y-19005200D03*
X9000000Y-19005200D03*
X9400000Y-19005200D03*
X9800000Y-19005200D03*
X10200000Y-19005200D03*
X10600000Y-19005200D03*
X11000000Y-19005200D03*
X11400000Y-19005200D03*
X11800000Y-19005200D03*
X12200000Y-19005200D03*
X12600000Y-19005200D03*
D27*
X13505200Y-18100000D03*
X13505200Y-17700000D03*
X13505200Y-17300000D03*
X13505200Y-16900000D03*
X13505200Y-16500000D03*
X13505200Y-16100000D03*
X13505200Y-15700000D03*
X13505200Y-15300000D03*
X13505200Y-14900000D03*
X13505200Y-14500000D03*
X13505200Y-14100000D03*
X13505200Y-13700000D03*
X13505200Y-13300000D03*
X13505200Y-12900000D03*
%TD*%
D28*
%TO.C,U2*%
X13479800Y-42250000D03*
X13479800Y-41750000D03*
X13479800Y-41250000D03*
X13479800Y-40750000D03*
X13479800Y-40250000D03*
X13479800Y-39750000D03*
X13479800Y-39250000D03*
X13479800Y-38750000D03*
X13479800Y-38250000D03*
X13479800Y-37750000D03*
X13479800Y-37250000D03*
X13479800Y-36750000D03*
D29*
X12750000Y-36020200D03*
X12250000Y-36020200D03*
X11750000Y-36020200D03*
X11250000Y-36020200D03*
X10750000Y-36020200D03*
X10250000Y-36020200D03*
X9750000Y-36020200D03*
X9250000Y-36020200D03*
X8750000Y-36020200D03*
X8250000Y-36020200D03*
X7750000Y-36020200D03*
X7250000Y-36020200D03*
D28*
X6520200Y-36750000D03*
X6520200Y-37250000D03*
X6520200Y-37750000D03*
X6520200Y-38250000D03*
X6520200Y-38750000D03*
X6520200Y-39250000D03*
X6520200Y-39750000D03*
X6520200Y-40250000D03*
X6520200Y-40750000D03*
X6520200Y-41250000D03*
X6520200Y-41750000D03*
X6520200Y-42250000D03*
D29*
X7250000Y-42979800D03*
X7750000Y-42979800D03*
X8250000Y-42979800D03*
X8750000Y-42979800D03*
X9250000Y-42979800D03*
X9750000Y-42979800D03*
X10250000Y-42979800D03*
X10750000Y-42979800D03*
X11250000Y-42979800D03*
X11750000Y-42979800D03*
X12250000Y-42979800D03*
X12750000Y-42979800D03*
%TD*%
D15*
%TO.C,R28*%
X17507500Y-38000000D03*
X16492500Y-38000000D03*
%TD*%
D12*
%TO.C,C49*%
X3784600Y-39950000D03*
X2815400Y-39950000D03*
%TD*%
D30*
%TO.C,Y1*%
X18575000Y-14575000D03*
X17025000Y-16425000D03*
X17025000Y-14575000D03*
X18575000Y-16425000D03*
%TD*%
D14*
%TO.C,C45*%
X2525000Y-34200000D03*
X4075000Y-34200000D03*
%TD*%
%TO.C,C63*%
X1175000Y-26300000D03*
X2725000Y-26300000D03*
%TD*%
D31*
%TO.C,L4*%
X17015000Y-27500000D03*
X14985000Y-27500000D03*
%TD*%
D20*
%TO.C,C34*%
X9800000Y-9500000D03*
X9800000Y-7950000D03*
%TD*%
D11*
%TO.C,L2*%
X2512500Y-36000000D03*
X4087500Y-36000000D03*
%TD*%
D15*
%TO.C,R22*%
X17007500Y-11200000D03*
X15992500Y-11200000D03*
%TD*%
D12*
%TO.C,C39*%
X16215400Y-17800000D03*
X17184600Y-17800000D03*
%TD*%
D32*
%TO.C,R64*%
X13460000Y-23400000D03*
X12440000Y-23400000D03*
%TD*%
D33*
%TO.C,D1*%
X18130000Y-43670000D03*
X18130000Y-44330000D03*
X17470000Y-44330000D03*
X17470000Y-43670000D03*
%TD*%
D25*
%TO.C,C35*%
X11350000Y-10284600D03*
X11350000Y-9315400D03*
%TD*%
%TO.C,C41*%
X7800000Y-20165400D03*
X7800000Y-21134600D03*
%TD*%
D34*
%TO.C,L3*%
X12200000Y-9984600D03*
X12200000Y-9015400D03*
%TD*%
M02*
