%TF.GenerationSoftware,KiCad,Pcbnew,10.0.6-10.0.6~ubuntu24.04.1*%
%TF.CreationDate,2026-09-26T10:06:51-07:00*%
%TF.ProjectId,module,6d6f6475-6c65-42e6-9b69-6361645f7063,rev?*%
%TF.SameCoordinates,Original*%
%TF.FileFunction,Paste,Bot*%
%TF.FilePolarity,Positive*%
%FSLAX46Y46*%
G04 Gerber Fmt 4.6, Leading zero omitted, Abs format (unit mm)*
G04 Created by KiCad (PCBNEW 10.0.6-10.0.6~ubuntu24.04.1) date 2026-09-26 10:06:51*
%MOMM*%
%LPD*%
G01*
G04 APERTURE LIST*
%ADD10R,0.350000X0.660000*%
%ADD11R,0.230000X0.660000*%
%ADD12R,0.200000X1.140000*%
G04 APERTURE END LIST*
D10*
%TO.C,J2*%
X14275000Y-42105000D03*
X14275000Y-39395000D03*
X5725000Y-42105000D03*
X5725000Y-39395000D03*
D11*
X13800000Y-39395000D03*
X13400000Y-39395000D03*
X13000000Y-39395000D03*
X12599999Y-39395000D03*
X12199999Y-39395000D03*
X11799999Y-39395000D03*
X11399999Y-39395000D03*
X10999999Y-39395000D03*
X10599999Y-39395000D03*
X10199999Y-39395000D03*
X9800000Y-39395000D03*
X9400000Y-39395000D03*
X9000000Y-39395000D03*
X8600000Y-39395000D03*
X8200000Y-39395000D03*
X7800000Y-39395000D03*
X7400000Y-39395000D03*
X7000000Y-39395000D03*
X6600000Y-39395000D03*
X6200000Y-39395000D03*
X6200000Y-42105000D03*
X6600000Y-42105000D03*
X7000000Y-42105000D03*
X7400000Y-42105000D03*
X7800000Y-42105000D03*
X8200000Y-42105000D03*
X8600000Y-42105000D03*
X9000000Y-42105000D03*
X9400000Y-42105000D03*
X9800000Y-42105000D03*
X10199999Y-42105000D03*
X10599999Y-42105000D03*
X10999999Y-42105000D03*
X11399999Y-42105000D03*
X11799999Y-42105000D03*
X12199999Y-42105000D03*
X12599999Y-42105000D03*
X13000000Y-42105000D03*
X13400000Y-42105000D03*
X13800000Y-42105000D03*
%TD*%
D12*
%TO.C,J1*%
X13800000Y-14430000D03*
X13400000Y-14430000D03*
X13000000Y-14430000D03*
X12599999Y-14430000D03*
X12199999Y-14430000D03*
X11799999Y-14430000D03*
X11399999Y-14430000D03*
X10999999Y-14430000D03*
X10599999Y-14430000D03*
X10199999Y-14430000D03*
X9800000Y-14430000D03*
X9400000Y-14430000D03*
X9000000Y-14430000D03*
X8600000Y-14430000D03*
X8200000Y-14430000D03*
X7800000Y-14430000D03*
X7400000Y-14430000D03*
X7000000Y-14430000D03*
X6600000Y-14430000D03*
X6200000Y-14430000D03*
X13800000Y-17070000D03*
X13400000Y-17070000D03*
X13000000Y-17070000D03*
X12599999Y-17070000D03*
X12199999Y-17070000D03*
X11799999Y-17070000D03*
X11399999Y-17070000D03*
X10999999Y-17070000D03*
X10599999Y-17070000D03*
X10199999Y-17070000D03*
X9800000Y-17070000D03*
X9400000Y-17070000D03*
X9000000Y-17070000D03*
X8600000Y-17070000D03*
X8200000Y-17070000D03*
X7800000Y-17070000D03*
X7400000Y-17070000D03*
X7000000Y-17070000D03*
X6600000Y-17070000D03*
X6200000Y-17070000D03*
%TD*%
M02*
