M48
; DRILL file KiCad 10.0.6-10.0.6~ubuntu24.04.1 date 2026-09-26T10:06:52
; FORMAT={-:-/ absolute / metric / decimal}
; #@! TF.CreationDate,2026-09-26T10:06:52-07:00
; #@! TF.GenerationSoftware,Kicad,Pcbnew,10.0.6-10.0.6~ubuntu24.04.1
; #@! TF.FileFunction,Plated,1,4,PTH
FMAT,2
METRIC
; #@! TA.AperFunction,Plated,PTH,ViaDrill
T1C0.200
%
G90
G05
T1
X1.0Y-9.1
X1.175Y-25.5
X1.725Y-37.55
X1.725Y-42.65
X1.775Y-21.5
X2.015Y-38.75
X2.015Y-39.95
X2.015Y-41.25
X2.775Y-35.05
X2.8Y-19.0
X3.7Y-33.3
X4.075Y-43.6
X4.1Y-9.5
X4.3Y-13.7
X4.385Y-39.95
X4.4Y-16.8
X4.45Y-18.8
X4.45Y-20.075
X4.5Y-16.2
X4.7Y-41.75
X4.8Y-15.7
X4.875Y-26.5
X4.9Y-12.9
X4.9Y-37.75
X5.0Y-36.75
X5.0Y-39.75
X5.0Y-41.25
X5.125Y-24.325
X5.175Y-14.925
X5.2Y-38.25
X5.2Y-42.15
X5.3Y-16.85
X5.487Y-36.111
X5.5Y-18.9
X5.6Y-13.3
X5.6Y-14.1
X5.6Y-15.3
X5.6Y-16.1
X5.65Y-17.3
X5.675Y-18.375
X5.675Y-24.275
X5.7Y-35.2
X5.7Y-37.25
X5.7Y-40.25
X5.8Y-43.0
X6.015Y-33.65
X6.725Y-23.1
X6.8Y-20.925
X7.15Y-22.5
X7.175Y-19.925
X7.25Y-44.4
X7.4Y-10.45
X7.75Y-34.5
X7.75Y-43.8
X7.8Y-11.1
X8.15Y-44.8
X8.2Y-10.45
X8.25Y-35.2
X8.425Y-19.775
X8.6Y-11.1
X8.65Y-33.65
X8.7Y-20.3
X8.75Y-34.5
X8.75Y-44.8
X8.8Y-22.0
X9.0Y-10.45
X9.0Y-19.8
X9.25Y-35.2
X9.25Y-44.4
X9.4Y-11.1
X9.5Y-4.525
X9.75Y-34.5
X9.75Y-43.8
X9.8Y-10.45
X9.8Y-20.4
X10.2Y-11.1
X10.25Y-34.2
X10.25Y-44.4
X10.5Y-32.2
X10.6Y-10.45
X10.6Y-19.8
X10.75Y-34.5
X10.75Y-44.0
X10.95Y-7.8
X11.0Y-11.1
X11.25Y-35.2
X11.25Y-44.4
X11.35Y-31.75
X11.4Y-20.3
X11.75Y-43.8
X11.8Y-19.9
X12.1Y-33.2
X12.2Y-20.55
X12.25Y-35.2
X12.25Y-44.4
X12.6Y-20.0
X12.75Y-34.5
X12.75Y-43.8
X13.0Y-7.2
X13.0Y-32.2
X13.169Y-9.2
X13.169Y-10.2
X13.2Y-19.4
X13.8Y-10.7
X13.95Y-24.2
X14.2Y-25.9
X14.2Y-32.825
X14.25Y-14.9
X14.3Y-13.2
X14.3Y-15.7
X14.3Y-16.5
X14.3Y-18.25
X14.3Y-21.05
X14.3Y-35.2
X14.3Y-36.75
X14.3Y-37.75
X14.35Y-30.7
X14.375Y-17.325
X14.4Y-12.5
X14.7Y-17.8
X14.7Y-40.75
X14.8Y-41.75
X14.9Y-4.525
X14.9Y-39.55
X15.0Y-37.25
X15.0Y-38.25
X15.1Y-16.1
X15.1Y-16.9
X15.1Y-18.2
X15.2Y-10.3
X15.3Y-40.75
X15.4Y-41.55
X15.5Y-15.3
X15.5Y-38.75
X15.9Y-12.4
X16.0Y-18.7
X16.515Y-41.1
X16.515Y-43.1
X16.75Y-43.85
X16.9Y-10.4
X16.95Y-44.7
X17.75Y-31.1
X18.285Y-40.25
X18.285Y-42.25
X18.8Y-21.8
X19.0Y-36.0
X19.0Y-39.0
X19.0Y-42.8
X19.0Y-44.8
X19.2Y-23.0
M30
