%TF.GenerationSoftware,KiCad,Pcbnew,10.0.6-10.0.6~ubuntu24.04.1*%
%TF.CreationDate,2026-09-26T10:06:51-07:00*%
%TF.ProjectId,module,6d6f6475-6c65-42e6-9b69-6361645f7063,rev?*%
%TF.SameCoordinates,Original*%
%TF.FileFunction,Legend,Bot*%
%TF.FilePolarity,Positive*%
%FSLAX46Y46*%
G04 Gerber Fmt 4.6, Leading zero omitted, Abs format (unit mm)*
G04 Created by KiCad (PCBNEW 10.0.6-10.0.6~ubuntu24.04.1) date 2026-09-26 10:06:51*
%MOMM*%
%LPD*%
G01*
G04 APERTURE LIST*
%ADD10C,0.225000*%
%ADD11C,0.150000*%
G04 APERTURE END LIST*
D10*
X13912500Y-13530000D02*
G75*
G02*
X13687500Y-13530000I-112500J0D01*
G01*
X13687500Y-13530000D02*
G75*
G02*
X13912500Y-13530000I112500J0D01*
G01*
X13912500Y-38395000D02*
G75*
G02*
X13687500Y-38395000I-112500J0D01*
G01*
X13687500Y-38395000D02*
G75*
G02*
X13912500Y-38395000I112500J0D01*
G01*
D11*
X10249999Y-37704819D02*
X10249999Y-38419104D01*
X10249999Y-38419104D02*
X10285714Y-38561961D01*
X10285714Y-38561961D02*
X10357142Y-38657200D01*
X10357142Y-38657200D02*
X10464285Y-38704819D01*
X10464285Y-38704819D02*
X10535714Y-38704819D01*
X9928570Y-37800057D02*
X9892856Y-37752438D01*
X9892856Y-37752438D02*
X9821428Y-37704819D01*
X9821428Y-37704819D02*
X9642856Y-37704819D01*
X9642856Y-37704819D02*
X9571428Y-37752438D01*
X9571428Y-37752438D02*
X9535713Y-37800057D01*
X9535713Y-37800057D02*
X9499999Y-37895295D01*
X9499999Y-37895295D02*
X9499999Y-37990533D01*
X9499999Y-37990533D02*
X9535713Y-38133390D01*
X9535713Y-38133390D02*
X9964285Y-38704819D01*
X9964285Y-38704819D02*
X9499999Y-38704819D01*
X10249999Y-12404819D02*
X10249999Y-13119104D01*
X10249999Y-13119104D02*
X10285714Y-13261961D01*
X10285714Y-13261961D02*
X10357142Y-13357200D01*
X10357142Y-13357200D02*
X10464285Y-13404819D01*
X10464285Y-13404819D02*
X10535714Y-13404819D01*
X9499999Y-13404819D02*
X9928570Y-13404819D01*
X9714285Y-13404819D02*
X9714285Y-12404819D01*
X9714285Y-12404819D02*
X9785713Y-12547676D01*
X9785713Y-12547676D02*
X9857142Y-12642914D01*
X9857142Y-12642914D02*
X9928570Y-12690533D01*
M02*
