%TF.GenerationSoftware,KiCad,Pcbnew,10.0.6-10.0.6~ubuntu24.04.1*%
%TF.CreationDate,2026-09-23T08:41:48-07:00*%
%TF.ProjectId,direction-led-tester,64697265-6374-4696-9f6e-2d6c65642d74,C*%
%TF.SameCoordinates,Original*%
%TF.FileFunction,Copper,L1,Top*%
%TF.FilePolarity,Positive*%
%FSLAX46Y46*%
G04 Gerber Fmt 4.6, Leading zero omitted, Abs format (unit mm)*
G04 Created by KiCad (PCBNEW 10.0.6-10.0.6~ubuntu24.04.1) date 2026-09-23 08:41:48*
%MOMM*%
%LPD*%
G01*
G04 APERTURE LIST*
G04 Aperture macros list*
%AMRoundRect*
0 Rectangle with rounded corners*
0 $1 Rounding radius*
0 $2 $3 $4 $5 $6 $7 $8 $9 X,Y pos of 4 corners*
0 Add a 4 corners polygon primitive as box body*
4,1,4,$2,$3,$4,$5,$6,$7,$8,$9,$2,$3,0*
0 Add four circle primitives for the rounded corners*
1,1,$1+$1,$2,$3*
1,1,$1+$1,$4,$5*
1,1,$1+$1,$6,$7*
1,1,$1+$1,$8,$9*
0 Add four rect primitives between the rounded corners*
20,1,$1+$1,$2,$3,$4,$5,0*
20,1,$1+$1,$4,$5,$6,$7,0*
20,1,$1+$1,$6,$7,$8,$9,0*
20,1,$1+$1,$8,$9,$2,$3,0*%
G04 Aperture macros list end*
%TA.AperFunction,SMDPad,CuDef*%
%ADD10RoundRect,0.250000X-0.375000X-0.625000X0.375000X-0.625000X0.375000X0.625000X-0.375000X0.625000X0*%
%TD*%
%TA.AperFunction,ComponentPad*%
%ADD11C,1.600000*%
%TD*%
%TA.AperFunction,ComponentPad*%
%ADD12C,2.601000*%
%TD*%
%TA.AperFunction,SMDPad,CuDef*%
%ADD13RoundRect,0.250000X-0.262500X-0.450000X0.262500X-0.450000X0.262500X0.450000X-0.262500X0.450000X0*%
%TD*%
%TA.AperFunction,SMDPad,CuDef*%
%ADD14RoundRect,0.250000X0.375000X0.625000X-0.375000X0.625000X-0.375000X-0.625000X0.375000X-0.625000X0*%
%TD*%
%TA.AperFunction,Conductor*%
%ADD15C,0.400000*%
%TD*%
%TA.AperFunction,Conductor*%
%ADD16C,0.600000*%
%TD*%
G04 APERTURE END LIST*
D10*
%TO.P,D2,1,K_1*%
%TO.N,/LED_DRV*%
X21600000Y-14000000D03*
%TO.P,D2,2,A_2*%
%TO.N,/SIG-*%
X24400000Y-14000000D03*
%TD*%
D11*
%TO.P,J1,1,OUT_1*%
%TO.N,/SIG+*%
X10865000Y-10000000D03*
%TO.P,J1,2,2_2*%
%TO.N,/SIG-*%
X10865000Y-12500000D03*
D12*
%TO.P,J1,3,3_3*%
X5815000Y-15050000D03*
%TO.P,J1,4,4_4*%
X5815000Y-4950000D03*
%TD*%
D13*
%TO.P,R1,1*%
%TO.N,/SIG+*%
X16087500Y-10000000D03*
%TO.P,R1,2*%
%TO.N,/LED_DRV*%
X17912500Y-10000000D03*
%TD*%
D14*
%TO.P,D1,1,K_1*%
%TO.N,/SIG-*%
X24400000Y-6000000D03*
%TO.P,D1,2,A_2*%
%TO.N,/LED_DRV*%
X21600000Y-6000000D03*
%TD*%
%TO.N,/SIG+*%
D15*
X10865000Y-10000000D02*
X16087500Y-10000000D01*
%TO.N,/SIG-*%
X24400000Y-14000000D02*
X26000000Y-14000000D01*
X13500000Y-17000000D02*
X12500000Y-16000000D01*
X26000000Y-7000000D02*
X26000000Y-14000000D01*
D16*
X5815000Y-4950000D02*
X5815000Y-15050000D01*
D15*
X25000000Y-17000000D02*
X13500000Y-17000000D01*
X26000000Y-16000000D02*
X25000000Y-17000000D01*
X24400000Y-6000000D02*
X25000000Y-6000000D01*
D16*
X8314999Y-12500000D02*
X10865000Y-12500000D01*
D15*
X12500000Y-14135000D02*
X10865000Y-12500000D01*
X26000000Y-14000000D02*
X26000000Y-16000000D01*
X12500000Y-16000000D02*
X12500000Y-14135000D01*
X25000000Y-6000000D02*
X26000000Y-7000000D01*
D16*
X5815000Y-15050000D02*
X8314999Y-12500000D01*
%TO.N,/LED_DRV*%
D15*
X19000000Y-10000000D02*
X19000000Y-12000000D01*
X21000000Y-14000000D02*
X21600000Y-14000000D01*
X17912500Y-10000000D02*
X19000000Y-10000000D01*
X19000000Y-12000000D02*
X21000000Y-14000000D01*
X19000000Y-10000000D02*
X19000000Y-8000000D01*
X19000000Y-8000000D02*
X21000000Y-6000000D01*
X21000000Y-6000000D02*
X21600000Y-6000000D01*
%TD*%
M02*
