%TF.GenerationSoftware,KiCad,Pcbnew,10.0.6-10.0.6~ubuntu24.04.1*%
%TF.CreationDate,2026-09-23T08:41:49-07:00*%
%TF.ProjectId,direction-led-tester,64697265-6374-4696-9f6e-2d6c65642d74,C*%
%TF.SameCoordinates,Original*%
%TF.FileFunction,Other,User*%
%FSLAX46Y46*%
G04 Gerber Fmt 4.6, Leading zero omitted, Abs format (unit mm)*
G04 Created by KiCad (PCBNEW 10.0.6-10.0.6~ubuntu24.04.1) date 2026-09-23 08:41:49*
%MOMM*%
%LPD*%
G01*
G04 APERTURE LIST*
%ADD10C,0.050000*%
G04 APERTURE END LIST*
%TO.C,D2*%
D10*
X20720000Y-12880000D02*
X25280000Y-12880000D01*
X20720000Y-15120000D02*
X20720000Y-12880000D01*
X25280000Y-12880000D02*
X25280000Y-15120000D01*
X25280000Y-15120000D02*
X20720000Y-15120000D01*
%TO.C,J1*%
X-22700000Y-5250000D02*
X-22700000Y-14750000D01*
X-22700000Y-14750000D02*
X-10710000Y-14750000D01*
X-10710000Y-5250000D02*
X-22700000Y-5250000D01*
X-10710000Y-14750000D02*
X-9440000Y-16350000D01*
X-9440000Y-3650000D02*
X-10710000Y-5250000D01*
X-9440000Y-16350000D02*
X-1820000Y-16350000D01*
X-1820000Y-2650000D02*
X-1820000Y-3650000D01*
X-1820000Y-3650000D02*
X-9440000Y-3650000D01*
X-1820000Y-16350000D02*
X-1820000Y-17350000D01*
X-1820000Y-17350000D02*
X12800000Y-17350000D01*
X12800000Y-2650000D02*
X-1820000Y-2650000D01*
X12800000Y-17350000D02*
X12800000Y-2650000D01*
%TO.C,R1*%
X15320000Y-9050000D02*
X18680000Y-9050000D01*
X15320000Y-10950000D02*
X15320000Y-9050000D01*
X18680000Y-9050000D02*
X18680000Y-10950000D01*
X18680000Y-10950000D02*
X15320000Y-10950000D01*
%TO.C,D1*%
X20720000Y-4880000D02*
X25280000Y-4880000D01*
X20720000Y-7120000D02*
X20720000Y-4880000D01*
X25280000Y-4880000D02*
X25280000Y-7120000D01*
X25280000Y-7120000D02*
X20720000Y-7120000D01*
%TD*%
M02*
