%TF.GenerationSoftware,KiCad,Pcbnew,10.0.6-10.0.6~ubuntu24.04.1*%
%TF.CreationDate,2026-09-23T08:41:49-07:00*%
%TF.ProjectId,direction-led-tester,64697265-6374-4696-9f6e-2d6c65642d74,C*%
%TF.SameCoordinates,Original*%
%TF.FileFunction,Soldermask,Top*%
%TF.FilePolarity,Negative*%
%FSLAX46Y46*%
G04 Gerber Fmt 4.6, Leading zero omitted, Abs format (unit mm)*
G04 Created by KiCad (PCBNEW 10.0.6-10.0.6~ubuntu24.04.1) date 2026-09-23 08:41:49*
%MOMM*%
%LPD*%
G01*
G04 APERTURE LIST*
G04 APERTURE END LIST*
G36*
X6130268Y-13736814D02*
G01*
X6331814Y-13802301D01*
X6520634Y-13898509D01*
X6692080Y-14023072D01*
X6841928Y-14172920D01*
X6966491Y-14344366D01*
X7062699Y-14533186D01*
X7128186Y-14734732D01*
X7161337Y-14944041D01*
X7161337Y-15155959D01*
X7128186Y-15365268D01*
X7062699Y-15566814D01*
X6966491Y-15755634D01*
X6841928Y-15927080D01*
X6692080Y-16076928D01*
X6520634Y-16201491D01*
X6331814Y-16297699D01*
X6130268Y-16363186D01*
X5920959Y-16396337D01*
X5709041Y-16396337D01*
X5499732Y-16363186D01*
X5298186Y-16297699D01*
X5109366Y-16201491D01*
X4937920Y-16076928D01*
X4788072Y-15927080D01*
X4663509Y-15755634D01*
X4567301Y-15566814D01*
X4501814Y-15365268D01*
X4468663Y-15155959D01*
X4468663Y-14944041D01*
X4501814Y-14734732D01*
X4567301Y-14533186D01*
X4663509Y-14344366D01*
X4788072Y-14172920D01*
X4937920Y-14023072D01*
X5109366Y-13898509D01*
X5298186Y-13802301D01*
X5499732Y-13736814D01*
X5709041Y-13703663D01*
X5920959Y-13703663D01*
X6130268Y-13736814D01*
G37*
G36*
X22043685Y-13082969D02*
G01*
X22052358Y-13086798D01*
X22059925Y-13087901D01*
X22107223Y-13111023D01*
X22144541Y-13127501D01*
X22147996Y-13130956D01*
X22148920Y-13131408D01*
X22218591Y-13201079D01*
X22219042Y-13202002D01*
X22222499Y-13205459D01*
X22238978Y-13242782D01*
X22262098Y-13290073D01*
X22263200Y-13297639D01*
X22267031Y-13306315D01*
X22275000Y-13375000D01*
X22275000Y-14625000D01*
X22267031Y-14693685D01*
X22263199Y-14702361D01*
X22262098Y-14709925D01*
X22238985Y-14757202D01*
X22222499Y-14794541D01*
X22219041Y-14797998D01*
X22218591Y-14798920D01*
X22148920Y-14868591D01*
X22147998Y-14869041D01*
X22144541Y-14872499D01*
X22107207Y-14888983D01*
X22059926Y-14912098D01*
X22052361Y-14913200D01*
X22043685Y-14917031D01*
X21975000Y-14925000D01*
X21225000Y-14925000D01*
X21156315Y-14917031D01*
X21147638Y-14913200D01*
X21140074Y-14912098D01*
X21092787Y-14888981D01*
X21055459Y-14872499D01*
X21052002Y-14869042D01*
X21051079Y-14868591D01*
X20981408Y-14798920D01*
X20980956Y-14797996D01*
X20977501Y-14794541D01*
X20961025Y-14757228D01*
X20937901Y-14709926D01*
X20936798Y-14702357D01*
X20932969Y-14693685D01*
X20925000Y-14625000D01*
X20925000Y-13375000D01*
X20932969Y-13306315D01*
X20936798Y-13297642D01*
X20937901Y-13290074D01*
X20961028Y-13242766D01*
X20977501Y-13205459D01*
X20980955Y-13202004D01*
X20981408Y-13201079D01*
X21051079Y-13131408D01*
X21052004Y-13130955D01*
X21055459Y-13127501D01*
X21092761Y-13111030D01*
X21140073Y-13087901D01*
X21147642Y-13086798D01*
X21156315Y-13082969D01*
X21225000Y-13075000D01*
X21975000Y-13075000D01*
X22043685Y-13082969D01*
G37*
G36*
X24843685Y-13082969D02*
G01*
X24852358Y-13086798D01*
X24859925Y-13087901D01*
X24907223Y-13111023D01*
X24944541Y-13127501D01*
X24947996Y-13130956D01*
X24948920Y-13131408D01*
X25018591Y-13201079D01*
X25019042Y-13202002D01*
X25022499Y-13205459D01*
X25038978Y-13242782D01*
X25062098Y-13290073D01*
X25063200Y-13297639D01*
X25067031Y-13306315D01*
X25075000Y-13375000D01*
X25075000Y-14625000D01*
X25067031Y-14693685D01*
X25063199Y-14702361D01*
X25062098Y-14709925D01*
X25038985Y-14757202D01*
X25022499Y-14794541D01*
X25019041Y-14797998D01*
X25018591Y-14798920D01*
X24948920Y-14868591D01*
X24947998Y-14869041D01*
X24944541Y-14872499D01*
X24907207Y-14888983D01*
X24859926Y-14912098D01*
X24852361Y-14913200D01*
X24843685Y-14917031D01*
X24775000Y-14925000D01*
X24025000Y-14925000D01*
X23956315Y-14917031D01*
X23947638Y-14913200D01*
X23940074Y-14912098D01*
X23892787Y-14888981D01*
X23855459Y-14872499D01*
X23852002Y-14869042D01*
X23851079Y-14868591D01*
X23781408Y-14798920D01*
X23780956Y-14797996D01*
X23777501Y-14794541D01*
X23761025Y-14757228D01*
X23737901Y-14709926D01*
X23736798Y-14702357D01*
X23732969Y-14693685D01*
X23725000Y-14625000D01*
X23725000Y-13375000D01*
X23732969Y-13306315D01*
X23736798Y-13297642D01*
X23737901Y-13290074D01*
X23761028Y-13242766D01*
X23777501Y-13205459D01*
X23780955Y-13202004D01*
X23781408Y-13201079D01*
X23851079Y-13131408D01*
X23852004Y-13130955D01*
X23855459Y-13127501D01*
X23892761Y-13111030D01*
X23940073Y-13087901D01*
X23947642Y-13086798D01*
X23956315Y-13082969D01*
X24025000Y-13075000D01*
X24775000Y-13075000D01*
X24843685Y-13082969D01*
G37*
G36*
X11111742Y-11686601D02*
G01*
X11265687Y-11750367D01*
X11404234Y-11842941D01*
X11522059Y-11960766D01*
X11614633Y-12099313D01*
X11678399Y-12253258D01*
X11710907Y-12416685D01*
X11710907Y-12583315D01*
X11678399Y-12746742D01*
X11614633Y-12900687D01*
X11522059Y-13039234D01*
X11404234Y-13157059D01*
X11265687Y-13249633D01*
X11111742Y-13313399D01*
X10948315Y-13345907D01*
X10781685Y-13345907D01*
X10618258Y-13313399D01*
X10464313Y-13249633D01*
X10325766Y-13157059D01*
X10207941Y-13039234D01*
X10115367Y-12900687D01*
X10051601Y-12746742D01*
X10019093Y-12583315D01*
X10019093Y-12416685D01*
X10051601Y-12253258D01*
X10115367Y-12099313D01*
X10207941Y-11960766D01*
X10325766Y-11842941D01*
X10464313Y-11750367D01*
X10618258Y-11686601D01*
X10781685Y-11654093D01*
X10948315Y-11654093D01*
X11111742Y-11686601D01*
G37*
G36*
X11111742Y-9186601D02*
G01*
X11265687Y-9250367D01*
X11404234Y-9342941D01*
X11522059Y-9460766D01*
X11614633Y-9599313D01*
X11678399Y-9753258D01*
X11710907Y-9916685D01*
X11710907Y-10083315D01*
X11678399Y-10246742D01*
X11614633Y-10400687D01*
X11522059Y-10539234D01*
X11404234Y-10657059D01*
X11265687Y-10749633D01*
X11111742Y-10813399D01*
X10948315Y-10845907D01*
X10781685Y-10845907D01*
X10618258Y-10813399D01*
X10464313Y-10749633D01*
X10325766Y-10657059D01*
X10207941Y-10539234D01*
X10115367Y-10400687D01*
X10051601Y-10246742D01*
X10019093Y-10083315D01*
X10019093Y-9916685D01*
X10051601Y-9753258D01*
X10115367Y-9599313D01*
X10207941Y-9460766D01*
X10325766Y-9342941D01*
X10464313Y-9250367D01*
X10618258Y-9186601D01*
X10781685Y-9154093D01*
X10948315Y-9154093D01*
X11111742Y-9186601D01*
G37*
G36*
X16418685Y-9257969D02*
G01*
X16427358Y-9261798D01*
X16434925Y-9262901D01*
X16482223Y-9286023D01*
X16519541Y-9302501D01*
X16522996Y-9305956D01*
X16523920Y-9306408D01*
X16593591Y-9376079D01*
X16594042Y-9377002D01*
X16597499Y-9380459D01*
X16613978Y-9417782D01*
X16637098Y-9465073D01*
X16638200Y-9472639D01*
X16642031Y-9481315D01*
X16650000Y-9550000D01*
X16650000Y-10450000D01*
X16642031Y-10518685D01*
X16638199Y-10527361D01*
X16637098Y-10534925D01*
X16613985Y-10582202D01*
X16597499Y-10619541D01*
X16594041Y-10622998D01*
X16593591Y-10623920D01*
X16523920Y-10693591D01*
X16522998Y-10694041D01*
X16519541Y-10697499D01*
X16482207Y-10713983D01*
X16434926Y-10737098D01*
X16427361Y-10738200D01*
X16418685Y-10742031D01*
X16350000Y-10750000D01*
X15825000Y-10750000D01*
X15756315Y-10742031D01*
X15747638Y-10738200D01*
X15740074Y-10737098D01*
X15692787Y-10713981D01*
X15655459Y-10697499D01*
X15652002Y-10694042D01*
X15651079Y-10693591D01*
X15581408Y-10623920D01*
X15580956Y-10622996D01*
X15577501Y-10619541D01*
X15561025Y-10582228D01*
X15537901Y-10534926D01*
X15536798Y-10527357D01*
X15532969Y-10518685D01*
X15525000Y-10450000D01*
X15525000Y-9550000D01*
X15532969Y-9481315D01*
X15536798Y-9472642D01*
X15537901Y-9465074D01*
X15561028Y-9417766D01*
X15577501Y-9380459D01*
X15580955Y-9377004D01*
X15581408Y-9376079D01*
X15651079Y-9306408D01*
X15652004Y-9305955D01*
X15655459Y-9302501D01*
X15692761Y-9286030D01*
X15740073Y-9262901D01*
X15747642Y-9261798D01*
X15756315Y-9257969D01*
X15825000Y-9250000D01*
X16350000Y-9250000D01*
X16418685Y-9257969D01*
G37*
G36*
X18243685Y-9257969D02*
G01*
X18252358Y-9261798D01*
X18259925Y-9262901D01*
X18307223Y-9286023D01*
X18344541Y-9302501D01*
X18347996Y-9305956D01*
X18348920Y-9306408D01*
X18418591Y-9376079D01*
X18419042Y-9377002D01*
X18422499Y-9380459D01*
X18438978Y-9417782D01*
X18462098Y-9465073D01*
X18463200Y-9472639D01*
X18467031Y-9481315D01*
X18475000Y-9550000D01*
X18475000Y-10450000D01*
X18467031Y-10518685D01*
X18463199Y-10527361D01*
X18462098Y-10534925D01*
X18438985Y-10582202D01*
X18422499Y-10619541D01*
X18419041Y-10622998D01*
X18418591Y-10623920D01*
X18348920Y-10693591D01*
X18347998Y-10694041D01*
X18344541Y-10697499D01*
X18307207Y-10713983D01*
X18259926Y-10737098D01*
X18252361Y-10738200D01*
X18243685Y-10742031D01*
X18175000Y-10750000D01*
X17650000Y-10750000D01*
X17581315Y-10742031D01*
X17572638Y-10738200D01*
X17565074Y-10737098D01*
X17517787Y-10713981D01*
X17480459Y-10697499D01*
X17477002Y-10694042D01*
X17476079Y-10693591D01*
X17406408Y-10623920D01*
X17405956Y-10622996D01*
X17402501Y-10619541D01*
X17386025Y-10582228D01*
X17362901Y-10534926D01*
X17361798Y-10527357D01*
X17357969Y-10518685D01*
X17350000Y-10450000D01*
X17350000Y-9550000D01*
X17357969Y-9481315D01*
X17361798Y-9472642D01*
X17362901Y-9465074D01*
X17386028Y-9417766D01*
X17402501Y-9380459D01*
X17405955Y-9377004D01*
X17406408Y-9376079D01*
X17476079Y-9306408D01*
X17477004Y-9305955D01*
X17480459Y-9302501D01*
X17517761Y-9286030D01*
X17565073Y-9262901D01*
X17572642Y-9261798D01*
X17581315Y-9257969D01*
X17650000Y-9250000D01*
X18175000Y-9250000D01*
X18243685Y-9257969D01*
G37*
G36*
X22043685Y-5082969D02*
G01*
X22052358Y-5086798D01*
X22059925Y-5087901D01*
X22107223Y-5111023D01*
X22144541Y-5127501D01*
X22147996Y-5130956D01*
X22148920Y-5131408D01*
X22218591Y-5201079D01*
X22219042Y-5202002D01*
X22222499Y-5205459D01*
X22238978Y-5242782D01*
X22262098Y-5290073D01*
X22263200Y-5297639D01*
X22267031Y-5306315D01*
X22275000Y-5375000D01*
X22275000Y-6625000D01*
X22267031Y-6693685D01*
X22263199Y-6702361D01*
X22262098Y-6709925D01*
X22238985Y-6757202D01*
X22222499Y-6794541D01*
X22219041Y-6797998D01*
X22218591Y-6798920D01*
X22148920Y-6868591D01*
X22147998Y-6869041D01*
X22144541Y-6872499D01*
X22107207Y-6888983D01*
X22059926Y-6912098D01*
X22052361Y-6913200D01*
X22043685Y-6917031D01*
X21975000Y-6925000D01*
X21225000Y-6925000D01*
X21156315Y-6917031D01*
X21147638Y-6913200D01*
X21140074Y-6912098D01*
X21092787Y-6888981D01*
X21055459Y-6872499D01*
X21052002Y-6869042D01*
X21051079Y-6868591D01*
X20981408Y-6798920D01*
X20980956Y-6797996D01*
X20977501Y-6794541D01*
X20961025Y-6757228D01*
X20937901Y-6709926D01*
X20936798Y-6702357D01*
X20932969Y-6693685D01*
X20925000Y-6625000D01*
X20925000Y-5375000D01*
X20932969Y-5306315D01*
X20936798Y-5297642D01*
X20937901Y-5290074D01*
X20961028Y-5242766D01*
X20977501Y-5205459D01*
X20980955Y-5202004D01*
X20981408Y-5201079D01*
X21051079Y-5131408D01*
X21052004Y-5130955D01*
X21055459Y-5127501D01*
X21092761Y-5111030D01*
X21140073Y-5087901D01*
X21147642Y-5086798D01*
X21156315Y-5082969D01*
X21225000Y-5075000D01*
X21975000Y-5075000D01*
X22043685Y-5082969D01*
G37*
G36*
X24843685Y-5082969D02*
G01*
X24852358Y-5086798D01*
X24859925Y-5087901D01*
X24907223Y-5111023D01*
X24944541Y-5127501D01*
X24947996Y-5130956D01*
X24948920Y-5131408D01*
X25018591Y-5201079D01*
X25019042Y-5202002D01*
X25022499Y-5205459D01*
X25038978Y-5242782D01*
X25062098Y-5290073D01*
X25063200Y-5297639D01*
X25067031Y-5306315D01*
X25075000Y-5375000D01*
X25075000Y-6625000D01*
X25067031Y-6693685D01*
X25063199Y-6702361D01*
X25062098Y-6709925D01*
X25038985Y-6757202D01*
X25022499Y-6794541D01*
X25019041Y-6797998D01*
X25018591Y-6798920D01*
X24948920Y-6868591D01*
X24947998Y-6869041D01*
X24944541Y-6872499D01*
X24907207Y-6888983D01*
X24859926Y-6912098D01*
X24852361Y-6913200D01*
X24843685Y-6917031D01*
X24775000Y-6925000D01*
X24025000Y-6925000D01*
X23956315Y-6917031D01*
X23947638Y-6913200D01*
X23940074Y-6912098D01*
X23892787Y-6888981D01*
X23855459Y-6872499D01*
X23852002Y-6869042D01*
X23851079Y-6868591D01*
X23781408Y-6798920D01*
X23780956Y-6797996D01*
X23777501Y-6794541D01*
X23761025Y-6757228D01*
X23737901Y-6709926D01*
X23736798Y-6702357D01*
X23732969Y-6693685D01*
X23725000Y-6625000D01*
X23725000Y-5375000D01*
X23732969Y-5306315D01*
X23736798Y-5297642D01*
X23737901Y-5290074D01*
X23761028Y-5242766D01*
X23777501Y-5205459D01*
X23780955Y-5202004D01*
X23781408Y-5201079D01*
X23851079Y-5131408D01*
X23852004Y-5130955D01*
X23855459Y-5127501D01*
X23892761Y-5111030D01*
X23940073Y-5087901D01*
X23947642Y-5086798D01*
X23956315Y-5082969D01*
X24025000Y-5075000D01*
X24775000Y-5075000D01*
X24843685Y-5082969D01*
G37*
G36*
X6130268Y-3636814D02*
G01*
X6331814Y-3702301D01*
X6520634Y-3798509D01*
X6692080Y-3923072D01*
X6841928Y-4072920D01*
X6966491Y-4244366D01*
X7062699Y-4433186D01*
X7128186Y-4634732D01*
X7161337Y-4844041D01*
X7161337Y-5055959D01*
X7128186Y-5265268D01*
X7062699Y-5466814D01*
X6966491Y-5655634D01*
X6841928Y-5827080D01*
X6692080Y-5976928D01*
X6520634Y-6101491D01*
X6331814Y-6197699D01*
X6130268Y-6263186D01*
X5920959Y-6296337D01*
X5709041Y-6296337D01*
X5499732Y-6263186D01*
X5298186Y-6197699D01*
X5109366Y-6101491D01*
X4937920Y-5976928D01*
X4788072Y-5827080D01*
X4663509Y-5655634D01*
X4567301Y-5466814D01*
X4501814Y-5265268D01*
X4468663Y-5055959D01*
X4468663Y-4844041D01*
X4501814Y-4634732D01*
X4567301Y-4433186D01*
X4663509Y-4244366D01*
X4788072Y-4072920D01*
X4937920Y-3923072D01*
X5109366Y-3798509D01*
X5298186Y-3702301D01*
X5499732Y-3636814D01*
X5709041Y-3603663D01*
X5920959Y-3603663D01*
X6130268Y-3636814D01*
G37*
M02*
