%TF.GenerationSoftware,KiCad,Pcbnew,10.0.6-10.0.6~ubuntu24.04.1*%
%TF.CreationDate,2026-09-23T08:41:49-07:00*%
%TF.ProjectId,direction-led-tester,64697265-6374-4696-9f6e-2d6c65642d74,C*%
%TF.SameCoordinates,Original*%
%TF.FileFunction,Soldermask,Bot*%
%TF.FilePolarity,Negative*%
%FSLAX46Y46*%
G04 Gerber Fmt 4.6, Leading zero omitted, Abs format (unit mm)*
G04 Created by KiCad (PCBNEW 10.0.6-10.0.6~ubuntu24.04.1) date 2026-09-23 08:41:49*
%MOMM*%
%LPD*%
G01*
G04 APERTURE LIST*
G04 APERTURE END LIST*
G36*
X6130268Y-13736814D02*
G01*
X6331814Y-13802301D01*
X6520634Y-13898509D01*
X6692080Y-14023072D01*
X6841928Y-14172920D01*
X6966491Y-14344366D01*
X7062699Y-14533186D01*
X7128186Y-14734732D01*
X7161337Y-14944041D01*
X7161337Y-15155959D01*
X7128186Y-15365268D01*
X7062699Y-15566814D01*
X6966491Y-15755634D01*
X6841928Y-15927080D01*
X6692080Y-16076928D01*
X6520634Y-16201491D01*
X6331814Y-16297699D01*
X6130268Y-16363186D01*
X5920959Y-16396337D01*
X5709041Y-16396337D01*
X5499732Y-16363186D01*
X5298186Y-16297699D01*
X5109366Y-16201491D01*
X4937920Y-16076928D01*
X4788072Y-15927080D01*
X4663509Y-15755634D01*
X4567301Y-15566814D01*
X4501814Y-15365268D01*
X4468663Y-15155959D01*
X4468663Y-14944041D01*
X4501814Y-14734732D01*
X4567301Y-14533186D01*
X4663509Y-14344366D01*
X4788072Y-14172920D01*
X4937920Y-14023072D01*
X5109366Y-13898509D01*
X5298186Y-13802301D01*
X5499732Y-13736814D01*
X5709041Y-13703663D01*
X5920959Y-13703663D01*
X6130268Y-13736814D01*
G37*
G36*
X11111742Y-11686601D02*
G01*
X11265687Y-11750367D01*
X11404234Y-11842941D01*
X11522059Y-11960766D01*
X11614633Y-12099313D01*
X11678399Y-12253258D01*
X11710907Y-12416685D01*
X11710907Y-12583315D01*
X11678399Y-12746742D01*
X11614633Y-12900687D01*
X11522059Y-13039234D01*
X11404234Y-13157059D01*
X11265687Y-13249633D01*
X11111742Y-13313399D01*
X10948315Y-13345907D01*
X10781685Y-13345907D01*
X10618258Y-13313399D01*
X10464313Y-13249633D01*
X10325766Y-13157059D01*
X10207941Y-13039234D01*
X10115367Y-12900687D01*
X10051601Y-12746742D01*
X10019093Y-12583315D01*
X10019093Y-12416685D01*
X10051601Y-12253258D01*
X10115367Y-12099313D01*
X10207941Y-11960766D01*
X10325766Y-11842941D01*
X10464313Y-11750367D01*
X10618258Y-11686601D01*
X10781685Y-11654093D01*
X10948315Y-11654093D01*
X11111742Y-11686601D01*
G37*
G36*
X11111742Y-9186601D02*
G01*
X11265687Y-9250367D01*
X11404234Y-9342941D01*
X11522059Y-9460766D01*
X11614633Y-9599313D01*
X11678399Y-9753258D01*
X11710907Y-9916685D01*
X11710907Y-10083315D01*
X11678399Y-10246742D01*
X11614633Y-10400687D01*
X11522059Y-10539234D01*
X11404234Y-10657059D01*
X11265687Y-10749633D01*
X11111742Y-10813399D01*
X10948315Y-10845907D01*
X10781685Y-10845907D01*
X10618258Y-10813399D01*
X10464313Y-10749633D01*
X10325766Y-10657059D01*
X10207941Y-10539234D01*
X10115367Y-10400687D01*
X10051601Y-10246742D01*
X10019093Y-10083315D01*
X10019093Y-9916685D01*
X10051601Y-9753258D01*
X10115367Y-9599313D01*
X10207941Y-9460766D01*
X10325766Y-9342941D01*
X10464313Y-9250367D01*
X10618258Y-9186601D01*
X10781685Y-9154093D01*
X10948315Y-9154093D01*
X11111742Y-9186601D01*
G37*
G36*
X6130268Y-3636814D02*
G01*
X6331814Y-3702301D01*
X6520634Y-3798509D01*
X6692080Y-3923072D01*
X6841928Y-4072920D01*
X6966491Y-4244366D01*
X7062699Y-4433186D01*
X7128186Y-4634732D01*
X7161337Y-4844041D01*
X7161337Y-5055959D01*
X7128186Y-5265268D01*
X7062699Y-5466814D01*
X6966491Y-5655634D01*
X6841928Y-5827080D01*
X6692080Y-5976928D01*
X6520634Y-6101491D01*
X6331814Y-6197699D01*
X6130268Y-6263186D01*
X5920959Y-6296337D01*
X5709041Y-6296337D01*
X5499732Y-6263186D01*
X5298186Y-6197699D01*
X5109366Y-6101491D01*
X4937920Y-5976928D01*
X4788072Y-5827080D01*
X4663509Y-5655634D01*
X4567301Y-5466814D01*
X4501814Y-5265268D01*
X4468663Y-5055959D01*
X4468663Y-4844041D01*
X4501814Y-4634732D01*
X4567301Y-4433186D01*
X4663509Y-4244366D01*
X4788072Y-4072920D01*
X4937920Y-3923072D01*
X5109366Y-3798509D01*
X5298186Y-3702301D01*
X5499732Y-3636814D01*
X5709041Y-3603663D01*
X5920959Y-3603663D01*
X6130268Y-3636814D01*
G37*
M02*
