%TF.GenerationSoftware,KiCad,Pcbnew,10.0.6-10.0.6~ubuntu24.04.1*%
%TF.CreationDate,2026-09-23T08:41:49-07:00*%
%TF.ProjectId,direction-led-tester,64697265-6374-4696-9f6e-2d6c65642d74,C*%
%TF.SameCoordinates,Original*%
%TF.FileFunction,Legend,Top*%
%TF.FilePolarity,Positive*%
%FSLAX46Y46*%
G04 Gerber Fmt 4.6, Leading zero omitted, Abs format (unit mm)*
G04 Created by KiCad (PCBNEW 10.0.6-10.0.6~ubuntu24.04.1) date 2026-09-23 08:41:49*
%MOMM*%
%LPD*%
G01*
G04 APERTURE LIST*
%ADD10C,0.150000*%
%ADD11C,0.130000*%
%ADD12C,0.120000*%
G04 APERTURE END LIST*
D10*
X30247619Y-18786104D02*
X30209523Y-18824200D01*
X30209523Y-18824200D02*
X30095238Y-18862295D01*
X30095238Y-18862295D02*
X30019047Y-18862295D01*
X30019047Y-18862295D02*
X29904761Y-18824200D01*
X29904761Y-18824200D02*
X29828571Y-18748009D01*
X29828571Y-18748009D02*
X29790476Y-18671819D01*
X29790476Y-18671819D02*
X29752380Y-18519438D01*
X29752380Y-18519438D02*
X29752380Y-18405152D01*
X29752380Y-18405152D02*
X29790476Y-18252771D01*
X29790476Y-18252771D02*
X29828571Y-18176580D01*
X29828571Y-18176580D02*
X29904761Y-18100390D01*
X29904761Y-18100390D02*
X30019047Y-18062295D01*
X30019047Y-18062295D02*
X30095238Y-18062295D01*
X30095238Y-18062295D02*
X30209523Y-18100390D01*
X30209523Y-18100390D02*
X30247619Y-18138485D01*
X19833333Y-2454819D02*
X19833333Y-1454819D01*
X19833333Y-1454819D02*
X20214285Y-1454819D01*
X20214285Y-1454819D02*
X20309523Y-1502438D01*
X20309523Y-1502438D02*
X20357142Y-1550057D01*
X20357142Y-1550057D02*
X20404761Y-1645295D01*
X20404761Y-1645295D02*
X20404761Y-1788152D01*
X20404761Y-1788152D02*
X20357142Y-1883390D01*
X20357142Y-1883390D02*
X20309523Y-1931009D01*
X20309523Y-1931009D02*
X20214285Y-1978628D01*
X20214285Y-1978628D02*
X19833333Y-1978628D01*
X21023809Y-1454819D02*
X21214285Y-1454819D01*
X21214285Y-1454819D02*
X21309523Y-1502438D01*
X21309523Y-1502438D02*
X21404761Y-1597676D01*
X21404761Y-1597676D02*
X21452380Y-1788152D01*
X21452380Y-1788152D02*
X21452380Y-2121485D01*
X21452380Y-2121485D02*
X21404761Y-2311961D01*
X21404761Y-2311961D02*
X21309523Y-2407200D01*
X21309523Y-2407200D02*
X21214285Y-2454819D01*
X21214285Y-2454819D02*
X21023809Y-2454819D01*
X21023809Y-2454819D02*
X20928571Y-2407200D01*
X20928571Y-2407200D02*
X20833333Y-2311961D01*
X20833333Y-2311961D02*
X20785714Y-2121485D01*
X20785714Y-2121485D02*
X20785714Y-1788152D01*
X20785714Y-1788152D02*
X20833333Y-1597676D01*
X20833333Y-1597676D02*
X20928571Y-1502438D01*
X20928571Y-1502438D02*
X21023809Y-1454819D01*
X22357142Y-2454819D02*
X21880952Y-2454819D01*
X21880952Y-2454819D02*
X21880952Y-1454819D01*
X22642857Y-2169104D02*
X23119047Y-2169104D01*
X22547619Y-2454819D02*
X22880952Y-1454819D01*
X22880952Y-1454819D02*
X23214285Y-2454819D01*
X24119047Y-2454819D02*
X23785714Y-1978628D01*
X23547619Y-2454819D02*
X23547619Y-1454819D01*
X23547619Y-1454819D02*
X23928571Y-1454819D01*
X23928571Y-1454819D02*
X24023809Y-1502438D01*
X24023809Y-1502438D02*
X24071428Y-1550057D01*
X24071428Y-1550057D02*
X24119047Y-1645295D01*
X24119047Y-1645295D02*
X24119047Y-1788152D01*
X24119047Y-1788152D02*
X24071428Y-1883390D01*
X24071428Y-1883390D02*
X24023809Y-1931009D01*
X24023809Y-1931009D02*
X23928571Y-1978628D01*
X23928571Y-1978628D02*
X23547619Y-1978628D01*
X24547619Y-2454819D02*
X24547619Y-1454819D01*
X24880952Y-1454819D02*
X25452380Y-1454819D01*
X25166666Y-2454819D02*
X25166666Y-1454819D01*
X25976190Y-1978628D02*
X25976190Y-2454819D01*
X25642857Y-1454819D02*
X25976190Y-1978628D01*
X25976190Y-1978628D02*
X26309523Y-1454819D01*
X21780952Y-9374211D02*
X21233333Y-9374211D01*
X21233333Y-9374211D02*
X21178571Y-9921830D01*
X21178571Y-9921830D02*
X21233333Y-9867069D01*
X21233333Y-9867069D02*
X21342857Y-9812307D01*
X21342857Y-9812307D02*
X21616666Y-9812307D01*
X21616666Y-9812307D02*
X21726190Y-9867069D01*
X21726190Y-9867069D02*
X21780952Y-9921830D01*
X21780952Y-9921830D02*
X21835714Y-10031354D01*
X21835714Y-10031354D02*
X21835714Y-10305164D01*
X21835714Y-10305164D02*
X21780952Y-10414688D01*
X21780952Y-10414688D02*
X21726190Y-10469450D01*
X21726190Y-10469450D02*
X21616666Y-10524211D01*
X21616666Y-10524211D02*
X21342857Y-10524211D01*
X21342857Y-10524211D02*
X21233333Y-10469450D01*
X21233333Y-10469450D02*
X21178571Y-10414688D01*
X22164285Y-9374211D02*
X22547619Y-10524211D01*
X22547619Y-10524211D02*
X22930952Y-9374211D01*
X28314286Y-6139200D02*
X29685715Y-6139200D01*
X29000000Y-6824914D02*
X29000000Y-5453485D01*
X28314286Y-14139200D02*
X29685715Y-14139200D01*
D11*
X22372618Y-12286467D02*
X22372618Y-11436467D01*
X22372618Y-11436467D02*
X22574999Y-11436467D01*
X22574999Y-11436467D02*
X22696428Y-11476943D01*
X22696428Y-11476943D02*
X22777380Y-11557895D01*
X22777380Y-11557895D02*
X22817857Y-11638848D01*
X22817857Y-11638848D02*
X22858333Y-11800752D01*
X22858333Y-11800752D02*
X22858333Y-11922181D01*
X22858333Y-11922181D02*
X22817857Y-12084086D01*
X22817857Y-12084086D02*
X22777380Y-12165038D01*
X22777380Y-12165038D02*
X22696428Y-12245991D01*
X22696428Y-12245991D02*
X22574999Y-12286467D01*
X22574999Y-12286467D02*
X22372618Y-12286467D01*
X23182142Y-11517419D02*
X23222618Y-11476943D01*
X23222618Y-11476943D02*
X23303571Y-11436467D01*
X23303571Y-11436467D02*
X23505952Y-11436467D01*
X23505952Y-11436467D02*
X23586904Y-11476943D01*
X23586904Y-11476943D02*
X23627380Y-11517419D01*
X23627380Y-11517419D02*
X23667857Y-11598371D01*
X23667857Y-11598371D02*
X23667857Y-11679324D01*
X23667857Y-11679324D02*
X23627380Y-11800752D01*
X23627380Y-11800752D02*
X23141666Y-12286467D01*
X23141666Y-12286467D02*
X23667857Y-12286467D01*
X9716667Y-836467D02*
X9716667Y-1443610D01*
X9716667Y-1443610D02*
X9676190Y-1565038D01*
X9676190Y-1565038D02*
X9595238Y-1645991D01*
X9595238Y-1645991D02*
X9473809Y-1686467D01*
X9473809Y-1686467D02*
X9392857Y-1686467D01*
X10566667Y-1686467D02*
X10080952Y-1686467D01*
X10323809Y-1686467D02*
X10323809Y-836467D01*
X10323809Y-836467D02*
X10242857Y-957895D01*
X10242857Y-957895D02*
X10161905Y-1038848D01*
X10161905Y-1038848D02*
X10080952Y-1079324D01*
X16858333Y-8286467D02*
X16574999Y-7881705D01*
X16372618Y-8286467D02*
X16372618Y-7436467D01*
X16372618Y-7436467D02*
X16696428Y-7436467D01*
X16696428Y-7436467D02*
X16777380Y-7476943D01*
X16777380Y-7476943D02*
X16817857Y-7517419D01*
X16817857Y-7517419D02*
X16858333Y-7598371D01*
X16858333Y-7598371D02*
X16858333Y-7719800D01*
X16858333Y-7719800D02*
X16817857Y-7800752D01*
X16817857Y-7800752D02*
X16777380Y-7841229D01*
X16777380Y-7841229D02*
X16696428Y-7881705D01*
X16696428Y-7881705D02*
X16372618Y-7881705D01*
X17667857Y-8286467D02*
X17182142Y-8286467D01*
X17424999Y-8286467D02*
X17424999Y-7436467D01*
X17424999Y-7436467D02*
X17344047Y-7557895D01*
X17344047Y-7557895D02*
X17263095Y-7638848D01*
X17263095Y-7638848D02*
X17182142Y-7679324D01*
X22372618Y-4286467D02*
X22372618Y-3436467D01*
X22372618Y-3436467D02*
X22574999Y-3436467D01*
X22574999Y-3436467D02*
X22696428Y-3476943D01*
X22696428Y-3476943D02*
X22777380Y-3557895D01*
X22777380Y-3557895D02*
X22817857Y-3638848D01*
X22817857Y-3638848D02*
X22858333Y-3800752D01*
X22858333Y-3800752D02*
X22858333Y-3922181D01*
X22858333Y-3922181D02*
X22817857Y-4084086D01*
X22817857Y-4084086D02*
X22777380Y-4165038D01*
X22777380Y-4165038D02*
X22696428Y-4245991D01*
X22696428Y-4245991D02*
X22574999Y-4286467D01*
X22574999Y-4286467D02*
X22372618Y-4286467D01*
X23667857Y-4286467D02*
X23182142Y-4286467D01*
X23424999Y-4286467D02*
X23424999Y-3436467D01*
X23424999Y-3436467D02*
X23344047Y-3557895D01*
X23344047Y-3557895D02*
X23263095Y-3638848D01*
X23263095Y-3638848D02*
X23182142Y-3679324D01*
%TO.C,D2*%
D12*
X20715000Y-12865000D02*
X20715000Y-15135000D01*
X20715000Y-15135000D02*
X24600000Y-15135000D01*
X24600000Y-12865000D02*
X20715000Y-12865000D01*
%TO.C,J1*%
D10*
X12800000Y-2510000D02*
X540000Y-2510000D01*
X12800000Y-2510000D02*
X12800000Y-17490000D01*
X12800000Y-17490000D02*
X540000Y-17490000D01*
%TO.C,R1*%
D12*
X16772936Y-9265000D02*
X17227064Y-9265000D01*
X16772936Y-10735000D02*
X17227064Y-10735000D01*
%TO.C,D1*%
X21400000Y-7135000D02*
X25285000Y-7135000D01*
X25285000Y-4865000D02*
X21400000Y-4865000D01*
X25285000Y-7135000D02*
X25285000Y-4865000D01*
%TD*%
M02*
